G04*
G04 #@! TF.GenerationSoftware,Altium Limited,Altium Designer,22.5.1 (42)*
G04*
G04 Layer_Color=128*
%FSLAX24Y24*%
%MOIN*%
G70*
G04*
G04 #@! TF.SameCoordinates,15B8646E-C553-4937-87EE-17013A6B0CAB*
G04*
G04*
G04 #@! TF.FilePolarity,Positive*
G04*
G01*
G75*
%ADD91C,0.0020*%
D91*
X26766Y9196D02*
X26845D01*
X26806Y9157D02*
Y9236D01*
X26766Y9346D02*
X26845D01*
X26806Y9307D02*
Y9386D01*
X26766Y9496D02*
X26845D01*
X26806Y9457D02*
Y9536D01*
X26766Y9646D02*
X26845D01*
X26806Y9607D02*
Y9686D01*
X7808Y6957D02*
X7887D01*
X7848Y6918D02*
Y6996D01*
X15211Y10400D02*
X15289D01*
X15250Y10361D02*
Y10439D01*
X15361Y10400D02*
X15439D01*
X15400Y10361D02*
Y10439D01*
X15361Y10250D02*
X15439D01*
X15400Y10211D02*
Y10289D01*
X15511Y10400D02*
X15589D01*
X15550Y10361D02*
Y10439D01*
X15511Y10250D02*
X15589D01*
X15550Y10211D02*
Y10289D01*
X15661Y10400D02*
X15739D01*
X15700Y10361D02*
Y10439D01*
X15661Y10250D02*
X15739D01*
X15700Y10211D02*
Y10289D01*
X15211Y10250D02*
X15289D01*
X15250Y10211D02*
Y10289D01*
X24117Y9983D02*
X24196D01*
X24156Y9943D02*
Y10022D01*
X24117Y9833D02*
X24196D01*
X24156Y9793D02*
Y9872D01*
X23967Y9833D02*
X24046D01*
X24006Y9793D02*
Y9872D01*
X24117Y9683D02*
X24196D01*
X24156Y9643D02*
Y9722D01*
X23967Y9683D02*
X24046D01*
X24006Y9643D02*
Y9722D01*
X24117Y9533D02*
X24196D01*
X24156Y9493D02*
Y9572D01*
X23967Y9533D02*
X24046D01*
X24006Y9493D02*
Y9572D01*
X23967Y9983D02*
X24046D01*
X24006Y9943D02*
Y10022D01*
X10841Y6999D02*
X10920D01*
X10881Y6959D02*
Y7038D01*
X6080Y10634D02*
X6159D01*
X6120Y10595D02*
Y10674D01*
X5630Y10634D02*
X5709D01*
X5670Y10595D02*
Y10674D01*
X5630Y10484D02*
X5709D01*
X5670Y10445D02*
Y10524D01*
X5780Y10634D02*
X5859D01*
X5820Y10595D02*
Y10674D01*
X5780Y10484D02*
X5859D01*
X5820Y10445D02*
Y10524D01*
X5930Y10634D02*
X6009D01*
X5970Y10595D02*
Y10674D01*
X5930Y10484D02*
X6009D01*
X5970Y10445D02*
Y10524D01*
X6080Y10484D02*
X6159D01*
X6120Y10445D02*
Y10524D01*
X-28Y1390D02*
X50D01*
X11Y1351D02*
Y1430D01*
X-28Y1240D02*
X50D01*
X11Y1201D02*
Y1280D01*
X-28Y1090D02*
X50D01*
X11Y1051D02*
Y1130D01*
X-28Y1540D02*
X50D01*
X11Y1501D02*
Y1580D01*
X13377Y1318D02*
X13456D01*
X13417Y1279D02*
Y1357D01*
X13771Y1322D02*
X13850D01*
X13811Y1283D02*
Y1362D01*
X14188Y1322D02*
X14266D01*
X14227Y1283D02*
Y1361D01*
X20880Y2246D02*
X20959D01*
X20920Y2206D02*
Y2285D01*
X20880Y2096D02*
X20959D01*
X20920Y2056D02*
Y2135D01*
X20880Y1946D02*
X20959D01*
X20920Y1906D02*
Y1985D01*
X20880Y2396D02*
X20959D01*
X20920Y2356D02*
Y2435D01*
X18615Y1529D02*
X18693D01*
X18654Y1489D02*
Y1568D01*
X18165Y1529D02*
X18243D01*
X18204Y1489D02*
Y1568D01*
X18165Y1379D02*
X18243D01*
X18204Y1339D02*
Y1418D01*
X18315Y1529D02*
X18393D01*
X18354Y1489D02*
Y1568D01*
X18315Y1379D02*
X18393D01*
X18354Y1339D02*
Y1418D01*
X18465Y1529D02*
X18543D01*
X18504Y1489D02*
Y1568D01*
X18465Y1379D02*
X18543D01*
X18504Y1339D02*
Y1418D01*
X18615Y1379D02*
X18693D01*
X18654Y1339D02*
Y1418D01*
X4013Y3039D02*
X4092D01*
X4052Y3000D02*
Y3078D01*
X3563Y3039D02*
X3642D01*
X3602Y3000D02*
Y3078D01*
X3563Y2889D02*
X3642D01*
X3602Y2850D02*
Y2928D01*
X3713Y3039D02*
X3792D01*
X3752Y3000D02*
Y3078D01*
X3713Y2889D02*
X3792D01*
X3752Y2850D02*
Y2928D01*
X3863Y3039D02*
X3942D01*
X3902Y3000D02*
Y3078D01*
X3863Y2889D02*
X3942D01*
X3902Y2850D02*
Y2928D01*
X4013Y2889D02*
X4092D01*
X4052Y2850D02*
Y2928D01*
X1113Y9445D02*
X1192D01*
X1152Y9406D02*
Y9485D01*
X963Y9445D02*
X1042D01*
X1002Y9406D02*
Y9485D01*
X963Y9595D02*
X1042D01*
X1002Y9556D02*
Y9635D01*
X813Y9445D02*
X892D01*
X852Y9406D02*
Y9485D01*
X813Y9595D02*
X892D01*
X852Y9556D02*
Y9635D01*
X663Y9445D02*
X742D01*
X702Y9406D02*
Y9485D01*
X663Y9595D02*
X742D01*
X702Y9556D02*
Y9635D01*
X6984Y9347D02*
X7062D01*
X7023Y9307D02*
Y9386D01*
X15568Y2966D02*
X15647D01*
X15607Y2926D02*
Y3005D01*
X15798Y3089D02*
X15876D01*
X15837Y3050D02*
Y3128D01*
X15941Y1600D02*
X16019D01*
X15980Y1561D02*
Y1639D01*
X15551Y1600D02*
X15630D01*
X15591Y1561D02*
Y1639D01*
X15354Y1600D02*
X15433D01*
X15394Y1561D02*
Y1639D01*
X25027Y2549D02*
X25106D01*
X25067Y2510D02*
Y2588D01*
X25295Y3644D02*
X25374D01*
X25334Y3605D02*
Y3683D01*
X25556Y3637D02*
X25635D01*
X25595Y3598D02*
Y3677D01*
X14254Y4754D02*
X14333D01*
X14294Y4715D02*
Y4794D01*
X19362Y6989D02*
X19441D01*
X19402Y6949D02*
Y7028D01*
X19362Y7178D02*
X19441D01*
X19402Y7139D02*
Y7218D01*
X24625Y6693D02*
X24704D01*
X24665Y6653D02*
Y6732D01*
X17077Y2957D02*
X17156D01*
X17117Y2917D02*
Y2996D01*
X17700Y2947D02*
X17778D01*
X17739Y2907D02*
Y2986D01*
X19863Y8107D02*
X19942D01*
X19902Y8068D02*
Y8146D01*
X19749Y8037D02*
X19828D01*
X19789Y7998D02*
Y8077D01*
X15346Y7200D02*
X15425D01*
X15386Y7161D02*
Y7240D01*
X15631Y7336D02*
X15710D01*
X15670Y7297D02*
Y7376D01*
X19291Y9364D02*
X19369D01*
X19330Y9324D02*
Y9403D01*
X19287Y9711D02*
X19366D01*
X19326Y9672D02*
Y9751D01*
X14305Y10085D02*
X14384D01*
X14345Y10046D02*
Y10124D01*
X18465Y3189D02*
X18543D01*
X18504Y3150D02*
Y3228D01*
X14930Y2945D02*
X15008D01*
X14969Y2906D02*
Y2985D01*
X15084Y2945D02*
X15163D01*
X15123Y2906D02*
Y2985D01*
X14787Y2945D02*
X14866D01*
X14827Y2906D02*
Y2985D01*
X15375Y2921D02*
X15453D01*
X15414Y2881D02*
Y2960D01*
X14454Y2948D02*
X14532D01*
X14493Y2909D02*
Y2987D01*
X14603Y2946D02*
X14682D01*
X14643Y2907D02*
Y2985D01*
X16737Y1600D02*
X16816D01*
X16777Y1561D02*
Y1639D01*
X16539Y1600D02*
X16617D01*
X16578Y1561D02*
Y1639D01*
X16140Y1600D02*
X16218D01*
X16179Y1561D02*
Y1639D01*
X17135Y1600D02*
X17214D01*
X17175Y1561D02*
Y1639D01*
X15945Y3189D02*
X16024D01*
X15984Y3150D02*
Y3228D01*
X17334Y1600D02*
X17413D01*
X17374Y1561D02*
Y1639D01*
X16151Y6809D02*
X16229D01*
X16190Y6770D02*
Y6849D01*
X15934Y7259D02*
X16013D01*
X15973Y7219D02*
Y7298D01*
X16455Y6413D02*
X16534D01*
X16495Y6373D02*
Y6452D01*
X17028Y6348D02*
X17107D01*
X17068Y6309D02*
Y6387D01*
X22104Y8867D02*
X22183D01*
X22143Y8827D02*
Y8906D01*
X21954Y2202D02*
X22033D01*
X21993Y2163D02*
Y2242D01*
X22165Y2205D02*
X22244D01*
X22205Y2165D02*
Y2244D01*
X21738Y2206D02*
X21817D01*
X21778Y2167D02*
Y2245D01*
X15197Y5558D02*
X15276D01*
X15237Y5519D02*
Y5597D01*
X19453Y4068D02*
X19532D01*
X19493Y4028D02*
Y4107D01*
X17657Y5531D02*
X17736D01*
X17696Y5492D02*
Y5571D01*
X17604Y6720D02*
X17683D01*
X17643Y6680D02*
Y6759D01*
X17330Y6583D02*
X17409D01*
X17370Y6543D02*
Y6622D01*
X17196Y6331D02*
X17274D01*
X17235Y6291D02*
Y6370D01*
X14666Y7258D02*
X14745D01*
X14706Y7218D02*
Y7297D01*
X15166Y5958D02*
X15244D01*
X15205Y5919D02*
Y5997D01*
X3561Y3750D02*
X3639D01*
X3600Y3711D02*
Y3789D01*
X3211Y3750D02*
X3289D01*
X3250Y3711D02*
Y3789D01*
X3189Y5591D02*
X3268D01*
X3228Y5551D02*
Y5630D01*
X3386Y7165D02*
X3465D01*
X3425Y7126D02*
Y7205D01*
X10551Y6496D02*
X10630D01*
X10591Y6457D02*
Y6535D01*
X23077Y7636D02*
X23156D01*
X23116Y7597D02*
Y7675D01*
X820Y11398D02*
X899D01*
X859Y11358D02*
Y11437D01*
X1658Y11396D02*
X1736D01*
X1697Y11356D02*
Y11435D01*
X23932Y3780D02*
X24011D01*
X23971Y3740D02*
Y3819D01*
X10758Y4768D02*
X10837D01*
X10797Y4729D02*
Y4807D01*
X10683Y4571D02*
X10762D01*
X10723Y4532D02*
Y4611D01*
X9784Y8799D02*
X9863D01*
X9823Y8760D02*
Y8839D01*
X9406Y8929D02*
X9485D01*
X9445Y8889D02*
Y8968D01*
X9918Y8158D02*
X9996D01*
X9957Y8118D02*
Y8197D01*
X10685Y7874D02*
X10764D01*
X10725Y7834D02*
Y7913D01*
X11577Y8545D02*
X11656D01*
X11617Y8506D02*
Y8584D01*
X11299Y8798D02*
X11378D01*
X11339Y8758D02*
Y8837D01*
X11448Y8936D02*
X11527D01*
X11487Y8896D02*
Y8975D01*
X11302Y7932D02*
X11381D01*
X11342Y7893D02*
Y7971D01*
X9016Y8543D02*
X9094D01*
X9055Y8504D02*
Y8583D01*
X9272Y8543D02*
X9350D01*
X9311Y8504D02*
Y8583D01*
X9272Y8799D02*
X9350D01*
X9311Y8760D02*
Y8839D01*
X11163Y6094D02*
X11242D01*
X11202Y6055D02*
Y6134D01*
X18426Y7124D02*
X18505D01*
X18465Y7085D02*
Y7163D01*
X18291Y6602D02*
X18370D01*
X18331Y6563D02*
Y6642D01*
X7751Y8275D02*
X7830D01*
X7791Y8235D02*
Y8314D01*
X7897Y8167D02*
X7976D01*
X7936Y8128D02*
Y8206D01*
X9664Y4960D02*
X9743D01*
X9703Y4921D02*
Y4999D01*
X9272Y6496D02*
X9350D01*
X9311Y6457D02*
Y6535D01*
X9272Y7008D02*
X9350D01*
X9311Y6969D02*
Y7047D01*
X2606Y11219D02*
X2684D01*
X2645Y11179D02*
Y11258D01*
X4606Y4213D02*
X4685D01*
X4646Y4173D02*
Y4252D01*
X7992Y7024D02*
X8071D01*
X8031Y6984D02*
Y7063D01*
X7864Y7133D02*
X7943D01*
X7904Y7094D02*
Y7172D01*
X8111Y6357D02*
X8190D01*
X8151Y6318D02*
Y6397D01*
X7634Y7005D02*
X7713D01*
X7673Y6966D02*
Y7045D01*
X7347Y6626D02*
X7426D01*
X7387Y6587D02*
Y6665D01*
X8410Y7937D02*
X8489D01*
X8450Y7898D02*
Y7977D01*
X3189Y11535D02*
X3268D01*
X3228Y11496D02*
Y11575D01*
X21639Y7502D02*
X21718D01*
X21678Y7463D02*
Y7542D01*
X21810Y7502D02*
X21889D01*
X21849Y7463D02*
Y7542D01*
X25770Y6637D02*
X25849D01*
X25810Y6598D02*
Y6677D01*
X26624Y5344D02*
X26703D01*
X26663Y5305D02*
Y5384D01*
X26788Y5342D02*
X26867D01*
X26828Y5302D02*
Y5381D01*
X26624Y5187D02*
X26703D01*
X26663Y5148D02*
Y5226D01*
X26781Y5187D02*
X26860D01*
X26821Y5148D02*
Y5226D01*
X20439Y5596D02*
X20518D01*
X20478Y5556D02*
Y5635D01*
X20439Y5792D02*
X20518D01*
X20478Y5753D02*
Y5832D01*
X20439Y5989D02*
X20518D01*
X20478Y5950D02*
Y6029D01*
X11323Y6584D02*
X11402D01*
X11362Y6545D02*
Y6624D01*
X11187Y5601D02*
X11266D01*
X11226Y5561D02*
Y5640D01*
X11378Y2915D02*
X11457D01*
X11417Y2876D02*
Y2955D01*
X11606Y2842D02*
X11685D01*
X11645Y2802D02*
Y2881D01*
X2598Y4803D02*
X2677D01*
X2638Y4764D02*
Y4843D01*
X3976Y5394D02*
X4055D01*
X4016Y5354D02*
Y5433D01*
X4173Y5591D02*
X4252D01*
X4213Y5551D02*
Y5630D01*
X23698Y3803D02*
X23777D01*
X23738Y3763D02*
Y3842D01*
X16261Y10750D02*
X16339D01*
X16300Y10711D02*
Y10789D01*
X14711Y10750D02*
X14789D01*
X14750Y10711D02*
Y10789D01*
X17598Y8386D02*
X17677D01*
X17638Y8346D02*
Y8425D01*
X17598Y8622D02*
X17677D01*
X17638Y8583D02*
Y8661D01*
X17598Y8858D02*
X17677D01*
X17638Y8819D02*
Y8898D01*
X17598Y9094D02*
X17677D01*
X17638Y9055D02*
Y9134D01*
X4061Y4300D02*
X4139D01*
X4100Y4261D02*
Y4339D01*
X16417Y7563D02*
X16496D01*
X16457Y7524D02*
Y7603D01*
X15805Y6241D02*
X15884D01*
X15845Y6202D02*
Y6280D01*
X14145Y5265D02*
X14224D01*
X14184Y5226D02*
Y5305D01*
X15239Y7956D02*
X15318D01*
X15278Y7917D02*
Y7996D01*
X15469Y7635D02*
X15548D01*
X15509Y7595D02*
Y7674D01*
X10956Y6105D02*
X11034D01*
X10995Y6066D02*
Y6145D01*
X16193Y7408D02*
X16272D01*
X16232Y7369D02*
Y7448D01*
X17600Y4561D02*
X17679D01*
X17639Y4521D02*
Y4600D01*
X17205Y4094D02*
X17283D01*
X17244Y4055D02*
Y4134D01*
X16575Y5394D02*
X16654D01*
X16614Y5354D02*
Y5433D01*
X20561Y9887D02*
X20639D01*
X20600Y9847D02*
Y9926D01*
X20672Y10368D02*
X20751D01*
X20711Y10329D02*
Y10407D01*
X20829Y10525D02*
X20908D01*
X20869Y10486D02*
Y10565D01*
X20672Y10525D02*
X20751D01*
X20711Y10486D02*
Y10565D01*
X20829Y10368D02*
X20908D01*
X20869Y10329D02*
Y10407D01*
X7351Y6113D02*
X7430D01*
X7390Y6074D02*
Y6153D01*
X8201Y6585D02*
X8279D01*
X8240Y6546D02*
Y6625D01*
X10039Y5472D02*
X10118D01*
X10079Y5433D02*
Y5512D01*
X21234Y8038D02*
X21312D01*
X21273Y7999D02*
Y8078D01*
X21234Y8196D02*
X21312D01*
X21273Y8157D02*
Y8235D01*
X21391Y8196D02*
X21470D01*
X21430Y8157D02*
Y8235D01*
X21391Y8038D02*
X21470D01*
X21430Y7999D02*
Y8078D01*
X12244Y7008D02*
X12323D01*
X12283Y6969D02*
Y7047D01*
X9905Y7654D02*
X9984D01*
X9945Y7614D02*
Y7693D01*
X9393Y6118D02*
X9472D01*
X9433Y6079D02*
Y6158D01*
X10161Y6886D02*
X10240D01*
X10200Y6847D02*
Y6925D01*
X9649Y7398D02*
X9728D01*
X9689Y7359D02*
Y7437D01*
X10161Y7398D02*
X10240D01*
X10200Y7359D02*
Y7437D01*
X9905Y6618D02*
X9984D01*
X9945Y6578D02*
Y6657D01*
X9905Y7130D02*
X9984D01*
X9945Y7090D02*
Y7169D01*
X9649Y6874D02*
X9728D01*
X9689Y6834D02*
Y6913D01*
X11443Y4092D02*
X11522D01*
X11482Y4052D02*
Y4131D01*
X11185Y4116D02*
X11263D01*
X11224Y4076D02*
Y4155D01*
X22810Y6910D02*
X22888D01*
X22849Y6870D02*
Y6949D01*
X13661Y3734D02*
X13739D01*
X13700Y3695D02*
Y3774D01*
X22835Y7638D02*
X22913D01*
X22874Y7598D02*
Y7677D01*
X10935Y5597D02*
X11014D01*
X10975Y5558D02*
Y5637D01*
X9231Y5472D02*
X9310D01*
X9271Y5433D02*
Y5512D01*
X9911Y4850D02*
X9989D01*
X9950Y4811D02*
Y4889D01*
X9654Y4571D02*
X9733D01*
X9693Y4532D02*
Y4610D01*
X9910Y4571D02*
X9989D01*
X9949Y4532D02*
Y4610D01*
X10849Y5848D02*
X10928D01*
X10889Y5809D02*
Y5887D01*
X23228Y9331D02*
X23307D01*
X23268Y9291D02*
Y9370D01*
X22263Y5613D02*
X22342D01*
X22302Y5574D02*
Y5653D01*
X25354Y10433D02*
X25433D01*
X25394Y10394D02*
Y10472D01*
X21981Y7502D02*
X22060D01*
X22020Y7463D02*
Y7542D01*
X15787Y9528D02*
X15866D01*
X15827Y9488D02*
Y9567D01*
X15782Y9208D02*
X15861D01*
X15822Y9169D02*
Y9247D01*
X10535Y8783D02*
X10614D01*
X10575Y8744D02*
Y8823D01*
X10669Y8937D02*
X10748D01*
X10709Y8898D02*
Y8976D01*
X10689Y8661D02*
X10768D01*
X10728Y8622D02*
Y8701D01*
X10677Y9177D02*
X10755D01*
X10716Y9138D02*
Y9217D01*
X10807Y9311D02*
X10886D01*
X10846Y9272D02*
Y9350D01*
X15787Y7953D02*
X15866D01*
X15827Y7913D02*
Y7992D01*
X15472Y7953D02*
X15551D01*
X15512Y7913D02*
Y7992D01*
X10295Y9311D02*
X10374D01*
X10335Y9272D02*
Y9350D01*
X10295Y9055D02*
X10374D01*
X10335Y9016D02*
Y9094D01*
X14055Y9685D02*
X14134D01*
X14095Y9646D02*
Y9724D01*
X16427Y9528D02*
X16505D01*
X16466Y9488D02*
Y9567D01*
X15157Y9213D02*
X15236D01*
X15197Y9173D02*
Y9252D01*
X14488Y7344D02*
X14567D01*
X14528Y7305D02*
Y7383D01*
X11831Y5217D02*
X11909D01*
X11870Y5177D02*
Y5256D01*
X11455Y5079D02*
X11534D01*
X11494Y5039D02*
Y5118D01*
X22255Y5853D02*
X22334D01*
X22295Y5813D02*
Y5892D01*
X22257Y5365D02*
X22336D01*
X22297Y5326D02*
Y5405D01*
X22244Y5083D02*
X22322D01*
X22283Y5043D02*
Y5122D01*
X21496Y5551D02*
X21575D01*
X21535Y5512D02*
Y5591D01*
X21496Y5315D02*
X21575D01*
X21535Y5276D02*
Y5354D01*
X11200Y5067D02*
X11278D01*
X11239Y5028D02*
Y5107D01*
X11694Y4092D02*
X11773D01*
X11733Y4053D02*
Y4132D01*
X8291Y1969D02*
X8369D01*
X8330Y1929D02*
Y2008D01*
X17042Y7302D02*
X17121D01*
X17081Y7262D02*
Y7341D01*
X17205Y8386D02*
X17283D01*
X17244Y8346D02*
Y8425D01*
X16575Y9685D02*
X16654D01*
X16614Y9646D02*
Y9724D01*
X15945Y9370D02*
X16024D01*
X15984Y9331D02*
Y9409D01*
X15797Y9850D02*
X15876D01*
X15837Y9811D02*
Y9889D01*
X17520Y9685D02*
X17598D01*
X17559Y9646D02*
Y9724D01*
X16409Y3346D02*
X16488D01*
X16448Y3307D02*
Y3385D01*
X15787Y5551D02*
X15866D01*
X15827Y5512D02*
Y5591D01*
X15487Y5534D02*
X15565D01*
X15526Y5495D02*
Y5574D01*
X16070Y5566D02*
X16148D01*
X16109Y5527D02*
Y5605D01*
X16471Y5226D02*
X16550D01*
X16510Y5186D02*
Y5265D01*
X16086Y5240D02*
X16165D01*
X16126Y5201D02*
Y5280D01*
X15111Y4000D02*
X15189D01*
X15150Y3961D02*
Y4039D01*
X14061Y5900D02*
X14139D01*
X14100Y5861D02*
Y5939D01*
X11845Y7931D02*
X11924D01*
X11884Y7891D02*
Y7970D01*
X15787Y3661D02*
X15866D01*
X15827Y3622D02*
Y3701D01*
X11978Y7828D02*
X12056D01*
X12017Y7788D02*
Y7867D01*
X15472Y3661D02*
X15551D01*
X15512Y3622D02*
Y3701D01*
X15411Y4650D02*
X15489D01*
X15450Y4611D02*
Y4689D01*
X16634Y6071D02*
X16713D01*
X16673Y6032D02*
Y6110D01*
X16902Y6043D02*
X16981D01*
X16942Y6003D02*
Y6082D01*
X16749Y6485D02*
X16827D01*
X16788Y6446D02*
Y6524D01*
X10415Y8199D02*
X10494D01*
X10454Y8159D02*
Y8238D01*
X11180Y8050D02*
X11259D01*
X11220Y8011D02*
Y8089D01*
X10924Y8644D02*
X11003D01*
X10964Y8605D02*
Y8684D01*
X10177Y8420D02*
X10256D01*
X10216Y8381D02*
Y8460D01*
X10438Y7912D02*
X10516D01*
X10477Y7872D02*
Y7951D01*
X9861Y8450D02*
X9939D01*
X9900Y8411D02*
Y8489D01*
X16102Y7638D02*
X16181D01*
X16142Y7598D02*
Y7677D01*
X14517Y7616D02*
X14596D01*
X14557Y7576D02*
Y7655D01*
X14370Y8110D02*
X14449D01*
X14409Y8071D02*
Y8150D01*
X18999Y6130D02*
X19078D01*
X19039Y6091D02*
Y6169D01*
X18883Y6296D02*
X18962D01*
X18923Y6256D02*
Y6335D01*
X16299Y4606D02*
X16378D01*
X16339Y4567D02*
Y4646D01*
X16724Y3346D02*
X16803D01*
X16763Y3307D02*
Y3385D01*
X16111Y3350D02*
X16189D01*
X16150Y3311D02*
Y3389D01*
X17874Y6564D02*
X17953D01*
X17913Y6525D02*
Y6604D01*
X24665Y2118D02*
X24744D01*
X24705Y2079D02*
Y2158D01*
X25351Y4679D02*
X25429D01*
X25390Y4639D02*
Y4718D01*
X25394Y4961D02*
X25472D01*
X25433Y4921D02*
Y5000D01*
X24996Y7273D02*
X25075D01*
X25035Y7234D02*
Y7312D01*
X24882Y7497D02*
X24961D01*
X24921Y7458D02*
Y7536D01*
X24644Y6919D02*
X24723D01*
X24683Y6880D02*
Y6959D01*
X15512Y4331D02*
X15591D01*
X15551Y4291D02*
Y4370D01*
X15512Y8622D02*
X15591D01*
X15551Y8583D02*
Y8661D01*
X11884Y9077D02*
X11963D01*
X11924Y9038D02*
Y9117D01*
X15354Y8740D02*
X15433D01*
X15394Y8701D02*
Y8780D01*
X11923Y8874D02*
X12001D01*
X11962Y8835D02*
Y8914D01*
X15354Y4449D02*
X15433D01*
X15394Y4409D02*
Y4488D01*
X14786Y6852D02*
X14865D01*
X14825Y6813D02*
Y6892D01*
X14985Y6852D02*
X15064D01*
X15024Y6813D02*
Y6892D01*
X6713Y5984D02*
X6791D01*
X6752Y5945D02*
Y6024D01*
X6713Y5728D02*
X6791D01*
X6752Y5689D02*
Y5768D01*
X6713Y5217D02*
X6791D01*
X6752Y5177D02*
Y5256D01*
X6968Y5217D02*
X7047D01*
X7008Y5177D02*
Y5256D01*
X8760Y4449D02*
X8839D01*
X8799Y4409D02*
Y4488D01*
X8760Y4193D02*
X8839D01*
X8799Y4154D02*
Y4232D01*
X8248Y4449D02*
X8327D01*
X8287Y4409D02*
Y4488D01*
X8504Y4449D02*
X8583D01*
X8543Y4409D02*
Y4488D01*
X7992Y4193D02*
X8071D01*
X8031Y4154D02*
Y4232D01*
X8248Y4193D02*
X8327D01*
X8287Y4154D02*
Y4232D01*
X11181Y8937D02*
X11260D01*
X11220Y8898D02*
Y8976D01*
X11233Y9231D02*
X11311D01*
X11272Y9191D02*
Y9270D01*
X12165Y9055D02*
X12244D01*
X12205Y9016D02*
Y9094D01*
X11676Y8284D02*
X11755D01*
X11716Y8245D02*
Y8323D01*
X11101Y8442D02*
X11180D01*
X11140Y8402D02*
Y8481D01*
X10925Y9449D02*
X11004D01*
X10965Y9409D02*
Y9488D01*
X11693Y9213D02*
X11772D01*
X11732Y9173D02*
Y9252D01*
X15186Y5264D02*
X15264D01*
X15225Y5225D02*
Y5304D01*
X3383Y6199D02*
X3461D01*
X3422Y6159D02*
Y6238D01*
X3194Y6198D02*
X3272D01*
X3233Y6158D02*
Y6237D01*
X11441Y5846D02*
X11520D01*
X11481Y5806D02*
Y5885D01*
X8638Y4588D02*
X8717D01*
X8677Y4548D02*
Y4627D01*
X10295Y5728D02*
X10374D01*
X10335Y5689D02*
Y5768D01*
X8760Y8031D02*
X8839D01*
X8799Y7992D02*
Y8071D01*
X4371Y5609D02*
X4450D01*
X4410Y5570D02*
Y5649D01*
X1113Y9595D02*
X1192D01*
X1152Y9556D02*
Y9635D01*
X4488Y4213D02*
X4567D01*
X4528Y4173D02*
Y4252D01*
X4488Y4094D02*
X4567D01*
X4528Y4055D02*
Y4134D01*
X4606Y4094D02*
X4685D01*
X4646Y4055D02*
Y4134D01*
X3819Y6544D02*
X3898D01*
X3858Y6505D02*
Y6584D01*
X3668Y6543D02*
X3746D01*
X3707Y6503D02*
Y6582D01*
X2795Y5000D02*
X2874D01*
X2835Y4961D02*
Y5039D01*
X3189Y4606D02*
X3268D01*
X3228Y4567D02*
Y4646D01*
X2992Y5000D02*
X3071D01*
X3031Y4961D02*
Y5039D01*
X7871Y7389D02*
X7949D01*
X7910Y7349D02*
Y7428D01*
X7602Y7396D02*
X7681D01*
X7642Y7357D02*
Y7436D01*
X11821Y2710D02*
X11900D01*
X11860Y2671D02*
Y2750D01*
X12002Y2707D02*
X12081D01*
X12042Y2668D02*
Y2746D01*
X8118Y6112D02*
X8197D01*
X8158Y6073D02*
Y6152D01*
X4561Y6580D02*
X4639D01*
X4600Y6541D02*
Y6620D01*
X2598Y6772D02*
X2677D01*
X2638Y6732D02*
Y6811D01*
X7867Y6621D02*
X7946D01*
X7906Y6582D02*
Y6661D01*
X7619Y6625D02*
X7697D01*
X7658Y6585D02*
Y6664D01*
X7097Y6625D02*
X7176D01*
X7136Y6585D02*
Y6664D01*
X7354Y7393D02*
X7433D01*
X7393Y7354D02*
Y7433D01*
X7607Y7654D02*
X7686D01*
X7646Y7614D02*
Y7693D01*
X8425Y1535D02*
X8504D01*
X8465Y1496D02*
Y1575D01*
X8255Y1535D02*
X8334D01*
X8295Y1496D02*
Y1575D01*
X2405Y11379D02*
X2483D01*
X2444Y11339D02*
Y11418D01*
X7678Y5221D02*
X7757D01*
X7718Y5182D02*
Y5261D01*
X8254Y5468D02*
X8333D01*
X8293Y5428D02*
Y5507D01*
X9528Y5472D02*
X9606D01*
X9567Y5433D02*
Y5512D01*
X7609Y8668D02*
X7687D01*
X7648Y8629D02*
Y8708D01*
X13075Y2389D02*
X13153D01*
X13114Y2350D02*
Y2429D01*
X12711Y2389D02*
X12789D01*
X12750Y2350D02*
Y2429D01*
X7616Y5846D02*
X7695D01*
X7655Y5807D02*
Y5886D01*
X12890Y2389D02*
X12969D01*
X12929Y2350D02*
Y2429D01*
X8383Y6875D02*
X8462D01*
X8422Y6835D02*
Y6914D01*
X3386Y5000D02*
X3465D01*
X3425Y4961D02*
Y5039D01*
X3189Y5000D02*
X3268D01*
X3228Y4961D02*
Y5039D01*
X7347Y6344D02*
X7425D01*
X7386Y6305D02*
Y6384D01*
X7101Y6103D02*
X7180D01*
X7141Y6063D02*
Y6142D01*
X9846Y2044D02*
X9925D01*
X9886Y2005D02*
Y2084D01*
X10226Y2044D02*
X10305D01*
X10266Y2005D02*
Y2084D01*
X9329Y2044D02*
X9407D01*
X9368Y2005D02*
Y2084D01*
X9665Y2044D02*
X9744D01*
X9705Y2005D02*
Y2084D01*
X9497Y2044D02*
X9576D01*
X9537Y2005D02*
Y2084D01*
X8989Y2044D02*
X9068D01*
X9028Y2005D02*
Y2084D01*
X9157Y2044D02*
X9236D01*
X9196Y2005D02*
Y2084D01*
X8464Y2044D02*
X8542D01*
X8503Y2005D02*
Y2084D01*
X8820Y2044D02*
X8898D01*
X8859Y2005D02*
Y2084D01*
X8633Y2044D02*
X8712D01*
X8673Y2005D02*
Y2084D01*
X12154Y2389D02*
X12233D01*
X12194Y2350D02*
Y2429D01*
X12339Y2389D02*
X12418D01*
X12378Y2350D02*
Y2429D01*
X12523Y2389D02*
X12601D01*
X12562Y2350D02*
Y2429D01*
X10045Y2044D02*
X10123D01*
X10084Y2005D02*
Y2084D01*
X3976Y11535D02*
X4055D01*
X4016Y11496D02*
Y11575D01*
X6710Y5469D02*
X6788D01*
X6749Y5430D02*
Y5508D01*
X8504Y5728D02*
X8583D01*
X8543Y5689D02*
Y5768D01*
X11193Y6866D02*
X11272D01*
X11232Y6827D02*
Y6906D01*
X7617Y6121D02*
X7696D01*
X7657Y6082D02*
Y6160D01*
X10427Y7137D02*
X10506D01*
X10467Y7097D02*
Y7176D01*
X8504Y7520D02*
X8583D01*
X8543Y7480D02*
Y7559D01*
X9272Y7520D02*
X9350D01*
X9311Y7480D02*
Y7559D01*
X7736Y4449D02*
X7815D01*
X7776Y4409D02*
Y4488D01*
X7992Y4449D02*
X8071D01*
X8031Y4409D02*
Y4488D01*
X9154Y4828D02*
X9233D01*
X9193Y4789D02*
Y4868D01*
X9272Y8031D02*
X9350D01*
X9311Y7992D02*
Y8071D01*
X9783Y8031D02*
X9862D01*
X9823Y7992D02*
Y8071D01*
X25354Y10276D02*
X25433D01*
X25394Y10236D02*
Y10315D01*
X25827Y10276D02*
X25906D01*
X25866Y10236D02*
Y10315D01*
X25827Y10433D02*
X25906D01*
X25866Y10394D02*
Y10472D01*
X25669Y10276D02*
X25748D01*
X25709Y10236D02*
Y10315D01*
X25669Y10433D02*
X25748D01*
X25709Y10394D02*
Y10472D01*
X25512Y10276D02*
X25591D01*
X25551Y10236D02*
Y10315D01*
X25512Y10433D02*
X25591D01*
X25551Y10394D02*
Y10472D01*
X6833Y8922D02*
X6912D01*
X6873Y8883D02*
Y8962D01*
X551Y10906D02*
X630D01*
X591Y10866D02*
Y10945D01*
X1339Y10906D02*
X1417D01*
X1378Y10866D02*
Y10945D01*
X2126Y10906D02*
X2205D01*
X2165Y10866D02*
Y10945D01*
X26339Y11260D02*
X26417D01*
X26378Y11220D02*
Y11299D01*
X11449Y4578D02*
X11527D01*
X11488Y4539D02*
Y4618D01*
X11449Y4322D02*
X11527D01*
X11488Y4283D02*
Y4362D01*
X11704Y4575D02*
X11783D01*
X11744Y4536D02*
Y4614D01*
X11704Y4319D02*
X11783D01*
X11744Y4280D02*
Y4358D01*
X11960Y4319D02*
X12039D01*
X12000Y4280D02*
Y4358D01*
X11960Y4575D02*
X12039D01*
X12000Y4536D02*
Y4614D01*
X8760Y7776D02*
X8839D01*
X8799Y7736D02*
Y7815D01*
X19367Y6284D02*
X19446D01*
X19406Y6244D02*
Y6323D01*
X10807Y8799D02*
X10886D01*
X10846Y8760D02*
Y8839D01*
X19495Y6509D02*
X19574D01*
X19535Y6470D02*
Y6549D01*
X19227Y6454D02*
X19306D01*
X19266Y6415D02*
Y6493D01*
X10401Y8921D02*
X10480D01*
X10441Y8882D02*
Y8960D01*
X10174Y8930D02*
X10253D01*
X10214Y8890D02*
Y8969D01*
X11922Y7272D02*
X12001D01*
X11962Y7233D02*
Y7311D01*
X12213Y7516D02*
X12291D01*
X12252Y7477D02*
Y7555D01*
X12475Y8329D02*
X12553D01*
X12514Y8289D02*
Y8368D01*
X12272Y8506D02*
X12351D01*
X12311Y8466D02*
Y8545D01*
X10678Y8168D02*
X10757D01*
X10717Y8129D02*
Y8208D01*
X15472Y5236D02*
X15551D01*
X15512Y5197D02*
Y5276D01*
X9907Y9196D02*
X9986D01*
X9947Y9157D02*
Y9236D01*
X9906Y8916D02*
X9985D01*
X9946Y8877D02*
Y8956D01*
X15000Y3819D02*
X15079D01*
X15039Y3780D02*
Y3858D01*
X15157Y4921D02*
X15236D01*
X15197Y4882D02*
Y4961D01*
X11575Y7520D02*
X11654D01*
X11614Y7480D02*
Y7559D01*
X11575Y7008D02*
X11654D01*
X11614Y6969D02*
Y7047D01*
X18150Y6693D02*
X18228D01*
X18189Y6654D02*
Y6732D01*
X18560Y7015D02*
X18639D01*
X18599Y6976D02*
Y7055D01*
X16299Y8307D02*
X16378D01*
X16339Y8268D02*
Y8346D01*
X18701Y6692D02*
X18780D01*
X18740Y6653D02*
Y6731D01*
X17966Y6929D02*
X18044D01*
X18005Y6889D02*
Y6968D01*
X17453Y6870D02*
X17532D01*
X17493Y6831D02*
Y6909D01*
X19103Y6777D02*
X19182D01*
X19142Y6738D02*
Y6817D01*
X17736Y6310D02*
X17815D01*
X17776Y6270D02*
Y6349D01*
X17205Y4567D02*
X17283D01*
X17244Y4528D02*
Y4606D01*
X17205Y4803D02*
X17283D01*
X17244Y4764D02*
Y4843D01*
X17205Y4331D02*
X17283D01*
X17244Y4291D02*
Y4370D01*
X17598Y4331D02*
X17677D01*
X17638Y4291D02*
Y4370D01*
X17598Y4094D02*
X17677D01*
X17638Y4055D02*
Y4134D01*
X16732Y9528D02*
X16811D01*
X16772Y9488D02*
Y9567D01*
X16732Y5236D02*
X16811D01*
X16772Y5197D02*
Y5276D01*
X15787Y5236D02*
X15866D01*
X15827Y5197D02*
Y5276D01*
X16102Y3661D02*
X16181D01*
X16142Y3622D02*
Y3701D01*
X15787Y3346D02*
X15866D01*
X15827Y3307D02*
Y3386D01*
X15472Y3346D02*
X15551D01*
X15512Y3307D02*
Y3386D01*
X15157Y3661D02*
X15236D01*
X15197Y3622D02*
Y3701D01*
X15472Y9213D02*
X15551D01*
X15512Y9173D02*
Y9252D01*
X15787Y7638D02*
X15866D01*
X15827Y7598D02*
Y7677D01*
X18780Y4803D02*
X18858D01*
X18819Y4764D02*
Y4843D01*
X18780Y4567D02*
X18858D01*
X18819Y4528D02*
Y4606D01*
X18780Y4331D02*
X18858D01*
X18819Y4291D02*
Y4370D01*
X18780Y4094D02*
X18858D01*
X18819Y4055D02*
Y4134D01*
X17992Y4094D02*
X18071D01*
X18031Y4055D02*
Y4134D01*
X17992Y4331D02*
X18071D01*
X18031Y4291D02*
Y4370D01*
X17992Y4567D02*
X18071D01*
X18031Y4528D02*
Y4606D01*
X17992Y4803D02*
X18071D01*
X18031Y4764D02*
Y4843D01*
X17598Y4803D02*
X17677D01*
X17638Y4764D02*
Y4843D01*
X16299Y4016D02*
X16378D01*
X16339Y3976D02*
Y4055D01*
X16299Y4213D02*
X16378D01*
X16339Y4173D02*
Y4252D01*
X19173Y4094D02*
X19252D01*
X19213Y4055D02*
Y4134D01*
X19173Y4331D02*
X19252D01*
X19213Y4291D02*
Y4370D01*
X19173Y4567D02*
X19252D01*
X19213Y4528D02*
Y4606D01*
X19173Y4803D02*
X19252D01*
X19213Y4764D02*
Y4843D01*
X18386Y4803D02*
X18465D01*
X18425Y4764D02*
Y4843D01*
X18386Y4567D02*
X18465D01*
X18425Y4528D02*
Y4606D01*
X18386Y4331D02*
X18465D01*
X18425Y4291D02*
Y4370D01*
X18386Y4094D02*
X18465D01*
X18425Y4055D02*
Y4134D01*
X16772Y4016D02*
X16850D01*
X16811Y3976D02*
Y4055D01*
X16772Y4606D02*
X16850D01*
X16811Y4567D02*
Y4646D01*
X16299Y4409D02*
X16378D01*
X16339Y4370D02*
Y4449D01*
X16772Y4409D02*
X16850D01*
X16811Y4370D02*
Y4449D01*
X16772Y4213D02*
X16850D01*
X16811Y4173D02*
Y4252D01*
X16772Y8504D02*
X16850D01*
X16811Y8465D02*
Y8543D01*
X16299Y8701D02*
X16378D01*
X16339Y8661D02*
Y8740D01*
X16772Y8898D02*
X16850D01*
X16811Y8858D02*
Y8937D01*
X15512Y8386D02*
X15591D01*
X15551Y8346D02*
Y8425D01*
X15827Y8386D02*
X15906D01*
X15866Y8346D02*
Y8425D01*
X15827Y8622D02*
X15906D01*
X15866Y8583D02*
Y8661D01*
X16772Y8307D02*
X16850D01*
X16811Y8268D02*
Y8346D01*
X17205Y9094D02*
X17283D01*
X17244Y9055D02*
Y9134D01*
X17205Y8858D02*
X17283D01*
X17244Y8819D02*
Y8898D01*
X17205Y8622D02*
X17283D01*
X17244Y8583D02*
Y8661D01*
X18386Y8386D02*
X18465D01*
X18425Y8346D02*
Y8425D01*
X18386Y8622D02*
X18465D01*
X18425Y8583D02*
Y8661D01*
X18386Y8858D02*
X18465D01*
X18425Y8819D02*
Y8898D01*
X18386Y9094D02*
X18465D01*
X18425Y9055D02*
Y9134D01*
X19173Y9094D02*
X19252D01*
X19213Y9055D02*
Y9134D01*
X19173Y8858D02*
X19252D01*
X19213Y8819D02*
Y8898D01*
X19173Y8622D02*
X19252D01*
X19213Y8583D02*
Y8661D01*
X19173Y8386D02*
X19252D01*
X19213Y8346D02*
Y8425D01*
X16299Y8504D02*
X16378D01*
X16339Y8465D02*
Y8543D01*
X17992Y9094D02*
X18071D01*
X18032Y9055D02*
Y9134D01*
X17992Y8858D02*
X18071D01*
X18032Y8819D02*
Y8898D01*
X17992Y8622D02*
X18071D01*
X18032Y8583D02*
Y8661D01*
X17992Y8386D02*
X18071D01*
X18032Y8346D02*
Y8425D01*
X18780Y8386D02*
X18858D01*
X18819Y8346D02*
Y8425D01*
X18780Y8622D02*
X18858D01*
X18819Y8583D02*
Y8661D01*
X18780Y8858D02*
X18858D01*
X18819Y8819D02*
Y8898D01*
X18780Y9094D02*
X18858D01*
X18819Y9055D02*
Y9134D01*
X8248Y4705D02*
X8327D01*
X8287Y4665D02*
Y4744D01*
X11063Y4961D02*
X11142D01*
X11102Y4921D02*
Y5000D01*
X7480Y5217D02*
X7559D01*
X7520Y5177D02*
Y5256D01*
X7480Y7264D02*
X7559D01*
X7520Y7224D02*
Y7303D01*
X9528Y4449D02*
X9606D01*
X9567Y4409D02*
Y4488D01*
X8760Y8287D02*
X8839D01*
X8799Y8248D02*
Y8327D01*
X7736Y6496D02*
X7815D01*
X7776Y6457D02*
Y6535D01*
X7480Y6496D02*
X7559D01*
X7520Y6457D02*
Y6535D01*
X7224Y5728D02*
X7303D01*
X7264Y5689D02*
Y5768D01*
X7480Y5728D02*
X7559D01*
X7520Y5689D02*
Y5768D01*
X5126Y6618D02*
X5204D01*
X5165Y6579D02*
Y6657D01*
X5320Y6363D02*
X5399D01*
X5360Y6323D02*
Y6402D01*
X5128Y6176D02*
X5207D01*
X5168Y6136D02*
Y6215D01*
X5131Y6380D02*
X5210D01*
X5170Y6340D02*
Y6419D01*
X5950Y8275D02*
X6028D01*
X5989Y8235D02*
Y8314D01*
X5669Y8268D02*
X5748D01*
X5709Y8228D02*
Y8307D01*
X2992Y7165D02*
X3071D01*
X3031Y7126D02*
Y7205D01*
X2795Y7165D02*
X2874D01*
X2835Y7126D02*
Y7205D01*
X1457Y1969D02*
X1535D01*
X1496Y1929D02*
Y2008D01*
X1299Y2165D02*
X1378D01*
X1339Y2126D02*
Y2205D01*
X943Y1848D02*
X1021D01*
X982Y1809D02*
Y1888D01*
X1770Y2439D02*
X1849D01*
X1809Y2400D02*
Y2479D01*
X2085Y2124D02*
X2164D01*
X2124Y2085D02*
Y2164D01*
X1927Y2282D02*
X2006D01*
X1967Y2242D02*
Y2321D01*
X6968Y8287D02*
X7047D01*
X7008Y8248D02*
Y8327D01*
X7224Y8287D02*
X7303D01*
X7264Y8248D02*
Y8327D01*
X7480Y8287D02*
X7559D01*
X7520Y8248D02*
Y8327D01*
X7224Y8799D02*
X7303D01*
X7264Y8760D02*
Y8839D01*
X6968Y8799D02*
X7047D01*
X7008Y8760D02*
Y8839D01*
X3189Y7165D02*
X3268D01*
X3228Y7126D02*
Y7205D01*
X2598Y6969D02*
X2677D01*
X2638Y6929D02*
Y7008D01*
X2795Y6969D02*
X2874D01*
X2835Y6929D02*
Y7008D01*
X3386Y6969D02*
X3465D01*
X3425Y6929D02*
Y7008D01*
X3189Y6969D02*
X3268D01*
X3228Y6929D02*
Y7008D01*
X2992Y6969D02*
X3071D01*
X3031Y6929D02*
Y7008D01*
X3976Y10906D02*
X4055D01*
X4016Y10866D02*
Y10945D01*
X3189Y10906D02*
X3268D01*
X3228Y10866D02*
Y10945D01*
X7992Y9311D02*
X8071D01*
X8031Y9272D02*
Y9350D01*
X8504Y8287D02*
X8583D01*
X8543Y8248D02*
Y8327D01*
X6968Y9055D02*
X7047D01*
X7008Y9016D02*
Y9094D01*
X9016Y8287D02*
X9094D01*
X9055Y8248D02*
Y8327D01*
X8504Y8543D02*
X8583D01*
X8543Y8504D02*
Y8583D01*
X7992Y8799D02*
X8071D01*
X8031Y8760D02*
Y8839D01*
X7736Y8799D02*
X7815D01*
X7776Y8760D02*
Y8839D01*
X7736Y9055D02*
X7815D01*
X7776Y9016D02*
Y9094D01*
X7224Y9311D02*
X7303D01*
X7264Y9272D02*
Y9350D01*
X6968Y5728D02*
X7047D01*
X7008Y5689D02*
Y5768D01*
X6968Y5472D02*
X7047D01*
X7008Y5433D02*
Y5512D01*
X6968Y5984D02*
X7047D01*
X7008Y5945D02*
Y6024D01*
X6968Y6240D02*
X7047D01*
X7008Y6201D02*
Y6280D01*
X8504Y4705D02*
X8583D01*
X8543Y4665D02*
Y4744D01*
X8248Y5217D02*
X8327D01*
X8287Y5177D02*
Y5256D01*
X10039Y4449D02*
X10118D01*
X10079Y4409D02*
Y4488D01*
X9783Y4705D02*
X9862D01*
X9823Y4665D02*
Y4744D01*
X11319Y5217D02*
X11398D01*
X11358Y5177D02*
Y5256D01*
X11063Y4705D02*
X11142D01*
X11102Y4665D02*
Y4744D01*
X10551Y5984D02*
X10630D01*
X10591Y5945D02*
Y6024D01*
X10039Y5984D02*
X10118D01*
X10079Y5945D02*
Y6024D01*
X8248Y6240D02*
X8327D01*
X8287Y6201D02*
Y6280D01*
X8760Y5984D02*
X8839D01*
X8799Y5945D02*
Y6024D01*
X9016Y6752D02*
X9094D01*
X9055Y6713D02*
Y6791D01*
X8760Y6496D02*
X8839D01*
X8799Y6457D02*
Y6535D01*
X8504Y6752D02*
X8583D01*
X8543Y6713D02*
Y6791D01*
X8760Y7008D02*
X8839D01*
X8799Y6969D02*
Y7047D01*
X25334Y5209D02*
X25413D01*
X25374Y5170D02*
Y5249D01*
X26781Y5502D02*
X26860D01*
X26821Y5463D02*
Y5541D01*
X26624Y5502D02*
X26703D01*
X26663Y5463D02*
Y5541D01*
X22913Y9488D02*
X22992D01*
X22953Y9449D02*
Y9528D01*
X22913Y9331D02*
X22992D01*
X22953Y9291D02*
Y9370D01*
X23071Y9331D02*
X23150D01*
X23110Y9291D02*
Y9370D01*
X23071Y9488D02*
X23150D01*
X23110Y9449D02*
Y9528D01*
X23228Y9488D02*
X23307D01*
X23268Y9449D02*
Y9528D01*
X22598Y9331D02*
X22677D01*
X22638Y9291D02*
Y9370D01*
X22598Y9488D02*
X22677D01*
X22638Y9449D02*
Y9528D01*
X22756Y9488D02*
X22835D01*
X22795Y9449D02*
Y9528D01*
X22756Y9331D02*
X22835D01*
X22795Y9291D02*
Y9370D01*
X21376Y4375D02*
X21455D01*
X21415Y4336D02*
Y4415D01*
X21112Y4382D02*
X21191D01*
X21152Y4343D02*
Y4422D01*
X21659Y4212D02*
X21738D01*
X21698Y4173D02*
Y4251D01*
X20560Y6395D02*
X20639D01*
X20600Y6356D02*
Y6435D01*
X23622Y1378D02*
X23701D01*
X23661Y1339D02*
Y1417D01*
X23819Y1378D02*
X23898D01*
X23858Y1339D02*
Y1417D01*
X24082Y1389D02*
X24161D01*
X24122Y1350D02*
Y1428D01*
X25394Y5748D02*
X25472D01*
X25433Y5709D02*
Y5787D01*
X25516Y6080D02*
X25595D01*
X25555Y6040D02*
Y6119D01*
X25472Y5906D02*
X25551D01*
X25512Y5866D02*
Y5945D01*
X25551Y6614D02*
X25630D01*
X25591Y6575D02*
Y6654D01*
X24646Y5945D02*
X24724D01*
X24685Y5906D02*
Y5984D01*
X24646Y6231D02*
X24724D01*
X24685Y6192D02*
Y6270D01*
X25601Y6830D02*
X25680D01*
X25640Y6791D02*
Y6869D01*
X24378Y6920D02*
X24457D01*
X24417Y6881D02*
Y6959D01*
X25373Y4398D02*
X25452D01*
X25412Y4359D02*
Y4438D01*
X25346Y4115D02*
X25424D01*
X25385Y4076D02*
Y4154D01*
X26614Y4606D02*
X26693D01*
X26654Y4567D02*
Y4646D01*
X26614Y4449D02*
X26693D01*
X26654Y4409D02*
Y4488D01*
X26614Y4291D02*
X26693D01*
X26654Y4252D02*
Y4331D01*
X22953Y1339D02*
X23031D01*
X22992Y1299D02*
Y1378D01*
X22953Y1535D02*
X23031D01*
X22992Y1496D02*
Y1575D01*
X22597Y1340D02*
X22676D01*
X22637Y1300D02*
Y1379D01*
X22598Y1535D02*
X22677D01*
X22638Y1496D02*
Y1575D01*
X24611Y3528D02*
X24690D01*
X24651Y3489D02*
Y3567D01*
X24411Y3530D02*
X24489D01*
X24450Y3491D02*
Y3569D01*
X21359Y6334D02*
X21438D01*
X21399Y6294D02*
Y6373D01*
X21158Y6328D02*
X21236D01*
X21197Y6289D02*
Y6368D01*
X21357Y6528D02*
X21436D01*
X21397Y6489D02*
Y6567D01*
X21150Y6526D02*
X21229D01*
X21190Y6487D02*
Y6566D01*
X26772Y4449D02*
X26850D01*
X26811Y4409D02*
Y4488D01*
X26772Y4606D02*
X26850D01*
X26811Y4567D02*
Y4646D01*
X26772Y4291D02*
X26850D01*
X26811Y4252D02*
Y4331D01*
X26614Y4134D02*
X26693D01*
X26654Y4094D02*
Y4173D01*
X26772Y4134D02*
X26850D01*
X26811Y4094D02*
Y4173D01*
X21969Y1496D02*
X22047D01*
X22008Y1457D02*
Y1535D01*
X22323Y3740D02*
X22402D01*
X22362Y3701D02*
Y3780D01*
X23261Y1481D02*
X23339D01*
X23300Y1441D02*
Y1520D01*
X22323Y3504D02*
X22402D01*
X22362Y3465D02*
Y3543D01*
X25043Y3644D02*
X25121D01*
X25082Y3605D02*
Y3683D01*
X24606Y4528D02*
X24685D01*
X24646Y4488D02*
Y4567D01*
X25906Y3740D02*
X25984D01*
X25945Y3701D02*
Y3780D01*
X21850Y3976D02*
X21929D01*
X21890Y3937D02*
Y4016D01*
X23787Y2457D02*
X23866D01*
X23827Y2418D02*
Y2497D01*
X23150Y3386D02*
X23228D01*
X23189Y3346D02*
Y3425D01*
X24400Y3839D02*
X24479D01*
X24440Y3800D02*
Y3879D01*
X21614Y3740D02*
X21693D01*
X21654Y3701D02*
Y3780D01*
X22087Y3504D02*
X22165D01*
X22126Y3465D02*
Y3543D01*
X21850Y3504D02*
X21929D01*
X21890Y3465D02*
Y3543D01*
X21614Y3504D02*
X21693D01*
X21654Y3465D02*
Y3543D01*
X21850Y3740D02*
X21929D01*
X21890Y3701D02*
Y3780D01*
X22087Y3740D02*
X22165D01*
X22126Y3701D02*
Y3780D01*
X20942Y6523D02*
X21021D01*
X20982Y6483D02*
Y6562D01*
X20951Y6323D02*
X21030D01*
X20991Y6283D02*
Y6362D01*
X23924Y7887D02*
X24003D01*
X23964Y7847D02*
Y7926D01*
X23852Y7696D02*
X23930D01*
X23891Y7657D02*
Y7736D01*
X23706Y7850D02*
X23785D01*
X23745Y7811D02*
Y7890D01*
X24606Y7638D02*
X24685D01*
X24646Y7598D02*
Y7677D01*
X25118Y4213D02*
X25197D01*
X25157Y4173D02*
Y4252D01*
X24076Y1621D02*
X24154D01*
X24115Y1582D02*
Y1661D01*
X24252Y6545D02*
X24370D01*
X24311Y6486D02*
Y6604D01*
X25214Y1394D02*
X25293D01*
X25253Y1355D02*
Y1433D01*
X25416Y1859D02*
X25495D01*
X25455Y1820D02*
Y1898D01*
X25214Y1861D02*
X25293D01*
X25253Y1821D02*
Y1900D01*
X25416Y1626D02*
X25495D01*
X25455Y1586D02*
Y1665D01*
X25416Y1392D02*
X25495D01*
X25455Y1353D02*
Y1432D01*
X25214Y1627D02*
X25293D01*
X25253Y1588D02*
Y1667D01*
X24662Y1632D02*
X24740D01*
X24701Y1592D02*
Y1671D01*
X24662Y1398D02*
X24740D01*
X24701Y1359D02*
Y1438D01*
X24662Y1865D02*
X24740D01*
X24701Y1826D02*
Y1904D01*
X24863Y1863D02*
X24942D01*
X24903Y1824D02*
Y1903D01*
X24863Y1397D02*
X24942D01*
X24903Y1357D02*
Y1436D01*
X24863Y1630D02*
X24942D01*
X24903Y1590D02*
Y1669D01*
X26576Y1857D02*
X26654D01*
X26615Y1817D02*
Y1896D01*
X25798Y1623D02*
X25877D01*
X25837Y1584D02*
Y1663D01*
X25798Y1390D02*
X25877D01*
X25837Y1351D02*
Y1429D01*
X25798Y1857D02*
X25877D01*
X25837Y1817D02*
Y1896D01*
X26352Y1623D02*
X26430D01*
X26391Y1584D02*
Y1663D01*
X26573Y1623D02*
X26651D01*
X26612Y1584D02*
Y1663D01*
X26000Y1855D02*
X26079D01*
X26039Y1816D02*
Y1894D01*
X26000Y1388D02*
X26079D01*
X26039Y1349D02*
Y1428D01*
X26000Y1622D02*
X26079D01*
X26039Y1582D02*
Y1661D01*
X26355Y1857D02*
X26433D01*
X26394Y1817D02*
Y1896D01*
X26352Y1390D02*
X26430D01*
X26391Y1350D02*
Y1429D01*
X26573Y1390D02*
X26651D01*
X26612Y1350D02*
Y1429D01*
X22569Y4862D02*
X22687D01*
X22628Y4803D02*
Y4921D01*
X24252Y4862D02*
X24370D01*
X24311Y4803D02*
Y4921D01*
X23130Y5423D02*
X23248D01*
X23189Y5364D02*
Y5482D01*
X23130Y5984D02*
X23248D01*
X23189Y5925D02*
Y6043D01*
X23691Y6545D02*
X23809D01*
X23750Y6486D02*
Y6604D01*
X23130Y4862D02*
X23248D01*
X23189Y4803D02*
Y4921D01*
X23691Y5423D02*
X23809D01*
X23750Y5364D02*
Y5482D01*
X23691Y5984D02*
X23809D01*
X23750Y5925D02*
Y6043D01*
X23130Y6545D02*
X23248D01*
X23189Y6486D02*
Y6604D01*
X24252Y5423D02*
X24370D01*
X24311Y5364D02*
Y5482D01*
X22569Y6545D02*
X22687D01*
X22628Y6486D02*
Y6604D01*
X23691Y4862D02*
X23809D01*
X23750Y4803D02*
Y4921D01*
X22569Y5984D02*
X22687D01*
X22628Y5925D02*
Y6043D01*
X22569Y5423D02*
X22687D01*
X22628Y5364D02*
Y5482D01*
X24252Y5984D02*
X24370D01*
X24311Y5925D02*
Y6043D01*
M02*
