G04*
G04 #@! TF.GenerationSoftware,Altium Limited,Altium Designer,22.5.1 (42)*
G04*
G04 Layer_Physical_Order=3*
G04 Layer_Color=13762439*
%FSLAX24Y24*%
%MOIN*%
G70*
G04*
G04 #@! TF.SameCoordinates,15B8646E-C553-4937-87EE-17013A6B0CAB*
G04*
G04*
G04 #@! TF.FilePolarity,Positive*
G04*
G01*
G75*
%ADD13C,0.0050*%
%ADD33C,0.0177*%
%ADD48C,0.0043*%
%ADD56C,0.0118*%
%ADD57C,0.0157*%
%ADD58C,0.0315*%
%ADD59C,0.0150*%
%ADD60C,0.0130*%
G36*
X27094Y11545D02*
Y8732D01*
X26732D01*
Y8734D01*
X26647Y8723D01*
X26568Y8690D01*
X26500Y8638D01*
X26448Y8570D01*
X26415Y8491D01*
X26404Y8406D01*
X26405D01*
X26405Y8406D01*
Y7343D01*
X26405Y7343D01*
X26404D01*
X26415Y7258D01*
X26448Y7178D01*
X26500Y7110D01*
X26568Y7058D01*
X26647Y7025D01*
X26732Y7014D01*
Y7016D01*
X26732Y7016D01*
X27094D01*
Y266D01*
X26900Y71D01*
X15167D01*
X15110Y128D01*
Y1378D01*
X15111D01*
X15102Y1448D01*
X15075Y1512D01*
X15033Y1568D01*
X14977Y1611D01*
X14912Y1638D01*
X14843Y1647D01*
X14773Y1638D01*
X14708Y1611D01*
X14652Y1568D01*
X14610Y1512D01*
X14583Y1448D01*
X14574Y1378D01*
X14575D01*
Y128D01*
X14518Y71D01*
X29D01*
X-165Y266D01*
Y7016D01*
X197D01*
X197Y7016D01*
Y7014D01*
X282Y7025D01*
X361Y7058D01*
X429Y7110D01*
X481Y7178D01*
X514Y7258D01*
X525Y7343D01*
X524D01*
Y8406D01*
X525D01*
X514Y8491D01*
X481Y8570D01*
X429Y8638D01*
X361Y8690D01*
X282Y8723D01*
X197Y8734D01*
Y8732D01*
X-165D01*
Y11545D01*
X29Y11740D01*
X26900D01*
X27094Y11545D01*
D02*
G37*
%LPC*%
G36*
X4037Y11644D02*
X3994D01*
X3954Y11628D01*
X3923Y11597D01*
X3907Y11557D01*
Y11514D01*
X3923Y11474D01*
X3954Y11443D01*
X3994Y11426D01*
X4037D01*
X4078Y11443D01*
X4108Y11474D01*
X4125Y11514D01*
Y11557D01*
X4108Y11597D01*
X4078Y11628D01*
X4037Y11644D01*
D02*
G37*
G36*
X3250D02*
X3207D01*
X3167Y11628D01*
X3136Y11597D01*
X3119Y11557D01*
Y11514D01*
X3136Y11474D01*
X3167Y11443D01*
X3207Y11426D01*
X3250D01*
X3290Y11443D01*
X3321Y11474D01*
X3337Y11514D01*
Y11557D01*
X3321Y11597D01*
X3290Y11628D01*
X3250Y11644D01*
D02*
G37*
G36*
X881Y11507D02*
X837D01*
X797Y11490D01*
X767Y11459D01*
X750Y11419D01*
Y11376D01*
X767Y11336D01*
X797Y11305D01*
X837Y11288D01*
X881D01*
X921Y11305D01*
X952Y11336D01*
X968Y11376D01*
Y11419D01*
X952Y11459D01*
X921Y11490D01*
X881Y11507D01*
D02*
G37*
G36*
X1719Y11505D02*
X1675D01*
X1635Y11488D01*
X1605Y11458D01*
X1588Y11417D01*
Y11374D01*
X1605Y11334D01*
X1635Y11303D01*
X1675Y11287D01*
X1719D01*
X1759Y11303D01*
X1790Y11334D01*
X1806Y11374D01*
Y11417D01*
X1790Y11458D01*
X1759Y11488D01*
X1719Y11505D01*
D02*
G37*
G36*
X26404Y11389D02*
X26352D01*
X26305Y11369D01*
X26269Y11333D01*
X26249Y11285D01*
Y11234D01*
X26269Y11187D01*
X26305Y11151D01*
X26352Y11131D01*
X26404D01*
X26451Y11151D01*
X26487Y11187D01*
X26507Y11234D01*
Y11285D01*
X26487Y11333D01*
X26451Y11369D01*
X26404Y11389D01*
D02*
G37*
G36*
X2466Y11488D02*
X2422D01*
X2382Y11471D01*
X2352Y11440D01*
X2335Y11400D01*
Y11357D01*
X2352Y11317D01*
X2382Y11286D01*
X2422Y11270D01*
X2466D01*
X2500Y11284D01*
X2518Y11273D01*
X2540Y11250D01*
X2536Y11240D01*
Y11197D01*
X2553Y11157D01*
X2583Y11126D01*
X2623Y11109D01*
X2667D01*
X2707Y11126D01*
X2737Y11157D01*
X2754Y11197D01*
Y11240D01*
X2737Y11280D01*
X2707Y11311D01*
X2667Y11328D01*
X2623D01*
X2589Y11313D01*
X2571Y11324D01*
X2549Y11347D01*
X2553Y11357D01*
Y11400D01*
X2536Y11440D01*
X2506Y11471D01*
X2466Y11488D01*
D02*
G37*
G36*
X4037Y11015D02*
X3994D01*
X3954Y10998D01*
X3923Y10967D01*
X3907Y10927D01*
Y10884D01*
X3923Y10844D01*
X3954Y10813D01*
X3994Y10796D01*
X4037D01*
X4078Y10813D01*
X4108Y10844D01*
X4125Y10884D01*
Y10927D01*
X4108Y10967D01*
X4078Y10998D01*
X4037Y11015D01*
D02*
G37*
G36*
X3250D02*
X3207D01*
X3167Y10998D01*
X3136Y10967D01*
X3119Y10927D01*
Y10884D01*
X3136Y10844D01*
X3167Y10813D01*
X3207Y10796D01*
X3250D01*
X3290Y10813D01*
X3321Y10844D01*
X3337Y10884D01*
Y10927D01*
X3321Y10967D01*
X3290Y10998D01*
X3250Y11015D01*
D02*
G37*
G36*
X2187D02*
X2144D01*
X2104Y10998D01*
X2073Y10967D01*
X2056Y10927D01*
Y10884D01*
X2073Y10844D01*
X2104Y10813D01*
X2144Y10796D01*
X2187D01*
X2227Y10813D01*
X2258Y10844D01*
X2274Y10884D01*
Y10927D01*
X2258Y10967D01*
X2227Y10998D01*
X2187Y11015D01*
D02*
G37*
G36*
X1400D02*
X1356D01*
X1316Y10998D01*
X1285Y10967D01*
X1269Y10927D01*
Y10884D01*
X1285Y10844D01*
X1316Y10813D01*
X1356Y10796D01*
X1400D01*
X1440Y10813D01*
X1470Y10844D01*
X1487Y10884D01*
Y10927D01*
X1470Y10967D01*
X1440Y10998D01*
X1400Y11015D01*
D02*
G37*
G36*
X612D02*
X569D01*
X529Y10998D01*
X498Y10967D01*
X481Y10927D01*
Y10884D01*
X498Y10844D01*
X529Y10813D01*
X569Y10796D01*
X612D01*
X652Y10813D01*
X683Y10844D01*
X700Y10884D01*
Y10927D01*
X683Y10967D01*
X652Y10998D01*
X612Y11015D01*
D02*
G37*
G36*
X20894Y10654D02*
X20843D01*
X20796Y10635D01*
X20790Y10629D01*
X20784Y10635D01*
X20737Y10654D01*
X20686D01*
X20638Y10635D01*
X20602Y10598D01*
X20582Y10551D01*
Y10500D01*
X20602Y10453D01*
X20608Y10447D01*
X20602Y10441D01*
X20582Y10394D01*
Y10342D01*
X20602Y10295D01*
X20638Y10259D01*
X20686Y10239D01*
X20737D01*
X20784Y10259D01*
X20790Y10265D01*
X20796Y10259D01*
X20843Y10239D01*
X20894D01*
X20942Y10259D01*
X20978Y10295D01*
X20997Y10342D01*
Y10394D01*
X20978Y10441D01*
X20972Y10447D01*
X20978Y10453D01*
X20997Y10500D01*
Y10551D01*
X20978Y10598D01*
X20942Y10635D01*
X20894Y10654D01*
D02*
G37*
G36*
X25892Y10562D02*
X25841D01*
X25793Y10542D01*
X25787Y10536D01*
X25782Y10542D01*
X25734Y10562D01*
X25683D01*
X25636Y10542D01*
X25630Y10536D01*
X25624Y10542D01*
X25577Y10562D01*
X25526D01*
X25478Y10542D01*
X25472Y10536D01*
X25467Y10542D01*
X25419Y10562D01*
X25368D01*
X25321Y10542D01*
X25285Y10506D01*
X25265Y10459D01*
Y10407D01*
X25285Y10360D01*
X25290Y10354D01*
X25285Y10349D01*
X25265Y10301D01*
Y10250D01*
X25285Y10203D01*
X25321Y10166D01*
X25368Y10147D01*
X25419D01*
X25467Y10166D01*
X25472Y10172D01*
X25478Y10166D01*
X25526Y10147D01*
X25577D01*
X25624Y10166D01*
X25630Y10172D01*
X25636Y10166D01*
X25683Y10147D01*
X25734D01*
X25782Y10166D01*
X25787Y10172D01*
X25793Y10166D01*
X25841Y10147D01*
X25892D01*
X25939Y10166D01*
X25975Y10203D01*
X25995Y10250D01*
Y10301D01*
X25975Y10349D01*
X25969Y10354D01*
X25975Y10360D01*
X25995Y10407D01*
Y10459D01*
X25975Y10506D01*
X25939Y10542D01*
X25892Y10562D01*
D02*
G37*
G36*
X20626Y10015D02*
X20574D01*
X20527Y9996D01*
X20491Y9960D01*
X20471Y9912D01*
Y9861D01*
X20491Y9814D01*
X20527Y9777D01*
X20574Y9758D01*
X20626D01*
X20673Y9777D01*
X20709Y9814D01*
X20729Y9861D01*
Y9912D01*
X20709Y9960D01*
X20673Y9996D01*
X20626Y10015D01*
D02*
G37*
G36*
X15858Y9959D02*
X15815D01*
X15775Y9943D01*
X15744Y9912D01*
X15728Y9872D01*
Y9828D01*
X15744Y9788D01*
X15775Y9758D01*
X15815Y9741D01*
X15858D01*
X15899Y9758D01*
X15929Y9788D01*
X15946Y9828D01*
Y9872D01*
X15929Y9912D01*
X15899Y9943D01*
X15858Y9959D01*
D02*
G37*
G36*
X23293Y9617D02*
X23242D01*
X23195Y9597D01*
X23189Y9592D01*
X23183Y9597D01*
X23136Y9617D01*
X23085D01*
X23037Y9597D01*
X23031Y9592D01*
X23026Y9597D01*
X22978Y9617D01*
X22927D01*
X22880Y9597D01*
X22874Y9592D01*
X22868Y9597D01*
X22821Y9617D01*
X22770D01*
X22722Y9597D01*
X22717Y9592D01*
X22711Y9597D01*
X22663Y9617D01*
X22612D01*
X22565Y9597D01*
X22529Y9561D01*
X22509Y9514D01*
Y9463D01*
X22529Y9415D01*
X22534Y9409D01*
X22529Y9404D01*
X22509Y9356D01*
Y9305D01*
X22529Y9258D01*
X22565Y9222D01*
X22612Y9202D01*
X22663D01*
X22711Y9222D01*
X22717Y9227D01*
X22722Y9222D01*
X22770Y9202D01*
X22821D01*
X22868Y9222D01*
X22874Y9227D01*
X22880Y9222D01*
X22927Y9202D01*
X22978D01*
X23026Y9222D01*
X23031Y9227D01*
X23037Y9222D01*
X23085Y9202D01*
X23136D01*
X23183Y9222D01*
X23189Y9227D01*
X23195Y9222D01*
X23242Y9202D01*
X23293D01*
X23341Y9222D01*
X23377Y9258D01*
X23396Y9305D01*
Y9356D01*
X23377Y9404D01*
X23371Y9409D01*
X23377Y9415D01*
X23396Y9463D01*
Y9514D01*
X23377Y9561D01*
X23341Y9597D01*
X23293Y9617D01*
D02*
G37*
G36*
X19352Y9840D02*
X19301D01*
X19253Y9820D01*
X19217Y9784D01*
X19198Y9737D01*
Y9686D01*
X19217Y9638D01*
X19253Y9602D01*
X19301Y9583D01*
X19352D01*
X19399Y9602D01*
X19436Y9638D01*
X19455Y9686D01*
Y9737D01*
X19436Y9784D01*
X19399Y9820D01*
X19352Y9840D01*
D02*
G37*
G36*
X17581Y9794D02*
X17537D01*
X17497Y9778D01*
X17467Y9747D01*
X17450Y9707D01*
Y9663D01*
X17467Y9623D01*
X17497Y9593D01*
X17537Y9576D01*
X17581D01*
X17621Y9593D01*
X17652Y9623D01*
X17668Y9663D01*
Y9707D01*
X17652Y9747D01*
X17621Y9778D01*
X17581Y9794D01*
D02*
G37*
G36*
X14116D02*
X14073D01*
X14033Y9778D01*
X14002Y9747D01*
X13985Y9707D01*
Y9663D01*
X14002Y9623D01*
X14033Y9593D01*
X14073Y9576D01*
X14116D01*
X14156Y9593D01*
X14187Y9623D01*
X14204Y9663D01*
Y9707D01*
X14187Y9747D01*
X14156Y9778D01*
X14116Y9794D01*
D02*
G37*
G36*
X16793Y9637D02*
X16750D01*
X16710Y9620D01*
X16679Y9589D01*
X16663Y9549D01*
Y9506D01*
X16679Y9466D01*
X16710Y9435D01*
X16750Y9419D01*
X16793D01*
X16833Y9435D01*
X16864Y9466D01*
X16881Y9506D01*
Y9549D01*
X16864Y9589D01*
X16833Y9620D01*
X16793Y9637D01*
D02*
G37*
G36*
X16488D02*
X16444D01*
X16404Y9620D01*
X16374Y9589D01*
X16357Y9549D01*
Y9506D01*
X16374Y9466D01*
X16404Y9435D01*
X16444Y9419D01*
X16488D01*
X16528Y9435D01*
X16558Y9466D01*
X16575Y9506D01*
Y9549D01*
X16558Y9589D01*
X16528Y9620D01*
X16488Y9637D01*
D02*
G37*
G36*
X19356Y9492D02*
X19304D01*
X19257Y9473D01*
X19221Y9437D01*
X19201Y9389D01*
Y9338D01*
X19221Y9291D01*
X19257Y9255D01*
X19304Y9235D01*
X19356D01*
X19403Y9255D01*
X19439Y9291D01*
X19459Y9338D01*
Y9389D01*
X19439Y9437D01*
X19403Y9473D01*
X19356Y9492D01*
D02*
G37*
G36*
X8053Y9420D02*
X8010D01*
X7970Y9403D01*
X7939Y9373D01*
X7922Y9333D01*
Y9289D01*
X7939Y9249D01*
X7970Y9219D01*
X8010Y9202D01*
X8053D01*
X8093Y9219D01*
X8124Y9249D01*
X8141Y9289D01*
Y9333D01*
X8124Y9373D01*
X8093Y9403D01*
X8053Y9420D01*
D02*
G37*
G36*
X7285D02*
X7242D01*
X7202Y9403D01*
X7171Y9373D01*
X7155Y9333D01*
Y9289D01*
X7171Y9249D01*
X7202Y9219D01*
X7242Y9202D01*
X7285D01*
X7326Y9219D01*
X7356Y9249D01*
X7373Y9289D01*
Y9333D01*
X7356Y9373D01*
X7326Y9403D01*
X7285Y9420D01*
D02*
G37*
G36*
X15533Y9322D02*
X15490D01*
X15450Y9305D01*
X15419Y9274D01*
X15403Y9234D01*
Y9191D01*
X15383Y9163D01*
X15344D01*
X15306Y9205D01*
Y9234D01*
X15289Y9274D01*
X15259Y9305D01*
X15219Y9322D01*
X15175D01*
X15135Y9305D01*
X15104Y9274D01*
X15088Y9234D01*
Y9191D01*
X15054Y9143D01*
X14995D01*
X14995Y9143D01*
X14967Y9137D01*
X14944Y9121D01*
X14944Y9121D01*
X14822Y9000D01*
X14806Y8976D01*
X14800Y8948D01*
Y6960D01*
X14763Y6945D01*
X14733Y6914D01*
X14716Y6874D01*
Y6831D01*
X14733Y6791D01*
X14763Y6760D01*
X14800Y6745D01*
Y4410D01*
X14806Y4383D01*
X14822Y4359D01*
X15038Y4143D01*
X15062Y4127D01*
X15089Y4121D01*
X15415D01*
X15442Y4127D01*
X15466Y4143D01*
X15533Y4210D01*
X15539Y4212D01*
X15542Y4215D01*
X15543Y4215D01*
X15544Y4216D01*
X15545Y4216D01*
X15545Y4217D01*
X15546Y4217D01*
X15546Y4217D01*
X15547Y4217D01*
X15548Y4217D01*
X15552Y4218D01*
X15561Y4222D01*
X15573D01*
X15609Y4198D01*
Y4056D01*
X15300Y3748D01*
X15268Y3744D01*
X15259Y3754D01*
X15219Y3770D01*
X15191D01*
X15165Y3787D01*
X15148Y3814D01*
Y3841D01*
X15132Y3881D01*
X15101Y3911D01*
X15061Y3928D01*
X15018D01*
X14978Y3911D01*
X14947Y3881D01*
X14930Y3841D01*
Y3797D01*
X14947Y3757D01*
X14978Y3726D01*
X15018Y3710D01*
X15045D01*
X15071Y3693D01*
X15088Y3667D01*
Y3640D01*
X15104Y3600D01*
X15135Y3569D01*
X15175Y3552D01*
X15219D01*
X15228Y3556D01*
X15278Y3523D01*
Y3314D01*
X15284Y3285D01*
X15300Y3260D01*
X15337Y3223D01*
Y3017D01*
X15335Y3011D01*
X15335Y3007D01*
X15335Y3004D01*
X15334Y3003D01*
X15334Y3001D01*
X15334Y3001D01*
X15333Y3000D01*
X15333Y2999D01*
X15333Y2999D01*
X15333Y2999D01*
X15330Y2991D01*
X15322Y2983D01*
X15305Y2942D01*
X15264Y2901D01*
X15232Y2924D01*
Y2967D01*
X15216Y3007D01*
X15185Y3038D01*
X15145Y3054D01*
X15102D01*
X15062Y3038D01*
X15046Y3022D01*
X15031Y3038D01*
X14991Y3054D01*
X14947D01*
X14907Y3038D01*
X14898Y3028D01*
X14888Y3038D01*
X14848Y3054D01*
X14805D01*
X14765Y3038D01*
X14760Y3033D01*
X14733Y3036D01*
X14691Y3064D01*
X14643Y3073D01*
X14504D01*
X14493Y3076D01*
X14444Y3066D01*
X14403Y3038D01*
X14375Y2997D01*
X14366Y2948D01*
X14375Y2899D01*
X14403Y2858D01*
X14405Y2856D01*
X14447Y2828D01*
X14495Y2818D01*
X14526D01*
X14552Y2778D01*
X14624Y2707D01*
X14604Y2661D01*
X14470D01*
X12610Y4521D01*
Y4662D01*
X12610Y4662D01*
X12604Y4692D01*
X12588Y4716D01*
X12241Y5063D01*
X12216Y5080D01*
X12187Y5086D01*
X11960D01*
X11943Y5136D01*
X11963Y5155D01*
X11979Y5195D01*
Y5238D01*
X11963Y5278D01*
X11932Y5309D01*
X11892Y5326D01*
X11848D01*
X11808Y5309D01*
X11778Y5278D01*
X11761Y5238D01*
Y5195D01*
X11778Y5155D01*
X11797Y5136D01*
X11781Y5086D01*
X11766D01*
X11766Y5086D01*
X11736Y5080D01*
X11711Y5063D01*
X11711Y5063D01*
X11677Y5029D01*
X11645Y5031D01*
X11603Y5057D01*
Y5100D01*
X11587Y5140D01*
X11556Y5171D01*
X11516Y5188D01*
X11514D01*
X11472Y5194D01*
X11467Y5234D01*
Y5238D01*
X11451Y5278D01*
X11420Y5309D01*
X11380Y5326D01*
X11337D01*
X11296Y5309D01*
X11266Y5278D01*
X11249Y5238D01*
Y5195D01*
X11237Y5176D01*
X11217D01*
X11177Y5160D01*
X11147Y5129D01*
X11130Y5089D01*
Y5086D01*
X11124Y5070D01*
X11081D01*
X11041Y5053D01*
X11010Y5022D01*
X10993Y4982D01*
Y4939D01*
X11010Y4899D01*
X11041Y4868D01*
X11042Y4862D01*
X11041Y4814D01*
X11012Y4795D01*
X10985Y4753D01*
X10975Y4705D01*
Y4505D01*
X10897Y4427D01*
X10791D01*
X10781Y4477D01*
X10784Y4479D01*
X10815Y4510D01*
X10832Y4550D01*
Y4593D01*
X10815Y4633D01*
X10784Y4664D01*
X10744Y4680D01*
X10701D01*
X10677Y4671D01*
X10635Y4692D01*
X10627Y4700D01*
Y4954D01*
X10618Y5002D01*
X10590Y5044D01*
X10294Y5340D01*
X10252Y5368D01*
X10207Y5377D01*
X10201Y5383D01*
X10178Y5427D01*
X10188Y5451D01*
Y5494D01*
X10171Y5534D01*
X10141Y5565D01*
X10100Y5581D01*
X10057D01*
X10017Y5565D01*
X9986Y5534D01*
X9970Y5494D01*
Y5451D01*
X9979Y5427D01*
X9958Y5384D01*
X9950Y5377D01*
X9696D01*
X9688Y5384D01*
X9666Y5427D01*
X9676Y5451D01*
Y5494D01*
X9659Y5534D01*
X9629Y5565D01*
X9589Y5581D01*
X9545D01*
X9505Y5565D01*
X9474Y5534D01*
X9458Y5494D01*
Y5451D01*
X9467Y5428D01*
X9444Y5385D01*
X9419Y5381D01*
X9393Y5385D01*
X9370Y5428D01*
X9380Y5451D01*
Y5494D01*
X9363Y5534D01*
X9332Y5565D01*
X9292Y5581D01*
X9249D01*
X9248Y5581D01*
X9198Y5615D01*
Y6015D01*
X9188Y6063D01*
X9161Y6105D01*
X8935Y6330D01*
X8894Y6358D01*
X8883Y6360D01*
X8877Y6371D01*
X8871Y6413D01*
X8892Y6434D01*
X8908Y6474D01*
Y6518D01*
X8892Y6558D01*
X8861Y6589D01*
X8821Y6605D01*
X8778D01*
X8737Y6589D01*
X8707Y6558D01*
X8690Y6518D01*
Y6474D01*
X8707Y6434D01*
X8734Y6407D01*
X8732Y6390D01*
X8718Y6357D01*
X8287D01*
X8286Y6357D01*
X8260Y6379D01*
X8243Y6419D01*
X8236Y6426D01*
X8257Y6476D01*
X8262D01*
X8302Y6493D01*
X8332Y6523D01*
X8349Y6563D01*
Y6607D01*
X8332Y6647D01*
X8302Y6678D01*
X8262Y6694D01*
X8218D01*
X8178Y6678D01*
X8148Y6647D01*
X8131Y6607D01*
Y6563D01*
X8148Y6523D01*
X8154Y6516D01*
X8134Y6466D01*
X8129D01*
X8089Y6450D01*
X8081Y6442D01*
X8073Y6439D01*
X8072Y6439D01*
X8072Y6439D01*
X8072Y6438D01*
X8071Y6438D01*
X8070Y6437D01*
X8069Y6437D01*
X8067Y6437D01*
X8065Y6437D01*
X8060Y6436D01*
X8055Y6434D01*
X7986D01*
X7986Y6434D01*
X7956Y6428D01*
X7932Y6411D01*
X7932Y6411D01*
X7880Y6431D01*
X7874Y6440D01*
X7875Y6451D01*
X7881Y6466D01*
X7885Y6474D01*
X7928Y6512D01*
X7968Y6529D01*
X7999Y6559D01*
X8016Y6600D01*
Y6611D01*
X8019Y6619D01*
X8019Y6619D01*
X8019Y6619D01*
X8020Y6620D01*
X8020Y6621D01*
X8020Y6622D01*
X8021Y6623D01*
X8022Y6624D01*
X8023Y6626D01*
X8026Y6629D01*
X8029Y6635D01*
X8220Y6826D01*
X8236Y6851D01*
X8239Y6864D01*
X8287Y6882D01*
X8287Y6882D01*
X8292Y6880D01*
X8313Y6860D01*
Y6853D01*
X8330Y6813D01*
X8360Y6782D01*
X8400Y6766D01*
X8434D01*
Y6730D01*
X8451Y6690D01*
X8482Y6660D01*
X8522Y6643D01*
X8565D01*
X8605Y6660D01*
X8636Y6690D01*
X8652Y6730D01*
Y6774D01*
X8636Y6814D01*
X8605Y6844D01*
X8565Y6861D01*
X8531D01*
Y6896D01*
X8515Y6936D01*
X8484Y6967D01*
X8444Y6984D01*
X8432D01*
X8424Y6987D01*
X8424Y6988D01*
X8424Y6988D01*
X8424Y6988D01*
X8422Y6988D01*
X8422Y6988D01*
X8421Y6989D01*
X8419Y6990D01*
X8417Y6991D01*
X8414Y6995D01*
X8408Y6997D01*
X8342Y7063D01*
Y7648D01*
X8336Y7678D01*
X8320Y7702D01*
X8320Y7702D01*
X7990Y8032D01*
X7998Y8075D01*
X8029Y8105D01*
X8045Y8145D01*
Y8189D01*
X8029Y8229D01*
X7998Y8260D01*
X7958Y8276D01*
X7915D01*
X7890Y8320D01*
X7883Y8337D01*
X7852Y8367D01*
X7812Y8384D01*
X7769D01*
X7729Y8367D01*
X7698Y8337D01*
X7681Y8296D01*
Y8253D01*
X7698Y8213D01*
X7676Y8164D01*
X7621D01*
X7601Y8214D01*
X7612Y8226D01*
X7629Y8266D01*
Y8309D01*
X7612Y8349D01*
X7581Y8380D01*
X7541Y8396D01*
X7498D01*
X7458Y8380D01*
X7427Y8349D01*
X7419Y8329D01*
X7365D01*
X7356Y8349D01*
X7326Y8380D01*
X7285Y8396D01*
X7242D01*
X7202Y8380D01*
X7171Y8349D01*
X7163Y8329D01*
X7109D01*
X7100Y8349D01*
X7070Y8380D01*
X7030Y8396D01*
X6986D01*
X6946Y8380D01*
X6915Y8349D01*
X6899Y8309D01*
Y8266D01*
X6915Y8226D01*
X6946Y8195D01*
X6986Y8178D01*
X7030D01*
X7070Y8195D01*
X7100Y8226D01*
X7107Y8241D01*
X7155Y8243D01*
X7182Y8204D01*
X7167Y8160D01*
X7160Y8158D01*
X7135Y8142D01*
X6856Y7862D01*
X6687D01*
X6658Y7857D01*
X6633Y7840D01*
X6486Y7694D01*
X6280D01*
X6251Y7688D01*
X6226Y7671D01*
X5463Y6908D01*
X5178D01*
X5149Y6902D01*
X5124Y6886D01*
X4977Y6739D01*
X4960Y6714D01*
X4955Y6685D01*
Y5756D01*
X4960Y5727D01*
X4977Y5702D01*
X5160Y5520D01*
Y4427D01*
X5166Y4398D01*
X5182Y4373D01*
X5453Y4102D01*
Y3391D01*
X5458Y3362D01*
X5475Y3337D01*
X6958Y1854D01*
X6983Y1837D01*
X7012Y1831D01*
X7952D01*
X8073Y1710D01*
Y1491D01*
X8079Y1462D01*
X8096Y1437D01*
X8185Y1347D01*
X8210Y1331D01*
X8239Y1325D01*
X8350D01*
X8380Y1331D01*
X8404Y1347D01*
X8483Y1426D01*
X8483Y1426D01*
X8483Y1426D01*
X8486D01*
X8526Y1443D01*
X8557Y1474D01*
X8574Y1514D01*
Y1557D01*
X8557Y1597D01*
X8526Y1628D01*
X8486Y1644D01*
X8443D01*
X8421Y1636D01*
X8376Y1659D01*
X8371Y1665D01*
Y1738D01*
X8365Y1768D01*
X8349Y1793D01*
X8154Y1988D01*
X8173Y2034D01*
X8394D01*
Y2023D01*
X8410Y1983D01*
X8441Y1952D01*
X8481Y1935D01*
X8525D01*
X8565Y1952D01*
X8588Y1975D01*
X8611Y1952D01*
X8651Y1935D01*
X8694D01*
X8735Y1952D01*
X8766Y1982D01*
X8797Y1952D01*
X8837Y1935D01*
X8881D01*
X8921Y1952D01*
X8944Y1975D01*
X8966Y1952D01*
X9006Y1935D01*
X9050D01*
X9090Y1952D01*
X9112Y1974D01*
X9135Y1952D01*
X9175Y1935D01*
X9218D01*
X9258Y1952D01*
X9282Y1976D01*
X9306Y1952D01*
X9346Y1935D01*
X9390D01*
X9430Y1952D01*
X9452Y1975D01*
X9475Y1952D01*
X9515Y1935D01*
X9558D01*
X9598Y1952D01*
X9621Y1974D01*
X9643Y1952D01*
X9683Y1935D01*
X9726D01*
X9766Y1952D01*
X9795Y1981D01*
X9824Y1952D01*
X9864Y1935D01*
X9907D01*
X9947Y1952D01*
X9952Y1957D01*
X9985Y1978D01*
X10017Y1957D01*
X10022Y1952D01*
X10062Y1935D01*
X10106D01*
X10146Y1952D01*
X10175Y1981D01*
X10204Y1952D01*
X10244Y1935D01*
X10287D01*
X10327Y1952D01*
X10358Y1983D01*
X10375Y2023D01*
Y2066D01*
X10358Y2106D01*
X10345Y2119D01*
X10345Y2128D01*
X10342Y2134D01*
Y2185D01*
X10370Y2224D01*
X10413Y2232D01*
X10416Y2234D01*
X10450Y2257D01*
X10472Y2290D01*
X10474Y2293D01*
X10482Y2336D01*
Y2366D01*
X10474Y2409D01*
X10472Y2412D01*
X10452Y2451D01*
X10472Y2490D01*
X10474Y2493D01*
X10482Y2536D01*
Y2566D01*
X10474Y2609D01*
X10472Y2612D01*
X10450Y2645D01*
X10416Y2668D01*
X10413Y2670D01*
X10370Y2678D01*
X10342Y2716D01*
Y2840D01*
X10342Y2840D01*
X10336Y2869D01*
X10320Y2894D01*
X10320Y2894D01*
X10289Y2925D01*
X10308Y2971D01*
X10345D01*
X10392Y2964D01*
X10401Y2921D01*
X10403Y2918D01*
X10425Y2884D01*
X10459Y2862D01*
X10462Y2860D01*
X10505Y2851D01*
X10535D01*
X10543Y2853D01*
X10581Y2852D01*
X10599Y2817D01*
X10601Y2809D01*
X10603Y2806D01*
X10625Y2773D01*
X10659Y2750D01*
X10662Y2748D01*
X10705Y2740D01*
X10735D01*
X10777Y2748D01*
X10780Y2750D01*
X10820Y2770D01*
X10859Y2750D01*
X10862Y2748D01*
X10905Y2740D01*
X10935D01*
X10977Y2748D01*
X10980Y2750D01*
X11020Y2770D01*
X11059Y2750D01*
X11062Y2748D01*
X11105Y2740D01*
X11135D01*
X11177Y2748D01*
X11180Y2750D01*
X11214Y2773D01*
X11236Y2806D01*
X11238Y2809D01*
X11247Y2852D01*
X11278Y2874D01*
X11324Y2855D01*
X11325Y2853D01*
X11356Y2823D01*
X11396Y2806D01*
X11439D01*
X11479Y2823D01*
X11510Y2853D01*
X11526Y2894D01*
Y2937D01*
X11510Y2977D01*
X11479Y3008D01*
X11439Y3024D01*
X11447Y3071D01*
X11585D01*
X11784Y2872D01*
Y2807D01*
X11781Y2801D01*
X11781Y2796D01*
X11781Y2794D01*
X11780Y2792D01*
X11780Y2791D01*
X11780Y2790D01*
X11779Y2789D01*
X11779Y2789D01*
X11779Y2789D01*
X11779Y2789D01*
X11776Y2780D01*
X11768Y2772D01*
X11751Y2732D01*
Y2689D01*
X11768Y2649D01*
X11798Y2618D01*
X11838Y2601D01*
X11882D01*
X11922Y2618D01*
X11949Y2645D01*
X11949Y2645D01*
X11980Y2614D01*
X12020Y2598D01*
X12064D01*
X12067Y2599D01*
X12117Y2566D01*
Y2486D01*
X12115Y2480D01*
X12115Y2475D01*
X12114Y2473D01*
X12114Y2471D01*
X12114Y2470D01*
X12114Y2469D01*
X12113Y2468D01*
X12113Y2468D01*
X12113Y2468D01*
X12113Y2467D01*
X12109Y2459D01*
X12101Y2451D01*
X12085Y2411D01*
Y2368D01*
X12101Y2327D01*
X12132Y2297D01*
X12172Y2280D01*
X12216D01*
X12256Y2297D01*
X12286Y2327D01*
X12317Y2297D01*
X12357Y2280D01*
X12400D01*
X12440Y2297D01*
X12470Y2327D01*
X12500Y2297D01*
X12540Y2280D01*
X12584D01*
X12624Y2297D01*
X12656Y2326D01*
X12688Y2297D01*
X12728Y2280D01*
X12772D01*
X12812Y2297D01*
X12840Y2325D01*
X12868Y2297D01*
X12908Y2280D01*
X12951D01*
X12991Y2297D01*
X13022Y2327D01*
X13052Y2297D01*
X13092Y2280D01*
X13136D01*
X13176Y2297D01*
X13206Y2327D01*
X13223Y2368D01*
Y2411D01*
X13206Y2451D01*
X13194Y2463D01*
X13191Y2470D01*
X13191Y2470D01*
X13191Y2470D01*
X13191Y2470D01*
X13191Y2471D01*
X13191Y2471D01*
X13191Y2472D01*
X13190Y2472D01*
X13190Y2473D01*
X13190Y2473D01*
X13190Y2473D01*
X13190Y2475D01*
X13190Y2477D01*
X13189Y2481D01*
X13189Y2482D01*
X13189Y2483D01*
X13187Y2489D01*
Y2643D01*
X13184Y2656D01*
X13230Y2680D01*
X14107Y1803D01*
X14107Y1803D01*
X14132Y1787D01*
X14162Y1781D01*
X15317D01*
Y1696D01*
X15315Y1690D01*
X15314Y1686D01*
X15314Y1684D01*
X15314Y1682D01*
X15314Y1681D01*
X15314Y1680D01*
X15313Y1679D01*
X15312Y1678D01*
X15312Y1678D01*
X15312Y1678D01*
X15309Y1670D01*
X15301Y1662D01*
X15285Y1622D01*
Y1578D01*
X15301Y1538D01*
X15332Y1508D01*
X15372Y1491D01*
X15415D01*
X15455Y1508D01*
X15459Y1512D01*
X15492Y1534D01*
X15525Y1512D01*
X15529Y1508D01*
X15569Y1491D01*
X15612D01*
X15652Y1508D01*
X15683Y1538D01*
X15700Y1578D01*
Y1622D01*
X15683Y1662D01*
X15675Y1670D01*
X15672Y1678D01*
X15672Y1678D01*
X15672Y1678D01*
X15672Y1679D01*
X15671Y1680D01*
X15671Y1681D01*
X15670Y1682D01*
X15670Y1684D01*
X15670Y1686D01*
X15670Y1690D01*
X15667Y1696D01*
Y1850D01*
X15661Y1880D01*
X15645Y1904D01*
X15587Y1962D01*
X15606Y2008D01*
X15717D01*
X15904Y1821D01*
Y1696D01*
X15901Y1690D01*
X15901Y1686D01*
X15901Y1684D01*
X15900Y1682D01*
X15900Y1681D01*
X15900Y1680D01*
X15899Y1679D01*
X15899Y1678D01*
X15899Y1678D01*
X15899Y1678D01*
X15896Y1670D01*
X15888Y1662D01*
X15871Y1622D01*
Y1578D01*
X15888Y1538D01*
X15918Y1508D01*
X15958Y1491D01*
X16002D01*
X16042Y1508D01*
X16047Y1513D01*
X16080Y1534D01*
X16112Y1513D01*
X16117Y1508D01*
X16157Y1491D01*
X16201D01*
X16241Y1508D01*
X16271Y1538D01*
X16288Y1578D01*
Y1622D01*
X16271Y1662D01*
X16263Y1670D01*
X16260Y1678D01*
X16260Y1678D01*
X16260Y1678D01*
X16260Y1679D01*
X16259Y1680D01*
X16259Y1681D01*
X16259Y1682D01*
X16258Y1684D01*
X16258Y1686D01*
X16258Y1690D01*
X16256Y1696D01*
Y1851D01*
X16250Y1880D01*
X16233Y1905D01*
X15976Y2162D01*
X15995Y2208D01*
X16107D01*
X16501Y1814D01*
Y1696D01*
X16499Y1690D01*
X16499Y1686D01*
X16498Y1684D01*
X16498Y1682D01*
X16498Y1681D01*
X16498Y1680D01*
X16497Y1679D01*
X16497Y1678D01*
X16497Y1678D01*
X16497Y1678D01*
X16494Y1670D01*
X16485Y1662D01*
X16469Y1622D01*
Y1578D01*
X16485Y1538D01*
X16516Y1508D01*
X16556Y1491D01*
X16600D01*
X16640Y1508D01*
X16645Y1513D01*
X16677Y1534D01*
X16710Y1513D01*
X16715Y1508D01*
X16755Y1491D01*
X16799D01*
X16839Y1508D01*
X16869Y1538D01*
X16886Y1578D01*
Y1622D01*
X16869Y1662D01*
X16861Y1670D01*
X16858Y1678D01*
X16858Y1678D01*
X16858Y1678D01*
X16858Y1679D01*
X16857Y1680D01*
X16857Y1681D01*
X16857Y1682D01*
X16856Y1684D01*
X16856Y1686D01*
X16856Y1690D01*
X16853Y1696D01*
Y1844D01*
X16847Y1873D01*
X16831Y1898D01*
X16367Y2362D01*
X16386Y2408D01*
X16498D01*
X17098Y1808D01*
Y1696D01*
X17096Y1690D01*
X17095Y1686D01*
X17095Y1684D01*
X17095Y1682D01*
X17095Y1681D01*
X17095Y1680D01*
X17094Y1679D01*
X17093Y1678D01*
X17093Y1678D01*
X17093Y1678D01*
X17090Y1670D01*
X17082Y1662D01*
X17066Y1622D01*
Y1578D01*
X17082Y1538D01*
X17113Y1508D01*
X17153Y1491D01*
X17196D01*
X17236Y1508D01*
X17241Y1513D01*
X17274Y1534D01*
X17307Y1513D01*
X17312Y1508D01*
X17352Y1491D01*
X17395D01*
X17435Y1508D01*
X17466Y1538D01*
X17483Y1578D01*
Y1622D01*
X17466Y1662D01*
X17458Y1670D01*
X17455Y1678D01*
X17455Y1678D01*
X17455Y1678D01*
X17455Y1679D01*
X17454Y1680D01*
X17454Y1681D01*
X17453Y1682D01*
X17453Y1684D01*
X17453Y1686D01*
X17453Y1690D01*
X17450Y1696D01*
Y1837D01*
X17450Y1837D01*
X17444Y1867D01*
X17428Y1891D01*
X16756Y2563D01*
X16775Y2609D01*
X19087D01*
X19136Y2619D01*
X19177Y2647D01*
X20972Y4442D01*
X21014Y4413D01*
X21013Y4410D01*
Y4355D01*
X21034Y4304D01*
X21073Y4265D01*
X21124Y4244D01*
X21179D01*
X21230Y4265D01*
X21249Y4284D01*
X21288Y4294D01*
X21313Y4282D01*
X21337Y4258D01*
X21388Y4237D01*
X21443D01*
X21494Y4258D01*
X21533Y4297D01*
X21573Y4272D01*
X21560Y4240D01*
Y4184D01*
X21581Y4133D01*
X21620Y4094D01*
X21671Y4073D01*
X21726D01*
X21726Y4073D01*
X21764Y4035D01*
X21751Y4004D01*
Y3949D01*
X21772Y3900D01*
X21772Y3898D01*
X21767Y3870D01*
X21753Y3846D01*
X21745Y3845D01*
X21739Y3851D01*
X21732Y3858D01*
X21681Y3879D01*
X21626D01*
X21575Y3858D01*
X21536Y3819D01*
X21515Y3768D01*
Y3713D01*
X21536Y3662D01*
X21543Y3655D01*
X21574Y3622D01*
X21543Y3589D01*
X21536Y3582D01*
X21515Y3532D01*
Y3476D01*
X21536Y3425D01*
X21575Y3386D01*
X21626Y3365D01*
X21681D01*
X21732Y3386D01*
X21739Y3393D01*
X21772Y3425D01*
X21804Y3393D01*
X21811Y3386D01*
X21862Y3365D01*
X21917D01*
X21968Y3386D01*
X21975Y3393D01*
X22008Y3425D01*
X22041Y3393D01*
X22047Y3386D01*
X22098Y3365D01*
X22154D01*
X22204Y3386D01*
X22211Y3393D01*
X22244Y3425D01*
X22277Y3393D01*
X22284Y3386D01*
X22335Y3365D01*
X22390D01*
X22441Y3386D01*
X22480Y3425D01*
X22501Y3476D01*
Y3532D01*
X22480Y3582D01*
X22473Y3589D01*
X22441Y3622D01*
X22473Y3655D01*
X22480Y3662D01*
X22501Y3713D01*
Y3768D01*
X22480Y3819D01*
X22441Y3858D01*
X22390Y3879D01*
X22335D01*
X22284Y3858D01*
X22277Y3851D01*
X22244Y3819D01*
X22211Y3851D01*
X22204Y3858D01*
X22154Y3879D01*
X22098D01*
X22047Y3858D01*
X22041Y3851D01*
X22035Y3845D01*
X22027Y3846D01*
X22013Y3870D01*
X22007Y3898D01*
X22008Y3900D01*
X22028Y3949D01*
Y4004D01*
X22007Y4055D01*
X21968Y4094D01*
X21917Y4115D01*
X21862D01*
X21862Y4115D01*
X21824Y4153D01*
X21837Y4184D01*
Y4240D01*
X21816Y4290D01*
X21777Y4329D01*
X21726Y4351D01*
X21671D01*
X21620Y4329D01*
X21581Y4290D01*
X21541Y4316D01*
X21554Y4348D01*
Y4403D01*
X21533Y4454D01*
X21494Y4493D01*
X21443Y4514D01*
X21388D01*
X21337Y4493D01*
X21318Y4474D01*
X21279Y4463D01*
X21254Y4476D01*
X21230Y4500D01*
X21179Y4521D01*
X21124D01*
X21120Y4520D01*
X21092Y4562D01*
X21485Y4955D01*
X22254D01*
X22257Y4954D01*
X22309D01*
X22356Y4974D01*
X22392Y5010D01*
X22412Y5057D01*
Y5108D01*
X22392Y5156D01*
X22356Y5192D01*
X22351Y5194D01*
Y5248D01*
X22370Y5256D01*
X22406Y5292D01*
X22425Y5340D01*
Y5391D01*
X22406Y5438D01*
X22389Y5455D01*
X22378Y5493D01*
X22390Y5519D01*
X22412Y5540D01*
X22431Y5588D01*
Y5639D01*
X22412Y5686D01*
X22394Y5704D01*
X22378Y5728D01*
X22393Y5769D01*
X22404Y5780D01*
X22424Y5827D01*
Y5878D01*
X22404Y5926D01*
X22368Y5962D01*
X22320Y5981D01*
X22269D01*
X22222Y5962D01*
X22186Y5926D01*
X22166Y5878D01*
Y5827D01*
X22186Y5780D01*
X22204Y5762D01*
X22220Y5737D01*
X22204Y5697D01*
X22193Y5686D01*
X22174Y5639D01*
Y5588D01*
X22193Y5540D01*
X22211Y5523D01*
X22221Y5485D01*
X22209Y5459D01*
X22188Y5438D01*
X22168Y5391D01*
Y5340D01*
X22188Y5292D01*
X22220Y5260D01*
X22218Y5241D01*
X22204Y5210D01*
X21433D01*
X21384Y5200D01*
X21343Y5173D01*
X19034Y2864D01*
X17876D01*
X17844Y2914D01*
X17848Y2925D01*
Y2968D01*
X17831Y3008D01*
X17801Y3039D01*
X17761Y3056D01*
X17717D01*
X17677Y3039D01*
X17646Y3008D01*
X17630Y2968D01*
Y2925D01*
X17634Y2914D01*
X17602Y2864D01*
X17246D01*
X17242Y2868D01*
X17217Y2914D01*
X17226Y2935D01*
Y2978D01*
X17209Y3019D01*
X17179Y3049D01*
X17138Y3066D01*
X17095D01*
X17055Y3049D01*
X17024Y3019D01*
X17008Y2978D01*
Y2935D01*
X17016Y2914D01*
X16992Y2868D01*
X16987Y2864D01*
X15731D01*
X15719Y2880D01*
X15704Y2914D01*
X15716Y2944D01*
Y2977D01*
X15720Y2982D01*
X15773Y2999D01*
X15775Y2997D01*
X15815Y2980D01*
X15859D01*
X15899Y2997D01*
X15929Y3027D01*
X15946Y3067D01*
Y3111D01*
X15929Y3151D01*
X15899Y3181D01*
X15871Y3193D01*
X15866Y3240D01*
X15866Y3245D01*
X15889Y3254D01*
X15919Y3285D01*
X15936Y3325D01*
Y3368D01*
X15919Y3408D01*
X15889Y3439D01*
X15848Y3456D01*
X15805D01*
X15769Y3480D01*
Y3528D01*
X15805Y3552D01*
X15848D01*
X15889Y3569D01*
X15919Y3600D01*
X15936Y3640D01*
Y3683D01*
X15919Y3723D01*
X15889Y3754D01*
X15848Y3770D01*
X15805D01*
X15800Y3774D01*
X15795Y3836D01*
X15881Y3922D01*
X15897Y3947D01*
X15903Y3976D01*
Y3997D01*
X15953Y4017D01*
X16150Y3820D01*
X16129Y3770D01*
X16120D01*
X16080Y3754D01*
X16049Y3723D01*
X16033Y3683D01*
Y3640D01*
X16049Y3600D01*
X16080Y3569D01*
X16120Y3552D01*
X16163D01*
X16204Y3569D01*
X16234Y3600D01*
X16251Y3640D01*
Y3683D01*
X16234Y3723D01*
X16226Y3732D01*
X16246Y3782D01*
X16417D01*
X16447Y3788D01*
X16471Y3804D01*
X16569Y3902D01*
X16569Y3902D01*
X16585Y3926D01*
X16591Y3956D01*
Y4036D01*
X16586Y4062D01*
X16588Y4065D01*
X16642Y4077D01*
X16689Y4030D01*
X16691Y4024D01*
X16694Y4021D01*
X16696Y4019D01*
X16697Y4017D01*
X16698Y4016D01*
X16698Y4016D01*
X16698Y4014D01*
X16698Y4014D01*
X16698Y4014D01*
X16698Y4014D01*
X16702Y4005D01*
Y3994D01*
X16719Y3954D01*
X16749Y3923D01*
X16789Y3907D01*
X16833D01*
X16873Y3923D01*
X16903Y3954D01*
X16920Y3994D01*
Y4037D01*
X16903Y4078D01*
X16899Y4081D01*
X16877Y4114D01*
X16899Y4147D01*
X16903Y4151D01*
X16920Y4191D01*
Y4234D01*
X16903Y4274D01*
X16873Y4305D01*
X16833Y4322D01*
X16821D01*
X16813Y4325D01*
X16813Y4325D01*
X16813Y4325D01*
X16812Y4326D01*
X16811Y4326D01*
X16811Y4326D01*
X16810Y4327D01*
X16808Y4328D01*
X16806Y4329D01*
X16803Y4332D01*
X16797Y4335D01*
X16753Y4378D01*
Y4473D01*
X16789Y4497D01*
X16833D01*
X16860Y4509D01*
X16898Y4491D01*
X16910Y4480D01*
Y4399D01*
X16916Y4369D01*
X16933Y4345D01*
X17138Y4139D01*
X17139Y4136D01*
X17142Y4134D01*
X17135Y4116D01*
Y4073D01*
X17152Y4033D01*
X17182Y4002D01*
X17222Y3985D01*
X17266D01*
X17306Y4002D01*
X17337Y4033D01*
X17353Y4073D01*
Y4116D01*
X17337Y4156D01*
X17314Y4179D01*
X17312Y4184D01*
X17298Y4198D01*
X17306Y4238D01*
X17337Y4269D01*
X17353Y4309D01*
Y4352D01*
X17337Y4392D01*
X17306Y4423D01*
Y4474D01*
X17337Y4505D01*
X17353Y4545D01*
Y4589D01*
X17337Y4629D01*
X17306Y4659D01*
Y4711D01*
X17337Y4741D01*
X17353Y4781D01*
Y4793D01*
X17357Y4801D01*
X17357Y4801D01*
X17357Y4801D01*
X17357Y4802D01*
X17357Y4803D01*
X17358Y4803D01*
X17358Y4805D01*
X17359Y4806D01*
X17361Y4808D01*
X17364Y4811D01*
X17366Y4817D01*
X17451Y4902D01*
X17512D01*
X17523Y4889D01*
X17541Y4853D01*
X17529Y4825D01*
Y4781D01*
X17545Y4741D01*
X17576Y4711D01*
X17616Y4694D01*
X17659D01*
X17700Y4711D01*
X17730Y4741D01*
X17747Y4781D01*
Y4793D01*
X17751Y4801D01*
X17751Y4801D01*
X17751Y4801D01*
X17751Y4802D01*
X17751Y4803D01*
X17751Y4803D01*
X17752Y4805D01*
X17753Y4806D01*
X17755Y4808D01*
X17758Y4811D01*
X17760Y4817D01*
X18243Y5300D01*
X18243Y5300D01*
X18260Y5325D01*
X18265Y5354D01*
Y5723D01*
X18266D01*
X18257Y5772D01*
X18284Y5797D01*
X18294Y5806D01*
X18328Y5829D01*
X18339Y5845D01*
X18389Y5829D01*
Y5072D01*
X18371Y5054D01*
X18355Y5029D01*
X18349Y5000D01*
Y4899D01*
X18346Y4894D01*
X18346Y4889D01*
X18346Y4887D01*
X18346Y4885D01*
X18345Y4884D01*
X18345Y4883D01*
X18344Y4882D01*
X18344Y4881D01*
X18344Y4881D01*
X18344Y4881D01*
X18341Y4873D01*
X18333Y4865D01*
X18316Y4825D01*
Y4781D01*
X18333Y4741D01*
X18363Y4711D01*
Y4659D01*
X18333Y4629D01*
X18316Y4589D01*
Y4545D01*
X18333Y4505D01*
X18363Y4474D01*
X18404Y4458D01*
X18447D01*
X18487Y4474D01*
X18518Y4505D01*
X18534Y4545D01*
Y4589D01*
X18518Y4629D01*
X18487Y4659D01*
Y4711D01*
X18518Y4741D01*
X18534Y4781D01*
Y4825D01*
X18518Y4865D01*
X18510Y4873D01*
X18507Y4881D01*
X18506Y4881D01*
X18506Y4881D01*
X18506Y4882D01*
X18505Y4883D01*
X18505Y4884D01*
X18505Y4885D01*
X18505Y4887D01*
X18504Y4889D01*
X18504Y4894D01*
X18502Y4899D01*
Y4968D01*
X18520Y4986D01*
X18520Y4986D01*
X18536Y5011D01*
X18542Y5040D01*
X18542Y5040D01*
Y6882D01*
X18578Y6906D01*
X18621D01*
X18661Y6923D01*
X18672Y6933D01*
X18722Y6913D01*
Y6801D01*
X18718D01*
X18678Y6785D01*
X18648Y6754D01*
X18631Y6714D01*
Y6670D01*
X18648Y6630D01*
X18656Y6622D01*
X18659Y6614D01*
X18659Y6614D01*
X18659Y6614D01*
X18659Y6613D01*
X18660Y6612D01*
X18660Y6612D01*
X18660Y6610D01*
X18661Y6608D01*
X18661Y6606D01*
X18661Y6602D01*
X18664Y6596D01*
Y4992D01*
X18631Y4959D01*
X18614Y4935D01*
X18608Y4905D01*
Y4386D01*
X18439Y4217D01*
X18433Y4214D01*
X18430Y4211D01*
X18428Y4210D01*
X18427Y4209D01*
X18426Y4208D01*
X18425Y4208D01*
X18424Y4208D01*
X18423Y4207D01*
X18423Y4207D01*
X18423Y4207D01*
X18415Y4204D01*
X18404D01*
X18363Y4187D01*
X18333Y4156D01*
X18316Y4116D01*
Y4073D01*
X18333Y4033D01*
X18363Y4002D01*
X18404Y3985D01*
X18447D01*
X18487Y4002D01*
X18518Y4033D01*
X18534Y4073D01*
Y4084D01*
X18538Y4092D01*
X18538Y4092D01*
X18538Y4092D01*
X18538Y4093D01*
X18538Y4094D01*
X18539Y4095D01*
X18539Y4096D01*
X18540Y4097D01*
X18542Y4099D01*
X18545Y4102D01*
X18547Y4108D01*
X18711Y4272D01*
X18726Y4269D01*
X18757Y4238D01*
Y4187D01*
X18726Y4156D01*
X18710Y4116D01*
Y4073D01*
X18726Y4033D01*
X18757Y4002D01*
X18797Y3985D01*
X18841D01*
X18881Y4002D01*
X18911Y4033D01*
X18928Y4073D01*
Y4084D01*
X18932Y4092D01*
X18932Y4092D01*
X18932Y4092D01*
X18932Y4093D01*
X18932Y4094D01*
X18932Y4095D01*
X18933Y4096D01*
X18934Y4097D01*
X18936Y4099D01*
X18939Y4102D01*
X18941Y4108D01*
X19070Y4237D01*
X19086Y4262D01*
X19092Y4291D01*
X19092Y4291D01*
Y4462D01*
X19142Y4483D01*
X19151Y4474D01*
X19191Y4458D01*
X19234D01*
X19274Y4474D01*
X19305Y4505D01*
X19322Y4545D01*
Y4589D01*
X19305Y4629D01*
X19274Y4659D01*
Y4711D01*
X19305Y4741D01*
X19322Y4781D01*
Y4825D01*
X19305Y4865D01*
X19274Y4896D01*
X19234Y4912D01*
X19191D01*
X19151Y4896D01*
X19142Y4887D01*
X19092Y4908D01*
Y5009D01*
X19093D01*
X19083Y5058D01*
X19076Y5069D01*
X19085Y5115D01*
X19107Y5148D01*
X19109Y5151D01*
X19118Y5194D01*
Y5224D01*
X19109Y5267D01*
X19107Y5270D01*
X19085Y5303D01*
X19076Y5348D01*
X19083Y5360D01*
X19093Y5409D01*
X19092D01*
Y6028D01*
X19095Y6034D01*
X19095Y6035D01*
X19100Y6038D01*
X19131Y6068D01*
X19148Y6108D01*
Y6152D01*
X19140Y6169D01*
X19140Y6181D01*
X19139Y6183D01*
X19139Y6183D01*
X19138Y6184D01*
X19137Y6189D01*
X19137Y6190D01*
X19136Y6202D01*
X19136Y6207D01*
X19133Y6213D01*
Y6368D01*
X19140Y6371D01*
X19183Y6383D01*
X19205Y6362D01*
X19245Y6345D01*
X19260D01*
X19296Y6307D01*
X19297Y6299D01*
Y6262D01*
X19314Y6222D01*
X19316Y6220D01*
X19317Y6214D01*
X19319Y6212D01*
X19319Y6212D01*
X19319Y6212D01*
X19319Y6211D01*
X19320Y6210D01*
X19320Y6209D01*
X19320Y6207D01*
X19321Y6201D01*
X19321Y6197D01*
X19324Y6191D01*
Y5370D01*
X19329Y5340D01*
X19346Y5316D01*
X19385Y5277D01*
Y4375D01*
X19227Y4217D01*
X19221Y4214D01*
X19217Y4211D01*
X19216Y4210D01*
X19214Y4209D01*
X19213Y4208D01*
X19212Y4208D01*
X19211Y4208D01*
X19211Y4207D01*
X19211Y4207D01*
X19210Y4207D01*
X19202Y4204D01*
X19191D01*
X19151Y4187D01*
X19120Y4156D01*
X19104Y4116D01*
Y4073D01*
X19120Y4033D01*
X19151Y4002D01*
X19191Y3985D01*
X19234D01*
X19274Y4002D01*
X19305Y4033D01*
X19319Y4067D01*
X19329Y4077D01*
X19334Y4080D01*
X19378Y4058D01*
X19384Y4052D01*
Y4046D01*
X19400Y4006D01*
X19431Y3975D01*
X19471Y3959D01*
X19514D01*
X19554Y3975D01*
X19585Y4006D01*
X19602Y4046D01*
Y4089D01*
X19585Y4129D01*
X19554Y4160D01*
X19514Y4177D01*
X19474D01*
X19467Y4184D01*
X19447Y4221D01*
X19515Y4289D01*
X19515Y4289D01*
X19532Y4314D01*
X19538Y4343D01*
X19538Y4343D01*
Y5308D01*
X19532Y5338D01*
X19515Y5363D01*
X19476Y5401D01*
Y6182D01*
X19479Y6186D01*
X19478Y6188D01*
X19479Y6190D01*
X19479Y6195D01*
X19479Y6197D01*
X19480Y6198D01*
X19480Y6198D01*
X19480Y6199D01*
X19480Y6199D01*
X19481Y6200D01*
X19481Y6201D01*
X19484Y6206D01*
X19499Y6222D01*
X19515Y6262D01*
Y6305D01*
X19499Y6345D01*
X19517Y6397D01*
X19521Y6399D01*
X19524Y6400D01*
X19556D01*
X19596Y6417D01*
X19627Y6447D01*
X19644Y6488D01*
Y6531D01*
X19627Y6571D01*
X19596Y6602D01*
X19556Y6618D01*
X19513D01*
X19477Y6642D01*
Y6728D01*
X19471Y6757D01*
X19455Y6782D01*
X19455Y6782D01*
X19344Y6892D01*
Y8086D01*
X19443Y8185D01*
X19459Y8210D01*
X19465Y8239D01*
Y8319D01*
X19459Y8349D01*
X19443Y8373D01*
X19443Y8373D01*
X19376Y8440D01*
X19352Y8456D01*
X19322Y8462D01*
X19309D01*
X19303Y8465D01*
X19299Y8465D01*
X19296Y8465D01*
X19294Y8466D01*
X19293Y8466D01*
X19292Y8466D01*
X19292Y8467D01*
X19291Y8467D01*
X19291Y8467D01*
X19291Y8467D01*
X19282Y8470D01*
X19274Y8478D01*
X19234Y8495D01*
X19191D01*
X19151Y8478D01*
X19120Y8448D01*
X19104Y8408D01*
Y8364D01*
X19120Y8324D01*
X19151Y8293D01*
X19191Y8277D01*
X19234D01*
X19258Y8286D01*
X19286Y8244D01*
X19213Y8172D01*
X19197Y8147D01*
X19191Y8118D01*
Y6904D01*
X19164Y6886D01*
X19121D01*
X19085Y6910D01*
Y8196D01*
X19079Y8226D01*
X19062Y8250D01*
X18941Y8372D01*
X18939Y8378D01*
X18936Y8381D01*
X18934Y8383D01*
X18933Y8384D01*
X18932Y8385D01*
X18932Y8386D01*
X18932Y8387D01*
X18932Y8388D01*
X18932Y8388D01*
X18932Y8388D01*
X18928Y8396D01*
Y8408D01*
X18911Y8448D01*
X18881Y8478D01*
Y8530D01*
X18911Y8560D01*
X18928Y8600D01*
Y8644D01*
X18911Y8684D01*
X18881Y8715D01*
X18841Y8731D01*
X18797D01*
X18757Y8715D01*
X18726Y8684D01*
X18710Y8644D01*
Y8600D01*
X18726Y8560D01*
X18757Y8530D01*
Y8478D01*
X18726Y8448D01*
X18710Y8408D01*
Y8364D01*
X18726Y8324D01*
X18757Y8293D01*
X18797Y8277D01*
X18809D01*
X18817Y8273D01*
X18817Y8273D01*
X18817Y8273D01*
X18817Y8273D01*
X18819Y8273D01*
X18819Y8272D01*
X18820Y8272D01*
X18822Y8271D01*
X18824Y8269D01*
X18827Y8266D01*
X18833Y8264D01*
X18932Y8165D01*
Y8022D01*
X18931Y8021D01*
X18882Y7995D01*
X18875Y8000D01*
Y8013D01*
X18875Y8013D01*
X18869Y8042D01*
X18852Y8067D01*
X18547Y8372D01*
X18545Y8378D01*
X18542Y8381D01*
X18540Y8383D01*
X18539Y8384D01*
X18539Y8385D01*
X18538Y8386D01*
X18538Y8387D01*
X18538Y8388D01*
X18538Y8388D01*
X18538Y8388D01*
X18534Y8396D01*
Y8408D01*
X18518Y8448D01*
X18487Y8478D01*
X18447Y8495D01*
X18404D01*
X18363Y8478D01*
X18363Y8478D01*
X18313Y8498D01*
Y8746D01*
X18363Y8766D01*
X18363Y8766D01*
X18404Y8749D01*
X18447D01*
X18487Y8766D01*
X18518Y8796D01*
X18534Y8837D01*
Y8880D01*
X18518Y8920D01*
X18487Y8951D01*
Y9002D01*
X18518Y9033D01*
X18534Y9073D01*
Y9116D01*
X18518Y9156D01*
X18487Y9187D01*
X18458Y9199D01*
X18450Y9205D01*
X18447Y9206D01*
X18447Y9206D01*
X18446Y9206D01*
X18445Y9207D01*
X18444Y9207D01*
X18442Y9208D01*
X18440Y9210D01*
X18435Y9214D01*
X18432Y9217D01*
X18425Y9220D01*
X18416Y9229D01*
X18391Y9245D01*
X18362Y9251D01*
X18302D01*
X18302Y9251D01*
X18272Y9245D01*
X18248Y9229D01*
X18182Y9163D01*
X18178Y9157D01*
X18127Y9156D01*
X18122Y9158D01*
X18093Y9187D01*
X18053Y9204D01*
X18010D01*
X17970Y9187D01*
X17939Y9156D01*
X17922Y9116D01*
Y9073D01*
X17939Y9033D01*
X17970Y9002D01*
X18010Y8985D01*
X18053D01*
X18093Y9002D01*
X18110Y9019D01*
X18160Y8999D01*
Y8718D01*
X18110Y8698D01*
X18093Y8715D01*
X18053Y8731D01*
X18010D01*
X17970Y8715D01*
X17961Y8706D01*
X17911Y8727D01*
Y8898D01*
X17905Y8927D01*
X17889Y8952D01*
X17889Y8952D01*
X17760Y9080D01*
X17758Y9086D01*
X17755Y9090D01*
X17753Y9092D01*
X17752Y9093D01*
X17751Y9094D01*
X17751Y9095D01*
X17751Y9096D01*
X17751Y9097D01*
X17751Y9097D01*
X17751Y9097D01*
X17747Y9105D01*
Y9116D01*
X17730Y9156D01*
X17700Y9187D01*
X17659Y9204D01*
X17616D01*
X17576Y9187D01*
X17545Y9156D01*
X17529Y9116D01*
Y9073D01*
X17545Y9033D01*
X17576Y9002D01*
X17616Y8985D01*
X17627D01*
X17636Y8982D01*
X17636Y8982D01*
X17636Y8982D01*
X17636Y8981D01*
X17638Y8981D01*
X17638Y8981D01*
X17639Y8980D01*
X17641Y8979D01*
X17643Y8978D01*
X17646Y8975D01*
X17652Y8972D01*
X17758Y8866D01*
Y8727D01*
X17708Y8706D01*
X17700Y8715D01*
X17659Y8731D01*
X17616D01*
X17605Y8726D01*
X17555Y8758D01*
Y8860D01*
X17555Y8860D01*
X17549Y8890D01*
X17532Y8915D01*
X17366Y9080D01*
X17364Y9086D01*
X17361Y9090D01*
X17359Y9092D01*
X17358Y9093D01*
X17358Y9094D01*
X17357Y9095D01*
X17357Y9096D01*
X17357Y9097D01*
X17357Y9097D01*
X17357Y9097D01*
X17353Y9105D01*
Y9116D01*
X17337Y9156D01*
X17306Y9187D01*
X17266Y9204D01*
X17222D01*
X17182Y9187D01*
X17152Y9156D01*
X17135Y9116D01*
Y9073D01*
X17152Y9033D01*
X17182Y9002D01*
Y8951D01*
X17152Y8920D01*
X17135Y8880D01*
Y8837D01*
X17152Y8796D01*
X17182Y8766D01*
Y8715D01*
X17152Y8684D01*
X17135Y8644D01*
Y8600D01*
X17152Y8560D01*
X17182Y8530D01*
Y8478D01*
X17152Y8448D01*
X17135Y8408D01*
Y8364D01*
X17139Y8355D01*
X17096Y8327D01*
X16933Y8490D01*
X16931Y8496D01*
X16928Y8499D01*
X16926Y8501D01*
X16925Y8502D01*
X16925Y8504D01*
X16924Y8504D01*
X16924Y8505D01*
X16924Y8506D01*
X16924Y8506D01*
X16924Y8506D01*
X16920Y8514D01*
Y8526D01*
X16903Y8566D01*
X16873Y8596D01*
X16833Y8613D01*
X16789D01*
X16749Y8596D01*
X16719Y8566D01*
X16702Y8526D01*
Y8507D01*
X16652Y8492D01*
X16645Y8503D01*
X16461Y8687D01*
X16458Y8693D01*
X16455Y8696D01*
X16454Y8698D01*
X16453Y8699D01*
X16452Y8700D01*
X16452Y8701D01*
X16452Y8702D01*
X16451Y8703D01*
X16451Y8703D01*
X16451Y8703D01*
X16448Y8711D01*
Y8722D01*
X16431Y8763D01*
X16400Y8793D01*
X16360Y8810D01*
X16317D01*
X16277Y8793D01*
X16246Y8763D01*
X16230Y8722D01*
Y8679D01*
X16246Y8639D01*
X16250Y8635D01*
X16273Y8602D01*
X16250Y8570D01*
X16246Y8566D01*
X16230Y8526D01*
Y8514D01*
X16226Y8506D01*
X16226Y8506D01*
X16226Y8506D01*
X16225Y8505D01*
X16225Y8504D01*
X16225Y8504D01*
X16224Y8502D01*
X16223Y8501D01*
X16222Y8499D01*
X16219Y8496D01*
X16216Y8490D01*
X15930Y8204D01*
X15914Y8179D01*
X15908Y8150D01*
Y8091D01*
X15858Y8058D01*
X15848Y8062D01*
X15805D01*
X15765Y8045D01*
X15734Y8015D01*
X15718Y7974D01*
Y7931D01*
X15734Y7891D01*
X15765Y7860D01*
X15805Y7844D01*
X15848D01*
X15858Y7848D01*
X15897Y7821D01*
Y7769D01*
X15858Y7743D01*
X15848Y7747D01*
X15805D01*
X15765Y7730D01*
X15734Y7700D01*
X15718Y7659D01*
Y7616D01*
X15734Y7576D01*
X15765Y7545D01*
X15805Y7529D01*
X15848D01*
X15858Y7533D01*
X15908Y7500D01*
X15914Y7471D01*
X15930Y7446D01*
X15958Y7418D01*
X15956Y7399D01*
X15942Y7364D01*
X15912Y7351D01*
X15881Y7321D01*
X15873Y7301D01*
X15865Y7292D01*
X15864Y7290D01*
X15864Y7289D01*
X15864Y7288D01*
X15863Y7287D01*
X15860Y7282D01*
X15859Y7281D01*
X15854Y7275D01*
X15850Y7271D01*
X15848Y7265D01*
X15615Y7033D01*
X15599Y7008D01*
X15596Y6996D01*
X15546Y7001D01*
Y7098D01*
X15541Y7127D01*
X15524Y7152D01*
X15507Y7169D01*
X15507Y7171D01*
X15502Y7174D01*
X15500Y7180D01*
X15497Y7183D01*
X15496Y7184D01*
X15495Y7185D01*
X15495Y7186D01*
X15495Y7186D01*
Y7222D01*
X15478Y7262D01*
X15447Y7293D01*
X15407Y7310D01*
X15364D01*
X15324Y7293D01*
X15293Y7262D01*
X15277Y7222D01*
Y7179D01*
X15293Y7139D01*
X15324Y7108D01*
X15351Y7097D01*
X15360Y7090D01*
X15362Y7090D01*
X15363Y7090D01*
X15363Y7089D01*
X15364Y7089D01*
X15366Y7088D01*
X15368Y7087D01*
X15369Y7086D01*
X15375Y7081D01*
X15378Y7078D01*
X15384Y7075D01*
X15393Y7066D01*
Y6842D01*
X15392D01*
X15395Y6827D01*
X15400Y6794D01*
X15400Y6794D01*
X15400Y6791D01*
X15363Y6761D01*
X15363Y6761D01*
X15357Y6757D01*
X15330Y6739D01*
X15312Y6712D01*
X15308Y6706D01*
X15300Y6667D01*
X15301D01*
Y6617D01*
X15300D01*
X15308Y6578D01*
X15312Y6571D01*
X15330Y6544D01*
Y6539D01*
X15312Y6512D01*
X15308Y6506D01*
X15300Y6467D01*
X15301D01*
Y6417D01*
X15300D01*
X15308Y6378D01*
X15312Y6371D01*
X15330Y6344D01*
X15363Y6322D01*
X15393Y6316D01*
Y6052D01*
X15354Y6013D01*
X15297Y6020D01*
X15267Y6050D01*
X15227Y6067D01*
X15183D01*
X15143Y6050D01*
X15113Y6020D01*
X15097Y5983D01*
X15096Y5980D01*
X15074Y5983D01*
X15049Y6023D01*
Y6073D01*
X15065Y6116D01*
X15104Y6124D01*
X15111Y6128D01*
X15137Y6146D01*
X15155Y6172D01*
X15159Y6179D01*
X15167Y6217D01*
Y6254D01*
X15159Y6293D01*
X15159Y6293D01*
X15139Y6329D01*
X15159Y6364D01*
X15159Y6364D01*
X15167Y6403D01*
Y6440D01*
X15159Y6479D01*
X15159Y6479D01*
X15139Y6515D01*
X15159Y6550D01*
X15159Y6550D01*
X15167Y6589D01*
Y6626D01*
X15159Y6665D01*
X15155Y6671D01*
X15137Y6698D01*
X15108Y6717D01*
X15105Y6723D01*
X15102Y6735D01*
X15098Y6772D01*
X15117Y6791D01*
X15133Y6831D01*
Y6874D01*
X15117Y6914D01*
X15086Y6945D01*
X15049Y6960D01*
Y7960D01*
X15065Y8003D01*
X15103Y8011D01*
X15110Y8016D01*
X15136Y8033D01*
X15154Y8059D01*
X15158Y8066D01*
X15166Y8105D01*
Y8142D01*
X15158Y8181D01*
X15158Y8181D01*
X15138Y8216D01*
X15158Y8252D01*
X15158Y8252D01*
X15166Y8291D01*
Y8328D01*
X15158Y8366D01*
X15158Y8366D01*
X15138Y8402D01*
X15158Y8438D01*
X15158Y8438D01*
X15166Y8476D01*
Y8513D01*
X15158Y8552D01*
X15158Y8552D01*
X15138Y8588D01*
X15158Y8623D01*
X15158Y8623D01*
X15166Y8662D01*
Y8699D01*
X15158Y8738D01*
X15154Y8745D01*
X15136Y8771D01*
X15110Y8789D01*
X15103Y8793D01*
X15065Y8801D01*
X15049Y8844D01*
Y8875D01*
X15068Y8894D01*
X15350D01*
X15360Y8844D01*
X15332Y8833D01*
X15301Y8802D01*
X15285Y8762D01*
Y8718D01*
X15301Y8678D01*
X15332Y8648D01*
X15372Y8631D01*
X15415D01*
X15442Y8613D01*
Y8600D01*
X15459Y8560D01*
X15489Y8530D01*
X15529Y8513D01*
X15573D01*
X15613Y8530D01*
X15644Y8560D01*
X15660Y8600D01*
Y8644D01*
X15646Y8679D01*
X15668Y8701D01*
X15668Y8701D01*
X15684Y8724D01*
X15689Y8752D01*
Y8911D01*
X15689Y8911D01*
X15684Y8939D01*
X15668Y8963D01*
X15567Y9063D01*
X15574Y9120D01*
X15604Y9151D01*
X15621Y9191D01*
Y9234D01*
X15604Y9274D01*
X15574Y9305D01*
X15533Y9322D01*
D02*
G37*
G36*
X11294Y9340D02*
X11250D01*
X11210Y9323D01*
X11179Y9292D01*
X11163Y9252D01*
Y9209D01*
X11179Y9169D01*
X11210Y9138D01*
X11250Y9122D01*
X11294D01*
X11334Y9138D01*
X11364Y9169D01*
X11381Y9209D01*
Y9252D01*
X11364Y9292D01*
X11334Y9323D01*
X11294Y9340D01*
D02*
G37*
G36*
X15848Y9637D02*
X15805D01*
X15765Y9620D01*
X15734Y9589D01*
X15718Y9549D01*
Y9506D01*
X15734Y9466D01*
X15765Y9435D01*
X15805Y9419D01*
X15832D01*
X15859Y9402D01*
X15875Y9375D01*
Y9358D01*
X15857Y9334D01*
X15834Y9317D01*
X15800D01*
X15760Y9301D01*
X15729Y9270D01*
X15713Y9230D01*
Y9186D01*
X15729Y9146D01*
X15760Y9116D01*
X15800Y9099D01*
X15843D01*
X15883Y9116D01*
X15914Y9146D01*
X15931Y9186D01*
Y9220D01*
X15949Y9244D01*
X15972Y9261D01*
X16006D01*
X16046Y9278D01*
X16077Y9308D01*
X16093Y9348D01*
Y9392D01*
X16077Y9432D01*
X16046Y9463D01*
X16006Y9479D01*
X15979D01*
X15952Y9496D01*
X15936Y9522D01*
Y9549D01*
X15919Y9589D01*
X15889Y9620D01*
X15848Y9637D01*
D02*
G37*
G36*
X9968Y9305D02*
X9925D01*
X9885Y9289D01*
X9854Y9258D01*
X9838Y9218D01*
Y9175D01*
X9854Y9135D01*
X9885Y9104D01*
X9925Y9087D01*
X9968D01*
X10009Y9104D01*
X10039Y9135D01*
X10056Y9175D01*
Y9218D01*
X10039Y9258D01*
X10009Y9289D01*
X9968Y9305D01*
D02*
G37*
G36*
X18841Y9204D02*
X18797D01*
X18757Y9187D01*
X18726Y9156D01*
X18710Y9116D01*
Y9073D01*
X18726Y9033D01*
X18757Y9002D01*
X18797Y8985D01*
X18841D01*
X18881Y9002D01*
X18911Y9033D01*
X18928Y9073D01*
Y9116D01*
X18911Y9156D01*
X18881Y9187D01*
X18841Y9204D01*
D02*
G37*
G36*
X12226Y9164D02*
X12183D01*
X12143Y9148D01*
X12112Y9117D01*
X12096Y9077D01*
Y9033D01*
X12112Y8993D01*
X12143Y8963D01*
X12183Y8946D01*
X12226D01*
X12266Y8963D01*
X12297Y8993D01*
X12314Y9033D01*
Y9077D01*
X12297Y9117D01*
X12266Y9148D01*
X12226Y9164D01*
D02*
G37*
G36*
X10986Y9558D02*
X10943D01*
X10903Y9541D01*
X10872Y9511D01*
X10856Y9470D01*
Y9427D01*
X10851Y9420D01*
X10825D01*
X10785Y9403D01*
X10754Y9373D01*
X10737Y9333D01*
X10737Y9289D01*
X10694Y9286D01*
X10654Y9270D01*
X10624Y9239D01*
X10607Y9199D01*
Y9156D01*
X10624Y9116D01*
X10654Y9085D01*
X10652Y9032D01*
X10647Y9029D01*
X10616Y8999D01*
X10600Y8959D01*
X10587Y8947D01*
X10551Y8942D01*
X10549Y8945D01*
X10533Y8983D01*
X10502Y9013D01*
X10462Y9030D01*
X10444Y9076D01*
Y9077D01*
X10427Y9117D01*
X10396Y9148D01*
X10376Y9156D01*
Y9210D01*
X10396Y9219D01*
X10427Y9249D01*
X10444Y9289D01*
Y9333D01*
X10427Y9373D01*
X10396Y9403D01*
X10356Y9420D01*
X10313D01*
X10273Y9403D01*
X10242Y9373D01*
X10226Y9333D01*
Y9289D01*
X10242Y9249D01*
X10273Y9219D01*
X10293Y9210D01*
Y9156D01*
X10273Y9148D01*
X10242Y9117D01*
X10226Y9077D01*
Y9039D01*
X10192D01*
X10152Y9022D01*
X10121Y8991D01*
X10105Y8951D01*
Y8908D01*
X10121Y8868D01*
X10152Y8837D01*
X10192Y8821D01*
X10236D01*
X10276Y8837D01*
X10295Y8857D01*
X10336Y8859D01*
X10354Y8853D01*
X10379Y8828D01*
X10419Y8812D01*
X10419D01*
X10463Y8805D01*
X10466Y8766D01*
Y8762D01*
X10482Y8722D01*
X10513Y8691D01*
X10553Y8674D01*
X10596Y8674D01*
X10623Y8631D01*
X10636Y8600D01*
X10667Y8569D01*
X10707Y8552D01*
X10750D01*
X10790Y8569D01*
X10813Y8592D01*
X10850Y8592D01*
X10870Y8587D01*
X10871Y8583D01*
X10902Y8552D01*
X10942Y8535D01*
X10985D01*
X11025Y8552D01*
X11056Y8583D01*
X11073Y8623D01*
Y8666D01*
X11056Y8706D01*
X11025Y8737D01*
X10998Y8748D01*
X10956Y8778D01*
Y8821D01*
X10939Y8861D01*
X10908Y8892D01*
X10868Y8908D01*
X10864D01*
X10824Y8914D01*
X10818Y8954D01*
Y8959D01*
X10801Y8999D01*
X10770Y9029D01*
X10773Y9083D01*
X10778Y9085D01*
X10809Y9116D01*
X10825Y9156D01*
X10825Y9199D01*
X10868Y9202D01*
X10908Y9219D01*
X10939Y9249D01*
X10956Y9289D01*
Y9333D01*
X10960Y9340D01*
X10986D01*
X11026Y9356D01*
X11057Y9387D01*
X11074Y9427D01*
Y9470D01*
X11057Y9511D01*
X11026Y9541D01*
X10986Y9558D01*
D02*
G37*
G36*
X16833Y9007D02*
X16789D01*
X16749Y8990D01*
X16719Y8959D01*
X16702Y8919D01*
Y8876D01*
X16719Y8836D01*
X16749Y8805D01*
X16789Y8789D01*
X16833D01*
X16873Y8805D01*
X16903Y8836D01*
X16920Y8876D01*
Y8919D01*
X16903Y8959D01*
X16873Y8990D01*
X16833Y9007D01*
D02*
G37*
G36*
X11754Y9322D02*
X11711D01*
X11670Y9305D01*
X11640Y9274D01*
X11623Y9234D01*
Y9191D01*
X11640Y9151D01*
X11670Y9120D01*
X11711Y9104D01*
X11754D01*
X11768Y9110D01*
X11770Y9109D01*
X11815Y9075D01*
Y9056D01*
X11831Y9015D01*
X11862Y8985D01*
X11870Y8936D01*
X11868Y8932D01*
X11853Y8896D01*
Y8853D01*
X11870Y8812D01*
X11900Y8782D01*
X11940Y8765D01*
X11984D01*
X12024Y8782D01*
X12054Y8812D01*
X12071Y8853D01*
Y8896D01*
X12054Y8936D01*
X12024Y8967D01*
X12016Y9015D01*
X12018Y9019D01*
X12033Y9056D01*
Y9099D01*
X12016Y9139D01*
X11985Y9170D01*
X11945Y9186D01*
X11902D01*
X11888Y9180D01*
X11886Y9181D01*
X11841Y9214D01*
Y9234D01*
X11825Y9274D01*
X11794Y9305D01*
X11754Y9322D01*
D02*
G37*
G36*
X19234Y9204D02*
X19191D01*
X19151Y9187D01*
X19120Y9156D01*
X19104Y9116D01*
Y9073D01*
X19120Y9033D01*
X19151Y9002D01*
Y8951D01*
X19120Y8920D01*
X19104Y8880D01*
Y8837D01*
X19120Y8796D01*
X19151Y8766D01*
X19191Y8749D01*
X19234D01*
X19274Y8766D01*
X19305Y8796D01*
X19322Y8837D01*
Y8880D01*
X19305Y8920D01*
X19274Y8951D01*
Y9002D01*
X19305Y9033D01*
X19322Y9073D01*
Y9116D01*
X19305Y9156D01*
X19274Y9187D01*
X19234Y9204D01*
D02*
G37*
G36*
X9967Y9025D02*
X9924D01*
X9884Y9009D01*
X9853Y8978D01*
X9837Y8938D01*
Y8908D01*
X9802D01*
X9762Y8892D01*
X9731Y8861D01*
X9714Y8821D01*
Y8778D01*
X9731Y8737D01*
X9762Y8707D01*
X9802Y8690D01*
X9845D01*
X9885Y8707D01*
X9916Y8737D01*
X9932Y8778D01*
Y8807D01*
X9967D01*
X10008Y8824D01*
X10038Y8855D01*
X10055Y8895D01*
Y8938D01*
X10038Y8978D01*
X10008Y9009D01*
X9967Y9025D01*
D02*
G37*
G36*
X7797Y9164D02*
X7754D01*
X7714Y9148D01*
X7683Y9117D01*
X7667Y9077D01*
Y9033D01*
X7683Y8993D01*
X7714Y8963D01*
X7734Y8954D01*
Y8900D01*
X7714Y8892D01*
X7683Y8861D01*
X7667Y8821D01*
X7626Y8777D01*
X7620Y8775D01*
X7586Y8761D01*
X7556Y8730D01*
X7539Y8690D01*
Y8646D01*
X7556Y8606D01*
X7586Y8576D01*
X7626Y8559D01*
X7670D01*
X7710Y8576D01*
X7740Y8606D01*
X7755Y8641D01*
X7757Y8646D01*
X7797Y8690D01*
X7803Y8693D01*
X7803D01*
X7811Y8696D01*
X7837Y8707D01*
X7868Y8737D01*
X7876Y8758D01*
X7931D01*
X7939Y8737D01*
X7970Y8707D01*
X8010Y8690D01*
X8053D01*
X8093Y8707D01*
X8124Y8737D01*
X8141Y8778D01*
Y8821D01*
X8124Y8861D01*
X8093Y8892D01*
X8053Y8908D01*
X8010D01*
X7970Y8892D01*
X7939Y8861D01*
X7931Y8841D01*
X7876D01*
X7868Y8861D01*
X7837Y8892D01*
X7817Y8900D01*
Y8954D01*
X7837Y8963D01*
X7868Y8993D01*
X7885Y9033D01*
Y9077D01*
X7868Y9117D01*
X7837Y9148D01*
X7797Y9164D01*
D02*
G37*
G36*
X7030D02*
X6986D01*
X6946Y9148D01*
X6915Y9117D01*
X6899Y9077D01*
X6895Y9033D01*
X6853Y9031D01*
X6851D01*
X6811Y9015D01*
X6780Y8984D01*
X6764Y8944D01*
Y8901D01*
X6780Y8860D01*
X6811Y8830D01*
X6851Y8813D01*
X6894D01*
X6899Y8810D01*
Y8778D01*
X6915Y8737D01*
X6946Y8707D01*
X6986Y8690D01*
X7030D01*
X7070Y8707D01*
X7100Y8737D01*
X7109Y8758D01*
X7163D01*
X7171Y8737D01*
X7202Y8707D01*
X7242Y8690D01*
X7285D01*
X7326Y8707D01*
X7356Y8737D01*
X7373Y8778D01*
Y8821D01*
X7356Y8861D01*
X7326Y8892D01*
X7285Y8908D01*
X7242D01*
X7202Y8892D01*
X7171Y8861D01*
X7163Y8841D01*
X7109D01*
X7100Y8861D01*
X7070Y8892D01*
X7049Y8900D01*
Y8954D01*
X7070Y8963D01*
X7100Y8993D01*
X7117Y9033D01*
Y9077D01*
X7100Y9117D01*
X7070Y9148D01*
X7030Y9164D01*
D02*
G37*
G36*
X11242Y9046D02*
X11199D01*
X11159Y9029D01*
X11128Y8999D01*
X11111Y8959D01*
Y8915D01*
X11128Y8875D01*
X11159Y8845D01*
X11199Y8828D01*
X11203D01*
X11230Y8819D01*
Y8776D01*
X11246Y8736D01*
X11277Y8705D01*
X11317Y8689D01*
X11360D01*
X11400Y8705D01*
X11431Y8736D01*
X11448Y8776D01*
Y8781D01*
X11464Y8822D01*
X11494Y8827D01*
X11509D01*
X11549Y8843D01*
X11580Y8874D01*
X11596Y8914D01*
Y8958D01*
X11580Y8998D01*
X11549Y9028D01*
X11509Y9045D01*
X11465D01*
X11425Y9028D01*
X11395Y8998D01*
X11378Y8958D01*
X11330Y8959D01*
X11313Y8999D01*
X11282Y9029D01*
X11242Y9046D01*
D02*
G37*
G36*
X9467Y9038D02*
X9424D01*
X9384Y9021D01*
X9353Y8990D01*
X9336Y8950D01*
X9333Y8908D01*
X9289Y8908D01*
X9249Y8892D01*
X9219Y8861D01*
X9202Y8821D01*
Y8778D01*
X9219Y8737D01*
X9249Y8707D01*
X9270Y8698D01*
Y8644D01*
X9249Y8636D01*
X9219Y8605D01*
X9210Y8585D01*
X9156D01*
X9148Y8605D01*
X9117Y8636D01*
X9077Y8652D01*
X9033D01*
X8993Y8636D01*
X8963Y8605D01*
X8946Y8565D01*
Y8522D01*
X8963Y8482D01*
X8993Y8451D01*
X9014Y8442D01*
Y8388D01*
X8993Y8380D01*
X8963Y8349D01*
X8954Y8329D01*
X8900D01*
X8892Y8349D01*
X8861Y8380D01*
X8821Y8396D01*
X8778D01*
X8737Y8380D01*
X8707Y8349D01*
X8698Y8329D01*
X8644D01*
X8636Y8349D01*
X8605Y8380D01*
X8585Y8388D01*
Y8442D01*
X8605Y8451D01*
X8636Y8482D01*
X8652Y8522D01*
Y8565D01*
X8636Y8605D01*
X8605Y8636D01*
X8565Y8652D01*
X8522D01*
X8482Y8636D01*
X8451Y8605D01*
X8434Y8565D01*
Y8522D01*
X8451Y8482D01*
X8482Y8451D01*
X8502Y8442D01*
Y8388D01*
X8482Y8380D01*
X8451Y8349D01*
X8434Y8309D01*
Y8266D01*
X8451Y8226D01*
X8482Y8195D01*
X8522Y8178D01*
X8565D01*
X8605Y8195D01*
X8636Y8226D01*
X8644Y8246D01*
X8698D01*
X8707Y8226D01*
X8737Y8195D01*
X8778Y8178D01*
X8821D01*
X8861Y8195D01*
X8892Y8226D01*
X8900Y8246D01*
X8954D01*
X8963Y8226D01*
X8993Y8195D01*
X9033Y8178D01*
X9077D01*
X9117Y8195D01*
X9148Y8226D01*
X9164Y8266D01*
Y8309D01*
X9148Y8349D01*
X9117Y8380D01*
X9097Y8388D01*
Y8442D01*
X9117Y8451D01*
X9148Y8482D01*
X9156Y8502D01*
X9210D01*
X9219Y8482D01*
X9249Y8451D01*
X9289Y8434D01*
X9333D01*
X9373Y8451D01*
X9403Y8482D01*
X9420Y8522D01*
Y8565D01*
X9403Y8605D01*
X9373Y8636D01*
X9352Y8644D01*
Y8698D01*
X9373Y8707D01*
X9403Y8737D01*
X9420Y8778D01*
X9424Y8820D01*
X9467Y8820D01*
X9507Y8836D01*
X9538Y8867D01*
X9554Y8907D01*
Y8950D01*
X9538Y8990D01*
X9507Y9021D01*
X9467Y9038D01*
D02*
G37*
G36*
X11639Y8654D02*
X11595D01*
X11555Y8637D01*
X11524Y8607D01*
X11508Y8567D01*
Y8523D01*
X11524Y8483D01*
X11555Y8452D01*
X11595Y8436D01*
X11639D01*
X11679Y8452D01*
X11709Y8483D01*
X11726Y8523D01*
Y8567D01*
X11709Y8607D01*
X11679Y8637D01*
X11639Y8654D01*
D02*
G37*
G36*
X12333Y8615D02*
X12290D01*
X12250Y8598D01*
X12219Y8567D01*
X12202Y8527D01*
Y8484D01*
X12219Y8444D01*
X12250Y8413D01*
X12290Y8396D01*
X12333D01*
X12373Y8413D01*
X12404Y8444D01*
X12421Y8484D01*
Y8527D01*
X12404Y8567D01*
X12373Y8598D01*
X12333Y8615D01*
D02*
G37*
G36*
X9922Y8559D02*
X9878D01*
X9838Y8542D01*
X9808Y8512D01*
X9791Y8472D01*
Y8428D01*
X9808Y8388D01*
X9838Y8358D01*
X9878Y8341D01*
X9922D01*
X9962Y8358D01*
X9992Y8388D01*
X10009Y8428D01*
Y8472D01*
X9992Y8512D01*
X9962Y8542D01*
X9922Y8559D01*
D02*
G37*
G36*
X11162Y8551D02*
X11119D01*
X11078Y8534D01*
X11048Y8504D01*
X11031Y8463D01*
Y8420D01*
X11048Y8380D01*
X11078Y8349D01*
X11119Y8333D01*
X11162D01*
X11202Y8349D01*
X11233Y8380D01*
X11249Y8420D01*
Y8463D01*
X11233Y8504D01*
X11202Y8534D01*
X11162Y8551D01*
D02*
G37*
G36*
X21458Y8334D02*
X21403D01*
X21352Y8313D01*
X21352Y8313D01*
X21352Y8313D01*
X21301Y8334D01*
X21245D01*
X21195Y8313D01*
X21156Y8274D01*
X21134Y8223D01*
Y8168D01*
X21156Y8117D01*
X21156Y8117D01*
X21156Y8117D01*
X21134Y8066D01*
Y8011D01*
X21156Y7960D01*
X21195Y7921D01*
X21245Y7900D01*
X21301D01*
X21352Y7921D01*
X21352Y7921D01*
X21352Y7921D01*
X21403Y7900D01*
X21458D01*
X21509Y7921D01*
X21548Y7960D01*
X21569Y8011D01*
Y8066D01*
X21548Y8117D01*
X21548Y8117D01*
X21548Y8117D01*
X21569Y8168D01*
Y8223D01*
X21548Y8274D01*
X21509Y8313D01*
X21458Y8334D01*
D02*
G37*
G36*
X10238Y8529D02*
X10195D01*
X10155Y8513D01*
X10124Y8482D01*
X10107Y8442D01*
Y8398D01*
X10124Y8358D01*
X10155Y8328D01*
X10195Y8311D01*
X10238D01*
X10278Y8328D01*
X10309Y8358D01*
X10325Y8398D01*
Y8442D01*
X10309Y8482D01*
X10278Y8513D01*
X10238Y8529D01*
D02*
G37*
G36*
X15888Y8495D02*
X15844D01*
X15804Y8478D01*
X15774Y8448D01*
X15757Y8408D01*
Y8364D01*
X15774Y8324D01*
X15804Y8293D01*
X15844Y8277D01*
X15888D01*
X15928Y8293D01*
X15959Y8324D01*
X15975Y8364D01*
Y8408D01*
X15959Y8448D01*
X15928Y8478D01*
X15888Y8495D01*
D02*
G37*
G36*
X12536Y8438D02*
X12492D01*
X12452Y8421D01*
X12422Y8391D01*
X12405Y8351D01*
Y8307D01*
X12422Y8267D01*
X12452Y8236D01*
X12492Y8220D01*
X12536D01*
X12576Y8236D01*
X12606Y8267D01*
X12623Y8307D01*
Y8351D01*
X12606Y8391D01*
X12576Y8421D01*
X12536Y8438D01*
D02*
G37*
G36*
X11737Y8393D02*
X11694D01*
X11654Y8376D01*
X11623Y8346D01*
X11607Y8306D01*
Y8262D01*
X11623Y8222D01*
X11654Y8192D01*
X11694Y8175D01*
X11737D01*
X11778Y8192D01*
X11808Y8222D01*
X11825Y8262D01*
Y8306D01*
X11808Y8346D01*
X11778Y8376D01*
X11737Y8393D01*
D02*
G37*
G36*
X6011Y8384D02*
X5967D01*
X5927Y8367D01*
X5897Y8337D01*
X5880Y8296D01*
Y8253D01*
X5897Y8213D01*
X5927Y8182D01*
X5967Y8166D01*
X6011D01*
X6051Y8182D01*
X6082Y8213D01*
X6098Y8253D01*
Y8296D01*
X6082Y8337D01*
X6051Y8367D01*
X6011Y8384D01*
D02*
G37*
G36*
X5730Y8377D02*
X5687D01*
X5647Y8360D01*
X5616Y8329D01*
X5600Y8289D01*
Y8246D01*
X5616Y8206D01*
X5647Y8175D01*
X5687Y8159D01*
X5730D01*
X5770Y8175D01*
X5801Y8206D01*
X5818Y8246D01*
Y8289D01*
X5801Y8329D01*
X5770Y8360D01*
X5730Y8377D01*
D02*
G37*
G36*
X10476Y8308D02*
X10433D01*
X10393Y8291D01*
X10362Y8261D01*
X10345Y8221D01*
Y8177D01*
X10362Y8137D01*
X10393Y8106D01*
X10433Y8090D01*
X10476D01*
X10516Y8106D01*
X10547Y8137D01*
X10557Y8163D01*
X10558Y8165D01*
X10608Y8155D01*
X10608Y8154D01*
Y8147D01*
X10625Y8106D01*
X10656Y8076D01*
X10696Y8059D01*
X10739D01*
X10779Y8076D01*
X10810Y8106D01*
X10826Y8147D01*
Y8190D01*
X10810Y8230D01*
X10779Y8261D01*
X10739Y8277D01*
X10696D01*
X10656Y8261D01*
X10625Y8230D01*
X10614Y8204D01*
X10613Y8202D01*
X10563Y8212D01*
X10563Y8213D01*
Y8221D01*
X10547Y8261D01*
X10516Y8291D01*
X10476Y8308D01*
D02*
G37*
G36*
X19924Y8216D02*
X19880D01*
X19840Y8199D01*
X19810Y8169D01*
X19800Y8146D01*
X19767D01*
X19727Y8130D01*
X19696Y8099D01*
X19680Y8059D01*
Y8016D01*
X19696Y7976D01*
X19727Y7945D01*
X19767Y7928D01*
X19810D01*
X19850Y7945D01*
X19881Y7976D01*
X19890Y7998D01*
X19924D01*
X19964Y8015D01*
X19995Y8045D01*
X20011Y8085D01*
Y8129D01*
X19995Y8169D01*
X19964Y8199D01*
X19924Y8216D01*
D02*
G37*
G36*
X9979Y8267D02*
X9935D01*
X9895Y8250D01*
X9865Y8219D01*
X9848Y8179D01*
Y8165D01*
X9845Y8141D01*
X9801D01*
X9761Y8124D01*
X9730Y8093D01*
X9714Y8053D01*
Y8010D01*
X9730Y7970D01*
X9761Y7939D01*
X9801Y7922D01*
X9845D01*
X9885Y7939D01*
X9915Y7970D01*
X9932Y8010D01*
Y8024D01*
X9935Y8049D01*
X9979D01*
X10019Y8065D01*
X10049Y8096D01*
X10066Y8136D01*
Y8179D01*
X10049Y8219D01*
X10019Y8250D01*
X9979Y8267D01*
D02*
G37*
G36*
X9333Y8141D02*
X9289D01*
X9249Y8124D01*
X9219Y8093D01*
X9202Y8053D01*
Y8010D01*
X9219Y7970D01*
X9249Y7939D01*
X9289Y7922D01*
X9333D01*
X9373Y7939D01*
X9403Y7970D01*
X9420Y8010D01*
Y8053D01*
X9403Y8093D01*
X9373Y8124D01*
X9333Y8141D01*
D02*
G37*
G36*
X15300Y8065D02*
X15257D01*
X15217Y8049D01*
X15186Y8018D01*
X15169Y7978D01*
Y7935D01*
X15186Y7894D01*
X15217Y7864D01*
X15257Y7847D01*
X15300D01*
X15340Y7864D01*
X15366Y7889D01*
X15402Y7890D01*
X15422Y7888D01*
X15450Y7860D01*
X15490Y7844D01*
X15533D01*
X15574Y7860D01*
X15604Y7891D01*
X15621Y7931D01*
Y7974D01*
X15604Y8015D01*
X15574Y8045D01*
X15533Y8062D01*
X15490D01*
X15450Y8045D01*
X15424Y8020D01*
X15388Y8019D01*
X15368Y8021D01*
X15340Y8049D01*
X15300Y8065D01*
D02*
G37*
G36*
X8471Y8046D02*
X8428D01*
X8388Y8030D01*
X8357Y7999D01*
X8341Y7959D01*
Y7916D01*
X8357Y7875D01*
X8388Y7845D01*
X8428Y7828D01*
X8471D01*
X8511Y7845D01*
X8542Y7875D01*
X8559Y7916D01*
Y7959D01*
X8542Y7999D01*
X8511Y8030D01*
X8471Y8046D01*
D02*
G37*
G36*
X11242Y8159D02*
X11198D01*
X11158Y8142D01*
X11127Y8112D01*
X11111Y8072D01*
Y8028D01*
X11127Y7988D01*
X11158Y7958D01*
X11198Y7941D01*
X11232D01*
Y7910D01*
X11249Y7870D01*
X11280Y7840D01*
X11320Y7823D01*
X11363D01*
X11403Y7840D01*
X11434Y7870D01*
X11451Y7910D01*
Y7954D01*
X11434Y7994D01*
X11403Y8024D01*
X11363Y8041D01*
X11329D01*
Y8072D01*
X11312Y8112D01*
X11282Y8142D01*
X11242Y8159D01*
D02*
G37*
G36*
X10499Y8021D02*
X10455D01*
X10415Y8004D01*
X10385Y7974D01*
X10368Y7933D01*
Y7890D01*
X10385Y7850D01*
X10415Y7819D01*
X10455Y7803D01*
X10499D01*
X10539Y7819D01*
X10567Y7848D01*
X10577Y7849D01*
X10620Y7841D01*
X10632Y7812D01*
X10663Y7781D01*
X10703Y7765D01*
X10746D01*
X10786Y7781D01*
X10817Y7812D01*
X10834Y7852D01*
Y7895D01*
X10817Y7935D01*
X10786Y7966D01*
X10746Y7983D01*
X10703D01*
X10663Y7966D01*
X10634Y7938D01*
X10624Y7937D01*
X10582Y7944D01*
X10569Y7974D01*
X10539Y8004D01*
X10499Y8021D01*
D02*
G37*
G36*
X11906Y8040D02*
X11862D01*
X11822Y8023D01*
X11792Y7992D01*
X11775Y7952D01*
Y7909D01*
X11792Y7869D01*
X11822Y7838D01*
X11862Y7822D01*
X11906D01*
X11908Y7820D01*
Y7806D01*
X11925Y7766D01*
X11955Y7735D01*
X11995Y7718D01*
X12039D01*
X12079Y7735D01*
X12109Y7766D01*
X12126Y7806D01*
Y7849D01*
X12109Y7889D01*
X12079Y7920D01*
X12039Y7937D01*
X11995D01*
X11993Y7938D01*
Y7952D01*
X11977Y7992D01*
X11946Y8023D01*
X11906Y8040D01*
D02*
G37*
G36*
X8821Y7885D02*
X8778D01*
X8737Y7868D01*
X8707Y7837D01*
X8690Y7797D01*
Y7754D01*
X8707Y7714D01*
X8737Y7683D01*
X8778Y7667D01*
X8821D01*
X8861Y7683D01*
X8892Y7714D01*
X8908Y7754D01*
Y7797D01*
X8892Y7837D01*
X8861Y7868D01*
X8821Y7885D01*
D02*
G37*
G36*
X22048Y7641D02*
X21993D01*
X21942Y7620D01*
X21935Y7613D01*
X21928Y7620D01*
X21877Y7641D01*
X21822D01*
X21771Y7620D01*
X21764Y7613D01*
X21757Y7620D01*
X21706Y7641D01*
X21651D01*
X21600Y7620D01*
X21561Y7581D01*
X21540Y7530D01*
Y7475D01*
X21561Y7424D01*
X21600Y7385D01*
X21651Y7364D01*
X21706D01*
X21757Y7385D01*
X21764Y7392D01*
X21771Y7385D01*
X21822Y7364D01*
X21877D01*
X21928Y7385D01*
X21935Y7392D01*
X21942Y7385D01*
X21993Y7364D01*
X22048D01*
X22099Y7385D01*
X22138Y7424D01*
X22159Y7475D01*
Y7530D01*
X22138Y7581D01*
X22099Y7620D01*
X22048Y7641D01*
D02*
G37*
G36*
X22650Y11177D02*
X14650D01*
X14601Y11168D01*
X14560Y11140D01*
X13010Y9590D01*
X12982Y9549D01*
X12973Y9500D01*
Y7453D01*
X12047Y6527D01*
X11495D01*
X11472Y6563D01*
Y6606D01*
X11455Y6646D01*
X11424Y6677D01*
X11384Y6693D01*
X11341D01*
X11301Y6677D01*
X11270Y6646D01*
X11253Y6606D01*
Y6563D01*
X11230Y6527D01*
X10739D01*
X10681Y6586D01*
X10639Y6614D01*
X10591Y6624D01*
X10542Y6614D01*
X10500Y6586D01*
X10473Y6545D01*
X10463Y6496D01*
X10473Y6447D01*
X10500Y6406D01*
X10596Y6310D01*
X10638Y6282D01*
X10687Y6273D01*
X12100D01*
X12149Y6282D01*
X12190Y6310D01*
X13190Y7310D01*
X13218Y7351D01*
X13227Y7400D01*
Y9447D01*
X14575Y10795D01*
X14608Y10781D01*
X14621Y10770D01*
Y10724D01*
X14641Y10677D01*
X14677Y10641D01*
X14724Y10621D01*
X14776D01*
X14823Y10641D01*
X14859Y10677D01*
X14879Y10724D01*
Y10776D01*
X14859Y10823D01*
X14823Y10859D01*
X14791Y10873D01*
X14800Y10923D01*
X16250D01*
X16259Y10873D01*
X16227Y10859D01*
X16191Y10823D01*
X16171Y10776D01*
Y10724D01*
X16191Y10677D01*
X16227Y10641D01*
X16274Y10621D01*
X16326D01*
X16373Y10641D01*
X16409Y10677D01*
X16429Y10724D01*
Y10776D01*
X16409Y10823D01*
X16373Y10859D01*
X16341Y10873D01*
X16351Y10923D01*
X22597D01*
X23563Y9957D01*
Y8263D01*
X23046Y7746D01*
X23043Y7745D01*
X23029Y7731D01*
X22994Y7715D01*
X22963Y7731D01*
X22947Y7747D01*
X22900Y7767D01*
X22848D01*
X22801Y7747D01*
X22765Y7711D01*
X22745Y7663D01*
Y7612D01*
X22765Y7565D01*
X22801Y7529D01*
X22848Y7509D01*
X22900D01*
X22947Y7529D01*
X22962Y7543D01*
X22996Y7558D01*
X23027Y7543D01*
X23043Y7527D01*
X23091Y7507D01*
X23142D01*
X23189Y7527D01*
X23225Y7563D01*
X23227Y7566D01*
X23563Y7902D01*
X23600Y7882D01*
X23607Y7876D01*
Y7823D01*
X23628Y7772D01*
X23667Y7733D01*
X23718Y7712D01*
X23752D01*
Y7669D01*
X23773Y7618D01*
X23812Y7579D01*
X23863Y7558D01*
X23919D01*
X23969Y7579D01*
X24008Y7618D01*
X24030Y7669D01*
Y7724D01*
X24015Y7758D01*
X24042Y7769D01*
X24081Y7808D01*
X24102Y7859D01*
Y7914D01*
X24081Y7965D01*
X24042Y8004D01*
X23991Y8025D01*
X23936D01*
X23885Y8004D01*
X23846Y7965D01*
X23830Y7962D01*
X23824Y7968D01*
X23773Y7989D01*
X23720D01*
X23714Y7995D01*
X23693Y8033D01*
X23781Y8120D01*
X23808Y8162D01*
X23818Y8210D01*
Y10010D01*
X23808Y10058D01*
X23781Y10100D01*
X22740Y11140D01*
X22699Y11168D01*
X22650Y11177D01*
D02*
G37*
G36*
X15530Y7744D02*
X15487D01*
X15447Y7727D01*
X15416Y7696D01*
X15400Y7656D01*
Y7613D01*
X15416Y7573D01*
X15447Y7542D01*
X15487Y7526D01*
X15530D01*
X15570Y7542D01*
X15601Y7573D01*
X15618Y7613D01*
Y7656D01*
X15601Y7696D01*
X15570Y7727D01*
X15530Y7744D01*
D02*
G37*
G36*
X14579Y7725D02*
X14535D01*
X14495Y7708D01*
X14464Y7677D01*
X14448Y7637D01*
Y7594D01*
X14464Y7554D01*
X14495Y7523D01*
X14535Y7506D01*
X14579D01*
X14619Y7523D01*
X14649Y7554D01*
X14666Y7594D01*
Y7637D01*
X14649Y7677D01*
X14619Y7708D01*
X14579Y7725D01*
D02*
G37*
G36*
X11636Y7629D02*
X11592D01*
X11552Y7612D01*
X11522Y7581D01*
X11505Y7541D01*
Y7498D01*
X11522Y7458D01*
X11552Y7427D01*
X11592Y7411D01*
X11636D01*
X11676Y7427D01*
X11707Y7458D01*
X11723Y7498D01*
Y7541D01*
X11707Y7581D01*
X11676Y7612D01*
X11636Y7629D01*
D02*
G37*
G36*
X9333D02*
X9289D01*
X9249Y7612D01*
X9219Y7581D01*
X9202Y7541D01*
Y7498D01*
X9219Y7458D01*
X9249Y7427D01*
X9289Y7411D01*
X9333D01*
X9373Y7427D01*
X9403Y7458D01*
X9420Y7498D01*
Y7541D01*
X9403Y7581D01*
X9373Y7612D01*
X9333Y7629D01*
D02*
G37*
G36*
X8565D02*
X8522D01*
X8482Y7612D01*
X8451Y7581D01*
X8434Y7541D01*
Y7498D01*
X8451Y7458D01*
X8482Y7427D01*
X8522Y7411D01*
X8565D01*
X8605Y7427D01*
X8636Y7458D01*
X8652Y7498D01*
Y7541D01*
X8636Y7581D01*
X8605Y7612D01*
X8565Y7629D01*
D02*
G37*
G36*
X12274Y7625D02*
X12230D01*
X12190Y7608D01*
X12160Y7578D01*
X12143Y7538D01*
Y7494D01*
X12160Y7454D01*
X12190Y7424D01*
X12230Y7407D01*
X12274D01*
X12314Y7424D01*
X12344Y7454D01*
X12361Y7494D01*
Y7538D01*
X12344Y7578D01*
X12314Y7608D01*
X12274Y7625D01*
D02*
G37*
G36*
X3447Y7274D02*
X3403D01*
X3363Y7258D01*
X3359Y7254D01*
X3327Y7231D01*
X3294Y7254D01*
X3290Y7258D01*
X3250Y7274D01*
X3207D01*
X3167Y7258D01*
X3163Y7254D01*
X3130Y7231D01*
X3097Y7254D01*
X3093Y7258D01*
X3053Y7274D01*
X3010D01*
X2970Y7258D01*
X2966Y7254D01*
X2933Y7231D01*
X2900Y7254D01*
X2896Y7258D01*
X2856Y7274D01*
X2813D01*
X2773Y7258D01*
X2742Y7227D01*
X2726Y7187D01*
Y7144D01*
X2740Y7109D01*
X2733Y7080D01*
X2716Y7055D01*
X2709Y7053D01*
X2704Y7057D01*
X2700Y7061D01*
X2659Y7078D01*
X2616D01*
X2576Y7061D01*
X2545Y7030D01*
X2529Y6990D01*
Y6947D01*
X2545Y6907D01*
X2549Y6903D01*
X2572Y6870D01*
X2549Y6837D01*
X2545Y6833D01*
X2529Y6793D01*
Y6750D01*
X2545Y6710D01*
X2576Y6679D01*
X2616Y6663D01*
X2659D01*
X2700Y6679D01*
X2730Y6710D01*
X2747Y6750D01*
Y6793D01*
X2730Y6833D01*
X2726Y6837D01*
X2711Y6859D01*
X2723Y6871D01*
X2773Y6876D01*
X2813Y6859D01*
X2856D01*
X2896Y6876D01*
X2900Y6880D01*
X2933Y6903D01*
X2966Y6880D01*
X2970Y6876D01*
X3010Y6859D01*
X3053D01*
X3093Y6876D01*
X3097Y6880D01*
X3130Y6903D01*
X3163Y6880D01*
X3167Y6876D01*
X3207Y6859D01*
X3250D01*
X3290Y6876D01*
X3294Y6880D01*
X3327Y6903D01*
X3359Y6880D01*
X3363Y6876D01*
X3403Y6859D01*
X3447D01*
X3483Y6835D01*
Y6334D01*
X3444Y6308D01*
X3400D01*
X3360Y6291D01*
X3360Y6291D01*
X3328Y6262D01*
X3295Y6290D01*
X3255Y6307D01*
X3211D01*
X3171Y6290D01*
X3141Y6259D01*
X3124Y6219D01*
Y6176D01*
X3141Y6136D01*
X3171Y6105D01*
X3211Y6088D01*
X3255D01*
X3295Y6105D01*
X3295Y6106D01*
X3327Y6135D01*
X3360Y6106D01*
X3400Y6090D01*
X3444D01*
X3483Y6063D01*
Y5499D01*
X3437Y5480D01*
X3350Y5567D01*
X3349Y5571D01*
X3346Y5572D01*
X3345Y5575D01*
X3342Y5578D01*
X3341Y5580D01*
X3340Y5581D01*
X3340Y5581D01*
X3340Y5582D01*
X3340Y5583D01*
X3339Y5583D01*
X3339Y5583D01*
X3339Y5583D01*
X3337Y5589D01*
Y5612D01*
X3321Y5652D01*
X3290Y5683D01*
X3250Y5700D01*
X3207D01*
X3167Y5683D01*
X3136Y5652D01*
X3119Y5612D01*
Y5569D01*
X3136Y5529D01*
X3167Y5498D01*
X3207Y5481D01*
X3208D01*
X3213Y5478D01*
X3215Y5478D01*
X3216Y5478D01*
X3216Y5478D01*
X3217Y5478D01*
X3218Y5477D01*
X3219Y5476D01*
X3220Y5476D01*
X3225Y5471D01*
X3228Y5469D01*
X3234Y5466D01*
X3614Y5087D01*
Y3872D01*
X3608Y3870D01*
X3605Y3867D01*
X3603Y3865D01*
X3601Y3864D01*
X3600Y3863D01*
X3600Y3863D01*
X3599Y3863D01*
X3598Y3863D01*
X3598Y3863D01*
X3598Y3863D01*
X3590Y3859D01*
X3578D01*
X3538Y3842D01*
X3508Y3812D01*
X3491Y3772D01*
Y3728D01*
X3467Y3692D01*
X3416D01*
X3372Y3736D01*
X3370Y3742D01*
X3367Y3745D01*
X3365Y3747D01*
X3364Y3749D01*
X3363Y3750D01*
X3363Y3750D01*
X3363Y3751D01*
X3363Y3752D01*
X3363Y3752D01*
X3363Y3752D01*
X3359Y3760D01*
Y3772D01*
X3342Y3812D01*
X3312Y3842D01*
X3272Y3859D01*
X3228D01*
X3188Y3842D01*
X3158Y3812D01*
X3141Y3772D01*
Y3728D01*
X3158Y3688D01*
X3188Y3658D01*
X3228Y3641D01*
X3240D01*
X3248Y3637D01*
X3248Y3637D01*
X3248Y3637D01*
X3249Y3637D01*
X3250Y3637D01*
X3250Y3637D01*
X3251Y3636D01*
X3253Y3635D01*
X3255Y3633D01*
X3258Y3630D01*
X3264Y3628D01*
X3330Y3562D01*
X3330Y3562D01*
X3355Y3545D01*
X3384Y3539D01*
X3656D01*
X3685Y3545D01*
X3710Y3562D01*
X3844Y3697D01*
X3844Y3697D01*
X3861Y3721D01*
X3867Y3751D01*
Y5160D01*
X3861Y5189D01*
X3844Y5214D01*
X3636Y5422D01*
Y7031D01*
X3630Y7061D01*
X3613Y7085D01*
X3613Y7085D01*
X3547Y7151D01*
X3545Y7157D01*
X3542Y7161D01*
X3540Y7162D01*
X3539Y7164D01*
X3539Y7165D01*
X3538Y7166D01*
X3538Y7167D01*
X3538Y7167D01*
X3538Y7167D01*
X3538Y7168D01*
X3534Y7176D01*
Y7187D01*
X3518Y7227D01*
X3487Y7258D01*
X3447Y7274D01*
D02*
G37*
G36*
X15692Y7445D02*
X15649D01*
X15609Y7429D01*
X15578Y7398D01*
X15561Y7358D01*
Y7315D01*
X15578Y7275D01*
X15609Y7244D01*
X15649Y7227D01*
X15692D01*
X15732Y7244D01*
X15763Y7275D01*
X15779Y7315D01*
Y7358D01*
X15763Y7398D01*
X15732Y7429D01*
X15692Y7445D01*
D02*
G37*
G36*
X11983Y7381D02*
X11940D01*
X11900Y7364D01*
X11869Y7334D01*
X11853Y7294D01*
Y7250D01*
X11869Y7210D01*
X11900Y7180D01*
X11940Y7163D01*
X11983D01*
X12023Y7180D01*
X12054Y7210D01*
X12071Y7250D01*
Y7294D01*
X12054Y7334D01*
X12023Y7364D01*
X11983Y7381D01*
D02*
G37*
G36*
X24671Y7767D02*
X24620D01*
X24573Y7747D01*
X24537Y7711D01*
X24517Y7663D01*
Y7612D01*
X24537Y7565D01*
X24573Y7529D01*
X24620Y7509D01*
X24671D01*
X24719Y7529D01*
X24739Y7549D01*
X24776Y7528D01*
X24783Y7522D01*
Y7469D01*
X24804Y7419D01*
X24843Y7380D01*
X24894Y7358D01*
X24900Y7308D01*
X24897Y7301D01*
Y7245D01*
X24918Y7194D01*
X24957Y7155D01*
X25008Y7134D01*
X25063D01*
X25114Y7155D01*
X25153Y7194D01*
X25174Y7245D01*
Y7301D01*
X25153Y7351D01*
X25114Y7390D01*
X25063Y7412D01*
X25057Y7462D01*
X25060Y7469D01*
Y7525D01*
X25039Y7576D01*
X25000Y7614D01*
X24949Y7636D01*
X24894D01*
X24843Y7614D01*
X24820Y7592D01*
X24786Y7607D01*
X24774Y7617D01*
Y7663D01*
X24755Y7711D01*
X24719Y7747D01*
X24671Y7767D01*
D02*
G37*
G36*
X10488Y7246D02*
X10445D01*
X10405Y7229D01*
X10374Y7199D01*
X10358Y7159D01*
Y7115D01*
X10374Y7075D01*
X10405Y7044D01*
X10445Y7028D01*
X10488D01*
X10529Y7044D01*
X10559Y7075D01*
X10576Y7115D01*
Y7159D01*
X10559Y7199D01*
X10529Y7229D01*
X10488Y7246D01*
D02*
G37*
G36*
X11636Y7117D02*
X11592D01*
X11552Y7100D01*
X11522Y7070D01*
X11505Y7030D01*
Y6986D01*
X11522Y6946D01*
X11552Y6915D01*
X11592Y6899D01*
X11636D01*
X11676Y6915D01*
X11707Y6946D01*
X11723Y6986D01*
Y7030D01*
X11707Y7070D01*
X11676Y7100D01*
X11636Y7117D01*
D02*
G37*
G36*
X9333D02*
X9289D01*
X9249Y7100D01*
X9219Y7070D01*
X9202Y7030D01*
Y6986D01*
X9219Y6946D01*
X9249Y6915D01*
X9289Y6899D01*
X9333D01*
X9373Y6915D01*
X9403Y6946D01*
X9420Y6986D01*
Y7030D01*
X9403Y7070D01*
X9373Y7100D01*
X9333Y7117D01*
D02*
G37*
G36*
X8821D02*
X8778D01*
X8737Y7100D01*
X8707Y7070D01*
X8690Y7030D01*
Y6986D01*
X8707Y6946D01*
X8737Y6915D01*
X8778Y6899D01*
X8821D01*
X8861Y6915D01*
X8892Y6946D01*
X8908Y6986D01*
Y7030D01*
X8892Y7070D01*
X8861Y7100D01*
X8821Y7117D01*
D02*
G37*
G36*
X12305Y7117D02*
X12262D01*
X12222Y7100D01*
X12191Y7070D01*
X12174Y7030D01*
Y6986D01*
X12191Y6946D01*
X12222Y6915D01*
X12262Y6899D01*
X12305D01*
X12345Y6915D01*
X12376Y6946D01*
X12393Y6986D01*
Y7030D01*
X12376Y7070D01*
X12345Y7100D01*
X12305Y7117D01*
D02*
G37*
G36*
X22875Y7038D02*
X22823D01*
X22776Y7019D01*
X22740Y6983D01*
X22720Y6935D01*
Y6884D01*
X22740Y6837D01*
X22776Y6801D01*
X22823Y6781D01*
X22875D01*
X22922Y6801D01*
X22958Y6837D01*
X22978Y6884D01*
Y6935D01*
X22958Y6983D01*
X22922Y7019D01*
X22875Y7038D01*
D02*
G37*
G36*
X11254Y6975D02*
X11211D01*
X11171Y6959D01*
X11140Y6928D01*
X11123Y6888D01*
Y6845D01*
X11140Y6805D01*
X11171Y6774D01*
X11211Y6757D01*
X11254D01*
X11294Y6774D01*
X11325Y6805D01*
X11341Y6845D01*
Y6888D01*
X11325Y6928D01*
X11294Y6959D01*
X11254Y6975D01*
D02*
G37*
G36*
X9077Y6861D02*
X9033D01*
X8993Y6844D01*
X8963Y6814D01*
X8946Y6774D01*
Y6730D01*
X8963Y6690D01*
X8993Y6660D01*
X9033Y6643D01*
X9077D01*
X9117Y6660D01*
X9148Y6690D01*
X9164Y6730D01*
Y6774D01*
X9148Y6814D01*
X9117Y6844D01*
X9077Y6861D01*
D02*
G37*
G36*
X21424Y6667D02*
X21369D01*
X21318Y6645D01*
X21292Y6620D01*
X21268Y6644D01*
X21217Y6665D01*
X21162D01*
X21111Y6644D01*
X21084Y6616D01*
X21060Y6640D01*
X21009Y6661D01*
X20954D01*
X20903Y6640D01*
X20864Y6601D01*
X20843Y6550D01*
Y6495D01*
X20864Y6444D01*
X20890Y6418D01*
X20873Y6401D01*
X20852Y6350D01*
Y6295D01*
X20873Y6244D01*
X20912Y6205D01*
X20963Y6184D01*
X21018D01*
X21069Y6205D01*
X21097Y6233D01*
X21119Y6211D01*
X21170Y6190D01*
X21225D01*
X21276Y6211D01*
X21301Y6236D01*
X21320Y6216D01*
X21371Y6195D01*
X21426D01*
X21477Y6216D01*
X21516Y6255D01*
X21537Y6306D01*
Y6361D01*
X21516Y6412D01*
X21497Y6432D01*
X21514Y6449D01*
X21535Y6500D01*
Y6556D01*
X21514Y6607D01*
X21475Y6645D01*
X21424Y6667D01*
D02*
G37*
G36*
X24445Y7059D02*
X24390D01*
X24339Y7038D01*
X24300Y6999D01*
X24279Y6948D01*
Y6893D01*
X24300Y6842D01*
X24339Y6803D01*
X24390Y6782D01*
X24445D01*
X24496Y6803D01*
X24541Y6801D01*
X24542Y6801D01*
X24556Y6787D01*
X24557Y6781D01*
X24547Y6771D01*
X24526Y6720D01*
Y6665D01*
X24547Y6614D01*
X24586Y6575D01*
X24637Y6554D01*
X24692D01*
X24743Y6575D01*
X24782Y6614D01*
X24803Y6665D01*
Y6720D01*
X24782Y6771D01*
X24760Y6793D01*
X24762Y6802D01*
X24801Y6841D01*
X24822Y6892D01*
Y6947D01*
X24801Y6998D01*
X24762Y7037D01*
X24711Y7058D01*
X24656D01*
X24605Y7037D01*
X24582Y7014D01*
X24550Y7004D01*
X24519Y7015D01*
X24496Y7038D01*
X24445Y7059D01*
D02*
G37*
G36*
X25668Y6969D02*
X25613D01*
X25562Y6948D01*
X25523Y6909D01*
X25502Y6858D01*
Y6802D01*
X25509Y6785D01*
X25512Y6732D01*
X25473Y6693D01*
X25452Y6642D01*
Y6587D01*
X25473Y6536D01*
X25512Y6497D01*
X25563Y6476D01*
X25618D01*
X25669Y6497D01*
X25708Y6536D01*
X25725Y6526D01*
X25731Y6520D01*
X25782Y6499D01*
X25837D01*
X25888Y6520D01*
X25927Y6559D01*
X25948Y6610D01*
Y6665D01*
X25927Y6716D01*
X25888Y6755D01*
X25837Y6776D01*
X25822D01*
X25780Y6802D01*
X25779Y6822D01*
Y6858D01*
X25758Y6909D01*
X25719Y6948D01*
X25668Y6969D01*
D02*
G37*
G36*
X4622Y6689D02*
X4578D01*
X4538Y6673D01*
X4508Y6642D01*
X4491Y6602D01*
Y6559D01*
X4508Y6519D01*
X4538Y6488D01*
X4578Y6471D01*
X4622D01*
X4662Y6488D01*
X4693Y6519D01*
X4709Y6559D01*
Y6602D01*
X4693Y6642D01*
X4662Y6673D01*
X4622Y6689D01*
D02*
G37*
G36*
X9333Y6605D02*
X9289D01*
X9249Y6589D01*
X9219Y6558D01*
X9202Y6518D01*
Y6474D01*
X9219Y6434D01*
X9249Y6404D01*
X9289Y6387D01*
X9333D01*
X9373Y6404D01*
X9403Y6434D01*
X9420Y6474D01*
Y6518D01*
X9403Y6558D01*
X9373Y6589D01*
X9333Y6605D01*
D02*
G37*
G36*
X11017Y6214D02*
X10973D01*
X10933Y6198D01*
X10903Y6167D01*
X10886Y6127D01*
Y6084D01*
X10903Y6044D01*
X10933Y6013D01*
X10973Y5996D01*
X11017D01*
X11057Y6013D01*
X11087Y6044D01*
X11104Y6084D01*
Y6127D01*
X11087Y6167D01*
X11057Y6198D01*
X11017Y6214D01*
D02*
G37*
G36*
X10612Y6093D02*
X10569D01*
X10529Y6077D01*
X10498Y6046D01*
X10481Y6006D01*
Y5963D01*
X10498Y5922D01*
X10529Y5892D01*
X10569Y5875D01*
X10612D01*
X10652Y5892D01*
X10683Y5922D01*
X10700Y5963D01*
Y6006D01*
X10683Y6046D01*
X10652Y6077D01*
X10612Y6093D01*
D02*
G37*
G36*
X10100D02*
X10057D01*
X10017Y6077D01*
X9986Y6046D01*
X9970Y6006D01*
Y5963D01*
X9986Y5922D01*
X10017Y5892D01*
X10057Y5875D01*
X10100D01*
X10141Y5892D01*
X10171Y5922D01*
X10188Y5963D01*
Y6006D01*
X10171Y6046D01*
X10141Y6077D01*
X10100Y6093D01*
D02*
G37*
G36*
X24713Y6370D02*
X24657D01*
X24607Y6349D01*
X24568Y6310D01*
X24546Y6259D01*
Y6204D01*
X24568Y6153D01*
X24607Y6114D01*
Y6062D01*
X24568Y6023D01*
X24546Y5972D01*
Y5917D01*
X24568Y5866D01*
X24607Y5827D01*
X24657Y5806D01*
X24713D01*
X24764Y5827D01*
X24803Y5866D01*
X24824Y5917D01*
Y5972D01*
X24803Y6023D01*
X24764Y6062D01*
Y6114D01*
X24803Y6153D01*
X24824Y6204D01*
Y6259D01*
X24803Y6310D01*
X24764Y6349D01*
X24713Y6370D01*
D02*
G37*
G36*
X11502Y5955D02*
X11459D01*
X11419Y5938D01*
X11388Y5908D01*
X11372Y5867D01*
Y5824D01*
X11388Y5784D01*
X11419Y5753D01*
X11459Y5737D01*
X11502D01*
X11543Y5753D01*
X11573Y5784D01*
X11590Y5824D01*
Y5867D01*
X11573Y5908D01*
X11543Y5938D01*
X11502Y5955D01*
D02*
G37*
G36*
X4432Y5719D02*
X4389D01*
X4349Y5702D01*
X4318Y5671D01*
X4270Y5685D01*
X4234Y5700D01*
X4191D01*
X4151Y5683D01*
X4120Y5652D01*
X4104Y5612D01*
Y5569D01*
X4120Y5529D01*
X4151Y5498D01*
X4191Y5481D01*
X4234D01*
X4274Y5498D01*
X4305Y5529D01*
X4353Y5515D01*
X4389Y5500D01*
X4432D01*
X4472Y5517D01*
X4503Y5548D01*
X4519Y5588D01*
Y5631D01*
X4503Y5671D01*
X4472Y5702D01*
X4432Y5719D01*
D02*
G37*
G36*
X25581Y6208D02*
X25530D01*
X25482Y6189D01*
X25446Y6153D01*
X25427Y6105D01*
Y6054D01*
X25442Y6016D01*
X25439Y6015D01*
X25403Y5978D01*
X25383Y5931D01*
Y5880D01*
X25388Y5869D01*
X25360Y5857D01*
X25324Y5821D01*
X25304Y5774D01*
Y5722D01*
X25324Y5675D01*
X25360Y5639D01*
X25407Y5619D01*
X25459D01*
X25506Y5639D01*
X25542Y5675D01*
X25562Y5722D01*
Y5774D01*
X25557Y5785D01*
X25585Y5796D01*
X25621Y5833D01*
X25641Y5880D01*
Y5931D01*
X25625Y5969D01*
X25628Y5971D01*
X25665Y6007D01*
X25684Y6054D01*
Y6105D01*
X25665Y6153D01*
X25628Y6189D01*
X25581Y6208D01*
D02*
G37*
G36*
X10356Y5837D02*
X10313D01*
X10273Y5821D01*
X10242Y5790D01*
X10226Y5750D01*
Y5707D01*
X10242Y5667D01*
X10273Y5636D01*
X10313Y5619D01*
X10356D01*
X10396Y5636D01*
X10427Y5667D01*
X10444Y5707D01*
Y5750D01*
X10427Y5790D01*
X10396Y5821D01*
X10356Y5837D01*
D02*
G37*
G36*
X26848Y5641D02*
X26793D01*
X26742Y5619D01*
X26742Y5619D01*
X26742Y5619D01*
X26691Y5641D01*
X26636D01*
X26585Y5619D01*
X26546Y5580D01*
X26525Y5530D01*
Y5474D01*
X26546Y5423D01*
X26546Y5423D01*
X26546Y5423D01*
X26525Y5372D01*
Y5317D01*
X26546Y5266D01*
X26546Y5266D01*
X26546Y5265D01*
X26525Y5215D01*
Y5159D01*
X26546Y5109D01*
X26585Y5070D01*
X26636Y5048D01*
X26691D01*
X26742Y5070D01*
X26742Y5070D01*
X26742Y5070D01*
X26793Y5048D01*
X26848D01*
X26899Y5070D01*
X26938Y5109D01*
X26959Y5159D01*
Y5215D01*
X26941Y5259D01*
X26945Y5263D01*
X26966Y5314D01*
Y5369D01*
X26945Y5420D01*
X26939Y5426D01*
X26959Y5474D01*
Y5530D01*
X26938Y5580D01*
X26899Y5619D01*
X26848Y5641D01*
D02*
G37*
G36*
X10910Y5957D02*
X10867D01*
X10827Y5940D01*
X10796Y5910D01*
X10780Y5870D01*
Y5826D01*
X10796Y5786D01*
X10827Y5755D01*
X10867Y5739D01*
X10900D01*
X10913Y5691D01*
X10913Y5690D01*
X10882Y5659D01*
X10865Y5619D01*
Y5576D01*
X10882Y5536D01*
X10913Y5505D01*
X10953Y5488D01*
X10996D01*
X11036Y5505D01*
X11067Y5536D01*
X11074Y5553D01*
X11128D01*
X11134Y5539D01*
X11165Y5508D01*
X11205Y5492D01*
X11248D01*
X11288Y5508D01*
X11319Y5539D01*
X11335Y5579D01*
Y5622D01*
X11319Y5662D01*
X11288Y5693D01*
X11248Y5710D01*
X11205D01*
X11165Y5693D01*
X11134Y5662D01*
X11127Y5645D01*
X11073D01*
X11067Y5659D01*
X11036Y5690D01*
X10996Y5706D01*
X10963D01*
X10951Y5755D01*
X10951Y5756D01*
X10981Y5786D01*
X10998Y5826D01*
Y5870D01*
X10981Y5910D01*
X10950Y5940D01*
X10910Y5957D01*
D02*
G37*
G36*
X20506Y6128D02*
X20451D01*
X20400Y6107D01*
X20361Y6068D01*
X20340Y6017D01*
Y5962D01*
X20361Y5911D01*
X20381Y5891D01*
X20361Y5871D01*
X20340Y5820D01*
Y5765D01*
X20361Y5714D01*
X20381Y5694D01*
X20361Y5674D01*
X20340Y5623D01*
Y5568D01*
X20361Y5517D01*
X20400Y5478D01*
X20451Y5457D01*
X20506D01*
X20557Y5478D01*
X20596Y5517D01*
X20617Y5568D01*
Y5623D01*
X20596Y5674D01*
X20576Y5694D01*
X20596Y5714D01*
X20617Y5765D01*
Y5820D01*
X20596Y5871D01*
X20576Y5891D01*
X20596Y5911D01*
X20617Y5962D01*
Y6017D01*
X20596Y6068D01*
X20557Y6107D01*
X20506Y6128D01*
D02*
G37*
G36*
X4037Y5503D02*
X3994D01*
X3954Y5486D01*
X3923Y5455D01*
X3907Y5415D01*
Y5372D01*
X3923Y5332D01*
X3954Y5301D01*
X3994Y5285D01*
X4037D01*
X4078Y5301D01*
X4108Y5332D01*
X4125Y5372D01*
Y5415D01*
X4108Y5455D01*
X4078Y5486D01*
X4037Y5503D01*
D02*
G37*
G36*
X14206Y5374D02*
X14163D01*
X14123Y5358D01*
X14092Y5327D01*
X14075Y5287D01*
Y5244D01*
X14092Y5204D01*
X14123Y5173D01*
X14163Y5156D01*
X14206D01*
X14246Y5173D01*
X14277Y5204D01*
X14294Y5244D01*
Y5287D01*
X14277Y5327D01*
X14246Y5358D01*
X14206Y5374D01*
D02*
G37*
G36*
X2856Y5109D02*
X2813D01*
X2773Y5092D01*
X2742Y5062D01*
X2726Y5022D01*
Y4978D01*
X2742Y4938D01*
X2773Y4908D01*
X2813Y4891D01*
X2856D01*
X2896Y4908D01*
X2900Y4912D01*
X2933Y4934D01*
X2966Y4912D01*
X2970Y4908D01*
X3010Y4891D01*
X3053D01*
X3093Y4908D01*
X3097Y4912D01*
X3130Y4934D01*
X3163Y4912D01*
X3167Y4908D01*
X3207Y4891D01*
X3250D01*
X3290Y4908D01*
X3294Y4912D01*
X3327Y4934D01*
X3359Y4912D01*
X3363Y4908D01*
X3403Y4891D01*
X3447D01*
X3487Y4908D01*
X3518Y4938D01*
X3534Y4978D01*
Y5022D01*
X3518Y5062D01*
X3487Y5092D01*
X3447Y5109D01*
X3403D01*
X3363Y5092D01*
X3359Y5088D01*
X3327Y5066D01*
X3294Y5088D01*
X3290Y5092D01*
X3250Y5109D01*
X3207D01*
X3167Y5092D01*
X3163Y5088D01*
X3130Y5066D01*
X3097Y5088D01*
X3093Y5092D01*
X3053Y5109D01*
X3010D01*
X2970Y5092D01*
X2966Y5088D01*
X2933Y5066D01*
X2900Y5088D01*
X2896Y5092D01*
X2856Y5109D01*
D02*
G37*
G36*
X18053Y4912D02*
X18010D01*
X17970Y4896D01*
X17939Y4865D01*
X17922Y4825D01*
Y4781D01*
X17939Y4741D01*
X17970Y4711D01*
X18010Y4694D01*
X18053D01*
X18093Y4711D01*
X18124Y4741D01*
X18141Y4781D01*
Y4825D01*
X18124Y4865D01*
X18093Y4896D01*
X18053Y4912D01*
D02*
G37*
G36*
X3250Y4715D02*
X3207D01*
X3167Y4699D01*
X3136Y4668D01*
X3119Y4628D01*
Y4585D01*
X3136Y4545D01*
X3167Y4514D01*
X3207Y4497D01*
X3250D01*
X3290Y4514D01*
X3321Y4545D01*
X3337Y4585D01*
Y4628D01*
X3321Y4668D01*
X3290Y4699D01*
X3250Y4715D01*
D02*
G37*
G36*
X24673Y4666D02*
X24618D01*
X24567Y4645D01*
X24528Y4606D01*
X24507Y4555D01*
Y4500D01*
X24528Y4449D01*
X24567Y4410D01*
X24618Y4389D01*
X24673D01*
X24724Y4410D01*
X24763Y4449D01*
X24784Y4500D01*
Y4555D01*
X24763Y4606D01*
X24724Y4645D01*
X24673Y4666D01*
D02*
G37*
G36*
X25401Y5348D02*
X25346D01*
X25295Y5327D01*
X25256Y5288D01*
X25235Y5237D01*
Y5182D01*
X25256Y5131D01*
X25295Y5092D01*
X25297Y5091D01*
X25316Y5039D01*
X25314Y5034D01*
X25294Y4988D01*
Y4933D01*
X25316Y4882D01*
X25337Y4861D01*
X25330Y4804D01*
X25329Y4803D01*
X25312Y4796D01*
X25273Y4757D01*
X25251Y4706D01*
Y4651D01*
X25273Y4600D01*
X25312Y4561D01*
X25313Y4560D01*
X25318Y4551D01*
X25321Y4503D01*
X25295Y4477D01*
X25274Y4426D01*
Y4371D01*
X25279Y4358D01*
X25237Y4329D01*
X25236Y4330D01*
X25185Y4351D01*
X25130D01*
X25079Y4330D01*
X25040Y4291D01*
X25019Y4240D01*
Y4185D01*
X25040Y4134D01*
X25079Y4095D01*
X25130Y4074D01*
X25185D01*
X25200Y4080D01*
X25241Y4087D01*
X25260Y4055D01*
X25268Y4037D01*
X25307Y3998D01*
X25358Y3976D01*
X25413D01*
X25464Y3998D01*
X25503Y4037D01*
X25524Y4087D01*
Y4143D01*
X25503Y4194D01*
X25476Y4220D01*
X25479Y4267D01*
X25484Y4278D01*
X25491Y4281D01*
X25530Y4320D01*
X25551Y4371D01*
Y4426D01*
X25530Y4477D01*
X25491Y4516D01*
X25489Y4516D01*
X25485Y4526D01*
X25481Y4574D01*
X25507Y4600D01*
X25529Y4651D01*
Y4706D01*
X25507Y4757D01*
X25486Y4778D01*
X25493Y4835D01*
X25494Y4836D01*
X25512Y4843D01*
X25551Y4882D01*
X25572Y4933D01*
Y4988D01*
X25551Y5039D01*
X25512Y5078D01*
X25510Y5079D01*
X25491Y5131D01*
X25493Y5136D01*
X25512Y5182D01*
Y5237D01*
X25491Y5288D01*
X25452Y5327D01*
X25401Y5348D01*
D02*
G37*
G36*
X4667Y4322D02*
X4624D01*
X4587Y4306D01*
X4549Y4322D01*
X4506D01*
X4466Y4305D01*
X4435Y4274D01*
X4419Y4234D01*
Y4191D01*
X4434Y4154D01*
X4419Y4116D01*
Y4073D01*
X4435Y4033D01*
X4466Y4002D01*
X4506Y3985D01*
X4549D01*
X4587Y4001D01*
X4624Y3985D01*
X4667D01*
X4707Y4002D01*
X4738Y4033D01*
X4755Y4073D01*
Y4116D01*
X4739Y4154D01*
X4755Y4191D01*
Y4234D01*
X4738Y4274D01*
X4707Y4305D01*
X4667Y4322D01*
D02*
G37*
G36*
X18053Y4440D02*
X18010D01*
X17970Y4423D01*
X17939Y4392D01*
X17922Y4352D01*
Y4309D01*
X17939Y4269D01*
X17970Y4238D01*
Y4187D01*
X17939Y4156D01*
X17922Y4116D01*
Y4073D01*
X17939Y4033D01*
X17970Y4002D01*
X18010Y3985D01*
X18053D01*
X18093Y4002D01*
X18124Y4033D01*
X18141Y4073D01*
Y4116D01*
X18124Y4156D01*
X18093Y4187D01*
Y4238D01*
X18124Y4269D01*
X18141Y4309D01*
Y4352D01*
X18124Y4392D01*
X18093Y4423D01*
X18053Y4440D01*
D02*
G37*
G36*
X17659D02*
X17616D01*
X17576Y4423D01*
X17545Y4392D01*
X17529Y4352D01*
Y4309D01*
X17545Y4269D01*
X17576Y4238D01*
Y4187D01*
X17545Y4156D01*
X17529Y4116D01*
Y4073D01*
X17545Y4033D01*
X17576Y4002D01*
X17616Y3985D01*
X17659D01*
X17700Y4002D01*
X17730Y4033D01*
X17747Y4073D01*
Y4116D01*
X17730Y4156D01*
X17700Y4187D01*
Y4238D01*
X17730Y4269D01*
X17747Y4309D01*
Y4352D01*
X17730Y4392D01*
X17700Y4423D01*
X17659Y4440D01*
D02*
G37*
G36*
X25362Y3783D02*
X25307D01*
X25256Y3761D01*
X25241Y3746D01*
X25208Y3727D01*
X25175Y3746D01*
X25160Y3761D01*
X25109Y3783D01*
X25054D01*
X25003Y3761D01*
X24964Y3722D01*
X24943Y3671D01*
Y3616D01*
X24964Y3565D01*
X25003Y3526D01*
X25054Y3505D01*
X25109D01*
X25160Y3526D01*
X25175Y3541D01*
X25208Y3560D01*
X25241Y3541D01*
X25256Y3526D01*
X25307Y3505D01*
X25362D01*
X25413Y3526D01*
X25430Y3544D01*
X25469Y3556D01*
X25494Y3543D01*
X25517Y3520D01*
X25568Y3499D01*
X25623D01*
X25674Y3520D01*
X25713Y3559D01*
X25734Y3610D01*
Y3665D01*
X25713Y3716D01*
X25674Y3755D01*
X25623Y3776D01*
X25568D01*
X25517Y3755D01*
X25499Y3738D01*
X25460Y3725D01*
X25435Y3739D01*
X25413Y3761D01*
X25362Y3783D01*
D02*
G37*
G36*
X23765Y3941D02*
X23710D01*
X23659Y3920D01*
X23620Y3881D01*
X23599Y3830D01*
Y3775D01*
X23620Y3724D01*
X23659Y3685D01*
X23710Y3664D01*
X23765D01*
X23816Y3685D01*
X23816Y3685D01*
X23854Y3701D01*
X23893Y3662D01*
X23944Y3641D01*
X23999D01*
X24050Y3662D01*
X24089Y3701D01*
X24110Y3752D01*
Y3807D01*
X24089Y3858D01*
X24050Y3897D01*
X23999Y3918D01*
X23944D01*
X23893Y3897D01*
X23893Y3897D01*
X23855Y3881D01*
X23816Y3920D01*
X23765Y3941D01*
D02*
G37*
G36*
X25972Y3879D02*
X25917D01*
X25866Y3858D01*
X25827Y3819D01*
X25806Y3768D01*
Y3713D01*
X25827Y3662D01*
X25866Y3623D01*
X25917Y3602D01*
X25972D01*
X26023Y3623D01*
X26062Y3662D01*
X26083Y3713D01*
Y3768D01*
X26062Y3819D01*
X26023Y3858D01*
X25972Y3879D01*
D02*
G37*
G36*
X24467Y3978D02*
X24412D01*
X24361Y3957D01*
X24322Y3918D01*
X24301Y3867D01*
Y3812D01*
X24322Y3761D01*
X24361Y3722D01*
X24391Y3710D01*
Y3655D01*
X24371Y3647D01*
X24332Y3608D01*
X24311Y3557D01*
Y3502D01*
X24332Y3451D01*
X24371Y3412D01*
X24422Y3391D01*
X24477D01*
X24528Y3412D01*
X24549Y3433D01*
X24572Y3410D01*
X24623Y3389D01*
X24678D01*
X24729Y3410D01*
X24768Y3449D01*
X24789Y3500D01*
Y3556D01*
X24768Y3606D01*
X24729Y3645D01*
X24678Y3667D01*
X24623D01*
X24572Y3645D01*
X24551Y3624D01*
X24528Y3647D01*
X24499Y3660D01*
Y3714D01*
X24518Y3722D01*
X24557Y3761D01*
X24578Y3812D01*
Y3867D01*
X24557Y3918D01*
X24518Y3957D01*
X24467Y3978D01*
D02*
G37*
G36*
X23217Y3524D02*
X23161D01*
X23110Y3503D01*
X23071Y3464D01*
X23050Y3413D01*
Y3358D01*
X23071Y3307D01*
X23110Y3268D01*
X23161Y3247D01*
X23217D01*
X23267Y3268D01*
X23306Y3307D01*
X23328Y3358D01*
Y3413D01*
X23306Y3464D01*
X23267Y3503D01*
X23217Y3524D01*
D02*
G37*
G36*
X16172Y3459D02*
X16128D01*
X16088Y3442D01*
X16058Y3412D01*
X16041Y3372D01*
Y3328D01*
X16058Y3288D01*
X16088Y3258D01*
X16128Y3241D01*
X16172D01*
X16212Y3258D01*
X16242Y3288D01*
X16259Y3328D01*
Y3372D01*
X16242Y3412D01*
X16212Y3442D01*
X16172Y3459D01*
D02*
G37*
G36*
X16470Y3455D02*
X16427D01*
X16387Y3438D01*
X16356Y3408D01*
X16339Y3368D01*
Y3324D01*
X16356Y3284D01*
X16387Y3253D01*
X16427Y3237D01*
X16470D01*
X16510Y3253D01*
X16541Y3284D01*
X16557Y3324D01*
Y3368D01*
X16541Y3408D01*
X16510Y3438D01*
X16470Y3455D01*
D02*
G37*
G36*
X18526Y3298D02*
X18482D01*
X18442Y3281D01*
X18411Y3251D01*
X18395Y3211D01*
Y3167D01*
X18411Y3127D01*
X18442Y3097D01*
X18482Y3080D01*
X18526D01*
X18566Y3097D01*
X18596Y3127D01*
X18613Y3167D01*
Y3211D01*
X18596Y3251D01*
X18566Y3281D01*
X18526Y3298D01*
D02*
G37*
G36*
X25094Y2688D02*
X25039D01*
X24988Y2666D01*
X24949Y2627D01*
X24928Y2576D01*
Y2521D01*
X24949Y2470D01*
X24988Y2431D01*
X25039Y2410D01*
X25094D01*
X25145Y2431D01*
X25184Y2470D01*
X25205Y2521D01*
Y2576D01*
X25184Y2627D01*
X25145Y2666D01*
X25094Y2688D01*
D02*
G37*
G36*
X23854Y2596D02*
X23799D01*
X23748Y2575D01*
X23709Y2536D01*
X23688Y2485D01*
Y2430D01*
X23709Y2379D01*
X23748Y2340D01*
X23799Y2319D01*
X23854D01*
X23905Y2340D01*
X23944Y2379D01*
X23965Y2430D01*
Y2485D01*
X23944Y2536D01*
X23905Y2575D01*
X23854Y2596D01*
D02*
G37*
G36*
X1831Y2548D02*
X1788D01*
X1747Y2532D01*
X1717Y2501D01*
X1700Y2461D01*
Y2417D01*
X1717Y2377D01*
X1747Y2347D01*
X1788Y2330D01*
X1815D01*
X1841Y2314D01*
X1858Y2287D01*
Y2260D01*
X1874Y2220D01*
X1905Y2189D01*
X1945Y2173D01*
X1972D01*
X1999Y2156D01*
X2015Y2130D01*
Y2103D01*
X2032Y2062D01*
X2062Y2032D01*
X2103Y2015D01*
X2146D01*
X2186Y2032D01*
X2217Y2062D01*
X2233Y2103D01*
Y2146D01*
X2217Y2186D01*
X2186Y2217D01*
X2146Y2233D01*
X2119D01*
X2092Y2250D01*
X2076Y2276D01*
Y2303D01*
X2059Y2343D01*
X2029Y2374D01*
X1988Y2391D01*
X1961D01*
X1935Y2407D01*
X1918Y2434D01*
Y2461D01*
X1902Y2501D01*
X1871Y2532D01*
X1831Y2548D01*
D02*
G37*
G36*
X26643Y1995D02*
X26587D01*
X26537Y1974D01*
X26505Y1942D01*
X26473Y1974D01*
X26422Y1995D01*
X26367D01*
X26316Y1974D01*
X26277Y1935D01*
X26256Y1884D01*
Y1829D01*
X26277Y1778D01*
X26278Y1776D01*
X26278Y1706D01*
X26274Y1702D01*
X26252Y1651D01*
Y1596D01*
X26274Y1545D01*
X26312Y1507D01*
X26274Y1468D01*
X26252Y1417D01*
Y1362D01*
X26274Y1311D01*
X26313Y1272D01*
X26363Y1251D01*
X26419D01*
X26470Y1272D01*
X26502Y1304D01*
X26533Y1272D01*
X26584Y1251D01*
X26640D01*
X26690Y1272D01*
X26729Y1311D01*
X26751Y1362D01*
Y1417D01*
X26729Y1468D01*
X26691Y1507D01*
X26729Y1545D01*
X26751Y1596D01*
Y1651D01*
X26729Y1702D01*
X26728Y1703D01*
X26728Y1773D01*
X26733Y1778D01*
X26754Y1829D01*
Y1884D01*
X26733Y1935D01*
X26694Y1974D01*
X26643Y1995D01*
D02*
G37*
G36*
X1360Y2274D02*
X1317D01*
X1277Y2258D01*
X1246Y2227D01*
X1230Y2187D01*
Y2144D01*
X1246Y2104D01*
X1277Y2073D01*
X1317Y2056D01*
X1360D01*
X1365Y2058D01*
X1371Y2054D01*
X1399Y2018D01*
X1387Y1990D01*
Y1947D01*
X1404Y1907D01*
X1434Y1876D01*
X1474Y1859D01*
X1518D01*
X1558Y1876D01*
X1589Y1907D01*
X1605Y1947D01*
Y1990D01*
X1589Y2030D01*
X1558Y2061D01*
X1518Y2078D01*
X1474D01*
X1469Y2076D01*
X1464Y2080D01*
X1436Y2116D01*
X1448Y2144D01*
Y2187D01*
X1431Y2227D01*
X1400Y2258D01*
X1360Y2274D01*
D02*
G37*
G36*
X1004Y1957D02*
X960D01*
X920Y1941D01*
X890Y1910D01*
X873Y1870D01*
Y1826D01*
X890Y1786D01*
X920Y1756D01*
X960Y1739D01*
X1004D01*
X1044Y1756D01*
X1074Y1786D01*
X1091Y1826D01*
Y1870D01*
X1074Y1910D01*
X1044Y1941D01*
X1004Y1957D01*
D02*
G37*
G36*
X24143Y1760D02*
X24087D01*
X24036Y1739D01*
X23997Y1700D01*
X23976Y1649D01*
Y1594D01*
X23997Y1543D01*
X24004Y1537D01*
X24006Y1515D01*
X23968Y1468D01*
X23950Y1468D01*
X23931Y1487D01*
X23884Y1507D01*
X23833D01*
X23785Y1487D01*
X23760Y1462D01*
X23734Y1487D01*
X23687Y1507D01*
X23636D01*
X23588Y1487D01*
X23552Y1451D01*
X23533Y1404D01*
Y1352D01*
X23552Y1305D01*
X23588Y1269D01*
X23636Y1249D01*
X23687D01*
X23734Y1269D01*
X23760Y1294D01*
X23785Y1269D01*
X23833Y1249D01*
X23884D01*
X23931Y1269D01*
X23957Y1294D01*
X23981Y1303D01*
X24018Y1297D01*
X24043Y1271D01*
X24094Y1250D01*
X24149D01*
X24200Y1271D01*
X24239Y1310D01*
X24260Y1361D01*
Y1417D01*
X24239Y1467D01*
X24200Y1506D01*
X24199Y1510D01*
X24232Y1543D01*
X24254Y1594D01*
Y1649D01*
X24232Y1700D01*
X24193Y1739D01*
X24143Y1760D01*
D02*
G37*
G36*
X22035Y1635D02*
X21980D01*
X21929Y1614D01*
X21890Y1575D01*
X21869Y1524D01*
Y1468D01*
X21890Y1418D01*
X21929Y1379D01*
X21980Y1357D01*
X22035D01*
X22086Y1379D01*
X22125Y1418D01*
X22146Y1468D01*
Y1524D01*
X22125Y1575D01*
X22086Y1614D01*
X22035Y1635D01*
D02*
G37*
G36*
X23020Y1674D02*
X22965D01*
X22914Y1653D01*
X22875Y1614D01*
X22854Y1563D01*
Y1508D01*
X22875Y1457D01*
X22895Y1437D01*
X22875Y1417D01*
X22854Y1366D01*
Y1311D01*
X22875Y1260D01*
X22914Y1221D01*
X22965Y1200D01*
X23020D01*
X23071Y1221D01*
X23110Y1260D01*
X23131Y1311D01*
Y1366D01*
X23112Y1410D01*
X23119Y1424D01*
X23147Y1428D01*
X23175Y1419D01*
X23182Y1402D01*
X23221Y1363D01*
X23272Y1342D01*
X23327D01*
X23378Y1363D01*
X23417Y1402D01*
X23438Y1453D01*
Y1508D01*
X23417Y1559D01*
X23378Y1598D01*
X23327Y1619D01*
X23272D01*
X23221Y1598D01*
X23182Y1559D01*
X23181Y1555D01*
X23134Y1562D01*
X23130Y1564D01*
X23110Y1614D01*
X23071Y1653D01*
X23020Y1674D01*
D02*
G37*
G36*
X24732Y2257D02*
X24677D01*
X24626Y2236D01*
X24587Y2197D01*
X24566Y2146D01*
Y2091D01*
X24587Y2040D01*
X24601Y2026D01*
X24619Y1989D01*
X24601Y1961D01*
X24583Y1943D01*
X24562Y1893D01*
Y1837D01*
X24583Y1786D01*
X24622Y1748D01*
X24583Y1710D01*
X24562Y1659D01*
Y1604D01*
X24583Y1553D01*
X24622Y1515D01*
X24583Y1477D01*
X24562Y1426D01*
Y1371D01*
X24583Y1320D01*
X24622Y1281D01*
X24673Y1260D01*
X24728D01*
X24779Y1281D01*
X24801Y1302D01*
X24824Y1279D01*
X24875Y1258D01*
X24930D01*
X24981Y1279D01*
X25020Y1318D01*
X25041Y1369D01*
Y1424D01*
X25020Y1475D01*
X24982Y1513D01*
X25020Y1551D01*
X25041Y1602D01*
Y1657D01*
X25020Y1708D01*
X24982Y1747D01*
X25020Y1785D01*
X25041Y1836D01*
Y1891D01*
X25020Y1942D01*
X24981Y1981D01*
X24930Y2002D01*
X24875D01*
X24840Y1987D01*
X24812Y2030D01*
X24822Y2040D01*
X24843Y2091D01*
Y2146D01*
X24822Y2197D01*
X24783Y2236D01*
X24732Y2257D01*
D02*
G37*
G36*
X25281Y1999D02*
X25226D01*
X25175Y1978D01*
X25136Y1939D01*
X25115Y1888D01*
Y1833D01*
X25136Y1782D01*
X25174Y1744D01*
X25136Y1706D01*
X25115Y1655D01*
Y1600D01*
X25136Y1549D01*
X25174Y1511D01*
X25136Y1473D01*
X25115Y1422D01*
Y1367D01*
X25136Y1316D01*
X25175Y1277D01*
X25226Y1256D01*
X25281D01*
X25332Y1277D01*
X25354Y1298D01*
X25377Y1275D01*
X25428Y1254D01*
X25483D01*
X25534Y1275D01*
X25573Y1314D01*
X25594Y1365D01*
Y1420D01*
X25573Y1471D01*
X25535Y1509D01*
X25573Y1547D01*
X25594Y1598D01*
Y1653D01*
X25573Y1704D01*
X25535Y1742D01*
X25573Y1781D01*
X25594Y1832D01*
Y1887D01*
X25573Y1938D01*
X25534Y1977D01*
X25483Y1998D01*
X25428D01*
X25377Y1977D01*
X25355Y1955D01*
X25332Y1978D01*
X25281Y1999D01*
D02*
G37*
G36*
X25865Y1995D02*
X25810D01*
X25759Y1974D01*
X25720Y1935D01*
X25699Y1884D01*
Y1829D01*
X25720Y1778D01*
X25758Y1740D01*
X25720Y1702D01*
X25699Y1651D01*
Y1596D01*
X25720Y1545D01*
X25758Y1507D01*
X25720Y1468D01*
X25699Y1418D01*
Y1362D01*
X25720Y1311D01*
X25759Y1272D01*
X25810Y1251D01*
X25865D01*
X25916Y1272D01*
X25938Y1294D01*
X25961Y1271D01*
X26012Y1250D01*
X26067D01*
X26118Y1271D01*
X26157Y1310D01*
X26178Y1361D01*
Y1416D01*
X26157Y1467D01*
X26119Y1505D01*
X26157Y1543D01*
X26178Y1594D01*
Y1649D01*
X26157Y1700D01*
X26119Y1738D01*
X26157Y1776D01*
X26178Y1827D01*
Y1883D01*
X26157Y1933D01*
X26118Y1972D01*
X26067Y1994D01*
X26012D01*
X25961Y1972D01*
X25939Y1951D01*
X25916Y1974D01*
X25865Y1995D01*
D02*
G37*
G36*
X22665Y1674D02*
X22610D01*
X22559Y1653D01*
X22520Y1614D01*
X22499Y1563D01*
Y1508D01*
X22520Y1457D01*
X22539Y1438D01*
X22519Y1418D01*
X22498Y1367D01*
Y1312D01*
X22519Y1261D01*
X22558Y1222D01*
X22609Y1201D01*
X22664D01*
X22715Y1222D01*
X22754Y1261D01*
X22775Y1312D01*
Y1367D01*
X22754Y1418D01*
X22735Y1437D01*
X22755Y1457D01*
X22776Y1508D01*
Y1563D01*
X22755Y1614D01*
X22716Y1653D01*
X22665Y1674D01*
D02*
G37*
%LPD*%
G36*
X18398Y9174D02*
X18407Y9167D01*
X18411Y9164D01*
X18416Y9161D01*
X18420Y9159D01*
X18424Y9157D01*
X18428Y9155D01*
X18433Y9153D01*
X18437Y9152D01*
X18368Y9107D01*
X18368Y9112D01*
X18368Y9116D01*
X18368Y9120D01*
X18367Y9125D01*
X18366Y9129D01*
X18364Y9134D01*
X18361Y9138D01*
X18358Y9142D01*
X18354Y9147D01*
X18350Y9151D01*
X18394Y9178D01*
X18398Y9174D01*
D02*
G37*
G36*
X17697Y9089D02*
X17698Y9085D01*
X17699Y9080D01*
X17700Y9076D01*
X17702Y9071D01*
X17704Y9067D01*
X17707Y9062D01*
X17711Y9058D01*
X17714Y9054D01*
X17718Y9049D01*
X17683Y9014D01*
X17679Y9018D01*
X17674Y9022D01*
X17670Y9025D01*
X17665Y9028D01*
X17661Y9030D01*
X17657Y9032D01*
X17652Y9034D01*
X17647Y9035D01*
X17643Y9035D01*
X17638Y9035D01*
X17697Y9094D01*
X17697Y9089D01*
D02*
G37*
G36*
X17303D02*
X17304Y9085D01*
X17305Y9080D01*
X17306Y9076D01*
X17308Y9071D01*
X17311Y9067D01*
X17314Y9062D01*
X17317Y9058D01*
X17321Y9054D01*
X17325Y9049D01*
X17289Y9014D01*
X17285Y9018D01*
X17281Y9022D01*
X17276Y9025D01*
X17272Y9028D01*
X17267Y9030D01*
X17263Y9032D01*
X17258Y9034D01*
X17254Y9035D01*
X17249Y9035D01*
X17245Y9035D01*
X17303Y9094D01*
X17303Y9089D01*
D02*
G37*
G36*
X15471Y8731D02*
X15467Y8731D01*
X15452Y8730D01*
X15452Y8729D01*
X15443Y8773D01*
X15471Y8773D01*
Y8731D01*
D02*
G37*
G36*
X15584Y8671D02*
X15540Y8680D01*
X15541Y8680D01*
X15541Y8681D01*
X15541Y8682D01*
X15541Y8683D01*
X15541Y8689D01*
X15542Y8699D01*
X15584D01*
X15584Y8671D01*
D02*
G37*
G36*
X16398Y8696D02*
X16398Y8691D01*
X16399Y8687D01*
X16401Y8682D01*
X16403Y8678D01*
X16405Y8673D01*
X16408Y8669D01*
X16411Y8664D01*
X16415Y8660D01*
X16419Y8656D01*
X16384Y8620D01*
X16379Y8624D01*
X16375Y8628D01*
X16371Y8631D01*
X16366Y8634D01*
X16362Y8636D01*
X16357Y8638D01*
X16353Y8640D01*
X16348Y8641D01*
X16344Y8642D01*
X16339Y8642D01*
X16398Y8700D01*
X16398Y8696D01*
D02*
G37*
G36*
X17303Y8617D02*
X17304Y8612D01*
X17305Y8608D01*
X17306Y8603D01*
X17308Y8599D01*
X17311Y8594D01*
X17314Y8590D01*
X17317Y8586D01*
X17321Y8581D01*
X17325Y8577D01*
X17289Y8541D01*
X17285Y8546D01*
X17281Y8549D01*
X17276Y8553D01*
X17272Y8555D01*
X17267Y8558D01*
X17263Y8560D01*
X17258Y8561D01*
X17254Y8562D01*
X17249Y8563D01*
X17245Y8563D01*
X17303Y8621D01*
X17303Y8617D01*
D02*
G37*
G36*
X16870Y8499D02*
X16871Y8494D01*
X16872Y8490D01*
X16873Y8485D01*
X16875Y8481D01*
X16878Y8476D01*
X16881Y8472D01*
X16884Y8467D01*
X16887Y8463D01*
X16892Y8459D01*
X16856Y8423D01*
X16852Y8428D01*
X16847Y8431D01*
X16843Y8434D01*
X16839Y8437D01*
X16834Y8440D01*
X16830Y8442D01*
X16825Y8443D01*
X16821Y8444D01*
X16816Y8445D01*
X16812Y8445D01*
X16870Y8503D01*
X16870Y8499D01*
D02*
G37*
G36*
X16338Y8445D02*
X16333Y8445D01*
X16329Y8444D01*
X16324Y8443D01*
X16320Y8442D01*
X16315Y8440D01*
X16311Y8437D01*
X16307Y8434D01*
X16302Y8431D01*
X16298Y8428D01*
X16293Y8423D01*
X16258Y8459D01*
X16262Y8463D01*
X16266Y8467D01*
X16269Y8472D01*
X16272Y8476D01*
X16274Y8481D01*
X16276Y8485D01*
X16278Y8490D01*
X16279Y8494D01*
X16279Y8499D01*
X16280Y8503D01*
X16338Y8445D01*
D02*
G37*
G36*
X19258Y8424D02*
X19262Y8421D01*
X19266Y8419D01*
X19270Y8417D01*
X19274Y8415D01*
X19279Y8413D01*
X19284Y8412D01*
X19290Y8411D01*
X19296Y8411D01*
X19302Y8411D01*
Y8361D01*
X19296Y8361D01*
X19290Y8360D01*
X19284Y8359D01*
X19279Y8358D01*
X19274Y8357D01*
X19270Y8355D01*
X19266Y8353D01*
X19262Y8350D01*
X19258Y8348D01*
X19255Y8344D01*
Y8427D01*
X19258Y8424D01*
D02*
G37*
G36*
X18878Y8381D02*
X18879Y8376D01*
X18880Y8372D01*
X18881Y8367D01*
X18883Y8363D01*
X18886Y8358D01*
X18888Y8354D01*
X18892Y8349D01*
X18895Y8345D01*
X18899Y8341D01*
X18864Y8305D01*
X18860Y8309D01*
X18855Y8313D01*
X18851Y8316D01*
X18847Y8319D01*
X18842Y8322D01*
X18838Y8323D01*
X18833Y8325D01*
X18829Y8326D01*
X18824Y8327D01*
X18819Y8327D01*
X18878Y8385D01*
X18878Y8381D01*
D02*
G37*
G36*
X18484D02*
X18485Y8376D01*
X18486Y8372D01*
X18488Y8367D01*
X18490Y8363D01*
X18492Y8358D01*
X18495Y8354D01*
X18498Y8349D01*
X18502Y8345D01*
X18506Y8341D01*
X18470Y8305D01*
X18466Y8309D01*
X18462Y8313D01*
X18457Y8316D01*
X18453Y8319D01*
X18448Y8322D01*
X18444Y8323D01*
X18439Y8325D01*
X18435Y8326D01*
X18430Y8327D01*
X18426Y8327D01*
X18484Y8385D01*
X18484Y8381D01*
D02*
G37*
G36*
X17303Y8302D02*
X17253Y8292D01*
X17253Y8298D01*
X17252Y8304D01*
X17251Y8309D01*
X17250Y8313D01*
X17249Y8317D01*
X17246Y8320D01*
X17244Y8323D01*
X17241Y8325D01*
X17238Y8327D01*
X17235Y8328D01*
X17301Y8371D01*
X17303Y8302D01*
D02*
G37*
G36*
X16350Y8249D02*
X16350Y8249D01*
X16350Y8248D01*
X16349Y8247D01*
X16349Y8245D01*
X16349Y8244D01*
X16348Y8238D01*
X16348Y8227D01*
X16298Y8227D01*
X16299Y8263D01*
X16350Y8249D01*
D02*
G37*
G36*
X16846Y8260D02*
X16843Y8257D01*
X16840Y8254D01*
X16837Y8250D01*
X16835Y8246D01*
X16833Y8242D01*
X16831Y8237D01*
X16830Y8232D01*
X16829Y8227D01*
X16828Y8221D01*
X16828Y8215D01*
X16778Y8223D01*
X16778Y8229D01*
X16777Y8240D01*
X16776Y8245D01*
X16775Y8250D01*
X16773Y8255D01*
X16771Y8259D01*
X16769Y8263D01*
X16767Y8267D01*
X16764Y8271D01*
X16846Y8260D01*
D02*
G37*
G36*
X7604Y7612D02*
X7601Y7616D01*
X7597Y7618D01*
X7593Y7621D01*
X7589Y7623D01*
X7584Y7625D01*
X7580Y7626D01*
X7575Y7627D01*
X7569Y7628D01*
X7563Y7629D01*
X7557Y7629D01*
Y7679D01*
X7563Y7679D01*
X7569Y7679D01*
X7575Y7680D01*
X7580Y7681D01*
X7584Y7683D01*
X7589Y7685D01*
X7593Y7687D01*
X7597Y7689D01*
X7601Y7692D01*
X7604Y7695D01*
Y7612D01*
D02*
G37*
G36*
X7602Y7473D02*
X7606Y7469D01*
X7611Y7466D01*
X7615Y7463D01*
X7620Y7461D01*
X7624Y7459D01*
X7629Y7457D01*
X7633Y7456D01*
X7638Y7456D01*
X7642Y7455D01*
X7583Y7398D01*
X7583Y7402D01*
X7582Y7407D01*
X7581Y7412D01*
X7580Y7416D01*
X7578Y7421D01*
X7575Y7425D01*
X7573Y7429D01*
X7569Y7434D01*
X7566Y7438D01*
X7562Y7443D01*
X7598Y7477D01*
X7602Y7473D01*
D02*
G37*
G36*
X7393Y7334D02*
X7388Y7334D01*
X7384Y7333D01*
X7379Y7332D01*
X7375Y7331D01*
X7370Y7329D01*
X7366Y7327D01*
X7361Y7324D01*
X7357Y7320D01*
X7352Y7317D01*
X7348Y7313D01*
X7313Y7348D01*
X7317Y7352D01*
X7320Y7357D01*
X7324Y7361D01*
X7327Y7366D01*
X7329Y7370D01*
X7331Y7375D01*
X7332Y7379D01*
X7333Y7384D01*
X7334Y7388D01*
X7334Y7393D01*
X7393Y7334D01*
D02*
G37*
G36*
X15956Y7202D02*
X15952Y7203D01*
X15948Y7204D01*
X15943Y7204D01*
X15939Y7203D01*
X15935Y7202D01*
X15930Y7200D01*
X15926Y7197D01*
X15922Y7194D01*
X15917Y7191D01*
X15913Y7187D01*
X15889Y7234D01*
X15893Y7238D01*
X15901Y7247D01*
X15904Y7251D01*
X15910Y7259D01*
X15912Y7263D01*
X15914Y7267D01*
X15915Y7271D01*
X15917Y7275D01*
X15956Y7202D01*
D02*
G37*
G36*
X18491Y7207D02*
X18491Y7201D01*
X18492Y7196D01*
X18493Y7191D01*
X18495Y7186D01*
X18496Y7181D01*
X18498Y7177D01*
X18501Y7173D01*
X18504Y7170D01*
X18507Y7166D01*
X18424D01*
X18427Y7170D01*
X18430Y7173D01*
X18432Y7177D01*
X18435Y7181D01*
X18436Y7186D01*
X18438Y7191D01*
X18439Y7196D01*
X18440Y7201D01*
X18440Y7207D01*
X18440Y7213D01*
X18490D01*
X18491Y7207D01*
D02*
G37*
G36*
X7985Y7178D02*
X7980Y7173D01*
X7977Y7169D01*
X7973Y7165D01*
X7971Y7160D01*
X7968Y7156D01*
X7966Y7151D01*
X7965Y7147D01*
X7964Y7142D01*
X7963Y7138D01*
X7963Y7133D01*
X7905Y7192D01*
X7909Y7192D01*
X7914Y7193D01*
X7919Y7194D01*
X7923Y7195D01*
X7928Y7197D01*
X7932Y7200D01*
X7936Y7202D01*
X7941Y7206D01*
X7945Y7209D01*
X7950Y7213D01*
X7985Y7178D01*
D02*
G37*
G36*
X15442Y7183D02*
X15442Y7178D01*
X15442Y7174D01*
X15443Y7169D01*
X15445Y7165D01*
X15447Y7161D01*
X15449Y7156D01*
X15452Y7152D01*
X15456Y7147D01*
X15460Y7143D01*
X15416Y7117D01*
X15411Y7121D01*
X15403Y7128D01*
X15399Y7131D01*
X15394Y7134D01*
X15390Y7136D01*
X15386Y7139D01*
X15382Y7140D01*
X15377Y7142D01*
X15373Y7143D01*
X15443Y7187D01*
X15442Y7183D01*
D02*
G37*
G36*
X18504Y7079D02*
X18501Y7075D01*
X18498Y7071D01*
X18496Y7067D01*
X18495Y7062D01*
X18493Y7057D01*
X18492Y7052D01*
X18491Y7047D01*
X18491Y7041D01*
X18490Y7035D01*
X18440D01*
X18440Y7041D01*
X18440Y7047D01*
X18439Y7052D01*
X18438Y7057D01*
X18436Y7062D01*
X18435Y7067D01*
X18432Y7071D01*
X18430Y7075D01*
X18427Y7079D01*
X18424Y7082D01*
X18507D01*
X18504Y7079D01*
D02*
G37*
G36*
X7647Y6952D02*
X7643Y6954D01*
X7640Y6956D01*
X7635Y6957D01*
X7631Y6958D01*
X7621Y6960D01*
X7616Y6960D01*
X7605Y6961D01*
X7599Y6961D01*
X7579Y7011D01*
X7585Y7011D01*
X7591Y7012D01*
X7596Y7013D01*
X7601Y7014D01*
X7605Y7016D01*
X7609Y7018D01*
X7613Y7021D01*
X7615Y7024D01*
X7618Y7027D01*
X7620Y7031D01*
X7647Y6952D01*
D02*
G37*
G36*
X14889Y6900D02*
X14886Y6897D01*
X14877Y6887D01*
X14876Y6886D01*
X14876Y6885D01*
X14875Y6884D01*
X14876Y6883D01*
X14837Y6910D01*
X14837Y6911D01*
X14838Y6911D01*
X14839Y6912D01*
X14845Y6917D01*
X14858Y6930D01*
X14889Y6900D01*
D02*
G37*
G36*
X15013Y6910D02*
X14974Y6883D01*
X14974Y6884D01*
X14974Y6885D01*
X14973Y6886D01*
X14973Y6887D01*
X14971Y6889D01*
X14968Y6892D01*
X14964Y6897D01*
X14961Y6900D01*
X14991Y6930D01*
X15013Y6910D01*
D02*
G37*
G36*
X8381Y6951D02*
X8386Y6947D01*
X8390Y6944D01*
X8395Y6941D01*
X8399Y6939D01*
X8403Y6937D01*
X8408Y6936D01*
X8412Y6934D01*
X8417Y6934D01*
X8422Y6934D01*
X8363Y6875D01*
X8363Y6880D01*
X8362Y6884D01*
X8361Y6889D01*
X8360Y6893D01*
X8358Y6898D01*
X8355Y6902D01*
X8353Y6907D01*
X8349Y6911D01*
X8346Y6915D01*
X8342Y6920D01*
X8377Y6955D01*
X8381Y6951D01*
D02*
G37*
G36*
X16215Y6892D02*
X16216Y6881D01*
X16217Y6876D01*
X16219Y6871D01*
X16220Y6867D01*
X16222Y6863D01*
X16224Y6859D01*
X16227Y6856D01*
X16230Y6853D01*
X16150D01*
X16153Y6856D01*
X16155Y6859D01*
X16158Y6863D01*
X16160Y6867D01*
X16161Y6871D01*
X16163Y6876D01*
X16164Y6881D01*
X16164Y6886D01*
X16165Y6892D01*
X16165Y6898D01*
X16215D01*
X16215Y6892D01*
D02*
G37*
G36*
X15013Y6795D02*
X15012Y6794D01*
X15012Y6794D01*
X15010Y6793D01*
X15005Y6787D01*
X14991Y6775D01*
X14961Y6805D01*
X14964Y6808D01*
X14973Y6818D01*
X14973Y6819D01*
X14974Y6820D01*
X14974Y6821D01*
X14974Y6822D01*
X15013Y6795D01*
D02*
G37*
G36*
X14875Y6821D02*
X14876Y6820D01*
X14876Y6819D01*
X14877Y6818D01*
X14878Y6816D01*
X14881Y6812D01*
X14886Y6808D01*
X14889Y6805D01*
X14858Y6775D01*
X14837Y6795D01*
X14876Y6822D01*
X14875Y6821D01*
D02*
G37*
G36*
X17668Y6803D02*
X17669Y6797D01*
X17670Y6791D01*
X17671Y6786D01*
X17672Y6782D01*
X17674Y6777D01*
X17676Y6773D01*
X17679Y6769D01*
X17681Y6765D01*
X17685Y6762D01*
X17602D01*
X17605Y6765D01*
X17608Y6769D01*
X17610Y6773D01*
X17612Y6777D01*
X17614Y6782D01*
X17616Y6786D01*
X17617Y6791D01*
X17618Y6797D01*
X17618Y6803D01*
X17618Y6809D01*
X17668D01*
X17668Y6803D01*
D02*
G37*
G36*
X16228Y6764D02*
X16225Y6760D01*
X16223Y6756D01*
X16221Y6752D01*
X16219Y6747D01*
X16218Y6743D01*
X16216Y6738D01*
X16216Y6732D01*
X16215Y6726D01*
X16215Y6720D01*
X16165D01*
X16165Y6726D01*
X16164Y6732D01*
X16163Y6738D01*
X16162Y6743D01*
X16161Y6747D01*
X16159Y6752D01*
X16157Y6756D01*
X16154Y6760D01*
X16152Y6764D01*
X16149Y6767D01*
X16231D01*
X16228Y6764D01*
D02*
G37*
G36*
X18816Y6732D02*
X18812Y6729D01*
X18796Y6711D01*
X18796Y6710D01*
X18758Y6748D01*
X18759Y6748D01*
X18760Y6749D01*
X18761Y6750D01*
X18763Y6751D01*
X18770Y6758D01*
X18780Y6768D01*
X18816Y6732D01*
D02*
G37*
G36*
X18175Y6779D02*
X18175Y6774D01*
X18176Y6769D01*
X18177Y6764D01*
X18179Y6761D01*
X18181Y6758D01*
X18183Y6755D01*
X18186Y6754D01*
X18188Y6752D01*
X18192Y6752D01*
X18131Y6704D01*
X18125Y6772D01*
X18175Y6786D01*
X18175Y6779D01*
D02*
G37*
G36*
X17683Y6676D02*
X17680Y6673D01*
X17677Y6669D01*
X17675Y6666D01*
X17673Y6661D01*
X17671Y6657D01*
X17669Y6652D01*
X17668Y6647D01*
X17667Y6642D01*
X17667Y6636D01*
X17666Y6630D01*
X17616Y6632D01*
X17616Y6638D01*
X17616Y6643D01*
X17615Y6649D01*
X17614Y6654D01*
X17613Y6659D01*
X17611Y6663D01*
X17609Y6668D01*
X17606Y6672D01*
X17604Y6675D01*
X17601Y6679D01*
X17683Y6676D01*
D02*
G37*
G36*
X7348Y6703D02*
X7352Y6700D01*
X7357Y6696D01*
X7361Y6693D01*
X7366Y6691D01*
X7370Y6689D01*
X7375Y6687D01*
X7379Y6686D01*
X7384Y6685D01*
X7388Y6685D01*
X7328Y6629D01*
X7328Y6633D01*
X7327Y6638D01*
X7326Y6642D01*
X7325Y6647D01*
X7323Y6651D01*
X7321Y6656D01*
X7318Y6660D01*
X7315Y6665D01*
X7311Y6669D01*
X7307Y6673D01*
X7344Y6707D01*
X7348Y6703D01*
D02*
G37*
G36*
X7617Y6701D02*
X7622Y6698D01*
X7626Y6694D01*
X7630Y6692D01*
X7635Y6689D01*
X7639Y6687D01*
X7644Y6686D01*
X7648Y6685D01*
X7653Y6684D01*
X7657Y6684D01*
X7599Y6625D01*
X7599Y6630D01*
X7598Y6635D01*
X7597Y6639D01*
X7596Y6644D01*
X7594Y6648D01*
X7591Y6652D01*
X7589Y6657D01*
X7585Y6661D01*
X7582Y6666D01*
X7578Y6670D01*
X7613Y6705D01*
X7617Y6701D01*
D02*
G37*
G36*
X7987Y6666D02*
X7983Y6662D01*
X7979Y6658D01*
X7976Y6653D01*
X7973Y6649D01*
X7971Y6644D01*
X7969Y6640D01*
X7967Y6635D01*
X7966Y6631D01*
X7966Y6626D01*
X7966Y6622D01*
X7907Y6680D01*
X7912Y6680D01*
X7916Y6681D01*
X7921Y6682D01*
X7925Y6684D01*
X7930Y6686D01*
X7934Y6688D01*
X7939Y6691D01*
X7943Y6694D01*
X7947Y6698D01*
X7952Y6702D01*
X7987Y6666D01*
D02*
G37*
G36*
X18227Y6647D02*
X18224Y6644D01*
X18222Y6640D01*
X18220Y6636D01*
X18218Y6631D01*
X18217Y6626D01*
X18215Y6621D01*
X18215Y6616D01*
X18214Y6610D01*
X18214Y6604D01*
X18164D01*
X18164Y6610D01*
X18163Y6616D01*
X18163Y6621D01*
X18161Y6626D01*
X18160Y6631D01*
X18158Y6636D01*
X18156Y6640D01*
X18154Y6644D01*
X18151Y6647D01*
X18148Y6651D01*
X18230D01*
X18227Y6647D01*
D02*
G37*
G36*
X18781Y6650D02*
X18778Y6647D01*
X18776Y6643D01*
X18773Y6639D01*
X18771Y6635D01*
X18769Y6630D01*
X18768Y6625D01*
X18767Y6620D01*
X18766Y6615D01*
X18765Y6609D01*
X18765Y6603D01*
X18715Y6603D01*
X18715Y6609D01*
X18714Y6615D01*
X18714Y6620D01*
X18713Y6625D01*
X18711Y6630D01*
X18709Y6635D01*
X18707Y6639D01*
X18705Y6643D01*
X18702Y6647D01*
X18699Y6650D01*
X18781Y6650D01*
D02*
G37*
G36*
X17367Y6671D02*
X17367Y6665D01*
X17368Y6660D01*
X17370Y6656D01*
X17371Y6652D01*
X17374Y6648D01*
X17376Y6645D01*
X17379Y6643D01*
X17382Y6641D01*
X17386Y6639D01*
X17314Y6602D01*
X17314Y6604D01*
X17315Y6607D01*
X17316Y6617D01*
X17316Y6648D01*
X17317Y6670D01*
X17367Y6677D01*
X17367Y6671D01*
D02*
G37*
G36*
X7136Y6566D02*
X7131Y6565D01*
X7126Y6565D01*
X7122Y6564D01*
X7117Y6562D01*
X7113Y6560D01*
X7109Y6558D01*
X7104Y6555D01*
X7100Y6552D01*
X7095Y6548D01*
X7091Y6544D01*
X7056Y6580D01*
X7060Y6584D01*
X7064Y6589D01*
X7067Y6593D01*
X7070Y6597D01*
X7072Y6602D01*
X7074Y6606D01*
X7076Y6611D01*
X7077Y6615D01*
X7077Y6620D01*
X7077Y6624D01*
X7136Y6566D01*
D02*
G37*
G36*
X16828Y6564D02*
X16828Y6558D01*
X16829Y6546D01*
X16830Y6541D01*
X16832Y6531D01*
X16833Y6527D01*
X16835Y6523D01*
X16837Y6519D01*
X16839Y6515D01*
X16759Y6536D01*
X16762Y6539D01*
X16766Y6541D01*
X16769Y6545D01*
X16771Y6548D01*
X16773Y6552D01*
X16775Y6557D01*
X16776Y6562D01*
X16777Y6567D01*
X16778Y6572D01*
X16778Y6579D01*
X16828Y6564D01*
D02*
G37*
G36*
X17408Y6537D02*
X17405Y6534D01*
X17403Y6530D01*
X17401Y6525D01*
X17399Y6521D01*
X17397Y6516D01*
X17396Y6511D01*
X17395Y6506D01*
X17395Y6500D01*
X17395Y6494D01*
X17345D01*
X17345Y6500D01*
X17344Y6506D01*
X17343Y6511D01*
X17342Y6516D01*
X17341Y6521D01*
X17339Y6525D01*
X17337Y6530D01*
X17334Y6534D01*
X17331Y6537D01*
X17328Y6541D01*
X17411D01*
X17408Y6537D01*
D02*
G37*
G36*
X17952Y6519D02*
X17949Y6515D01*
X17946Y6511D01*
X17944Y6507D01*
X17942Y6503D01*
X17941Y6498D01*
X17940Y6493D01*
X17939Y6487D01*
X17939Y6482D01*
X17938Y6476D01*
X17888D01*
X17888Y6482D01*
X17888Y6487D01*
X17887Y6493D01*
X17886Y6498D01*
X17884Y6503D01*
X17882Y6507D01*
X17880Y6511D01*
X17878Y6515D01*
X17875Y6519D01*
X17872Y6522D01*
X17955D01*
X17952Y6519D01*
D02*
G37*
G36*
X16521Y6501D02*
X16521Y6495D01*
X16522Y6489D01*
X16522Y6484D01*
X16524Y6479D01*
X16525Y6474D01*
X16527Y6469D01*
X16529Y6465D01*
X16531Y6461D01*
X16534Y6457D01*
X16537Y6454D01*
X16454Y6456D01*
X16457Y6459D01*
X16460Y6463D01*
X16463Y6467D01*
X16465Y6471D01*
X16467Y6475D01*
X16468Y6480D01*
X16470Y6485D01*
X16470Y6491D01*
X16471Y6496D01*
X16471Y6502D01*
X16521Y6501D01*
D02*
G37*
G36*
X7824Y6462D02*
X7823Y6458D01*
X7821Y6454D01*
X7820Y6450D01*
X7818Y6445D01*
X7817Y6440D01*
X7816Y6429D01*
X7816Y6423D01*
X7816Y6417D01*
X7766Y6402D01*
X7766Y6408D01*
X7765Y6414D01*
X7764Y6419D01*
X7763Y6424D01*
X7761Y6429D01*
X7759Y6433D01*
X7756Y6436D01*
X7753Y6439D01*
X7750Y6442D01*
X7746Y6445D01*
X7826Y6466D01*
X7824Y6462D01*
D02*
G37*
G36*
X16839Y6455D02*
X16838Y6451D01*
X16837Y6447D01*
X16836Y6443D01*
X16834Y6433D01*
X16833Y6428D01*
X16833Y6417D01*
X16832Y6411D01*
X16782Y6391D01*
X16782Y6397D01*
X16782Y6402D01*
X16781Y6408D01*
X16779Y6412D01*
X16778Y6417D01*
X16775Y6420D01*
X16773Y6424D01*
X16770Y6427D01*
X16767Y6429D01*
X16763Y6431D01*
X16841Y6459D01*
X16839Y6455D01*
D02*
G37*
G36*
X17147Y6397D02*
X17143Y6392D01*
X17139Y6388D01*
X17136Y6384D01*
X17133Y6379D01*
X17131Y6375D01*
X17129Y6370D01*
X17128Y6366D01*
X17127Y6361D01*
X17127Y6357D01*
X17127Y6352D01*
X17065Y6407D01*
X17069Y6407D01*
X17074Y6408D01*
X17078Y6410D01*
X17083Y6411D01*
X17087Y6413D01*
X17092Y6416D01*
X17096Y6419D01*
X17100Y6422D01*
X17105Y6426D01*
X17109Y6430D01*
X17147Y6397D01*
D02*
G37*
G36*
X16496Y6354D02*
X16492Y6353D01*
X16487Y6353D01*
X16483Y6351D01*
X16478Y6350D01*
X16474Y6348D01*
X16469Y6345D01*
X16465Y6342D01*
X16460Y6339D01*
X16456Y6335D01*
X16452Y6331D01*
X16415Y6365D01*
X16419Y6370D01*
X16423Y6374D01*
X16426Y6378D01*
X16429Y6383D01*
X16431Y6387D01*
X16433Y6392D01*
X16434Y6396D01*
X16435Y6401D01*
X16436Y6405D01*
X16436Y6410D01*
X16496Y6354D01*
D02*
G37*
G36*
X19426Y6369D02*
X19426Y6363D01*
X19427Y6358D01*
X19428Y6353D01*
X19430Y6348D01*
X19432Y6344D01*
X19434Y6340D01*
X19437Y6336D01*
X19440Y6333D01*
X19443Y6330D01*
X19361Y6321D01*
X19364Y6325D01*
X19366Y6329D01*
X19368Y6333D01*
X19370Y6337D01*
X19372Y6342D01*
X19373Y6347D01*
X19374Y6352D01*
X19375Y6358D01*
X19375Y6363D01*
X19375Y6369D01*
X19425Y6375D01*
X19426Y6369D01*
D02*
G37*
G36*
X8109Y6316D02*
X8105Y6319D01*
X8102Y6322D01*
X8098Y6324D01*
X8093Y6327D01*
X8089Y6328D01*
X8084Y6330D01*
X8079Y6331D01*
X8074Y6332D01*
X8068Y6332D01*
X8062Y6332D01*
Y6382D01*
X8068Y6383D01*
X8074Y6383D01*
X8079Y6384D01*
X8084Y6385D01*
X8089Y6386D01*
X8093Y6388D01*
X8098Y6390D01*
X8102Y6393D01*
X8105Y6396D01*
X8109Y6399D01*
Y6316D01*
D02*
G37*
G36*
X7352Y6296D02*
X7349Y6298D01*
X7345Y6300D01*
X7340Y6302D01*
X7336Y6304D01*
X7331Y6305D01*
X7326Y6306D01*
X7321Y6307D01*
X7310Y6308D01*
X7304Y6308D01*
X7293Y6358D01*
X7299Y6358D01*
X7305Y6359D01*
X7310Y6360D01*
X7315Y6361D01*
X7320Y6363D01*
X7324Y6365D01*
X7328Y6367D01*
X7331Y6370D01*
X7334Y6373D01*
X7337Y6377D01*
X7352Y6296D01*
D02*
G37*
G36*
X15870Y6324D02*
X15870Y6318D01*
X15871Y6313D01*
X15872Y6308D01*
X15874Y6303D01*
X15875Y6298D01*
X15878Y6294D01*
X15880Y6290D01*
X15883Y6286D01*
X15886Y6283D01*
X15803D01*
X15806Y6286D01*
X15809Y6290D01*
X15812Y6294D01*
X15814Y6298D01*
X15816Y6303D01*
X15817Y6308D01*
X15818Y6313D01*
X15819Y6318D01*
X15819Y6324D01*
X15820Y6330D01*
X15870D01*
X15870Y6324D01*
D02*
G37*
G36*
X17112Y6308D02*
X17109Y6304D01*
X17107Y6300D01*
X17106Y6296D01*
X17104Y6291D01*
X17103Y6286D01*
X17102Y6281D01*
X17101Y6275D01*
X17101Y6270D01*
X17101Y6264D01*
X17051Y6256D01*
X17050Y6262D01*
X17050Y6268D01*
X17049Y6273D01*
X17048Y6278D01*
X17046Y6283D01*
X17044Y6287D01*
X17042Y6291D01*
X17039Y6295D01*
X17036Y6298D01*
X17032Y6301D01*
X17114Y6312D01*
X17112Y6308D01*
D02*
G37*
G36*
X19443Y6237D02*
X19440Y6234D01*
X19436Y6231D01*
X19434Y6227D01*
X19431Y6223D01*
X19429Y6219D01*
X19428Y6214D01*
X19427Y6209D01*
X19426Y6204D01*
X19425Y6198D01*
X19425Y6192D01*
X19375Y6198D01*
X19375Y6204D01*
X19374Y6215D01*
X19373Y6220D01*
X19371Y6225D01*
X19370Y6230D01*
X19368Y6234D01*
X19366Y6239D01*
X19363Y6242D01*
X19361Y6246D01*
X19443Y6237D01*
D02*
G37*
G36*
X19082Y6206D02*
X19082Y6200D01*
X19083Y6183D01*
X19084Y6178D01*
X19086Y6169D01*
X19088Y6165D01*
X19089Y6161D01*
X19091Y6157D01*
X19012Y6183D01*
X19016Y6185D01*
X19019Y6188D01*
X19022Y6191D01*
X19025Y6194D01*
X19027Y6198D01*
X19029Y6202D01*
X19030Y6207D01*
X19031Y6212D01*
X19032Y6218D01*
X19032Y6224D01*
X19082Y6206D01*
D02*
G37*
G36*
X15883Y6195D02*
X15880Y6192D01*
X15878Y6188D01*
X15875Y6184D01*
X15874Y6179D01*
X15872Y6174D01*
X15871Y6169D01*
X15870Y6164D01*
X15870Y6158D01*
X15870Y6152D01*
X15820D01*
X15819Y6158D01*
X15819Y6164D01*
X15818Y6169D01*
X15817Y6174D01*
X15816Y6179D01*
X15814Y6184D01*
X15812Y6188D01*
X15809Y6192D01*
X15806Y6195D01*
X15803Y6199D01*
X15886D01*
X15883Y6195D01*
D02*
G37*
G36*
X19060Y6075D02*
X19057Y6073D01*
X19053Y6071D01*
X19050Y6068D01*
X19048Y6065D01*
X19046Y6061D01*
X19044Y6057D01*
X19043Y6052D01*
X19042Y6047D01*
X19041Y6042D01*
X19041Y6036D01*
X18991Y6060D01*
X18991Y6066D01*
X18989Y6088D01*
X18988Y6092D01*
X18987Y6100D01*
X18985Y6104D01*
X18984Y6107D01*
X19060Y6075D01*
D02*
G37*
G36*
X7704Y6085D02*
X7702Y6081D01*
X7700Y6077D01*
X7699Y6073D01*
X7698Y6068D01*
X7697Y6063D01*
X7696Y6058D01*
X7695Y6046D01*
X7695Y6040D01*
X7645Y6028D01*
X7645Y6034D01*
X7644Y6040D01*
X7643Y6045D01*
X7642Y6050D01*
X7640Y6054D01*
X7638Y6058D01*
X7635Y6062D01*
X7633Y6065D01*
X7629Y6068D01*
X7626Y6071D01*
X7706Y6089D01*
X7704Y6085D01*
D02*
G37*
G36*
X7714Y5841D02*
X7715Y5837D01*
X7716Y5832D01*
X7718Y5828D01*
X7719Y5823D01*
X7722Y5819D01*
X7725Y5814D01*
X7728Y5810D01*
X7732Y5806D01*
X7736Y5801D01*
X7700Y5766D01*
X7696Y5770D01*
X7692Y5774D01*
X7687Y5777D01*
X7683Y5780D01*
X7678Y5782D01*
X7674Y5784D01*
X7669Y5785D01*
X7665Y5787D01*
X7660Y5787D01*
X7656Y5787D01*
X7714Y5846D01*
X7714Y5841D01*
D02*
G37*
G36*
X7558Y5683D02*
X7555Y5679D01*
X7553Y5675D01*
X7551Y5671D01*
X7549Y5666D01*
X7547Y5662D01*
X7546Y5657D01*
X7545Y5651D01*
X7545Y5645D01*
X7545Y5639D01*
X7495D01*
X7495Y5645D01*
X7494Y5651D01*
X7493Y5657D01*
X7492Y5662D01*
X7491Y5666D01*
X7489Y5671D01*
X7487Y5675D01*
X7484Y5679D01*
X7481Y5683D01*
X7478Y5686D01*
X7561D01*
X7558Y5683D01*
D02*
G37*
G36*
X7302Y5683D02*
X7299Y5679D01*
X7297Y5675D01*
X7295Y5671D01*
X7293Y5666D01*
X7291Y5662D01*
X7290Y5657D01*
X7289Y5651D01*
X7289Y5645D01*
X7289Y5639D01*
X7239D01*
X7239Y5645D01*
X7238Y5651D01*
X7237Y5657D01*
X7236Y5662D01*
X7235Y5666D01*
X7233Y5671D01*
X7231Y5675D01*
X7228Y5679D01*
X7226Y5683D01*
X7222Y5686D01*
X7305D01*
X7302Y5683D01*
D02*
G37*
G36*
X15184Y5341D02*
X15188Y5337D01*
X15193Y5334D01*
X15197Y5331D01*
X15202Y5329D01*
X15206Y5327D01*
X15211Y5325D01*
X15215Y5324D01*
X15220Y5324D01*
X15224Y5323D01*
X15166Y5265D01*
X15166Y5269D01*
X15165Y5274D01*
X15164Y5279D01*
X15163Y5283D01*
X15161Y5288D01*
X15158Y5292D01*
X15155Y5296D01*
X15152Y5301D01*
X15149Y5305D01*
X15144Y5310D01*
X15180Y5345D01*
X15184Y5341D01*
D02*
G37*
G36*
X16727Y7197D02*
Y6594D01*
X16726Y6594D01*
X16727Y6590D01*
Y6586D01*
X16724Y6580D01*
X16724Y6576D01*
X16724Y6575D01*
X16695Y6547D01*
X16679Y6507D01*
Y6463D01*
X16695Y6423D01*
X16726Y6392D01*
X16728Y6392D01*
X16728Y6389D01*
X16731Y6383D01*
Y6204D01*
X16695Y6180D01*
X16652D01*
X16612Y6163D01*
X16581Y6133D01*
X16564Y6093D01*
Y6049D01*
X16581Y6009D01*
X16612Y5978D01*
X16652Y5962D01*
X16695D01*
X16731Y5938D01*
Y5437D01*
X16737Y5407D01*
X16746Y5394D01*
X16746Y5387D01*
X16739Y5356D01*
X16729Y5336D01*
X16710Y5329D01*
X16679Y5298D01*
X16666Y5265D01*
X16638Y5259D01*
X16614Y5261D01*
X16603Y5288D01*
X16572Y5318D01*
X16532Y5335D01*
X16489D01*
X16453Y5359D01*
Y6260D01*
X16483Y6290D01*
X16489Y6292D01*
X16492Y6295D01*
X16494Y6297D01*
X16496Y6298D01*
X16497Y6299D01*
X16498Y6299D01*
X16498Y6300D01*
X16500Y6300D01*
X16508Y6304D01*
X16516D01*
X16556Y6320D01*
X16587Y6351D01*
X16604Y6391D01*
Y6434D01*
X16587Y6474D01*
X16580Y6481D01*
X16578Y6490D01*
X16576Y6491D01*
X16576Y6491D01*
X16576Y6492D01*
X16576Y6493D01*
X16575Y6495D01*
X16575Y6498D01*
X16575Y6502D01*
X16573Y6508D01*
Y6914D01*
X16645Y6987D01*
X16661Y7011D01*
X16667Y7041D01*
Y7173D01*
X16717Y7202D01*
X16727Y7197D01*
D02*
G37*
G36*
X15592Y5281D02*
X15588Y5277D01*
X15585Y5273D01*
X15581Y5268D01*
X15579Y5264D01*
X15576Y5259D01*
X15574Y5255D01*
X15573Y5250D01*
X15572Y5246D01*
X15571Y5241D01*
X15571Y5237D01*
X15512Y5295D01*
X15517Y5295D01*
X15522Y5296D01*
X15526Y5297D01*
X15531Y5299D01*
X15535Y5301D01*
X15539Y5303D01*
X15544Y5306D01*
X15548Y5309D01*
X15553Y5313D01*
X15557Y5317D01*
X15592Y5281D01*
D02*
G37*
G36*
X15263Y5219D02*
X15260Y5215D01*
X15258Y5211D01*
X15256Y5207D01*
X15254Y5202D01*
X15253Y5198D01*
X15251Y5193D01*
X15251Y5187D01*
X15250Y5181D01*
X15250Y5175D01*
X15200D01*
X15200Y5181D01*
X15199Y5187D01*
X15198Y5193D01*
X15197Y5198D01*
X15196Y5202D01*
X15194Y5207D01*
X15192Y5211D01*
X15189Y5215D01*
X15187Y5219D01*
X15184Y5222D01*
X15266D01*
X15263Y5219D01*
D02*
G37*
G36*
X15550Y5191D02*
X15547Y5187D01*
X15545Y5183D01*
X15543Y5179D01*
X15541Y5174D01*
X15539Y5170D01*
X15538Y5164D01*
X15537Y5159D01*
X15537Y5153D01*
X15537Y5147D01*
X15487D01*
X15487Y5153D01*
X15486Y5159D01*
X15485Y5164D01*
X15484Y5170D01*
X15483Y5174D01*
X15481Y5179D01*
X15479Y5183D01*
X15476Y5187D01*
X15474Y5191D01*
X15470Y5194D01*
X15553D01*
X15550Y5191D01*
D02*
G37*
G36*
X7551Y5166D02*
X7547Y5164D01*
X7544Y5161D01*
X7541Y5157D01*
X7539Y5154D01*
X7536Y5150D01*
X7535Y5145D01*
X7533Y5140D01*
X7532Y5135D01*
X7532Y5129D01*
X7532Y5123D01*
X7482Y5136D01*
X7482Y5142D01*
X7481Y5153D01*
X7480Y5158D01*
X7479Y5163D01*
X7477Y5168D01*
X7476Y5173D01*
X7474Y5177D01*
X7472Y5181D01*
X7470Y5185D01*
X7551Y5166D01*
D02*
G37*
G36*
X7748Y5171D02*
X7702Y5120D01*
X7659Y5148D01*
X7663Y5152D01*
X7667Y5157D01*
X7670Y5161D01*
X7672Y5165D01*
X7673Y5169D01*
X7674Y5172D01*
X7674Y5176D01*
X7674Y5179D01*
X7673Y5182D01*
X7671Y5185D01*
X7748Y5171D01*
D02*
G37*
G36*
X8732Y6090D02*
X8734Y6073D01*
X8707Y6046D01*
X8690Y6006D01*
Y5963D01*
X8707Y5922D01*
X8737Y5892D01*
X8778Y5875D01*
X8821D01*
X8861Y5892D01*
X8892Y5922D01*
X8893Y5926D01*
X8943Y5916D01*
Y5399D01*
X8953Y5350D01*
X8981Y5308D01*
X9129Y5160D01*
X9171Y5132D01*
X9219Y5123D01*
X10151D01*
X10373Y4901D01*
Y4450D01*
X10382Y4401D01*
X10410Y4360D01*
X10560Y4210D01*
X10601Y4182D01*
X10650Y4173D01*
X10950D01*
X10999Y4182D01*
X11040Y4210D01*
X11131Y4301D01*
X11177Y4282D01*
Y4222D01*
X11175Y4219D01*
X11176Y4215D01*
X11176Y4214D01*
X11162Y4208D01*
X11131Y4178D01*
X11115Y4138D01*
Y4094D01*
X11122Y4076D01*
X11094Y4026D01*
X10609D01*
X10201Y4435D01*
X10199Y4441D01*
X10196Y4444D01*
X10194Y4446D01*
X10193Y4447D01*
X10192Y4448D01*
X10192Y4449D01*
X10192Y4450D01*
X10192Y4451D01*
X10192Y4451D01*
X10192Y4451D01*
X10188Y4459D01*
Y4471D01*
X10171Y4511D01*
X10141Y4541D01*
X10100Y4558D01*
X10058D01*
Y4593D01*
X10042Y4633D01*
X10011Y4664D01*
X9971Y4680D01*
X9955D01*
X9932Y4683D01*
Y4726D01*
X9915Y4766D01*
X9885Y4797D01*
X9845Y4814D01*
X9801D01*
X9761Y4797D01*
X9730Y4766D01*
X9714Y4726D01*
Y4683D01*
X9685Y4680D01*
X9672D01*
X9632Y4664D01*
X9601Y4633D01*
X9584Y4593D01*
Y4558D01*
X9545D01*
X9505Y4541D01*
X9474Y4511D01*
X9458Y4471D01*
Y4427D01*
X9474Y4387D01*
X9505Y4356D01*
X9545Y4340D01*
X9589D01*
X9629Y4356D01*
X9659Y4387D01*
X9676Y4427D01*
Y4462D01*
X9715D01*
X9755Y4479D01*
X9786Y4509D01*
X9794Y4530D01*
X9848D01*
X9857Y4509D01*
X9888Y4479D01*
X9928Y4462D01*
X9970D01*
Y4427D01*
X9986Y4387D01*
X10017Y4356D01*
X10057Y4340D01*
X10068D01*
X10077Y4336D01*
X10077Y4336D01*
X10077Y4336D01*
X10077Y4336D01*
X10079Y4336D01*
X10079Y4335D01*
X10080Y4335D01*
X10082Y4334D01*
X10084Y4332D01*
X10087Y4329D01*
X10093Y4327D01*
X10287Y4133D01*
X10267Y4087D01*
X8918D01*
X8903Y4111D01*
X8894Y4137D01*
X8908Y4171D01*
Y4215D01*
X8892Y4255D01*
X8861Y4285D01*
X8841Y4294D01*
Y4348D01*
X8861Y4356D01*
X8892Y4387D01*
X8908Y4427D01*
Y4471D01*
X8892Y4511D01*
X8861Y4541D01*
X8821Y4558D01*
X8778D01*
X8737Y4541D01*
X8707Y4511D01*
X8698Y4490D01*
X8644D01*
X8636Y4511D01*
X8605Y4541D01*
X8585Y4550D01*
Y4604D01*
X8605Y4612D01*
X8636Y4643D01*
X8652Y4683D01*
Y4726D01*
X8636Y4766D01*
X8605Y4797D01*
X8565Y4814D01*
X8522D01*
X8482Y4797D01*
X8451Y4766D01*
X8442Y4746D01*
X8388D01*
X8380Y4766D01*
X8372Y4775D01*
X8369Y4783D01*
X8369Y4783D01*
X8369Y4783D01*
X8368Y4784D01*
X8368Y4785D01*
X8367Y4785D01*
X8367Y4786D01*
X8367Y4788D01*
X8367Y4791D01*
X8367Y4795D01*
X8364Y4801D01*
Y4862D01*
X8358Y4891D01*
X8341Y4916D01*
X8282Y4975D01*
X8258Y4992D01*
X8228Y4998D01*
X8142D01*
X8123Y5044D01*
X8130Y5051D01*
X8146Y5075D01*
X8152Y5105D01*
Y5132D01*
X8168Y5141D01*
X8202Y5148D01*
X8226Y5124D01*
X8266Y5107D01*
X8309D01*
X8349Y5124D01*
X8380Y5155D01*
X8396Y5195D01*
Y5238D01*
X8380Y5278D01*
X8349Y5309D01*
X8338Y5314D01*
Y5368D01*
X8355Y5375D01*
X8386Y5406D01*
X8402Y5446D01*
Y5489D01*
X8386Y5529D01*
X8355Y5560D01*
X8315Y5577D01*
X8272D01*
X8231Y5560D01*
X8202Y5531D01*
X8195Y5531D01*
X8152Y5542D01*
Y5850D01*
X8146Y5879D01*
X8130Y5904D01*
X8088Y5946D01*
X8087Y5949D01*
X8091Y5969D01*
X8136Y6003D01*
X8179D01*
X8219Y6020D01*
X8250Y6051D01*
X8267Y6091D01*
Y6106D01*
X8287Y6123D01*
X8718D01*
X8732Y6090D01*
D02*
G37*
G36*
X18450Y4886D02*
X18451Y4880D01*
X18452Y4875D01*
X18453Y4870D01*
X18454Y4865D01*
X18456Y4860D01*
X18458Y4856D01*
X18461Y4852D01*
X18463Y4849D01*
X18467Y4845D01*
X18384D01*
X18387Y4849D01*
X18390Y4852D01*
X18392Y4856D01*
X18394Y4860D01*
X18396Y4865D01*
X18398Y4870D01*
X18399Y4875D01*
X18400Y4880D01*
X18400Y4886D01*
X18400Y4892D01*
X18450D01*
X18450Y4886D01*
D02*
G37*
G36*
X17718Y4848D02*
X17714Y4844D01*
X17711Y4840D01*
X17707Y4835D01*
X17704Y4831D01*
X17702Y4826D01*
X17700Y4822D01*
X17699Y4817D01*
X17698Y4813D01*
X17697Y4808D01*
X17697Y4804D01*
X17638Y4862D01*
X17643Y4862D01*
X17647Y4863D01*
X17652Y4864D01*
X17657Y4866D01*
X17661Y4867D01*
X17665Y4870D01*
X17670Y4873D01*
X17674Y4876D01*
X17679Y4880D01*
X17683Y4884D01*
X17718Y4848D01*
D02*
G37*
G36*
X17325D02*
X17321Y4844D01*
X17317Y4840D01*
X17314Y4835D01*
X17311Y4831D01*
X17308Y4826D01*
X17306Y4822D01*
X17305Y4817D01*
X17304Y4813D01*
X17303Y4808D01*
X17303Y4804D01*
X17245Y4862D01*
X17249Y4862D01*
X17254Y4863D01*
X17258Y4864D01*
X17263Y4866D01*
X17267Y4867D01*
X17272Y4870D01*
X17276Y4873D01*
X17281Y4876D01*
X17285Y4880D01*
X17289Y4884D01*
X17325Y4848D01*
D02*
G37*
G36*
X8313Y4788D02*
X8313Y4782D01*
X8314Y4777D01*
X8315Y4771D01*
X8316Y4767D01*
X8318Y4762D01*
X8320Y4758D01*
X8323Y4754D01*
X8326Y4750D01*
X8329Y4747D01*
X8246D01*
X8249Y4750D01*
X8252Y4754D01*
X8254Y4758D01*
X8257Y4762D01*
X8258Y4767D01*
X8260Y4771D01*
X8261Y4777D01*
X8262Y4782D01*
X8262Y4788D01*
X8262Y4794D01*
X8312D01*
X8313Y4788D01*
D02*
G37*
G36*
X11827Y4611D02*
X11823Y4606D01*
X11816Y4598D01*
X11813Y4593D01*
X11810Y4589D01*
X11808Y4585D01*
X11806Y4580D01*
X11804Y4576D01*
X11803Y4571D01*
X11802Y4567D01*
X11753Y4633D01*
X11757Y4633D01*
X11762Y4633D01*
X11766Y4634D01*
X11771Y4635D01*
X11775Y4636D01*
X11780Y4638D01*
X11784Y4641D01*
X11788Y4644D01*
X11793Y4648D01*
X11797Y4652D01*
X11827Y4611D01*
D02*
G37*
G36*
X11569Y4624D02*
X11564Y4619D01*
X11561Y4615D01*
X11557Y4610D01*
X11555Y4606D01*
X11552Y4602D01*
X11550Y4597D01*
X11549Y4593D01*
X11548Y4588D01*
X11547Y4583D01*
X11547Y4579D01*
X11489Y4637D01*
X11493Y4638D01*
X11498Y4638D01*
X11502Y4639D01*
X11507Y4641D01*
X11511Y4643D01*
X11516Y4645D01*
X11520Y4648D01*
X11524Y4651D01*
X11529Y4655D01*
X11533Y4659D01*
X11569Y4624D01*
D02*
G37*
G36*
X12059Y4570D02*
X12059Y4565D01*
X12060Y4561D01*
X12062Y4556D01*
X12064Y4552D01*
X12066Y4547D01*
X12069Y4543D01*
X12072Y4539D01*
X12076Y4534D01*
X12080Y4530D01*
X12045Y4494D01*
X12040Y4499D01*
X12036Y4502D01*
X12032Y4506D01*
X12027Y4508D01*
X12023Y4511D01*
X12018Y4513D01*
X12014Y4514D01*
X12009Y4515D01*
X12005Y4516D01*
X12000Y4516D01*
X12059Y4574D01*
X12059Y4570D01*
D02*
G37*
G36*
X16298Y4486D02*
X16302Y4482D01*
X16307Y4479D01*
X16311Y4476D01*
X16315Y4474D01*
X16320Y4472D01*
X16324Y4470D01*
X16329Y4469D01*
X16333Y4469D01*
X16338Y4468D01*
X16280Y4410D01*
X16279Y4415D01*
X16279Y4419D01*
X16278Y4424D01*
X16276Y4428D01*
X16274Y4433D01*
X16272Y4437D01*
X16269Y4441D01*
X16266Y4446D01*
X16262Y4450D01*
X16258Y4455D01*
X16293Y4490D01*
X16298Y4486D01*
D02*
G37*
G36*
X10138Y4444D02*
X10139Y4439D01*
X10140Y4435D01*
X10141Y4430D01*
X10143Y4426D01*
X10145Y4421D01*
X10148Y4417D01*
X10151Y4412D01*
X10155Y4408D01*
X10159Y4404D01*
X10124Y4368D01*
X10120Y4372D01*
X10115Y4376D01*
X10111Y4379D01*
X10106Y4382D01*
X10102Y4385D01*
X10097Y4386D01*
X10093Y4388D01*
X10088Y4389D01*
X10084Y4390D01*
X10079Y4390D01*
X10138Y4448D01*
X10138Y4444D01*
D02*
G37*
G36*
X15441Y4413D02*
X15439Y4408D01*
X15437Y4403D01*
X15435Y4398D01*
X15433Y4393D01*
X15432Y4388D01*
X15431Y4383D01*
X15430Y4377D01*
X15430Y4372D01*
X15429Y4366D01*
X15387Y4355D01*
X15386Y4361D01*
X15386Y4366D01*
X15385Y4371D01*
X15383Y4376D01*
X15381Y4380D01*
X15378Y4385D01*
X15375Y4388D01*
X15372Y4392D01*
X15368Y4395D01*
X15364Y4398D01*
X15444Y4418D01*
X15441Y4413D01*
D02*
G37*
G36*
X17203Y4407D02*
X17208Y4403D01*
X17212Y4400D01*
X17216Y4397D01*
X17221Y4395D01*
X17225Y4393D01*
X17230Y4392D01*
X17234Y4391D01*
X17239Y4390D01*
X17243Y4390D01*
X17185Y4331D01*
X17185Y4336D01*
X17184Y4340D01*
X17183Y4345D01*
X17182Y4349D01*
X17180Y4354D01*
X17177Y4358D01*
X17175Y4363D01*
X17171Y4367D01*
X17168Y4372D01*
X17164Y4376D01*
X17199Y4411D01*
X17203Y4407D01*
D02*
G37*
G36*
X11447Y4399D02*
X11451Y4395D01*
X11456Y4392D01*
X11460Y4389D01*
X11465Y4387D01*
X11469Y4385D01*
X11474Y4383D01*
X11478Y4382D01*
X11483Y4382D01*
X11487Y4381D01*
X11429Y4323D01*
X11429Y4328D01*
X11428Y4332D01*
X11427Y4337D01*
X11426Y4341D01*
X11424Y4346D01*
X11421Y4350D01*
X11418Y4354D01*
X11415Y4359D01*
X11412Y4363D01*
X11407Y4368D01*
X11443Y4403D01*
X11447Y4399D01*
D02*
G37*
G36*
X15550Y4272D02*
X15545Y4272D01*
X15540Y4271D01*
X15534Y4270D01*
X15529Y4269D01*
X15524Y4267D01*
X15520Y4265D01*
X15515Y4262D01*
X15511Y4259D01*
X15506Y4256D01*
X15502Y4252D01*
X15472Y4282D01*
X15476Y4286D01*
X15479Y4291D01*
X15482Y4295D01*
X15485Y4300D01*
X15487Y4304D01*
X15489Y4309D01*
X15490Y4314D01*
X15491Y4319D01*
X15492Y4325D01*
X15492Y4330D01*
X15550Y4272D01*
D02*
G37*
G36*
X11803Y4314D02*
X11804Y4309D01*
X11805Y4305D01*
X11806Y4300D01*
X11808Y4296D01*
X11810Y4291D01*
X11813Y4287D01*
X11816Y4283D01*
X11820Y4278D01*
X11824Y4274D01*
X11789Y4239D01*
X11785Y4243D01*
X11780Y4246D01*
X11776Y4250D01*
X11771Y4252D01*
X11767Y4255D01*
X11762Y4257D01*
X11758Y4258D01*
X11753Y4259D01*
X11749Y4260D01*
X11744Y4260D01*
X11803Y4319D01*
X11803Y4314D01*
D02*
G37*
G36*
X12059Y4312D02*
X12059Y4307D01*
X12060Y4302D01*
X12061Y4298D01*
X12063Y4293D01*
X12065Y4289D01*
X12068Y4285D01*
X12071Y4280D01*
X12075Y4276D01*
X12079Y4271D01*
X12042Y4238D01*
X12038Y4242D01*
X12033Y4246D01*
X12029Y4249D01*
X12025Y4252D01*
X12020Y4254D01*
X12016Y4256D01*
X12011Y4258D01*
X12007Y4259D01*
X12002Y4260D01*
X11998Y4260D01*
X12059Y4316D01*
X12059Y4312D01*
D02*
G37*
G36*
X16770Y4289D02*
X16775Y4285D01*
X16779Y4282D01*
X16783Y4279D01*
X16788Y4277D01*
X16792Y4275D01*
X16797Y4273D01*
X16801Y4272D01*
X16806Y4272D01*
X16810Y4272D01*
X16752Y4213D01*
X16752Y4218D01*
X16751Y4222D01*
X16750Y4227D01*
X16749Y4231D01*
X16747Y4236D01*
X16744Y4240D01*
X16742Y4245D01*
X16738Y4249D01*
X16735Y4253D01*
X16730Y4258D01*
X16766Y4293D01*
X16770Y4289D01*
D02*
G37*
G36*
X11279Y4202D02*
X11280Y4134D01*
X11210Y4173D01*
X11213Y4174D01*
X11217Y4176D01*
X11219Y4178D01*
X11222Y4181D01*
X11224Y4185D01*
X11226Y4189D01*
X11227Y4193D01*
X11228Y4198D01*
X11229Y4204D01*
X11229Y4210D01*
X11279Y4202D01*
D02*
G37*
G36*
X16398Y4207D02*
X16398Y4203D01*
X16399Y4198D01*
X16401Y4194D01*
X16403Y4189D01*
X16405Y4185D01*
X16408Y4181D01*
X16411Y4176D01*
X16415Y4172D01*
X16419Y4167D01*
X16384Y4132D01*
X16379Y4136D01*
X16375Y4140D01*
X16371Y4143D01*
X16366Y4146D01*
X16362Y4148D01*
X16357Y4150D01*
X16353Y4152D01*
X16348Y4153D01*
X16344Y4153D01*
X16339Y4154D01*
X16398Y4212D01*
X16398Y4207D01*
D02*
G37*
G36*
X17273Y4146D02*
X17195Y4128D01*
X17197Y4131D01*
X17198Y4135D01*
X17199Y4138D01*
X17199Y4142D01*
X17198Y4145D01*
X17196Y4149D01*
X17194Y4153D01*
X17191Y4158D01*
X17188Y4162D01*
X17183Y4167D01*
X17225Y4195D01*
X17273Y4146D01*
D02*
G37*
G36*
X19293Y4140D02*
X19289Y4135D01*
X19285Y4131D01*
X19282Y4127D01*
X19279Y4122D01*
X19277Y4118D01*
X19275Y4113D01*
X19273Y4109D01*
X19272Y4104D01*
X19272Y4100D01*
X19272Y4095D01*
X19213Y4154D01*
X19218Y4154D01*
X19222Y4154D01*
X19227Y4155D01*
X19231Y4157D01*
X19236Y4159D01*
X19240Y4161D01*
X19245Y4164D01*
X19249Y4167D01*
X19253Y4171D01*
X19258Y4175D01*
X19293Y4140D01*
D02*
G37*
G36*
X18899D02*
X18895Y4135D01*
X18892Y4131D01*
X18888Y4127D01*
X18886Y4122D01*
X18883Y4118D01*
X18881Y4113D01*
X18880Y4109D01*
X18879Y4104D01*
X18878Y4100D01*
X18878Y4095D01*
X18819Y4154D01*
X18824Y4154D01*
X18829Y4154D01*
X18833Y4155D01*
X18838Y4157D01*
X18842Y4159D01*
X18847Y4161D01*
X18851Y4164D01*
X18855Y4167D01*
X18860Y4171D01*
X18864Y4175D01*
X18899Y4140D01*
D02*
G37*
G36*
X18506D02*
X18502Y4135D01*
X18498Y4131D01*
X18495Y4127D01*
X18492Y4122D01*
X18490Y4118D01*
X18488Y4113D01*
X18486Y4109D01*
X18485Y4104D01*
X18484Y4100D01*
X18484Y4095D01*
X18426Y4154D01*
X18430Y4154D01*
X18435Y4154D01*
X18439Y4155D01*
X18444Y4157D01*
X18448Y4159D01*
X18453Y4161D01*
X18457Y4164D01*
X18462Y4167D01*
X18466Y4171D01*
X18470Y4175D01*
X18506Y4140D01*
D02*
G37*
G36*
X11783Y4125D02*
X11786Y4122D01*
X11790Y4119D01*
X11794Y4117D01*
X11798Y4115D01*
X11803Y4113D01*
X11808Y4112D01*
X11813Y4111D01*
X11819Y4110D01*
X11825Y4110D01*
X11818Y4060D01*
X11812Y4060D01*
X11801Y4059D01*
X11796Y4058D01*
X11791Y4057D01*
X11786Y4055D01*
X11782Y4053D01*
X11778Y4051D01*
X11774Y4049D01*
X11770Y4046D01*
X11780Y4128D01*
X11783Y4125D01*
D02*
G37*
G36*
X16770Y4092D02*
X16775Y4088D01*
X16779Y4085D01*
X16783Y4082D01*
X16788Y4080D01*
X16792Y4078D01*
X16797Y4077D01*
X16801Y4076D01*
X16806Y4075D01*
X16810Y4075D01*
X16752Y4016D01*
X16752Y4021D01*
X16751Y4025D01*
X16750Y4030D01*
X16749Y4034D01*
X16747Y4039D01*
X16744Y4043D01*
X16742Y4048D01*
X16738Y4052D01*
X16735Y4057D01*
X16730Y4061D01*
X16766Y4096D01*
X16770Y4092D01*
D02*
G37*
G36*
X16298D02*
X16302Y4088D01*
X16307Y4085D01*
X16311Y4082D01*
X16315Y4080D01*
X16320Y4078D01*
X16324Y4077D01*
X16329Y4076D01*
X16333Y4075D01*
X16338Y4075D01*
X16280Y4016D01*
X16279Y4021D01*
X16279Y4025D01*
X16278Y4030D01*
X16276Y4034D01*
X16274Y4039D01*
X16272Y4043D01*
X16269Y4048D01*
X16266Y4052D01*
X16262Y4057D01*
X16258Y4061D01*
X16293Y4096D01*
X16298Y4092D01*
D02*
G37*
G36*
X11482Y4033D02*
X11477Y4032D01*
X11473Y4032D01*
X11468Y4031D01*
X11464Y4029D01*
X11459Y4027D01*
X11455Y4025D01*
X11450Y4022D01*
X11446Y4019D01*
X11441Y4015D01*
X11437Y4011D01*
X11402Y4046D01*
X11406Y4051D01*
X11409Y4055D01*
X11413Y4060D01*
X11416Y4064D01*
X11418Y4068D01*
X11420Y4073D01*
X11421Y4077D01*
X11422Y4082D01*
X11423Y4086D01*
X11423Y4091D01*
X11482Y4033D01*
D02*
G37*
G36*
X15439Y3004D02*
X15440Y2998D01*
X15440Y2993D01*
X15442Y2987D01*
X15443Y2983D01*
X15445Y2978D01*
X15447Y2974D01*
X15449Y2970D01*
X15452Y2966D01*
X15455Y2963D01*
X15373D01*
X15376Y2966D01*
X15379Y2970D01*
X15381Y2974D01*
X15383Y2978D01*
X15385Y2983D01*
X15386Y2987D01*
X15387Y2993D01*
X15388Y2998D01*
X15389Y3004D01*
X15389Y3010D01*
X15439D01*
X15439Y3004D01*
D02*
G37*
G36*
X11353Y2975D02*
X11357Y2972D01*
X11361Y2969D01*
X11365Y2966D01*
X11369Y2965D01*
X11373Y2964D01*
X11377Y2963D01*
X11381Y2964D01*
X11385Y2965D01*
X11388Y2967D01*
X11364Y2889D01*
X11363Y2891D01*
X11362Y2893D01*
X11356Y2900D01*
X11318Y2939D01*
X11348Y2979D01*
X11353Y2975D01*
D02*
G37*
G36*
X11885Y2793D02*
X11886Y2788D01*
X11887Y2782D01*
X11888Y2777D01*
X11889Y2772D01*
X11891Y2768D01*
X11893Y2763D01*
X11896Y2760D01*
X11898Y2756D01*
X11902Y2753D01*
X11819D01*
X11822Y2756D01*
X11825Y2760D01*
X11827Y2763D01*
X11829Y2768D01*
X11831Y2772D01*
X11833Y2777D01*
X11834Y2782D01*
X11835Y2788D01*
X11835Y2793D01*
X11835Y2799D01*
X11885D01*
X11885Y2793D01*
D02*
G37*
G36*
X12067Y2790D02*
X12067Y2784D01*
X12068Y2779D01*
X12069Y2774D01*
X12071Y2769D01*
X12073Y2764D01*
X12075Y2760D01*
X12077Y2756D01*
X12080Y2752D01*
X12083Y2749D01*
X12000D01*
X12004Y2752D01*
X12006Y2756D01*
X12009Y2760D01*
X12011Y2764D01*
X12013Y2769D01*
X12014Y2774D01*
X12015Y2779D01*
X12016Y2784D01*
X12017Y2790D01*
X12017Y2796D01*
X12067D01*
X12067Y2790D01*
D02*
G37*
G36*
X12955Y2472D02*
X12955Y2466D01*
X12956Y2461D01*
X12957Y2456D01*
X12958Y2451D01*
X12960Y2447D01*
X12962Y2442D01*
X12965Y2438D01*
X12968Y2435D01*
X12971Y2431D01*
X12888D01*
X12891Y2435D01*
X12894Y2438D01*
X12896Y2442D01*
X12898Y2447D01*
X12900Y2451D01*
X12902Y2456D01*
X12903Y2461D01*
X12904Y2466D01*
X12904Y2472D01*
X12904Y2478D01*
X12954D01*
X12955Y2472D01*
D02*
G37*
G36*
X12775D02*
X12776Y2466D01*
X12777Y2461D01*
X12778Y2456D01*
X12779Y2451D01*
X12781Y2447D01*
X12783Y2442D01*
X12786Y2438D01*
X12788Y2435D01*
X12791Y2431D01*
X12709D01*
X12712Y2435D01*
X12715Y2438D01*
X12717Y2442D01*
X12719Y2447D01*
X12721Y2451D01*
X12722Y2456D01*
X12724Y2461D01*
X12724Y2466D01*
X12725Y2472D01*
X12725Y2478D01*
X12775D01*
X12775Y2472D01*
D02*
G37*
G36*
X12587D02*
X12588Y2466D01*
X12588Y2461D01*
X12590Y2456D01*
X12591Y2451D01*
X12593Y2447D01*
X12595Y2442D01*
X12597Y2438D01*
X12600Y2435D01*
X12603Y2431D01*
X12521D01*
X12524Y2435D01*
X12527Y2438D01*
X12529Y2442D01*
X12531Y2447D01*
X12533Y2451D01*
X12534Y2456D01*
X12536Y2461D01*
X12536Y2466D01*
X12537Y2472D01*
X12537Y2478D01*
X12587D01*
X12587Y2472D01*
D02*
G37*
G36*
X12404D02*
X12404Y2466D01*
X12405Y2461D01*
X12406Y2456D01*
X12408Y2451D01*
X12409Y2447D01*
X12411Y2442D01*
X12414Y2438D01*
X12417Y2435D01*
X12420Y2431D01*
X12337D01*
X12340Y2435D01*
X12343Y2438D01*
X12345Y2442D01*
X12348Y2447D01*
X12349Y2451D01*
X12351Y2456D01*
X12352Y2461D01*
X12353Y2466D01*
X12353Y2472D01*
X12353Y2478D01*
X12403D01*
X12404Y2472D01*
D02*
G37*
G36*
X12219D02*
X12219Y2466D01*
X12220Y2461D01*
X12221Y2456D01*
X12223Y2451D01*
X12225Y2447D01*
X12227Y2442D01*
X12229Y2438D01*
X12232Y2435D01*
X12235Y2431D01*
X12152D01*
X12156Y2435D01*
X12158Y2438D01*
X12161Y2442D01*
X12163Y2447D01*
X12165Y2451D01*
X12166Y2456D01*
X12167Y2461D01*
X12168Y2466D01*
X12169Y2472D01*
X12169Y2478D01*
X12219D01*
X12219Y2472D01*
D02*
G37*
G36*
X13136Y2474D02*
X13136Y2468D01*
X13137Y2463D01*
X13138Y2458D01*
X13140Y2453D01*
X13142Y2448D01*
X13144Y2444D01*
X13146Y2441D01*
X13149Y2437D01*
X13153Y2434D01*
X13070Y2429D01*
X13073Y2432D01*
X13076Y2436D01*
X13078Y2440D01*
X13080Y2445D01*
X13082Y2449D01*
X13083Y2454D01*
X13084Y2459D01*
X13085Y2465D01*
X13085Y2470D01*
X13085Y2476D01*
X13135Y2480D01*
X13136Y2474D01*
D02*
G37*
G36*
X10292Y2097D02*
X10240D01*
X10240Y2098D01*
X10240Y2099D01*
X10240Y2100D01*
X10240Y2105D01*
X10241Y2126D01*
X10291D01*
X10292Y2097D01*
D02*
G37*
G36*
X10110D02*
X10058D01*
X10058Y2098D01*
X10058Y2099D01*
X10058Y2100D01*
X10059Y2105D01*
X10059Y2126D01*
X10109D01*
X10110Y2097D01*
D02*
G37*
G36*
X9911Y2127D02*
X9911Y2122D01*
X9912Y2116D01*
X9913Y2111D01*
X9915Y2106D01*
X9917Y2102D01*
X9919Y2098D01*
X9921Y2094D01*
X9924Y2090D01*
X9927Y2087D01*
X9844D01*
X9847Y2090D01*
X9850Y2094D01*
X9853Y2098D01*
X9855Y2102D01*
X9857Y2106D01*
X9858Y2111D01*
X9859Y2116D01*
X9860Y2122D01*
X9861Y2127D01*
X9861Y2133D01*
X9911D01*
X9911Y2127D01*
D02*
G37*
G36*
X9730D02*
X9730Y2122D01*
X9731Y2116D01*
X9732Y2111D01*
X9734Y2106D01*
X9736Y2102D01*
X9738Y2098D01*
X9740Y2094D01*
X9743Y2090D01*
X9746Y2087D01*
X9663D01*
X9666Y2090D01*
X9669Y2094D01*
X9672Y2098D01*
X9674Y2102D01*
X9676Y2106D01*
X9677Y2111D01*
X9678Y2116D01*
X9679Y2122D01*
X9679Y2127D01*
X9680Y2133D01*
X9730D01*
X9730Y2127D01*
D02*
G37*
G36*
X9562D02*
X9562Y2122D01*
X9563Y2116D01*
X9564Y2111D01*
X9566Y2106D01*
X9567Y2102D01*
X9570Y2098D01*
X9572Y2094D01*
X9575Y2090D01*
X9578Y2087D01*
X9495D01*
X9498Y2090D01*
X9501Y2094D01*
X9504Y2098D01*
X9506Y2102D01*
X9507Y2106D01*
X9509Y2111D01*
X9510Y2116D01*
X9511Y2122D01*
X9511Y2127D01*
X9512Y2133D01*
X9562D01*
X9562Y2127D01*
D02*
G37*
G36*
X9393D02*
X9394Y2122D01*
X9394Y2116D01*
X9396Y2111D01*
X9397Y2106D01*
X9399Y2102D01*
X9401Y2098D01*
X9403Y2094D01*
X9406Y2090D01*
X9409Y2087D01*
X9327D01*
X9330Y2090D01*
X9333Y2094D01*
X9335Y2098D01*
X9337Y2102D01*
X9339Y2106D01*
X9340Y2111D01*
X9341Y2116D01*
X9342Y2122D01*
X9343Y2127D01*
X9343Y2133D01*
X9393D01*
X9393Y2127D01*
D02*
G37*
G36*
X9221D02*
X9222Y2122D01*
X9223Y2116D01*
X9224Y2111D01*
X9225Y2106D01*
X9227Y2102D01*
X9229Y2098D01*
X9232Y2094D01*
X9235Y2090D01*
X9238Y2087D01*
X9155D01*
X9158Y2090D01*
X9161Y2094D01*
X9163Y2098D01*
X9165Y2102D01*
X9167Y2106D01*
X9169Y2111D01*
X9170Y2116D01*
X9171Y2122D01*
X9171Y2127D01*
X9171Y2133D01*
X9221D01*
X9221Y2127D01*
D02*
G37*
G36*
X9053D02*
X9054Y2122D01*
X9055Y2116D01*
X9056Y2111D01*
X9057Y2106D01*
X9059Y2102D01*
X9061Y2098D01*
X9064Y2094D01*
X9066Y2090D01*
X9070Y2087D01*
X8987D01*
X8990Y2090D01*
X8993Y2094D01*
X8995Y2098D01*
X8997Y2102D01*
X8999Y2106D01*
X9001Y2111D01*
X9002Y2116D01*
X9003Y2122D01*
X9003Y2127D01*
X9003Y2133D01*
X9053D01*
X9053Y2127D01*
D02*
G37*
G36*
X8884D02*
X8885Y2122D01*
X8885Y2116D01*
X8887Y2111D01*
X8888Y2106D01*
X8890Y2102D01*
X8892Y2098D01*
X8894Y2094D01*
X8897Y2090D01*
X8900Y2087D01*
X8818D01*
X8821Y2090D01*
X8823Y2094D01*
X8826Y2098D01*
X8828Y2102D01*
X8830Y2106D01*
X8831Y2111D01*
X8832Y2116D01*
X8833Y2122D01*
X8834Y2127D01*
X8834Y2133D01*
X8884D01*
X8884Y2127D01*
D02*
G37*
G36*
X8685Y2132D02*
X8685Y2126D01*
X8686Y2121D01*
X8688Y2116D01*
X8689Y2111D01*
X8692Y2107D01*
X8694Y2104D01*
X8697Y2100D01*
X8700Y2097D01*
X8704Y2095D01*
X8623Y2077D01*
X8625Y2080D01*
X8627Y2084D01*
X8629Y2088D01*
X8631Y2093D01*
X8632Y2098D01*
X8633Y2103D01*
X8634Y2108D01*
X8635Y2119D01*
X8635Y2125D01*
X8685Y2138D01*
X8685Y2132D01*
D02*
G37*
G36*
X8469Y2122D02*
X8485Y2109D01*
X8488Y2107D01*
X8491Y2105D01*
X8493Y2104D01*
X8496Y2103D01*
X8497Y2103D01*
X8447Y2062D01*
X8447Y2064D01*
X8447Y2066D01*
X8446Y2069D01*
X8445Y2071D01*
X8443Y2074D01*
X8441Y2078D01*
X8439Y2081D01*
X8432Y2088D01*
X8428Y2093D01*
X8464Y2127D01*
X8469Y2122D01*
D02*
G37*
G36*
X17399Y1683D02*
X17399Y1677D01*
X17400Y1672D01*
X17401Y1667D01*
X17403Y1662D01*
X17405Y1657D01*
X17407Y1653D01*
X17409Y1649D01*
X17412Y1646D01*
X17415Y1642D01*
X17332D01*
X17335Y1646D01*
X17338Y1649D01*
X17341Y1653D01*
X17343Y1657D01*
X17345Y1662D01*
X17346Y1667D01*
X17347Y1672D01*
X17348Y1677D01*
X17348Y1683D01*
X17349Y1689D01*
X17399D01*
X17399Y1683D01*
D02*
G37*
G36*
X17200D02*
X17200Y1677D01*
X17201Y1672D01*
X17202Y1667D01*
X17204Y1662D01*
X17206Y1657D01*
X17208Y1653D01*
X17210Y1649D01*
X17213Y1646D01*
X17216Y1642D01*
X17133D01*
X17136Y1646D01*
X17139Y1649D01*
X17142Y1653D01*
X17144Y1657D01*
X17146Y1662D01*
X17147Y1667D01*
X17148Y1672D01*
X17149Y1677D01*
X17150Y1683D01*
X17150Y1689D01*
X17200D01*
X17200Y1683D01*
D02*
G37*
G36*
X16802D02*
X16803Y1677D01*
X16803Y1672D01*
X16804Y1667D01*
X16806Y1662D01*
X16808Y1657D01*
X16810Y1653D01*
X16812Y1649D01*
X16815Y1646D01*
X16818Y1642D01*
X16736D01*
X16739Y1646D01*
X16741Y1649D01*
X16744Y1653D01*
X16746Y1657D01*
X16748Y1662D01*
X16749Y1667D01*
X16750Y1672D01*
X16751Y1677D01*
X16752Y1683D01*
X16752Y1689D01*
X16802D01*
X16802Y1683D01*
D02*
G37*
G36*
X16603D02*
X16604Y1677D01*
X16604Y1672D01*
X16606Y1667D01*
X16607Y1662D01*
X16609Y1657D01*
X16611Y1653D01*
X16613Y1649D01*
X16616Y1646D01*
X16619Y1642D01*
X16537D01*
X16540Y1646D01*
X16542Y1649D01*
X16545Y1653D01*
X16547Y1657D01*
X16549Y1662D01*
X16550Y1667D01*
X16551Y1672D01*
X16552Y1677D01*
X16553Y1683D01*
X16553Y1689D01*
X16603D01*
X16603Y1683D01*
D02*
G37*
G36*
X16204D02*
X16205Y1677D01*
X16206Y1672D01*
X16207Y1667D01*
X16208Y1662D01*
X16210Y1657D01*
X16212Y1653D01*
X16214Y1649D01*
X16217Y1646D01*
X16220Y1642D01*
X16138D01*
X16141Y1646D01*
X16144Y1649D01*
X16146Y1653D01*
X16148Y1657D01*
X16150Y1662D01*
X16151Y1667D01*
X16153Y1672D01*
X16153Y1677D01*
X16154Y1683D01*
X16154Y1689D01*
X16204D01*
X16204Y1683D01*
D02*
G37*
G36*
X16005D02*
X16006Y1677D01*
X16007Y1672D01*
X16008Y1667D01*
X16009Y1662D01*
X16011Y1657D01*
X16013Y1653D01*
X16016Y1649D01*
X16018Y1646D01*
X16021Y1642D01*
X15939D01*
X15942Y1646D01*
X15945Y1649D01*
X15947Y1653D01*
X15949Y1657D01*
X15951Y1662D01*
X15953Y1667D01*
X15954Y1672D01*
X15954Y1677D01*
X15955Y1683D01*
X15955Y1689D01*
X16005D01*
X16005Y1683D01*
D02*
G37*
G36*
X15616D02*
X15616Y1677D01*
X15617Y1672D01*
X15618Y1667D01*
X15620Y1662D01*
X15621Y1657D01*
X15624Y1653D01*
X15626Y1649D01*
X15629Y1646D01*
X15632Y1642D01*
X15549D01*
X15552Y1646D01*
X15555Y1649D01*
X15558Y1653D01*
X15560Y1657D01*
X15561Y1662D01*
X15563Y1667D01*
X15564Y1672D01*
X15565Y1677D01*
X15565Y1683D01*
X15566Y1689D01*
X15616D01*
X15616Y1683D01*
D02*
G37*
G36*
X15419D02*
X15419Y1677D01*
X15420Y1672D01*
X15421Y1667D01*
X15423Y1662D01*
X15425Y1657D01*
X15427Y1653D01*
X15429Y1649D01*
X15432Y1646D01*
X15435Y1642D01*
X15352D01*
X15355Y1646D01*
X15358Y1649D01*
X15361Y1653D01*
X15363Y1657D01*
X15365Y1662D01*
X15366Y1667D01*
X15367Y1672D01*
X15368Y1677D01*
X15369Y1683D01*
X15369Y1689D01*
X15419D01*
X15419Y1683D01*
D02*
G37*
G36*
X8320Y1618D02*
X8320Y1613D01*
X8321Y1607D01*
X8322Y1602D01*
X8324Y1597D01*
X8326Y1593D01*
X8328Y1589D01*
X8330Y1585D01*
X8333Y1581D01*
X8336Y1578D01*
X8253D01*
X8257Y1581D01*
X8259Y1585D01*
X8262Y1589D01*
X8264Y1593D01*
X8266Y1597D01*
X8267Y1602D01*
X8268Y1607D01*
X8269Y1613D01*
X8270Y1618D01*
X8270Y1624D01*
X8320D01*
X8320Y1618D01*
D02*
G37*
%LPC*%
G36*
X8565Y5837D02*
X8522D01*
X8482Y5821D01*
X8451Y5790D01*
X8434Y5750D01*
Y5707D01*
X8451Y5667D01*
X8482Y5636D01*
X8522Y5619D01*
X8565D01*
X8605Y5636D01*
X8636Y5667D01*
X8652Y5707D01*
Y5750D01*
X8636Y5790D01*
X8605Y5821D01*
X8565Y5837D01*
D02*
G37*
G36*
X9725Y5069D02*
X9682D01*
X9642Y5053D01*
X9611Y5022D01*
X9594Y4982D01*
Y4938D01*
X9611Y4898D01*
X9642Y4868D01*
X9682Y4851D01*
X9725D01*
X9765Y4868D01*
X9796Y4898D01*
X9812Y4938D01*
Y4982D01*
X9796Y5022D01*
X9765Y5053D01*
X9725Y5069D01*
D02*
G37*
G36*
X9215Y4937D02*
X9171D01*
X9131Y4921D01*
X9101Y4890D01*
X9084Y4850D01*
Y4807D01*
X9101Y4766D01*
X9131Y4736D01*
X9171Y4719D01*
X9215D01*
X9255Y4736D01*
X9286Y4766D01*
X9302Y4807D01*
Y4850D01*
X9286Y4890D01*
X9255Y4921D01*
X9215Y4937D01*
D02*
G37*
%LPD*%
G36*
X3484Y7160D02*
X3485Y7156D01*
X3486Y7151D01*
X3488Y7147D01*
X3489Y7142D01*
X3492Y7138D01*
X3495Y7133D01*
X3498Y7129D01*
X3502Y7125D01*
X3506Y7120D01*
X3470Y7085D01*
X3466Y7089D01*
X3462Y7093D01*
X3457Y7096D01*
X3453Y7099D01*
X3448Y7101D01*
X3444Y7103D01*
X3439Y7104D01*
X3435Y7106D01*
X3430Y7106D01*
X3426Y7106D01*
X3484Y7165D01*
X3484Y7160D01*
D02*
G37*
G36*
X3287Y5578D02*
X3287Y5574D01*
X3287Y5569D01*
X3288Y5565D01*
X3290Y5560D01*
X3292Y5556D01*
X3295Y5551D01*
X3298Y5547D01*
X3302Y5543D01*
X3306Y5538D01*
X3266Y5508D01*
X3261Y5512D01*
X3252Y5519D01*
X3248Y5522D01*
X3244Y5525D01*
X3239Y5527D01*
X3235Y5529D01*
X3231Y5530D01*
X3226Y5531D01*
X3222Y5532D01*
X3287Y5583D01*
X3287Y5578D01*
D02*
G37*
G36*
X3681Y3795D02*
X3676Y3791D01*
X3673Y3786D01*
X3670Y3782D01*
X3667Y3778D01*
X3664Y3773D01*
X3662Y3769D01*
X3661Y3764D01*
X3660Y3760D01*
X3659Y3755D01*
X3659Y3751D01*
X3601Y3809D01*
X3605Y3809D01*
X3610Y3810D01*
X3614Y3811D01*
X3619Y3812D01*
X3623Y3814D01*
X3628Y3817D01*
X3632Y3819D01*
X3636Y3823D01*
X3641Y3826D01*
X3645Y3831D01*
X3681Y3795D01*
D02*
G37*
G36*
X3309Y3745D02*
X3310Y3740D01*
X3311Y3736D01*
X3312Y3731D01*
X3314Y3727D01*
X3317Y3722D01*
X3320Y3718D01*
X3323Y3714D01*
X3326Y3709D01*
X3331Y3705D01*
X3295Y3669D01*
X3291Y3674D01*
X3286Y3677D01*
X3282Y3681D01*
X3278Y3683D01*
X3273Y3686D01*
X3269Y3688D01*
X3264Y3689D01*
X3260Y3690D01*
X3255Y3691D01*
X3251Y3691D01*
X3309Y3749D01*
X3309Y3745D01*
D02*
G37*
D13*
X17947Y5569D02*
G03*
X17977Y5599I0J30D01*
G01*
X17830Y5899D02*
G03*
X17860Y5869I30J0D01*
G01*
Y6169D02*
G03*
X17830Y6139I0J-30D01*
G01*
X17947Y5969D02*
G03*
X17977Y5999I0J30D01*
G01*
X17830Y5699D02*
G03*
X17860Y5669I30J0D01*
G01*
Y5969D02*
G03*
X17830Y5939I0J-30D01*
G01*
X17977Y6039D02*
G03*
X17947Y6069I-30J0D01*
G01*
X17977Y5839D02*
G03*
X17947Y5869I-30J0D01*
G01*
X17977Y5639D02*
G03*
X17947Y5669I-30J0D01*
G01*
Y5769D02*
G03*
X17977Y5799I0J30D01*
G01*
X17830Y6099D02*
G03*
X17860Y6069I30J0D01*
G01*
Y5569D02*
G03*
X17830Y5539I0J-30D01*
G01*
X17913Y5419D02*
G03*
X17863Y5469I-50J0D01*
G01*
Y6169D02*
G03*
X17913Y6219I0J50D01*
G01*
X17860Y5769D02*
G03*
X17830Y5739I0J-30D01*
G01*
Y5499D02*
G03*
X17860Y5469I30J0D01*
G01*
X17562Y6325D02*
G03*
X17532Y6295I0J-30D01*
G01*
X17653Y6195D02*
G03*
X17623Y6225I-30J0D01*
G01*
X17641Y5975D02*
G03*
X17591Y6025I-50J0D01*
G01*
X17532Y6255D02*
G03*
X17562Y6225I30J0D01*
G01*
X17623Y6125D02*
G03*
X17653Y6155I0J30D01*
G01*
X17562Y6125D02*
G03*
X17532Y6095I0J-30D01*
G01*
Y6055D02*
G03*
X17562Y6025I30J0D01*
G01*
X17591Y6325D02*
G03*
X17641Y6375I0J50D01*
G01*
X15619Y5991D02*
G03*
X15669Y6041I0J50D01*
G01*
X15591Y5991D02*
G03*
X15566Y5966I0J-25D01*
G01*
Y5916D02*
G03*
X15591Y5891I25J0D01*
G01*
X15745Y5866D02*
G03*
X15720Y5891I-25J0D01*
G01*
Y5791D02*
G03*
X15745Y5816I0J25D01*
G01*
X15588Y5791D02*
G03*
X15563Y5766I0J-25D01*
G01*
Y5716D02*
G03*
X15588Y5691I25J0D01*
G01*
X15669Y5641D02*
G03*
X15619Y5691I-50J0D01*
G01*
X15470Y6842D02*
G03*
X15520Y6792I50J0D01*
G01*
X15569Y6767D02*
G03*
X15544Y6792I-25J0D01*
G01*
Y6692D02*
G03*
X15569Y6717I0J25D01*
G01*
X15402Y6692D02*
G03*
X15377Y6667I0J-25D01*
G01*
Y6617D02*
G03*
X15402Y6592I25J0D01*
G01*
X15569Y6567D02*
G03*
X15544Y6592I-25J0D01*
G01*
Y6492D02*
G03*
X15569Y6517I0J25D01*
G01*
X15402Y6492D02*
G03*
X15377Y6467I0J-25D01*
G01*
Y6417D02*
G03*
X15402Y6392I25J0D01*
G01*
X15470Y6342D02*
G03*
X15420Y6392I-50J0D01*
G01*
X16323Y8125D02*
G03*
X16373Y8075I50J-0D01*
G01*
X16410Y8050D02*
G03*
X16385Y8075I-25J0D01*
G01*
Y7975D02*
G03*
X16410Y8000I0J25D01*
G01*
X16260Y7975D02*
G03*
X16235Y7950I0J-25D01*
G01*
Y7900D02*
G03*
X16260Y7875I25J0D01*
G01*
X16410Y7850D02*
G03*
X16385Y7875I-25J0D01*
G01*
Y7775D02*
G03*
X16410Y7800I0J25D01*
G01*
X16373Y7775D02*
G03*
X16323Y7725I0J-50D01*
G01*
X16376Y5122D02*
G03*
X16426Y5072I50J0D01*
G01*
X16535Y5047D02*
G03*
X16510Y5072I-25J0D01*
G01*
Y4972D02*
G03*
X16535Y4997I0J25D01*
G01*
X16426Y4972D02*
G03*
X16376Y4922I0J-50D01*
G01*
X17693Y7125D02*
G03*
X17643Y7075I0J-50D01*
G01*
X17699Y7125D02*
G03*
X17724Y7150I0J25D01*
G01*
Y7200D02*
G03*
X17699Y7225I-25J0D01*
G01*
X17549Y7250D02*
G03*
X17574Y7225I25J0D01*
G01*
Y7325D02*
G03*
X17549Y7300I0J-25D01*
G01*
X17699Y7325D02*
G03*
X17724Y7350I0J25D01*
G01*
Y7400D02*
G03*
X17699Y7425I-25J0D01*
G01*
X17549Y7450D02*
G03*
X17574Y7425I25J0D01*
G01*
Y7525D02*
G03*
X17549Y7500I0J-25D01*
G01*
X17699Y7525D02*
G03*
X17724Y7550I0J25D01*
G01*
Y7600D02*
G03*
X17699Y7625I-25J0D01*
G01*
X17549Y7650D02*
G03*
X17574Y7625I25J0D01*
G01*
Y7725D02*
G03*
X17549Y7700I0J-25D01*
G01*
X17699Y7725D02*
G03*
X17724Y7750I0J25D01*
G01*
Y7800D02*
G03*
X17699Y7825I-25J0D01*
G01*
X17643Y7875D02*
G03*
X17693Y7825I50J0D01*
G01*
X17392Y7123D02*
G03*
X17342Y7073I0J-50D01*
G01*
X17421Y7123D02*
G03*
X17451Y7153I0J30D01*
G01*
Y7193D02*
G03*
X17421Y7223I-30J0D01*
G01*
X17319Y7253D02*
G03*
X17349Y7223I30J0D01*
G01*
Y7323D02*
G03*
X17319Y7293I0J-30D01*
G01*
X17421Y7323D02*
G03*
X17451Y7353I0J30D01*
G01*
Y7393D02*
G03*
X17421Y7423I-30J0D01*
G01*
X17319Y7453D02*
G03*
X17349Y7423I30J0D01*
G01*
Y7523D02*
G03*
X17319Y7493I0J-30D01*
G01*
X17421Y7523D02*
G03*
X17451Y7553I0J30D01*
G01*
Y7593D02*
G03*
X17421Y7623I-30J0D01*
G01*
X17319Y7653D02*
G03*
X17349Y7623I30J0D01*
G01*
Y7723D02*
G03*
X17319Y7693I0J-30D01*
G01*
X17421Y7723D02*
G03*
X17451Y7753I0J30D01*
G01*
Y7793D02*
G03*
X17421Y7823I-30J0D01*
G01*
X17319Y7853D02*
G03*
X17349Y7823I30J0D01*
G01*
Y7923D02*
G03*
X17319Y7893I0J-30D01*
G01*
X17421Y7923D02*
G03*
X17451Y7953I0J30D01*
G01*
Y7993D02*
G03*
X17421Y8023I-30J0D01*
G01*
X17342Y8073D02*
G03*
X17392Y8023I50J0D01*
G01*
X18966Y5359D02*
G03*
X19016Y5409I0J50D01*
G01*
X18961Y5359D02*
G03*
X18926Y5324I0J-35D01*
G01*
Y5294D02*
G03*
X18961Y5259I35J0D01*
G01*
X19040Y5224D02*
G03*
X19005Y5259I-35J0D01*
G01*
Y5159D02*
G03*
X19040Y5194I0J35D01*
G01*
X18961Y5159D02*
G03*
X18926Y5124I0J-35D01*
G01*
Y5094D02*
G03*
X18961Y5059I35J0D01*
G01*
X19016Y5009D02*
G03*
X18966Y5059I-50J0D01*
G01*
X18848Y7175D02*
G03*
X18798Y7125I0J-50D01*
G01*
X18856Y7175D02*
G03*
X18881Y7200I0J25D01*
G01*
Y7250D02*
G03*
X18856Y7275I-25J0D01*
G01*
X18722Y7300D02*
G03*
X18747Y7275I25J0D01*
G01*
Y7375D02*
G03*
X18722Y7350I0J-25D01*
G01*
X18856Y7375D02*
G03*
X18881Y7400I0J25D01*
G01*
Y7450D02*
G03*
X18856Y7475I-25J0D01*
G01*
X18722Y7500D02*
G03*
X18747Y7475I25J0D01*
G01*
Y7575D02*
G03*
X18722Y7550I0J-25D01*
G01*
X18856Y7575D02*
G03*
X18881Y7600I0J25D01*
G01*
Y7650D02*
G03*
X18856Y7675I-25J0D01*
G01*
X18722Y7700D02*
G03*
X18747Y7675I25J0D01*
G01*
Y7775D02*
G03*
X18722Y7750I0J-25D01*
G01*
X18856Y7775D02*
G03*
X18881Y7800I0J25D01*
G01*
Y7850D02*
G03*
X18856Y7875I-25J0D01*
G01*
X18798Y7925D02*
G03*
X18848Y7875I50J0D01*
G01*
X15961Y6960D02*
G03*
X15996Y6875I35J-35D01*
G01*
X16056Y6845D02*
G03*
X16026Y6875I-30J0D01*
G01*
Y6775D02*
G03*
X16056Y6805I0J30D01*
G01*
X15799Y6775D02*
G03*
X15769Y6745I0J-30D01*
G01*
Y6705D02*
G03*
X15799Y6675I30J0D01*
G01*
X16090Y6645D02*
G03*
X16060Y6675I-30J0D01*
G01*
Y6575D02*
G03*
X16090Y6605I0J30D01*
G01*
X15895Y6575D02*
G03*
X15845Y6525I0J-50D01*
G01*
X16753Y8023D02*
G03*
X16803Y8073I0J50D01*
G01*
X16739Y8023D02*
G03*
X16709Y7993I0J-30D01*
G01*
Y7953D02*
G03*
X16739Y7923I30J0D01*
G01*
X16889Y7893D02*
G03*
X16859Y7923I-30J0D01*
G01*
Y7823D02*
G03*
X16889Y7853I0J30D01*
G01*
X16739Y7823D02*
G03*
X16709Y7793I0J-30D01*
G01*
Y7753D02*
G03*
X16739Y7723I30J0D01*
G01*
X16889Y7693D02*
G03*
X16859Y7723I-30J0D01*
G01*
Y7623D02*
G03*
X16889Y7653I0J30D01*
G01*
X16739Y7623D02*
G03*
X16709Y7593I0J-30D01*
G01*
Y7553D02*
G03*
X16739Y7523I30J0D01*
G01*
X16889Y7493D02*
G03*
X16859Y7523I-30J0D01*
G01*
Y7423D02*
G03*
X16889Y7453I0J30D01*
G01*
X16739Y7423D02*
G03*
X16709Y7393I0J-30D01*
G01*
Y7353D02*
G03*
X16739Y7323I30J0D01*
G01*
X16803Y7273D02*
G03*
X16753Y7323I-50J0D01*
G01*
X18189Y6223D02*
G03*
X18239Y6173I50J0D01*
G01*
X18284Y6138D02*
G03*
X18249Y6173I-35J0D01*
G01*
Y6073D02*
G03*
X18284Y6108I0J35D01*
G01*
X18133Y6073D02*
G03*
X18098Y6038I0J-35D01*
G01*
Y6008D02*
G03*
X18133Y5973I35J0D01*
G01*
X18284Y5938D02*
G03*
X18249Y5973I-35J0D01*
G01*
Y5873D02*
G03*
X18284Y5908I0J35D01*
G01*
X18133Y5873D02*
G03*
X18098Y5838I0J-35D01*
G01*
Y5808D02*
G03*
X18133Y5773I35J0D01*
G01*
X18189Y5723D02*
G03*
X18139Y5773I-50J0D01*
G01*
X9586Y2820D02*
G03*
X9557Y2910I-29J41D01*
G01*
X9584Y2818D02*
G03*
X9576Y2769I20J-28D01*
G01*
X9593Y2745D02*
G03*
X9642Y2737I28J20D01*
G01*
X9829Y2827D02*
G03*
X9780Y2835I-28J-20D01*
G01*
X9838Y2754D02*
G03*
X9846Y2803I-20J28D01*
G01*
X9727Y2675D02*
G03*
X9719Y2626I20J-28D01*
G01*
X9737Y2601D02*
G03*
X9786Y2593I28J20D01*
G01*
X9886Y2573D02*
G03*
X9795Y2600I-56J-21D01*
G01*
X10470Y2997D02*
G03*
X10420Y3047I-50J0D01*
G01*
X10470Y2964D02*
G03*
X10505Y2929I35J0D01*
G01*
X10535D02*
G03*
X10570Y2964I0J35D01*
G01*
X10605Y3047D02*
G03*
X10570Y3012I0J-35D01*
G01*
X10670D02*
G03*
X10635Y3047I-35J0D01*
G01*
X10670Y2852D02*
G03*
X10705Y2817I35J0D01*
G01*
X10735D02*
G03*
X10770Y2852I0J35D01*
G01*
X10805Y3047D02*
G03*
X10770Y3012I0J-35D01*
G01*
X10870D02*
G03*
X10835Y3047I-35J0D01*
G01*
X10870Y2852D02*
G03*
X10905Y2817I35J0D01*
G01*
X10935D02*
G03*
X10970Y2852I0J35D01*
G01*
X11005Y3047D02*
G03*
X10970Y3012I0J-35D01*
G01*
X11070D02*
G03*
X11035Y3047I-35J0D01*
G01*
X11070Y2852D02*
G03*
X11105Y2817I35J0D01*
G01*
X11135D02*
G03*
X11170Y2852I0J35D01*
G01*
X11220Y3047D02*
G03*
X11170Y2997I0J-50D01*
G01*
X10034Y2701D02*
G03*
X10084Y2751I0J50D01*
G01*
X10017Y2701D02*
G03*
X9982Y2666I0J-35D01*
G01*
Y2636D02*
G03*
X10017Y2601I35J0D01*
G01*
X10166Y2566D02*
G03*
X10131Y2601I-35J0D01*
G01*
Y2501D02*
G03*
X10166Y2536I0J35D01*
G01*
X10021Y2501D02*
G03*
X9986Y2466I0J-35D01*
G01*
Y2436D02*
G03*
X10021Y2401I35J0D01*
G01*
X10166Y2366D02*
G03*
X10131Y2401I-35J0D01*
G01*
Y2301D02*
G03*
X10166Y2336I0J35D01*
G01*
X10021Y2301D02*
G03*
X9986Y2266I0J-35D01*
G01*
Y2236D02*
G03*
X10021Y2201I35J0D01*
G01*
X10084Y2151D02*
G03*
X10034Y2201I-50J0D01*
G01*
X6565Y5417D02*
G03*
X6615Y5467I0J50D01*
G01*
X6492Y5417D02*
G03*
X6457Y5382I0J-35D01*
G01*
Y5352D02*
G03*
X6492Y5317I35J0D01*
G01*
X6618Y5282D02*
G03*
X6583Y5317I-35J0D01*
G01*
Y5217D02*
G03*
X6618Y5252I0J35D01*
G01*
X6492Y5217D02*
G03*
X6457Y5182I0J-35D01*
G01*
Y5152D02*
G03*
X6492Y5117I35J0D01*
G01*
X6618Y5067D02*
G03*
X6568Y5117I-50J0D01*
G01*
X6406Y5720D02*
G03*
X6441Y5635I35J-35D01*
G01*
X6515Y5600D02*
G03*
X6480Y5635I-35J0D01*
G01*
Y5535D02*
G03*
X6515Y5570I0J35D01*
G01*
X6407Y5535D02*
G03*
X6357Y5485I0J-50D01*
G01*
X10266Y2651D02*
G03*
X10316Y2601I50J0D01*
G01*
X10405Y2566D02*
G03*
X10370Y2601I-35J0D01*
G01*
Y2501D02*
G03*
X10405Y2536I0J35D01*
G01*
X10299Y2501D02*
G03*
X10264Y2466I0J-35D01*
G01*
Y2436D02*
G03*
X10299Y2401I35J0D01*
G01*
X10405Y2366D02*
G03*
X10370Y2401I-35J0D01*
G01*
Y2301D02*
G03*
X10405Y2336I0J35D01*
G01*
X10316Y2301D02*
G03*
X10266Y2251I0J-50D01*
G01*
X15773Y3089D02*
X15837D01*
X15980Y1600D02*
Y1853D01*
X15591Y1600D02*
Y1850D01*
X15394Y1600D02*
Y1820D01*
X19400Y5370D02*
Y6284D01*
X19268Y6861D02*
Y8118D01*
Y6861D02*
X19400Y6728D01*
X19268Y8118D02*
X19389Y8239D01*
X15386Y7182D02*
X15470Y7098D01*
X15386Y7182D02*
Y7200D01*
X15470Y6950D02*
Y7098D01*
X15354Y3314D02*
Y3694D01*
X15414Y2921D02*
Y3255D01*
X15354Y3314D02*
X15414Y3255D01*
X14439Y2584D02*
X16627D01*
X14397Y2484D02*
X16530D01*
X14356Y2384D02*
X16236D01*
X14314Y2284D02*
X16139D01*
X14272Y2184D02*
X15845D01*
X15749Y2084D02*
X15980Y1853D01*
X14231Y2084D02*
X15749D01*
X15457Y1984D02*
X15591Y1850D01*
X14176Y1984D02*
X15457D01*
X15356Y1857D02*
X15394Y1820D01*
X14162Y1857D02*
X15356D01*
X15693Y3170D02*
X15773Y3089D01*
X16777Y1600D02*
Y1844D01*
X16578Y1600D02*
Y1846D01*
X16179Y1600D02*
Y1851D01*
X16139Y2284D02*
X16578Y1846D01*
X17175Y1600D02*
Y1839D01*
X15354Y3694D02*
X15685Y4024D01*
X15693Y3170D02*
Y3842D01*
X17374Y1600D02*
Y1837D01*
X16627Y2584D02*
X17374Y1837D01*
X16530Y2484D02*
X17175Y1839D01*
X16236Y2384D02*
X16777Y1844D01*
X15845Y2184D02*
X16179Y1851D01*
X16190Y6809D02*
Y6903D01*
Y5675D02*
Y6809D01*
X15950Y7259D02*
X15973D01*
X16495Y6413D02*
X16496Y6411D01*
X17068Y6348D02*
Y6353D01*
X17860Y5669D02*
X17947D01*
X17830Y6099D02*
Y6139D01*
X17977Y5599D02*
Y5639D01*
X17860Y6069D02*
X17947D01*
X17977Y5799D02*
Y5839D01*
X17913Y6219D02*
Y6333D01*
Y5394D02*
Y5419D01*
X17860Y6169D02*
X17863D01*
X17830Y5699D02*
Y5739D01*
X17860Y5469D02*
X17863D01*
X17830Y5499D02*
Y5539D01*
X17860Y5969D02*
X17947D01*
X17860Y5569D02*
X17947D01*
X17860Y5769D02*
X17947D01*
X17830Y5899D02*
Y5939D01*
X17977Y5999D02*
Y6039D01*
X17860Y5869D02*
X17947D01*
X17532Y6255D02*
Y6295D01*
Y6055D02*
Y6095D01*
X17562Y6225D02*
X17623D01*
X17562Y6125D02*
X17623D01*
X17562Y6025D02*
X17591D01*
X17641Y5950D02*
Y5975D01*
X17653Y6155D02*
Y6195D01*
X17641Y6375D02*
Y6550D01*
X17562Y6325D02*
X17591D01*
X17641Y5741D02*
Y5950D01*
X17550Y5650D02*
X17641Y5741D01*
Y6550D02*
Y6718D01*
X17643Y6744D02*
X17655Y6732D01*
X17641Y6718D02*
X17643Y6720D01*
X17550Y5299D02*
Y5650D01*
X17342Y6611D02*
X17370Y6583D01*
Y5305D02*
Y6558D01*
X17219Y6504D02*
Y8096D01*
X17068Y6353D02*
X17219Y6504D01*
X16811Y8504D02*
X17219Y8096D01*
X17370Y6558D02*
X17378Y6567D01*
X16987Y4922D02*
X17370Y5305D01*
X17342Y6611D02*
Y6947D01*
X3384Y3616D02*
X3656D01*
X3250Y3750D02*
X3384Y3616D01*
X3656D02*
X3790Y3751D01*
Y5160D01*
X3228Y5580D02*
X3690Y5118D01*
Y3840D02*
Y5118D01*
X3600Y3750D02*
Y3750D01*
X3690Y3840D01*
X3228Y5580D02*
Y5591D01*
X3559Y5391D02*
X3790Y5160D01*
X3559Y5391D02*
Y7031D01*
X3425Y7165D02*
X3559Y7031D01*
X11354Y4456D02*
X11488Y4322D01*
X11354Y4456D02*
Y4634D01*
X11254Y4146D02*
Y4675D01*
X11224Y4116D02*
X11254Y4146D01*
Y4675D02*
X11505Y4927D01*
X11354Y4634D02*
X11547Y4827D01*
X11724D01*
X18465Y5040D02*
Y7124D01*
Y7952D01*
X18236Y8181D02*
X18465Y7952D01*
X18425Y5000D02*
X18465Y5040D01*
X18425Y4803D02*
Y5000D01*
X8166Y6880D02*
Y7607D01*
X8266Y7031D02*
X8422Y6875D01*
X8266Y7031D02*
Y7648D01*
X7904Y7133D02*
X7905D01*
X8066Y7294D01*
X7906Y6621D02*
X8166Y6880D01*
X7986Y6357D02*
X8151D01*
X7018Y6986D02*
X7673D01*
X7241Y6775D02*
X7387Y6629D01*
Y6626D02*
Y6629D01*
X11377Y2915D02*
X11416D01*
X11245Y3047D02*
X11377Y2915D01*
X17638Y9094D02*
X17835Y8898D01*
X16591Y7041D02*
Y8449D01*
X16496Y6946D02*
X16591Y7041D01*
X16339Y8701D02*
X16591Y8449D01*
X18189Y6299D02*
Y6693D01*
X16190Y6903D02*
X16381Y7093D01*
X16323Y7508D02*
X16381Y7450D01*
Y7093D02*
Y7450D01*
X15669Y6978D02*
X15950Y7259D01*
X17244Y4094D02*
Y4141D01*
X16987Y4399D02*
X17244Y4141D01*
X12534Y4490D02*
X14439Y2584D01*
X12434Y4448D02*
X14397Y2484D01*
X12334Y4407D02*
X14356Y2384D01*
X12234Y4365D02*
X14314Y2284D01*
X12134Y4323D02*
X14272Y2184D01*
X12000Y4316D02*
X14231Y2084D01*
X11975Y4185D02*
X14176Y1984D01*
X11934Y4085D02*
X14162Y1857D01*
X11505Y4927D02*
X11683D01*
X11341Y3950D02*
X11482Y4092D01*
X10578Y3950D02*
X11341D01*
X10079Y4449D02*
X10578Y3950D01*
X15669Y6041D02*
Y6186D01*
X15591Y5991D02*
X15619D01*
X15566Y5916D02*
Y5966D01*
X15591Y5891D02*
X15720D01*
X15745Y5816D02*
Y5866D01*
X15588Y5791D02*
X15720D01*
X15563Y5716D02*
Y5766D01*
X15588Y5691D02*
X15619D01*
X15669Y5616D02*
Y5641D01*
Y5394D02*
Y5616D01*
Y6186D02*
Y6978D01*
X15470Y6842D02*
Y6950D01*
X15520Y6792D02*
X15544D01*
X15569Y6717D02*
Y6767D01*
X15402Y6692D02*
X15544D01*
X15377Y6617D02*
Y6667D01*
X15402Y6592D02*
X15544D01*
X15569Y6517D02*
Y6567D01*
X15402Y6492D02*
X15544D01*
X15377Y6417D02*
Y6467D01*
X15402Y6392D02*
X15420D01*
X15470Y6317D02*
Y6342D01*
Y6020D02*
Y6317D01*
X15100Y5389D02*
X15225Y5264D01*
X15100Y5650D02*
X15470Y6020D01*
X15100Y5389D02*
Y5650D01*
X16323Y8227D02*
X16323Y8252D01*
X16323Y8125D02*
X16323Y8227D01*
X16373Y8075D02*
X16385D01*
X16410Y8000D02*
Y8050D01*
X16260Y7975D02*
X16385D01*
X16235Y7900D02*
Y7950D01*
X16260Y7875D02*
X16385D01*
X16410Y7800D02*
Y7850D01*
X16373Y7775D02*
X16385D01*
X16323Y7600D02*
X16323Y7725D01*
X16323Y7575D02*
X16323Y7600D01*
X16323Y8252D02*
Y8291D01*
X16323Y7508D02*
Y7575D01*
X16376Y5203D02*
Y6291D01*
X16202Y4683D02*
X16266Y4747D01*
X16376Y5122D02*
Y5203D01*
X16426Y5072D02*
X16510D01*
X16535Y4997D02*
Y5047D01*
X16426Y4972D02*
X16510D01*
X16376Y4857D02*
Y4922D01*
X16266Y4747D02*
X16376Y4857D01*
X16202Y4546D02*
Y4683D01*
Y4546D02*
X16339Y4409D01*
X16807Y5437D02*
Y6465D01*
X16788Y6485D02*
X16807Y6465D01*
X16376Y6291D02*
X16496Y6411D01*
X17643Y6946D02*
Y7075D01*
X17693Y7125D02*
X17699D01*
X17724Y7150D02*
Y7200D01*
X17574Y7225D02*
X17699D01*
X17549Y7250D02*
Y7300D01*
X17574Y7325D02*
X17699D01*
X17724Y7350D02*
Y7400D01*
X17574Y7425D02*
X17699D01*
X17549Y7450D02*
Y7500D01*
X17574Y7525D02*
X17699D01*
X17724Y7550D02*
Y7600D01*
X17574Y7625D02*
X17699D01*
X17549Y7650D02*
Y7700D01*
X17574Y7725D02*
X17699D01*
X17724Y7750D02*
Y7800D01*
X17693Y7825D02*
X17699D01*
X17643Y7875D02*
Y7900D01*
Y6744D02*
Y6946D01*
Y7900D02*
Y8031D01*
X17871Y6608D02*
Y7956D01*
Y6608D02*
X17913Y6565D01*
X17342Y6947D02*
Y7073D01*
X17392Y7123D02*
X17421D01*
X17451Y7153D02*
Y7193D01*
X17349Y7223D02*
X17421D01*
X17319Y7253D02*
Y7293D01*
X17349Y7323D02*
X17421D01*
X17451Y7353D02*
Y7393D01*
X17349Y7423D02*
X17421D01*
X17319Y7453D02*
Y7493D01*
X17349Y7523D02*
X17421D01*
X17451Y7553D02*
Y7593D01*
X17349Y7623D02*
X17421D01*
X17319Y7653D02*
Y7693D01*
X17349Y7723D02*
X17421D01*
X17451Y7753D02*
Y7793D01*
X17349Y7823D02*
X17421D01*
X17319Y7853D02*
Y7893D01*
X17349Y7923D02*
X17421D01*
X17451Y7953D02*
Y7993D01*
X17392Y8023D02*
X17421D01*
X17342Y8073D02*
Y8098D01*
Y8191D01*
X19039Y6130D02*
X19057Y6148D01*
X19016Y6107D02*
X19039Y6130D01*
X19016Y5535D02*
Y6107D01*
Y5409D02*
Y5535D01*
X18961Y5359D02*
X18966D01*
X18926Y5294D02*
Y5324D01*
X18961Y5259D02*
X19005D01*
X19040Y5194D02*
Y5224D01*
X18961Y5159D02*
X19005D01*
X18926Y5094D02*
Y5124D01*
X18961Y5059D02*
X18966D01*
X19016Y4984D02*
Y5009D01*
X16677Y4778D02*
X17076Y5176D01*
X18798Y7000D02*
Y7125D01*
X18848Y7175D02*
X18856D01*
X18881Y7200D02*
Y7250D01*
X18747Y7275D02*
X18856D01*
X18722Y7300D02*
Y7350D01*
X18747Y7375D02*
X18856D01*
X18881Y7400D02*
Y7450D01*
X18747Y7475D02*
X18856D01*
X18722Y7500D02*
Y7550D01*
X18747Y7575D02*
X18856D01*
X18881Y7600D02*
Y7650D01*
X18747Y7675D02*
X18856D01*
X18722Y7700D02*
Y7750D01*
X18747Y7775D02*
X18856D01*
X18881Y7800D02*
Y7850D01*
X18848Y7875D02*
X18856D01*
X18798Y7925D02*
Y7950D01*
Y6750D02*
Y7000D01*
Y7950D02*
Y8013D01*
X18425Y8386D02*
X18798Y8013D01*
X18740Y6692D02*
X18798Y6750D01*
X18740Y4961D02*
Y6692D01*
X18740Y6692D01*
X11740Y4085D02*
X11934D01*
X11733Y4092D02*
X11740Y4085D01*
X11744Y4319D02*
X11878Y4185D01*
X11975D01*
X8295Y1535D02*
Y1738D01*
X8025Y2008D02*
X8295Y1738D01*
X7053Y2008D02*
X8025D01*
X8150Y1491D02*
Y1742D01*
X7984Y1908D02*
X8150Y1742D01*
X7012Y1908D02*
X7984D01*
X17478Y8349D02*
Y8860D01*
X17244Y8386D02*
X17278Y8352D01*
X16098Y7340D02*
Y7386D01*
X16108Y7283D02*
Y7330D01*
X15984Y7500D02*
X16098Y7386D01*
Y7340D02*
X16108Y7330D01*
X15693Y3842D02*
X15827Y3976D01*
X15512Y5236D02*
X15669Y5394D01*
X15961Y4118D02*
X16220Y3858D01*
X16260Y4968D02*
Y5605D01*
X16190Y5675D02*
X16260Y5605D01*
X15845Y5825D02*
X15961Y5709D01*
Y4118D02*
Y5709D01*
X16075Y4783D02*
X16260Y4968D01*
X17076Y5176D02*
Y6345D01*
X16807Y5437D02*
X16906Y5338D01*
X16496Y6417D02*
Y6946D01*
X15225Y5129D02*
Y5264D01*
Y5129D02*
X15685Y4669D01*
Y4024D02*
Y4669D01*
X19057Y6148D02*
Y6673D01*
X19008Y6722D02*
X19057Y6673D01*
X17087Y4835D02*
X17550Y5299D01*
X19389Y8239D02*
Y8319D01*
X19322Y8386D02*
X19389Y8319D01*
X19213Y8386D02*
X19322D01*
X16108Y7108D02*
Y7283D01*
X15961Y6960D02*
X16108Y7108D01*
X15996Y6875D02*
X16026D01*
X16056Y6805D02*
Y6845D01*
X15799Y6775D02*
X16026D01*
X15769Y6705D02*
Y6745D01*
X15799Y6675D02*
X16060D01*
X16090Y6605D02*
Y6645D01*
X15895Y6575D02*
X16060D01*
X15845Y6400D02*
Y6525D01*
Y6271D02*
Y6400D01*
X16803Y8073D02*
Y8210D01*
X16739Y8023D02*
X16753D01*
X16709Y7953D02*
Y7993D01*
X16739Y7923D02*
X16859D01*
X16889Y7853D02*
Y7893D01*
X16739Y7823D02*
X16859D01*
X16709Y7753D02*
Y7793D01*
X16739Y7723D02*
X16859D01*
X16889Y7653D02*
Y7693D01*
X16739Y7623D02*
X16859D01*
X16709Y7553D02*
Y7593D01*
X16739Y7523D02*
X16859D01*
X16889Y7453D02*
Y7493D01*
X16739Y7423D02*
X16859D01*
X16709Y7353D02*
Y7393D01*
X16739Y7323D02*
X16753D01*
X16803Y7248D02*
Y7273D01*
Y6488D02*
Y7248D01*
Y8210D02*
Y8299D01*
X16811Y8307D01*
X17913Y6333D02*
Y6564D01*
Y5354D02*
Y5394D01*
X19016Y4291D02*
Y4984D01*
X18189Y6223D02*
Y6299D01*
X18239Y6173D02*
X18249D01*
X18284Y6108D02*
Y6138D01*
X18133Y6073D02*
X18249D01*
X18098Y6008D02*
Y6038D01*
X18133Y5973D02*
X18249D01*
X18284Y5908D02*
Y5938D01*
X18133Y5873D02*
X18249D01*
X18098Y5808D02*
Y5838D01*
X18133Y5773D02*
X18139D01*
X18189Y5698D02*
Y5723D01*
Y5354D02*
Y5698D01*
X18236Y9109D02*
X18302Y9175D01*
X18236Y8181D02*
Y9109D01*
X18425Y9094D02*
Y9112D01*
X18362Y9175D02*
X18425Y9112D01*
X18302Y9175D02*
X18362D01*
X18425Y9094D02*
X18447Y9116D01*
X9378Y2810D02*
X9705Y2484D01*
X7382Y2810D02*
X9378D01*
X9705Y2044D02*
Y2484D01*
X9202Y2710D02*
X9537Y2376D01*
X7341Y2710D02*
X9202D01*
X9537Y2044D02*
Y2376D01*
X7276Y7086D02*
X7453Y7264D01*
X6977Y7086D02*
X7276D01*
X7453Y7264D02*
X7520D01*
X7670Y6024D02*
Y6108D01*
X7657Y6121D02*
X7670Y6108D01*
Y6024D02*
X7789Y5904D01*
X7424Y2910D02*
X9469D01*
X9886Y2044D02*
Y2542D01*
X9469Y2910D02*
X9557D01*
X9584Y2818D02*
X9586Y2820D01*
X9576Y2769D02*
X9593Y2745D01*
X9642Y2737D02*
X9780Y2835D01*
X9780Y2835D02*
X9780Y2835D01*
X9829Y2827D02*
X9846Y2803D01*
X9838Y2754D02*
X9838D01*
X9727Y2675D02*
X9838Y2754D01*
X9727Y2675D02*
X9727Y2675D01*
X9719Y2626D02*
X9719Y2626D01*
X9737Y2601D01*
X9786Y2593D02*
X9795Y2600D01*
X9886Y2573D02*
X9886Y2573D01*
Y2542D02*
Y2573D01*
X6357Y4880D02*
Y5360D01*
Y4880D02*
X6629Y4607D01*
X10212Y3047D02*
X10420D01*
X10470Y2964D02*
Y2997D01*
X10505Y2929D02*
X10535D01*
X10570Y2964D02*
Y3012D01*
X10605Y3047D02*
X10635D01*
X10670Y2852D02*
Y3012D01*
X10705Y2817D02*
X10735D01*
X10770Y2852D02*
Y3012D01*
X10805Y3047D02*
X10835D01*
X10870Y2852D02*
Y3012D01*
X10905Y2817D02*
X10935D01*
X10970Y2852D02*
Y3012D01*
X11005Y3047D02*
X11035D01*
X11070Y2852D02*
Y3012D01*
X11105Y2817D02*
X11135D01*
X11170Y2852D02*
Y2997D01*
X11220Y3047D02*
X11245D01*
X10084Y2044D02*
Y2126D01*
X9828Y3010D02*
X9857Y2981D01*
X10084Y2754D01*
Y2751D02*
Y2754D01*
X10017Y2701D02*
X10034D01*
X9982Y2636D02*
Y2666D01*
X10017Y2601D02*
X10131D01*
X10166Y2536D02*
Y2566D01*
X10021Y2501D02*
X10131D01*
X9986Y2436D02*
Y2466D01*
X10021Y2401D02*
X10131D01*
X10166Y2336D02*
Y2366D01*
X10021Y2301D02*
X10131D01*
X9986Y2236D02*
Y2266D01*
X10021Y2201D02*
X10034D01*
X10084Y2126D02*
Y2151D01*
X17278Y8255D02*
X17342Y8191D01*
X7186Y7186D02*
X7393Y7393D01*
X6935Y7186D02*
X7186D01*
X6767Y7017D02*
X6935Y7186D01*
X7096Y7286D02*
X7346Y7536D01*
X6894Y7286D02*
X7096D01*
X6725Y7117D02*
X6894Y7286D01*
X6487Y7117D02*
X6725D01*
X7055Y7386D02*
X7323Y7654D01*
X6852Y7386D02*
X7055D01*
X6684Y7217D02*
X6852Y7386D01*
X6446Y7217D02*
X6684D01*
X7014Y7486D02*
X7315Y7788D01*
X6811Y7486D02*
X7014D01*
X6642Y7317D02*
X6811Y7486D01*
X6405Y7317D02*
X6642D01*
X6972Y7586D02*
X7274Y7888D01*
X6770Y7586D02*
X6972D01*
X6601Y7417D02*
X6770Y7586D01*
X6363Y7417D02*
X6601D01*
X6929Y7686D02*
X7231Y7988D01*
X6728Y7686D02*
X6929D01*
X6559Y7517D02*
X6728Y7686D01*
X6322Y7517D02*
X6559D01*
X6888Y7786D02*
X7189Y8088D01*
X6687Y7786D02*
X6888D01*
X6518Y7617D02*
X6687Y7786D01*
X6280Y7617D02*
X6518D01*
X7189Y8088D02*
X7826D01*
X7346Y7536D02*
X7504D01*
X6849Y6817D02*
X7018Y6986D01*
X9183Y2072D02*
X9196Y2059D01*
X6808Y6917D02*
X6977Y7086D01*
X7323Y7654D02*
X7646D01*
X7315Y7788D02*
X7702D01*
X9196Y2059D02*
X9196D01*
X7274Y7888D02*
X7743D01*
X7231Y7988D02*
X7785D01*
X7504Y7536D02*
X7642Y7398D01*
Y7396D02*
Y7398D01*
X7910Y7389D02*
X7923D01*
X12042Y2707D02*
Y2863D01*
X11616Y3147D02*
X11860Y2904D01*
Y2710D02*
Y2904D01*
X11658Y3247D02*
X12042Y2863D01*
X12194Y2389D02*
Y2853D01*
X11699Y3347D02*
X12194Y2853D01*
X15845Y5825D02*
Y6271D01*
X7090Y6775D02*
X7241D01*
X7397Y6886D02*
X7658Y6625D01*
X7060Y6886D02*
X7397D01*
X7136Y6625D02*
X7136D01*
X7029Y6517D02*
X7136Y6625D01*
X9028Y2044D02*
Y2215D01*
X8833Y2410D02*
X9028Y2215D01*
X7217Y2410D02*
X8833D01*
X9196Y2059D02*
Y2278D01*
X8964Y2510D02*
X9196Y2278D01*
X7258Y2510D02*
X8964D01*
X7300Y2610D02*
X9054D01*
X9368Y2044D02*
Y2296D01*
X9054Y2610D02*
X9368Y2296D01*
X9196Y2044D02*
Y2059D01*
X6618Y5592D02*
Y6258D01*
Y5527D02*
Y5592D01*
X6615Y5524D02*
X6618Y5527D01*
X6615Y5467D02*
Y5524D01*
X6492Y5417D02*
X6565D01*
X6457Y5352D02*
Y5382D01*
X6492Y5317D02*
X6583D01*
X6618Y5252D02*
Y5282D01*
X6492Y5217D02*
X6583D01*
X6457Y5152D02*
Y5182D01*
X6492Y5117D02*
X6568D01*
X6618Y5042D02*
Y5067D01*
Y4760D02*
Y5042D01*
X6518Y5833D02*
Y5862D01*
X6406Y5720D02*
X6518Y5833D01*
X6441Y5635D02*
X6480D01*
X6515Y5570D02*
Y5600D01*
X6407Y5535D02*
X6480D01*
X6357Y5360D02*
Y5485D01*
X6518Y5862D02*
Y6299D01*
X6618Y4760D02*
X6729Y4649D01*
X5357Y4466D02*
Y6086D01*
X5509Y6238D02*
Y6704D01*
X5357Y6086D02*
X5509Y6238D01*
X5031Y5756D02*
X5236Y5551D01*
Y4427D02*
Y5551D01*
X5495Y6832D02*
X6280Y7617D01*
X5178Y6832D02*
X5495D01*
X5509Y6704D02*
X6322Y7517D01*
X5609Y6663D02*
X6363Y7417D01*
X5609Y6196D02*
Y6663D01*
X5709Y6155D02*
Y6621D01*
X6405Y7317D01*
X5809Y6580D02*
X6446Y7217D01*
X5809Y6113D02*
Y6580D01*
X5909Y6539D02*
X6487Y7117D01*
X5909Y6072D02*
Y6539D01*
X6009Y6497D02*
X6529Y7017D01*
X6009Y6030D02*
Y6497D01*
X6529Y7017D02*
X6767D01*
X6109Y5989D02*
Y6456D01*
X6570Y6917D01*
X6808D01*
X6209Y6414D02*
X6612Y6817D01*
X6849D01*
X6209Y5948D02*
Y6414D01*
X6891Y6717D02*
X7060Y6886D01*
X6309Y6373D02*
X6653Y6717D01*
X6891D01*
X6309Y5906D02*
Y6373D01*
X6409Y6331D02*
X6695Y6617D01*
X6932D01*
X7090Y6775D01*
X6409Y5865D02*
Y6331D01*
X6518Y6299D02*
X6736Y6517D01*
X6777Y6417D02*
X7087D01*
X6618Y6258D02*
X6777Y6417D01*
X6736Y6517D02*
X7029D01*
X7087Y6417D02*
X7171Y6333D01*
X7375D01*
X7702Y7788D02*
X7964Y7526D01*
Y7430D02*
Y7526D01*
X7923Y7389D02*
X7964Y7430D01*
X7743Y7888D02*
X8066Y7566D01*
Y7294D02*
Y7566D01*
X7785Y7988D02*
X8166Y7607D01*
X7826Y8088D02*
X8266Y7648D01*
X5031Y6685D02*
X5178Y6832D01*
X5031Y5756D02*
Y6685D01*
X8150Y1491D02*
X8239Y1401D01*
X8350D01*
X8429Y1480D01*
Y1481D02*
X8465Y1517D01*
X8429Y1480D02*
Y1481D01*
X8465Y1517D02*
Y1535D01*
X5529Y3391D02*
X7012Y1908D01*
X5529Y3391D02*
Y4134D01*
X5236Y4427D02*
X5529Y4134D01*
X5557Y6003D02*
X5709Y6155D01*
X5857Y5878D02*
X6009Y6030D01*
X6057Y5796D02*
X6209Y5948D01*
X5457Y6044D02*
X5609Y6196D01*
X5757Y5920D02*
X5909Y6072D01*
X6257Y5713D02*
X6409Y5865D01*
X5957Y5837D02*
X6109Y5989D01*
X5657Y5961D02*
X5809Y6113D01*
X6157Y5754D02*
X6309Y5906D01*
X5629Y3432D02*
X7053Y2008D01*
X5629Y3432D02*
Y4193D01*
X5357Y4466D02*
X5629Y4193D01*
X11865Y3747D02*
X12929Y2683D01*
X10406Y3547D02*
X11782D01*
X11823Y3647D02*
X12750Y2721D01*
X11906Y3847D02*
X13110Y2643D01*
X10489Y3747D02*
X11865D01*
X12750Y2389D02*
Y2721D01*
X10531Y3847D02*
X11906D01*
X10448Y3647D02*
X11823D01*
X12922Y2397D02*
X12929Y2389D01*
X11741Y3447D02*
X12378Y2810D01*
X11782Y3547D02*
X12562Y2767D01*
X12929Y2389D02*
Y2683D01*
X10324Y3347D02*
X11699D01*
X13110Y2412D02*
Y2643D01*
X10241Y3147D02*
X11616D01*
X12745Y2394D02*
X12750Y2389D01*
X10365Y3447D02*
X11741D01*
X10282Y3247D02*
X11658D01*
X12378Y2389D02*
Y2810D01*
X12562Y2389D02*
Y2767D01*
X7718Y5171D02*
Y5221D01*
X10266Y2651D02*
Y2743D01*
X10316Y2601D02*
X10370D01*
X10405Y2536D02*
Y2566D01*
X10299Y2501D02*
X10370D01*
X10264Y2436D02*
Y2466D01*
X10299Y2401D02*
X10370D01*
X10405Y2336D02*
Y2366D01*
X10316Y2301D02*
X10370D01*
X10266Y2126D02*
Y2251D01*
Y2743D02*
Y2840D01*
Y2044D02*
Y2126D01*
X10199Y3047D02*
X10212D01*
X10036Y3210D02*
X10199Y3047D01*
X12187Y5009D02*
X12534Y4662D01*
X11766Y5009D02*
X12187D01*
X11683Y4927D02*
X11766Y5009D01*
X11636Y4727D02*
X11766D01*
X11488Y4578D02*
X11636Y4727D01*
X12334Y4407D02*
Y4579D01*
X12104Y4809D02*
X12334Y4579D01*
X12234Y4365D02*
Y4531D01*
X12434Y4448D02*
Y4621D01*
X12145Y4909D02*
X12434Y4621D01*
X12534Y4490D02*
Y4662D01*
X12000Y4575D02*
X12134Y4441D01*
Y4323D02*
Y4441D01*
X8446Y2110D02*
X8503Y2053D01*
X7093Y2110D02*
X8446D01*
X5729Y3474D02*
X7093Y2110D01*
X5729Y3474D02*
Y4235D01*
X8599Y2210D02*
X8660Y2149D01*
X7134Y2210D02*
X8599D01*
X5829Y3515D02*
X7134Y2210D01*
X5829Y3515D02*
Y4276D01*
X5929Y3556D02*
X7175Y2310D01*
X8752D01*
X5929Y3556D02*
Y4317D01*
X5857Y4673D02*
Y5878D01*
Y4673D02*
X6129Y4400D01*
Y3639D02*
Y4400D01*
X5957Y4714D02*
Y5837D01*
Y4714D02*
X6229Y4442D01*
Y3681D02*
Y4442D01*
X6057Y4756D02*
Y5796D01*
Y4756D02*
X6329Y4483D01*
Y3722D02*
Y4483D01*
X6157Y4797D02*
Y5754D01*
Y4797D02*
X6429Y4525D01*
Y3764D02*
Y4525D01*
X6257Y4838D02*
Y5713D01*
Y4838D02*
X6529Y4566D01*
Y3805D02*
Y4566D01*
X6629Y3846D02*
Y4607D01*
X6729Y3888D02*
Y4649D01*
X6829Y3929D02*
Y4848D01*
X6929Y4807D02*
X7283Y5161D01*
X6929Y3971D02*
Y4807D01*
X7041Y4777D02*
X7383Y5120D01*
X7041Y4000D02*
Y4777D01*
Y4000D02*
X7631Y3410D01*
X7141Y4736D02*
X7507Y5101D01*
X7141Y4042D02*
Y4736D01*
Y4042D02*
X7672Y3510D01*
X7241Y4083D02*
X7714Y3610D01*
X7241Y4083D02*
Y4694D01*
X7718Y5171D01*
X7341Y4653D02*
X7876Y5188D01*
X7341Y4125D02*
Y4653D01*
Y4125D02*
X7755Y3710D01*
X7441Y4166D02*
X7797Y3810D01*
X7441Y4166D02*
Y4612D01*
X7976Y5146D01*
X7541Y4570D02*
X8076Y5105D01*
X7541Y4207D02*
Y4570D01*
Y4207D02*
X7838Y3910D01*
X7642Y4529D02*
X8034Y4921D01*
X7642Y4248D02*
Y4529D01*
Y4248D02*
X7880Y4010D01*
X6029Y3598D02*
X7217Y2410D01*
X6029Y3598D02*
Y4359D01*
X6129Y3639D02*
X7258Y2510D01*
X6229Y3681D02*
X7300Y2610D01*
X6329Y3722D02*
X7341Y2710D01*
X6429Y3764D02*
X7382Y2810D01*
X6529Y3805D02*
X7424Y2910D01*
X7465Y3010D02*
X9828D01*
X6629Y3846D02*
X7465Y3010D01*
X10368Y4010D02*
X10531Y3847D01*
X7880Y4010D02*
X10368D01*
X10326Y3910D02*
X10489Y3747D01*
X7838Y3910D02*
X10326D01*
X10285Y3810D02*
X10448Y3647D01*
X7797Y3810D02*
X10285D01*
X10244Y3710D02*
X10406Y3547D01*
X7755Y3710D02*
X10244D01*
X10202Y3610D02*
X10365Y3447D01*
X7714Y3610D02*
X10202D01*
X10161Y3510D02*
X10324Y3347D01*
X7672Y3510D02*
X10161D01*
X10119Y3410D02*
X10282Y3247D01*
X7631Y3410D02*
X10119D01*
X10078Y3310D02*
X10241Y3147D01*
X7590Y3310D02*
X10078D01*
X6929Y3971D02*
X7590Y3310D01*
X7507Y3110D02*
X9995D01*
X6729Y3888D02*
X7507Y3110D01*
X8034Y4921D02*
X8228D01*
X8076Y5105D02*
Y5850D01*
X7976Y5146D02*
Y5809D01*
X7876Y5188D02*
Y5767D01*
X7789Y5854D02*
X7876Y5767D01*
X7507Y5204D02*
X7520Y5217D01*
X7383Y5120D02*
Y5270D01*
X6829Y4848D02*
X7183Y5203D01*
X7283Y5161D02*
Y5311D01*
X7507Y5101D02*
Y5204D01*
X7183Y5203D02*
Y5530D01*
X7989Y5937D02*
X8076Y5850D01*
X7889Y5895D02*
X7976Y5809D01*
X8228Y4921D02*
X8287Y4862D01*
Y4705D02*
Y4862D01*
X7891Y6086D02*
X7989Y5987D01*
Y5937D02*
Y5987D01*
X7889Y5895D02*
Y5946D01*
X7791Y6044D02*
X7889Y5946D01*
X7791Y6044D02*
Y6481D01*
X7789Y5854D02*
Y5904D01*
X7776Y5531D02*
Y5726D01*
X7655Y5846D02*
X7776Y5726D01*
X7891Y6086D02*
Y6263D01*
X7986Y6357D01*
X7548Y3210D02*
X10036D01*
X9995Y3110D02*
X10266Y2840D01*
X5557Y4548D02*
X5829Y4276D01*
X5757Y4631D02*
X6029Y4359D01*
X5657Y4590D02*
X5929Y4317D01*
X7183Y5530D02*
X7264Y5610D01*
X5457Y4507D02*
X5729Y4235D01*
X6829Y3929D02*
X7548Y3210D01*
X7283Y5311D02*
X7520Y5548D01*
X11848Y4809D02*
X12104D01*
X12000Y4316D02*
Y4319D01*
X12055Y4709D02*
X12234Y4531D01*
X7375Y6333D02*
X7386Y6344D01*
X8859Y2044D02*
Y2204D01*
X8752Y2310D02*
X8859Y2204D01*
X8660Y2058D02*
X8673Y2044D01*
X8660Y2058D02*
Y2149D01*
X7595Y5351D02*
X7776Y5531D01*
X7464Y5351D02*
X7595D01*
X7520Y5548D02*
Y5728D01*
X7776Y6496D02*
X7791Y6481D01*
X11807Y4909D02*
X12145D01*
X11890Y4709D02*
X12055D01*
X11756Y4575D02*
X11890Y4709D01*
X11766Y4727D02*
X11848Y4809D01*
X11724Y4827D02*
X11807Y4909D01*
X11744Y4575D02*
X11756D01*
X19400Y6289D02*
Y6728D01*
X19400Y5370D02*
X19461Y5308D01*
X19400Y6289D02*
X19406Y6284D01*
X19461Y4343D02*
Y5308D01*
X17638Y4803D02*
X18189Y5354D01*
X17538Y4979D02*
X17913Y5354D01*
X17378Y8296D02*
X17643Y8031D01*
X18819Y8386D02*
X19008Y8196D01*
Y6722D02*
Y8196D01*
X18685Y4905D02*
X18740Y4961D01*
X17278Y8255D02*
Y8352D01*
X15512Y5039D02*
Y5236D01*
X15827Y3976D02*
Y4724D01*
X15512Y5039D02*
X15827Y4724D01*
X16220Y3858D02*
X16417D01*
X16515Y3956D01*
Y4036D01*
X16339Y4213D02*
X16515Y4036D01*
X18819Y4094D02*
X19016Y4291D01*
X18150Y6732D02*
X18189Y6693D01*
X18150Y6732D02*
Y7913D01*
X15984Y8150D02*
X16339Y8504D01*
X15984Y7500D02*
Y8150D01*
X16075Y4280D02*
Y4783D01*
Y4280D02*
X16339Y4016D01*
X16987Y4399D02*
Y4922D01*
X16906Y5181D02*
Y5338D01*
X19213Y4094D02*
X19461Y4343D01*
X17478Y8349D02*
X17871Y7956D01*
X17835Y8228D02*
X18150Y7913D01*
X17835Y8228D02*
Y8898D01*
X18685Y4354D02*
Y4905D01*
X18425Y4094D02*
X18685Y4354D01*
X17087Y4488D02*
Y4835D01*
Y4488D02*
X17244Y4331D01*
X17378Y8296D02*
Y8488D01*
X17244Y8622D02*
X17378Y8488D01*
X17244Y9094D02*
X17478Y8860D01*
X16677Y4347D02*
Y4778D01*
X16517Y4792D02*
X16906Y5181D01*
X16517Y4310D02*
Y4792D01*
Y4310D02*
X16811Y4016D01*
X17244Y4803D02*
X17420Y4979D01*
X17538D01*
X16677Y4347D02*
X16811Y4213D01*
X5757Y4631D02*
Y5920D01*
X5457Y4507D02*
Y6044D01*
X5557Y4548D02*
Y6003D01*
X5657Y4590D02*
Y5961D01*
X7264Y5610D02*
Y5728D01*
X7383Y5270D02*
X7464Y5351D01*
D33*
X22143Y8867D02*
D03*
X21993Y2202D02*
D03*
X22205Y2205D02*
D03*
X21778Y2206D02*
D03*
X20600Y6395D02*
D03*
X26654Y4606D02*
D03*
Y4449D02*
D03*
Y4291D02*
D03*
X26811Y4449D02*
D03*
Y4606D02*
D03*
Y4291D02*
D03*
X26654Y4134D02*
D03*
X26811D02*
D03*
D48*
X14976Y8770D02*
G03*
X15019Y8727I43J0D01*
G01*
X15093Y8699D02*
G03*
X15065Y8727I-28J0D01*
G01*
Y8634D02*
G03*
X15093Y8662I0J28D01*
G01*
X15004Y8634D02*
G03*
X14976Y8606I0J-28D01*
G01*
Y8569D02*
G03*
X15004Y8541I28J0D01*
G01*
X15093Y8513D02*
G03*
X15065Y8541I-28J0D01*
G01*
Y8448D02*
G03*
X15093Y8476I0J28D01*
G01*
X15004Y8448D02*
G03*
X14976Y8421I0J-28D01*
G01*
Y8383D02*
G03*
X15004Y8356I28J0D01*
G01*
X15093Y8328D02*
G03*
X15065Y8356I-28J0D01*
G01*
Y8263D02*
G03*
X15093Y8291I0J28D01*
G01*
X15004Y8263D02*
G03*
X14976Y8235I0J-28D01*
G01*
Y8198D02*
G03*
X15004Y8170I28J0D01*
G01*
X15093Y8142D02*
G03*
X15065Y8170I-28J0D01*
G01*
Y8077D02*
G03*
X15093Y8105I0J28D01*
G01*
X15019Y8077D02*
G03*
X14976Y8034I0J-43D01*
G01*
Y6697D02*
G03*
X15019Y6654I43J0D01*
G01*
X15093Y6626D02*
G03*
X15065Y6654I-28J0D01*
G01*
Y6561D02*
G03*
X15093Y6589I0J28D01*
G01*
X15004Y6561D02*
G03*
X14976Y6533I0J-28D01*
G01*
Y6496D02*
G03*
X15004Y6468I28J0D01*
G01*
X15093Y6440D02*
G03*
X15065Y6468I-28J0D01*
G01*
Y6375D02*
G03*
X15093Y6403I0J28D01*
G01*
X15004Y6375D02*
G03*
X14976Y6347I0J-28D01*
G01*
Y6310D02*
G03*
X15004Y6282I28J0D01*
G01*
X15093Y6254D02*
G03*
X15065Y6282I-28J0D01*
G01*
Y6189D02*
G03*
X15093Y6217I0J28D01*
G01*
X15019Y6189D02*
G03*
X14976Y6147I0J-43D01*
G01*
X15038Y8967D02*
X15415D01*
X15010Y8940D02*
X15038Y8967D01*
X15415D02*
X15513Y8869D01*
X14995Y9070D02*
X15458D01*
X14873Y8948D02*
X14995Y9070D01*
X15458D02*
X15616Y8911D01*
X14976Y8906D02*
X15010Y8940D01*
X14976Y8770D02*
Y8906D01*
X15019Y8727D02*
X15065D01*
X15093Y8662D02*
Y8699D01*
X15004Y8634D02*
X15065D01*
X14976Y8569D02*
Y8606D01*
X15004Y8541D02*
X15065D01*
X15093Y8476D02*
Y8513D01*
X15004Y8448D02*
X15065D01*
X14976Y8383D02*
Y8421D01*
X15004Y8356D02*
X15065D01*
X15093Y8291D02*
Y8328D01*
X15004Y8263D02*
X15065D01*
X14976Y8198D02*
Y8235D01*
X15004Y8170D02*
X15065D01*
X15093Y8105D02*
Y8142D01*
X15019Y8077D02*
X15065D01*
X14976Y7920D02*
Y8034D01*
Y6790D02*
X14996Y6809D01*
X14976Y6697D02*
Y6790D01*
X15019Y6654D02*
X15065D01*
X15093Y6589D02*
Y6626D01*
X15004Y6561D02*
X15065D01*
X14976Y6496D02*
Y6533D01*
X15004Y6468D02*
X15065D01*
X15093Y6403D02*
Y6440D01*
X15004Y6375D02*
X15065D01*
X14976Y6310D02*
Y6347D01*
X15004Y6282D02*
X15065D01*
X15093Y6217D02*
Y6254D01*
X15019Y6189D02*
X15065D01*
X14976Y6032D02*
Y6147D01*
Y4453D02*
Y6032D01*
X14996Y6809D02*
X15024Y6838D01*
X14976Y6915D02*
Y7920D01*
X14873Y6915D02*
Y8948D01*
X14976Y4453D02*
X15132Y4297D01*
X15360D01*
X14873Y4410D02*
X15089Y4194D01*
X14873Y4410D02*
Y6790D01*
X15089Y4194D02*
X15415D01*
X15616Y8752D02*
Y8911D01*
X15563Y8699D02*
X15616Y8752D01*
X15513Y8795D02*
Y8869D01*
X15471Y8752D02*
X15513Y8795D01*
X15551Y4331D02*
X15551D01*
X15415Y4194D02*
X15551Y4331D01*
X15408Y4345D02*
Y4414D01*
X15360Y4297D02*
X15408Y4345D01*
X15394Y4428D02*
X15408Y4414D01*
X15563Y8634D02*
Y8699D01*
X15551Y8622D02*
X15563Y8634D01*
X14825Y6867D02*
X14873Y6915D01*
X14825Y6852D02*
Y6867D01*
X15394Y8740D02*
X15406Y8752D01*
X15471D01*
X15024Y6852D02*
Y6867D01*
X14976Y6915D02*
X15024Y6867D01*
X15394Y4428D02*
Y4449D01*
X14825Y6838D02*
X14873Y6790D01*
X15024Y6838D02*
Y6852D01*
X14825Y6838D02*
Y6852D01*
D56*
X26806Y9196D02*
D03*
Y9346D02*
D03*
Y9496D02*
D03*
Y9646D02*
D03*
X15250Y10400D02*
D03*
X15400D02*
D03*
Y10250D02*
D03*
X15550Y10400D02*
D03*
Y10250D02*
D03*
X15700Y10400D02*
D03*
Y10250D02*
D03*
X15250D02*
D03*
X24156Y9983D02*
D03*
Y9833D02*
D03*
X24006D02*
D03*
X24156Y9683D02*
D03*
X24006D02*
D03*
X24156Y9533D02*
D03*
X24006D02*
D03*
Y9983D02*
D03*
X10881Y6999D02*
D03*
X6120Y10634D02*
D03*
X5670D02*
D03*
Y10484D02*
D03*
X5820Y10634D02*
D03*
Y10484D02*
D03*
X5970Y10634D02*
D03*
Y10484D02*
D03*
X6120D02*
D03*
X11Y1390D02*
D03*
Y1240D02*
D03*
Y1090D02*
D03*
Y1540D02*
D03*
X13417Y1318D02*
D03*
X13811Y1322D02*
D03*
X14227Y1322D02*
D03*
X20920Y2246D02*
D03*
Y2096D02*
D03*
Y1946D02*
D03*
Y2396D02*
D03*
X18654Y1529D02*
D03*
X18204D02*
D03*
Y1379D02*
D03*
X18354Y1529D02*
D03*
Y1379D02*
D03*
X18504Y1529D02*
D03*
Y1379D02*
D03*
X18654D02*
D03*
X4052Y3039D02*
D03*
X3602D02*
D03*
Y2889D02*
D03*
X3752Y3039D02*
D03*
Y2889D02*
D03*
X3902Y3039D02*
D03*
Y2889D02*
D03*
X4052D02*
D03*
X1152Y9445D02*
D03*
X1002D02*
D03*
Y9595D02*
D03*
X852Y9445D02*
D03*
Y9595D02*
D03*
X702Y9445D02*
D03*
Y9595D02*
D03*
X7023Y9347D02*
D03*
X15837Y3089D02*
D03*
X15980Y1600D02*
D03*
X15591D02*
D03*
X15394D02*
D03*
X14294Y4754D02*
D03*
X19402Y6989D02*
D03*
Y7178D02*
D03*
X15386Y7200D02*
D03*
X14345Y10085D02*
D03*
X15414Y2921D02*
D03*
X14493Y2948D02*
D03*
X14643Y2946D02*
D03*
X16777Y1600D02*
D03*
X16578D02*
D03*
X16179D02*
D03*
X17175D02*
D03*
X15984Y3189D02*
D03*
X17374Y1600D02*
D03*
X16190Y6809D02*
D03*
X15973Y7259D02*
D03*
X16495Y6413D02*
D03*
X17068Y6348D02*
D03*
X17643Y6720D02*
D03*
X17370Y6583D02*
D03*
X14706Y7258D02*
D03*
X3600Y3750D02*
D03*
X3250D02*
D03*
X3228Y5591D02*
D03*
X3425Y7165D02*
D03*
X10591Y6496D02*
D03*
X10797Y4768D02*
D03*
X11202Y6094D02*
D03*
X18465Y7124D02*
D03*
X7904Y7133D02*
D03*
X8151Y6357D02*
D03*
X7673Y7005D02*
D03*
X7387Y6626D02*
D03*
X11417Y2915D02*
D03*
X11645Y2842D02*
D03*
X2638Y4803D02*
D03*
X17638Y8858D02*
D03*
Y9094D02*
D03*
X4100Y4300D02*
D03*
X15845Y6241D02*
D03*
X17639Y4561D02*
D03*
X17244Y4094D02*
D03*
X16614Y5394D02*
D03*
X9945Y7654D02*
D03*
X9433Y6118D02*
D03*
X10200Y6886D02*
D03*
X9689Y7398D02*
D03*
X10200D02*
D03*
X9945Y6618D02*
D03*
Y7130D02*
D03*
X9689Y6874D02*
D03*
X11482Y4092D02*
D03*
X11224Y4116D02*
D03*
X13700Y3734D02*
D03*
X9950Y4850D02*
D03*
X14528Y7344D02*
D03*
X11733Y4092D02*
D03*
X8330Y1969D02*
D03*
X17244Y8386D02*
D03*
X16614Y9685D02*
D03*
X15150Y4000D02*
D03*
X14100Y5900D02*
D03*
X16788Y6485D02*
D03*
X14409Y8110D02*
D03*
X19039Y6130D02*
D03*
X16763Y3346D02*
D03*
X17913Y6564D02*
D03*
X15551Y4331D02*
D03*
X15551Y8622D02*
D03*
X15394Y8740D02*
D03*
X15394Y4449D02*
D03*
X14825Y6852D02*
D03*
X15024D02*
D03*
X15225Y5264D02*
D03*
X8677Y4588D02*
D03*
X8799Y8031D02*
D03*
X1152Y9595D02*
D03*
X3858Y6544D02*
D03*
X3707Y6543D02*
D03*
X7910Y7389D02*
D03*
X7642Y7396D02*
D03*
X11860Y2710D02*
D03*
X12042Y2707D02*
D03*
X7906Y6621D02*
D03*
X7658Y6625D02*
D03*
X7136Y6625D02*
D03*
X7393Y7393D02*
D03*
X7646Y7654D02*
D03*
X8465Y1535D02*
D03*
X8295D02*
D03*
X7718Y5221D02*
D03*
X13114Y2389D02*
D03*
X12750D02*
D03*
X7655Y5846D02*
D03*
X12929Y2389D02*
D03*
X8422Y6875D02*
D03*
X7386Y6344D02*
D03*
X9886Y2044D02*
D03*
X10266D02*
D03*
X9368D02*
D03*
X9705D02*
D03*
X9537D02*
D03*
X9028D02*
D03*
X9196D02*
D03*
X8503D02*
D03*
X8859D02*
D03*
X8673D02*
D03*
X12194Y2389D02*
D03*
X12378D02*
D03*
X12562D02*
D03*
X10084Y2044D02*
D03*
X7657Y6121D02*
D03*
X11488Y4578D02*
D03*
Y4322D02*
D03*
X11744Y4575D02*
D03*
Y4319D02*
D03*
X12000D02*
D03*
Y4575D02*
D03*
X19406Y6284D02*
D03*
X15512Y5236D02*
D03*
X18189Y6693D02*
D03*
X16339Y8307D02*
D03*
X18740Y6692D02*
D03*
X17244Y4803D02*
D03*
Y4331D02*
D03*
X18819Y4094D02*
D03*
X18031Y4567D02*
D03*
X17638Y4803D02*
D03*
X16339Y4016D02*
D03*
Y4213D02*
D03*
X19213Y4094D02*
D03*
Y4331D02*
D03*
X18425Y4803D02*
D03*
Y4331D02*
D03*
Y4094D02*
D03*
X16811Y4016D02*
D03*
X16339Y4409D02*
D03*
X16811D02*
D03*
Y4213D02*
D03*
X16811Y8504D02*
D03*
X16339Y8701D02*
D03*
X15551Y8386D02*
D03*
X15866Y8622D02*
D03*
X16811Y8307D02*
D03*
X17244Y9094D02*
D03*
Y8622D02*
D03*
X18425Y8386D02*
D03*
Y8622D02*
D03*
Y9094D02*
D03*
X19213Y8622D02*
D03*
Y8386D02*
D03*
X16339Y8504D02*
D03*
X18032Y8858D02*
D03*
X18819Y8386D02*
D03*
Y8858D02*
D03*
X8287Y4705D02*
D03*
X7520Y5217D02*
D03*
Y7264D02*
D03*
X7776Y6496D02*
D03*
X7264Y5728D02*
D03*
X7520Y5728D02*
D03*
X10079Y4449D02*
D03*
X11102Y4705D02*
D03*
X8287Y6240D02*
D03*
D57*
X23116Y7636D02*
D03*
X22283Y5083D02*
D03*
X21535Y5551D02*
D03*
Y5315D02*
D03*
D58*
X24311Y6545D02*
D03*
X22628Y4862D02*
D03*
X24311D02*
D03*
X23189Y5423D02*
D03*
Y5984D02*
D03*
X23750Y6545D02*
D03*
X23189Y4862D02*
D03*
X23750Y5423D02*
D03*
Y5984D02*
D03*
X23189Y6545D02*
D03*
X24311Y5423D02*
D03*
X22628Y6545D02*
D03*
X23750Y4862D02*
D03*
X22628Y5984D02*
D03*
Y5423D02*
D03*
X24311Y5984D02*
D03*
D59*
X21433Y5083D02*
X22283D01*
X19087Y2737D02*
X21433Y5083D01*
X14774Y2737D02*
X19087D01*
X14643Y2868D02*
X14774Y2737D01*
X14643Y2868D02*
Y2946D01*
X14495D02*
X14643D01*
X14493Y2948D02*
X14495Y2946D01*
X22650Y11050D02*
X23690Y10010D01*
Y8210D02*
Y10010D01*
X23116Y7636D02*
X23690Y8210D01*
X12100Y6400D02*
X13100Y7400D01*
X10687Y6400D02*
X12100D01*
X10591Y6496D02*
X10687Y6400D01*
X13100Y7400D02*
Y9500D01*
X14650Y11050D02*
X22650D01*
X13100Y9500D02*
X14650Y11050D01*
X10650Y4300D02*
X10950D01*
X10500Y4450D02*
X10650Y4300D01*
X10500Y4450D02*
Y4954D01*
X10204Y5250D02*
X10500Y4954D01*
X11102Y4452D02*
Y4705D01*
X10950Y4300D02*
X11102Y4452D01*
X9219Y5250D02*
X10204D01*
X9071Y5399D02*
X9219Y5250D01*
X9071Y5399D02*
Y6015D01*
X8845Y6240D02*
X9071Y6015D01*
D60*
X8287Y6240D02*
X8845D01*
M02*
