G04*
G04 #@! TF.GenerationSoftware,Altium Limited,Altium Designer,22.5.1 (42)*
G04*
G04 Layer_Physical_Order=5*
G04 Layer_Color=16746378*
%FSLAX24Y24*%
%MOIN*%
G70*
G04*
G04 #@! TF.SameCoordinates,15B8646E-C553-4937-87EE-17013A6B0CAB*
G04*
G04*
G04 #@! TF.FilePolarity,Positive*
G04*
G01*
G75*
%ADD10C,0.0079*%
%ADD13C,0.0050*%
%ADD33C,0.0177*%
%ADD53C,0.0100*%
%ADD56C,0.0118*%
%ADD57C,0.0157*%
%ADD58C,0.0315*%
%ADD59C,0.0150*%
%ADD61C,0.0157*%
%ADD62C,0.0200*%
%ADD63C,0.0400*%
%ADD64C,0.0350*%
%ADD65C,0.0300*%
%ADD66C,0.0270*%
%ADD67C,0.0236*%
%ADD68C,0.0250*%
%ADD69C,0.0090*%
%ADD70C,0.0120*%
%ADD71C,0.0240*%
%ADD72C,0.0160*%
G36*
X4509Y11077D02*
X4497Y11085D01*
X4478Y11092D01*
X4452Y11098D01*
X4420Y11104D01*
X4333Y11112D01*
X4151Y11118D01*
X4077Y11119D01*
Y11319D01*
X4151Y11319D01*
X4452Y11339D01*
X4478Y11345D01*
X4497Y11352D01*
X4509Y11360D01*
Y11077D01*
D02*
G37*
G36*
X8351Y11019D02*
X8273Y11016D01*
X8196Y11007D01*
X8122Y10993D01*
X8050Y10973D01*
X7981Y10948D01*
X7914Y10917D01*
X7849Y10880D01*
X7786Y10838D01*
X7726Y10789D01*
X7669Y10736D01*
X7103D01*
X7153Y10789D01*
X7189Y10838D01*
X7211Y10880D01*
X7220Y10917D01*
X7215Y10948D01*
X7196Y10973D01*
X7164Y10993D01*
X7118Y11007D01*
X7059Y11016D01*
X6986Y11019D01*
X7869Y11219D01*
X8351Y11019D01*
D02*
G37*
G36*
X22833Y10250D02*
X22754Y10247D01*
X22678Y10239D01*
X22603Y10225D01*
X22532Y10205D01*
X22462Y10179D01*
X22395Y10148D01*
X22330Y10111D01*
X22268Y10069D01*
X22208Y10021D01*
X22150Y9967D01*
X21584D01*
X21634Y10021D01*
X21670Y10069D01*
X21693Y10111D01*
X21701Y10148D01*
X21696Y10179D01*
X21678Y10205D01*
X21646Y10225D01*
X21600Y10239D01*
X21540Y10247D01*
X21467Y10250D01*
X22350Y10650D01*
X22833Y10250D01*
D02*
G37*
G36*
X19436Y10021D02*
X19435Y10011D01*
X19433Y9973D01*
X19431Y9719D01*
X19231D01*
X19225Y10025D01*
X19437D01*
X19436Y10021D01*
D02*
G37*
G36*
X10359Y10914D02*
X10315Y10848D01*
X10312Y10837D01*
X9538Y10062D01*
X9488Y9988D01*
X9471Y9900D01*
X9488Y9812D01*
X9496Y9800D01*
Y9400D01*
X9512Y9322D01*
X9548Y9268D01*
X9548Y9265D01*
X9550Y9263D01*
X9550Y9262D01*
X9565Y9034D01*
X9554Y9024D01*
X9516Y9013D01*
X9507Y9021D01*
X9467Y9038D01*
X9424D01*
X9384Y9021D01*
X9353Y8990D01*
X9336Y8950D01*
X9333Y8908D01*
X9289Y8908D01*
X9249Y8892D01*
X9219Y8861D01*
X9202Y8821D01*
Y8778D01*
X9219Y8737D01*
X9249Y8707D01*
X9270Y8698D01*
Y8644D01*
X9249Y8636D01*
X9219Y8605D01*
X9210Y8585D01*
X9156D01*
X9148Y8605D01*
X9117Y8636D01*
X9077Y8652D01*
X9033D01*
X8993Y8636D01*
X8963Y8605D01*
X8946Y8565D01*
Y8522D01*
X8963Y8482D01*
X8993Y8451D01*
X9014Y8442D01*
Y8388D01*
X8993Y8380D01*
X8963Y8349D01*
X8954Y8329D01*
X8900D01*
X8892Y8349D01*
X8861Y8380D01*
X8821Y8396D01*
X8778D01*
X8737Y8380D01*
X8707Y8349D01*
X8698Y8329D01*
X8644D01*
X8636Y8349D01*
X8605Y8380D01*
X8585Y8388D01*
Y8442D01*
X8605Y8451D01*
X8636Y8482D01*
X8652Y8522D01*
Y8565D01*
X8636Y8605D01*
X8605Y8636D01*
X8565Y8652D01*
X8522D01*
X8482Y8636D01*
X8451Y8605D01*
X8434Y8565D01*
Y8522D01*
X8451Y8482D01*
X8482Y8451D01*
X8502Y8442D01*
Y8388D01*
X8482Y8380D01*
X8451Y8349D01*
X8434Y8309D01*
Y8266D01*
X8451Y8226D01*
X8482Y8195D01*
X8522Y8178D01*
X8565D01*
X8605Y8195D01*
X8636Y8226D01*
X8644Y8246D01*
X8698D01*
X8707Y8226D01*
X8737Y8195D01*
X8778Y8178D01*
X8821D01*
X8861Y8195D01*
X8892Y8226D01*
X8900Y8246D01*
X8954D01*
X8963Y8226D01*
X8993Y8195D01*
X9033Y8178D01*
X9077D01*
X9117Y8195D01*
X9134Y8212D01*
X9184Y8192D01*
Y8031D01*
X9193Y7983D01*
X9221Y7941D01*
X9262Y7914D01*
X9311Y7904D01*
X9360Y7914D01*
X9401Y7941D01*
X9429Y7983D01*
X9438Y8031D01*
Y8196D01*
X9466Y8218D01*
X9515Y8197D01*
X9521Y8167D01*
X9549Y8125D01*
X9733Y7941D01*
X9739Y7937D01*
X9743Y7931D01*
X9926Y7748D01*
X9968Y7720D01*
X10016Y7710D01*
X10146D01*
X10339Y7517D01*
Y7137D01*
X10349Y7088D01*
X10377Y7047D01*
X10418Y7019D01*
X10467Y7009D01*
X10516Y7019D01*
X10557Y7047D01*
X10584Y7088D01*
X10594Y7137D01*
Y7498D01*
X10640Y7517D01*
X10912Y7246D01*
X10954Y7218D01*
X11002Y7208D01*
X11512D01*
X11562Y7158D01*
X11552Y7100D01*
X11522Y7070D01*
X11505Y7030D01*
Y6986D01*
X11522Y6946D01*
X11552Y6915D01*
X11592Y6899D01*
X11636D01*
X11676Y6915D01*
X11707Y6946D01*
X11765Y6955D01*
X12160Y6560D01*
X12201Y6532D01*
X12250Y6523D01*
X14745D01*
X14766Y6473D01*
X13910Y5616D01*
X13882Y5575D01*
X13873Y5526D01*
Y4687D01*
X13882Y4638D01*
X13910Y4597D01*
X14347Y4160D01*
X14373Y4143D01*
Y3950D01*
X14382Y3901D01*
X14410Y3860D01*
X14868Y3402D01*
X14909Y3374D01*
X14958Y3365D01*
X15007Y3374D01*
X15015Y3380D01*
X15395D01*
X15403Y3368D01*
Y3325D01*
X15388Y3303D01*
X15240D01*
X15182Y3291D01*
X15132Y3258D01*
X15015Y3141D01*
X14982Y3091D01*
X14979Y3074D01*
X14827D01*
X14778Y3064D01*
X14736Y3036D01*
X14709Y3034D01*
X14704Y3038D01*
X14664Y3055D01*
X14621D01*
X14581Y3038D01*
X14569Y3027D01*
X14555Y3041D01*
X14515Y3057D01*
X14471D01*
X14431Y3041D01*
X14401Y3010D01*
X14384Y2970D01*
Y2926D01*
X14401Y2886D01*
X14431Y2856D01*
X14471Y2839D01*
X14515D01*
X14555Y2856D01*
X14567Y2867D01*
X14581Y2853D01*
X14621Y2837D01*
X14664D01*
X14704Y2853D01*
X14710Y2859D01*
X14736Y2856D01*
X14778Y2829D01*
X14827Y2819D01*
X15003D01*
X15007Y2814D01*
X14983Y2764D01*
X13847D01*
X13030Y3581D01*
Y5179D01*
X13010Y5277D01*
X12955Y5359D01*
X12873Y5414D01*
X12817Y5426D01*
X11759Y6484D01*
X11693Y6528D01*
X11615Y6543D01*
X11537Y6528D01*
X11522Y6518D01*
X11507D01*
X11472Y6563D01*
Y6606D01*
X11455Y6646D01*
X11424Y6677D01*
X11384Y6693D01*
X11341D01*
X11301Y6677D01*
X11270Y6646D01*
X11253Y6606D01*
Y6563D01*
X11218Y6518D01*
X10765D01*
X10765Y6518D01*
X10712Y6507D01*
X10700Y6518D01*
X10683Y6558D01*
X10652Y6589D01*
X10612Y6605D01*
X10569D01*
X10529Y6589D01*
X10498Y6558D01*
X10481Y6518D01*
Y6474D01*
X10498Y6434D01*
X10521Y6411D01*
X10529Y6404D01*
X10534Y6371D01*
X10533Y6348D01*
X10487Y6302D01*
X10479D01*
X10475Y6302D01*
X10471Y6302D01*
X10423D01*
X10423Y6302D01*
X10355Y6288D01*
X10297Y6249D01*
X10297Y6249D01*
X10232Y6185D01*
X10152D01*
X10103Y6175D01*
X10062Y6147D01*
X10029Y6115D01*
X9975Y6131D01*
X9972Y6143D01*
X9934Y6201D01*
X9934Y6201D01*
X9489Y6645D01*
Y7008D01*
X9476Y7076D01*
X9453Y7110D01*
X9440Y7361D01*
X9438Y7364D01*
Y7520D01*
X9429Y7568D01*
X9401Y7610D01*
X9360Y7637D01*
X9311Y7647D01*
X9262Y7637D01*
X9221Y7610D01*
X9193Y7568D01*
X9184Y7520D01*
Y7389D01*
X9153Y7345D01*
X8946D01*
X8877Y7331D01*
X8819Y7292D01*
X8781Y7234D01*
X8775Y7203D01*
X8769Y7195D01*
X8768Y7190D01*
X8767Y7186D01*
X8764Y7181D01*
X8760Y7174D01*
X8755Y7166D01*
X8749Y7158D01*
X8720Y7123D01*
X8707Y7110D01*
X8704Y7103D01*
X8681Y7068D01*
X8672Y7020D01*
X8681Y6971D01*
X8709Y6930D01*
X8750Y6902D01*
X8799Y6892D01*
X8848Y6902D01*
X8881Y6924D01*
X8889Y6927D01*
X8915Y6952D01*
X8937Y6969D01*
X8945Y6976D01*
X8953Y6981D01*
X8960Y6985D01*
X8966Y6987D01*
X8967Y6988D01*
X9079D01*
X9133Y6934D01*
Y6879D01*
X9055D01*
X9006Y6870D01*
X8965Y6842D01*
X8937Y6801D01*
X8928Y6752D01*
X8937Y6703D01*
X8965Y6662D01*
X9006Y6634D01*
X9055Y6625D01*
X9133D01*
Y6571D01*
X9141Y6530D01*
X9104Y6487D01*
X8988D01*
X8889Y6586D01*
X8848Y6614D01*
X8799Y6624D01*
X8750Y6614D01*
X8709Y6586D01*
X8681Y6545D01*
X8675Y6511D01*
X8634Y6492D01*
X8624Y6491D01*
X8522Y6593D01*
X8543Y6643D01*
X8565D01*
X8605Y6660D01*
X8636Y6690D01*
X8652Y6730D01*
Y6774D01*
X8636Y6814D01*
X8605Y6844D01*
X8565Y6861D01*
X8531D01*
Y6896D01*
X8515Y6936D01*
X8484Y6967D01*
X8444Y6984D01*
X8400D01*
X8354Y7018D01*
Y7357D01*
X8497Y7365D01*
X8543Y7366D01*
X8549Y7368D01*
X8602Y7378D01*
X8651Y7412D01*
X8685Y7461D01*
X8689Y7486D01*
X8889Y7685D01*
X8917Y7727D01*
X8927Y7776D01*
X8917Y7824D01*
X8889Y7866D01*
X8848Y7893D01*
X8799Y7903D01*
X8750Y7893D01*
X8709Y7866D01*
X8517Y7674D01*
X8497Y7674D01*
X8355Y7677D01*
X8314Y7681D01*
X8306Y7682D01*
X7977Y8012D01*
X7988Y8071D01*
X7998Y8075D01*
X8029Y8105D01*
X8045Y8145D01*
Y8189D01*
X8029Y8229D01*
X7998Y8260D01*
X7958Y8276D01*
X7915D01*
X7890Y8320D01*
X7883Y8337D01*
X7852Y8367D01*
X7812Y8384D01*
X7769D01*
X7729Y8367D01*
X7698Y8337D01*
X7681Y8296D01*
Y8278D01*
X7679Y8277D01*
X7629Y8309D01*
X7612Y8349D01*
X7581Y8380D01*
X7541Y8396D01*
X7498D01*
X7458Y8380D01*
X7427Y8349D01*
X7419Y8329D01*
X7365D01*
X7356Y8349D01*
X7326Y8380D01*
X7285Y8396D01*
X7242D01*
X7202Y8380D01*
X7171Y8349D01*
X7163Y8329D01*
X7109D01*
X7100Y8349D01*
X7070Y8380D01*
X7030Y8396D01*
X6986D01*
X6946Y8380D01*
X6919Y8353D01*
X6912Y8349D01*
X6859Y8343D01*
X6857Y8345D01*
X6820Y8385D01*
X6775Y8442D01*
X6735Y8500D01*
X6700Y8561D01*
X6671Y8624D01*
X6647Y8690D01*
X6628Y8757D01*
X6615Y8827D01*
X6607Y8900D01*
X6605Y8954D01*
Y9594D01*
X7722Y10712D01*
X7762Y10748D01*
X7819Y10794D01*
X7877Y10834D01*
X7938Y10869D01*
X8001Y10898D01*
X8067Y10922D01*
X8134Y10940D01*
X8204Y10954D01*
X8277Y10962D01*
X8331Y10964D01*
X10337D01*
X10359Y10914D01*
D02*
G37*
G36*
X9801Y9286D02*
X9797Y9273D01*
X9793Y9254D01*
X9789Y9230D01*
X9784Y9166D01*
X9780Y9029D01*
X9780Y8973D01*
X9620D01*
X9620Y9029D01*
X9603Y9273D01*
X9599Y9286D01*
X9594Y9294D01*
X9806D01*
X9801Y9286D01*
D02*
G37*
G36*
X16068Y9047D02*
X15962Y8937D01*
X15887Y9012D01*
X15889Y9013D01*
X15893Y9016D01*
X15907Y9029D01*
X15997Y9118D01*
X16068Y9047D01*
D02*
G37*
G36*
X27094Y11545D02*
Y8732D01*
X26732D01*
Y8734D01*
X26647Y8723D01*
X26568Y8690D01*
X26500Y8638D01*
X26448Y8570D01*
X26415Y8491D01*
X26404Y8406D01*
X26405D01*
X26405Y8406D01*
Y7343D01*
X26405Y7343D01*
X26404D01*
X26412Y7279D01*
X26365Y7256D01*
X26205Y7416D01*
Y9000D01*
X26186Y9098D01*
X26130Y9180D01*
X25254Y10056D01*
X25275Y10106D01*
X25846D01*
X25944Y10125D01*
X26026Y10181D01*
X26082Y10263D01*
X26101Y10361D01*
X26082Y10459D01*
X26026Y10541D01*
X25944Y10596D01*
X25846Y10616D01*
X25331D01*
X24867Y11080D01*
X24784Y11135D01*
X24686Y11155D01*
X16806D01*
X16562Y11399D01*
X16479Y11454D01*
X16381Y11473D01*
X7869Y11473D01*
X4650D01*
X4552Y11454D01*
X4479Y11405D01*
X4479Y11405D01*
X4472Y11401D01*
X4462Y11397D01*
X4444Y11393D01*
X4149Y11373D01*
X4076Y11373D01*
X4074Y11371D01*
X2645D01*
X2603Y11363D01*
X2562Y11388D01*
X2553Y11398D01*
Y11400D01*
X2536Y11440D01*
X2506Y11471D01*
X2466Y11488D01*
X2422D01*
X2382Y11471D01*
X2352Y11440D01*
X2335Y11400D01*
Y11357D01*
X2352Y11317D01*
X2382Y11286D01*
X2422Y11270D01*
X2451D01*
X2486Y11240D01*
X2494Y11227D01*
X2492Y11219D01*
X2504Y11160D01*
X2537Y11110D01*
X2587Y11077D01*
X2645Y11066D01*
X4074D01*
X4076Y11064D01*
X4150Y11064D01*
X4330Y11058D01*
X4413Y11050D01*
X4442Y11045D01*
X4462Y11040D01*
X4472Y11036D01*
X4479Y11032D01*
X4479Y11032D01*
X4552Y10983D01*
X4650Y10964D01*
X7005D01*
X7054Y10962D01*
X7107Y10954D01*
X7141Y10944D01*
X7160Y10899D01*
X7143Y10867D01*
X7111Y10824D01*
X7078Y10788D01*
X6170Y9880D01*
X6115Y9798D01*
X6095Y9700D01*
Y8492D01*
Y8394D01*
X6071Y8379D01*
X6045Y8370D01*
X6011Y8384D01*
X5967D01*
X5927Y8367D01*
X5897Y8337D01*
X5880Y8296D01*
Y8253D01*
X5897Y8213D01*
X5927Y8182D01*
X5967Y8166D01*
X6011D01*
X6045Y8180D01*
X6071Y8170D01*
X6095Y8156D01*
Y6156D01*
X5403Y5463D01*
X4485D01*
X4483Y5468D01*
X4472Y5517D01*
X4503Y5548D01*
X4519Y5588D01*
Y5631D01*
X4503Y5671D01*
X4472Y5702D01*
X4432Y5719D01*
X4389D01*
X4349Y5702D01*
X4318Y5671D01*
X4270Y5685D01*
X4234Y5700D01*
X4211D01*
X3580Y6330D01*
X3498Y6385D01*
X3400Y6405D01*
X2838D01*
X2740Y6385D01*
X2657Y6330D01*
X2370Y6043D01*
X2315Y5960D01*
X2295Y5862D01*
X2315Y5765D01*
X2321Y5756D01*
Y5303D01*
X2338Y5215D01*
X2388Y5140D01*
X2462Y5091D01*
X2499Y5083D01*
X2708Y4874D01*
X2766Y4835D01*
X2835Y4822D01*
X2903Y4835D01*
X2930Y4853D01*
X2940Y4855D01*
X2944Y4858D01*
X2948Y4860D01*
X2953Y4862D01*
X2959Y4864D01*
X2968Y4866D01*
X2976Y4867D01*
X3017Y4871D01*
X3032Y4871D01*
X3040Y4874D01*
X3080Y4882D01*
X3122Y4910D01*
X3160Y4914D01*
X3167Y4908D01*
X3207Y4891D01*
X3250D01*
X3290Y4908D01*
X3294Y4912D01*
X3327Y4934D01*
X3359Y4912D01*
X3363Y4908D01*
X3403Y4891D01*
X3447D01*
X3487Y4908D01*
X3518Y4938D01*
X3534Y4978D01*
Y5022D01*
X3518Y5062D01*
X3487Y5092D01*
X3447Y5109D01*
X3403D01*
X3363Y5092D01*
X3359Y5088D01*
X3327Y5066D01*
X3294Y5088D01*
X3290Y5092D01*
X3250Y5109D01*
X3207D01*
X3167Y5092D01*
X3160Y5086D01*
X3122Y5090D01*
X3122Y5090D01*
X3080Y5118D01*
X3040Y5126D01*
X3032Y5129D01*
X3016Y5129D01*
X3002Y5130D01*
X2977Y5133D01*
X2968Y5134D01*
X2959Y5136D01*
X2953Y5138D01*
X2948Y5140D01*
X2946Y5141D01*
X2779Y5308D01*
Y5731D01*
X2943Y5895D01*
X3294D01*
X4161Y5028D01*
X4244Y4973D01*
X4342Y4954D01*
X4624D01*
X4626Y4952D01*
X4638Y4946D01*
X4652Y4936D01*
X4751Y4851D01*
Y4568D01*
X4503Y4321D01*
X4466Y4305D01*
X4435Y4274D01*
X4419Y4234D01*
Y4218D01*
X4416Y4214D01*
X4402Y4145D01*
X4416Y4077D01*
X4419Y4073D01*
Y4073D01*
X4435Y4033D01*
X4466Y4002D01*
X4504Y3986D01*
X4512Y3981D01*
X4581Y3967D01*
X4649Y3981D01*
X4656Y3985D01*
X4667D01*
X4707Y4002D01*
X4738Y4033D01*
X4751Y4063D01*
X5056Y4368D01*
X5095Y4426D01*
X5108Y4495D01*
Y4929D01*
X5108Y4929D01*
X5128Y4954D01*
X5508D01*
X5606Y4973D01*
X5689Y5028D01*
X6530Y5870D01*
X6581Y5945D01*
X6586Y5952D01*
X6599Y5989D01*
X6599D01*
Y5989D01*
X6643Y5985D01*
X6643Y5978D01*
Y5963D01*
X6660Y5922D01*
X6690Y5892D01*
X6711Y5883D01*
Y5829D01*
X6690Y5821D01*
X6660Y5790D01*
X6643Y5750D01*
Y5707D01*
X6660Y5667D01*
X6690Y5636D01*
X6718Y5624D01*
X6718Y5623D01*
X6715Y5573D01*
X6687Y5561D01*
X6656Y5531D01*
X6640Y5491D01*
Y5447D01*
X6656Y5407D01*
X6687Y5376D01*
X6705Y5369D01*
Y5315D01*
X6690Y5309D01*
X6660Y5278D01*
X6643Y5238D01*
Y5195D01*
X6660Y5155D01*
X6690Y5124D01*
X6730Y5107D01*
X6774D01*
X6814Y5124D01*
X6844Y5155D01*
X6853Y5175D01*
X6907D01*
X6915Y5155D01*
X6946Y5124D01*
X6986Y5107D01*
X7030D01*
X7070Y5124D01*
X7100Y5155D01*
X7117Y5195D01*
Y5238D01*
X7100Y5278D01*
X7070Y5309D01*
X7049Y5317D01*
Y5372D01*
X7070Y5380D01*
X7100Y5411D01*
X7117Y5451D01*
Y5494D01*
X7100Y5534D01*
X7070Y5565D01*
X7049Y5573D01*
Y5627D01*
X7070Y5636D01*
X7100Y5667D01*
X7109Y5687D01*
X7163D01*
X7171Y5667D01*
X7202Y5636D01*
X7242Y5619D01*
X7285D01*
X7326Y5636D01*
X7356Y5667D01*
X7365Y5687D01*
X7419D01*
X7427Y5667D01*
X7458Y5636D01*
X7498Y5619D01*
X7541D01*
X7581Y5636D01*
X7612Y5667D01*
X7629Y5707D01*
Y5734D01*
X7633Y5737D01*
X7677D01*
X7717Y5754D01*
X7748Y5785D01*
X7764Y5825D01*
Y5868D01*
X7748Y5908D01*
X7717Y5939D01*
X7677Y5955D01*
X7633D01*
X7593Y5939D01*
X7563Y5908D01*
X7546Y5868D01*
Y5841D01*
X7541Y5837D01*
X7498D01*
X7458Y5821D01*
X7427Y5790D01*
X7419Y5770D01*
X7365D01*
X7356Y5790D01*
X7326Y5821D01*
X7285Y5837D01*
X7242D01*
X7202Y5821D01*
X7171Y5790D01*
X7163Y5770D01*
X7109D01*
X7100Y5790D01*
X7070Y5821D01*
X7049Y5829D01*
Y5883D01*
X7070Y5892D01*
X7100Y5922D01*
X7111Y5947D01*
X7111Y5947D01*
X7117Y5963D01*
X7162Y5993D01*
X7162Y5994D01*
X7166Y5995D01*
X7202Y6010D01*
X7233Y6041D01*
X7250Y6081D01*
Y6124D01*
X7233Y6164D01*
X7202Y6195D01*
X7162Y6212D01*
X7119Y6218D01*
X7117Y6258D01*
Y6262D01*
X7100Y6302D01*
X7070Y6333D01*
X7030Y6349D01*
X6986D01*
X6946Y6333D01*
X6915Y6302D01*
X6899Y6262D01*
Y6218D01*
X6915Y6178D01*
X6946Y6148D01*
X6966Y6139D01*
Y6085D01*
X6946Y6077D01*
X6915Y6046D01*
X6907Y6026D01*
X6853D01*
X6844Y6046D01*
X6814Y6077D01*
X6774Y6093D01*
X6730D01*
X6690Y6077D01*
X6660Y6046D01*
X6653Y6032D01*
X6651Y6026D01*
X6608Y6038D01*
D01*
X6608Y6038D01*
X6605Y6085D01*
Y7644D01*
X6606Y7680D01*
X6610Y7740D01*
X6618Y7787D01*
X6618Y7789D01*
X6619Y7790D01*
X6648Y7805D01*
X6672Y7808D01*
X6676Y7806D01*
X6756Y7752D01*
X6854Y7733D01*
X6951Y7752D01*
X6960Y7758D01*
X7526D01*
X7540Y7738D01*
X7551Y7708D01*
X7537Y7675D01*
Y7632D01*
X7554Y7592D01*
X7585Y7561D01*
X7608Y7552D01*
X7604Y7499D01*
X7580Y7489D01*
X7549Y7458D01*
X7544Y7445D01*
X7490D01*
X7486Y7455D01*
X7455Y7486D01*
X7415Y7502D01*
X7372D01*
X7331Y7486D01*
X7301Y7455D01*
X7284Y7415D01*
Y7372D01*
X7301Y7331D01*
X7331Y7301D01*
X7372Y7284D01*
X7411D01*
Y7242D01*
X7427Y7202D01*
X7458Y7171D01*
X7498Y7155D01*
X7541D01*
X7581Y7171D01*
X7612Y7202D01*
X7627Y7238D01*
X7629Y7242D01*
X7629Y7243D01*
X7663Y7287D01*
X7675Y7292D01*
X7675Y7292D01*
X7689Y7298D01*
X7704Y7304D01*
X7734Y7335D01*
X7751Y7375D01*
Y7418D01*
X7734Y7458D01*
X7704Y7489D01*
X7680Y7498D01*
X7684Y7551D01*
X7708Y7561D01*
X7739Y7592D01*
X7742Y7599D01*
X7801Y7611D01*
X7868Y7543D01*
X7856Y7484D01*
X7848Y7481D01*
X7817Y7450D01*
X7801Y7410D01*
Y7367D01*
X7817Y7327D01*
X7848Y7296D01*
X7867Y7288D01*
X7865Y7235D01*
X7842Y7226D01*
X7811Y7195D01*
X7795Y7155D01*
Y7111D01*
X7796Y7107D01*
X7754Y7079D01*
X7735Y7098D01*
X7695Y7114D01*
X7652D01*
X7612Y7098D01*
X7581Y7067D01*
X7564Y7027D01*
Y6984D01*
X7581Y6943D01*
X7612Y6913D01*
X7652Y6896D01*
X7695D01*
X7735Y6913D01*
X7766Y6943D01*
X7782Y6984D01*
Y7027D01*
X7781Y7031D01*
X7823Y7059D01*
X7842Y7041D01*
X7882Y7024D01*
X7922D01*
Y7002D01*
X7939Y6962D01*
X7970Y6931D01*
X8007Y6916D01*
Y6746D01*
X7993Y6734D01*
X7957Y6718D01*
X7928Y6730D01*
X7885D01*
X7845Y6714D01*
X7814Y6683D01*
X7810Y6673D01*
X7756D01*
X7751Y6687D01*
X7720Y6717D01*
X7680Y6734D01*
X7636D01*
X7596Y6717D01*
X7566Y6687D01*
X7549Y6647D01*
X7547Y6633D01*
X7496Y6636D01*
X7496Y6648D01*
X7479Y6688D01*
X7448Y6719D01*
X7408Y6735D01*
X7365D01*
X7325Y6719D01*
X7294Y6688D01*
X7288Y6674D01*
X7234D01*
X7229Y6686D01*
X7198Y6717D01*
X7158Y6734D01*
X7115D01*
X7075Y6717D01*
X7044Y6686D01*
X7027Y6646D01*
Y6603D01*
X7044Y6563D01*
X7075Y6532D01*
X7115Y6516D01*
X7158D01*
X7198Y6532D01*
X7229Y6563D01*
X7235Y6577D01*
X7289D01*
X7294Y6564D01*
X7325Y6534D01*
X7365Y6517D01*
X7373D01*
X7376Y6512D01*
X7372Y6465D01*
X7364Y6453D01*
X7324Y6437D01*
X7294Y6406D01*
X7277Y6366D01*
Y6322D01*
X7294Y6282D01*
X7324Y6252D01*
X7364Y6235D01*
X7408D01*
X7448Y6252D01*
X7478Y6282D01*
X7495Y6322D01*
Y6341D01*
X7497Y6367D01*
X7540Y6387D01*
X7541D01*
X7581Y6404D01*
X7612Y6434D01*
X7621Y6455D01*
X7675D01*
X7683Y6434D01*
X7714Y6404D01*
X7754Y6387D01*
X7797D01*
X7837Y6404D01*
X7868Y6434D01*
X7881Y6466D01*
X7885Y6474D01*
X7928Y6512D01*
X7968Y6529D01*
X7995Y6555D01*
X8008Y6559D01*
X8053Y6558D01*
X8054Y6556D01*
X8101Y6509D01*
X8089Y6450D01*
X8089Y6450D01*
X8058Y6419D01*
X8042Y6379D01*
Y6336D01*
X8058Y6296D01*
X8089Y6265D01*
X8100Y6261D01*
Y6206D01*
X8096Y6205D01*
X8065Y6174D01*
X8049Y6134D01*
Y6091D01*
X8065Y6051D01*
X8096Y6020D01*
X8136Y6003D01*
X8179D01*
X8219Y6020D01*
X8250Y6051D01*
X8267Y6091D01*
Y6131D01*
X8309D01*
X8318Y6135D01*
X8368Y6101D01*
Y5745D01*
X8365Y5728D01*
X8378Y5660D01*
X8417Y5602D01*
X9045Y4974D01*
X9086Y4946D01*
X9100Y4895D01*
X9099Y4885D01*
X9084Y4850D01*
Y4807D01*
X9101Y4766D01*
X9131Y4736D01*
X9171Y4719D01*
X9215D01*
X9255Y4736D01*
X9286Y4766D01*
X9286Y4767D01*
X9290Y4770D01*
X9345Y4779D01*
X9356Y4768D01*
X9361Y4766D01*
X9402Y4726D01*
X9435Y4704D01*
X9474Y4696D01*
X9593D01*
X9614Y4646D01*
X9601Y4633D01*
X9584Y4593D01*
Y4558D01*
X9545D01*
X9505Y4541D01*
X9474Y4511D01*
X9458Y4471D01*
Y4427D01*
X9474Y4387D01*
X9505Y4356D01*
X9545Y4340D01*
X9589D01*
X9629Y4356D01*
X9659Y4387D01*
X9676Y4427D01*
Y4462D01*
X9715D01*
X9755Y4479D01*
X9786Y4509D01*
X9794Y4530D01*
X9848D01*
X9857Y4509D01*
X9888Y4479D01*
X9928Y4462D01*
X9970D01*
Y4427D01*
X9986Y4387D01*
X10017Y4356D01*
X10057Y4340D01*
X10100D01*
X10145Y4304D01*
Y3274D01*
X10162Y3187D01*
X10212Y3112D01*
X11603Y1722D01*
X11677Y1672D01*
X11765Y1655D01*
X14687D01*
X14696Y1636D01*
X14700Y1605D01*
X14652Y1568D01*
X14610Y1512D01*
X14583Y1448D01*
X14574Y1378D01*
X14575D01*
Y128D01*
X14518Y71D01*
X29D01*
X-165Y266D01*
Y7016D01*
X197D01*
X197Y7016D01*
Y7014D01*
X282Y7025D01*
X361Y7058D01*
X429Y7110D01*
X481Y7178D01*
X514Y7258D01*
X525Y7343D01*
X524D01*
Y8406D01*
X525D01*
X514Y8491D01*
X481Y8570D01*
X429Y8638D01*
X361Y8690D01*
X282Y8723D01*
X197Y8734D01*
Y8732D01*
X-165D01*
Y11545D01*
X29Y11740D01*
X26900D01*
X27094Y11545D01*
D02*
G37*
G36*
X16320Y10270D02*
X16402Y10215D01*
X16500Y10195D01*
X19100D01*
X19132Y10156D01*
X19127Y10131D01*
X19142Y10053D01*
X19171Y10010D01*
X19177Y9718D01*
X19178Y9715D01*
Y9367D01*
X19177Y9364D01*
X19189Y9305D01*
X19222Y9256D01*
X19225Y9254D01*
X19210Y9204D01*
X19191D01*
X19151Y9187D01*
X19120Y9156D01*
X19104Y9116D01*
Y9073D01*
X19120Y9033D01*
X19151Y9002D01*
Y8951D01*
X19120Y8920D01*
X19104Y8880D01*
Y8837D01*
X19120Y8796D01*
X19151Y8766D01*
X19191Y8749D01*
X19234D01*
X19274Y8766D01*
X19305Y8796D01*
X19322Y8837D01*
Y8880D01*
X19305Y8920D01*
X19274Y8951D01*
Y9002D01*
X19305Y9033D01*
X19322Y9073D01*
Y9116D01*
X19305Y9156D01*
X19294Y9167D01*
X19319Y9213D01*
X19330Y9211D01*
X19389Y9222D01*
X19438Y9256D01*
X19439Y9256D01*
X19472Y9306D01*
X19484Y9364D01*
Y9716D01*
X19485Y9719D01*
X19487Y9971D01*
X19488Y10000D01*
X19683Y10195D01*
X21486D01*
X21535Y10193D01*
X21588Y10186D01*
X21623Y10175D01*
X21641Y10130D01*
X21624Y10098D01*
X21592Y10056D01*
X21559Y10019D01*
X20854Y9314D01*
X20804Y9335D01*
Y9887D01*
X20788Y9965D01*
X20744Y10031D01*
X20678Y10075D01*
X20600Y10091D01*
X20522Y10075D01*
X20456Y10031D01*
X20412Y9965D01*
X20396Y9887D01*
Y9350D01*
X19352Y8306D01*
X19309Y8334D01*
X19322Y8364D01*
Y8408D01*
X19305Y8448D01*
X19274Y8478D01*
X19234Y8495D01*
X19191D01*
X19151Y8478D01*
X19120Y8448D01*
X19104Y8408D01*
Y8364D01*
X19120Y8324D01*
X19151Y8293D01*
X19191Y8277D01*
X19234D01*
X19265Y8289D01*
X19293Y8247D01*
X19150Y8104D01*
X17268D01*
X17261Y8107D01*
X17249Y8113D01*
X17235Y8122D01*
X17218Y8134D01*
X17133Y8209D01*
Y8272D01*
X17182Y8293D01*
X17222Y8277D01*
X17266D01*
X17306Y8293D01*
X17337Y8324D01*
X17353Y8364D01*
Y8408D01*
X17337Y8448D01*
X17306Y8478D01*
Y8530D01*
X17337Y8560D01*
X17353Y8600D01*
Y8644D01*
X17337Y8684D01*
X17306Y8715D01*
Y8766D01*
X17337Y8796D01*
X17353Y8837D01*
Y8880D01*
X17337Y8920D01*
X17306Y8951D01*
Y9002D01*
X17337Y9033D01*
X17353Y9073D01*
Y9116D01*
X17337Y9156D01*
X17306Y9187D01*
X17304Y9242D01*
X17653Y9591D01*
X17682Y9634D01*
X17692Y9685D01*
X17682Y9736D01*
X17653Y9779D01*
X17610Y9808D01*
X17559Y9818D01*
X17508Y9808D01*
X17465Y9779D01*
X16906Y9220D01*
X16878Y9177D01*
X16868Y9126D01*
Y9030D01*
X16833Y9007D01*
X16789D01*
X16749Y8990D01*
X16719Y8959D01*
X16702Y8919D01*
Y8876D01*
X16719Y8836D01*
X16749Y8805D01*
X16789Y8789D01*
X16833D01*
X16868Y8765D01*
Y8636D01*
X16833Y8613D01*
X16789D01*
X16749Y8596D01*
X16719Y8566D01*
X16702Y8526D01*
Y8482D01*
X16719Y8442D01*
X16723Y8438D01*
X16745Y8406D01*
X16723Y8373D01*
X16719Y8369D01*
X16702Y8329D01*
Y8285D01*
X16719Y8245D01*
X16749Y8215D01*
X16789Y8198D01*
X16833D01*
X16868Y8175D01*
Y8150D01*
X16878Y8099D01*
X16902Y8063D01*
X16905Y8055D01*
X16933Y8027D01*
X16969Y7988D01*
X16962Y7978D01*
X16949Y7913D01*
X16947Y7911D01*
X16946Y7906D01*
X16944Y7901D01*
X16938Y7891D01*
X16793Y7726D01*
X16754Y7687D01*
X16753Y7683D01*
X16616Y7546D01*
X16566Y7567D01*
Y7585D01*
X16549Y7625D01*
X16518Y7656D01*
X16478Y7672D01*
X16435D01*
X16395Y7656D01*
X16364Y7625D01*
X16348Y7585D01*
Y7541D01*
X16314Y7497D01*
X16304Y7494D01*
X16300Y7495D01*
X16294Y7501D01*
X16254Y7517D01*
X16246D01*
X16225Y7567D01*
X16234Y7576D01*
X16251Y7616D01*
Y7659D01*
X16234Y7700D01*
X16204Y7730D01*
X16163Y7747D01*
X16120D01*
X16080Y7730D01*
X16049Y7700D01*
X16033Y7659D01*
Y7616D01*
X16049Y7576D01*
X16080Y7545D01*
X16120Y7529D01*
X16128D01*
X16149Y7479D01*
X16140Y7470D01*
X16123Y7430D01*
Y7387D01*
X16140Y7346D01*
X16128Y7301D01*
X16127Y7300D01*
X16071Y7309D01*
X16066Y7321D01*
X16035Y7351D01*
X15995Y7368D01*
X15952D01*
X15912Y7351D01*
X15881Y7321D01*
X15864Y7281D01*
Y7237D01*
X15881Y7197D01*
X15912Y7166D01*
X15948Y7151D01*
X15957Y7132D01*
X15967Y7100D01*
X15785Y6918D01*
X15264D01*
X15216Y6909D01*
X15180Y6884D01*
X15144Y6889D01*
X15134Y6892D01*
X15122Y6902D01*
X15117Y6914D01*
X15086Y6945D01*
X15046Y6962D01*
X15003D01*
X14963Y6945D01*
X14957Y6940D01*
X14925Y6919D01*
X14892Y6940D01*
X14887Y6945D01*
X14847Y6962D01*
X14804D01*
X14763Y6945D01*
X14733Y6914D01*
X14716Y6874D01*
Y6831D01*
X14718Y6827D01*
X14684Y6777D01*
X12303D01*
X12217Y6863D01*
X12245Y6906D01*
X12262Y6899D01*
X12305D01*
X12345Y6915D01*
X12376Y6946D01*
X12393Y6986D01*
Y7030D01*
X12376Y7070D01*
X12345Y7100D01*
X12305Y7117D01*
X12262D01*
X12222Y7100D01*
X12191Y7070D01*
X12174Y7030D01*
Y6986D01*
X12181Y6970D01*
X12139Y6941D01*
X11967Y7113D01*
X11983Y7163D01*
X12023Y7180D01*
X12054Y7210D01*
X12071Y7250D01*
Y7294D01*
X12054Y7334D01*
X12023Y7364D01*
X11983Y7381D01*
X11940D01*
X11900Y7364D01*
X11869Y7334D01*
X11853Y7294D01*
X11803Y7278D01*
X11672Y7408D01*
X11676Y7427D01*
X11707Y7458D01*
X11723Y7498D01*
Y7541D01*
X11707Y7581D01*
X11676Y7612D01*
X11636Y7629D01*
X11592D01*
X11552Y7612D01*
X11522Y7581D01*
X11505Y7541D01*
Y7498D01*
X11482Y7463D01*
X11055D01*
X10778Y7740D01*
X10786Y7781D01*
X10817Y7812D01*
X10834Y7852D01*
Y7895D01*
X10817Y7935D01*
X10786Y7966D01*
X10746Y7983D01*
X10703D01*
X10663Y7966D01*
X10634Y7938D01*
X10624Y7937D01*
X10582Y7944D01*
X10569Y7974D01*
X10539Y8004D01*
X10499Y8021D01*
X10455D01*
X10415Y8004D01*
X10385Y7974D01*
X10368Y7933D01*
Y7920D01*
X10318Y7899D01*
X10289Y7928D01*
X10248Y7956D01*
X10199Y7965D01*
X10069D01*
X10011Y8024D01*
X10019Y8065D01*
X10049Y8096D01*
X10066Y8136D01*
Y8179D01*
X10049Y8219D01*
X10019Y8250D01*
X9979Y8267D01*
X9935D01*
X9895Y8250D01*
X9865Y8219D01*
X9823Y8211D01*
X9766Y8268D01*
Y8364D01*
X9775Y8369D01*
X9816Y8380D01*
X9838Y8358D01*
X9878Y8341D01*
X9922D01*
X9962Y8358D01*
X9992Y8388D01*
X10009Y8428D01*
Y8472D01*
X9992Y8512D01*
X9962Y8542D01*
X9922Y8559D01*
X9878D01*
X9838Y8542D01*
X9816Y8520D01*
X9775Y8531D01*
X9766Y8536D01*
Y8581D01*
X9767Y8584D01*
Y8667D01*
X9802Y8690D01*
X9845D01*
X9885Y8707D01*
X9916Y8737D01*
X9932Y8778D01*
Y8807D01*
X9967D01*
X10008Y8824D01*
X10038Y8855D01*
X10055Y8895D01*
Y8938D01*
X10038Y8978D01*
X10008Y9009D01*
X9967Y9025D01*
X9924D01*
X9884Y9009D01*
X9837Y9027D01*
X9834Y9030D01*
X9836Y9082D01*
X9885Y9104D01*
X9925Y9087D01*
X9968D01*
X10009Y9104D01*
X10039Y9135D01*
X10056Y9175D01*
Y9218D01*
X10039Y9258D01*
X10009Y9289D01*
X9968Y9305D01*
X9933D01*
X9907Y9329D01*
X9893Y9346D01*
X9904Y9400D01*
Y9779D01*
X10620Y10495D01*
X13776D01*
X13803Y10445D01*
X13781Y10412D01*
X13761Y10315D01*
Y9384D01*
X13781Y9286D01*
X13836Y9204D01*
X13871Y9169D01*
X13954Y9113D01*
X14009Y9102D01*
X14622Y8490D01*
Y8024D01*
X14619Y8020D01*
X14609Y7971D01*
Y7824D01*
X14517Y7728D01*
X14515Y7723D01*
X14504Y7712D01*
X14495Y7708D01*
X14464Y7677D01*
X14448Y7637D01*
Y7594D01*
X14464Y7554D01*
X14495Y7523D01*
X14535Y7506D01*
X14579D01*
X14619Y7523D01*
X14649Y7554D01*
X14660Y7579D01*
X14665Y7581D01*
X14754Y7669D01*
X14765Y7678D01*
X14786Y7683D01*
X14820Y7706D01*
X14861Y7665D01*
X14911Y7632D01*
X14969Y7620D01*
X15089D01*
X15089Y7620D01*
X15090Y7620D01*
X15091Y7619D01*
X15095Y7617D01*
X15204Y7521D01*
X15229Y7496D01*
X15234Y7494D01*
X15348Y7381D01*
X15380Y7360D01*
X15381Y7355D01*
X15371Y7310D01*
X15364D01*
X15324Y7293D01*
X15293Y7262D01*
X15277Y7222D01*
Y7179D01*
X15293Y7139D01*
X15324Y7108D01*
X15364Y7091D01*
X15407D01*
X15447Y7108D01*
X15478Y7139D01*
X15495Y7179D01*
Y7222D01*
X15478Y7262D01*
X15447Y7293D01*
X15429Y7301D01*
X15439Y7351D01*
X15507D01*
X15574Y7283D01*
X15578Y7275D01*
X15609Y7244D01*
X15649Y7227D01*
X15692D01*
X15732Y7244D01*
X15763Y7275D01*
X15779Y7315D01*
Y7358D01*
X15763Y7398D01*
X15732Y7429D01*
X15707Y7439D01*
X15623Y7524D01*
X15621Y7525D01*
X15601Y7573D01*
X15618Y7613D01*
Y7656D01*
X15601Y7696D01*
X15570Y7727D01*
X15530Y7744D01*
X15487D01*
X15447Y7727D01*
X15416Y7696D01*
X15410Y7681D01*
X15353Y7667D01*
X15351Y7670D01*
X15290Y7734D01*
X15265Y7765D01*
X15258Y7775D01*
X15253Y7782D01*
X15253Y7783D01*
X15253Y7784D01*
X15252Y7785D01*
X15251Y7788D01*
X15250Y7789D01*
X15247Y7801D01*
X15247Y7801D01*
X15286Y7847D01*
X15300D01*
X15340Y7864D01*
X15366Y7889D01*
X15402Y7890D01*
X15422Y7888D01*
X15450Y7860D01*
X15490Y7844D01*
X15533D01*
X15574Y7860D01*
X15604Y7891D01*
X15621Y7931D01*
Y7974D01*
X15604Y8015D01*
X15574Y8045D01*
X15533Y8062D01*
X15490D01*
X15450Y8045D01*
X15424Y8020D01*
X15388Y8019D01*
X15368Y8021D01*
X15340Y8049D01*
X15300Y8065D01*
X15257D01*
X15217Y8049D01*
X15186Y8018D01*
X15169Y7978D01*
Y7962D01*
X15126Y7922D01*
X15123Y7921D01*
X15100Y7926D01*
X15032D01*
X14978Y7980D01*
Y8507D01*
X14988Y8522D01*
X15004Y8600D01*
X14988Y8678D01*
X14944Y8744D01*
X14938Y8750D01*
X14957Y8796D01*
X15262D01*
X15285Y8762D01*
Y8718D01*
X15301Y8678D01*
X15332Y8648D01*
X15372Y8631D01*
X15415D01*
X15442Y8613D01*
Y8600D01*
X15459Y8560D01*
X15489Y8530D01*
X15529Y8513D01*
X15573D01*
X15613Y8530D01*
X15644Y8560D01*
X15660Y8600D01*
Y8644D01*
X15644Y8684D01*
X15613Y8715D01*
X15573Y8731D01*
X15538D01*
X15517Y8760D01*
X15539Y8808D01*
X15539Y8808D01*
X15541Y8809D01*
X15887D01*
X15936Y8819D01*
X15977Y8847D01*
X16005Y8888D01*
X16009Y8907D01*
X16107Y9010D01*
X16109Y9015D01*
X16150Y9056D01*
X16173Y9089D01*
X16180Y9128D01*
Y9276D01*
X16173Y9315D01*
X16150Y9348D01*
X16084Y9415D01*
X16077Y9432D01*
X16046Y9463D01*
X16006Y9479D01*
X15979D01*
X15952Y9496D01*
X15936Y9522D01*
Y9549D01*
X15919Y9589D01*
X15889Y9620D01*
X15848Y9637D01*
X15805D01*
X15765Y9620D01*
X15734Y9589D01*
X15718Y9549D01*
Y9506D01*
X15734Y9466D01*
X15765Y9435D01*
X15805Y9419D01*
X15832D01*
X15859Y9402D01*
X15875Y9375D01*
Y9358D01*
X15857Y9334D01*
X15834Y9317D01*
X15800D01*
X15760Y9301D01*
X15729Y9270D01*
X15713Y9230D01*
Y9186D01*
X15729Y9146D01*
X15760Y9116D01*
X15763Y9114D01*
X15753Y9064D01*
X15578D01*
X15575Y9067D01*
X15574Y9111D01*
X15578Y9125D01*
X15604Y9151D01*
X15621Y9191D01*
Y9234D01*
X15604Y9274D01*
X15574Y9305D01*
X15533Y9322D01*
X15490D01*
X15450Y9305D01*
X15419Y9274D01*
X15403Y9234D01*
Y9191D01*
X15419Y9151D01*
X15397Y9102D01*
X15311D01*
X15289Y9151D01*
X15306Y9191D01*
Y9234D01*
X15289Y9274D01*
X15259Y9305D01*
X15219Y9322D01*
X15175D01*
X15135Y9305D01*
X15104Y9274D01*
X15088Y9234D01*
Y9191D01*
X15104Y9151D01*
X15082Y9102D01*
X14586D01*
X14298Y9391D01*
X14287Y9446D01*
X14271Y9470D01*
Y10209D01*
X14569Y10507D01*
X16083D01*
X16320Y10270D01*
D02*
G37*
G36*
X21188Y7998D02*
X21179Y8005D01*
X21156Y8023D01*
X21149Y8027D01*
X21142Y8030D01*
X21136Y8033D01*
X21131Y8035D01*
X21126Y8036D01*
X21121Y8037D01*
Y8187D01*
X21126Y8187D01*
X21131Y8188D01*
X21136Y8190D01*
X21142Y8193D01*
X21149Y8196D01*
X21156Y8201D01*
X21171Y8211D01*
X21188Y8225D01*
Y7998D01*
D02*
G37*
G36*
X25695Y8894D02*
Y7627D01*
X25649Y7608D01*
X25407Y7850D01*
X25364Y7878D01*
X25314Y7888D01*
X24765D01*
X24715Y7878D01*
X24672Y7850D01*
X24553Y7731D01*
X24546Y7720D01*
X24537Y7711D01*
X24532Y7699D01*
X24524Y7688D01*
X24522Y7675D01*
X24517Y7663D01*
Y7650D01*
X24514Y7638D01*
X24517Y7625D01*
Y7612D01*
X24522Y7600D01*
X24524Y7588D01*
X24532Y7577D01*
X24537Y7565D01*
X24546Y7556D01*
X24553Y7545D01*
X24564Y7538D01*
X24573Y7529D01*
X24585Y7524D01*
X24595Y7517D01*
X24608Y7514D01*
X24620Y7509D01*
X24633D01*
X24646Y7507D01*
X24658Y7509D01*
X24671D01*
X24683Y7514D01*
X24696Y7517D01*
X24707Y7524D01*
X24719Y7529D01*
X24728Y7538D01*
X24737Y7544D01*
X24745Y7542D01*
X24764Y7533D01*
X24783Y7519D01*
Y7469D01*
X24804Y7419D01*
X24843Y7380D01*
X24894Y7358D01*
X24900Y7308D01*
X24897Y7301D01*
Y7245D01*
X24918Y7194D01*
X24957Y7155D01*
X25008Y7134D01*
X25063D01*
X25114Y7155D01*
X25153Y7194D01*
X25174Y7245D01*
Y7301D01*
X25153Y7351D01*
X25114Y7390D01*
X25063Y7412D01*
X25057Y7462D01*
X25060Y7469D01*
Y7525D01*
X25039Y7576D01*
X25039Y7576D01*
X25059Y7626D01*
X25260D01*
X25490Y7395D01*
Y7174D01*
X25500Y7124D01*
X25528Y7081D01*
X25595Y7015D01*
X25583Y6956D01*
X25562Y6948D01*
X25523Y6909D01*
X25502Y6858D01*
Y6802D01*
X25509Y6785D01*
X25512Y6732D01*
X25473Y6693D01*
X25452Y6642D01*
Y6615D01*
X25402Y6595D01*
X24985Y7012D01*
X24942Y7040D01*
X24892Y7050D01*
X24728D01*
X24711Y7058D01*
X24656D01*
X24605Y7037D01*
X24582Y7014D01*
X24550Y7004D01*
X24519Y7015D01*
X24496Y7038D01*
X24445Y7059D01*
X24390D01*
X24339Y7038D01*
X24300Y6999D01*
X24279Y6948D01*
Y6893D01*
X24300Y6842D01*
X24339Y6803D01*
X24390Y6782D01*
X24445D01*
X24496Y6803D01*
X24541Y6801D01*
X24542Y6801D01*
X24556Y6787D01*
X24557Y6781D01*
X24547Y6771D01*
X24526Y6720D01*
Y6665D01*
X24547Y6614D01*
X24586Y6575D01*
X24604Y6568D01*
X24773Y6399D01*
X24745Y6356D01*
X24713Y6370D01*
X24657D01*
X24607Y6349D01*
X24568Y6310D01*
X24546Y6259D01*
Y6204D01*
X24568Y6153D01*
X24607Y6114D01*
Y6062D01*
X24568Y6023D01*
X24546Y5972D01*
Y5917D01*
X24568Y5866D01*
X24607Y5827D01*
X24657Y5806D01*
X24713D01*
X24722Y5810D01*
X24772Y5777D01*
Y4668D01*
X24724Y4645D01*
X24673Y4666D01*
X24618D01*
X24567Y4645D01*
X24528Y4606D01*
X24521Y4588D01*
X24096Y4163D01*
X24067Y4121D01*
X24057Y4070D01*
Y3948D01*
X24007Y3915D01*
X23999Y3918D01*
X23944D01*
X23893Y3897D01*
X23893Y3897D01*
X23855Y3881D01*
X23816Y3920D01*
X23765Y3941D01*
X23710D01*
X23659Y3920D01*
X23620Y3881D01*
X23561Y3868D01*
X23541Y3882D01*
Y6700D01*
X23534Y6735D01*
X23514Y6764D01*
X23305Y6974D01*
X23275Y6994D01*
X23240Y7001D01*
X22972D01*
X22967Y7003D01*
X22952Y7004D01*
X22948Y7004D01*
X22944Y7005D01*
X22942Y7005D01*
X22940Y7006D01*
X22940Y7006D01*
X22939Y7007D01*
X22938Y7007D01*
X22938Y7007D01*
X22936Y7007D01*
X22935Y7007D01*
X22933Y7008D01*
X22922Y7019D01*
X22875Y7038D01*
X22823D01*
X22776Y7019D01*
X22740Y6983D01*
X22720Y6935D01*
Y6884D01*
X22740Y6837D01*
X22776Y6801D01*
X22823Y6781D01*
X22875D01*
X22922Y6801D01*
X22933Y6811D01*
X22935Y6812D01*
X22936Y6812D01*
X22938Y6812D01*
X22938Y6813D01*
X22939Y6813D01*
X22940Y6814D01*
X22940Y6814D01*
X22942Y6814D01*
X22944Y6815D01*
X22947Y6815D01*
X22959Y6816D01*
X22966Y6816D01*
X22971Y6819D01*
X23203D01*
X23359Y6662D01*
Y4515D01*
X23313Y4495D01*
X22976Y4832D01*
Y5550D01*
X22976Y5550D01*
X22971Y5579D01*
X22954Y5604D01*
X22754Y5804D01*
X22729Y5821D01*
X22700Y5826D01*
X22434D01*
X22433Y5828D01*
X22431Y5830D01*
X22430Y5833D01*
X22430Y5835D01*
X22429Y5839D01*
X22428Y5842D01*
X22428Y5847D01*
X22428Y5853D01*
X22424Y5862D01*
Y5878D01*
X22404Y5926D01*
X22368Y5962D01*
X22320Y5981D01*
X22269D01*
X22222Y5962D01*
X22186Y5926D01*
X22166Y5878D01*
Y5827D01*
X22186Y5780D01*
X22204Y5762D01*
X22220Y5737D01*
X22204Y5697D01*
X22193Y5686D01*
X22174Y5639D01*
Y5588D01*
X22193Y5540D01*
X22211Y5523D01*
X22221Y5485D01*
X22209Y5459D01*
X22188Y5438D01*
X22168Y5391D01*
Y5340D01*
X22188Y5292D01*
X22224Y5256D01*
X22229Y5254D01*
Y5200D01*
X22210Y5192D01*
X22174Y5156D01*
X22154Y5108D01*
Y5057D01*
X22174Y5010D01*
X22210Y4974D01*
X22257Y4954D01*
X22309D01*
X22356Y4974D01*
X22392Y5010D01*
X22412Y5057D01*
Y5108D01*
X22392Y5156D01*
X22356Y5192D01*
X22351Y5194D01*
Y5248D01*
X22370Y5256D01*
X22406Y5292D01*
X22425Y5340D01*
Y5391D01*
X22406Y5438D01*
X22389Y5455D01*
X22378Y5493D01*
X22390Y5519D01*
X22412Y5540D01*
X22431Y5588D01*
Y5639D01*
X22454Y5674D01*
X22668D01*
X22824Y5518D01*
Y4800D01*
X22829Y4771D01*
X22846Y4746D01*
X23259Y4333D01*
Y3760D01*
X23265Y3731D01*
X23282Y3706D01*
X23374Y3614D01*
Y3433D01*
X23324Y3423D01*
X23306Y3464D01*
X23267Y3503D01*
X23217Y3524D01*
X23161D01*
X23110Y3503D01*
X23071Y3464D01*
X23050Y3413D01*
Y3358D01*
X23071Y3307D01*
X23110Y3268D01*
X23161Y3247D01*
X23217D01*
X23267Y3268D01*
X23306Y3307D01*
X23324Y3349D01*
X23374Y3339D01*
Y2643D01*
X23131Y2401D01*
X23115Y2377D01*
X23109Y2347D01*
Y2117D01*
X22768Y1776D01*
X22400D01*
X22371Y1771D01*
X22346Y1754D01*
X22164Y1573D01*
X22154D01*
X22149Y1575D01*
X22144Y1575D01*
X22141Y1576D01*
X22138Y1576D01*
X22135Y1577D01*
X22132Y1579D01*
X22128Y1581D01*
X22124Y1584D01*
X22120Y1587D01*
X22115Y1591D01*
X22109Y1597D01*
X22099Y1601D01*
X22086Y1614D01*
X22035Y1635D01*
X21980D01*
X21929Y1614D01*
X21890Y1575D01*
X21869Y1524D01*
Y1468D01*
X21890Y1418D01*
X21929Y1379D01*
X21980Y1357D01*
X22035D01*
X22086Y1379D01*
X22099Y1391D01*
X22109Y1395D01*
X22115Y1401D01*
X22120Y1405D01*
X22124Y1409D01*
X22128Y1411D01*
X22132Y1413D01*
X22135Y1415D01*
X22138Y1416D01*
X22141Y1416D01*
X22144Y1417D01*
X22149Y1417D01*
X22154Y1420D01*
X22196D01*
X22225Y1425D01*
X22250Y1442D01*
X22424Y1616D01*
X22477Y1613D01*
X22504Y1574D01*
X22499Y1563D01*
Y1508D01*
X22520Y1457D01*
X22539Y1438D01*
X22519Y1418D01*
X22498Y1367D01*
Y1312D01*
X22519Y1261D01*
X22558Y1222D01*
X22609Y1201D01*
X22664D01*
X22715Y1222D01*
X22754Y1261D01*
X22775Y1312D01*
Y1367D01*
X22754Y1418D01*
X22735Y1437D01*
X22755Y1457D01*
X22776Y1508D01*
Y1563D01*
X22803Y1608D01*
X22811Y1612D01*
X22820Y1613D01*
X22856Y1569D01*
X22854Y1563D01*
Y1508D01*
X22875Y1457D01*
X22895Y1437D01*
X22875Y1417D01*
X22854Y1366D01*
Y1311D01*
X22875Y1260D01*
X22914Y1221D01*
X22965Y1200D01*
X23020D01*
X23071Y1221D01*
X23110Y1260D01*
X23131Y1311D01*
Y1366D01*
X23112Y1410D01*
X23119Y1424D01*
X23147Y1428D01*
X23175Y1419D01*
X23182Y1402D01*
X23221Y1363D01*
X23272Y1342D01*
X23327D01*
X23378Y1363D01*
X23417Y1402D01*
X23438Y1453D01*
Y1508D01*
X23417Y1559D01*
X23405Y1571D01*
X23402Y1580D01*
X23399Y1583D01*
X23399Y1584D01*
X23398Y1585D01*
X23397Y1587D01*
X23396Y1589D01*
X23395Y1592D01*
X23395Y1596D01*
X23394Y1601D01*
X23394Y1607D01*
X23393Y1614D01*
X23391Y1620D01*
Y2262D01*
X23629Y2500D01*
X23649Y2530D01*
X23655Y2564D01*
Y3633D01*
X23705Y3666D01*
X23710Y3664D01*
X23765D01*
X23816Y3685D01*
X23816Y3685D01*
X23854Y3701D01*
X23893Y3662D01*
X23944Y3641D01*
X23999D01*
X24007Y3645D01*
X24057Y3611D01*
Y2203D01*
X23805Y1950D01*
X23791Y1929D01*
X23776Y1908D01*
X23776Y1908D01*
X23776Y1908D01*
X23771Y1881D01*
X23766Y1857D01*
Y1549D01*
X23661D01*
X23596Y1536D01*
X23540Y1499D01*
X23503Y1444D01*
X23490Y1378D01*
X23503Y1312D01*
X23540Y1257D01*
X23596Y1220D01*
X23661Y1207D01*
X23858D01*
X23924Y1220D01*
X23979Y1257D01*
X23989Y1271D01*
X24039Y1276D01*
X24043Y1271D01*
X24094Y1250D01*
X24149D01*
X24200Y1271D01*
X24239Y1310D01*
X24260Y1361D01*
Y1417D01*
X24239Y1467D01*
X24200Y1506D01*
X24199Y1510D01*
X24232Y1543D01*
X24254Y1594D01*
Y1649D01*
X24232Y1700D01*
X24193Y1739D01*
X24143Y1760D01*
X24087D01*
X24060Y1803D01*
X24057Y1831D01*
X24281Y2055D01*
X24296Y2077D01*
X24310Y2098D01*
X24310Y2098D01*
X24310Y2098D01*
X24315Y2125D01*
X24320Y2148D01*
Y3393D01*
X24370Y3414D01*
X24371Y3412D01*
X24422Y3391D01*
X24477D01*
X24528Y3412D01*
X24549Y3433D01*
X24572Y3410D01*
X24623Y3389D01*
X24678D01*
X24722Y3407D01*
X24752Y3396D01*
X24772Y3382D01*
Y2314D01*
X24739Y2281D01*
X24733Y2279D01*
X24728Y2274D01*
X24723Y2270D01*
X24720Y2267D01*
X24716Y2265D01*
X24713Y2263D01*
X24711Y2262D01*
X24709Y2262D01*
X24708Y2261D01*
X24707Y2261D01*
X24703Y2261D01*
X24695Y2257D01*
X24677D01*
X24626Y2236D01*
X24587Y2197D01*
X24566Y2146D01*
Y2091D01*
X24587Y2040D01*
X24588Y2039D01*
X24583Y1989D01*
X24574Y1983D01*
X24536Y1927D01*
X24523Y1862D01*
Y1398D01*
X24536Y1333D01*
X24574Y1277D01*
X24629Y1240D01*
X24695Y1227D01*
X24916D01*
X24917Y1227D01*
X24919Y1227D01*
X24984Y1240D01*
X25040Y1277D01*
X25056Y1301D01*
X25116D01*
X25132Y1276D01*
X25188Y1239D01*
X25253Y1226D01*
X25455D01*
X25455Y1226D01*
X25455Y1226D01*
X25488Y1232D01*
X25521Y1239D01*
X25521Y1239D01*
X25521Y1239D01*
X25549Y1257D01*
X25577Y1276D01*
X25577Y1276D01*
X25577Y1276D01*
X25599Y1298D01*
X25618Y1326D01*
X25626Y1339D01*
X25678Y1331D01*
X25678Y1331D01*
X25679Y1327D01*
X25716Y1272D01*
X25772Y1235D01*
X25837Y1222D01*
X26058D01*
X26060Y1222D01*
X26061Y1222D01*
X26127Y1235D01*
X26183Y1272D01*
X26195Y1290D01*
X26255D01*
X26270Y1269D01*
X26325Y1231D01*
X26391Y1218D01*
X26612D01*
X26614Y1219D01*
X26615Y1218D01*
X26681Y1231D01*
X26736Y1269D01*
X26773Y1324D01*
X26786Y1390D01*
Y1857D01*
X26773Y1922D01*
X26758Y1945D01*
X26748Y2093D01*
X26748Y2125D01*
X26745Y2133D01*
X26736Y2175D01*
X26708Y2218D01*
X26501Y2425D01*
Y5088D01*
X26527Y5100D01*
X26551Y5103D01*
X26585Y5070D01*
X26636Y5048D01*
X26691D01*
X26742Y5070D01*
X26742Y5070D01*
X26742Y5070D01*
X26793Y5048D01*
X26848D01*
X26899Y5070D01*
X26938Y5109D01*
X26959Y5159D01*
Y5215D01*
X26941Y5259D01*
X26945Y5263D01*
X26966Y5314D01*
Y5369D01*
X26945Y5420D01*
X26939Y5426D01*
X26959Y5474D01*
Y5530D01*
X26944Y5566D01*
X26962Y5658D01*
X26943Y5755D01*
X26888Y5838D01*
X26655Y6071D01*
Y6860D01*
X26635Y6958D01*
X26619Y6983D01*
X26642Y7017D01*
X26651Y7025D01*
X26732Y7014D01*
Y7016D01*
X26732Y7016D01*
X27094D01*
Y266D01*
X26900Y71D01*
X15167D01*
X15110Y128D01*
Y1378D01*
X15111D01*
X15102Y1448D01*
X15075Y1512D01*
X15033Y1568D01*
X14985Y1605D01*
X14989Y1636D01*
X14998Y1655D01*
X15263D01*
X15285Y1622D01*
Y1578D01*
X15301Y1538D01*
X15332Y1508D01*
X15372Y1491D01*
X15415D01*
X15455Y1508D01*
X15459Y1512D01*
X15492Y1534D01*
X15525Y1512D01*
X15529Y1508D01*
X15569Y1491D01*
X15612D01*
X15652Y1508D01*
X15683Y1538D01*
X15700Y1578D01*
Y1622D01*
X15722Y1655D01*
X15849D01*
X15871Y1622D01*
Y1578D01*
X15888Y1538D01*
X15918Y1508D01*
X15958Y1491D01*
X16002D01*
X16042Y1508D01*
X16047Y1513D01*
X16080Y1534D01*
X16112Y1513D01*
X16117Y1508D01*
X16157Y1491D01*
X16201D01*
X16241Y1508D01*
X16271Y1538D01*
X16288Y1578D01*
Y1622D01*
X16310Y1655D01*
X16447D01*
X16469Y1622D01*
Y1578D01*
X16485Y1538D01*
X16516Y1508D01*
X16556Y1491D01*
X16600D01*
X16640Y1508D01*
X16645Y1513D01*
X16677Y1534D01*
X16710Y1513D01*
X16715Y1508D01*
X16755Y1491D01*
X16799D01*
X16839Y1508D01*
X16869Y1538D01*
X16886Y1578D01*
Y1622D01*
X16908Y1655D01*
X17044D01*
X17066Y1622D01*
Y1578D01*
X17082Y1538D01*
X17113Y1508D01*
X17153Y1491D01*
X17196D01*
X17236Y1508D01*
X17241Y1513D01*
X17274Y1534D01*
X17307Y1513D01*
X17312Y1508D01*
X17352Y1491D01*
X17395D01*
X17435Y1508D01*
X17466Y1538D01*
X17483Y1578D01*
Y1622D01*
X17505Y1655D01*
X18821D01*
X18869Y1645D01*
X18967Y1665D01*
X19049Y1720D01*
X20674Y3344D01*
X20729Y3427D01*
X20748Y3524D01*
Y5937D01*
X20729Y6035D01*
X20674Y6117D01*
X20591Y6173D01*
X20494Y6192D01*
X20396Y6173D01*
X20346Y6139D01*
X20296Y6166D01*
Y7106D01*
X21121Y7931D01*
X21187Y7929D01*
X21195Y7921D01*
X21245Y7900D01*
X21301D01*
X21320Y7908D01*
X21384D01*
X21403Y7900D01*
X21458D01*
X21509Y7921D01*
X21548Y7960D01*
X21551Y7966D01*
X21553Y7967D01*
X21597Y8034D01*
X21612Y8112D01*
X21597Y8190D01*
X21561Y8243D01*
X21548Y8274D01*
X21509Y8313D01*
X21458Y8334D01*
X21403D01*
X21357Y8316D01*
X21346D01*
X21311Y8330D01*
X21297Y8366D01*
X21295Y8384D01*
X22049Y9139D01*
X23205D01*
X23302Y9158D01*
X23385Y9214D01*
X23440Y9296D01*
X23460Y9394D01*
X23440Y9491D01*
X23385Y9574D01*
X23302Y9629D01*
X23205Y9649D01*
X21980D01*
X21959Y9699D01*
X22203Y9943D01*
X22243Y9980D01*
X22300Y10025D01*
X22359Y10065D01*
X22420Y10100D01*
X22483Y10129D01*
X22548Y10153D01*
X22616Y10172D01*
X22686Y10185D01*
X22758Y10193D01*
X22812Y10195D01*
X24394D01*
X25695Y8894D01*
D02*
G37*
G36*
X17086Y8178D02*
X17184Y8091D01*
X17204Y8077D01*
X17222Y8066D01*
X17238Y8057D01*
X17252Y8052D01*
X17264Y8049D01*
X17101Y7886D01*
X17098Y7898D01*
X17093Y7912D01*
X17084Y7928D01*
X17073Y7946D01*
X17059Y7966D01*
X17021Y8011D01*
X16972Y8064D01*
X16944Y8093D01*
X17057Y8206D01*
X17086Y8178D01*
D02*
G37*
G36*
X6553Y8896D02*
X6561Y8819D01*
X6575Y8745D01*
X6595Y8673D01*
X6621Y8604D01*
X6652Y8537D01*
X6689Y8472D01*
X6731Y8409D01*
X6779Y8349D01*
X6833Y8292D01*
X6712Y7846D01*
X6681Y7873D01*
X6654Y7889D01*
X6629Y7893D01*
X6608Y7886D01*
X6591Y7868D01*
X6576Y7839D01*
X6565Y7798D01*
X6556Y7746D01*
X6552Y7683D01*
X6550Y7609D01*
X6150Y8492D01*
X6550Y8974D01*
X6553Y8896D01*
D02*
G37*
G36*
X10648Y7765D02*
X10573Y7690D01*
X10572Y7691D01*
X10569Y7695D01*
X10556Y7709D01*
X10467Y7800D01*
X10538Y7871D01*
X10648Y7765D01*
D02*
G37*
G36*
X14737Y7725D02*
X14735Y7724D01*
X14731Y7721D01*
X14717Y7708D01*
X14627Y7619D01*
X14556Y7690D01*
X14662Y7800D01*
X14737Y7725D01*
D02*
G37*
G36*
X17150Y7750D02*
X17140Y7748D01*
X17126Y7742D01*
X17109Y7731D01*
X17089Y7717D01*
X17039Y7675D01*
X16939Y7582D01*
X16899Y7543D01*
X16793Y7649D01*
X16832Y7689D01*
X16981Y7859D01*
X16992Y7876D01*
X16998Y7890D01*
X17000Y7900D01*
X17150Y7750D01*
D02*
G37*
G36*
X15201Y7766D02*
X15206Y7757D01*
X15212Y7746D01*
X15222Y7732D01*
X15250Y7699D01*
X15312Y7632D01*
X15338Y7606D01*
X15267Y7535D01*
X15241Y7561D01*
X15127Y7660D01*
X15116Y7667D01*
X15107Y7672D01*
X15100Y7673D01*
X15200Y7773D01*
X15201Y7766D01*
D02*
G37*
G36*
X8283Y7632D02*
X8293Y7629D01*
X8308Y7627D01*
X8352Y7623D01*
X8496Y7620D01*
X8543Y7620D01*
Y7420D01*
X8496Y7420D01*
X8283Y7408D01*
X8277Y7405D01*
Y7635D01*
X8283Y7632D01*
D02*
G37*
G36*
X16281Y7430D02*
X16345Y7375D01*
X16350Y7372D01*
X16353Y7371D01*
X16270Y7288D01*
X16268Y7291D01*
X16266Y7296D01*
X16262Y7301D01*
X16257Y7308D01*
X16243Y7325D01*
X16197Y7373D01*
X16268Y7444D01*
X16281Y7430D01*
D02*
G37*
G36*
X9399Y7096D02*
X9223D01*
X9225Y7101D01*
X9227Y7111D01*
X9229Y7125D01*
X9233Y7168D01*
X9236Y7358D01*
X9386D01*
X9399Y7096D01*
D02*
G37*
G36*
X8963Y7042D02*
X8955Y7041D01*
X8946Y7037D01*
X8936Y7033D01*
X8926Y7027D01*
X8915Y7021D01*
X8904Y7012D01*
X8879Y6992D01*
X8852Y6967D01*
X8746Y7073D01*
X8759Y7086D01*
X8792Y7124D01*
X8800Y7135D01*
X8807Y7146D01*
X8813Y7157D01*
X8817Y7166D01*
X8820Y7175D01*
X8822Y7184D01*
X8963Y7042D01*
D02*
G37*
G36*
X22909Y6962D02*
X22913Y6959D01*
X22917Y6957D01*
X22922Y6955D01*
X22928Y6953D01*
X22934Y6952D01*
X22941Y6951D01*
X22948Y6950D01*
X22964Y6949D01*
Y6870D01*
X22956Y6870D01*
X22941Y6869D01*
X22934Y6868D01*
X22928Y6866D01*
X22922Y6865D01*
X22917Y6863D01*
X22913Y6860D01*
X22909Y6858D01*
X22905Y6855D01*
Y6965D01*
X22909Y6962D01*
D02*
G37*
G36*
X15124Y6650D02*
X14836Y6469D01*
X14855Y6489D01*
X14869Y6507D01*
X14877Y6523D01*
X14880Y6537D01*
X14879Y6548D01*
X14872Y6558D01*
X14860Y6565D01*
X14842Y6571D01*
X14820Y6574D01*
X14793Y6575D01*
X14943Y6725D01*
X14972Y6726D01*
X15001Y6729D01*
X15029Y6735D01*
X15056Y6742D01*
X15082Y6752D01*
X15107Y6763D01*
X15131Y6777D01*
X15154Y6793D01*
X15177Y6811D01*
X15199Y6831D01*
X15124Y6650D01*
D02*
G37*
G36*
X17702Y7265D02*
X17800Y7245D01*
X18361D01*
X18382Y7195D01*
X18373Y7186D01*
X18356Y7146D01*
Y7102D01*
X18373Y7062D01*
X18404Y7032D01*
X18444Y7015D01*
X18445D01*
X18490Y6994D01*
X18507Y6954D01*
X18538Y6923D01*
X18578Y6906D01*
X18621D01*
X18661Y6923D01*
X18692Y6954D01*
X18709Y6994D01*
Y7037D01*
X18692Y7077D01*
X18661Y7108D01*
X18621Y7124D01*
X18620D01*
X18574Y7146D01*
X18558Y7186D01*
X18549Y7195D01*
X18569Y7245D01*
X19400D01*
X19498Y7265D01*
X19539Y7292D01*
X19589Y7265D01*
Y6640D01*
X19556Y6618D01*
X19513D01*
X19473Y6602D01*
X19442Y6571D01*
X19425Y6531D01*
Y6488D01*
X19430Y6476D01*
X19409Y6434D01*
X19375Y6466D01*
Y6476D01*
X19359Y6516D01*
X19328Y6546D01*
X19288Y6563D01*
X19245D01*
X19205Y6546D01*
X19174Y6516D01*
X19157Y6476D01*
Y6432D01*
X19174Y6392D01*
X19205Y6362D01*
X19245Y6345D01*
X19260D01*
X19296Y6307D01*
X19297Y6299D01*
Y6262D01*
X19314Y6222D01*
X19345Y6191D01*
X19385Y6174D01*
X19428D01*
X19468Y6191D01*
X19499Y6222D01*
X19515Y6262D01*
Y6305D01*
X19499Y6345D01*
X19500Y6347D01*
X19521Y6393D01*
X19547Y6398D01*
X19589Y6365D01*
Y5243D01*
X19542Y5224D01*
X18858Y5909D01*
X18797Y5950D01*
X18725Y5964D01*
X17081D01*
X17048Y6014D01*
X17051Y6021D01*
Y6064D01*
X17034Y6104D01*
X17003Y6135D01*
X16963Y6152D01*
X16920D01*
X16880Y6135D01*
X16849Y6104D01*
X16832Y6064D01*
Y6039D01*
X16802Y6013D01*
X16782Y6049D01*
Y6093D01*
X16766Y6133D01*
X16735Y6163D01*
X16695Y6180D01*
X16652D01*
X16612Y6163D01*
X16581Y6133D01*
X16564Y6093D01*
Y6073D01*
X16514Y6052D01*
X16411Y6156D01*
Y6277D01*
X16461Y6309D01*
X16473Y6304D01*
X16516D01*
X16556Y6320D01*
X16587Y6351D01*
X16604Y6391D01*
Y6434D01*
X16587Y6474D01*
X16556Y6505D01*
X16553Y6561D01*
X16623Y6630D01*
X16639Y6634D01*
X16705Y6678D01*
X17323Y7296D01*
X17655D01*
X17702Y7265D01*
D02*
G37*
G36*
X16033Y6078D02*
X16048Y6006D01*
X16089Y5945D01*
X16391Y5642D01*
X16452Y5601D01*
X16525Y5587D01*
X17427D01*
X17446Y5541D01*
X17377Y5472D01*
X17372Y5470D01*
X17282Y5381D01*
X17272Y5372D01*
X17251Y5368D01*
X17210Y5340D01*
X16817Y4947D01*
X16292D01*
X16243Y4937D01*
X16202Y4910D01*
X16064Y4773D01*
X16047Y4746D01*
X15685Y4384D01*
X15644Y4392D01*
X15613Y4423D01*
X15573Y4440D01*
X15529D01*
X15503Y4458D01*
Y4470D01*
X15486Y4511D01*
X15510Y4557D01*
X15512Y4558D01*
X15542Y4588D01*
X15559Y4628D01*
Y4672D01*
X15542Y4712D01*
X15512Y4742D01*
X15472Y4759D01*
X15428D01*
X15411Y4752D01*
X15272D01*
X15267Y4754D01*
X15141Y4755D01*
X15136Y4755D01*
X14977Y4914D01*
Y5422D01*
X15027Y5449D01*
X15040Y5440D01*
X15089Y5431D01*
X15138Y5440D01*
X15151Y5449D01*
X15155Y5449D01*
X15157Y5450D01*
X15206Y5453D01*
X15215Y5449D01*
X15258D01*
X15298Y5466D01*
X15329Y5496D01*
X15346Y5536D01*
Y5580D01*
X15329Y5620D01*
X15298Y5651D01*
X15258Y5667D01*
X15215D01*
X15205Y5663D01*
X15181Y5664D01*
X15164Y5665D01*
X15162Y5666D01*
X15001Y5826D01*
X15000Y5843D01*
X15065Y5907D01*
X15104Y5898D01*
X15114Y5894D01*
X15143Y5865D01*
X15183Y5849D01*
X15227D01*
X15267Y5865D01*
X15297Y5896D01*
X15314Y5936D01*
Y5980D01*
X15297Y6020D01*
X15273Y6044D01*
X15275Y6055D01*
X15281Y6074D01*
X15289Y6094D01*
X15300Y6115D01*
X15313Y6138D01*
X15330Y6161D01*
X15349Y6185D01*
X15398Y6239D01*
X15399Y6242D01*
X15488Y6330D01*
X15714D01*
X15743Y6280D01*
X15736Y6263D01*
Y6219D01*
X15752Y6179D01*
X15783Y6148D01*
X15823Y6132D01*
X15866D01*
X15906Y6148D01*
X15937Y6179D01*
X15954Y6219D01*
Y6263D01*
X15946Y6280D01*
X15975Y6330D01*
X16033D01*
Y6078D01*
D02*
G37*
G36*
X24774Y6224D02*
X24775Y6217D01*
X24776Y6211D01*
X24779Y6205D01*
X24782Y6198D01*
X24785Y6192D01*
X24790Y6185D01*
X24795Y6179D01*
X24800Y6172D01*
X24807Y6165D01*
X24751Y6110D01*
X24744Y6116D01*
X24738Y6122D01*
X24731Y6127D01*
X24725Y6131D01*
X24718Y6134D01*
X24712Y6137D01*
X24705Y6140D01*
X24699Y6141D01*
X24692Y6142D01*
X24686Y6143D01*
X24774Y6230D01*
X24774Y6224D01*
D02*
G37*
G36*
X12520Y5145D02*
Y4675D01*
X12474Y4656D01*
X12240Y4890D01*
X12199Y4918D01*
X12150Y4927D01*
X11545D01*
X11535Y4977D01*
X11556Y4986D01*
X11587Y5017D01*
X11603Y5057D01*
Y5100D01*
X11587Y5140D01*
X11556Y5171D01*
X11516Y5188D01*
X11514D01*
X11472Y5194D01*
X11467Y5234D01*
Y5238D01*
X11451Y5278D01*
X11420Y5309D01*
X11380Y5326D01*
X11337D01*
X11296Y5309D01*
X11266Y5278D01*
X11249Y5238D01*
Y5195D01*
X11237Y5176D01*
X11217D01*
X11177Y5160D01*
X11147Y5129D01*
X11130Y5089D01*
Y5086D01*
X11124Y5070D01*
X11081D01*
X11041Y5053D01*
X11010Y5022D01*
X10993Y4982D01*
Y4939D01*
X11010Y4899D01*
X11034Y4875D01*
X11037Y4820D01*
X11012Y4795D01*
X10985Y4753D01*
X10975Y4705D01*
X10985Y4656D01*
X11012Y4615D01*
X11054Y4587D01*
X11102Y4577D01*
X11151Y4587D01*
X11192Y4615D01*
X11250Y4673D01*
X11359D01*
X11366Y4667D01*
X11388Y4623D01*
X11379Y4600D01*
Y4557D01*
X11395Y4517D01*
X11426Y4486D01*
X11447Y4477D01*
Y4423D01*
X11426Y4415D01*
X11395Y4384D01*
X11379Y4344D01*
Y4301D01*
X11395Y4261D01*
X11419Y4237D01*
X11420Y4198D01*
X11416Y4180D01*
X11390Y4153D01*
X11383Y4137D01*
X11347Y4137D01*
X11331Y4142D01*
X11316Y4178D01*
X11286Y4208D01*
X11246Y4225D01*
X11202D01*
X11162Y4208D01*
X11131Y4178D01*
X11115Y4138D01*
Y4094D01*
X11131Y4054D01*
X11162Y4023D01*
X11202Y4007D01*
X11246D01*
X11286Y4023D01*
X11316Y4054D01*
X11323Y4070D01*
X11359Y4070D01*
X11375Y4065D01*
X11390Y4030D01*
X11420Y3999D01*
X11461Y3983D01*
X11504D01*
X11544Y3999D01*
X11575Y4030D01*
X11581Y4045D01*
X11635D01*
X11641Y4030D01*
X11671Y4000D01*
X11711Y3983D01*
X11755D01*
X11795Y4000D01*
X11826Y4030D01*
X11842Y4070D01*
Y4114D01*
X11826Y4154D01*
X11807Y4173D01*
X11806Y4217D01*
X11811Y4232D01*
X11836Y4257D01*
X11845Y4278D01*
X11899D01*
X11907Y4257D01*
X11938Y4227D01*
X11978Y4210D01*
X12021D01*
X12061Y4227D01*
X12092Y4257D01*
X12109Y4297D01*
Y4341D01*
X12092Y4381D01*
X12061Y4412D01*
X12041Y4420D01*
Y4474D01*
X12061Y4483D01*
X12092Y4513D01*
X12109Y4553D01*
Y4590D01*
X12125Y4603D01*
X12155Y4615D01*
X12323Y4447D01*
Y3340D01*
X12332Y3292D01*
X12360Y3250D01*
X13068Y2542D01*
X13057Y2487D01*
X13014Y2459D01*
X12991Y2482D01*
X12951Y2498D01*
X12908D01*
X12868Y2482D01*
X12840Y2454D01*
X12812Y2482D01*
X12772Y2498D01*
X12728D01*
X12688Y2482D01*
X12656Y2452D01*
X12624Y2482D01*
X12584Y2498D01*
X12540D01*
X12500Y2482D01*
X12470Y2452D01*
X12440Y2482D01*
X12400Y2498D01*
X12357D01*
X12317Y2482D01*
X12286Y2451D01*
X12256Y2482D01*
X12216Y2498D01*
X12172D01*
X12132Y2482D01*
X12101Y2451D01*
X12085Y2411D01*
Y2368D01*
X12101Y2327D01*
X12132Y2297D01*
X12172Y2280D01*
X12216D01*
X12256Y2297D01*
X12286Y2327D01*
X12317Y2297D01*
X12357Y2280D01*
X12400D01*
X12440Y2297D01*
X12470Y2327D01*
X12500Y2297D01*
X12540Y2280D01*
X12584D01*
X12624Y2297D01*
X12656Y2326D01*
X12688Y2297D01*
X12728Y2280D01*
X12772D01*
X12812Y2297D01*
X12840Y2325D01*
X12868Y2297D01*
X12908Y2280D01*
X12951D01*
X12991Y2297D01*
X13022Y2327D01*
X13052Y2297D01*
X13092Y2280D01*
X13136D01*
X13176Y2297D01*
X13206Y2327D01*
X13208Y2331D01*
X13267Y2343D01*
X13450Y2160D01*
X13431Y2113D01*
X11860D01*
X10604Y3369D01*
Y4465D01*
X10654Y4486D01*
X10661Y4479D01*
X10701Y4462D01*
X10744D01*
X10784Y4479D01*
X10815Y4510D01*
X10832Y4550D01*
Y4593D01*
X10815Y4633D01*
X10784Y4664D01*
X10744Y4680D01*
X10701D01*
X10661Y4664D01*
X10654Y4657D01*
X10604Y4678D01*
Y4751D01*
X10586Y4838D01*
X10537Y4913D01*
X10462Y4962D01*
X10411Y4973D01*
X10087Y5296D01*
X10104Y5350D01*
X10128Y5355D01*
X10169Y5382D01*
X10174Y5388D01*
X10178Y5389D01*
X10211Y5422D01*
X10313Y5519D01*
X10344Y5545D01*
X10352Y5551D01*
X10358Y5555D01*
X10403Y5563D01*
X10461Y5602D01*
X10499Y5660D01*
X10513Y5728D01*
Y5830D01*
X10563Y5862D01*
X10591Y5857D01*
X10639Y5867D01*
X10681Y5894D01*
X10708Y5935D01*
X10718Y5984D01*
Y6028D01*
X10814Y6124D01*
X10821Y6135D01*
X10839Y6135D01*
X10886Y6088D01*
Y6084D01*
X10903Y6044D01*
X10933Y6013D01*
X10973Y5996D01*
X11017D01*
X11057Y6013D01*
X11087Y6044D01*
X11104Y6084D01*
Y6127D01*
X11127Y6161D01*
X11505D01*
X12520Y5145D01*
D02*
G37*
G36*
X15358Y6276D02*
X15307Y6220D01*
X15286Y6193D01*
X15268Y6167D01*
X15252Y6141D01*
X15239Y6116D01*
X15230Y6092D01*
X15222Y6067D01*
X15218Y6044D01*
X15217Y6025D01*
X15218Y6023D01*
X15219Y6020D01*
X15221Y6017D01*
X15223Y6013D01*
X15226Y6010D01*
X15232Y6002D01*
X15236Y5998D01*
X15240Y5993D01*
X15170Y5923D01*
X15165Y5927D01*
X15153Y5937D01*
X15149Y5940D01*
X15146Y5942D01*
X15143Y5944D01*
X15140Y5945D01*
X15137Y5946D01*
X15134Y5946D01*
X15209Y6021D01*
X15067D01*
X15062Y6141D01*
X15167D01*
X15142Y6201D01*
X15071Y6271D01*
X15213Y6413D01*
X15358Y6276D01*
D02*
G37*
G36*
X8845Y6270D02*
X8887Y6242D01*
X8935Y6232D01*
X9175D01*
X9224Y6242D01*
X9265Y6270D01*
X9313Y6317D01*
X9629Y6001D01*
Y5619D01*
X9589Y5581D01*
X9545D01*
X9505Y5565D01*
X9474Y5534D01*
X9458Y5494D01*
Y5451D01*
X9474Y5411D01*
X9505Y5380D01*
X9545Y5363D01*
X9589D01*
X9629Y5326D01*
Y5324D01*
X9643Y5255D01*
X9681Y5197D01*
X9777Y5102D01*
X9748Y5059D01*
X9725Y5069D01*
X9682D01*
X9642Y5053D01*
X9611Y5022D01*
X9594Y4982D01*
Y4938D01*
X9568Y4900D01*
X9516D01*
X9505Y4910D01*
X9503Y4916D01*
X9472Y4947D01*
X9420Y5004D01*
X9382Y5050D01*
X9369Y5068D01*
X9359Y5084D01*
X9353Y5095D01*
X9351Y5101D01*
X9350Y5108D01*
X9348Y5112D01*
X9336Y5168D01*
X9298Y5226D01*
X9190Y5333D01*
X9219Y5376D01*
X9249Y5363D01*
X9292D01*
X9332Y5380D01*
X9363Y5411D01*
X9380Y5451D01*
Y5494D01*
X9363Y5534D01*
X9332Y5565D01*
X9292Y5581D01*
X9249D01*
X9209Y5565D01*
X9178Y5534D01*
X9162Y5494D01*
Y5451D01*
X9174Y5421D01*
X9132Y5392D01*
X8728Y5796D01*
X8731Y5847D01*
X8775Y5876D01*
X8778Y5875D01*
X8821D01*
X8861Y5892D01*
X8892Y5922D01*
X8908Y5963D01*
Y6006D01*
X8892Y6046D01*
X8861Y6077D01*
X8821Y6093D01*
X8778D01*
X8775Y6092D01*
X8725Y6126D01*
Y6316D01*
X8725Y6316D01*
X8724Y6320D01*
X8770Y6345D01*
X8845Y6270D01*
D02*
G37*
G36*
X14944Y5875D02*
X14948Y5819D01*
X14949Y5812D01*
X14950Y5806D01*
X14952Y5801D01*
X14954Y5798D01*
X14834D01*
X14836Y5801D01*
X14838Y5806D01*
X14839Y5812D01*
X14840Y5819D01*
X14842Y5838D01*
X14844Y5861D01*
X14844Y5890D01*
X14944D01*
X14944Y5875D01*
D02*
G37*
G36*
X22374Y5844D02*
X22374Y5836D01*
X22376Y5828D01*
X22377Y5821D01*
X22380Y5814D01*
X22382Y5807D01*
X22386Y5801D01*
X22390Y5795D01*
X22394Y5789D01*
X22399Y5784D01*
X22363Y5749D01*
X22358Y5754D01*
X22352Y5758D01*
X22347Y5762D01*
X22340Y5765D01*
X22334Y5768D01*
X22327Y5770D01*
X22319Y5772D01*
X22312Y5773D01*
X22304Y5774D01*
X22296Y5774D01*
X22374Y5852D01*
X22374Y5844D01*
D02*
G37*
G36*
X15138Y5616D02*
X15143Y5614D01*
X15149Y5613D01*
X15157Y5612D01*
X15177Y5610D01*
X15220Y5608D01*
X15237Y5608D01*
Y5508D01*
X15220Y5508D01*
X15149Y5503D01*
X15143Y5502D01*
X15138Y5500D01*
X15135Y5499D01*
Y5618D01*
X15138Y5616D01*
D02*
G37*
G36*
X10337Y5603D02*
X10331Y5602D01*
X10322Y5596D01*
X10310Y5587D01*
X10277Y5559D01*
X10174Y5461D01*
X10140Y5428D01*
X10034Y5534D01*
X10067Y5567D01*
X10208Y5725D01*
X10210Y5731D01*
X10337Y5603D01*
D02*
G37*
G36*
X19254Y4979D02*
X19250Y4922D01*
X19234Y4912D01*
X19191D01*
X19151Y4896D01*
X19120Y4865D01*
X19104Y4825D01*
Y4781D01*
X19120Y4741D01*
X19151Y4711D01*
Y4659D01*
X19120Y4629D01*
X19104Y4589D01*
Y4545D01*
X19120Y4505D01*
X19151Y4474D01*
X19191Y4458D01*
X19234D01*
X19269Y4435D01*
Y4227D01*
X19234Y4204D01*
X19191D01*
X19151Y4187D01*
X19120Y4156D01*
X19104Y4116D01*
Y4073D01*
X19120Y4033D01*
X19151Y4002D01*
X19161Y3998D01*
X19172Y3939D01*
X18530Y3296D01*
X18526Y3298D01*
X18482D01*
X18442Y3281D01*
X18411Y3251D01*
X18395Y3211D01*
Y3167D01*
X18397Y3163D01*
X18316Y3083D01*
X16682D01*
X16647Y3106D01*
X16632Y3109D01*
X16555Y3182D01*
X16553Y3312D01*
X16552Y3312D01*
X16557Y3324D01*
Y3368D01*
X16541Y3408D01*
X16510Y3438D01*
X16470Y3455D01*
X16427D01*
X16387Y3438D01*
X16356Y3408D01*
X16339Y3368D01*
Y3324D01*
X16345Y3312D01*
X16344Y3311D01*
X16343Y3185D01*
X16343Y3171D01*
X16331Y3153D01*
X16321Y3105D01*
X16325Y3083D01*
X16291Y3033D01*
X15969D01*
X15946Y3067D01*
Y3111D01*
X15929Y3151D01*
X15899Y3181D01*
X15871Y3193D01*
X15866Y3240D01*
X15866Y3245D01*
X15889Y3254D01*
X15919Y3285D01*
X15936Y3325D01*
Y3356D01*
X15970Y3378D01*
X15982Y3381D01*
X16045Y3318D01*
X16058Y3288D01*
X16088Y3258D01*
X16128Y3241D01*
X16172D01*
X16212Y3258D01*
X16242Y3288D01*
X16259Y3328D01*
Y3372D01*
X16242Y3412D01*
X16212Y3442D01*
X16182Y3455D01*
X16135Y3502D01*
X16155Y3552D01*
X16163D01*
X16204Y3569D01*
X16234Y3600D01*
X16251Y3640D01*
Y3683D01*
X16234Y3723D01*
X16204Y3754D01*
X16163Y3770D01*
X16120D01*
X16080Y3754D01*
X16049Y3723D01*
X16033Y3683D01*
Y3642D01*
X16032Y3639D01*
X16015Y3617D01*
X15976Y3616D01*
X15936Y3657D01*
Y3683D01*
X15919Y3723D01*
X15889Y3754D01*
X15848Y3770D01*
X15805D01*
X15765Y3754D01*
X15734Y3723D01*
X15718Y3683D01*
Y3640D01*
X15699Y3618D01*
X15662D01*
X15621Y3661D01*
Y3683D01*
X15604Y3723D01*
X15574Y3754D01*
X15533Y3770D01*
X15490D01*
X15450Y3754D01*
X15419Y3723D01*
X15403Y3683D01*
Y3652D01*
X15363Y3616D01*
X15319Y3620D01*
X15306Y3640D01*
Y3683D01*
X15289Y3723D01*
X15259Y3754D01*
X15219Y3770D01*
X15191D01*
X15165Y3787D01*
X15148Y3814D01*
Y3841D01*
X15132Y3881D01*
X15101Y3911D01*
X15061Y3928D01*
X15018D01*
X14978Y3911D01*
X14947Y3881D01*
X14930Y3841D01*
Y3797D01*
X14947Y3757D01*
X14978Y3726D01*
X15018Y3710D01*
X15045D01*
X15071Y3693D01*
X15088Y3667D01*
Y3640D01*
X15071Y3615D01*
X15018Y3612D01*
X14627Y4003D01*
Y4123D01*
X15108D01*
X15179Y4051D01*
X15220Y4024D01*
X15269Y4014D01*
X15622D01*
X15671Y4024D01*
X15712Y4051D01*
X16245Y4584D01*
X16262Y4610D01*
X16345Y4692D01*
X16677D01*
X16708Y4642D01*
X16702Y4628D01*
Y4585D01*
X16719Y4545D01*
X16749Y4514D01*
X16789Y4497D01*
X16833D01*
X16873Y4514D01*
X16903Y4545D01*
X16920Y4585D01*
Y4628D01*
X16911Y4650D01*
X16917Y4688D01*
X16932Y4711D01*
X16960Y4730D01*
X17099Y4869D01*
X17142Y4841D01*
X17135Y4825D01*
Y4781D01*
X17152Y4741D01*
X17182Y4711D01*
Y4659D01*
X17152Y4629D01*
X17135Y4589D01*
Y4545D01*
X17152Y4505D01*
X17182Y4474D01*
Y4423D01*
X17152Y4392D01*
X17135Y4352D01*
Y4309D01*
X17152Y4269D01*
X17182Y4238D01*
Y4187D01*
X17152Y4156D01*
X17135Y4116D01*
Y4073D01*
X17152Y4033D01*
X17182Y4002D01*
X17222Y3985D01*
X17266D01*
X17306Y4002D01*
X17337Y4033D01*
X17353Y4073D01*
Y4116D01*
X17337Y4156D01*
X17306Y4187D01*
Y4238D01*
X17337Y4269D01*
X17353Y4309D01*
Y4352D01*
X17337Y4392D01*
X17306Y4423D01*
Y4474D01*
X17337Y4505D01*
X17353Y4545D01*
Y4589D01*
X17337Y4629D01*
X17306Y4659D01*
Y4711D01*
X17337Y4741D01*
X17353Y4781D01*
Y4825D01*
X17337Y4865D01*
X17306Y4896D01*
X17266Y4912D01*
X17222D01*
X17207Y4906D01*
X17178Y4948D01*
X17390Y5160D01*
X17418Y5201D01*
X17422Y5220D01*
X17520Y5323D01*
X17522Y5328D01*
X17624Y5429D01*
X17657D01*
X17674Y5422D01*
X17718D01*
X17758Y5439D01*
X17789Y5470D01*
X17805Y5510D01*
Y5553D01*
X17828Y5587D01*
X18646D01*
X19254Y4979D01*
D02*
G37*
G36*
X17481Y5360D02*
X17375Y5250D01*
X17300Y5325D01*
X17302Y5326D01*
X17306Y5329D01*
X17320Y5342D01*
X17410Y5431D01*
X17481Y5360D01*
D02*
G37*
G36*
X2917Y5095D02*
X2925Y5091D01*
X2935Y5087D01*
X2945Y5084D01*
X2957Y5081D01*
X2969Y5079D01*
X2998Y5076D01*
X3014Y5075D01*
X3031Y5075D01*
Y4925D01*
X3014Y4925D01*
X2969Y4921D01*
X2957Y4919D01*
X2945Y4916D01*
X2935Y4913D01*
X2925Y4909D01*
X2917Y4905D01*
X2910Y4900D01*
Y5100D01*
X2917Y5095D01*
D02*
G37*
G36*
X4851Y5223D02*
X4857Y5208D01*
X4867Y5192D01*
X4879Y5173D01*
X4894Y5153D01*
X4935Y5105D01*
X5018Y5017D01*
X4841Y4840D01*
X4810Y4871D01*
X4685Y4980D01*
X4666Y4992D01*
X4650Y5001D01*
X4636Y5007D01*
X4624Y5010D01*
X4848Y5235D01*
X4851Y5223D01*
D02*
G37*
G36*
X9298Y5088D02*
X9303Y5074D01*
X9312Y5057D01*
X9324Y5038D01*
X9339Y5017D01*
X9379Y4968D01*
X9433Y4910D01*
X9465Y4878D01*
X9394Y4807D01*
X9362Y4839D01*
X9254Y4933D01*
X9233Y4948D01*
X9214Y4960D01*
X9198Y4968D01*
X9184Y4973D01*
X9172Y4975D01*
X9297Y5100D01*
X9298Y5088D01*
D02*
G37*
G36*
X15116Y4702D02*
X15121Y4702D01*
X15140Y4701D01*
X15267Y4700D01*
Y4600D01*
X15114Y4597D01*
Y4703D01*
X15116Y4702D01*
D02*
G37*
G36*
X10145Y4734D02*
Y4594D01*
X10107Y4565D01*
X10058Y4577D01*
Y4593D01*
X10042Y4633D01*
X10011Y4664D01*
X9971Y4680D01*
X9955D01*
X9932Y4683D01*
Y4726D01*
X9915Y4766D01*
X9885Y4797D01*
X9859Y4808D01*
X9818Y4849D01*
X9796Y4898D01*
X9812Y4938D01*
Y4982D01*
X9803Y5005D01*
X9845Y5034D01*
X10145Y4734D01*
D02*
G37*
G36*
X14723Y5545D02*
Y4861D01*
X14732Y4812D01*
X14760Y4771D01*
X14971Y4560D01*
X15012Y4532D01*
X15061Y4523D01*
X15110Y4532D01*
X15126Y4543D01*
X15266Y4546D01*
X15281Y4530D01*
X15296Y4498D01*
X15285Y4470D01*
Y4427D01*
X15301Y4387D01*
X15332Y4356D01*
X15372Y4340D01*
X15374D01*
X15415Y4295D01*
X15415Y4280D01*
X15405Y4269D01*
X15322D01*
X15250Y4340D01*
X15209Y4368D01*
X15160Y4377D01*
X14490D01*
X14127Y4740D01*
Y5133D01*
X14163Y5156D01*
X14206D01*
X14246Y5173D01*
X14277Y5204D01*
X14284Y5221D01*
X14371Y5308D01*
X14415Y5316D01*
X14456Y5344D01*
X14676Y5564D01*
X14723Y5545D01*
D02*
G37*
G36*
X14477Y4281D02*
X14489Y4271D01*
X14492Y4268D01*
X14496Y4266D01*
X14499Y4264D01*
X14502Y4263D01*
X14505Y4262D01*
X14507Y4262D01*
X14425Y4180D01*
X14425Y4182D01*
X14424Y4185D01*
X14423Y4188D01*
X14421Y4191D01*
X14419Y4195D01*
X14416Y4198D01*
X14410Y4206D01*
X14406Y4210D01*
X14402Y4215D01*
X14473Y4285D01*
X14477Y4281D01*
D02*
G37*
G36*
X14512Y4255D02*
X14513Y4252D01*
X14514Y4249D01*
X14516Y4246D01*
X14518Y4242D01*
X14521Y4239D01*
X14527Y4231D01*
X14531Y4227D01*
X14535Y4223D01*
X14465Y4152D01*
X14460Y4156D01*
X14448Y4166D01*
X14445Y4169D01*
X14441Y4171D01*
X14438Y4173D01*
X14435Y4174D01*
X14432Y4175D01*
X14430Y4175D01*
X14512Y4257D01*
X14512Y4255D01*
D02*
G37*
G36*
X25669Y3780D02*
Y3543D01*
X25551Y3425D01*
X25039D01*
X24954Y3510D01*
Y3812D01*
X25036Y3896D01*
X25553D01*
X25669Y3780D01*
D02*
G37*
G36*
X16501Y3158D02*
X16601Y3064D01*
X16489Y2952D01*
X16488Y2954D01*
X16485Y2958D01*
X16480Y2964D01*
X16443Y3004D01*
X16395Y3052D01*
X16501Y3158D01*
X16395D01*
X16396Y3160D01*
X16396Y3165D01*
X16397Y3184D01*
X16398Y3311D01*
X16498D01*
X16501Y3158D01*
D02*
G37*
G36*
X24826Y2184D02*
X24820Y2178D01*
X24814Y2171D01*
X24809Y2164D01*
X24805Y2158D01*
X24801Y2151D01*
X24798Y2145D01*
X24796Y2138D01*
X24795Y2132D01*
X24794Y2126D01*
X24793Y2119D01*
X24706Y2207D01*
X24712Y2207D01*
X24718Y2208D01*
X24725Y2210D01*
X24731Y2212D01*
X24738Y2215D01*
X24744Y2219D01*
X24751Y2223D01*
X24757Y2228D01*
X24764Y2234D01*
X24771Y2240D01*
X24826Y2184D01*
D02*
G37*
G36*
X26148Y1943D02*
X25990D01*
Y1937D01*
X26013Y1936D01*
X26061Y1935D01*
Y1778D01*
X26036Y1778D01*
X25990Y1775D01*
Y1763D01*
X25985Y1766D01*
X25977Y1768D01*
X25968Y1770D01*
X25957Y1772D01*
X25931Y1770D01*
X25921Y1768D01*
X25914Y1766D01*
X25909Y1763D01*
Y1776D01*
X25886Y1777D01*
X25837Y1778D01*
Y1935D01*
X25863Y1936D01*
X25909Y1939D01*
Y1951D01*
X25914Y1948D01*
X25921Y1945D01*
X25931Y1943D01*
X25942Y1941D01*
X25968Y1943D01*
X25977Y1945D01*
X25982Y1947D01*
X25983Y1954D01*
X25984Y1984D01*
X25986Y2184D01*
X26143D01*
X26148Y1943D01*
D02*
G37*
G36*
X26694Y2091D02*
X26704Y1936D01*
X26707Y1931D01*
X26523D01*
X26526Y1936D01*
X26528Y1944D01*
X26530Y1955D01*
X26532Y1970D01*
X26535Y2033D01*
X26536Y2125D01*
X26694D01*
X26694Y2091D01*
D02*
G37*
G36*
X25190Y2039D02*
X25023Y1864D01*
X24903Y1983D01*
X24907Y1985D01*
X24913Y1990D01*
X24935Y2010D01*
X25078Y2150D01*
X25190Y2039D01*
D02*
G37*
G36*
X25743Y2035D02*
X25576Y1861D01*
X25458Y1980D01*
X25461Y1981D01*
X25467Y1986D01*
X25489Y2006D01*
X25631Y2146D01*
X25743Y2035D01*
D02*
G37*
G36*
X23340Y1604D02*
X23340Y1595D01*
X23341Y1587D01*
X23343Y1579D01*
X23345Y1572D01*
X23347Y1566D01*
X23350Y1559D01*
X23354Y1554D01*
X23358Y1548D01*
X23362Y1544D01*
X23238D01*
X23242Y1548D01*
X23246Y1554D01*
X23249Y1559D01*
X23252Y1566D01*
X23255Y1572D01*
X23257Y1579D01*
X23258Y1587D01*
X23260Y1595D01*
X23260Y1604D01*
X23261Y1613D01*
X23339D01*
X23340Y1604D01*
D02*
G37*
G36*
X22078Y1551D02*
X22086Y1545D01*
X22093Y1539D01*
X22101Y1534D01*
X22108Y1530D01*
X22116Y1527D01*
X22123Y1524D01*
X22131Y1523D01*
X22138Y1521D01*
X22146Y1521D01*
Y1471D01*
X22138Y1471D01*
X22131Y1470D01*
X22123Y1468D01*
X22116Y1465D01*
X22108Y1462D01*
X22101Y1458D01*
X22093Y1453D01*
X22086Y1447D01*
X22078Y1441D01*
X22071Y1434D01*
Y1558D01*
X22078Y1551D01*
D02*
G37*
%LPC*%
G36*
X8053Y9420D02*
X8010D01*
X7970Y9403D01*
X7939Y9373D01*
X7922Y9333D01*
Y9289D01*
X7939Y9249D01*
X7970Y9219D01*
X8010Y9202D01*
X8053D01*
X8093Y9219D01*
X8124Y9249D01*
X8141Y9289D01*
Y9333D01*
X8124Y9373D01*
X8093Y9403D01*
X8053Y9420D01*
D02*
G37*
G36*
X7285D02*
X7242D01*
X7202Y9403D01*
X7171Y9373D01*
X7155Y9333D01*
Y9289D01*
X7171Y9249D01*
X7202Y9219D01*
X7242Y9202D01*
X7285D01*
X7326Y9219D01*
X7356Y9249D01*
X7373Y9289D01*
Y9333D01*
X7356Y9373D01*
X7326Y9403D01*
X7285Y9420D01*
D02*
G37*
G36*
X7797Y9164D02*
X7754D01*
X7714Y9148D01*
X7683Y9117D01*
X7667Y9077D01*
Y9033D01*
X7683Y8993D01*
X7714Y8963D01*
X7734Y8954D01*
Y8900D01*
X7714Y8892D01*
X7683Y8861D01*
X7667Y8821D01*
X7626Y8777D01*
X7620Y8775D01*
X7586Y8761D01*
X7556Y8730D01*
X7539Y8690D01*
Y8646D01*
X7556Y8606D01*
X7586Y8576D01*
X7626Y8559D01*
X7670D01*
X7710Y8576D01*
X7740Y8606D01*
X7755Y8641D01*
X7757Y8646D01*
X7797Y8690D01*
X7803Y8693D01*
X7803D01*
X7811Y8696D01*
X7837Y8707D01*
X7868Y8737D01*
X7876Y8758D01*
X7931D01*
X7939Y8737D01*
X7970Y8707D01*
X8010Y8690D01*
X8053D01*
X8093Y8707D01*
X8124Y8737D01*
X8141Y8778D01*
Y8821D01*
X8124Y8861D01*
X8093Y8892D01*
X8053Y8908D01*
X8010D01*
X7970Y8892D01*
X7939Y8861D01*
X7931Y8841D01*
X7876D01*
X7868Y8861D01*
X7837Y8892D01*
X7817Y8900D01*
Y8954D01*
X7837Y8963D01*
X7868Y8993D01*
X7885Y9033D01*
Y9077D01*
X7868Y9117D01*
X7837Y9148D01*
X7797Y9164D01*
D02*
G37*
G36*
X7030D02*
X6986D01*
X6946Y9148D01*
X6915Y9117D01*
X6899Y9077D01*
X6895Y9033D01*
X6853Y9031D01*
X6851D01*
X6811Y9015D01*
X6780Y8984D01*
X6764Y8944D01*
Y8901D01*
X6780Y8860D01*
X6811Y8830D01*
X6851Y8813D01*
X6894D01*
X6899Y8810D01*
Y8778D01*
X6915Y8737D01*
X6946Y8707D01*
X6986Y8690D01*
X7030D01*
X7070Y8707D01*
X7100Y8737D01*
X7109Y8758D01*
X7163D01*
X7171Y8737D01*
X7202Y8707D01*
X7242Y8690D01*
X7285D01*
X7326Y8707D01*
X7356Y8737D01*
X7373Y8778D01*
Y8821D01*
X7356Y8861D01*
X7326Y8892D01*
X7285Y8908D01*
X7242D01*
X7202Y8892D01*
X7171Y8861D01*
X7163Y8841D01*
X7109D01*
X7100Y8861D01*
X7070Y8892D01*
X7049Y8900D01*
Y8954D01*
X7070Y8963D01*
X7100Y8993D01*
X7117Y9033D01*
Y9077D01*
X7100Y9117D01*
X7070Y9148D01*
X7030Y9164D01*
D02*
G37*
G36*
X8471Y8046D02*
X8428D01*
X8388Y8030D01*
X8357Y7999D01*
X8341Y7959D01*
Y7916D01*
X8357Y7875D01*
X8388Y7845D01*
X8428Y7828D01*
X8471D01*
X8511Y7845D01*
X8542Y7875D01*
X8559Y7916D01*
Y7959D01*
X8542Y7999D01*
X8511Y8030D01*
X8471Y8046D01*
D02*
G37*
G36*
X11254Y6975D02*
X11211D01*
X11171Y6959D01*
X11140Y6928D01*
X11123Y6888D01*
Y6845D01*
X11140Y6805D01*
X11171Y6774D01*
X11211Y6757D01*
X11254D01*
X11294Y6774D01*
X11325Y6805D01*
X11341Y6845D01*
Y6888D01*
X11325Y6928D01*
X11294Y6959D01*
X11254Y6975D01*
D02*
G37*
G36*
X4037Y11644D02*
X3994D01*
X3954Y11628D01*
X3923Y11597D01*
X3907Y11557D01*
Y11514D01*
X3923Y11474D01*
X3954Y11443D01*
X3994Y11426D01*
X4037D01*
X4078Y11443D01*
X4108Y11474D01*
X4125Y11514D01*
Y11557D01*
X4108Y11597D01*
X4078Y11628D01*
X4037Y11644D01*
D02*
G37*
G36*
X3250D02*
X3207D01*
X3167Y11628D01*
X3136Y11597D01*
X3119Y11557D01*
Y11514D01*
X3136Y11474D01*
X3167Y11443D01*
X3207Y11426D01*
X3250D01*
X3290Y11443D01*
X3321Y11474D01*
X3337Y11514D01*
Y11557D01*
X3321Y11597D01*
X3290Y11628D01*
X3250Y11644D01*
D02*
G37*
G36*
X881Y11507D02*
X837D01*
X797Y11490D01*
X767Y11459D01*
X750Y11419D01*
Y11376D01*
X767Y11336D01*
X797Y11305D01*
X837Y11288D01*
X881D01*
X921Y11305D01*
X952Y11336D01*
X968Y11376D01*
Y11419D01*
X952Y11459D01*
X921Y11490D01*
X881Y11507D01*
D02*
G37*
G36*
X1719Y11505D02*
X1675D01*
X1635Y11488D01*
X1605Y11458D01*
X1588Y11417D01*
Y11374D01*
X1605Y11334D01*
X1635Y11303D01*
X1675Y11287D01*
X1719D01*
X1759Y11303D01*
X1790Y11334D01*
X1806Y11374D01*
Y11417D01*
X1790Y11458D01*
X1759Y11488D01*
X1719Y11505D01*
D02*
G37*
G36*
X26404Y11389D02*
X26352D01*
X26305Y11369D01*
X26269Y11333D01*
X26249Y11285D01*
Y11234D01*
X26269Y11187D01*
X26305Y11151D01*
X26352Y11131D01*
X26404D01*
X26451Y11151D01*
X26487Y11187D01*
X26507Y11234D01*
Y11285D01*
X26487Y11333D01*
X26451Y11369D01*
X26404Y11389D01*
D02*
G37*
G36*
X4037Y11015D02*
X3994D01*
X3954Y10998D01*
X3923Y10967D01*
X3907Y10927D01*
Y10884D01*
X3923Y10844D01*
X3954Y10813D01*
X3994Y10796D01*
X4037D01*
X4078Y10813D01*
X4108Y10844D01*
X4125Y10884D01*
Y10927D01*
X4108Y10967D01*
X4078Y10998D01*
X4037Y11015D01*
D02*
G37*
G36*
X3250D02*
X3207D01*
X3167Y10998D01*
X3136Y10967D01*
X3119Y10927D01*
Y10884D01*
X3136Y10844D01*
X3167Y10813D01*
X3207Y10796D01*
X3250D01*
X3290Y10813D01*
X3321Y10844D01*
X3337Y10884D01*
Y10927D01*
X3321Y10967D01*
X3290Y10998D01*
X3250Y11015D01*
D02*
G37*
G36*
X2187D02*
X2144D01*
X2104Y10998D01*
X2073Y10967D01*
X2056Y10927D01*
Y10884D01*
X2073Y10844D01*
X2104Y10813D01*
X2144Y10796D01*
X2187D01*
X2227Y10813D01*
X2258Y10844D01*
X2274Y10884D01*
Y10927D01*
X2258Y10967D01*
X2227Y10998D01*
X2187Y11015D01*
D02*
G37*
G36*
X1400D02*
X1356D01*
X1316Y10998D01*
X1285Y10967D01*
X1269Y10927D01*
Y10884D01*
X1285Y10844D01*
X1316Y10813D01*
X1356Y10796D01*
X1400D01*
X1440Y10813D01*
X1470Y10844D01*
X1487Y10884D01*
Y10927D01*
X1470Y10967D01*
X1440Y10998D01*
X1400Y11015D01*
D02*
G37*
G36*
X612D02*
X569D01*
X529Y10998D01*
X498Y10967D01*
X481Y10927D01*
Y10884D01*
X498Y10844D01*
X529Y10813D01*
X569Y10796D01*
X612D01*
X652Y10813D01*
X683Y10844D01*
X700Y10884D01*
Y10927D01*
X683Y10967D01*
X652Y10998D01*
X612Y11015D01*
D02*
G37*
G36*
X5730Y8377D02*
X5687D01*
X5647Y8360D01*
X5616Y8329D01*
X5600Y8289D01*
Y8246D01*
X5616Y8206D01*
X5647Y8175D01*
X5687Y8159D01*
X5730D01*
X5770Y8175D01*
X5801Y8206D01*
X5818Y8246D01*
Y8289D01*
X5801Y8329D01*
X5770Y8360D01*
X5730Y8377D01*
D02*
G37*
G36*
X3447Y7274D02*
X3403D01*
X3363Y7258D01*
X3359Y7254D01*
X3327Y7231D01*
X3294Y7254D01*
X3290Y7258D01*
X3250Y7274D01*
X3207D01*
X3167Y7258D01*
X3163Y7254D01*
X3130Y7231D01*
X3097Y7254D01*
X3093Y7258D01*
X3053Y7274D01*
X3010D01*
X2970Y7258D01*
X2966Y7254D01*
X2933Y7231D01*
X2900Y7254D01*
X2896Y7258D01*
X2856Y7274D01*
X2813D01*
X2773Y7258D01*
X2742Y7227D01*
X2726Y7187D01*
Y7144D01*
X2740Y7109D01*
X2733Y7080D01*
X2716Y7055D01*
X2709Y7053D01*
X2704Y7057D01*
X2700Y7061D01*
X2659Y7078D01*
X2616D01*
X2576Y7061D01*
X2545Y7030D01*
X2529Y6990D01*
Y6947D01*
X2545Y6907D01*
X2549Y6903D01*
X2572Y6870D01*
X2549Y6837D01*
X2545Y6833D01*
X2529Y6793D01*
Y6750D01*
X2545Y6710D01*
X2576Y6679D01*
X2616Y6663D01*
X2659D01*
X2700Y6679D01*
X2730Y6710D01*
X2747Y6750D01*
Y6793D01*
X2730Y6833D01*
X2726Y6837D01*
X2711Y6859D01*
X2723Y6871D01*
X2773Y6876D01*
X2813Y6859D01*
X2856D01*
X2896Y6876D01*
X2900Y6880D01*
X2933Y6903D01*
X2966Y6880D01*
X2970Y6876D01*
X3010Y6859D01*
X3053D01*
X3093Y6876D01*
X3097Y6880D01*
X3130Y6903D01*
X3163Y6880D01*
X3167Y6876D01*
X3207Y6859D01*
X3250D01*
X3290Y6876D01*
X3294Y6880D01*
X3327Y6903D01*
X3359Y6880D01*
X3363Y6876D01*
X3403Y6859D01*
X3447D01*
X3487Y6876D01*
X3518Y6907D01*
X3534Y6947D01*
Y6990D01*
X3518Y7030D01*
X3514Y7034D01*
X3491Y7067D01*
X3514Y7100D01*
X3518Y7104D01*
X3534Y7144D01*
Y7187D01*
X3518Y7227D01*
X3487Y7258D01*
X3447Y7274D01*
D02*
G37*
G36*
X4622Y6689D02*
X4578D01*
X4538Y6673D01*
X4508Y6642D01*
X4491Y6602D01*
Y6559D01*
X4508Y6519D01*
X4538Y6488D01*
X4578Y6471D01*
X4622D01*
X4662Y6488D01*
X4693Y6519D01*
X4709Y6559D01*
Y6602D01*
X4693Y6642D01*
X4662Y6673D01*
X4622Y6689D01*
D02*
G37*
G36*
X5187Y6727D02*
X5143D01*
X5103Y6710D01*
X5073Y6680D01*
X5056Y6640D01*
Y6596D01*
X5073Y6556D01*
X5103Y6525D01*
X5105Y6525D01*
X5109Y6472D01*
X5078Y6441D01*
X5061Y6401D01*
Y6358D01*
X5078Y6318D01*
X5084Y6312D01*
X5102Y6276D01*
X5084Y6246D01*
X5075Y6237D01*
X5059Y6197D01*
Y6154D01*
X5075Y6114D01*
X5106Y6083D01*
X5146Y6066D01*
X5189D01*
X5229Y6083D01*
X5260Y6114D01*
X5277Y6154D01*
Y6197D01*
X5270Y6213D01*
X5296Y6265D01*
X5298Y6267D01*
X5298Y6267D01*
X5302Y6268D01*
X5338Y6254D01*
X5381D01*
X5421Y6270D01*
X5452Y6301D01*
X5469Y6341D01*
Y6384D01*
X5452Y6424D01*
X5421Y6455D01*
X5381Y6472D01*
X5338D01*
X5298Y6455D01*
X5281Y6438D01*
X5263Y6441D01*
X5232Y6472D01*
X5230Y6473D01*
X5227Y6525D01*
X5258Y6556D01*
X5274Y6596D01*
Y6640D01*
X5258Y6680D01*
X5227Y6710D01*
X5187Y6727D01*
D02*
G37*
G36*
X7678Y6230D02*
X7635D01*
X7595Y6214D01*
X7564Y6183D01*
X7548Y6143D01*
Y6099D01*
X7564Y6059D01*
X7595Y6029D01*
X7635Y6012D01*
X7678D01*
X7718Y6029D01*
X7749Y6059D01*
X7766Y6099D01*
Y6143D01*
X7749Y6183D01*
X7718Y6214D01*
X7678Y6230D01*
D02*
G37*
G36*
X3250Y5700D02*
X3207D01*
X3167Y5683D01*
X3136Y5652D01*
X3119Y5612D01*
Y5569D01*
X3136Y5529D01*
X3167Y5498D01*
X3207Y5481D01*
X3250D01*
X3290Y5498D01*
X3321Y5529D01*
X3337Y5569D01*
Y5612D01*
X3321Y5652D01*
X3290Y5683D01*
X3250Y5700D01*
D02*
G37*
G36*
X7739Y5330D02*
X7696D01*
X7656Y5314D01*
X7649Y5307D01*
X7621Y5285D01*
X7584Y5307D01*
X7581Y5309D01*
X7541Y5326D01*
X7498D01*
X7458Y5309D01*
X7427Y5278D01*
X7411Y5238D01*
Y5195D01*
X7427Y5155D01*
X7458Y5124D01*
X7498Y5107D01*
X7541D01*
X7581Y5124D01*
X7588Y5131D01*
X7616Y5152D01*
X7654Y5131D01*
X7656Y5129D01*
X7696Y5112D01*
X7739D01*
X7779Y5129D01*
X7810Y5160D01*
X7827Y5200D01*
Y5243D01*
X7810Y5283D01*
X7779Y5314D01*
X7739Y5330D01*
D02*
G37*
G36*
X8315Y5577D02*
X8272D01*
X8231Y5560D01*
X8201Y5529D01*
X8184Y5489D01*
Y5446D01*
X8201Y5406D01*
X8231Y5375D01*
X8243Y5370D01*
Y5316D01*
X8226Y5309D01*
X8195Y5278D01*
X8178Y5238D01*
Y5195D01*
X8195Y5155D01*
X8226Y5124D01*
X8266Y5107D01*
X8309D01*
X8349Y5124D01*
X8380Y5155D01*
X8396Y5195D01*
Y5238D01*
X8380Y5278D01*
X8349Y5309D01*
X8338Y5314D01*
Y5368D01*
X8355Y5375D01*
X8386Y5406D01*
X8402Y5446D01*
Y5489D01*
X8386Y5529D01*
X8355Y5560D01*
X8315Y5577D01*
D02*
G37*
G36*
X8565Y4814D02*
X8522D01*
X8482Y4797D01*
X8451Y4766D01*
X8442Y4746D01*
X8388D01*
X8380Y4766D01*
X8349Y4797D01*
X8309Y4814D01*
X8266D01*
X8226Y4797D01*
X8195Y4766D01*
X8178Y4726D01*
Y4683D01*
X8195Y4643D01*
X8226Y4612D01*
X8246Y4604D01*
Y4550D01*
X8226Y4541D01*
X8195Y4511D01*
X8187Y4490D01*
X8132D01*
X8124Y4511D01*
X8093Y4541D01*
X8053Y4558D01*
X8010D01*
X7970Y4541D01*
X7939Y4511D01*
X7931Y4490D01*
X7876D01*
X7868Y4511D01*
X7837Y4541D01*
X7797Y4558D01*
X7754D01*
X7714Y4541D01*
X7683Y4511D01*
X7667Y4471D01*
Y4427D01*
X7683Y4387D01*
X7714Y4356D01*
X7754Y4340D01*
X7797D01*
X7837Y4356D01*
X7868Y4387D01*
X7876Y4407D01*
X7931D01*
X7939Y4387D01*
X7970Y4356D01*
X7990Y4348D01*
Y4294D01*
X7970Y4285D01*
X7939Y4255D01*
X7922Y4215D01*
Y4171D01*
X7939Y4131D01*
X7970Y4100D01*
X8010Y4084D01*
X8053D01*
X8093Y4100D01*
X8124Y4131D01*
X8132Y4151D01*
X8187D01*
X8195Y4131D01*
X8226Y4100D01*
X8266Y4084D01*
X8309D01*
X8349Y4100D01*
X8380Y4131D01*
X8396Y4171D01*
Y4215D01*
X8380Y4255D01*
X8349Y4285D01*
X8329Y4294D01*
Y4348D01*
X8349Y4356D01*
X8380Y4387D01*
X8388Y4407D01*
X8442D01*
X8451Y4387D01*
X8482Y4356D01*
X8522Y4340D01*
X8565D01*
X8605Y4356D01*
X8636Y4387D01*
X8644Y4407D01*
X8698D01*
X8707Y4387D01*
X8737Y4356D01*
X8758Y4348D01*
Y4294D01*
X8737Y4285D01*
X8707Y4255D01*
X8690Y4215D01*
Y4171D01*
X8707Y4131D01*
X8737Y4100D01*
X8778Y4084D01*
X8821D01*
X8861Y4100D01*
X8892Y4131D01*
X8908Y4171D01*
Y4215D01*
X8892Y4255D01*
X8861Y4285D01*
X8841Y4294D01*
Y4348D01*
X8861Y4356D01*
X8892Y4387D01*
X8908Y4427D01*
Y4471D01*
X8892Y4511D01*
X8861Y4541D01*
X8821Y4558D01*
X8778D01*
X8737Y4541D01*
X8707Y4511D01*
X8698Y4490D01*
X8644D01*
X8636Y4511D01*
X8605Y4541D01*
X8585Y4550D01*
Y4604D01*
X8605Y4612D01*
X8636Y4643D01*
X8652Y4683D01*
Y4726D01*
X8636Y4766D01*
X8605Y4797D01*
X8565Y4814D01*
D02*
G37*
G36*
X3250Y4715D02*
X3207D01*
X3167Y4699D01*
X3136Y4668D01*
X3119Y4628D01*
Y4585D01*
X3136Y4545D01*
X3167Y4514D01*
X3207Y4497D01*
X3250D01*
X3290Y4514D01*
X3321Y4545D01*
X3337Y4585D01*
Y4628D01*
X3321Y4668D01*
X3290Y4699D01*
X3250Y4715D01*
D02*
G37*
G36*
X3622Y3859D02*
X3578D01*
X3538Y3842D01*
X3508Y3812D01*
X3491Y3772D01*
Y3728D01*
X3508Y3688D01*
X3538Y3658D01*
X3578Y3641D01*
X3622D01*
X3662Y3658D01*
X3692Y3688D01*
X3709Y3728D01*
Y3772D01*
X3692Y3812D01*
X3662Y3842D01*
X3622Y3859D01*
D02*
G37*
G36*
X3272D02*
X3228D01*
X3188Y3842D01*
X3158Y3812D01*
X3141Y3772D01*
Y3728D01*
X3158Y3688D01*
X3188Y3658D01*
X3228Y3641D01*
X3272D01*
X3312Y3658D01*
X3342Y3688D01*
X3359Y3728D01*
Y3772D01*
X3342Y3812D01*
X3312Y3842D01*
X3272Y3859D01*
D02*
G37*
G36*
X10287Y2154D02*
X10244D01*
X10204Y2137D01*
X10175Y2108D01*
X10146Y2137D01*
X10106Y2154D01*
X10062D01*
X10022Y2137D01*
X10017Y2132D01*
X9985Y2111D01*
X9952Y2132D01*
X9947Y2137D01*
X9907Y2154D01*
X9864D01*
X9824Y2137D01*
X9795Y2108D01*
X9766Y2137D01*
X9726Y2154D01*
X9683D01*
X9643Y2137D01*
X9621Y2115D01*
X9598Y2137D01*
X9558Y2154D01*
X9515D01*
X9475Y2137D01*
X9452Y2114D01*
X9430Y2137D01*
X9390Y2154D01*
X9346D01*
X9306Y2137D01*
X9282Y2113D01*
X9258Y2137D01*
X9218Y2154D01*
X9175D01*
X9135Y2137D01*
X9112Y2115D01*
X9090Y2137D01*
X9050Y2154D01*
X9006D01*
X8966Y2137D01*
X8944Y2114D01*
X8921Y2137D01*
X8881Y2154D01*
X8837D01*
X8797Y2137D01*
X8766Y2107D01*
X8735Y2137D01*
X8694Y2154D01*
X8651D01*
X8611Y2137D01*
X8588Y2114D01*
X8565Y2137D01*
X8525Y2154D01*
X8481D01*
X8441Y2137D01*
X8410Y2106D01*
X8394Y2066D01*
Y2023D01*
X8410Y1983D01*
X8441Y1952D01*
X8481Y1935D01*
X8525D01*
X8565Y1952D01*
X8588Y1975D01*
X8611Y1952D01*
X8651Y1935D01*
X8694D01*
X8735Y1952D01*
X8766Y1982D01*
X8797Y1952D01*
X8837Y1935D01*
X8881D01*
X8921Y1952D01*
X8944Y1975D01*
X8966Y1952D01*
X9006Y1935D01*
X9050D01*
X9090Y1952D01*
X9112Y1974D01*
X9135Y1952D01*
X9175Y1935D01*
X9218D01*
X9258Y1952D01*
X9282Y1976D01*
X9306Y1952D01*
X9346Y1935D01*
X9390D01*
X9430Y1952D01*
X9452Y1975D01*
X9475Y1952D01*
X9515Y1935D01*
X9558D01*
X9598Y1952D01*
X9621Y1974D01*
X9643Y1952D01*
X9683Y1935D01*
X9726D01*
X9766Y1952D01*
X9795Y1981D01*
X9824Y1952D01*
X9864Y1935D01*
X9907D01*
X9947Y1952D01*
X9952Y1957D01*
X9985Y1978D01*
X10017Y1957D01*
X10022Y1952D01*
X10062Y1935D01*
X10106D01*
X10146Y1952D01*
X10175Y1981D01*
X10204Y1952D01*
X10244Y1935D01*
X10287D01*
X10327Y1952D01*
X10358Y1983D01*
X10375Y2023D01*
Y2066D01*
X10358Y2106D01*
X10327Y2137D01*
X10287Y2154D01*
D02*
G37*
G36*
X1831Y2548D02*
X1788D01*
X1747Y2532D01*
X1717Y2501D01*
X1700Y2461D01*
Y2417D01*
X1717Y2377D01*
X1747Y2347D01*
X1788Y2330D01*
X1815D01*
X1841Y2314D01*
X1858Y2287D01*
Y2260D01*
X1874Y2220D01*
X1905Y2189D01*
X1945Y2173D01*
X1972D01*
X1999Y2156D01*
X2015Y2130D01*
Y2103D01*
X2032Y2062D01*
X2062Y2032D01*
X2103Y2015D01*
X2146D01*
X2186Y2032D01*
X2217Y2062D01*
X2233Y2103D01*
Y2146D01*
X2217Y2186D01*
X2186Y2217D01*
X2146Y2233D01*
X2119D01*
X2092Y2250D01*
X2076Y2276D01*
Y2303D01*
X2059Y2343D01*
X2029Y2374D01*
X1988Y2391D01*
X1961D01*
X1935Y2407D01*
X1918Y2434D01*
Y2461D01*
X1902Y2501D01*
X1871Y2532D01*
X1831Y2548D01*
D02*
G37*
G36*
X1360Y2274D02*
X1317D01*
X1277Y2258D01*
X1246Y2227D01*
X1230Y2187D01*
Y2144D01*
X1246Y2104D01*
X1277Y2073D01*
X1317Y2056D01*
X1360D01*
X1365Y2058D01*
X1371Y2054D01*
X1399Y2018D01*
X1387Y1990D01*
Y1947D01*
X1404Y1907D01*
X1434Y1876D01*
X1474Y1859D01*
X1518D01*
X1558Y1876D01*
X1589Y1907D01*
X1605Y1947D01*
Y1990D01*
X1589Y2030D01*
X1558Y2061D01*
X1518Y2078D01*
X1474D01*
X1469Y2076D01*
X1464Y2080D01*
X1436Y2116D01*
X1448Y2144D01*
Y2187D01*
X1431Y2227D01*
X1400Y2258D01*
X1360Y2274D01*
D02*
G37*
G36*
X1004Y1957D02*
X960D01*
X920Y1941D01*
X890Y1910D01*
X873Y1870D01*
Y1826D01*
X890Y1786D01*
X920Y1756D01*
X960Y1739D01*
X1004D01*
X1044Y1756D01*
X1074Y1786D01*
X1091Y1826D01*
Y1870D01*
X1074Y1910D01*
X1044Y1941D01*
X1004Y1957D01*
D02*
G37*
G36*
X8486Y1644D02*
X8443D01*
X8403Y1628D01*
X8380Y1605D01*
X8357Y1628D01*
X8316Y1644D01*
X8273D01*
X8233Y1628D01*
X8202Y1597D01*
X8186Y1557D01*
Y1514D01*
X8202Y1474D01*
X8233Y1443D01*
X8273Y1426D01*
X8316D01*
X8357Y1443D01*
X8380Y1466D01*
X8403Y1443D01*
X8443Y1426D01*
X8486D01*
X8526Y1443D01*
X8557Y1474D01*
X8574Y1514D01*
Y1557D01*
X8557Y1597D01*
X8526Y1628D01*
X8486Y1644D01*
D02*
G37*
G36*
X15858Y9959D02*
X15815D01*
X15775Y9943D01*
X15744Y9912D01*
X15728Y9872D01*
Y9828D01*
X15744Y9788D01*
X15775Y9758D01*
X15815Y9741D01*
X15858D01*
X15899Y9758D01*
X15929Y9788D01*
X15946Y9828D01*
Y9872D01*
X15929Y9912D01*
X15899Y9943D01*
X15858Y9959D01*
D02*
G37*
G36*
X16793Y9637D02*
X16750D01*
X16710Y9620D01*
X16679Y9589D01*
X16663Y9549D01*
Y9506D01*
X16679Y9466D01*
X16710Y9435D01*
X16750Y9419D01*
X16793D01*
X16833Y9435D01*
X16864Y9466D01*
X16881Y9506D01*
Y9549D01*
X16864Y9589D01*
X16833Y9620D01*
X16793Y9637D01*
D02*
G37*
G36*
X16488D02*
X16444D01*
X16404Y9620D01*
X16374Y9589D01*
X16357Y9549D01*
Y9506D01*
X16374Y9466D01*
X16404Y9435D01*
X16444Y9419D01*
X16488D01*
X16528Y9435D01*
X16558Y9466D01*
X16575Y9506D01*
Y9549D01*
X16558Y9589D01*
X16528Y9620D01*
X16488Y9637D01*
D02*
G37*
G36*
X11294Y9340D02*
X11250D01*
X11210Y9323D01*
X11179Y9292D01*
X11163Y9252D01*
Y9209D01*
X11179Y9169D01*
X11210Y9138D01*
X11250Y9122D01*
X11294D01*
X11334Y9138D01*
X11364Y9169D01*
X11381Y9209D01*
Y9252D01*
X11364Y9292D01*
X11334Y9323D01*
X11294Y9340D01*
D02*
G37*
G36*
X18841Y9204D02*
X18797D01*
X18757Y9187D01*
X18726Y9156D01*
X18710Y9116D01*
Y9073D01*
X18726Y9033D01*
X18757Y9002D01*
X18797Y8985D01*
X18841D01*
X18881Y9002D01*
X18911Y9033D01*
X18928Y9073D01*
Y9116D01*
X18911Y9156D01*
X18881Y9187D01*
X18841Y9204D01*
D02*
G37*
G36*
X18053D02*
X18010D01*
X17970Y9187D01*
X17939Y9156D01*
X17922Y9116D01*
Y9073D01*
X17939Y9033D01*
X17970Y9002D01*
X18010Y8985D01*
X18053D01*
X18093Y9002D01*
X18124Y9033D01*
X18141Y9073D01*
Y9116D01*
X18124Y9156D01*
X18093Y9187D01*
X18053Y9204D01*
D02*
G37*
G36*
X17659D02*
X17616D01*
X17576Y9187D01*
X17545Y9156D01*
X17529Y9116D01*
Y9073D01*
X17545Y9033D01*
X17576Y9002D01*
X17616Y8985D01*
X17659D01*
X17700Y9002D01*
X17730Y9033D01*
X17747Y9073D01*
Y9116D01*
X17730Y9156D01*
X17700Y9187D01*
X17659Y9204D01*
D02*
G37*
G36*
X12226Y9164D02*
X12183D01*
X12143Y9148D01*
X12112Y9117D01*
X12096Y9077D01*
Y9033D01*
X12112Y8993D01*
X12143Y8963D01*
X12183Y8946D01*
X12226D01*
X12266Y8963D01*
X12297Y8993D01*
X12314Y9033D01*
Y9077D01*
X12297Y9117D01*
X12266Y9148D01*
X12226Y9164D01*
D02*
G37*
G36*
X10986Y9558D02*
X10943D01*
X10903Y9541D01*
X10872Y9511D01*
X10856Y9470D01*
Y9427D01*
X10851Y9420D01*
X10825D01*
X10785Y9403D01*
X10754Y9373D01*
X10737Y9333D01*
X10737Y9289D01*
X10694Y9286D01*
X10654Y9270D01*
X10624Y9239D01*
X10607Y9199D01*
Y9156D01*
X10624Y9116D01*
X10654Y9085D01*
X10652Y9032D01*
X10647Y9029D01*
X10616Y8999D01*
X10600Y8959D01*
X10587Y8947D01*
X10551Y8942D01*
X10549Y8945D01*
X10533Y8983D01*
X10502Y9013D01*
X10462Y9030D01*
X10444Y9076D01*
Y9077D01*
X10427Y9117D01*
X10396Y9148D01*
X10376Y9156D01*
Y9210D01*
X10396Y9219D01*
X10427Y9249D01*
X10444Y9289D01*
Y9333D01*
X10427Y9373D01*
X10396Y9403D01*
X10356Y9420D01*
X10313D01*
X10273Y9403D01*
X10242Y9373D01*
X10226Y9333D01*
Y9289D01*
X10242Y9249D01*
X10273Y9219D01*
X10293Y9210D01*
Y9156D01*
X10273Y9148D01*
X10242Y9117D01*
X10226Y9077D01*
Y9039D01*
X10192D01*
X10152Y9022D01*
X10121Y8991D01*
X10105Y8951D01*
Y8908D01*
X10121Y8868D01*
X10152Y8837D01*
X10192Y8821D01*
X10236D01*
X10276Y8837D01*
X10295Y8857D01*
X10336Y8859D01*
X10354Y8853D01*
X10379Y8828D01*
X10419Y8812D01*
X10419D01*
X10463Y8805D01*
X10466Y8766D01*
Y8762D01*
X10482Y8722D01*
X10513Y8691D01*
X10553Y8674D01*
X10596Y8674D01*
X10623Y8631D01*
X10636Y8600D01*
X10667Y8569D01*
X10707Y8552D01*
X10750D01*
X10790Y8569D01*
X10813Y8592D01*
X10850Y8592D01*
X10870Y8587D01*
X10871Y8583D01*
X10902Y8552D01*
X10942Y8535D01*
X10985D01*
X11025Y8552D01*
X11056Y8583D01*
X11073Y8623D01*
Y8666D01*
X11056Y8706D01*
X11025Y8737D01*
X10998Y8748D01*
X10956Y8778D01*
Y8821D01*
X10939Y8861D01*
X10908Y8892D01*
X10868Y8908D01*
X10864D01*
X10824Y8914D01*
X10818Y8954D01*
Y8959D01*
X10801Y8999D01*
X10770Y9029D01*
X10773Y9083D01*
X10778Y9085D01*
X10809Y9116D01*
X10825Y9156D01*
X10825Y9199D01*
X10868Y9202D01*
X10908Y9219D01*
X10939Y9249D01*
X10956Y9289D01*
Y9333D01*
X10960Y9340D01*
X10986D01*
X11026Y9356D01*
X11057Y9387D01*
X11074Y9427D01*
Y9470D01*
X11057Y9511D01*
X11026Y9541D01*
X10986Y9558D01*
D02*
G37*
G36*
X11754Y9322D02*
X11711D01*
X11670Y9305D01*
X11640Y9274D01*
X11623Y9234D01*
Y9191D01*
X11640Y9151D01*
X11670Y9120D01*
X11711Y9104D01*
X11754D01*
X11768Y9110D01*
X11770Y9109D01*
X11815Y9075D01*
Y9056D01*
X11831Y9015D01*
X11862Y8985D01*
X11870Y8936D01*
X11868Y8932D01*
X11853Y8896D01*
Y8853D01*
X11870Y8812D01*
X11900Y8782D01*
X11940Y8765D01*
X11984D01*
X12024Y8782D01*
X12054Y8812D01*
X12071Y8853D01*
Y8896D01*
X12054Y8936D01*
X12024Y8967D01*
X12016Y9015D01*
X12018Y9019D01*
X12033Y9056D01*
Y9099D01*
X12016Y9139D01*
X11985Y9170D01*
X11945Y9186D01*
X11902D01*
X11888Y9180D01*
X11886Y9181D01*
X11841Y9214D01*
Y9234D01*
X11825Y9274D01*
X11794Y9305D01*
X11754Y9322D01*
D02*
G37*
G36*
X18447Y9204D02*
X18404D01*
X18363Y9187D01*
X18333Y9156D01*
X18316Y9116D01*
Y9073D01*
X18333Y9033D01*
X18363Y9002D01*
Y8951D01*
X18333Y8920D01*
X18316Y8880D01*
Y8837D01*
X18333Y8796D01*
X18363Y8766D01*
X18404Y8749D01*
X18447D01*
X18487Y8766D01*
X18518Y8796D01*
X18534Y8837D01*
Y8880D01*
X18518Y8920D01*
X18487Y8951D01*
Y9002D01*
X18518Y9033D01*
X18534Y9073D01*
Y9116D01*
X18518Y9156D01*
X18487Y9187D01*
X18447Y9204D01*
D02*
G37*
G36*
X11242Y9046D02*
X11199D01*
X11159Y9029D01*
X11128Y8999D01*
X11111Y8959D01*
Y8915D01*
X11128Y8875D01*
X11159Y8845D01*
X11199Y8828D01*
X11203D01*
X11230Y8819D01*
Y8776D01*
X11246Y8736D01*
X11277Y8705D01*
X11317Y8689D01*
X11360D01*
X11400Y8705D01*
X11431Y8736D01*
X11448Y8776D01*
Y8781D01*
X11464Y8822D01*
X11494Y8827D01*
X11509D01*
X11549Y8843D01*
X11580Y8874D01*
X11596Y8914D01*
Y8958D01*
X11580Y8998D01*
X11549Y9028D01*
X11509Y9045D01*
X11465D01*
X11425Y9028D01*
X11395Y8998D01*
X11378Y8958D01*
X11330Y8959D01*
X11313Y8999D01*
X11282Y9029D01*
X11242Y9046D01*
D02*
G37*
G36*
X11639Y8654D02*
X11595D01*
X11555Y8637D01*
X11524Y8607D01*
X11508Y8567D01*
Y8523D01*
X11524Y8483D01*
X11555Y8452D01*
X11595Y8436D01*
X11639D01*
X11679Y8452D01*
X11709Y8483D01*
X11726Y8523D01*
Y8567D01*
X11709Y8607D01*
X11679Y8637D01*
X11639Y8654D01*
D02*
G37*
G36*
X12333Y8615D02*
X12290D01*
X12250Y8598D01*
X12219Y8567D01*
X12202Y8527D01*
Y8484D01*
X12219Y8444D01*
X12250Y8413D01*
X12290Y8396D01*
X12333D01*
X12373Y8413D01*
X12404Y8444D01*
X12421Y8484D01*
Y8527D01*
X12404Y8567D01*
X12373Y8598D01*
X12333Y8615D01*
D02*
G37*
G36*
X11162Y8551D02*
X11119D01*
X11078Y8534D01*
X11048Y8504D01*
X11031Y8463D01*
Y8420D01*
X11048Y8380D01*
X11078Y8349D01*
X11119Y8333D01*
X11162D01*
X11202Y8349D01*
X11233Y8380D01*
X11249Y8420D01*
Y8463D01*
X11233Y8504D01*
X11202Y8534D01*
X11162Y8551D01*
D02*
G37*
G36*
X10238Y8529D02*
X10195D01*
X10155Y8513D01*
X10124Y8482D01*
X10107Y8442D01*
Y8398D01*
X10124Y8358D01*
X10155Y8328D01*
X10195Y8311D01*
X10238D01*
X10278Y8328D01*
X10309Y8358D01*
X10325Y8398D01*
Y8442D01*
X10309Y8482D01*
X10278Y8513D01*
X10238Y8529D01*
D02*
G37*
G36*
X18841Y8731D02*
X18797D01*
X18757Y8715D01*
X18726Y8684D01*
X18710Y8644D01*
Y8600D01*
X18726Y8560D01*
X18757Y8530D01*
Y8478D01*
X18726Y8448D01*
X18710Y8408D01*
Y8364D01*
X18726Y8324D01*
X18757Y8293D01*
X18797Y8277D01*
X18841D01*
X18881Y8293D01*
X18911Y8324D01*
X18928Y8364D01*
Y8408D01*
X18911Y8448D01*
X18881Y8478D01*
Y8530D01*
X18911Y8560D01*
X18928Y8600D01*
Y8644D01*
X18911Y8684D01*
X18881Y8715D01*
X18841Y8731D01*
D02*
G37*
G36*
X18447Y8495D02*
X18404D01*
X18363Y8478D01*
X18333Y8448D01*
X18316Y8408D01*
Y8364D01*
X18333Y8324D01*
X18363Y8293D01*
X18404Y8277D01*
X18447D01*
X18487Y8293D01*
X18518Y8324D01*
X18534Y8364D01*
Y8408D01*
X18518Y8448D01*
X18487Y8478D01*
X18447Y8495D01*
D02*
G37*
G36*
X18053Y8731D02*
X18010D01*
X17970Y8715D01*
X17939Y8684D01*
X17922Y8644D01*
Y8600D01*
X17939Y8560D01*
X17970Y8530D01*
Y8478D01*
X17939Y8448D01*
X17922Y8408D01*
Y8364D01*
X17939Y8324D01*
X17970Y8293D01*
X18010Y8277D01*
X18053D01*
X18093Y8293D01*
X18124Y8324D01*
X18141Y8364D01*
Y8408D01*
X18124Y8448D01*
X18093Y8478D01*
Y8530D01*
X18124Y8560D01*
X18141Y8600D01*
Y8644D01*
X18124Y8684D01*
X18093Y8715D01*
X18053Y8731D01*
D02*
G37*
G36*
X17659D02*
X17616D01*
X17576Y8715D01*
X17545Y8684D01*
X17529Y8644D01*
Y8600D01*
X17545Y8560D01*
X17576Y8530D01*
Y8478D01*
X17545Y8448D01*
X17529Y8408D01*
Y8364D01*
X17545Y8324D01*
X17576Y8293D01*
X17616Y8277D01*
X17659D01*
X17700Y8293D01*
X17730Y8324D01*
X17747Y8364D01*
Y8408D01*
X17730Y8448D01*
X17700Y8478D01*
Y8530D01*
X17730Y8560D01*
X17747Y8600D01*
Y8644D01*
X17730Y8684D01*
X17700Y8715D01*
X17659Y8731D01*
D02*
G37*
G36*
X15888Y8495D02*
X15844D01*
X15804Y8478D01*
X15774Y8448D01*
X15757Y8408D01*
Y8364D01*
X15774Y8324D01*
X15804Y8293D01*
X15844Y8277D01*
X15888D01*
X15928Y8293D01*
X15959Y8324D01*
X15975Y8364D01*
Y8408D01*
X15959Y8448D01*
X15928Y8478D01*
X15888Y8495D01*
D02*
G37*
G36*
X12536Y8438D02*
X12492D01*
X12452Y8421D01*
X12422Y8391D01*
X12405Y8351D01*
Y8307D01*
X12422Y8267D01*
X12452Y8236D01*
X12492Y8220D01*
X12536D01*
X12576Y8236D01*
X12606Y8267D01*
X12623Y8307D01*
Y8351D01*
X12606Y8391D01*
X12576Y8421D01*
X12536Y8438D01*
D02*
G37*
G36*
X16360Y8810D02*
X16317D01*
X16277Y8793D01*
X16246Y8763D01*
X16230Y8722D01*
Y8679D01*
X16246Y8639D01*
X16250Y8635D01*
X16273Y8602D01*
X16250Y8570D01*
X16246Y8566D01*
X16230Y8526D01*
Y8482D01*
X16246Y8442D01*
X16250Y8438D01*
X16273Y8406D01*
X16250Y8373D01*
X16246Y8369D01*
X16230Y8329D01*
Y8285D01*
X16246Y8245D01*
X16277Y8215D01*
X16317Y8198D01*
X16360D01*
X16400Y8215D01*
X16431Y8245D01*
X16448Y8285D01*
Y8329D01*
X16431Y8369D01*
X16427Y8373D01*
X16404Y8406D01*
X16427Y8438D01*
X16431Y8442D01*
X16448Y8482D01*
Y8526D01*
X16431Y8566D01*
X16427Y8570D01*
X16404Y8602D01*
X16427Y8635D01*
X16431Y8639D01*
X16448Y8679D01*
Y8722D01*
X16431Y8763D01*
X16400Y8793D01*
X16360Y8810D01*
D02*
G37*
G36*
X11737Y8393D02*
X11694D01*
X11654Y8376D01*
X11623Y8346D01*
X11607Y8306D01*
Y8262D01*
X11623Y8222D01*
X11654Y8192D01*
X11694Y8175D01*
X11737D01*
X11778Y8192D01*
X11808Y8222D01*
X11825Y8262D01*
Y8306D01*
X11808Y8346D01*
X11778Y8376D01*
X11737Y8393D01*
D02*
G37*
G36*
X10476Y8308D02*
X10433D01*
X10393Y8291D01*
X10362Y8261D01*
X10345Y8221D01*
Y8177D01*
X10362Y8137D01*
X10393Y8106D01*
X10433Y8090D01*
X10476D01*
X10516Y8106D01*
X10547Y8137D01*
X10557Y8163D01*
X10558Y8165D01*
X10608Y8155D01*
X10608Y8154D01*
Y8147D01*
X10625Y8106D01*
X10656Y8076D01*
X10696Y8059D01*
X10739D01*
X10779Y8076D01*
X10810Y8106D01*
X10826Y8147D01*
Y8190D01*
X10810Y8230D01*
X10779Y8261D01*
X10739Y8277D01*
X10696D01*
X10656Y8261D01*
X10625Y8230D01*
X10614Y8204D01*
X10613Y8202D01*
X10563Y8212D01*
X10563Y8213D01*
Y8221D01*
X10547Y8261D01*
X10516Y8291D01*
X10476Y8308D01*
D02*
G37*
G36*
X15848Y8062D02*
X15805D01*
X15765Y8045D01*
X15734Y8015D01*
X15718Y7974D01*
Y7931D01*
X15734Y7891D01*
X15765Y7860D01*
X15805Y7844D01*
X15848D01*
X15889Y7860D01*
X15919Y7891D01*
X15936Y7931D01*
Y7974D01*
X15919Y8015D01*
X15889Y8045D01*
X15848Y8062D01*
D02*
G37*
G36*
X11242Y8159D02*
X11198D01*
X11158Y8142D01*
X11127Y8112D01*
X11111Y8072D01*
Y8028D01*
X11127Y7988D01*
X11158Y7958D01*
X11198Y7941D01*
X11232D01*
Y7910D01*
X11249Y7870D01*
X11280Y7840D01*
X11320Y7823D01*
X11363D01*
X11403Y7840D01*
X11434Y7870D01*
X11451Y7910D01*
Y7954D01*
X11434Y7994D01*
X11403Y8024D01*
X11363Y8041D01*
X11329D01*
Y8072D01*
X11312Y8112D01*
X11282Y8142D01*
X11242Y8159D01*
D02*
G37*
G36*
X11906Y8040D02*
X11862D01*
X11822Y8023D01*
X11792Y7992D01*
X11775Y7952D01*
Y7909D01*
X11792Y7869D01*
X11822Y7838D01*
X11862Y7822D01*
X11906D01*
X11908Y7820D01*
Y7806D01*
X11925Y7766D01*
X11955Y7735D01*
X11995Y7718D01*
X12039D01*
X12079Y7735D01*
X12109Y7766D01*
X12126Y7806D01*
Y7849D01*
X12109Y7889D01*
X12079Y7920D01*
X12039Y7937D01*
X11995D01*
X11993Y7938D01*
Y7952D01*
X11977Y7992D01*
X11946Y8023D01*
X11906Y8040D01*
D02*
G37*
G36*
X15848Y7747D02*
X15805D01*
X15765Y7730D01*
X15734Y7700D01*
X15718Y7659D01*
Y7616D01*
X15734Y7576D01*
X15765Y7545D01*
X15805Y7529D01*
X15848D01*
X15889Y7545D01*
X15919Y7576D01*
X15936Y7616D01*
Y7659D01*
X15919Y7700D01*
X15889Y7730D01*
X15848Y7747D01*
D02*
G37*
G36*
X12274Y7625D02*
X12230D01*
X12190Y7608D01*
X12160Y7578D01*
X12143Y7538D01*
Y7494D01*
X12160Y7454D01*
X12190Y7424D01*
X12230Y7407D01*
X12274D01*
X12314Y7424D01*
X12344Y7454D01*
X12361Y7494D01*
Y7538D01*
X12344Y7578D01*
X12314Y7608D01*
X12274Y7625D01*
D02*
G37*
G36*
X23991Y8025D02*
X23936D01*
X23885Y8004D01*
X23846Y7965D01*
X23830Y7962D01*
X23824Y7968D01*
X23773Y7989D01*
X23718D01*
X23667Y7968D01*
X23628Y7929D01*
X23607Y7878D01*
Y7823D01*
X23628Y7772D01*
X23667Y7733D01*
X23718Y7712D01*
X23752D01*
Y7669D01*
X23773Y7618D01*
X23812Y7579D01*
X23863Y7558D01*
X23919D01*
X23969Y7579D01*
X24008Y7618D01*
X24030Y7669D01*
Y7724D01*
X24015Y7758D01*
X24042Y7769D01*
X24081Y7808D01*
X24102Y7859D01*
Y7914D01*
X24081Y7965D01*
X24042Y8004D01*
X23991Y8025D01*
D02*
G37*
G36*
X22048Y7641D02*
X21993D01*
X21942Y7620D01*
X21935Y7613D01*
X21928Y7620D01*
X21877Y7641D01*
X21822D01*
X21771Y7620D01*
X21764Y7613D01*
X21757Y7620D01*
X21706Y7641D01*
X21651D01*
X21600Y7620D01*
X21561Y7581D01*
X21540Y7530D01*
Y7475D01*
X21561Y7424D01*
X21600Y7385D01*
X21651Y7364D01*
X21706D01*
X21757Y7385D01*
X21764Y7392D01*
X21771Y7385D01*
X21822Y7364D01*
X21877D01*
X21928Y7385D01*
X21935Y7392D01*
X21942Y7385D01*
X21993Y7364D01*
X22048D01*
X22099Y7385D01*
X22138Y7424D01*
X22159Y7475D01*
Y7530D01*
X22138Y7581D01*
X22099Y7620D01*
X22048Y7641D01*
D02*
G37*
G36*
X22900Y7767D02*
X22848D01*
X22801Y7747D01*
X22765Y7711D01*
X22745Y7663D01*
Y7612D01*
X22765Y7565D01*
X22801Y7529D01*
X22848Y7509D01*
X22900D01*
X22947Y7529D01*
X22962Y7543D01*
X22996Y7558D01*
X23027Y7543D01*
X23043Y7527D01*
X23091Y7507D01*
X23142D01*
X23189Y7527D01*
X23225Y7563D01*
X23245Y7610D01*
Y7662D01*
X23225Y7709D01*
X23189Y7745D01*
X23142Y7765D01*
X23091D01*
X23043Y7745D01*
X23029Y7731D01*
X22994Y7715D01*
X22963Y7731D01*
X22947Y7747D01*
X22900Y7767D01*
D02*
G37*
G36*
X21424Y6667D02*
X21369D01*
X21318Y6645D01*
X21292Y6620D01*
X21268Y6644D01*
X21217Y6665D01*
X21162D01*
X21111Y6644D01*
X21084Y6616D01*
X21060Y6640D01*
X21009Y6661D01*
X20954D01*
X20903Y6640D01*
X20864Y6601D01*
X20843Y6550D01*
Y6495D01*
X20864Y6444D01*
X20890Y6418D01*
X20873Y6401D01*
X20852Y6350D01*
Y6295D01*
X20873Y6244D01*
X20912Y6205D01*
X20963Y6184D01*
X21018D01*
X21069Y6205D01*
X21097Y6233D01*
X21119Y6211D01*
X21170Y6190D01*
X21225D01*
X21276Y6211D01*
X21301Y6236D01*
X21320Y6216D01*
X21371Y6195D01*
X21426D01*
X21477Y6216D01*
X21516Y6255D01*
X21537Y6306D01*
Y6361D01*
X21516Y6412D01*
X21497Y6432D01*
X21514Y6449D01*
X21535Y6500D01*
Y6556D01*
X21514Y6607D01*
X21475Y6645D01*
X21424Y6667D01*
D02*
G37*
G36*
X21179Y4521D02*
X21124D01*
X21073Y4500D01*
X21034Y4461D01*
X21013Y4410D01*
Y4355D01*
X21034Y4304D01*
X21073Y4265D01*
X21124Y4244D01*
X21179D01*
X21230Y4265D01*
X21249Y4284D01*
X21288Y4294D01*
X21313Y4282D01*
X21337Y4258D01*
X21388Y4237D01*
X21443D01*
X21494Y4258D01*
X21533Y4297D01*
X21573Y4272D01*
X21560Y4240D01*
Y4184D01*
X21581Y4133D01*
X21620Y4094D01*
X21671Y4073D01*
X21726D01*
X21726Y4073D01*
X21764Y4035D01*
X21751Y4004D01*
Y3949D01*
X21772Y3900D01*
X21772Y3898D01*
X21767Y3870D01*
X21753Y3846D01*
X21745Y3845D01*
X21739Y3851D01*
X21732Y3858D01*
X21681Y3879D01*
X21626D01*
X21575Y3858D01*
X21536Y3819D01*
X21515Y3768D01*
Y3713D01*
X21536Y3662D01*
X21543Y3655D01*
X21574Y3622D01*
X21543Y3589D01*
X21536Y3582D01*
X21515Y3532D01*
Y3476D01*
X21536Y3425D01*
X21575Y3386D01*
X21626Y3365D01*
X21681D01*
X21732Y3386D01*
X21739Y3393D01*
X21772Y3425D01*
X21804Y3393D01*
X21811Y3386D01*
X21862Y3365D01*
X21917D01*
X21968Y3386D01*
X21975Y3393D01*
X22008Y3425D01*
X22041Y3393D01*
X22047Y3386D01*
X22098Y3365D01*
X22154D01*
X22204Y3386D01*
X22211Y3393D01*
X22244Y3425D01*
X22277Y3393D01*
X22284Y3386D01*
X22335Y3365D01*
X22390D01*
X22441Y3386D01*
X22480Y3425D01*
X22501Y3476D01*
Y3532D01*
X22480Y3582D01*
X22473Y3589D01*
X22441Y3622D01*
X22473Y3655D01*
X22480Y3662D01*
X22501Y3713D01*
Y3768D01*
X22480Y3819D01*
X22441Y3858D01*
X22390Y3879D01*
X22335D01*
X22284Y3858D01*
X22277Y3851D01*
X22244Y3819D01*
X22211Y3851D01*
X22204Y3858D01*
X22154Y3879D01*
X22098D01*
X22047Y3858D01*
X22014Y3864D01*
X22014Y3864D01*
X22014Y3865D01*
X22007Y3898D01*
X22028Y3949D01*
Y4004D01*
X22007Y4055D01*
X21968Y4094D01*
X21917Y4115D01*
X21862D01*
X21862Y4115D01*
X21824Y4153D01*
X21837Y4184D01*
Y4240D01*
X21816Y4290D01*
X21777Y4329D01*
X21726Y4351D01*
X21671D01*
X21620Y4329D01*
X21581Y4290D01*
X21541Y4316D01*
X21554Y4348D01*
Y4403D01*
X21533Y4454D01*
X21494Y4493D01*
X21443Y4514D01*
X21388D01*
X21337Y4493D01*
X21318Y4474D01*
X21279Y4463D01*
X21254Y4476D01*
X21230Y4500D01*
X21179Y4521D01*
D02*
G37*
G36*
X23854Y2596D02*
X23799D01*
X23748Y2575D01*
X23709Y2536D01*
X23688Y2485D01*
Y2430D01*
X23709Y2379D01*
X23748Y2340D01*
X23799Y2319D01*
X23854D01*
X23905Y2340D01*
X23944Y2379D01*
X23965Y2430D01*
Y2485D01*
X23944Y2536D01*
X23905Y2575D01*
X23854Y2596D01*
D02*
G37*
G36*
X18027Y7038D02*
X17983D01*
X17943Y7021D01*
X17912Y6990D01*
X17896Y6950D01*
Y6907D01*
X17912Y6867D01*
X17943Y6836D01*
X17983Y6820D01*
X18027D01*
X18067Y6836D01*
X18097Y6867D01*
X18114Y6907D01*
Y6950D01*
X18097Y6990D01*
X18067Y7021D01*
X18027Y7038D01*
D02*
G37*
G36*
X19164Y6886D02*
X19121D01*
X19081Y6870D01*
X19050Y6839D01*
X19033Y6799D01*
Y6756D01*
X19050Y6715D01*
X19081Y6685D01*
X19121Y6668D01*
X19164D01*
X19204Y6685D01*
X19235Y6715D01*
X19251Y6756D01*
Y6799D01*
X19235Y6839D01*
X19204Y6870D01*
X19164Y6886D01*
D02*
G37*
G36*
X17514Y6979D02*
X17471D01*
X17431Y6963D01*
X17400Y6932D01*
X17384Y6892D01*
Y6848D01*
X17400Y6808D01*
X17431Y6778D01*
X17471Y6761D01*
X17488D01*
X17520Y6747D01*
X17534Y6715D01*
Y6698D01*
X17551Y6658D01*
X17581Y6627D01*
X17621Y6611D01*
X17665D01*
X17705Y6627D01*
X17736Y6658D01*
X17752Y6698D01*
Y6741D01*
X17736Y6781D01*
X17705Y6812D01*
X17665Y6829D01*
X17648D01*
X17616Y6842D01*
X17602Y6875D01*
Y6892D01*
X17585Y6932D01*
X17554Y6963D01*
X17514Y6979D01*
D02*
G37*
G36*
X18762Y6801D02*
X18718D01*
X18678Y6785D01*
X18648Y6754D01*
X18631Y6714D01*
Y6670D01*
X18648Y6630D01*
X18678Y6600D01*
X18718Y6583D01*
X18762D01*
X18802Y6600D01*
X18833Y6630D01*
X18849Y6670D01*
Y6714D01*
X18833Y6754D01*
X18802Y6785D01*
X18762Y6801D01*
D02*
G37*
G36*
X18211Y6802D02*
X18167D01*
X18127Y6785D01*
X18097Y6755D01*
X18080Y6715D01*
Y6671D01*
X18097Y6631D01*
X18127Y6600D01*
X18167Y6584D01*
X18211D01*
X18214Y6585D01*
X18221Y6581D01*
X18238Y6540D01*
X18269Y6510D01*
X18309Y6493D01*
X18352D01*
X18392Y6510D01*
X18423Y6540D01*
X18440Y6581D01*
Y6624D01*
X18423Y6664D01*
X18392Y6695D01*
X18352Y6711D01*
X18309D01*
X18305Y6710D01*
X18298Y6715D01*
X18281Y6755D01*
X18251Y6785D01*
X18211Y6802D01*
D02*
G37*
G36*
X17391Y6692D02*
X17348D01*
X17308Y6675D01*
X17277Y6644D01*
X17261Y6604D01*
Y6561D01*
X17277Y6521D01*
X17308Y6490D01*
X17348Y6474D01*
X17391D01*
X17431Y6490D01*
X17462Y6521D01*
X17479Y6561D01*
Y6604D01*
X17462Y6644D01*
X17431Y6675D01*
X17391Y6692D01*
D02*
G37*
G36*
X17935Y6674D02*
X17892D01*
X17852Y6657D01*
X17821Y6626D01*
X17804Y6586D01*
Y6543D01*
X17821Y6503D01*
X17852Y6472D01*
X17892Y6455D01*
X17935D01*
X17975Y6472D01*
X18006Y6503D01*
X18022Y6543D01*
Y6586D01*
X18006Y6626D01*
X17975Y6657D01*
X17935Y6674D01*
D02*
G37*
G36*
X16810Y6594D02*
X16766D01*
X16726Y6577D01*
X16695Y6547D01*
X16679Y6507D01*
Y6463D01*
X16695Y6423D01*
X16726Y6392D01*
X16766Y6376D01*
X16810D01*
X16850Y6392D01*
X16880Y6423D01*
X16897Y6463D01*
Y6507D01*
X16880Y6547D01*
X16850Y6577D01*
X16810Y6594D01*
D02*
G37*
G36*
X17089Y6457D02*
X17046D01*
X17006Y6440D01*
X16975Y6410D01*
X16959Y6370D01*
Y6326D01*
X16975Y6286D01*
X17006Y6256D01*
X17046Y6239D01*
X17089D01*
X17129Y6256D01*
X17143Y6269D01*
X17173Y6238D01*
X17213Y6222D01*
X17257D01*
X17297Y6238D01*
X17327Y6269D01*
X17344Y6309D01*
Y6352D01*
X17327Y6392D01*
X17297Y6423D01*
X17257Y6440D01*
X17213D01*
X17173Y6423D01*
X17160Y6410D01*
X17129Y6440D01*
X17089Y6457D01*
D02*
G37*
G36*
X17797Y6419D02*
X17754D01*
X17714Y6402D01*
X17683Y6371D01*
X17666Y6331D01*
Y6288D01*
X17683Y6248D01*
X17714Y6217D01*
X17754Y6201D01*
X17797D01*
X17837Y6217D01*
X17868Y6248D01*
X17885Y6288D01*
Y6331D01*
X17868Y6371D01*
X17837Y6402D01*
X17797Y6419D01*
D02*
G37*
G36*
X18944Y6405D02*
X18901D01*
X18861Y6388D01*
X18830Y6357D01*
X18814Y6317D01*
Y6274D01*
X18830Y6234D01*
X18861Y6203D01*
X18892Y6191D01*
X18930Y6152D01*
Y6108D01*
X18946Y6068D01*
X18977Y6038D01*
X19017Y6021D01*
X19060D01*
X19100Y6038D01*
X19131Y6068D01*
X19148Y6108D01*
Y6152D01*
X19131Y6192D01*
X19100Y6222D01*
X19070Y6235D01*
X19032Y6274D01*
Y6317D01*
X19015Y6357D01*
X18985Y6388D01*
X18944Y6405D01*
D02*
G37*
G36*
X16131Y5675D02*
X16087D01*
X16047Y5659D01*
X16017Y5628D01*
X16000Y5588D01*
Y5544D01*
X16017Y5504D01*
X16047Y5474D01*
X16087Y5457D01*
X16131D01*
X16171Y5474D01*
X16201Y5504D01*
X16218Y5544D01*
Y5588D01*
X16201Y5628D01*
X16171Y5659D01*
X16131Y5675D01*
D02*
G37*
G36*
X15848Y5660D02*
X15805D01*
X15765Y5644D01*
X15734Y5613D01*
X15718Y5573D01*
Y5529D01*
X15734Y5489D01*
X15765Y5459D01*
X15805Y5442D01*
X15848D01*
X15889Y5459D01*
X15919Y5489D01*
X15936Y5529D01*
Y5573D01*
X15919Y5613D01*
X15889Y5644D01*
X15848Y5660D01*
D02*
G37*
G36*
X16793Y5345D02*
X16750D01*
X16710Y5329D01*
X16679Y5298D01*
X16666Y5265D01*
X16638Y5259D01*
X16614Y5261D01*
X16603Y5288D01*
X16572Y5318D01*
X16532Y5335D01*
X16489D01*
X16449Y5318D01*
X16418Y5288D01*
X16401Y5248D01*
Y5204D01*
X16418Y5164D01*
X16449Y5133D01*
X16489Y5117D01*
X16532D01*
X16572Y5133D01*
X16603Y5164D01*
X16616Y5197D01*
X16644Y5203D01*
X16668Y5201D01*
X16679Y5174D01*
X16710Y5144D01*
X16750Y5127D01*
X16793D01*
X16833Y5144D01*
X16864Y5174D01*
X16881Y5215D01*
Y5258D01*
X16864Y5298D01*
X16833Y5329D01*
X16793Y5345D01*
D02*
G37*
G36*
X15247Y5373D02*
X15203D01*
X15163Y5357D01*
X15132Y5326D01*
X15116Y5286D01*
Y5243D01*
X15132Y5203D01*
X15163Y5172D01*
X15203Y5155D01*
X15247D01*
X15287Y5172D01*
X15317Y5203D01*
X15334Y5243D01*
Y5286D01*
X15317Y5326D01*
X15287Y5357D01*
X15247Y5373D01*
D02*
G37*
G36*
X16147Y5350D02*
X16104D01*
X16064Y5333D01*
X16033Y5302D01*
X16017Y5262D01*
Y5219D01*
X16033Y5179D01*
X16064Y5148D01*
X16104Y5131D01*
X16147D01*
X16188Y5148D01*
X16218Y5179D01*
X16235Y5219D01*
Y5262D01*
X16218Y5302D01*
X16188Y5333D01*
X16147Y5350D01*
D02*
G37*
G36*
X15848Y5345D02*
X15805D01*
X15765Y5329D01*
X15734Y5298D01*
X15718Y5258D01*
Y5215D01*
X15734Y5174D01*
X15765Y5144D01*
X15805Y5127D01*
X15848D01*
X15889Y5144D01*
X15919Y5174D01*
X15936Y5215D01*
Y5258D01*
X15919Y5298D01*
X15889Y5329D01*
X15848Y5345D01*
D02*
G37*
G36*
X15533D02*
X15490D01*
X15450Y5329D01*
X15419Y5298D01*
X15403Y5258D01*
Y5215D01*
X15419Y5174D01*
X15450Y5144D01*
X15490Y5127D01*
X15533D01*
X15574Y5144D01*
X15604Y5174D01*
X15621Y5215D01*
Y5258D01*
X15604Y5298D01*
X15574Y5329D01*
X15533Y5345D01*
D02*
G37*
G36*
X15219Y5030D02*
X15175D01*
X15135Y5014D01*
X15104Y4983D01*
X15088Y4943D01*
Y4900D01*
X15104Y4859D01*
X15135Y4829D01*
X15175Y4812D01*
X15219D01*
X15259Y4829D01*
X15289Y4859D01*
X15306Y4900D01*
Y4943D01*
X15289Y4983D01*
X15259Y5014D01*
X15219Y5030D01*
D02*
G37*
G36*
X11502Y5955D02*
X11459D01*
X11419Y5938D01*
X11388Y5908D01*
X11372Y5867D01*
Y5824D01*
X11388Y5784D01*
X11419Y5753D01*
X11459Y5737D01*
X11502D01*
X11543Y5753D01*
X11573Y5784D01*
X11590Y5824D01*
Y5867D01*
X11573Y5908D01*
X11543Y5938D01*
X11502Y5955D01*
D02*
G37*
G36*
X10910Y5957D02*
X10867D01*
X10827Y5940D01*
X10796Y5910D01*
X10780Y5870D01*
Y5826D01*
X10796Y5786D01*
X10827Y5755D01*
X10867Y5739D01*
X10900D01*
X10913Y5691D01*
X10913Y5690D01*
X10882Y5659D01*
X10865Y5619D01*
Y5576D01*
X10882Y5536D01*
X10913Y5505D01*
X10953Y5488D01*
X10996D01*
X11036Y5505D01*
X11067Y5536D01*
X11074Y5553D01*
X11128D01*
X11134Y5539D01*
X11165Y5508D01*
X11205Y5492D01*
X11248D01*
X11288Y5508D01*
X11319Y5539D01*
X11335Y5579D01*
Y5622D01*
X11319Y5662D01*
X11288Y5693D01*
X11248Y5710D01*
X11205D01*
X11165Y5693D01*
X11134Y5662D01*
X11127Y5645D01*
X11073D01*
X11067Y5659D01*
X11036Y5690D01*
X10996Y5706D01*
X10963D01*
X10951Y5755D01*
X10951Y5756D01*
X10981Y5786D01*
X10998Y5826D01*
Y5870D01*
X10981Y5910D01*
X10950Y5940D01*
X10910Y5957D01*
D02*
G37*
G36*
X11892Y5326D02*
X11848D01*
X11808Y5309D01*
X11778Y5278D01*
X11761Y5238D01*
Y5195D01*
X11778Y5155D01*
X11808Y5124D01*
X11848Y5107D01*
X11892D01*
X11932Y5124D01*
X11963Y5155D01*
X11979Y5195D01*
Y5238D01*
X11963Y5278D01*
X11932Y5309D01*
X11892Y5326D01*
D02*
G37*
G36*
X11439Y3024D02*
X11396D01*
X11356Y3008D01*
X11325Y2977D01*
X11308Y2937D01*
Y2894D01*
X11325Y2853D01*
X11356Y2823D01*
X11396Y2806D01*
X11439D01*
X11479Y2823D01*
X11510Y2853D01*
X11526Y2894D01*
Y2937D01*
X11510Y2977D01*
X11479Y3008D01*
X11439Y3024D01*
D02*
G37*
G36*
X11882Y2819D02*
X11838D01*
X11798Y2803D01*
X11768Y2772D01*
X11751Y2732D01*
Y2689D01*
X11768Y2649D01*
X11798Y2618D01*
X11838Y2601D01*
X11882D01*
X11922Y2618D01*
X11949Y2645D01*
X11949Y2645D01*
X11980Y2614D01*
X12020Y2598D01*
X12064D01*
X12104Y2614D01*
X12134Y2645D01*
X12151Y2685D01*
Y2729D01*
X12134Y2769D01*
X12104Y2799D01*
X12064Y2816D01*
X12020D01*
X11980Y2799D01*
X11953Y2772D01*
X11953Y2772D01*
X11922Y2803D01*
X11882Y2819D01*
D02*
G37*
G36*
X18841Y4912D02*
X18797D01*
X18757Y4896D01*
X18726Y4865D01*
X18710Y4825D01*
Y4781D01*
X18726Y4741D01*
X18757Y4711D01*
X18797Y4694D01*
X18841D01*
X18881Y4711D01*
X18911Y4741D01*
X18928Y4781D01*
Y4825D01*
X18911Y4865D01*
X18881Y4896D01*
X18841Y4912D01*
D02*
G37*
G36*
X18053D02*
X18010D01*
X17970Y4896D01*
X17939Y4865D01*
X17922Y4825D01*
Y4781D01*
X17939Y4741D01*
X17970Y4711D01*
X18010Y4694D01*
X18053D01*
X18093Y4711D01*
X18124Y4741D01*
X18141Y4781D01*
Y4825D01*
X18124Y4865D01*
X18093Y4896D01*
X18053Y4912D01*
D02*
G37*
G36*
X17659D02*
X17616D01*
X17576Y4896D01*
X17545Y4865D01*
X17529Y4825D01*
Y4781D01*
X17545Y4741D01*
X17576Y4711D01*
X17616Y4694D01*
X17659D01*
X17700Y4711D01*
X17730Y4741D01*
X17747Y4781D01*
Y4825D01*
X17730Y4865D01*
X17700Y4896D01*
X17659Y4912D01*
D02*
G37*
G36*
X18447D02*
X18404D01*
X18363Y4896D01*
X18333Y4865D01*
X18316Y4825D01*
Y4781D01*
X18333Y4741D01*
X18363Y4711D01*
Y4659D01*
X18333Y4629D01*
X18316Y4589D01*
Y4545D01*
X18333Y4505D01*
X18363Y4474D01*
X18404Y4458D01*
X18447D01*
X18487Y4474D01*
X18518Y4505D01*
X18534Y4545D01*
Y4589D01*
X18518Y4629D01*
X18487Y4659D01*
Y4711D01*
X18518Y4741D01*
X18534Y4781D01*
Y4825D01*
X18518Y4865D01*
X18487Y4896D01*
X18447Y4912D01*
D02*
G37*
G36*
X18841Y4440D02*
X18797D01*
X18757Y4423D01*
X18726Y4392D01*
X18710Y4352D01*
Y4309D01*
X18726Y4269D01*
X18757Y4238D01*
Y4187D01*
X18726Y4156D01*
X18710Y4116D01*
Y4073D01*
X18726Y4033D01*
X18757Y4002D01*
X18797Y3985D01*
X18841D01*
X18881Y4002D01*
X18911Y4033D01*
X18928Y4073D01*
Y4116D01*
X18911Y4156D01*
X18881Y4187D01*
Y4238D01*
X18911Y4269D01*
X18928Y4309D01*
Y4352D01*
X18911Y4392D01*
X18881Y4423D01*
X18841Y4440D01*
D02*
G37*
G36*
X18447Y4204D02*
X18404D01*
X18363Y4187D01*
X18333Y4156D01*
X18316Y4116D01*
Y4073D01*
X18333Y4033D01*
X18363Y4002D01*
X18404Y3985D01*
X18447D01*
X18487Y4002D01*
X18518Y4033D01*
X18534Y4073D01*
Y4116D01*
X18518Y4156D01*
X18487Y4187D01*
X18447Y4204D01*
D02*
G37*
G36*
X18053Y4440D02*
X18010D01*
X17970Y4423D01*
X17939Y4392D01*
X17922Y4352D01*
Y4309D01*
X17939Y4269D01*
X17970Y4238D01*
Y4187D01*
X17939Y4156D01*
X17922Y4116D01*
Y4073D01*
X17939Y4033D01*
X17970Y4002D01*
X18010Y3985D01*
X18053D01*
X18093Y4002D01*
X18124Y4033D01*
X18141Y4073D01*
Y4116D01*
X18124Y4156D01*
X18093Y4187D01*
Y4238D01*
X18124Y4269D01*
X18141Y4309D01*
Y4352D01*
X18124Y4392D01*
X18093Y4423D01*
X18053Y4440D01*
D02*
G37*
G36*
X17659D02*
X17616D01*
X17576Y4423D01*
X17545Y4392D01*
X17529Y4352D01*
Y4309D01*
X17545Y4269D01*
X17576Y4238D01*
Y4187D01*
X17545Y4156D01*
X17529Y4116D01*
Y4073D01*
X17545Y4033D01*
X17576Y4002D01*
X17616Y3985D01*
X17659D01*
X17700Y4002D01*
X17730Y4033D01*
X17747Y4073D01*
Y4116D01*
X17730Y4156D01*
X17700Y4187D01*
Y4238D01*
X17730Y4269D01*
X17747Y4309D01*
Y4352D01*
X17730Y4392D01*
X17700Y4423D01*
X17659Y4440D01*
D02*
G37*
G36*
X16833Y4322D02*
X16789D01*
X16749Y4305D01*
X16719Y4274D01*
X16702Y4234D01*
Y4191D01*
X16719Y4151D01*
X16723Y4147D01*
X16745Y4114D01*
X16723Y4081D01*
X16719Y4078D01*
X16702Y4037D01*
Y3994D01*
X16719Y3954D01*
X16749Y3923D01*
X16789Y3907D01*
X16833D01*
X16873Y3923D01*
X16903Y3954D01*
X16920Y3994D01*
Y4037D01*
X16903Y4078D01*
X16899Y4081D01*
X16877Y4114D01*
X16899Y4147D01*
X16903Y4151D01*
X16920Y4191D01*
Y4234D01*
X16903Y4274D01*
X16873Y4305D01*
X16833Y4322D01*
D02*
G37*
G36*
X16360Y4518D02*
X16317D01*
X16277Y4502D01*
X16246Y4471D01*
X16230Y4431D01*
Y4388D01*
X16246Y4348D01*
X16250Y4344D01*
X16273Y4311D01*
X16250Y4278D01*
X16246Y4274D01*
X16230Y4234D01*
Y4191D01*
X16246Y4151D01*
X16250Y4147D01*
X16273Y4114D01*
X16250Y4081D01*
X16246Y4078D01*
X16230Y4037D01*
Y3994D01*
X16246Y3954D01*
X16277Y3923D01*
X16317Y3907D01*
X16360D01*
X16400Y3923D01*
X16431Y3954D01*
X16448Y3994D01*
Y4037D01*
X16431Y4078D01*
X16427Y4081D01*
X16404Y4114D01*
X16427Y4147D01*
X16431Y4151D01*
X16448Y4191D01*
Y4234D01*
X16431Y4274D01*
X16427Y4278D01*
X16404Y4311D01*
X16427Y4344D01*
X16431Y4348D01*
X16448Y4388D01*
Y4431D01*
X16431Y4471D01*
X16400Y4502D01*
X16360Y4518D01*
D02*
G37*
%LPD*%
D10*
X23300Y2300D02*
X23564Y2564D01*
X23300Y1481D02*
Y2300D01*
X23564Y2564D02*
Y3693D01*
X23450Y3808D02*
X23564Y3693D01*
X23450Y3808D02*
Y6700D01*
X23240Y6910D02*
X23450Y6700D01*
X22849Y6910D02*
X23240D01*
X24863Y2277D02*
Y6053D01*
X24705Y2118D02*
X24863Y2277D01*
X24685Y6231D02*
X24863Y6053D01*
D13*
X22196Y1496D02*
X22400Y1700D01*
X22008Y1496D02*
X22196D01*
X22400Y1700D02*
X22800D01*
X23186Y2086D02*
Y2347D01*
X22800Y1700D02*
X23186Y2086D01*
Y2347D02*
X23450Y2612D01*
Y3646D01*
X23336Y3760D02*
Y4364D01*
X22900Y4800D02*
X23336Y4364D01*
Y3760D02*
X23450Y3646D01*
X22900Y4800D02*
Y5550D01*
X22700Y5750D02*
X22900Y5550D01*
X22398Y5750D02*
X22700D01*
X22295Y5853D02*
X22398Y5750D01*
D33*
X25334Y3644D02*
D03*
X25595Y3637D02*
D03*
X24665Y6693D02*
D03*
X22143Y8867D02*
D03*
X21993Y2202D02*
D03*
X22205Y2205D02*
D03*
X21778Y2206D02*
D03*
X20478Y5596D02*
D03*
Y5792D02*
D03*
Y5989D02*
D03*
X21273Y8038D02*
D03*
Y8196D02*
D03*
X21430D02*
D03*
Y8038D02*
D03*
X24705Y2118D02*
D03*
X24683Y6919D02*
D03*
X26821Y5502D02*
D03*
X26663D02*
D03*
X20600Y6395D02*
D03*
X24685Y6231D02*
D03*
X26654Y4606D02*
D03*
Y4449D02*
D03*
Y4291D02*
D03*
X26811Y4449D02*
D03*
Y4606D02*
D03*
Y4291D02*
D03*
X26654Y4134D02*
D03*
X26811D02*
D03*
X22008Y1496D02*
D03*
X23300Y1481D02*
D03*
X25082Y3644D02*
D03*
X24646Y4528D02*
D03*
X25945Y3740D02*
D03*
X25253Y1394D02*
D03*
X25455Y1859D02*
D03*
X25253Y1861D02*
D03*
X25455Y1626D02*
D03*
Y1392D02*
D03*
X25253Y1627D02*
D03*
X24701Y1632D02*
D03*
Y1398D02*
D03*
Y1865D02*
D03*
X24903Y1863D02*
D03*
Y1397D02*
D03*
Y1630D02*
D03*
X26615Y1857D02*
D03*
X25837Y1623D02*
D03*
Y1390D02*
D03*
Y1857D02*
D03*
X26391Y1623D02*
D03*
X26612D02*
D03*
X26039Y1855D02*
D03*
Y1388D02*
D03*
Y1622D02*
D03*
X26394Y1857D02*
D03*
X26391Y1390D02*
D03*
X26612D02*
D03*
D53*
X15420Y7453D02*
X15549D01*
X15100Y7773D02*
X15420Y7453D01*
X15665Y7336D02*
X15670D01*
X15549Y7453D02*
X15665Y7336D01*
X14437Y4250D02*
X14500Y4187D01*
X17581Y5531D02*
X17696D01*
X17300Y5250D02*
X17581Y5531D01*
X16448Y3105D02*
Y3346D01*
X15061Y4650D02*
X15450D01*
X15089Y5558D02*
X15237D01*
X14894Y5753D02*
Y5890D01*
X15142Y6021D02*
X15205Y5958D01*
X10477Y7861D02*
X10648Y7690D01*
X10477Y7861D02*
Y7912D01*
X9172Y5100D02*
X9474Y4798D01*
X9725D01*
X9818Y4705D01*
X9823D01*
X14184Y5265D02*
X14360Y5440D01*
X8031Y7024D02*
Y7031D01*
X8061Y7013D02*
X8080Y7031D01*
X14557Y7620D02*
X14737Y7800D01*
X16232Y7408D02*
X16344Y7297D01*
X15887Y8937D02*
X16078Y9128D01*
X15984Y9370D02*
X16078Y9276D01*
Y9128D02*
Y9276D01*
X14557Y7616D02*
Y7620D01*
D56*
X26806Y9196D02*
D03*
Y9346D02*
D03*
Y9496D02*
D03*
Y9646D02*
D03*
X7848Y6957D02*
D03*
X15250Y10400D02*
D03*
X15400D02*
D03*
Y10250D02*
D03*
X15550Y10400D02*
D03*
Y10250D02*
D03*
X15700Y10400D02*
D03*
Y10250D02*
D03*
X15250D02*
D03*
X24156Y9983D02*
D03*
Y9833D02*
D03*
X24006D02*
D03*
X24156Y9683D02*
D03*
X24006D02*
D03*
X24156Y9533D02*
D03*
X24006D02*
D03*
Y9983D02*
D03*
X10881Y6999D02*
D03*
X6120Y10634D02*
D03*
X5670D02*
D03*
Y10484D02*
D03*
X5820Y10634D02*
D03*
Y10484D02*
D03*
X5970Y10634D02*
D03*
Y10484D02*
D03*
X6120D02*
D03*
X11Y1390D02*
D03*
Y1240D02*
D03*
Y1090D02*
D03*
Y1540D02*
D03*
X13417Y1318D02*
D03*
X13811Y1322D02*
D03*
X14227Y1322D02*
D03*
X20920Y2246D02*
D03*
Y2096D02*
D03*
Y1946D02*
D03*
Y2396D02*
D03*
X18654Y1529D02*
D03*
X18204D02*
D03*
Y1379D02*
D03*
X18354Y1529D02*
D03*
Y1379D02*
D03*
X18504Y1529D02*
D03*
Y1379D02*
D03*
X18654D02*
D03*
X4052Y3039D02*
D03*
X3602D02*
D03*
Y2889D02*
D03*
X3752Y3039D02*
D03*
Y2889D02*
D03*
X3902Y3039D02*
D03*
Y2889D02*
D03*
X4052D02*
D03*
X1152Y9445D02*
D03*
X1002D02*
D03*
Y9595D02*
D03*
X852Y9445D02*
D03*
Y9595D02*
D03*
X702Y9445D02*
D03*
Y9595D02*
D03*
X7023Y9347D02*
D03*
X15607Y2966D02*
D03*
X14294Y4754D02*
D03*
X19402Y6989D02*
D03*
Y7178D02*
D03*
X17117Y2957D02*
D03*
X17739Y2947D02*
D03*
X19902Y8107D02*
D03*
X19789Y8037D02*
D03*
X15670Y7336D02*
D03*
X14345Y10085D02*
D03*
X18504Y3189D02*
D03*
X14969Y2945D02*
D03*
X15123D02*
D03*
X14827D02*
D03*
X15984Y3189D02*
D03*
X15237Y5558D02*
D03*
X19493Y4068D02*
D03*
X17696Y5531D02*
D03*
X14706Y7258D02*
D03*
X15205Y5958D02*
D03*
X10797Y4768D02*
D03*
X11202Y6094D02*
D03*
X9311Y6496D02*
D03*
Y7008D02*
D03*
X2645Y11219D02*
D03*
X4646Y4213D02*
D03*
X8031Y7024D02*
D03*
X11645Y2842D02*
D03*
X2638Y4803D02*
D03*
X4016Y5394D02*
D03*
X4213Y5591D02*
D03*
X17638Y8858D02*
D03*
X4100Y4300D02*
D03*
X14184Y5265D02*
D03*
X16232Y7408D02*
D03*
X17639Y4561D02*
D03*
X16614Y5394D02*
D03*
X7390Y6113D02*
D03*
X8240Y6585D02*
D03*
X10079Y5472D02*
D03*
X9945Y7654D02*
D03*
X9433Y6118D02*
D03*
X10200Y6886D02*
D03*
X9689Y7398D02*
D03*
X10200D02*
D03*
X9945Y6618D02*
D03*
Y7130D02*
D03*
X9689Y6874D02*
D03*
X13700Y3734D02*
D03*
X9950Y4850D02*
D03*
X14095Y9685D02*
D03*
X14528Y7344D02*
D03*
X8330Y1969D02*
D03*
X17081Y7302D02*
D03*
X16614Y9685D02*
D03*
X15984Y9370D02*
D03*
X17559Y9685D02*
D03*
X16448Y3346D02*
D03*
X15526Y5534D02*
D03*
X15150Y4000D02*
D03*
X14100Y5900D02*
D03*
X15450Y4650D02*
D03*
X10477Y7912D02*
D03*
X14557Y7616D02*
D03*
X14409Y8110D02*
D03*
X16339Y4606D02*
D03*
X16763Y3346D02*
D03*
X16150Y3350D02*
D03*
X3422Y6199D02*
D03*
X3233Y6198D02*
D03*
X8677Y4588D02*
D03*
X10335Y5728D02*
D03*
X8799Y8031D02*
D03*
X1152Y9595D02*
D03*
X4528Y4213D02*
D03*
Y4094D02*
D03*
X4646D02*
D03*
X3858Y6544D02*
D03*
X3707Y6543D02*
D03*
X2835Y5000D02*
D03*
X3031Y5000D02*
D03*
X8543Y5728D02*
D03*
X10467Y7137D02*
D03*
X8543Y7520D02*
D03*
X9311D02*
D03*
Y8031D02*
D03*
X9823D02*
D03*
X8799Y7776D02*
D03*
X18819Y4567D02*
D03*
X18031D02*
D03*
X19213Y4331D02*
D03*
X18425D02*
D03*
X16811Y4409D02*
D03*
X15551Y8386D02*
D03*
X15866Y8622D02*
D03*
X18425D02*
D03*
X19213D02*
D03*
X18032Y8858D02*
D03*
X18819D02*
D03*
X9823Y4705D02*
D03*
X11102D02*
D03*
X10591Y5984D02*
D03*
X10079D02*
D03*
X9055Y6752D02*
D03*
X8799Y6496D02*
D03*
Y7008D02*
D03*
D57*
X19330Y9364D02*
D03*
X19326Y9711D02*
D03*
X16300Y10750D02*
D03*
X14750D02*
D03*
X20600Y9887D02*
D03*
X20711Y10368D02*
D03*
X20869Y10525D02*
D03*
X20711D02*
D03*
X20869Y10368D02*
D03*
X22849Y6910D02*
D03*
X23268Y9331D02*
D03*
X25394Y10433D02*
D03*
X22295Y5853D02*
D03*
X21535Y5551D02*
D03*
Y5315D02*
D03*
X25394Y10276D02*
D03*
X25866D02*
D03*
Y10433D02*
D03*
X25709Y10276D02*
D03*
Y10433D02*
D03*
X25551Y10276D02*
D03*
Y10433D02*
D03*
X22953Y9488D02*
D03*
Y9331D02*
D03*
X23110D02*
D03*
Y9488D02*
D03*
X23268D02*
D03*
X22638Y9331D02*
D03*
Y9488D02*
D03*
X22795D02*
D03*
Y9331D02*
D03*
X23661Y1378D02*
D03*
X23858D02*
D03*
X24646Y7638D02*
D03*
D58*
X24311Y6545D02*
D03*
X22628Y4862D02*
D03*
X24311D02*
D03*
X23189Y5423D02*
D03*
Y5984D02*
D03*
X23750Y6545D02*
D03*
X23189Y4862D02*
D03*
X23750Y5423D02*
D03*
Y5984D02*
D03*
X23189Y6545D02*
D03*
X24311Y5423D02*
D03*
X22628Y6545D02*
D03*
X23750Y4862D02*
D03*
X22628Y5984D02*
D03*
Y5423D02*
D03*
X24311Y5984D02*
D03*
D59*
X13606Y2184D02*
X18694D01*
X16600Y7350D02*
X17150Y7900D01*
X16397Y7350D02*
X16600D01*
X15122Y2946D02*
X15123Y2948D01*
X14827Y2946D02*
X15122D01*
X15142Y6201D02*
Y6208D01*
Y6021D02*
Y6201D01*
X14850Y4861D02*
Y5918D01*
X14366Y5434D02*
X14850Y5918D01*
X14500Y3950D02*
X14958Y3492D01*
X14500Y3950D02*
Y4187D01*
X14000Y4687D02*
X14437Y4250D01*
X14000Y4687D02*
Y5526D01*
X14437Y4250D02*
X15160D01*
X15269Y4141D01*
X16870Y4820D02*
X17300Y5250D01*
X16292Y4820D02*
X16870D01*
X16155Y4683D02*
X16292Y4820D01*
X16155Y4674D02*
Y4683D01*
X15622Y4141D02*
X16155Y4674D01*
X15269Y4141D02*
X15622D01*
X14000Y5526D02*
X15124Y6650D01*
X16448Y3105D02*
X16588Y2965D01*
X12450Y3340D02*
Y4500D01*
Y3340D02*
X13606Y2184D01*
X21121Y8112D02*
X21286D01*
X18694Y2184D02*
X20169Y3659D01*
Y7159D01*
X14850Y4861D02*
X15061Y4650D01*
X14894Y5753D02*
X15089Y5558D01*
X20169Y7159D02*
X21121Y8112D01*
X10515Y6136D02*
X10527Y6123D01*
X10591Y6059D01*
X10475Y6175D02*
X10515Y6136D01*
X11198Y4800D02*
X12150D01*
X11102Y4705D02*
X11198Y4800D01*
X10467Y7137D02*
Y7570D01*
X10199Y7838D02*
X10467Y7570D01*
X10016Y7838D02*
X10199D01*
X10648Y7690D02*
X11002Y7336D01*
X11564D01*
X9311Y8261D02*
X9634Y8584D01*
X9311Y8031D02*
Y8261D01*
X9639Y8216D02*
X9823Y8031D01*
X9834Y8021D02*
X10016Y7838D01*
X9639Y8216D02*
Y8589D01*
X11564Y7336D02*
X12250Y6650D01*
X15124D01*
X10591Y5984D02*
Y6059D01*
X21425Y8191D02*
X21430Y8196D01*
X16344Y7297D02*
X16397Y7350D01*
X15838Y6791D02*
X16344Y7297D01*
X9055Y6752D02*
X9309D01*
X9311Y6750D01*
X9175Y6360D02*
X9311Y6496D01*
Y7008D02*
Y7520D01*
X8799Y7020D02*
X8946Y7166D01*
X8935Y6360D02*
X9175D01*
X2835Y5000D02*
X3031D01*
X3031Y5000D01*
X8543Y7520D02*
Y7520D01*
X8799Y7776D01*
X12150Y4800D02*
X12450Y4500D01*
X10079Y5472D02*
X10335Y5728D01*
X10152Y6057D02*
X10246D01*
X10079Y5984D02*
X10152Y6057D01*
X8799Y6496D02*
X8935Y6360D01*
X14737Y7800D02*
Y7971D01*
X15264Y6791D02*
X15838D01*
X15124Y6650D02*
X15264Y6791D01*
X15503Y8937D02*
X15887D01*
D61*
X24665Y6693D02*
X25197Y6161D01*
Y5630D02*
Y6161D01*
X25837Y1857D02*
X26061D01*
X25637Y6397D02*
X25856Y6178D01*
Y5751D02*
Y6178D01*
Y5751D02*
X26162Y5445D01*
Y2499D02*
Y5445D01*
X26063Y5837D02*
X26370Y5531D01*
X26063Y5837D02*
Y6732D01*
X26370Y2370D02*
Y5531D01*
Y2370D02*
X26615Y2125D01*
X26065Y2402D02*
X26162Y2499D01*
X25621Y7174D02*
X26063Y6732D01*
X25314Y7757D02*
X25621Y7450D01*
Y7174D02*
Y7450D01*
X25787Y5472D02*
X25945Y5315D01*
Y2576D02*
Y3740D01*
Y5315D01*
X26061Y1857D02*
X26065Y1860D01*
X25650Y2397D02*
Y2574D01*
X25363Y2111D02*
X25650Y2397D01*
X25150Y2111D02*
X25363D01*
X23898Y1857D02*
X24189Y2148D01*
X24765Y7757D02*
X25314D01*
X24646Y7638D02*
X24765Y7757D01*
X24683Y6919D02*
X24892D01*
X25197Y5630D02*
X25354Y5472D01*
X24892Y6919D02*
X25414Y6397D01*
X25637D01*
X25354Y5472D02*
X25787D01*
X23898Y1417D02*
Y1857D01*
X23858Y1378D02*
X23898Y1417D01*
X25650Y2574D02*
X25737Y2661D01*
Y3490D01*
X25595Y3632D02*
X25737Y3490D01*
X24905Y1865D02*
X25150Y2111D01*
X24903Y1863D02*
X24905Y1865D01*
X25857Y2488D02*
X25945Y2576D01*
X25857Y2261D02*
Y2488D01*
X26065Y1860D02*
Y2402D01*
X25458Y1861D02*
X25857Y2261D01*
X25595Y3632D02*
Y3637D01*
X24189Y2148D02*
Y4070D01*
X24646Y4528D01*
X26615Y1857D02*
Y2125D01*
D62*
X15493Y3137D02*
X15750Y2880D01*
X15445Y3137D02*
X15493D01*
X15432Y3150D02*
X15445Y3137D01*
X15240Y3150D02*
X15432D01*
X15750Y2880D02*
X16659D01*
X19331Y9364D02*
Y10131D01*
X15142Y6201D02*
X15421Y6479D01*
X14863Y5922D02*
X15142Y6201D01*
X19330Y9364D02*
X19331Y9364D01*
X15123Y2948D02*
Y3032D01*
X15240Y3150D01*
X16588Y2965D02*
X16659Y2894D01*
X15417Y6483D02*
X16222D01*
X14969Y7773D02*
X15100D01*
X14800Y7942D02*
X14969Y7773D01*
X2645Y11219D02*
X4650D01*
X8180Y7520D02*
X8543D01*
X14506Y8949D02*
X15480D01*
D63*
X13741Y2509D02*
X18559D01*
X16500Y10450D02*
X22350D01*
X19400Y7500D02*
X22350Y10450D01*
X16188Y10762D02*
X16500Y10450D01*
X14451Y10762D02*
X16188D01*
X14016Y9384D02*
Y10315D01*
X22350Y10450D02*
X24500D01*
X10550Y10750D02*
X14451D01*
X14016Y10315D02*
X14451Y10750D01*
X14016Y9384D02*
X14051Y9349D01*
X20494Y3524D02*
Y5937D01*
X21944Y9394D02*
X23205D01*
X12775Y3475D02*
X13741Y2509D01*
X12775Y3475D02*
Y5179D01*
X18559Y2509D02*
X19844Y3794D01*
X18869Y1900D02*
X20494Y3524D01*
X19844Y3794D02*
Y7294D01*
X17800Y7500D02*
X19400D01*
X19844Y7294D02*
X21944Y9394D01*
X3400Y6150D02*
X4342Y5208D01*
X2838Y6150D02*
X3400D01*
X25225Y10361D02*
X25846D01*
X6350Y8492D02*
X6854Y7988D01*
X4650Y11219D02*
X7869D01*
X16381Y11219D01*
X6350Y9700D02*
X7869Y11219D01*
X6350Y8492D02*
Y9700D01*
X2550Y5862D02*
X2838Y6150D01*
X4342Y5208D02*
X4650D01*
X5508D01*
X6350Y6050D02*
Y8492D01*
X5508Y5208D02*
X6350Y6050D01*
X16381Y11219D02*
X16700Y10900D01*
X24686D01*
X25225Y10361D01*
X24500Y10450D02*
X25950Y9000D01*
Y7310D02*
Y9000D01*
X26400Y5965D02*
Y6860D01*
Y5965D02*
X26707Y5658D01*
X25950Y7310D02*
X26400Y6860D01*
D64*
X11765Y1884D02*
X18853D01*
X18869Y1900D01*
X9700Y9900D02*
X10550Y10750D01*
X6854Y7988D02*
X7712D01*
X10374Y3274D02*
Y4751D01*
Y3274D02*
X11765Y1884D01*
X2550Y5303D02*
Y5862D01*
D65*
X17150Y7900D02*
X17250D01*
X17239Y7500D02*
X17800D01*
X16561Y6822D02*
X17239Y7500D01*
X17250Y7900D02*
X19234D01*
X19331Y10131D02*
X19600Y10400D01*
X14051Y9349D02*
X14800Y8600D01*
X21286Y8112D02*
X21408D01*
X11615Y6339D02*
X12775Y5179D01*
X19234Y7900D02*
X20600Y9266D01*
X9700Y9400D02*
Y9900D01*
X20600Y9266D02*
Y9887D01*
X7712Y7988D02*
X8180Y7520D01*
D66*
X19457Y3991D02*
Y5043D01*
X18394Y2894D02*
X19450Y3950D01*
X16659Y2894D02*
X18394D01*
X18725Y5775D02*
X19457Y5043D01*
X16525Y5775D02*
X18725D01*
X16222Y6078D02*
X16525Y5775D01*
X16222Y6078D02*
Y6483D01*
Y6496D02*
X16548Y6822D01*
X16561D01*
D67*
X25477Y1419D02*
Y1842D01*
X25458Y1861D02*
X25477Y1842D01*
X25260Y1864D02*
X25455D01*
X25253Y1397D02*
Y1627D01*
Y1861D01*
Y1397D02*
X25455D01*
X26061Y1393D02*
Y1857D01*
X25844Y1860D02*
X26061D01*
X25837Y1393D02*
Y1623D01*
Y1393D02*
X26058D01*
X25837Y1623D02*
Y1857D01*
X26615Y1390D02*
Y1857D01*
X26061Y1860D02*
X26065D01*
X24919Y1398D02*
Y1865D01*
X24701Y1398D02*
X24916D01*
X24695D02*
Y1862D01*
X25455Y1864D02*
X25458Y1861D01*
X23661Y1378D02*
X23858D01*
X24905Y1865D02*
X24919D01*
X24695Y1398D02*
X24701D01*
X25455Y1397D02*
X25477Y1419D01*
X26397Y1857D02*
X26615D01*
X26061Y1857D02*
Y1860D01*
X26391Y1390D02*
Y1623D01*
Y1853D01*
Y1390D02*
X26612D01*
D68*
X9311Y6571D02*
X9807Y6075D01*
X16222Y6483D02*
Y6496D01*
X4581Y4145D02*
X4930Y4495D01*
X8547Y5728D02*
Y6316D01*
X8180Y6682D02*
X8547Y6316D01*
X10527Y6123D02*
X10561D01*
X10423D02*
X10527D01*
X10688Y6250D02*
Y6262D01*
X10561Y6123D02*
X10688Y6250D01*
X10335Y6035D02*
X10423Y6123D01*
X10765Y6339D02*
X11615D01*
X10688Y6262D02*
X10765Y6339D01*
X8543Y5728D02*
X9172Y5100D01*
X9311Y6750D02*
Y7008D01*
Y6571D02*
Y6750D01*
X9153Y7166D02*
X9311Y7008D01*
X8946Y7166D02*
X9153D01*
X9807Y5324D02*
Y6075D01*
Y5324D02*
X10374Y4757D01*
Y4751D02*
Y4757D01*
X4650Y5208D02*
X4930Y4929D01*
Y4495D02*
Y4929D01*
X2585Y5250D02*
X2835Y5000D01*
X10335Y5728D02*
Y6035D01*
X14800Y7942D02*
Y8600D01*
D69*
X15999Y3501D02*
X16150Y3350D01*
X15417Y3501D02*
X15999D01*
X15416Y3500D02*
X15417Y3501D01*
D70*
X14958Y3492D02*
X15408D01*
D71*
X8180Y6682D02*
Y7520D01*
D72*
X17000Y8150D02*
X17250Y7900D01*
X17000Y8150D02*
Y9126D01*
X9700Y8943D02*
Y9400D01*
X9634Y8878D02*
X9700Y8943D01*
X9634Y8584D02*
Y8878D01*
X17000Y9126D02*
X17559Y9685D01*
M02*
