G04*
G04 #@! TF.GenerationSoftware,Altium Limited,Altium Designer,22.5.1 (42)*
G04*
G04 Layer_Physical_Order=2*
G04 Layer_Color=10616774*
%FSLAX24Y24*%
%MOIN*%
G70*
G04*
G04 #@! TF.SameCoordinates,15B8646E-C553-4937-87EE-17013A6B0CAB*
G04*
G04*
G04 #@! TF.FilePolarity,Positive*
G04*
G01*
G75*
%ADD33C,0.0177*%
%ADD56C,0.0118*%
%ADD57C,0.0157*%
%ADD58C,0.0315*%
G36*
X27094Y11545D02*
Y8732D01*
X26732D01*
Y8734D01*
X26647Y8723D01*
X26568Y8690D01*
X26500Y8638D01*
X26448Y8570D01*
X26415Y8491D01*
X26404Y8406D01*
X26405D01*
X26405Y8406D01*
Y7343D01*
X26405Y7343D01*
X26404D01*
X26415Y7258D01*
X26448Y7178D01*
X26500Y7110D01*
X26568Y7058D01*
X26647Y7025D01*
X26732Y7014D01*
Y7016D01*
X26732Y7016D01*
X27094D01*
Y266D01*
X26900Y71D01*
X15167D01*
X15110Y128D01*
Y1378D01*
X15111D01*
X15102Y1448D01*
X15075Y1512D01*
X15033Y1568D01*
X14977Y1611D01*
X14912Y1638D01*
X14843Y1647D01*
X14773Y1638D01*
X14708Y1611D01*
X14652Y1568D01*
X14610Y1512D01*
X14583Y1448D01*
X14574Y1378D01*
X14575D01*
Y128D01*
X14518Y71D01*
X29D01*
X-165Y266D01*
Y7016D01*
X197D01*
X197Y7016D01*
Y7014D01*
X282Y7025D01*
X361Y7058D01*
X429Y7110D01*
X481Y7178D01*
X514Y7258D01*
X525Y7343D01*
X524D01*
Y8406D01*
X525D01*
X514Y8491D01*
X481Y8570D01*
X429Y8638D01*
X361Y8690D01*
X282Y8723D01*
X197Y8734D01*
Y8732D01*
X-165D01*
Y11545D01*
X29Y11740D01*
X26900D01*
X27094Y11545D01*
D02*
G37*
%LPC*%
G36*
X4037Y11644D02*
X3994D01*
X3954Y11628D01*
X3923Y11597D01*
X3907Y11557D01*
Y11514D01*
X3923Y11474D01*
X3954Y11443D01*
X3994Y11426D01*
X4037D01*
X4078Y11443D01*
X4108Y11474D01*
X4125Y11514D01*
Y11557D01*
X4108Y11597D01*
X4078Y11628D01*
X4037Y11644D01*
D02*
G37*
G36*
X3250D02*
X3207D01*
X3167Y11628D01*
X3136Y11597D01*
X3119Y11557D01*
Y11514D01*
X3136Y11474D01*
X3167Y11443D01*
X3207Y11426D01*
X3250D01*
X3290Y11443D01*
X3321Y11474D01*
X3337Y11514D01*
Y11557D01*
X3321Y11597D01*
X3290Y11628D01*
X3250Y11644D01*
D02*
G37*
G36*
X881Y11507D02*
X837D01*
X797Y11490D01*
X767Y11459D01*
X750Y11419D01*
Y11376D01*
X767Y11336D01*
X797Y11305D01*
X837Y11288D01*
X881D01*
X921Y11305D01*
X952Y11336D01*
X968Y11376D01*
Y11419D01*
X952Y11459D01*
X921Y11490D01*
X881Y11507D01*
D02*
G37*
G36*
X1719Y11505D02*
X1675D01*
X1635Y11488D01*
X1605Y11458D01*
X1588Y11417D01*
Y11374D01*
X1605Y11334D01*
X1635Y11303D01*
X1675Y11287D01*
X1719D01*
X1759Y11303D01*
X1790Y11334D01*
X1806Y11374D01*
Y11417D01*
X1790Y11458D01*
X1759Y11488D01*
X1719Y11505D01*
D02*
G37*
G36*
X26404Y11389D02*
X26352D01*
X26305Y11369D01*
X26269Y11333D01*
X26249Y11285D01*
Y11234D01*
X26269Y11187D01*
X26305Y11151D01*
X26352Y11131D01*
X26404D01*
X26451Y11151D01*
X26487Y11187D01*
X26507Y11234D01*
Y11285D01*
X26487Y11333D01*
X26451Y11369D01*
X26404Y11389D01*
D02*
G37*
G36*
X2466Y11488D02*
X2422D01*
X2382Y11471D01*
X2352Y11440D01*
X2335Y11400D01*
Y11357D01*
X2352Y11317D01*
X2382Y11286D01*
X2422Y11270D01*
X2466D01*
X2500Y11284D01*
X2518Y11273D01*
X2540Y11250D01*
X2536Y11240D01*
Y11197D01*
X2553Y11157D01*
X2583Y11126D01*
X2623Y11109D01*
X2667D01*
X2707Y11126D01*
X2737Y11157D01*
X2754Y11197D01*
Y11240D01*
X2737Y11280D01*
X2707Y11311D01*
X2667Y11328D01*
X2623D01*
X2589Y11313D01*
X2571Y11324D01*
X2549Y11347D01*
X2553Y11357D01*
Y11400D01*
X2536Y11440D01*
X2506Y11471D01*
X2466Y11488D01*
D02*
G37*
G36*
X4037Y11015D02*
X3994D01*
X3954Y10998D01*
X3923Y10967D01*
X3907Y10927D01*
Y10884D01*
X3923Y10844D01*
X3954Y10813D01*
X3994Y10796D01*
X4037D01*
X4078Y10813D01*
X4108Y10844D01*
X4125Y10884D01*
Y10927D01*
X4108Y10967D01*
X4078Y10998D01*
X4037Y11015D01*
D02*
G37*
G36*
X3250D02*
X3207D01*
X3167Y10998D01*
X3136Y10967D01*
X3119Y10927D01*
Y10884D01*
X3136Y10844D01*
X3167Y10813D01*
X3207Y10796D01*
X3250D01*
X3290Y10813D01*
X3321Y10844D01*
X3337Y10884D01*
Y10927D01*
X3321Y10967D01*
X3290Y10998D01*
X3250Y11015D01*
D02*
G37*
G36*
X2187D02*
X2144D01*
X2104Y10998D01*
X2073Y10967D01*
X2056Y10927D01*
Y10884D01*
X2073Y10844D01*
X2104Y10813D01*
X2144Y10796D01*
X2187D01*
X2227Y10813D01*
X2258Y10844D01*
X2274Y10884D01*
Y10927D01*
X2258Y10967D01*
X2227Y10998D01*
X2187Y11015D01*
D02*
G37*
G36*
X1400D02*
X1356D01*
X1316Y10998D01*
X1285Y10967D01*
X1269Y10927D01*
Y10884D01*
X1285Y10844D01*
X1316Y10813D01*
X1356Y10796D01*
X1400D01*
X1440Y10813D01*
X1470Y10844D01*
X1487Y10884D01*
Y10927D01*
X1470Y10967D01*
X1440Y10998D01*
X1400Y11015D01*
D02*
G37*
G36*
X612D02*
X569D01*
X529Y10998D01*
X498Y10967D01*
X481Y10927D01*
Y10884D01*
X498Y10844D01*
X529Y10813D01*
X569Y10796D01*
X612D01*
X652Y10813D01*
X683Y10844D01*
X700Y10884D01*
Y10927D01*
X683Y10967D01*
X652Y10998D01*
X612Y11015D01*
D02*
G37*
G36*
X20894Y10654D02*
X20843D01*
X20796Y10635D01*
X20790Y10629D01*
X20784Y10635D01*
X20737Y10654D01*
X20686D01*
X20638Y10635D01*
X20602Y10598D01*
X20582Y10551D01*
Y10500D01*
X20602Y10453D01*
X20608Y10447D01*
X20602Y10441D01*
X20582Y10394D01*
Y10342D01*
X20602Y10295D01*
X20638Y10259D01*
X20686Y10239D01*
X20737D01*
X20784Y10259D01*
X20790Y10265D01*
X20796Y10259D01*
X20843Y10239D01*
X20894D01*
X20942Y10259D01*
X20978Y10295D01*
X20997Y10342D01*
Y10394D01*
X20978Y10441D01*
X20972Y10447D01*
X20978Y10453D01*
X20997Y10500D01*
Y10551D01*
X20978Y10598D01*
X20942Y10635D01*
X20894Y10654D01*
D02*
G37*
G36*
X16326Y10879D02*
X16274D01*
X16227Y10859D01*
X16191Y10823D01*
X16171Y10776D01*
Y10724D01*
X16191Y10677D01*
X16227Y10641D01*
X16274Y10621D01*
X16326D01*
X16373Y10641D01*
X16409Y10677D01*
X16429Y10724D01*
Y10776D01*
X16409Y10823D01*
X16373Y10859D01*
X16326Y10879D01*
D02*
G37*
G36*
X14776D02*
X14724D01*
X14677Y10859D01*
X14641Y10823D01*
X14621Y10776D01*
Y10724D01*
X14641Y10677D01*
X14677Y10641D01*
X14724Y10621D01*
X14776D01*
X14823Y10641D01*
X14859Y10677D01*
X14879Y10724D01*
Y10776D01*
X14859Y10823D01*
X14823Y10859D01*
X14776Y10879D01*
D02*
G37*
G36*
X25892Y10562D02*
X25841D01*
X25793Y10542D01*
X25787Y10536D01*
X25782Y10542D01*
X25734Y10562D01*
X25683D01*
X25636Y10542D01*
X25630Y10536D01*
X25624Y10542D01*
X25577Y10562D01*
X25526D01*
X25478Y10542D01*
X25472Y10536D01*
X25467Y10542D01*
X25419Y10562D01*
X25368D01*
X25321Y10542D01*
X25285Y10506D01*
X25265Y10459D01*
Y10407D01*
X25285Y10360D01*
X25290Y10354D01*
X25285Y10349D01*
X25265Y10301D01*
Y10250D01*
X25285Y10203D01*
X25321Y10166D01*
X25368Y10147D01*
X25419D01*
X25467Y10166D01*
X25472Y10172D01*
X25478Y10166D01*
X25526Y10147D01*
X25577D01*
X25624Y10166D01*
X25630Y10172D01*
X25636Y10166D01*
X25683Y10147D01*
X25734D01*
X25782Y10166D01*
X25787Y10172D01*
X25793Y10166D01*
X25841Y10147D01*
X25892D01*
X25939Y10166D01*
X25975Y10203D01*
X25995Y10250D01*
Y10301D01*
X25975Y10349D01*
X25969Y10354D01*
X25975Y10360D01*
X25995Y10407D01*
Y10459D01*
X25975Y10506D01*
X25939Y10542D01*
X25892Y10562D01*
D02*
G37*
G36*
X20626Y10015D02*
X20574D01*
X20527Y9996D01*
X20491Y9960D01*
X20471Y9912D01*
Y9861D01*
X20491Y9814D01*
X20527Y9777D01*
X20574Y9758D01*
X20626D01*
X20673Y9777D01*
X20709Y9814D01*
X20729Y9861D01*
Y9912D01*
X20709Y9960D01*
X20673Y9996D01*
X20626Y10015D01*
D02*
G37*
G36*
X15858Y9959D02*
X15815D01*
X15775Y9943D01*
X15744Y9912D01*
X15728Y9872D01*
Y9828D01*
X15744Y9788D01*
X15775Y9758D01*
X15815Y9741D01*
X15858D01*
X15899Y9758D01*
X15929Y9788D01*
X15946Y9828D01*
Y9872D01*
X15929Y9912D01*
X15899Y9943D01*
X15858Y9959D01*
D02*
G37*
G36*
X23293Y9617D02*
X23242D01*
X23195Y9597D01*
X23189Y9592D01*
X23183Y9597D01*
X23136Y9617D01*
X23085D01*
X23037Y9597D01*
X23031Y9592D01*
X23026Y9597D01*
X22978Y9617D01*
X22927D01*
X22880Y9597D01*
X22874Y9592D01*
X22868Y9597D01*
X22821Y9617D01*
X22770D01*
X22722Y9597D01*
X22717Y9592D01*
X22711Y9597D01*
X22663Y9617D01*
X22612D01*
X22565Y9597D01*
X22529Y9561D01*
X22509Y9514D01*
Y9463D01*
X22529Y9415D01*
X22534Y9409D01*
X22529Y9404D01*
X22509Y9356D01*
Y9305D01*
X22529Y9258D01*
X22565Y9222D01*
X22612Y9202D01*
X22663D01*
X22711Y9222D01*
X22717Y9227D01*
X22722Y9222D01*
X22770Y9202D01*
X22821D01*
X22868Y9222D01*
X22874Y9227D01*
X22880Y9222D01*
X22927Y9202D01*
X22978D01*
X23026Y9222D01*
X23031Y9227D01*
X23037Y9222D01*
X23085Y9202D01*
X23136D01*
X23183Y9222D01*
X23189Y9227D01*
X23195Y9222D01*
X23242Y9202D01*
X23293D01*
X23341Y9222D01*
X23377Y9258D01*
X23396Y9305D01*
Y9356D01*
X23377Y9404D01*
X23371Y9409D01*
X23377Y9415D01*
X23396Y9463D01*
Y9514D01*
X23377Y9561D01*
X23341Y9597D01*
X23293Y9617D01*
D02*
G37*
G36*
X19352Y9840D02*
X19301D01*
X19253Y9820D01*
X19217Y9784D01*
X19198Y9737D01*
Y9686D01*
X19217Y9638D01*
X19253Y9602D01*
X19301Y9583D01*
X19352D01*
X19399Y9602D01*
X19436Y9638D01*
X19455Y9686D01*
Y9737D01*
X19436Y9784D01*
X19399Y9820D01*
X19352Y9840D01*
D02*
G37*
G36*
X17581Y9794D02*
X17537D01*
X17497Y9778D01*
X17467Y9747D01*
X17450Y9707D01*
Y9663D01*
X17467Y9623D01*
X17497Y9593D01*
X17537Y9576D01*
X17581D01*
X17621Y9593D01*
X17652Y9623D01*
X17668Y9663D01*
Y9707D01*
X17652Y9747D01*
X17621Y9778D01*
X17581Y9794D01*
D02*
G37*
G36*
X14116D02*
X14073D01*
X14033Y9778D01*
X14002Y9747D01*
X13985Y9707D01*
Y9663D01*
X14002Y9623D01*
X14033Y9593D01*
X14073Y9576D01*
X14116D01*
X14156Y9593D01*
X14187Y9623D01*
X14204Y9663D01*
Y9707D01*
X14187Y9747D01*
X14156Y9778D01*
X14116Y9794D01*
D02*
G37*
G36*
X16793Y9637D02*
X16750D01*
X16710Y9620D01*
X16679Y9589D01*
X16663Y9549D01*
Y9506D01*
X16679Y9466D01*
X16710Y9435D01*
X16750Y9419D01*
X16793D01*
X16833Y9435D01*
X16864Y9466D01*
X16881Y9506D01*
Y9549D01*
X16864Y9589D01*
X16833Y9620D01*
X16793Y9637D01*
D02*
G37*
G36*
X16488D02*
X16444D01*
X16404Y9620D01*
X16374Y9589D01*
X16357Y9549D01*
Y9506D01*
X16374Y9466D01*
X16404Y9435D01*
X16444Y9419D01*
X16488D01*
X16528Y9435D01*
X16558Y9466D01*
X16575Y9506D01*
Y9549D01*
X16558Y9589D01*
X16528Y9620D01*
X16488Y9637D01*
D02*
G37*
G36*
X19356Y9492D02*
X19304D01*
X19257Y9473D01*
X19221Y9437D01*
X19201Y9389D01*
Y9338D01*
X19221Y9291D01*
X19257Y9255D01*
X19304Y9235D01*
X19356D01*
X19403Y9255D01*
X19439Y9291D01*
X19459Y9338D01*
Y9389D01*
X19439Y9437D01*
X19403Y9473D01*
X19356Y9492D01*
D02*
G37*
G36*
X8053Y9420D02*
X8010D01*
X7970Y9403D01*
X7939Y9373D01*
X7922Y9333D01*
Y9289D01*
X7939Y9249D01*
X7970Y9219D01*
X8010Y9202D01*
X8053D01*
X8093Y9219D01*
X8124Y9249D01*
X8141Y9289D01*
Y9333D01*
X8124Y9373D01*
X8093Y9403D01*
X8053Y9420D01*
D02*
G37*
G36*
X7285D02*
X7242D01*
X7202Y9403D01*
X7171Y9373D01*
X7155Y9333D01*
Y9289D01*
X7171Y9249D01*
X7202Y9219D01*
X7242Y9202D01*
X7285D01*
X7326Y9219D01*
X7356Y9249D01*
X7373Y9289D01*
Y9333D01*
X7356Y9373D01*
X7326Y9403D01*
X7285Y9420D01*
D02*
G37*
G36*
X11294Y9340D02*
X11250D01*
X11210Y9323D01*
X11179Y9292D01*
X11163Y9252D01*
Y9209D01*
X11179Y9169D01*
X11210Y9138D01*
X11250Y9122D01*
X11294D01*
X11334Y9138D01*
X11364Y9169D01*
X11381Y9209D01*
Y9252D01*
X11364Y9292D01*
X11334Y9323D01*
X11294Y9340D01*
D02*
G37*
G36*
X15533Y9322D02*
X15490D01*
X15450Y9305D01*
X15419Y9274D01*
X15403Y9234D01*
Y9191D01*
X15419Y9151D01*
X15450Y9120D01*
X15490Y9104D01*
X15533D01*
X15574Y9120D01*
X15604Y9151D01*
X15621Y9191D01*
Y9234D01*
X15604Y9274D01*
X15574Y9305D01*
X15533Y9322D01*
D02*
G37*
G36*
X15219D02*
X15175D01*
X15135Y9305D01*
X15104Y9274D01*
X15088Y9234D01*
Y9191D01*
X15104Y9151D01*
X15135Y9120D01*
X15175Y9104D01*
X15219D01*
X15259Y9120D01*
X15289Y9151D01*
X15306Y9191D01*
Y9234D01*
X15289Y9274D01*
X15259Y9305D01*
X15219Y9322D01*
D02*
G37*
G36*
X15848Y9637D02*
X15805D01*
X15765Y9620D01*
X15734Y9589D01*
X15718Y9549D01*
Y9506D01*
X15734Y9466D01*
X15765Y9435D01*
X15805Y9419D01*
X15832D01*
X15859Y9402D01*
X15875Y9375D01*
Y9358D01*
X15857Y9334D01*
X15834Y9317D01*
X15800D01*
X15760Y9301D01*
X15729Y9270D01*
X15713Y9230D01*
Y9186D01*
X15729Y9146D01*
X15760Y9116D01*
X15800Y9099D01*
X15843D01*
X15883Y9116D01*
X15914Y9146D01*
X15931Y9186D01*
Y9220D01*
X15949Y9244D01*
X15972Y9261D01*
X16006D01*
X16046Y9278D01*
X16077Y9308D01*
X16093Y9348D01*
Y9392D01*
X16077Y9432D01*
X16046Y9463D01*
X16006Y9479D01*
X15979D01*
X15952Y9496D01*
X15936Y9522D01*
Y9549D01*
X15919Y9589D01*
X15889Y9620D01*
X15848Y9637D01*
D02*
G37*
G36*
X9968Y9305D02*
X9925D01*
X9885Y9289D01*
X9854Y9258D01*
X9838Y9218D01*
Y9175D01*
X9854Y9135D01*
X9885Y9104D01*
X9925Y9087D01*
X9968D01*
X10009Y9104D01*
X10039Y9135D01*
X10056Y9175D01*
Y9218D01*
X10039Y9258D01*
X10009Y9289D01*
X9968Y9305D01*
D02*
G37*
G36*
X18841Y9204D02*
X18797D01*
X18757Y9187D01*
X18726Y9156D01*
X18710Y9116D01*
Y9073D01*
X18726Y9033D01*
X18757Y9002D01*
X18797Y8985D01*
X18841D01*
X18881Y9002D01*
X18911Y9033D01*
X18928Y9073D01*
Y9116D01*
X18911Y9156D01*
X18881Y9187D01*
X18841Y9204D01*
D02*
G37*
G36*
X18053D02*
X18010D01*
X17970Y9187D01*
X17939Y9156D01*
X17922Y9116D01*
Y9073D01*
X17939Y9033D01*
X17970Y9002D01*
X18010Y8985D01*
X18053D01*
X18093Y9002D01*
X18124Y9033D01*
X18141Y9073D01*
Y9116D01*
X18124Y9156D01*
X18093Y9187D01*
X18053Y9204D01*
D02*
G37*
G36*
X17659D02*
X17616D01*
X17576Y9187D01*
X17545Y9156D01*
X17529Y9116D01*
Y9073D01*
X17545Y9033D01*
X17576Y9002D01*
X17616Y8985D01*
X17659D01*
X17700Y9002D01*
X17730Y9033D01*
X17747Y9073D01*
Y9116D01*
X17730Y9156D01*
X17700Y9187D01*
X17659Y9204D01*
D02*
G37*
G36*
X12226Y9164D02*
X12183D01*
X12143Y9148D01*
X12112Y9117D01*
X12096Y9077D01*
Y9033D01*
X12112Y8993D01*
X12143Y8963D01*
X12183Y8946D01*
X12226D01*
X12266Y8963D01*
X12297Y8993D01*
X12314Y9033D01*
Y9077D01*
X12297Y9117D01*
X12266Y9148D01*
X12226Y9164D01*
D02*
G37*
G36*
X10986Y9558D02*
X10943D01*
X10903Y9541D01*
X10872Y9511D01*
X10856Y9470D01*
Y9427D01*
X10851Y9420D01*
X10825D01*
X10785Y9403D01*
X10754Y9373D01*
X10737Y9333D01*
X10737Y9289D01*
X10694Y9286D01*
X10654Y9270D01*
X10624Y9239D01*
X10607Y9199D01*
Y9156D01*
X10624Y9116D01*
X10654Y9085D01*
X10652Y9032D01*
X10647Y9029D01*
X10616Y8999D01*
X10600Y8959D01*
X10587Y8947D01*
X10551Y8942D01*
X10549Y8945D01*
X10533Y8983D01*
X10502Y9013D01*
X10462Y9030D01*
X10444Y9076D01*
Y9077D01*
X10427Y9117D01*
X10396Y9148D01*
X10376Y9156D01*
Y9210D01*
X10396Y9219D01*
X10427Y9249D01*
X10444Y9289D01*
Y9333D01*
X10427Y9373D01*
X10396Y9403D01*
X10356Y9420D01*
X10313D01*
X10273Y9403D01*
X10242Y9373D01*
X10226Y9333D01*
Y9289D01*
X10242Y9249D01*
X10273Y9219D01*
X10293Y9210D01*
Y9156D01*
X10273Y9148D01*
X10242Y9117D01*
X10226Y9077D01*
Y9039D01*
X10192D01*
X10152Y9022D01*
X10121Y8991D01*
X10105Y8951D01*
Y8908D01*
X10121Y8868D01*
X10152Y8837D01*
X10192Y8821D01*
X10236D01*
X10276Y8837D01*
X10295Y8857D01*
X10336Y8859D01*
X10354Y8853D01*
X10379Y8828D01*
X10419Y8812D01*
X10419D01*
X10463Y8805D01*
X10466Y8766D01*
Y8762D01*
X10482Y8722D01*
X10513Y8691D01*
X10553Y8674D01*
X10596Y8674D01*
X10623Y8631D01*
X10636Y8600D01*
X10667Y8569D01*
X10707Y8552D01*
X10750D01*
X10790Y8569D01*
X10813Y8592D01*
X10850Y8592D01*
X10870Y8587D01*
X10871Y8583D01*
X10902Y8552D01*
X10942Y8535D01*
X10985D01*
X11025Y8552D01*
X11056Y8583D01*
X11073Y8623D01*
Y8666D01*
X11056Y8706D01*
X11025Y8737D01*
X10998Y8748D01*
X10956Y8778D01*
Y8821D01*
X10939Y8861D01*
X10908Y8892D01*
X10868Y8908D01*
X10864D01*
X10824Y8914D01*
X10818Y8954D01*
Y8959D01*
X10801Y8999D01*
X10770Y9029D01*
X10773Y9083D01*
X10778Y9085D01*
X10809Y9116D01*
X10825Y9156D01*
X10825Y9199D01*
X10868Y9202D01*
X10908Y9219D01*
X10939Y9249D01*
X10956Y9289D01*
Y9333D01*
X10960Y9340D01*
X10986D01*
X11026Y9356D01*
X11057Y9387D01*
X11074Y9427D01*
Y9470D01*
X11057Y9511D01*
X11026Y9541D01*
X10986Y9558D01*
D02*
G37*
G36*
X16833Y9007D02*
X16789D01*
X16749Y8990D01*
X16719Y8959D01*
X16702Y8919D01*
Y8876D01*
X16719Y8836D01*
X16749Y8805D01*
X16789Y8789D01*
X16833D01*
X16873Y8805D01*
X16903Y8836D01*
X16920Y8876D01*
Y8919D01*
X16903Y8959D01*
X16873Y8990D01*
X16833Y9007D01*
D02*
G37*
G36*
X11754Y9322D02*
X11711D01*
X11670Y9305D01*
X11640Y9274D01*
X11623Y9234D01*
Y9191D01*
X11640Y9151D01*
X11670Y9120D01*
X11711Y9104D01*
X11754D01*
X11768Y9110D01*
X11770Y9109D01*
X11815Y9075D01*
Y9056D01*
X11831Y9015D01*
X11862Y8985D01*
X11870Y8936D01*
X11868Y8932D01*
X11853Y8896D01*
Y8853D01*
X11870Y8812D01*
X11900Y8782D01*
X11940Y8765D01*
X11984D01*
X12024Y8782D01*
X12054Y8812D01*
X12071Y8853D01*
Y8896D01*
X12054Y8936D01*
X12024Y8967D01*
X12016Y9015D01*
X12018Y9019D01*
X12033Y9056D01*
Y9099D01*
X12016Y9139D01*
X11985Y9170D01*
X11945Y9186D01*
X11902D01*
X11888Y9180D01*
X11886Y9181D01*
X11841Y9214D01*
Y9234D01*
X11825Y9274D01*
X11794Y9305D01*
X11754Y9322D01*
D02*
G37*
G36*
X19234Y9204D02*
X19191D01*
X19151Y9187D01*
X19120Y9156D01*
X19104Y9116D01*
Y9073D01*
X19120Y9033D01*
X19151Y9002D01*
Y8951D01*
X19120Y8920D01*
X19104Y8880D01*
Y8837D01*
X19120Y8796D01*
X19151Y8766D01*
X19191Y8749D01*
X19234D01*
X19274Y8766D01*
X19305Y8796D01*
X19322Y8837D01*
Y8880D01*
X19305Y8920D01*
X19274Y8951D01*
Y9002D01*
X19305Y9033D01*
X19322Y9073D01*
Y9116D01*
X19305Y9156D01*
X19274Y9187D01*
X19234Y9204D01*
D02*
G37*
G36*
X18447D02*
X18404D01*
X18363Y9187D01*
X18333Y9156D01*
X18316Y9116D01*
Y9073D01*
X18333Y9033D01*
X18363Y9002D01*
Y8951D01*
X18333Y8920D01*
X18316Y8880D01*
Y8837D01*
X18333Y8796D01*
X18363Y8766D01*
X18404Y8749D01*
X18447D01*
X18487Y8766D01*
X18518Y8796D01*
X18534Y8837D01*
Y8880D01*
X18518Y8920D01*
X18487Y8951D01*
Y9002D01*
X18518Y9033D01*
X18534Y9073D01*
Y9116D01*
X18518Y9156D01*
X18487Y9187D01*
X18447Y9204D01*
D02*
G37*
G36*
X9967Y9025D02*
X9924D01*
X9884Y9009D01*
X9853Y8978D01*
X9837Y8938D01*
Y8908D01*
X9802D01*
X9762Y8892D01*
X9731Y8861D01*
X9714Y8821D01*
Y8778D01*
X9731Y8737D01*
X9762Y8707D01*
X9802Y8690D01*
X9845D01*
X9885Y8707D01*
X9916Y8737D01*
X9932Y8778D01*
Y8807D01*
X9967D01*
X10008Y8824D01*
X10038Y8855D01*
X10055Y8895D01*
Y8938D01*
X10038Y8978D01*
X10008Y9009D01*
X9967Y9025D01*
D02*
G37*
G36*
X7797Y9164D02*
X7754D01*
X7714Y9148D01*
X7683Y9117D01*
X7667Y9077D01*
Y9033D01*
X7683Y8993D01*
X7714Y8963D01*
X7734Y8954D01*
Y8900D01*
X7714Y8892D01*
X7683Y8861D01*
X7667Y8821D01*
X7626Y8777D01*
X7620Y8775D01*
X7586Y8761D01*
X7556Y8730D01*
X7539Y8690D01*
Y8646D01*
X7556Y8606D01*
X7586Y8576D01*
X7626Y8559D01*
X7670D01*
X7710Y8576D01*
X7740Y8606D01*
X7755Y8641D01*
X7757Y8646D01*
X7797Y8690D01*
X7803Y8693D01*
X7803D01*
X7811Y8696D01*
X7837Y8707D01*
X7868Y8737D01*
X7876Y8758D01*
X7931D01*
X7939Y8737D01*
X7970Y8707D01*
X8010Y8690D01*
X8053D01*
X8093Y8707D01*
X8124Y8737D01*
X8141Y8778D01*
Y8821D01*
X8124Y8861D01*
X8093Y8892D01*
X8053Y8908D01*
X8010D01*
X7970Y8892D01*
X7939Y8861D01*
X7931Y8841D01*
X7876D01*
X7868Y8861D01*
X7837Y8892D01*
X7817Y8900D01*
Y8954D01*
X7837Y8963D01*
X7868Y8993D01*
X7885Y9033D01*
Y9077D01*
X7868Y9117D01*
X7837Y9148D01*
X7797Y9164D01*
D02*
G37*
G36*
X7030D02*
X6986D01*
X6946Y9148D01*
X6915Y9117D01*
X6899Y9077D01*
X6895Y9033D01*
X6853Y9031D01*
X6851D01*
X6811Y9015D01*
X6780Y8984D01*
X6764Y8944D01*
Y8901D01*
X6780Y8860D01*
X6811Y8830D01*
X6851Y8813D01*
X6894D01*
X6899Y8810D01*
Y8778D01*
X6915Y8737D01*
X6946Y8707D01*
X6986Y8690D01*
X7030D01*
X7070Y8707D01*
X7100Y8737D01*
X7109Y8758D01*
X7163D01*
X7171Y8737D01*
X7202Y8707D01*
X7242Y8690D01*
X7285D01*
X7326Y8707D01*
X7356Y8737D01*
X7373Y8778D01*
Y8821D01*
X7356Y8861D01*
X7326Y8892D01*
X7285Y8908D01*
X7242D01*
X7202Y8892D01*
X7171Y8861D01*
X7163Y8841D01*
X7109D01*
X7100Y8861D01*
X7070Y8892D01*
X7049Y8900D01*
Y8954D01*
X7070Y8963D01*
X7100Y8993D01*
X7117Y9033D01*
Y9077D01*
X7100Y9117D01*
X7070Y9148D01*
X7030Y9164D01*
D02*
G37*
G36*
X11242Y9046D02*
X11199D01*
X11159Y9029D01*
X11128Y8999D01*
X11111Y8959D01*
Y8915D01*
X11128Y8875D01*
X11159Y8845D01*
X11199Y8828D01*
X11203D01*
X11230Y8819D01*
Y8776D01*
X11246Y8736D01*
X11277Y8705D01*
X11317Y8689D01*
X11360D01*
X11400Y8705D01*
X11431Y8736D01*
X11448Y8776D01*
Y8781D01*
X11464Y8822D01*
X11494Y8827D01*
X11509D01*
X11549Y8843D01*
X11580Y8874D01*
X11596Y8914D01*
Y8958D01*
X11580Y8998D01*
X11549Y9028D01*
X11509Y9045D01*
X11465D01*
X11425Y9028D01*
X11395Y8998D01*
X11378Y8958D01*
X11330Y8959D01*
X11313Y8999D01*
X11282Y9029D01*
X11242Y9046D01*
D02*
G37*
G36*
X9467Y9038D02*
X9424D01*
X9384Y9021D01*
X9353Y8990D01*
X9336Y8950D01*
X9333Y8908D01*
X9289Y8908D01*
X9249Y8892D01*
X9219Y8861D01*
X9202Y8821D01*
Y8778D01*
X9219Y8737D01*
X9249Y8707D01*
X9270Y8698D01*
Y8644D01*
X9249Y8636D01*
X9219Y8605D01*
X9210Y8585D01*
X9156D01*
X9148Y8605D01*
X9117Y8636D01*
X9077Y8652D01*
X9033D01*
X8993Y8636D01*
X8963Y8605D01*
X8946Y8565D01*
Y8522D01*
X8963Y8482D01*
X8993Y8451D01*
X9014Y8442D01*
Y8388D01*
X8993Y8380D01*
X8963Y8349D01*
X8954Y8329D01*
X8900D01*
X8892Y8349D01*
X8861Y8380D01*
X8821Y8396D01*
X8778D01*
X8737Y8380D01*
X8707Y8349D01*
X8698Y8329D01*
X8644D01*
X8636Y8349D01*
X8605Y8380D01*
X8585Y8388D01*
Y8442D01*
X8605Y8451D01*
X8636Y8482D01*
X8652Y8522D01*
Y8565D01*
X8636Y8605D01*
X8605Y8636D01*
X8565Y8652D01*
X8522D01*
X8482Y8636D01*
X8451Y8605D01*
X8434Y8565D01*
Y8522D01*
X8451Y8482D01*
X8482Y8451D01*
X8502Y8442D01*
Y8388D01*
X8482Y8380D01*
X8451Y8349D01*
X8434Y8309D01*
Y8266D01*
X8451Y8226D01*
X8482Y8195D01*
X8522Y8178D01*
X8565D01*
X8605Y8195D01*
X8636Y8226D01*
X8644Y8246D01*
X8698D01*
X8707Y8226D01*
X8737Y8195D01*
X8778Y8178D01*
X8821D01*
X8861Y8195D01*
X8892Y8226D01*
X8900Y8246D01*
X8954D01*
X8963Y8226D01*
X8993Y8195D01*
X9033Y8178D01*
X9077D01*
X9117Y8195D01*
X9148Y8226D01*
X9164Y8266D01*
Y8309D01*
X9148Y8349D01*
X9117Y8380D01*
X9097Y8388D01*
Y8442D01*
X9117Y8451D01*
X9148Y8482D01*
X9156Y8502D01*
X9210D01*
X9219Y8482D01*
X9249Y8451D01*
X9289Y8434D01*
X9333D01*
X9373Y8451D01*
X9403Y8482D01*
X9420Y8522D01*
Y8565D01*
X9403Y8605D01*
X9373Y8636D01*
X9352Y8644D01*
Y8698D01*
X9373Y8707D01*
X9403Y8737D01*
X9420Y8778D01*
X9424Y8820D01*
X9467Y8820D01*
X9507Y8836D01*
X9538Y8867D01*
X9554Y8907D01*
Y8950D01*
X9538Y8990D01*
X9507Y9021D01*
X9467Y9038D01*
D02*
G37*
G36*
X15415Y8849D02*
X15372D01*
X15332Y8833D01*
X15301Y8802D01*
X15285Y8762D01*
Y8718D01*
X15301Y8678D01*
X15332Y8648D01*
X15372Y8631D01*
X15415D01*
X15442Y8613D01*
Y8600D01*
X15459Y8560D01*
X15489Y8530D01*
X15529Y8513D01*
X15573D01*
X15613Y8530D01*
X15644Y8560D01*
X15660Y8600D01*
Y8644D01*
X15644Y8684D01*
X15613Y8715D01*
X15573Y8731D01*
X15529D01*
X15503Y8749D01*
Y8762D01*
X15486Y8802D01*
X15455Y8833D01*
X15415Y8849D01*
D02*
G37*
G36*
X11639Y8654D02*
X11595D01*
X11555Y8637D01*
X11524Y8607D01*
X11508Y8567D01*
Y8523D01*
X11524Y8483D01*
X11555Y8452D01*
X11595Y8436D01*
X11639D01*
X11679Y8452D01*
X11709Y8483D01*
X11726Y8523D01*
Y8567D01*
X11709Y8607D01*
X11679Y8637D01*
X11639Y8654D01*
D02*
G37*
G36*
X12333Y8615D02*
X12290D01*
X12250Y8598D01*
X12219Y8567D01*
X12202Y8527D01*
Y8484D01*
X12219Y8444D01*
X12250Y8413D01*
X12290Y8396D01*
X12333D01*
X12373Y8413D01*
X12404Y8444D01*
X12421Y8484D01*
Y8527D01*
X12404Y8567D01*
X12373Y8598D01*
X12333Y8615D01*
D02*
G37*
G36*
X9922Y8559D02*
X9878D01*
X9838Y8542D01*
X9808Y8512D01*
X9791Y8472D01*
Y8428D01*
X9808Y8388D01*
X9838Y8358D01*
X9878Y8341D01*
X9922D01*
X9962Y8358D01*
X9992Y8388D01*
X10009Y8428D01*
Y8472D01*
X9992Y8512D01*
X9962Y8542D01*
X9922Y8559D01*
D02*
G37*
G36*
X11162Y8551D02*
X11119D01*
X11078Y8534D01*
X11048Y8504D01*
X11031Y8463D01*
Y8420D01*
X11048Y8380D01*
X11078Y8349D01*
X11119Y8333D01*
X11162D01*
X11202Y8349D01*
X11233Y8380D01*
X11249Y8420D01*
Y8463D01*
X11233Y8504D01*
X11202Y8534D01*
X11162Y8551D01*
D02*
G37*
G36*
X7541Y8396D02*
X7498D01*
X7458Y8380D01*
X7427Y8349D01*
X7419Y8329D01*
X7365D01*
X7356Y8349D01*
X7326Y8380D01*
X7285Y8396D01*
X7242D01*
X7202Y8380D01*
X7171Y8349D01*
X7163Y8329D01*
X7109D01*
X7100Y8349D01*
X7070Y8380D01*
X7030Y8396D01*
X6986D01*
X6946Y8380D01*
X6915Y8349D01*
X6899Y8309D01*
Y8266D01*
X6915Y8226D01*
X6946Y8195D01*
X6986Y8178D01*
X7030D01*
X7070Y8195D01*
X7100Y8226D01*
X7109Y8246D01*
X7163D01*
X7171Y8226D01*
X7202Y8195D01*
X7242Y8178D01*
X7285D01*
X7326Y8195D01*
X7356Y8226D01*
X7365Y8246D01*
X7419D01*
X7427Y8226D01*
X7458Y8195D01*
X7498Y8178D01*
X7541D01*
X7581Y8195D01*
X7612Y8226D01*
X7629Y8266D01*
Y8309D01*
X7612Y8349D01*
X7581Y8380D01*
X7541Y8396D01*
D02*
G37*
G36*
X21458Y8334D02*
X21403D01*
X21352Y8313D01*
X21352Y8313D01*
X21352Y8313D01*
X21301Y8334D01*
X21245D01*
X21195Y8313D01*
X21156Y8274D01*
X21134Y8223D01*
Y8168D01*
X21156Y8117D01*
X21156Y8117D01*
X21156Y8117D01*
X21134Y8066D01*
Y8011D01*
X21156Y7960D01*
X21195Y7921D01*
X21245Y7900D01*
X21301D01*
X21352Y7921D01*
X21352Y7921D01*
X21352Y7921D01*
X21403Y7900D01*
X21458D01*
X21509Y7921D01*
X21548Y7960D01*
X21569Y8011D01*
Y8066D01*
X21548Y8117D01*
X21548Y8117D01*
X21548Y8117D01*
X21569Y8168D01*
Y8223D01*
X21548Y8274D01*
X21509Y8313D01*
X21458Y8334D01*
D02*
G37*
G36*
X10238Y8529D02*
X10195D01*
X10155Y8513D01*
X10124Y8482D01*
X10107Y8442D01*
Y8398D01*
X10124Y8358D01*
X10155Y8328D01*
X10195Y8311D01*
X10238D01*
X10278Y8328D01*
X10309Y8358D01*
X10325Y8398D01*
Y8442D01*
X10309Y8482D01*
X10278Y8513D01*
X10238Y8529D01*
D02*
G37*
G36*
X19234Y8495D02*
X19191D01*
X19151Y8478D01*
X19120Y8448D01*
X19104Y8408D01*
Y8364D01*
X19120Y8324D01*
X19151Y8293D01*
X19191Y8277D01*
X19234D01*
X19274Y8293D01*
X19305Y8324D01*
X19322Y8364D01*
Y8408D01*
X19305Y8448D01*
X19274Y8478D01*
X19234Y8495D01*
D02*
G37*
G36*
X18841Y8731D02*
X18797D01*
X18757Y8715D01*
X18726Y8684D01*
X18710Y8644D01*
Y8600D01*
X18726Y8560D01*
X18757Y8530D01*
Y8478D01*
X18726Y8448D01*
X18710Y8408D01*
Y8364D01*
X18726Y8324D01*
X18757Y8293D01*
X18797Y8277D01*
X18841D01*
X18881Y8293D01*
X18911Y8324D01*
X18928Y8364D01*
Y8408D01*
X18911Y8448D01*
X18881Y8478D01*
Y8530D01*
X18911Y8560D01*
X18928Y8600D01*
Y8644D01*
X18911Y8684D01*
X18881Y8715D01*
X18841Y8731D01*
D02*
G37*
G36*
X18447Y8495D02*
X18404D01*
X18363Y8478D01*
X18333Y8448D01*
X18316Y8408D01*
Y8364D01*
X18333Y8324D01*
X18363Y8293D01*
X18404Y8277D01*
X18447D01*
X18487Y8293D01*
X18518Y8324D01*
X18534Y8364D01*
Y8408D01*
X18518Y8448D01*
X18487Y8478D01*
X18447Y8495D01*
D02*
G37*
G36*
X18053Y8731D02*
X18010D01*
X17970Y8715D01*
X17939Y8684D01*
X17922Y8644D01*
Y8600D01*
X17939Y8560D01*
X17970Y8530D01*
Y8478D01*
X17939Y8448D01*
X17922Y8408D01*
Y8364D01*
X17939Y8324D01*
X17970Y8293D01*
X18010Y8277D01*
X18053D01*
X18093Y8293D01*
X18124Y8324D01*
X18141Y8364D01*
Y8408D01*
X18124Y8448D01*
X18093Y8478D01*
Y8530D01*
X18124Y8560D01*
X18141Y8600D01*
Y8644D01*
X18124Y8684D01*
X18093Y8715D01*
X18053Y8731D01*
D02*
G37*
G36*
X17659D02*
X17616D01*
X17576Y8715D01*
X17545Y8684D01*
X17529Y8644D01*
Y8600D01*
X17545Y8560D01*
X17576Y8530D01*
Y8478D01*
X17545Y8448D01*
X17529Y8408D01*
Y8364D01*
X17545Y8324D01*
X17576Y8293D01*
X17616Y8277D01*
X17659D01*
X17700Y8293D01*
X17730Y8324D01*
X17747Y8364D01*
Y8408D01*
X17730Y8448D01*
X17700Y8478D01*
Y8530D01*
X17730Y8560D01*
X17747Y8600D01*
Y8644D01*
X17730Y8684D01*
X17700Y8715D01*
X17659Y8731D01*
D02*
G37*
G36*
X17266Y9204D02*
X17222D01*
X17182Y9187D01*
X17152Y9156D01*
X17135Y9116D01*
Y9073D01*
X17152Y9033D01*
X17182Y9002D01*
Y8951D01*
X17152Y8920D01*
X17135Y8880D01*
Y8837D01*
X17152Y8796D01*
X17182Y8766D01*
Y8715D01*
X17152Y8684D01*
X17135Y8644D01*
Y8600D01*
X17152Y8560D01*
X17182Y8530D01*
Y8478D01*
X17152Y8448D01*
X17135Y8408D01*
Y8364D01*
X17152Y8324D01*
X17182Y8293D01*
X17222Y8277D01*
X17266D01*
X17306Y8293D01*
X17337Y8324D01*
X17353Y8364D01*
Y8408D01*
X17337Y8448D01*
X17306Y8478D01*
Y8530D01*
X17337Y8560D01*
X17353Y8600D01*
Y8644D01*
X17337Y8684D01*
X17306Y8715D01*
Y8766D01*
X17337Y8796D01*
X17353Y8837D01*
Y8880D01*
X17337Y8920D01*
X17306Y8951D01*
Y9002D01*
X17337Y9033D01*
X17353Y9073D01*
Y9116D01*
X17337Y9156D01*
X17306Y9187D01*
X17266Y9204D01*
D02*
G37*
G36*
X15888Y8495D02*
X15844D01*
X15804Y8478D01*
X15774Y8448D01*
X15757Y8408D01*
Y8364D01*
X15774Y8324D01*
X15804Y8293D01*
X15844Y8277D01*
X15888D01*
X15928Y8293D01*
X15959Y8324D01*
X15975Y8364D01*
Y8408D01*
X15959Y8448D01*
X15928Y8478D01*
X15888Y8495D01*
D02*
G37*
G36*
X12536Y8438D02*
X12492D01*
X12452Y8421D01*
X12422Y8391D01*
X12405Y8351D01*
Y8307D01*
X12422Y8267D01*
X12452Y8236D01*
X12492Y8220D01*
X12536D01*
X12576Y8236D01*
X12606Y8267D01*
X12623Y8307D01*
Y8351D01*
X12606Y8391D01*
X12576Y8421D01*
X12536Y8438D01*
D02*
G37*
G36*
X16833Y8613D02*
X16789D01*
X16749Y8596D01*
X16719Y8566D01*
X16702Y8526D01*
Y8482D01*
X16719Y8442D01*
X16723Y8438D01*
X16745Y8406D01*
X16723Y8373D01*
X16719Y8369D01*
X16702Y8329D01*
Y8285D01*
X16719Y8245D01*
X16749Y8215D01*
X16789Y8198D01*
X16833D01*
X16873Y8215D01*
X16903Y8245D01*
X16920Y8285D01*
Y8329D01*
X16903Y8369D01*
X16899Y8373D01*
X16877Y8406D01*
X16899Y8438D01*
X16903Y8442D01*
X16920Y8482D01*
Y8526D01*
X16903Y8566D01*
X16873Y8596D01*
X16833Y8613D01*
D02*
G37*
G36*
X16360Y8810D02*
X16317D01*
X16277Y8793D01*
X16246Y8763D01*
X16230Y8722D01*
Y8679D01*
X16246Y8639D01*
X16250Y8635D01*
X16273Y8602D01*
X16250Y8570D01*
X16246Y8566D01*
X16230Y8526D01*
Y8482D01*
X16246Y8442D01*
X16250Y8438D01*
X16273Y8406D01*
X16250Y8373D01*
X16246Y8369D01*
X16230Y8329D01*
Y8285D01*
X16246Y8245D01*
X16277Y8215D01*
X16317Y8198D01*
X16360D01*
X16400Y8215D01*
X16431Y8245D01*
X16448Y8285D01*
Y8329D01*
X16431Y8369D01*
X16427Y8373D01*
X16404Y8406D01*
X16427Y8438D01*
X16431Y8442D01*
X16448Y8482D01*
Y8526D01*
X16431Y8566D01*
X16427Y8570D01*
X16404Y8602D01*
X16427Y8635D01*
X16431Y8639D01*
X16448Y8679D01*
Y8722D01*
X16431Y8763D01*
X16400Y8793D01*
X16360Y8810D01*
D02*
G37*
G36*
X11737Y8393D02*
X11694D01*
X11654Y8376D01*
X11623Y8346D01*
X11607Y8306D01*
Y8262D01*
X11623Y8222D01*
X11654Y8192D01*
X11694Y8175D01*
X11737D01*
X11778Y8192D01*
X11808Y8222D01*
X11825Y8262D01*
Y8306D01*
X11808Y8346D01*
X11778Y8376D01*
X11737Y8393D01*
D02*
G37*
G36*
X6011Y8384D02*
X5967D01*
X5927Y8367D01*
X5897Y8337D01*
X5880Y8296D01*
Y8253D01*
X5897Y8213D01*
X5927Y8182D01*
X5967Y8166D01*
X6011D01*
X6051Y8182D01*
X6082Y8213D01*
X6098Y8253D01*
Y8296D01*
X6082Y8337D01*
X6051Y8367D01*
X6011Y8384D01*
D02*
G37*
G36*
X5730Y8377D02*
X5687D01*
X5647Y8360D01*
X5616Y8329D01*
X5600Y8289D01*
Y8246D01*
X5616Y8206D01*
X5647Y8175D01*
X5687Y8159D01*
X5730D01*
X5770Y8175D01*
X5801Y8206D01*
X5818Y8246D01*
Y8289D01*
X5801Y8329D01*
X5770Y8360D01*
X5730Y8377D01*
D02*
G37*
G36*
X10476Y8308D02*
X10433D01*
X10393Y8291D01*
X10362Y8261D01*
X10345Y8221D01*
Y8177D01*
X10362Y8137D01*
X10393Y8106D01*
X10433Y8090D01*
X10476D01*
X10516Y8106D01*
X10547Y8137D01*
X10557Y8163D01*
X10558Y8165D01*
X10608Y8155D01*
X10608Y8154D01*
Y8147D01*
X10625Y8106D01*
X10656Y8076D01*
X10696Y8059D01*
X10739D01*
X10779Y8076D01*
X10810Y8106D01*
X10826Y8147D01*
Y8190D01*
X10810Y8230D01*
X10779Y8261D01*
X10739Y8277D01*
X10696D01*
X10656Y8261D01*
X10625Y8230D01*
X10614Y8204D01*
X10613Y8202D01*
X10563Y8212D01*
X10563Y8213D01*
Y8221D01*
X10547Y8261D01*
X10516Y8291D01*
X10476Y8308D01*
D02*
G37*
G36*
X7812Y8384D02*
X7769D01*
X7729Y8367D01*
X7698Y8337D01*
X7681Y8296D01*
Y8253D01*
X7698Y8213D01*
X7729Y8182D01*
X7769Y8166D01*
X7812D01*
X7837Y8122D01*
X7844Y8105D01*
X7875Y8075D01*
X7915Y8058D01*
X7958D01*
X7998Y8075D01*
X8029Y8105D01*
X8045Y8145D01*
Y8189D01*
X8029Y8229D01*
X7998Y8260D01*
X7958Y8276D01*
X7915D01*
X7890Y8320D01*
X7883Y8337D01*
X7852Y8367D01*
X7812Y8384D01*
D02*
G37*
G36*
X23991Y8025D02*
X23936D01*
X23885Y8004D01*
X23846Y7965D01*
X23830Y7962D01*
X23824Y7968D01*
X23773Y7989D01*
X23718D01*
X23667Y7968D01*
X23628Y7929D01*
X23607Y7878D01*
Y7823D01*
X23628Y7772D01*
X23667Y7733D01*
X23718Y7712D01*
X23752D01*
Y7669D01*
X23773Y7618D01*
X23812Y7579D01*
X23863Y7558D01*
X23919D01*
X23969Y7579D01*
X24008Y7618D01*
X24030Y7669D01*
Y7724D01*
X24015Y7758D01*
X24042Y7769D01*
X24081Y7808D01*
X24102Y7859D01*
Y7914D01*
X24081Y7965D01*
X24042Y8004D01*
X23991Y8025D01*
D02*
G37*
G36*
X19924Y8216D02*
X19880D01*
X19840Y8199D01*
X19810Y8169D01*
X19800Y8146D01*
X19767D01*
X19727Y8130D01*
X19696Y8099D01*
X19680Y8059D01*
Y8016D01*
X19696Y7976D01*
X19727Y7945D01*
X19767Y7928D01*
X19810D01*
X19850Y7945D01*
X19881Y7976D01*
X19890Y7998D01*
X19924D01*
X19964Y8015D01*
X19995Y8045D01*
X20011Y8085D01*
Y8129D01*
X19995Y8169D01*
X19964Y8199D01*
X19924Y8216D01*
D02*
G37*
G36*
X9979Y8267D02*
X9935D01*
X9895Y8250D01*
X9865Y8219D01*
X9848Y8179D01*
Y8165D01*
X9845Y8141D01*
X9801D01*
X9761Y8124D01*
X9730Y8093D01*
X9714Y8053D01*
Y8010D01*
X9730Y7970D01*
X9761Y7939D01*
X9801Y7922D01*
X9845D01*
X9885Y7939D01*
X9915Y7970D01*
X9932Y8010D01*
Y8024D01*
X9935Y8049D01*
X9979D01*
X10019Y8065D01*
X10049Y8096D01*
X10066Y8136D01*
Y8179D01*
X10049Y8219D01*
X10019Y8250D01*
X9979Y8267D01*
D02*
G37*
G36*
X9333Y8141D02*
X9289D01*
X9249Y8124D01*
X9219Y8093D01*
X9202Y8053D01*
Y8010D01*
X9219Y7970D01*
X9249Y7939D01*
X9289Y7922D01*
X9333D01*
X9373Y7939D01*
X9403Y7970D01*
X9420Y8010D01*
Y8053D01*
X9403Y8093D01*
X9373Y8124D01*
X9333Y8141D01*
D02*
G37*
G36*
X15848Y8062D02*
X15805D01*
X15765Y8045D01*
X15734Y8015D01*
X15718Y7974D01*
Y7931D01*
X15734Y7891D01*
X15765Y7860D01*
X15805Y7844D01*
X15848D01*
X15889Y7860D01*
X15919Y7891D01*
X15936Y7931D01*
Y7974D01*
X15919Y8015D01*
X15889Y8045D01*
X15848Y8062D01*
D02*
G37*
G36*
X15300Y8065D02*
X15257D01*
X15217Y8049D01*
X15186Y8018D01*
X15169Y7978D01*
Y7935D01*
X15186Y7894D01*
X15217Y7864D01*
X15257Y7847D01*
X15300D01*
X15340Y7864D01*
X15366Y7889D01*
X15402Y7890D01*
X15422Y7888D01*
X15450Y7860D01*
X15490Y7844D01*
X15533D01*
X15574Y7860D01*
X15604Y7891D01*
X15621Y7931D01*
Y7974D01*
X15604Y8015D01*
X15574Y8045D01*
X15533Y8062D01*
X15490D01*
X15450Y8045D01*
X15424Y8020D01*
X15388Y8019D01*
X15368Y8021D01*
X15340Y8049D01*
X15300Y8065D01*
D02*
G37*
G36*
X8471Y8046D02*
X8428D01*
X8388Y8030D01*
X8357Y7999D01*
X8341Y7959D01*
Y7916D01*
X8357Y7875D01*
X8388Y7845D01*
X8428Y7828D01*
X8471D01*
X8511Y7845D01*
X8542Y7875D01*
X8559Y7916D01*
Y7959D01*
X8542Y7999D01*
X8511Y8030D01*
X8471Y8046D01*
D02*
G37*
G36*
X11242Y8159D02*
X11198D01*
X11158Y8142D01*
X11127Y8112D01*
X11111Y8072D01*
Y8028D01*
X11127Y7988D01*
X11158Y7958D01*
X11198Y7941D01*
X11232D01*
Y7910D01*
X11249Y7870D01*
X11280Y7840D01*
X11320Y7823D01*
X11363D01*
X11403Y7840D01*
X11434Y7870D01*
X11451Y7910D01*
Y7954D01*
X11434Y7994D01*
X11403Y8024D01*
X11363Y8041D01*
X11329D01*
Y8072D01*
X11312Y8112D01*
X11282Y8142D01*
X11242Y8159D01*
D02*
G37*
G36*
X10499Y8021D02*
X10455D01*
X10415Y8004D01*
X10385Y7974D01*
X10368Y7933D01*
Y7890D01*
X10385Y7850D01*
X10415Y7819D01*
X10455Y7803D01*
X10499D01*
X10539Y7819D01*
X10567Y7848D01*
X10577Y7849D01*
X10620Y7841D01*
X10632Y7812D01*
X10663Y7781D01*
X10703Y7765D01*
X10746D01*
X10786Y7781D01*
X10817Y7812D01*
X10834Y7852D01*
Y7895D01*
X10817Y7935D01*
X10786Y7966D01*
X10746Y7983D01*
X10703D01*
X10663Y7966D01*
X10634Y7938D01*
X10624Y7937D01*
X10582Y7944D01*
X10569Y7974D01*
X10539Y8004D01*
X10499Y8021D01*
D02*
G37*
G36*
X11906Y8040D02*
X11862D01*
X11822Y8023D01*
X11792Y7992D01*
X11775Y7952D01*
Y7909D01*
X11792Y7869D01*
X11822Y7838D01*
X11862Y7822D01*
X11906D01*
X11908Y7820D01*
Y7806D01*
X11925Y7766D01*
X11955Y7735D01*
X11995Y7718D01*
X12039D01*
X12079Y7735D01*
X12109Y7766D01*
X12126Y7806D01*
Y7849D01*
X12109Y7889D01*
X12079Y7920D01*
X12039Y7937D01*
X11995D01*
X11993Y7938D01*
Y7952D01*
X11977Y7992D01*
X11946Y8023D01*
X11906Y8040D01*
D02*
G37*
G36*
X8821Y7885D02*
X8778D01*
X8737Y7868D01*
X8707Y7837D01*
X8690Y7797D01*
Y7754D01*
X8707Y7714D01*
X8737Y7683D01*
X8778Y7667D01*
X8821D01*
X8861Y7683D01*
X8892Y7714D01*
X8908Y7754D01*
Y7797D01*
X8892Y7837D01*
X8861Y7868D01*
X8821Y7885D01*
D02*
G37*
G36*
X22048Y7641D02*
X21993D01*
X21942Y7620D01*
X21935Y7613D01*
X21928Y7620D01*
X21877Y7641D01*
X21822D01*
X21771Y7620D01*
X21764Y7613D01*
X21757Y7620D01*
X21706Y7641D01*
X21651D01*
X21600Y7620D01*
X21561Y7581D01*
X21540Y7530D01*
Y7475D01*
X21561Y7424D01*
X21600Y7385D01*
X21651Y7364D01*
X21706D01*
X21757Y7385D01*
X21764Y7392D01*
X21771Y7385D01*
X21822Y7364D01*
X21877D01*
X21928Y7385D01*
X21935Y7392D01*
X21942Y7385D01*
X21993Y7364D01*
X22048D01*
X22099Y7385D01*
X22138Y7424D01*
X22159Y7475D01*
Y7530D01*
X22138Y7581D01*
X22099Y7620D01*
X22048Y7641D01*
D02*
G37*
G36*
X15848Y7747D02*
X15805D01*
X15765Y7730D01*
X15734Y7700D01*
X15718Y7659D01*
Y7616D01*
X15734Y7576D01*
X15765Y7545D01*
X15805Y7529D01*
X15848D01*
X15889Y7545D01*
X15919Y7576D01*
X15936Y7616D01*
Y7659D01*
X15919Y7700D01*
X15889Y7730D01*
X15848Y7747D01*
D02*
G37*
G36*
X15530Y7744D02*
X15487D01*
X15447Y7727D01*
X15416Y7696D01*
X15400Y7656D01*
Y7613D01*
X15416Y7573D01*
X15447Y7542D01*
X15487Y7526D01*
X15530D01*
X15570Y7542D01*
X15601Y7573D01*
X15618Y7613D01*
Y7656D01*
X15601Y7696D01*
X15570Y7727D01*
X15530Y7744D01*
D02*
G37*
G36*
X22900Y7767D02*
X22848D01*
X22801Y7747D01*
X22765Y7711D01*
X22745Y7663D01*
Y7612D01*
X22765Y7565D01*
X22801Y7529D01*
X22848Y7509D01*
X22900D01*
X22947Y7529D01*
X22962Y7543D01*
X22996Y7558D01*
X23027Y7543D01*
X23043Y7527D01*
X23091Y7507D01*
X23142D01*
X23189Y7527D01*
X23225Y7563D01*
X23245Y7610D01*
Y7662D01*
X23225Y7709D01*
X23189Y7745D01*
X23142Y7765D01*
X23091D01*
X23043Y7745D01*
X23029Y7731D01*
X22994Y7715D01*
X22963Y7731D01*
X22947Y7747D01*
X22900Y7767D01*
D02*
G37*
G36*
X14579Y7725D02*
X14535D01*
X14495Y7708D01*
X14464Y7677D01*
X14448Y7637D01*
Y7594D01*
X14464Y7554D01*
X14495Y7523D01*
X14535Y7506D01*
X14579D01*
X14619Y7523D01*
X14649Y7554D01*
X14666Y7594D01*
Y7637D01*
X14649Y7677D01*
X14619Y7708D01*
X14579Y7725D01*
D02*
G37*
G36*
X16478Y7672D02*
X16435D01*
X16395Y7656D01*
X16364Y7625D01*
X16348Y7585D01*
Y7541D01*
X16364Y7501D01*
X16395Y7471D01*
X16435Y7454D01*
X16478D01*
X16518Y7471D01*
X16549Y7501D01*
X16566Y7541D01*
Y7585D01*
X16549Y7625D01*
X16518Y7656D01*
X16478Y7672D01*
D02*
G37*
G36*
X7668Y7763D02*
X7625D01*
X7585Y7746D01*
X7554Y7716D01*
X7537Y7675D01*
Y7632D01*
X7554Y7592D01*
X7585Y7561D01*
X7608Y7552D01*
X7604Y7499D01*
X7580Y7489D01*
X7549Y7458D01*
X7544Y7445D01*
X7490D01*
X7486Y7455D01*
X7455Y7486D01*
X7415Y7502D01*
X7372D01*
X7331Y7486D01*
X7301Y7455D01*
X7284Y7415D01*
Y7372D01*
X7301Y7331D01*
X7331Y7301D01*
X7372Y7284D01*
X7411D01*
Y7242D01*
X7427Y7202D01*
X7458Y7171D01*
X7498Y7155D01*
X7541D01*
X7581Y7171D01*
X7612Y7202D01*
X7627Y7238D01*
X7629Y7242D01*
X7629Y7243D01*
X7663Y7287D01*
X7675Y7292D01*
X7675Y7292D01*
X7689Y7298D01*
X7704Y7304D01*
X7734Y7335D01*
X7751Y7375D01*
Y7418D01*
X7734Y7458D01*
X7704Y7489D01*
X7680Y7498D01*
X7684Y7551D01*
X7708Y7561D01*
X7739Y7592D01*
X7755Y7632D01*
Y7675D01*
X7739Y7716D01*
X7708Y7746D01*
X7668Y7763D01*
D02*
G37*
G36*
X11636Y7629D02*
X11592D01*
X11552Y7612D01*
X11522Y7581D01*
X11505Y7541D01*
Y7498D01*
X11522Y7458D01*
X11552Y7427D01*
X11592Y7411D01*
X11636D01*
X11676Y7427D01*
X11707Y7458D01*
X11723Y7498D01*
Y7541D01*
X11707Y7581D01*
X11676Y7612D01*
X11636Y7629D01*
D02*
G37*
G36*
X9333D02*
X9289D01*
X9249Y7612D01*
X9219Y7581D01*
X9202Y7541D01*
Y7498D01*
X9219Y7458D01*
X9249Y7427D01*
X9289Y7411D01*
X9333D01*
X9373Y7427D01*
X9403Y7458D01*
X9420Y7498D01*
Y7541D01*
X9403Y7581D01*
X9373Y7612D01*
X9333Y7629D01*
D02*
G37*
G36*
X8565D02*
X8522D01*
X8482Y7612D01*
X8451Y7581D01*
X8434Y7541D01*
Y7498D01*
X8451Y7458D01*
X8482Y7427D01*
X8522Y7411D01*
X8565D01*
X8605Y7427D01*
X8636Y7458D01*
X8652Y7498D01*
Y7541D01*
X8636Y7581D01*
X8605Y7612D01*
X8565Y7629D01*
D02*
G37*
G36*
X12274Y7625D02*
X12230D01*
X12190Y7608D01*
X12160Y7578D01*
X12143Y7538D01*
Y7494D01*
X12160Y7454D01*
X12190Y7424D01*
X12230Y7407D01*
X12274D01*
X12314Y7424D01*
X12344Y7454D01*
X12361Y7494D01*
Y7538D01*
X12344Y7578D01*
X12314Y7608D01*
X12274Y7625D01*
D02*
G37*
G36*
X16163Y7747D02*
X16120D01*
X16080Y7730D01*
X16049Y7700D01*
X16033Y7659D01*
Y7616D01*
X16049Y7576D01*
X16080Y7545D01*
X16120Y7529D01*
X16128D01*
X16149Y7479D01*
X16140Y7470D01*
X16123Y7430D01*
Y7387D01*
X16140Y7346D01*
X16171Y7316D01*
X16211Y7299D01*
X16254D01*
X16294Y7316D01*
X16325Y7346D01*
X16342Y7387D01*
Y7430D01*
X16325Y7470D01*
X16294Y7501D01*
X16254Y7517D01*
X16246D01*
X16225Y7567D01*
X16234Y7576D01*
X16251Y7616D01*
Y7659D01*
X16234Y7700D01*
X16204Y7730D01*
X16163Y7747D01*
D02*
G37*
G36*
X3447Y7274D02*
X3403D01*
X3363Y7258D01*
X3359Y7254D01*
X3327Y7231D01*
X3294Y7254D01*
X3290Y7258D01*
X3250Y7274D01*
X3207D01*
X3167Y7258D01*
X3163Y7254D01*
X3130Y7231D01*
X3097Y7254D01*
X3093Y7258D01*
X3053Y7274D01*
X3010D01*
X2970Y7258D01*
X2966Y7254D01*
X2933Y7231D01*
X2900Y7254D01*
X2896Y7258D01*
X2856Y7274D01*
X2813D01*
X2773Y7258D01*
X2742Y7227D01*
X2726Y7187D01*
Y7144D01*
X2740Y7109D01*
X2733Y7080D01*
X2716Y7055D01*
X2709Y7053D01*
X2704Y7057D01*
X2700Y7061D01*
X2659Y7078D01*
X2616D01*
X2576Y7061D01*
X2545Y7030D01*
X2529Y6990D01*
Y6947D01*
X2545Y6907D01*
X2549Y6903D01*
X2572Y6870D01*
X2549Y6837D01*
X2545Y6833D01*
X2529Y6793D01*
Y6750D01*
X2545Y6710D01*
X2576Y6679D01*
X2616Y6663D01*
X2659D01*
X2700Y6679D01*
X2730Y6710D01*
X2747Y6750D01*
Y6793D01*
X2730Y6833D01*
X2726Y6837D01*
X2711Y6859D01*
X2723Y6871D01*
X2773Y6876D01*
X2813Y6859D01*
X2856D01*
X2896Y6876D01*
X2900Y6880D01*
X2933Y6903D01*
X2966Y6880D01*
X2970Y6876D01*
X3010Y6859D01*
X3053D01*
X3093Y6876D01*
X3097Y6880D01*
X3130Y6903D01*
X3163Y6880D01*
X3167Y6876D01*
X3207Y6859D01*
X3250D01*
X3290Y6876D01*
X3294Y6880D01*
X3327Y6903D01*
X3359Y6880D01*
X3363Y6876D01*
X3403Y6859D01*
X3447D01*
X3487Y6876D01*
X3518Y6907D01*
X3534Y6947D01*
Y6990D01*
X3518Y7030D01*
X3514Y7034D01*
X3491Y7067D01*
X3514Y7100D01*
X3518Y7104D01*
X3534Y7144D01*
Y7187D01*
X3518Y7227D01*
X3487Y7258D01*
X3447Y7274D01*
D02*
G37*
G36*
X15692Y7445D02*
X15649D01*
X15609Y7429D01*
X15578Y7398D01*
X15561Y7358D01*
Y7315D01*
X15578Y7275D01*
X15609Y7244D01*
X15649Y7227D01*
X15692D01*
X15732Y7244D01*
X15763Y7275D01*
X15779Y7315D01*
Y7358D01*
X15763Y7398D01*
X15732Y7429D01*
X15692Y7445D01*
D02*
G37*
G36*
X17103Y7411D02*
X17060D01*
X17020Y7394D01*
X16989Y7363D01*
X16972Y7323D01*
Y7280D01*
X16989Y7240D01*
X17020Y7209D01*
X17060Y7193D01*
X17103D01*
X17143Y7209D01*
X17174Y7240D01*
X17190Y7280D01*
Y7323D01*
X17174Y7363D01*
X17143Y7394D01*
X17103Y7411D01*
D02*
G37*
G36*
X11983Y7381D02*
X11940D01*
X11900Y7364D01*
X11869Y7334D01*
X11853Y7294D01*
Y7250D01*
X11869Y7210D01*
X11900Y7180D01*
X11940Y7163D01*
X11983D01*
X12023Y7180D01*
X12054Y7210D01*
X12071Y7250D01*
Y7294D01*
X12054Y7334D01*
X12023Y7364D01*
X11983Y7381D01*
D02*
G37*
G36*
X15995Y7368D02*
X15952D01*
X15912Y7351D01*
X15881Y7321D01*
X15864Y7281D01*
Y7237D01*
X15881Y7197D01*
X15912Y7166D01*
X15952Y7150D01*
X15995D01*
X16035Y7166D01*
X16066Y7197D01*
X16082Y7237D01*
Y7281D01*
X16066Y7321D01*
X16035Y7351D01*
X15995Y7368D01*
D02*
G37*
G36*
X24671Y7767D02*
X24620D01*
X24573Y7747D01*
X24537Y7711D01*
X24517Y7663D01*
Y7612D01*
X24537Y7565D01*
X24573Y7529D01*
X24620Y7509D01*
X24671D01*
X24719Y7529D01*
X24739Y7549D01*
X24776Y7528D01*
X24783Y7522D01*
Y7469D01*
X24804Y7419D01*
X24843Y7380D01*
X24894Y7358D01*
X24900Y7308D01*
X24897Y7301D01*
Y7245D01*
X24918Y7194D01*
X24957Y7155D01*
X25008Y7134D01*
X25063D01*
X25114Y7155D01*
X25153Y7194D01*
X25174Y7245D01*
Y7301D01*
X25153Y7351D01*
X25114Y7390D01*
X25063Y7412D01*
X25057Y7462D01*
X25060Y7469D01*
Y7525D01*
X25039Y7576D01*
X25000Y7614D01*
X24949Y7636D01*
X24894D01*
X24843Y7614D01*
X24820Y7592D01*
X24786Y7607D01*
X24774Y7617D01*
Y7663D01*
X24755Y7711D01*
X24719Y7747D01*
X24671Y7767D01*
D02*
G37*
G36*
X15407Y7310D02*
X15364D01*
X15324Y7293D01*
X15293Y7262D01*
X15277Y7222D01*
Y7179D01*
X15293Y7139D01*
X15324Y7108D01*
X15364Y7091D01*
X15407D01*
X15447Y7108D01*
X15478Y7139D01*
X15495Y7179D01*
Y7222D01*
X15478Y7262D01*
X15447Y7293D01*
X15407Y7310D01*
D02*
G37*
G36*
X7932Y7498D02*
X7888D01*
X7848Y7481D01*
X7817Y7450D01*
X7801Y7410D01*
Y7367D01*
X7817Y7327D01*
X7848Y7296D01*
X7867Y7288D01*
X7865Y7235D01*
X7842Y7226D01*
X7811Y7195D01*
X7795Y7155D01*
Y7111D01*
X7796Y7107D01*
X7754Y7079D01*
X7735Y7098D01*
X7695Y7114D01*
X7652D01*
X7612Y7098D01*
X7581Y7067D01*
X7564Y7027D01*
Y6984D01*
X7581Y6943D01*
X7612Y6913D01*
X7652Y6896D01*
X7695D01*
X7735Y6913D01*
X7766Y6943D01*
X7782Y6984D01*
Y7027D01*
X7781Y7031D01*
X7823Y7059D01*
X7842Y7041D01*
X7882Y7024D01*
X7922D01*
Y7002D01*
X7939Y6962D01*
X7970Y6931D01*
X8010Y6915D01*
X8053D01*
X8093Y6931D01*
X8124Y6962D01*
X8141Y7002D01*
Y7046D01*
X8124Y7086D01*
X8093Y7116D01*
X8053Y7133D01*
X8013D01*
Y7155D01*
X7996Y7195D01*
X7966Y7226D01*
X7947Y7233D01*
X7949Y7287D01*
X7972Y7296D01*
X8002Y7327D01*
X8019Y7367D01*
Y7410D01*
X8002Y7450D01*
X7972Y7481D01*
X7932Y7498D01*
D02*
G37*
G36*
X10488Y7246D02*
X10445D01*
X10405Y7229D01*
X10374Y7199D01*
X10358Y7159D01*
Y7115D01*
X10374Y7075D01*
X10405Y7044D01*
X10445Y7028D01*
X10488D01*
X10529Y7044D01*
X10559Y7075D01*
X10576Y7115D01*
Y7159D01*
X10559Y7199D01*
X10529Y7229D01*
X10488Y7246D01*
D02*
G37*
G36*
X15046Y6962D02*
X15003D01*
X14963Y6945D01*
X14957Y6940D01*
X14925Y6919D01*
X14892Y6940D01*
X14887Y6945D01*
X14847Y6962D01*
X14804D01*
X14763Y6945D01*
X14733Y6914D01*
X14716Y6874D01*
Y6831D01*
X14733Y6791D01*
X14763Y6760D01*
X14804Y6743D01*
X14847D01*
X14887Y6760D01*
X14892Y6765D01*
X14925Y6786D01*
X14957Y6765D01*
X14963Y6760D01*
X15003Y6743D01*
X15046D01*
X15086Y6760D01*
X15117Y6791D01*
X15133Y6831D01*
Y6874D01*
X15117Y6914D01*
X15086Y6945D01*
X15046Y6962D01*
D02*
G37*
G36*
X18487Y7233D02*
X18444D01*
X18404Y7217D01*
X18373Y7186D01*
X18356Y7146D01*
Y7102D01*
X18373Y7062D01*
X18404Y7032D01*
X18444Y7015D01*
X18445D01*
X18490Y6994D01*
X18507Y6954D01*
X18538Y6923D01*
X18578Y6906D01*
X18621D01*
X18661Y6923D01*
X18692Y6954D01*
X18709Y6994D01*
Y7037D01*
X18692Y7077D01*
X18661Y7108D01*
X18621Y7124D01*
X18620D01*
X18574Y7146D01*
X18558Y7186D01*
X18527Y7217D01*
X18487Y7233D01*
D02*
G37*
G36*
X11636Y7117D02*
X11592D01*
X11552Y7100D01*
X11522Y7070D01*
X11505Y7030D01*
Y6986D01*
X11522Y6946D01*
X11552Y6915D01*
X11592Y6899D01*
X11636D01*
X11676Y6915D01*
X11707Y6946D01*
X11723Y6986D01*
Y7030D01*
X11707Y7070D01*
X11676Y7100D01*
X11636Y7117D01*
D02*
G37*
G36*
X9333D02*
X9289D01*
X9249Y7100D01*
X9219Y7070D01*
X9202Y7030D01*
Y6986D01*
X9219Y6946D01*
X9249Y6915D01*
X9289Y6899D01*
X9333D01*
X9373Y6915D01*
X9403Y6946D01*
X9420Y6986D01*
Y7030D01*
X9403Y7070D01*
X9373Y7100D01*
X9333Y7117D01*
D02*
G37*
G36*
X8821D02*
X8778D01*
X8737Y7100D01*
X8707Y7070D01*
X8690Y7030D01*
Y6986D01*
X8707Y6946D01*
X8737Y6915D01*
X8778Y6899D01*
X8821D01*
X8861Y6915D01*
X8892Y6946D01*
X8908Y6986D01*
Y7030D01*
X8892Y7070D01*
X8861Y7100D01*
X8821Y7117D01*
D02*
G37*
G36*
X12305Y7117D02*
X12262D01*
X12222Y7100D01*
X12191Y7070D01*
X12174Y7030D01*
Y6986D01*
X12191Y6946D01*
X12222Y6915D01*
X12262Y6899D01*
X12305D01*
X12345Y6915D01*
X12376Y6946D01*
X12393Y6986D01*
Y7030D01*
X12376Y7070D01*
X12345Y7100D01*
X12305Y7117D01*
D02*
G37*
G36*
X18027Y7038D02*
X17983D01*
X17943Y7021D01*
X17912Y6990D01*
X17896Y6950D01*
Y6907D01*
X17912Y6867D01*
X17943Y6836D01*
X17983Y6820D01*
X18027D01*
X18067Y6836D01*
X18097Y6867D01*
X18114Y6907D01*
Y6950D01*
X18097Y6990D01*
X18067Y7021D01*
X18027Y7038D01*
D02*
G37*
G36*
X22875Y7038D02*
X22823D01*
X22776Y7019D01*
X22740Y6983D01*
X22720Y6935D01*
Y6884D01*
X22740Y6837D01*
X22776Y6801D01*
X22823Y6781D01*
X22875D01*
X22922Y6801D01*
X22958Y6837D01*
X22978Y6884D01*
Y6935D01*
X22958Y6983D01*
X22922Y7019D01*
X22875Y7038D01*
D02*
G37*
G36*
X11254Y6975D02*
X11211D01*
X11171Y6959D01*
X11140Y6928D01*
X11123Y6888D01*
Y6845D01*
X11140Y6805D01*
X11171Y6774D01*
X11211Y6757D01*
X11254D01*
X11294Y6774D01*
X11325Y6805D01*
X11341Y6845D01*
Y6888D01*
X11325Y6928D01*
X11294Y6959D01*
X11254Y6975D01*
D02*
G37*
G36*
X16212Y6918D02*
X16168D01*
X16128Y6902D01*
X16097Y6871D01*
X16081Y6831D01*
Y6788D01*
X16097Y6748D01*
X16128Y6717D01*
X16168Y6700D01*
X16212D01*
X16252Y6717D01*
X16282Y6748D01*
X16299Y6788D01*
Y6831D01*
X16282Y6871D01*
X16252Y6902D01*
X16212Y6918D01*
D02*
G37*
G36*
X7408Y6735D02*
X7365D01*
X7325Y6719D01*
X7294Y6688D01*
X7288Y6674D01*
X7234D01*
X7229Y6686D01*
X7198Y6717D01*
X7158Y6734D01*
X7115D01*
X7075Y6717D01*
X7044Y6686D01*
X7027Y6646D01*
Y6603D01*
X7044Y6563D01*
X7075Y6532D01*
X7115Y6516D01*
X7158D01*
X7198Y6532D01*
X7229Y6563D01*
X7235Y6577D01*
X7289D01*
X7294Y6564D01*
X7325Y6534D01*
X7365Y6517D01*
X7373D01*
X7376Y6512D01*
X7372Y6465D01*
X7364Y6453D01*
X7324Y6437D01*
X7294Y6406D01*
X7277Y6366D01*
Y6322D01*
X7294Y6282D01*
X7324Y6252D01*
X7364Y6235D01*
X7408D01*
X7448Y6252D01*
X7478Y6282D01*
X7495Y6322D01*
Y6341D01*
X7497Y6367D01*
X7540Y6387D01*
X7541D01*
X7581Y6404D01*
X7612Y6434D01*
X7621Y6455D01*
X7675D01*
X7683Y6434D01*
X7714Y6404D01*
X7754Y6387D01*
X7797D01*
X7837Y6404D01*
X7868Y6434D01*
X7881Y6466D01*
X7885Y6474D01*
X7928Y6512D01*
X7968Y6529D01*
X7999Y6559D01*
X8016Y6600D01*
Y6643D01*
X7999Y6683D01*
X7968Y6714D01*
X7928Y6730D01*
X7885D01*
X7845Y6714D01*
X7814Y6683D01*
X7810Y6673D01*
X7756D01*
X7751Y6687D01*
X7720Y6717D01*
X7680Y6734D01*
X7636D01*
X7596Y6717D01*
X7566Y6687D01*
X7549Y6647D01*
X7547Y6633D01*
X7496Y6636D01*
X7496Y6648D01*
X7479Y6688D01*
X7448Y6719D01*
X7408Y6735D01*
D02*
G37*
G36*
X19164Y6886D02*
X19121D01*
X19081Y6870D01*
X19050Y6839D01*
X19033Y6799D01*
Y6756D01*
X19050Y6715D01*
X19081Y6685D01*
X19121Y6668D01*
X19164D01*
X19204Y6685D01*
X19235Y6715D01*
X19251Y6756D01*
Y6799D01*
X19235Y6839D01*
X19204Y6870D01*
X19164Y6886D01*
D02*
G37*
G36*
X9077Y6861D02*
X9033D01*
X8993Y6844D01*
X8963Y6814D01*
X8946Y6774D01*
Y6730D01*
X8963Y6690D01*
X8993Y6660D01*
X9033Y6643D01*
X9077D01*
X9117Y6660D01*
X9148Y6690D01*
X9164Y6730D01*
Y6774D01*
X9148Y6814D01*
X9117Y6844D01*
X9077Y6861D01*
D02*
G37*
G36*
X8444Y6984D02*
X8400D01*
X8360Y6967D01*
X8330Y6936D01*
X8313Y6896D01*
Y6853D01*
X8330Y6813D01*
X8360Y6782D01*
X8400Y6766D01*
X8434D01*
Y6730D01*
X8451Y6690D01*
X8482Y6660D01*
X8522Y6643D01*
X8565D01*
X8605Y6660D01*
X8636Y6690D01*
X8652Y6730D01*
Y6774D01*
X8636Y6814D01*
X8605Y6844D01*
X8565Y6861D01*
X8531D01*
Y6896D01*
X8515Y6936D01*
X8484Y6967D01*
X8444Y6984D01*
D02*
G37*
G36*
X21424Y6667D02*
X21369D01*
X21318Y6645D01*
X21292Y6620D01*
X21268Y6644D01*
X21217Y6665D01*
X21162D01*
X21111Y6644D01*
X21084Y6616D01*
X21060Y6640D01*
X21009Y6661D01*
X20954D01*
X20903Y6640D01*
X20864Y6601D01*
X20843Y6550D01*
Y6495D01*
X20864Y6444D01*
X20890Y6418D01*
X20873Y6401D01*
X20852Y6350D01*
Y6295D01*
X20873Y6244D01*
X20912Y6205D01*
X20963Y6184D01*
X21018D01*
X21069Y6205D01*
X21097Y6233D01*
X21119Y6211D01*
X21170Y6190D01*
X21225D01*
X21276Y6211D01*
X21301Y6236D01*
X21320Y6216D01*
X21371Y6195D01*
X21426D01*
X21477Y6216D01*
X21516Y6255D01*
X21537Y6306D01*
Y6361D01*
X21516Y6412D01*
X21497Y6432D01*
X21514Y6449D01*
X21535Y6500D01*
Y6556D01*
X21514Y6607D01*
X21475Y6645D01*
X21424Y6667D01*
D02*
G37*
G36*
X17514Y6979D02*
X17471D01*
X17431Y6963D01*
X17400Y6932D01*
X17384Y6892D01*
Y6848D01*
X17400Y6808D01*
X17431Y6778D01*
X17471Y6761D01*
X17488D01*
X17520Y6747D01*
X17534Y6715D01*
Y6698D01*
X17551Y6658D01*
X17581Y6627D01*
X17621Y6611D01*
X17665D01*
X17705Y6627D01*
X17736Y6658D01*
X17752Y6698D01*
Y6741D01*
X17736Y6781D01*
X17705Y6812D01*
X17665Y6829D01*
X17648D01*
X17616Y6842D01*
X17602Y6875D01*
Y6892D01*
X17585Y6932D01*
X17554Y6963D01*
X17514Y6979D01*
D02*
G37*
G36*
X18762Y6801D02*
X18718D01*
X18678Y6785D01*
X18648Y6754D01*
X18631Y6714D01*
Y6670D01*
X18648Y6630D01*
X18678Y6600D01*
X18718Y6583D01*
X18762D01*
X18802Y6600D01*
X18833Y6630D01*
X18849Y6670D01*
Y6714D01*
X18833Y6754D01*
X18802Y6785D01*
X18762Y6801D01*
D02*
G37*
G36*
X24445Y7059D02*
X24390D01*
X24339Y7038D01*
X24300Y6999D01*
X24279Y6948D01*
Y6893D01*
X24300Y6842D01*
X24339Y6803D01*
X24390Y6782D01*
X24445D01*
X24496Y6803D01*
X24541Y6801D01*
X24542Y6801D01*
X24556Y6787D01*
X24557Y6781D01*
X24547Y6771D01*
X24526Y6720D01*
Y6665D01*
X24547Y6614D01*
X24586Y6575D01*
X24637Y6554D01*
X24692D01*
X24743Y6575D01*
X24782Y6614D01*
X24803Y6665D01*
Y6720D01*
X24782Y6771D01*
X24760Y6793D01*
X24762Y6802D01*
X24801Y6841D01*
X24822Y6892D01*
Y6947D01*
X24801Y6998D01*
X24762Y7037D01*
X24711Y7058D01*
X24656D01*
X24605Y7037D01*
X24582Y7014D01*
X24550Y7004D01*
X24519Y7015D01*
X24496Y7038D01*
X24445Y7059D01*
D02*
G37*
G36*
X25668Y6969D02*
X25613D01*
X25562Y6948D01*
X25523Y6909D01*
X25502Y6858D01*
Y6802D01*
X25509Y6785D01*
X25512Y6732D01*
X25473Y6693D01*
X25452Y6642D01*
Y6587D01*
X25473Y6536D01*
X25512Y6497D01*
X25563Y6476D01*
X25618D01*
X25669Y6497D01*
X25708Y6536D01*
X25725Y6526D01*
X25731Y6520D01*
X25782Y6499D01*
X25837D01*
X25888Y6520D01*
X25927Y6559D01*
X25948Y6610D01*
Y6665D01*
X25927Y6716D01*
X25888Y6755D01*
X25837Y6776D01*
X25822D01*
X25780Y6802D01*
X25779Y6822D01*
Y6858D01*
X25758Y6909D01*
X25719Y6948D01*
X25668Y6969D01*
D02*
G37*
G36*
X18211Y6802D02*
X18167D01*
X18127Y6785D01*
X18097Y6755D01*
X18080Y6715D01*
Y6671D01*
X18097Y6631D01*
X18127Y6600D01*
X18167Y6584D01*
X18211D01*
X18214Y6585D01*
X18221Y6581D01*
X18238Y6540D01*
X18269Y6510D01*
X18309Y6493D01*
X18352D01*
X18392Y6510D01*
X18423Y6540D01*
X18440Y6581D01*
Y6624D01*
X18423Y6664D01*
X18392Y6695D01*
X18352Y6711D01*
X18309D01*
X18305Y6710D01*
X18298Y6715D01*
X18281Y6755D01*
X18251Y6785D01*
X18211Y6802D01*
D02*
G37*
G36*
X11384Y6693D02*
X11341D01*
X11301Y6677D01*
X11270Y6646D01*
X11253Y6606D01*
Y6563D01*
X11270Y6523D01*
X11301Y6492D01*
X11341Y6475D01*
X11384D01*
X11424Y6492D01*
X11455Y6523D01*
X11472Y6563D01*
Y6606D01*
X11455Y6646D01*
X11424Y6677D01*
X11384Y6693D01*
D02*
G37*
G36*
X17391Y6692D02*
X17348D01*
X17308Y6675D01*
X17277Y6644D01*
X17261Y6604D01*
Y6561D01*
X17277Y6521D01*
X17308Y6490D01*
X17348Y6474D01*
X17391D01*
X17431Y6490D01*
X17462Y6521D01*
X17479Y6561D01*
Y6604D01*
X17462Y6644D01*
X17431Y6675D01*
X17391Y6692D01*
D02*
G37*
G36*
X4622Y6689D02*
X4578D01*
X4538Y6673D01*
X4508Y6642D01*
X4491Y6602D01*
Y6559D01*
X4508Y6519D01*
X4538Y6488D01*
X4578Y6471D01*
X4622D01*
X4662Y6488D01*
X4693Y6519D01*
X4709Y6559D01*
Y6602D01*
X4693Y6642D01*
X4662Y6673D01*
X4622Y6689D01*
D02*
G37*
G36*
X17935Y6674D02*
X17892D01*
X17852Y6657D01*
X17821Y6626D01*
X17804Y6586D01*
Y6543D01*
X17821Y6503D01*
X17852Y6472D01*
X17892Y6455D01*
X17935D01*
X17975Y6472D01*
X18006Y6503D01*
X18022Y6543D01*
Y6586D01*
X18006Y6626D01*
X17975Y6657D01*
X17935Y6674D01*
D02*
G37*
G36*
X19556Y6618D02*
X19513D01*
X19473Y6602D01*
X19442Y6571D01*
X19425Y6531D01*
Y6488D01*
X19430Y6476D01*
X19409Y6434D01*
X19375Y6466D01*
Y6476D01*
X19359Y6516D01*
X19328Y6546D01*
X19288Y6563D01*
X19245D01*
X19205Y6546D01*
X19174Y6516D01*
X19157Y6476D01*
Y6432D01*
X19174Y6392D01*
X19205Y6362D01*
X19245Y6345D01*
X19260D01*
X19296Y6307D01*
X19297Y6299D01*
Y6262D01*
X19314Y6222D01*
X19345Y6191D01*
X19385Y6174D01*
X19428D01*
X19468Y6191D01*
X19499Y6222D01*
X19515Y6262D01*
Y6305D01*
X19499Y6345D01*
X19488Y6356D01*
X19510Y6395D01*
X19515Y6400D01*
X19556D01*
X19596Y6417D01*
X19627Y6447D01*
X19644Y6488D01*
Y6531D01*
X19627Y6571D01*
X19596Y6602D01*
X19556Y6618D01*
D02*
G37*
G36*
X10612Y6605D02*
X10569D01*
X10529Y6589D01*
X10498Y6558D01*
X10481Y6518D01*
Y6474D01*
X10498Y6434D01*
X10529Y6404D01*
X10569Y6387D01*
X10612D01*
X10652Y6404D01*
X10683Y6434D01*
X10700Y6474D01*
Y6518D01*
X10683Y6558D01*
X10652Y6589D01*
X10612Y6605D01*
D02*
G37*
G36*
X9333D02*
X9289D01*
X9249Y6589D01*
X9219Y6558D01*
X9202Y6518D01*
Y6474D01*
X9219Y6434D01*
X9249Y6404D01*
X9289Y6387D01*
X9333D01*
X9373Y6404D01*
X9403Y6434D01*
X9420Y6474D01*
Y6518D01*
X9403Y6558D01*
X9373Y6589D01*
X9333Y6605D01*
D02*
G37*
G36*
X8821D02*
X8778D01*
X8737Y6589D01*
X8707Y6558D01*
X8690Y6518D01*
Y6474D01*
X8707Y6434D01*
X8737Y6404D01*
X8778Y6387D01*
X8821D01*
X8861Y6404D01*
X8892Y6434D01*
X8908Y6474D01*
Y6518D01*
X8892Y6558D01*
X8861Y6589D01*
X8821Y6605D01*
D02*
G37*
G36*
X16810Y6594D02*
X16766D01*
X16726Y6577D01*
X16695Y6547D01*
X16679Y6507D01*
Y6463D01*
X16695Y6423D01*
X16726Y6392D01*
X16766Y6376D01*
X16810D01*
X16850Y6392D01*
X16880Y6423D01*
X16897Y6463D01*
Y6507D01*
X16880Y6547D01*
X16850Y6577D01*
X16810Y6594D01*
D02*
G37*
G36*
X16516Y6522D02*
X16473D01*
X16433Y6505D01*
X16402Y6474D01*
X16386Y6434D01*
Y6391D01*
X16402Y6351D01*
X16433Y6320D01*
X16473Y6304D01*
X16516D01*
X16556Y6320D01*
X16587Y6351D01*
X16604Y6391D01*
Y6434D01*
X16587Y6474D01*
X16556Y6505D01*
X16516Y6522D01*
D02*
G37*
G36*
X3444Y6308D02*
X3400D01*
X3360Y6291D01*
X3360Y6291D01*
X3328Y6262D01*
X3295Y6290D01*
X3255Y6307D01*
X3211D01*
X3171Y6290D01*
X3141Y6259D01*
X3124Y6219D01*
Y6176D01*
X3141Y6136D01*
X3171Y6105D01*
X3211Y6088D01*
X3255D01*
X3295Y6105D01*
X3295Y6106D01*
X3327Y6135D01*
X3360Y6106D01*
X3400Y6090D01*
X3444D01*
X3484Y6106D01*
X3514Y6137D01*
X3531Y6177D01*
Y6220D01*
X3514Y6260D01*
X3484Y6291D01*
X3444Y6308D01*
D02*
G37*
G36*
X5187Y6727D02*
X5143D01*
X5103Y6710D01*
X5073Y6680D01*
X5056Y6640D01*
Y6596D01*
X5073Y6556D01*
X5103Y6525D01*
X5105Y6525D01*
X5109Y6472D01*
X5078Y6441D01*
X5061Y6401D01*
Y6358D01*
X5078Y6318D01*
X5084Y6312D01*
X5102Y6276D01*
X5084Y6246D01*
X5075Y6237D01*
X5059Y6197D01*
Y6154D01*
X5075Y6114D01*
X5106Y6083D01*
X5146Y6066D01*
X5189D01*
X5229Y6083D01*
X5260Y6114D01*
X5277Y6154D01*
Y6197D01*
X5270Y6213D01*
X5296Y6265D01*
X5298Y6267D01*
X5298Y6267D01*
X5302Y6268D01*
X5338Y6254D01*
X5381D01*
X5421Y6270D01*
X5452Y6301D01*
X5469Y6341D01*
Y6384D01*
X5452Y6424D01*
X5421Y6455D01*
X5381Y6472D01*
X5338D01*
X5298Y6455D01*
X5281Y6438D01*
X5263Y6441D01*
X5232Y6472D01*
X5230Y6473D01*
X5227Y6525D01*
X5258Y6556D01*
X5274Y6596D01*
Y6640D01*
X5258Y6680D01*
X5227Y6710D01*
X5187Y6727D01*
D02*
G37*
G36*
X17089Y6457D02*
X17046D01*
X17006Y6440D01*
X16975Y6410D01*
X16959Y6370D01*
Y6326D01*
X16975Y6286D01*
X17006Y6256D01*
X17046Y6239D01*
X17089D01*
X17129Y6256D01*
X17143Y6269D01*
X17173Y6238D01*
X17213Y6222D01*
X17257D01*
X17297Y6238D01*
X17327Y6269D01*
X17344Y6309D01*
Y6352D01*
X17327Y6392D01*
X17297Y6423D01*
X17257Y6440D01*
X17213D01*
X17173Y6423D01*
X17160Y6410D01*
X17129Y6440D01*
X17089Y6457D01*
D02*
G37*
G36*
X17797Y6419D02*
X17754D01*
X17714Y6402D01*
X17683Y6371D01*
X17666Y6331D01*
Y6288D01*
X17683Y6248D01*
X17714Y6217D01*
X17754Y6201D01*
X17797D01*
X17837Y6217D01*
X17868Y6248D01*
X17885Y6288D01*
Y6331D01*
X17868Y6371D01*
X17837Y6402D01*
X17797Y6419D01*
D02*
G37*
G36*
X15866Y6350D02*
X15823D01*
X15783Y6333D01*
X15752Y6303D01*
X15736Y6263D01*
Y6219D01*
X15752Y6179D01*
X15783Y6148D01*
X15823Y6132D01*
X15866D01*
X15906Y6148D01*
X15937Y6179D01*
X15954Y6219D01*
Y6263D01*
X15937Y6303D01*
X15906Y6333D01*
X15866Y6350D01*
D02*
G37*
G36*
X7030Y6349D02*
X6986D01*
X6946Y6333D01*
X6915Y6302D01*
X6899Y6262D01*
Y6218D01*
X6915Y6178D01*
X6946Y6148D01*
X6966Y6139D01*
Y6085D01*
X6946Y6077D01*
X6915Y6046D01*
X6907Y6026D01*
X6853D01*
X6844Y6046D01*
X6814Y6077D01*
X6774Y6093D01*
X6730D01*
X6690Y6077D01*
X6660Y6046D01*
X6643Y6006D01*
Y5963D01*
X6660Y5922D01*
X6690Y5892D01*
X6711Y5883D01*
Y5829D01*
X6690Y5821D01*
X6660Y5790D01*
X6643Y5750D01*
Y5707D01*
X6660Y5667D01*
X6690Y5636D01*
X6718Y5624D01*
X6718Y5623D01*
X6715Y5573D01*
X6687Y5561D01*
X6656Y5531D01*
X6640Y5491D01*
Y5447D01*
X6656Y5407D01*
X6687Y5376D01*
X6705Y5369D01*
Y5315D01*
X6690Y5309D01*
X6660Y5278D01*
X6643Y5238D01*
Y5195D01*
X6660Y5155D01*
X6690Y5124D01*
X6730Y5107D01*
X6774D01*
X6814Y5124D01*
X6844Y5155D01*
X6853Y5175D01*
X6907D01*
X6915Y5155D01*
X6946Y5124D01*
X6986Y5107D01*
X7030D01*
X7070Y5124D01*
X7100Y5155D01*
X7117Y5195D01*
Y5238D01*
X7100Y5278D01*
X7070Y5309D01*
X7049Y5317D01*
Y5372D01*
X7070Y5380D01*
X7100Y5411D01*
X7117Y5451D01*
Y5494D01*
X7100Y5534D01*
X7070Y5565D01*
X7049Y5573D01*
Y5627D01*
X7070Y5636D01*
X7100Y5667D01*
X7109Y5687D01*
X7163D01*
X7171Y5667D01*
X7202Y5636D01*
X7242Y5619D01*
X7285D01*
X7326Y5636D01*
X7356Y5667D01*
X7365Y5687D01*
X7419D01*
X7427Y5667D01*
X7458Y5636D01*
X7498Y5619D01*
X7541D01*
X7581Y5636D01*
X7612Y5667D01*
X7629Y5707D01*
Y5734D01*
X7633Y5737D01*
X7677D01*
X7717Y5754D01*
X7748Y5785D01*
X7764Y5825D01*
Y5868D01*
X7748Y5908D01*
X7717Y5939D01*
X7677Y5955D01*
X7633D01*
X7593Y5939D01*
X7563Y5908D01*
X7546Y5868D01*
Y5841D01*
X7541Y5837D01*
X7498D01*
X7458Y5821D01*
X7427Y5790D01*
X7419Y5770D01*
X7365D01*
X7356Y5790D01*
X7326Y5821D01*
X7285Y5837D01*
X7242D01*
X7202Y5821D01*
X7171Y5790D01*
X7163Y5770D01*
X7109D01*
X7100Y5790D01*
X7070Y5821D01*
X7049Y5829D01*
Y5883D01*
X7070Y5892D01*
X7100Y5922D01*
X7111Y5947D01*
X7111Y5947D01*
X7117Y5963D01*
X7162Y5993D01*
X7162Y5994D01*
X7166Y5995D01*
X7202Y6010D01*
X7233Y6041D01*
X7250Y6081D01*
Y6124D01*
X7233Y6164D01*
X7202Y6195D01*
X7162Y6212D01*
X7119Y6218D01*
X7117Y6258D01*
Y6262D01*
X7100Y6302D01*
X7070Y6333D01*
X7030Y6349D01*
D02*
G37*
G36*
X18944Y6405D02*
X18901D01*
X18861Y6388D01*
X18830Y6357D01*
X18814Y6317D01*
Y6274D01*
X18830Y6234D01*
X18861Y6203D01*
X18892Y6191D01*
X18930Y6152D01*
Y6108D01*
X18946Y6068D01*
X18977Y6038D01*
X19017Y6021D01*
X19060D01*
X19100Y6038D01*
X19131Y6068D01*
X19148Y6108D01*
Y6152D01*
X19131Y6192D01*
X19100Y6222D01*
X19070Y6235D01*
X19032Y6274D01*
Y6317D01*
X19015Y6357D01*
X18985Y6388D01*
X18944Y6405D01*
D02*
G37*
G36*
X7678Y6230D02*
X7635D01*
X7595Y6214D01*
X7564Y6183D01*
X7548Y6143D01*
Y6099D01*
X7564Y6059D01*
X7595Y6029D01*
X7635Y6012D01*
X7678D01*
X7718Y6029D01*
X7749Y6059D01*
X7766Y6099D01*
Y6143D01*
X7749Y6183D01*
X7718Y6214D01*
X7678Y6230D01*
D02*
G37*
G36*
X8262Y6694D02*
X8218D01*
X8178Y6678D01*
X8148Y6647D01*
X8131Y6607D01*
Y6563D01*
X8148Y6523D01*
X8154Y6516D01*
X8134Y6466D01*
X8129D01*
X8089Y6450D01*
X8058Y6419D01*
X8042Y6379D01*
Y6336D01*
X8058Y6296D01*
X8089Y6265D01*
X8100Y6261D01*
Y6206D01*
X8096Y6205D01*
X8065Y6174D01*
X8049Y6134D01*
Y6091D01*
X8065Y6051D01*
X8096Y6020D01*
X8136Y6003D01*
X8179D01*
X8219Y6020D01*
X8250Y6051D01*
X8267Y6091D01*
Y6131D01*
X8309D01*
X8349Y6148D01*
X8380Y6178D01*
X8396Y6218D01*
Y6262D01*
X8380Y6302D01*
X8349Y6333D01*
X8309Y6349D01*
X8266D01*
X8260Y6353D01*
Y6379D01*
X8243Y6419D01*
X8236Y6426D01*
X8257Y6476D01*
X8262D01*
X8302Y6493D01*
X8332Y6523D01*
X8349Y6563D01*
Y6607D01*
X8332Y6647D01*
X8302Y6678D01*
X8262Y6694D01*
D02*
G37*
G36*
X11017Y6214D02*
X10973D01*
X10933Y6198D01*
X10903Y6167D01*
X10886Y6127D01*
Y6084D01*
X10903Y6044D01*
X10933Y6013D01*
X10973Y5996D01*
X11017D01*
X11057Y6013D01*
X11087Y6044D01*
X11104Y6084D01*
Y6127D01*
X11087Y6167D01*
X11057Y6198D01*
X11017Y6214D01*
D02*
G37*
G36*
X16695Y6180D02*
X16652D01*
X16612Y6163D01*
X16581Y6133D01*
X16564Y6093D01*
Y6049D01*
X16581Y6009D01*
X16612Y5978D01*
X16652Y5962D01*
X16695D01*
X16735Y5978D01*
X16766Y6009D01*
X16782Y6049D01*
Y6093D01*
X16766Y6133D01*
X16735Y6163D01*
X16695Y6180D01*
D02*
G37*
G36*
X16963Y6152D02*
X16920D01*
X16880Y6135D01*
X16849Y6104D01*
X16832Y6064D01*
Y6021D01*
X16849Y5981D01*
X16880Y5950D01*
X16920Y5934D01*
X16963D01*
X17003Y5950D01*
X17034Y5981D01*
X17051Y6021D01*
Y6064D01*
X17034Y6104D01*
X17003Y6135D01*
X16963Y6152D01*
D02*
G37*
G36*
X10612Y6093D02*
X10569D01*
X10529Y6077D01*
X10498Y6046D01*
X10481Y6006D01*
Y5963D01*
X10498Y5922D01*
X10529Y5892D01*
X10569Y5875D01*
X10612D01*
X10652Y5892D01*
X10683Y5922D01*
X10700Y5963D01*
Y6006D01*
X10683Y6046D01*
X10652Y6077D01*
X10612Y6093D01*
D02*
G37*
G36*
X10100D02*
X10057D01*
X10017Y6077D01*
X9986Y6046D01*
X9970Y6006D01*
Y5963D01*
X9986Y5922D01*
X10017Y5892D01*
X10057Y5875D01*
X10100D01*
X10141Y5892D01*
X10171Y5922D01*
X10188Y5963D01*
Y6006D01*
X10171Y6046D01*
X10141Y6077D01*
X10100Y6093D01*
D02*
G37*
G36*
X8821D02*
X8778D01*
X8737Y6077D01*
X8707Y6046D01*
X8690Y6006D01*
Y5963D01*
X8707Y5922D01*
X8737Y5892D01*
X8778Y5875D01*
X8821D01*
X8861Y5892D01*
X8892Y5922D01*
X8908Y5963D01*
Y6006D01*
X8892Y6046D01*
X8861Y6077D01*
X8821Y6093D01*
D02*
G37*
G36*
X15227Y6067D02*
X15183D01*
X15143Y6050D01*
X15113Y6020D01*
X15096Y5980D01*
Y5936D01*
X15113Y5896D01*
X15143Y5865D01*
X15183Y5849D01*
X15227D01*
X15267Y5865D01*
X15297Y5896D01*
X15314Y5936D01*
Y5980D01*
X15297Y6020D01*
X15267Y6050D01*
X15227Y6067D01*
D02*
G37*
G36*
X24713Y6370D02*
X24657D01*
X24607Y6349D01*
X24568Y6310D01*
X24546Y6259D01*
Y6204D01*
X24568Y6153D01*
X24607Y6114D01*
Y6062D01*
X24568Y6023D01*
X24546Y5972D01*
Y5917D01*
X24568Y5866D01*
X24607Y5827D01*
X24657Y5806D01*
X24713D01*
X24764Y5827D01*
X24803Y5866D01*
X24824Y5917D01*
Y5972D01*
X24803Y6023D01*
X24764Y6062D01*
Y6114D01*
X24803Y6153D01*
X24824Y6204D01*
Y6259D01*
X24803Y6310D01*
X24764Y6349D01*
X24713Y6370D01*
D02*
G37*
G36*
X11502Y5955D02*
X11459D01*
X11419Y5938D01*
X11388Y5908D01*
X11372Y5867D01*
Y5824D01*
X11388Y5784D01*
X11419Y5753D01*
X11459Y5737D01*
X11502D01*
X11543Y5753D01*
X11573Y5784D01*
X11590Y5824D01*
Y5867D01*
X11573Y5908D01*
X11543Y5938D01*
X11502Y5955D01*
D02*
G37*
G36*
X4432Y5719D02*
X4389D01*
X4349Y5702D01*
X4318Y5671D01*
X4270Y5685D01*
X4234Y5700D01*
X4191D01*
X4151Y5683D01*
X4120Y5652D01*
X4104Y5612D01*
Y5569D01*
X4120Y5529D01*
X4151Y5498D01*
X4191Y5481D01*
X4234D01*
X4274Y5498D01*
X4305Y5529D01*
X4353Y5515D01*
X4389Y5500D01*
X4432D01*
X4472Y5517D01*
X4503Y5548D01*
X4519Y5588D01*
Y5631D01*
X4503Y5671D01*
X4472Y5702D01*
X4432Y5719D01*
D02*
G37*
G36*
X25581Y6208D02*
X25530D01*
X25482Y6189D01*
X25446Y6153D01*
X25427Y6105D01*
Y6054D01*
X25442Y6016D01*
X25439Y6015D01*
X25403Y5978D01*
X25383Y5931D01*
Y5880D01*
X25388Y5869D01*
X25360Y5857D01*
X25324Y5821D01*
X25304Y5774D01*
Y5722D01*
X25324Y5675D01*
X25360Y5639D01*
X25407Y5619D01*
X25459D01*
X25506Y5639D01*
X25542Y5675D01*
X25562Y5722D01*
Y5774D01*
X25557Y5785D01*
X25585Y5796D01*
X25621Y5833D01*
X25641Y5880D01*
Y5931D01*
X25625Y5969D01*
X25628Y5971D01*
X25665Y6007D01*
X25684Y6054D01*
Y6105D01*
X25665Y6153D01*
X25628Y6189D01*
X25581Y6208D01*
D02*
G37*
G36*
X10356Y5837D02*
X10313D01*
X10273Y5821D01*
X10242Y5790D01*
X10226Y5750D01*
Y5707D01*
X10242Y5667D01*
X10273Y5636D01*
X10313Y5619D01*
X10356D01*
X10396Y5636D01*
X10427Y5667D01*
X10444Y5707D01*
Y5750D01*
X10427Y5790D01*
X10396Y5821D01*
X10356Y5837D01*
D02*
G37*
G36*
X8565D02*
X8522D01*
X8482Y5821D01*
X8451Y5790D01*
X8434Y5750D01*
Y5707D01*
X8451Y5667D01*
X8482Y5636D01*
X8522Y5619D01*
X8565D01*
X8605Y5636D01*
X8636Y5667D01*
X8652Y5707D01*
Y5750D01*
X8636Y5790D01*
X8605Y5821D01*
X8565Y5837D01*
D02*
G37*
G36*
X26848Y5641D02*
X26793D01*
X26742Y5619D01*
X26742Y5619D01*
X26742Y5619D01*
X26691Y5641D01*
X26636D01*
X26585Y5619D01*
X26546Y5580D01*
X26525Y5530D01*
Y5474D01*
X26546Y5423D01*
X26546Y5423D01*
X26546Y5423D01*
X26525Y5372D01*
Y5317D01*
X26546Y5266D01*
X26546Y5266D01*
X26546Y5265D01*
X26525Y5215D01*
Y5159D01*
X26546Y5109D01*
X26585Y5070D01*
X26636Y5048D01*
X26691D01*
X26742Y5070D01*
X26742Y5070D01*
X26742Y5070D01*
X26793Y5048D01*
X26848D01*
X26899Y5070D01*
X26938Y5109D01*
X26959Y5159D01*
Y5215D01*
X26941Y5259D01*
X26945Y5263D01*
X26966Y5314D01*
Y5369D01*
X26945Y5420D01*
X26939Y5426D01*
X26959Y5474D01*
Y5530D01*
X26938Y5580D01*
X26899Y5619D01*
X26848Y5641D01*
D02*
G37*
G36*
X10910Y5957D02*
X10867D01*
X10827Y5940D01*
X10796Y5910D01*
X10780Y5870D01*
Y5826D01*
X10796Y5786D01*
X10827Y5755D01*
X10867Y5739D01*
X10900D01*
X10913Y5691D01*
X10913Y5690D01*
X10882Y5659D01*
X10865Y5619D01*
Y5576D01*
X10882Y5536D01*
X10913Y5505D01*
X10953Y5488D01*
X10996D01*
X11036Y5505D01*
X11067Y5536D01*
X11074Y5553D01*
X11128D01*
X11134Y5539D01*
X11165Y5508D01*
X11205Y5492D01*
X11248D01*
X11288Y5508D01*
X11319Y5539D01*
X11335Y5579D01*
Y5622D01*
X11319Y5662D01*
X11288Y5693D01*
X11248Y5710D01*
X11205D01*
X11165Y5693D01*
X11134Y5662D01*
X11127Y5645D01*
X11073D01*
X11067Y5659D01*
X11036Y5690D01*
X10996Y5706D01*
X10963D01*
X10951Y5755D01*
X10951Y5756D01*
X10981Y5786D01*
X10998Y5826D01*
Y5870D01*
X10981Y5910D01*
X10950Y5940D01*
X10910Y5957D01*
D02*
G37*
G36*
X3250Y5700D02*
X3207D01*
X3167Y5683D01*
X3136Y5652D01*
X3119Y5612D01*
Y5569D01*
X3136Y5529D01*
X3167Y5498D01*
X3207Y5481D01*
X3250D01*
X3290Y5498D01*
X3321Y5529D01*
X3337Y5569D01*
Y5612D01*
X3321Y5652D01*
X3290Y5683D01*
X3250Y5700D01*
D02*
G37*
G36*
X16131Y5675D02*
X16087D01*
X16047Y5659D01*
X16017Y5628D01*
X16000Y5588D01*
Y5544D01*
X16017Y5504D01*
X16047Y5474D01*
X16087Y5457D01*
X16131D01*
X16171Y5474D01*
X16201Y5504D01*
X16218Y5544D01*
Y5588D01*
X16201Y5628D01*
X16171Y5659D01*
X16131Y5675D01*
D02*
G37*
G36*
X20506Y6128D02*
X20451D01*
X20400Y6107D01*
X20361Y6068D01*
X20340Y6017D01*
Y5962D01*
X20361Y5911D01*
X20381Y5891D01*
X20361Y5871D01*
X20340Y5820D01*
Y5765D01*
X20361Y5714D01*
X20381Y5694D01*
X20361Y5674D01*
X20340Y5623D01*
Y5568D01*
X20361Y5517D01*
X20400Y5478D01*
X20451Y5457D01*
X20506D01*
X20557Y5478D01*
X20596Y5517D01*
X20617Y5568D01*
Y5623D01*
X20596Y5674D01*
X20576Y5694D01*
X20596Y5714D01*
X20617Y5765D01*
Y5820D01*
X20596Y5871D01*
X20576Y5891D01*
X20596Y5911D01*
X20617Y5962D01*
Y6017D01*
X20596Y6068D01*
X20557Y6107D01*
X20506Y6128D01*
D02*
G37*
G36*
X15258Y5667D02*
X15215D01*
X15175Y5651D01*
X15144Y5620D01*
X15128Y5580D01*
Y5536D01*
X15144Y5496D01*
X15175Y5466D01*
X15215Y5449D01*
X15258D01*
X15298Y5466D01*
X15329Y5496D01*
X15346Y5536D01*
Y5580D01*
X15329Y5620D01*
X15298Y5651D01*
X15258Y5667D01*
D02*
G37*
G36*
X15848Y5660D02*
X15805D01*
X15765Y5644D01*
X15734Y5613D01*
X15718Y5573D01*
Y5529D01*
X15734Y5489D01*
X15765Y5459D01*
X15805Y5442D01*
X15848D01*
X15889Y5459D01*
X15919Y5489D01*
X15936Y5529D01*
Y5573D01*
X15919Y5613D01*
X15889Y5644D01*
X15848Y5660D01*
D02*
G37*
G36*
X17718Y5640D02*
X17674D01*
X17634Y5624D01*
X17604Y5593D01*
X17587Y5553D01*
Y5510D01*
X17604Y5470D01*
X17634Y5439D01*
X17674Y5422D01*
X17718D01*
X17758Y5439D01*
X17789Y5470D01*
X17805Y5510D01*
Y5553D01*
X17789Y5593D01*
X17758Y5624D01*
X17718Y5640D01*
D02*
G37*
G36*
X9292Y5581D02*
X9249D01*
X9209Y5565D01*
X9178Y5534D01*
X9162Y5494D01*
Y5451D01*
X9178Y5411D01*
X9209Y5380D01*
X9249Y5363D01*
X9292D01*
X9332Y5380D01*
X9363Y5411D01*
X9380Y5451D01*
Y5494D01*
X9363Y5534D01*
X9332Y5565D01*
X9292Y5581D01*
D02*
G37*
G36*
X10100Y5581D02*
X10057D01*
X10017Y5565D01*
X9986Y5534D01*
X9970Y5494D01*
Y5451D01*
X9986Y5411D01*
X10017Y5380D01*
X10057Y5363D01*
X10100D01*
X10141Y5380D01*
X10171Y5411D01*
X10188Y5451D01*
Y5494D01*
X10171Y5534D01*
X10141Y5565D01*
X10100Y5581D01*
D02*
G37*
G36*
X9589D02*
X9545D01*
X9505Y5565D01*
X9474Y5534D01*
X9458Y5494D01*
Y5451D01*
X9474Y5411D01*
X9505Y5380D01*
X9545Y5363D01*
X9589D01*
X9629Y5380D01*
X9659Y5411D01*
X9676Y5451D01*
Y5494D01*
X9659Y5534D01*
X9629Y5565D01*
X9589Y5581D01*
D02*
G37*
G36*
X7739Y5330D02*
X7696D01*
X7656Y5314D01*
X7649Y5307D01*
X7621Y5285D01*
X7584Y5307D01*
X7581Y5309D01*
X7541Y5326D01*
X7498D01*
X7458Y5309D01*
X7427Y5278D01*
X7411Y5238D01*
Y5195D01*
X7427Y5155D01*
X7458Y5124D01*
X7498Y5107D01*
X7541D01*
X7581Y5124D01*
X7588Y5131D01*
X7616Y5152D01*
X7654Y5131D01*
X7656Y5129D01*
X7696Y5112D01*
X7739D01*
X7779Y5129D01*
X7810Y5160D01*
X7827Y5200D01*
Y5243D01*
X7810Y5283D01*
X7779Y5314D01*
X7739Y5330D01*
D02*
G37*
G36*
X4037Y5503D02*
X3994D01*
X3954Y5486D01*
X3923Y5455D01*
X3907Y5415D01*
Y5372D01*
X3923Y5332D01*
X3954Y5301D01*
X3994Y5285D01*
X4037D01*
X4078Y5301D01*
X4108Y5332D01*
X4125Y5372D01*
Y5415D01*
X4108Y5455D01*
X4078Y5486D01*
X4037Y5503D01*
D02*
G37*
G36*
X16793Y5345D02*
X16750D01*
X16710Y5329D01*
X16679Y5298D01*
X16666Y5265D01*
X16638Y5259D01*
X16614Y5261D01*
X16603Y5288D01*
X16572Y5318D01*
X16532Y5335D01*
X16489D01*
X16449Y5318D01*
X16418Y5288D01*
X16401Y5248D01*
Y5204D01*
X16418Y5164D01*
X16449Y5133D01*
X16489Y5117D01*
X16532D01*
X16572Y5133D01*
X16603Y5164D01*
X16616Y5197D01*
X16644Y5203D01*
X16668Y5201D01*
X16679Y5174D01*
X16710Y5144D01*
X16750Y5127D01*
X16793D01*
X16833Y5144D01*
X16864Y5174D01*
X16881Y5215D01*
Y5258D01*
X16864Y5298D01*
X16833Y5329D01*
X16793Y5345D01*
D02*
G37*
G36*
X14206Y5374D02*
X14163D01*
X14123Y5358D01*
X14092Y5327D01*
X14075Y5287D01*
Y5244D01*
X14092Y5204D01*
X14123Y5173D01*
X14163Y5156D01*
X14206D01*
X14246Y5173D01*
X14277Y5204D01*
X14294Y5244D01*
Y5287D01*
X14277Y5327D01*
X14246Y5358D01*
X14206Y5374D01*
D02*
G37*
G36*
X15247Y5373D02*
X15203D01*
X15163Y5357D01*
X15132Y5326D01*
X15116Y5286D01*
Y5243D01*
X15132Y5203D01*
X15163Y5172D01*
X15203Y5155D01*
X15247D01*
X15287Y5172D01*
X15317Y5203D01*
X15334Y5243D01*
Y5286D01*
X15317Y5326D01*
X15287Y5357D01*
X15247Y5373D01*
D02*
G37*
G36*
X16147Y5350D02*
X16104D01*
X16064Y5333D01*
X16033Y5302D01*
X16017Y5262D01*
Y5219D01*
X16033Y5179D01*
X16064Y5148D01*
X16104Y5131D01*
X16147D01*
X16188Y5148D01*
X16218Y5179D01*
X16235Y5219D01*
Y5262D01*
X16218Y5302D01*
X16188Y5333D01*
X16147Y5350D01*
D02*
G37*
G36*
X15848Y5345D02*
X15805D01*
X15765Y5329D01*
X15734Y5298D01*
X15718Y5258D01*
Y5215D01*
X15734Y5174D01*
X15765Y5144D01*
X15805Y5127D01*
X15848D01*
X15889Y5144D01*
X15919Y5174D01*
X15936Y5215D01*
Y5258D01*
X15919Y5298D01*
X15889Y5329D01*
X15848Y5345D01*
D02*
G37*
G36*
X15533D02*
X15490D01*
X15450Y5329D01*
X15419Y5298D01*
X15403Y5258D01*
Y5215D01*
X15419Y5174D01*
X15450Y5144D01*
X15490Y5127D01*
X15533D01*
X15574Y5144D01*
X15604Y5174D01*
X15621Y5215D01*
Y5258D01*
X15604Y5298D01*
X15574Y5329D01*
X15533Y5345D01*
D02*
G37*
G36*
X11892Y5326D02*
X11848D01*
X11808Y5309D01*
X11778Y5278D01*
X11761Y5238D01*
Y5195D01*
X11778Y5155D01*
X11808Y5124D01*
X11848Y5107D01*
X11892D01*
X11932Y5124D01*
X11963Y5155D01*
X11979Y5195D01*
Y5238D01*
X11963Y5278D01*
X11932Y5309D01*
X11892Y5326D01*
D02*
G37*
G36*
X8315Y5577D02*
X8272D01*
X8231Y5560D01*
X8201Y5529D01*
X8184Y5489D01*
Y5446D01*
X8201Y5406D01*
X8231Y5375D01*
X8243Y5370D01*
Y5316D01*
X8226Y5309D01*
X8195Y5278D01*
X8178Y5238D01*
Y5195D01*
X8195Y5155D01*
X8226Y5124D01*
X8266Y5107D01*
X8309D01*
X8349Y5124D01*
X8380Y5155D01*
X8396Y5195D01*
Y5238D01*
X8380Y5278D01*
X8349Y5309D01*
X8338Y5314D01*
Y5368D01*
X8355Y5375D01*
X8386Y5406D01*
X8402Y5446D01*
Y5489D01*
X8386Y5529D01*
X8355Y5560D01*
X8315Y5577D01*
D02*
G37*
G36*
X11380Y5326D02*
X11337D01*
X11296Y5309D01*
X11266Y5278D01*
X11249Y5238D01*
Y5195D01*
X11237Y5176D01*
X11217D01*
X11177Y5160D01*
X11147Y5129D01*
X11130Y5089D01*
Y5086D01*
X11124Y5070D01*
X11081D01*
X11041Y5053D01*
X11010Y5022D01*
X10993Y4982D01*
Y4939D01*
X11010Y4899D01*
X11041Y4868D01*
X11061Y4860D01*
Y4806D01*
X11041Y4797D01*
X11010Y4766D01*
X10993Y4726D01*
Y4683D01*
X11010Y4643D01*
X11041Y4612D01*
X11081Y4596D01*
X11124D01*
X11164Y4612D01*
X11195Y4643D01*
X11211Y4683D01*
Y4726D01*
X11195Y4766D01*
X11164Y4797D01*
X11144Y4806D01*
Y4860D01*
X11164Y4868D01*
X11195Y4899D01*
X11211Y4939D01*
Y4942D01*
X11217Y4958D01*
X11261D01*
X11301Y4975D01*
X11331Y5005D01*
X11342Y5031D01*
X11394Y5035D01*
X11402Y5017D01*
X11432Y4986D01*
X11472Y4970D01*
X11516D01*
X11556Y4986D01*
X11587Y5017D01*
X11603Y5057D01*
Y5100D01*
X11587Y5140D01*
X11556Y5171D01*
X11516Y5188D01*
X11514D01*
X11472Y5194D01*
X11467Y5234D01*
Y5238D01*
X11451Y5278D01*
X11420Y5309D01*
X11380Y5326D01*
D02*
G37*
G36*
X22320Y5981D02*
X22269D01*
X22222Y5962D01*
X22186Y5926D01*
X22166Y5878D01*
Y5827D01*
X22186Y5780D01*
X22204Y5762D01*
X22220Y5737D01*
X22204Y5697D01*
X22193Y5686D01*
X22174Y5639D01*
Y5588D01*
X22193Y5540D01*
X22211Y5523D01*
X22221Y5485D01*
X22209Y5459D01*
X22188Y5438D01*
X22168Y5391D01*
Y5340D01*
X22188Y5292D01*
X22224Y5256D01*
X22229Y5254D01*
Y5200D01*
X22210Y5192D01*
X22174Y5156D01*
X22154Y5108D01*
Y5057D01*
X22174Y5010D01*
X22210Y4974D01*
X22257Y4954D01*
X22309D01*
X22356Y4974D01*
X22392Y5010D01*
X22412Y5057D01*
Y5108D01*
X22392Y5156D01*
X22356Y5192D01*
X22351Y5194D01*
Y5248D01*
X22370Y5256D01*
X22406Y5292D01*
X22425Y5340D01*
Y5391D01*
X22406Y5438D01*
X22389Y5455D01*
X22378Y5493D01*
X22390Y5519D01*
X22412Y5540D01*
X22431Y5588D01*
Y5639D01*
X22412Y5686D01*
X22394Y5704D01*
X22378Y5728D01*
X22393Y5769D01*
X22404Y5780D01*
X22424Y5827D01*
Y5878D01*
X22404Y5926D01*
X22368Y5962D01*
X22320Y5981D01*
D02*
G37*
G36*
X2856Y5109D02*
X2813D01*
X2773Y5092D01*
X2742Y5062D01*
X2726Y5022D01*
Y4978D01*
X2742Y4938D01*
X2773Y4908D01*
X2813Y4891D01*
X2856D01*
X2896Y4908D01*
X2900Y4912D01*
X2933Y4934D01*
X2966Y4912D01*
X2970Y4908D01*
X3010Y4891D01*
X3053D01*
X3093Y4908D01*
X3097Y4912D01*
X3130Y4934D01*
X3163Y4912D01*
X3167Y4908D01*
X3207Y4891D01*
X3250D01*
X3290Y4908D01*
X3294Y4912D01*
X3327Y4934D01*
X3359Y4912D01*
X3363Y4908D01*
X3403Y4891D01*
X3447D01*
X3487Y4908D01*
X3518Y4938D01*
X3534Y4978D01*
Y5022D01*
X3518Y5062D01*
X3487Y5092D01*
X3447Y5109D01*
X3403D01*
X3363Y5092D01*
X3359Y5088D01*
X3327Y5066D01*
X3294Y5088D01*
X3290Y5092D01*
X3250Y5109D01*
X3207D01*
X3167Y5092D01*
X3163Y5088D01*
X3130Y5066D01*
X3097Y5088D01*
X3093Y5092D01*
X3053Y5109D01*
X3010D01*
X2970Y5092D01*
X2966Y5088D01*
X2933Y5066D01*
X2900Y5088D01*
X2896Y5092D01*
X2856Y5109D01*
D02*
G37*
G36*
X9725Y5069D02*
X9682D01*
X9642Y5053D01*
X9611Y5022D01*
X9594Y4982D01*
Y4938D01*
X9611Y4898D01*
X9642Y4868D01*
X9682Y4851D01*
X9725D01*
X9765Y4868D01*
X9796Y4898D01*
X9812Y4938D01*
Y4982D01*
X9796Y5022D01*
X9765Y5053D01*
X9725Y5069D01*
D02*
G37*
G36*
X15219Y5030D02*
X15175D01*
X15135Y5014D01*
X15104Y4983D01*
X15088Y4943D01*
Y4900D01*
X15104Y4859D01*
X15135Y4829D01*
X15175Y4812D01*
X15219D01*
X15259Y4829D01*
X15289Y4859D01*
X15306Y4900D01*
Y4943D01*
X15289Y4983D01*
X15259Y5014D01*
X15219Y5030D01*
D02*
G37*
G36*
X8565Y4814D02*
X8522D01*
X8482Y4797D01*
X8451Y4766D01*
X8442Y4746D01*
X8388D01*
X8380Y4766D01*
X8349Y4797D01*
X8309Y4814D01*
X8266D01*
X8226Y4797D01*
X8195Y4766D01*
X8178Y4726D01*
Y4683D01*
X8195Y4643D01*
X8226Y4612D01*
X8246Y4604D01*
Y4550D01*
X8226Y4541D01*
X8195Y4511D01*
X8187Y4490D01*
X8132D01*
X8124Y4511D01*
X8093Y4541D01*
X8053Y4558D01*
X8010D01*
X7970Y4541D01*
X7939Y4511D01*
X7931Y4490D01*
X7876D01*
X7868Y4511D01*
X7837Y4541D01*
X7797Y4558D01*
X7754D01*
X7714Y4541D01*
X7683Y4511D01*
X7667Y4471D01*
Y4427D01*
X7683Y4387D01*
X7714Y4356D01*
X7754Y4340D01*
X7797D01*
X7837Y4356D01*
X7868Y4387D01*
X7876Y4407D01*
X7931D01*
X7939Y4387D01*
X7970Y4356D01*
X7990Y4348D01*
Y4294D01*
X7970Y4285D01*
X7939Y4255D01*
X7922Y4215D01*
Y4171D01*
X7939Y4131D01*
X7970Y4100D01*
X8010Y4084D01*
X8053D01*
X8093Y4100D01*
X8124Y4131D01*
X8132Y4151D01*
X8187D01*
X8195Y4131D01*
X8226Y4100D01*
X8266Y4084D01*
X8309D01*
X8349Y4100D01*
X8380Y4131D01*
X8396Y4171D01*
Y4215D01*
X8380Y4255D01*
X8349Y4285D01*
X8329Y4294D01*
Y4348D01*
X8349Y4356D01*
X8380Y4387D01*
X8388Y4407D01*
X8442D01*
X8451Y4387D01*
X8482Y4356D01*
X8522Y4340D01*
X8565D01*
X8605Y4356D01*
X8636Y4387D01*
X8644Y4407D01*
X8698D01*
X8707Y4387D01*
X8737Y4356D01*
X8758Y4348D01*
Y4294D01*
X8737Y4285D01*
X8707Y4255D01*
X8690Y4215D01*
Y4171D01*
X8707Y4131D01*
X8737Y4100D01*
X8778Y4084D01*
X8821D01*
X8861Y4100D01*
X8892Y4131D01*
X8908Y4171D01*
Y4215D01*
X8892Y4255D01*
X8861Y4285D01*
X8841Y4294D01*
Y4348D01*
X8861Y4356D01*
X8892Y4387D01*
X8908Y4427D01*
Y4471D01*
X8892Y4511D01*
X8861Y4541D01*
X8821Y4558D01*
X8778D01*
X8737Y4541D01*
X8707Y4511D01*
X8698Y4490D01*
X8644D01*
X8636Y4511D01*
X8605Y4541D01*
X8585Y4550D01*
Y4604D01*
X8605Y4612D01*
X8636Y4643D01*
X8652Y4683D01*
Y4726D01*
X8636Y4766D01*
X8605Y4797D01*
X8565Y4814D01*
D02*
G37*
G36*
X9215Y4937D02*
X9171D01*
X9131Y4921D01*
X9101Y4890D01*
X9084Y4850D01*
Y4807D01*
X9101Y4766D01*
X9131Y4736D01*
X9171Y4719D01*
X9215D01*
X9255Y4736D01*
X9286Y4766D01*
X9302Y4807D01*
Y4850D01*
X9286Y4890D01*
X9255Y4921D01*
X9215Y4937D01*
D02*
G37*
G36*
X18841Y4912D02*
X18797D01*
X18757Y4896D01*
X18726Y4865D01*
X18710Y4825D01*
Y4781D01*
X18726Y4741D01*
X18757Y4711D01*
X18797Y4694D01*
X18841D01*
X18881Y4711D01*
X18911Y4741D01*
X18928Y4781D01*
Y4825D01*
X18911Y4865D01*
X18881Y4896D01*
X18841Y4912D01*
D02*
G37*
G36*
X18053D02*
X18010D01*
X17970Y4896D01*
X17939Y4865D01*
X17922Y4825D01*
Y4781D01*
X17939Y4741D01*
X17970Y4711D01*
X18010Y4694D01*
X18053D01*
X18093Y4711D01*
X18124Y4741D01*
X18141Y4781D01*
Y4825D01*
X18124Y4865D01*
X18093Y4896D01*
X18053Y4912D01*
D02*
G37*
G36*
X17659D02*
X17616D01*
X17576Y4896D01*
X17545Y4865D01*
X17529Y4825D01*
Y4781D01*
X17545Y4741D01*
X17576Y4711D01*
X17616Y4694D01*
X17659D01*
X17700Y4711D01*
X17730Y4741D01*
X17747Y4781D01*
Y4825D01*
X17730Y4865D01*
X17700Y4896D01*
X17659Y4912D01*
D02*
G37*
G36*
X3250Y4715D02*
X3207D01*
X3167Y4699D01*
X3136Y4668D01*
X3119Y4628D01*
Y4585D01*
X3136Y4545D01*
X3167Y4514D01*
X3207Y4497D01*
X3250D01*
X3290Y4514D01*
X3321Y4545D01*
X3337Y4585D01*
Y4628D01*
X3321Y4668D01*
X3290Y4699D01*
X3250Y4715D01*
D02*
G37*
G36*
X16833Y4715D02*
X16789D01*
X16749Y4699D01*
X16719Y4668D01*
X16702Y4628D01*
Y4585D01*
X16719Y4545D01*
X16749Y4514D01*
X16789Y4497D01*
X16833D01*
X16873Y4514D01*
X16903Y4545D01*
X16920Y4585D01*
Y4628D01*
X16903Y4668D01*
X16873Y4699D01*
X16833Y4715D01*
D02*
G37*
G36*
X10744Y4680D02*
X10701D01*
X10661Y4664D01*
X10630Y4633D01*
X10614Y4593D01*
Y4550D01*
X10630Y4510D01*
X10661Y4479D01*
X10701Y4462D01*
X10744D01*
X10784Y4479D01*
X10815Y4510D01*
X10832Y4550D01*
Y4593D01*
X10815Y4633D01*
X10784Y4664D01*
X10744Y4680D01*
D02*
G37*
G36*
X19234Y4912D02*
X19191D01*
X19151Y4896D01*
X19120Y4865D01*
X19104Y4825D01*
Y4781D01*
X19120Y4741D01*
X19151Y4711D01*
Y4659D01*
X19120Y4629D01*
X19104Y4589D01*
Y4545D01*
X19120Y4505D01*
X19151Y4474D01*
X19191Y4458D01*
X19234D01*
X19274Y4474D01*
X19305Y4505D01*
X19322Y4545D01*
Y4589D01*
X19305Y4629D01*
X19274Y4659D01*
Y4711D01*
X19305Y4741D01*
X19322Y4781D01*
Y4825D01*
X19305Y4865D01*
X19274Y4896D01*
X19234Y4912D01*
D02*
G37*
G36*
X18447D02*
X18404D01*
X18363Y4896D01*
X18333Y4865D01*
X18316Y4825D01*
Y4781D01*
X18333Y4741D01*
X18363Y4711D01*
Y4659D01*
X18333Y4629D01*
X18316Y4589D01*
Y4545D01*
X18333Y4505D01*
X18363Y4474D01*
X18404Y4458D01*
X18447D01*
X18487Y4474D01*
X18518Y4505D01*
X18534Y4545D01*
Y4589D01*
X18518Y4629D01*
X18487Y4659D01*
Y4711D01*
X18518Y4741D01*
X18534Y4781D01*
Y4825D01*
X18518Y4865D01*
X18487Y4896D01*
X18447Y4912D01*
D02*
G37*
G36*
X24673Y4666D02*
X24618D01*
X24567Y4645D01*
X24528Y4606D01*
X24507Y4555D01*
Y4500D01*
X24528Y4449D01*
X24567Y4410D01*
X24618Y4389D01*
X24673D01*
X24724Y4410D01*
X24763Y4449D01*
X24784Y4500D01*
Y4555D01*
X24763Y4606D01*
X24724Y4645D01*
X24673Y4666D01*
D02*
G37*
G36*
X9845Y4814D02*
X9801D01*
X9761Y4797D01*
X9730Y4766D01*
X9714Y4726D01*
Y4683D01*
X9685Y4680D01*
X9672D01*
X9632Y4664D01*
X9601Y4633D01*
X9584Y4593D01*
Y4558D01*
X9545D01*
X9505Y4541D01*
X9474Y4511D01*
X9458Y4471D01*
Y4427D01*
X9474Y4387D01*
X9505Y4356D01*
X9545Y4340D01*
X9589D01*
X9629Y4356D01*
X9659Y4387D01*
X9676Y4427D01*
Y4462D01*
X9715D01*
X9755Y4479D01*
X9786Y4509D01*
X9794Y4530D01*
X9848D01*
X9857Y4509D01*
X9888Y4479D01*
X9928Y4462D01*
X9970D01*
Y4427D01*
X9986Y4387D01*
X10017Y4356D01*
X10057Y4340D01*
X10100D01*
X10141Y4356D01*
X10171Y4387D01*
X10188Y4427D01*
Y4471D01*
X10171Y4511D01*
X10141Y4541D01*
X10100Y4558D01*
X10058D01*
Y4593D01*
X10042Y4633D01*
X10011Y4664D01*
X9971Y4680D01*
X9955D01*
X9932Y4683D01*
Y4726D01*
X9915Y4766D01*
X9885Y4797D01*
X9845Y4814D01*
D02*
G37*
G36*
X25401Y5348D02*
X25346D01*
X25295Y5327D01*
X25256Y5288D01*
X25235Y5237D01*
Y5182D01*
X25256Y5131D01*
X25295Y5092D01*
X25297Y5091D01*
X25316Y5039D01*
X25314Y5034D01*
X25294Y4988D01*
Y4933D01*
X25316Y4882D01*
X25337Y4861D01*
X25330Y4804D01*
X25329Y4803D01*
X25312Y4796D01*
X25273Y4757D01*
X25251Y4706D01*
Y4651D01*
X25273Y4600D01*
X25312Y4561D01*
X25313Y4560D01*
X25318Y4551D01*
X25321Y4503D01*
X25295Y4477D01*
X25274Y4426D01*
Y4371D01*
X25279Y4358D01*
X25237Y4329D01*
X25236Y4330D01*
X25185Y4351D01*
X25130D01*
X25079Y4330D01*
X25040Y4291D01*
X25019Y4240D01*
Y4185D01*
X25040Y4134D01*
X25079Y4095D01*
X25130Y4074D01*
X25185D01*
X25200Y4080D01*
X25241Y4087D01*
X25260Y4055D01*
X25268Y4037D01*
X25307Y3998D01*
X25358Y3976D01*
X25413D01*
X25464Y3998D01*
X25503Y4037D01*
X25524Y4087D01*
Y4143D01*
X25503Y4194D01*
X25476Y4220D01*
X25479Y4267D01*
X25484Y4278D01*
X25491Y4281D01*
X25530Y4320D01*
X25551Y4371D01*
Y4426D01*
X25530Y4477D01*
X25491Y4516D01*
X25489Y4516D01*
X25485Y4526D01*
X25481Y4574D01*
X25507Y4600D01*
X25529Y4651D01*
Y4706D01*
X25507Y4757D01*
X25486Y4778D01*
X25493Y4835D01*
X25494Y4836D01*
X25512Y4843D01*
X25551Y4882D01*
X25572Y4933D01*
Y4988D01*
X25551Y5039D01*
X25512Y5078D01*
X25510Y5079D01*
X25491Y5131D01*
X25493Y5136D01*
X25512Y5182D01*
Y5237D01*
X25491Y5288D01*
X25452Y5327D01*
X25401Y5348D01*
D02*
G37*
G36*
X4667Y4322D02*
X4624D01*
X4587Y4306D01*
X4549Y4322D01*
X4506D01*
X4466Y4305D01*
X4435Y4274D01*
X4419Y4234D01*
Y4191D01*
X4434Y4154D01*
X4419Y4116D01*
Y4073D01*
X4435Y4033D01*
X4466Y4002D01*
X4506Y3985D01*
X4549D01*
X4587Y4001D01*
X4624Y3985D01*
X4667D01*
X4707Y4002D01*
X4738Y4033D01*
X4755Y4073D01*
Y4116D01*
X4739Y4154D01*
X4755Y4191D01*
Y4234D01*
X4738Y4274D01*
X4707Y4305D01*
X4667Y4322D01*
D02*
G37*
G36*
X15472Y4759D02*
X15428D01*
X15388Y4742D01*
X15358Y4712D01*
X15341Y4672D01*
Y4628D01*
X15358Y4588D01*
X15333Y4542D01*
X15332Y4541D01*
X15301Y4511D01*
X15285Y4470D01*
Y4427D01*
X15301Y4387D01*
X15332Y4356D01*
X15372Y4340D01*
X15415D01*
X15442Y4322D01*
Y4309D01*
X15459Y4269D01*
X15489Y4238D01*
X15529Y4222D01*
X15573D01*
X15613Y4238D01*
X15644Y4269D01*
X15660Y4309D01*
Y4352D01*
X15644Y4392D01*
X15613Y4423D01*
X15573Y4440D01*
X15529D01*
X15503Y4458D01*
Y4470D01*
X15486Y4511D01*
X15510Y4557D01*
X15512Y4558D01*
X15542Y4588D01*
X15559Y4628D01*
Y4672D01*
X15542Y4712D01*
X15512Y4742D01*
X15472Y4759D01*
D02*
G37*
G36*
X11510Y4687D02*
X11466D01*
X11426Y4671D01*
X11395Y4640D01*
X11379Y4600D01*
Y4557D01*
X11395Y4517D01*
X11426Y4486D01*
X11447Y4477D01*
Y4423D01*
X11426Y4415D01*
X11395Y4384D01*
X11379Y4344D01*
Y4301D01*
X11395Y4261D01*
X11419Y4237D01*
X11420Y4198D01*
X11416Y4180D01*
X11390Y4153D01*
X11383Y4137D01*
X11347Y4137D01*
X11331Y4142D01*
X11316Y4178D01*
X11286Y4208D01*
X11246Y4225D01*
X11202D01*
X11162Y4208D01*
X11131Y4178D01*
X11115Y4138D01*
Y4094D01*
X11131Y4054D01*
X11162Y4023D01*
X11202Y4007D01*
X11246D01*
X11286Y4023D01*
X11316Y4054D01*
X11323Y4070D01*
X11359Y4070D01*
X11375Y4065D01*
X11390Y4030D01*
X11420Y3999D01*
X11461Y3983D01*
X11504D01*
X11544Y3999D01*
X11575Y4030D01*
X11581Y4045D01*
X11635D01*
X11641Y4030D01*
X11671Y4000D01*
X11711Y3983D01*
X11755D01*
X11795Y4000D01*
X11826Y4030D01*
X11842Y4070D01*
Y4114D01*
X11826Y4154D01*
X11807Y4173D01*
X11806Y4217D01*
X11811Y4232D01*
X11836Y4257D01*
X11845Y4278D01*
X11899D01*
X11907Y4257D01*
X11938Y4227D01*
X11978Y4210D01*
X12021D01*
X12061Y4227D01*
X12092Y4257D01*
X12109Y4297D01*
Y4341D01*
X12092Y4381D01*
X12061Y4412D01*
X12041Y4420D01*
Y4474D01*
X12061Y4483D01*
X12092Y4513D01*
X12109Y4553D01*
Y4597D01*
X12092Y4637D01*
X12061Y4667D01*
X12021Y4684D01*
X11978D01*
X11938Y4667D01*
X11907Y4637D01*
X11899Y4616D01*
X11845D01*
X11836Y4637D01*
X11805Y4667D01*
X11765Y4684D01*
X11722D01*
X11682Y4667D01*
X11651Y4637D01*
X11643Y4617D01*
X11589Y4618D01*
X11580Y4640D01*
X11550Y4671D01*
X11510Y4687D01*
D02*
G37*
G36*
X19234Y4204D02*
X19191D01*
X19151Y4187D01*
X19120Y4156D01*
X19104Y4116D01*
Y4073D01*
X19120Y4033D01*
X19151Y4002D01*
X19191Y3985D01*
X19234D01*
X19274Y4002D01*
X19305Y4033D01*
X19322Y4073D01*
Y4116D01*
X19305Y4156D01*
X19274Y4187D01*
X19234Y4204D01*
D02*
G37*
G36*
X18841Y4440D02*
X18797D01*
X18757Y4423D01*
X18726Y4392D01*
X18710Y4352D01*
Y4309D01*
X18726Y4269D01*
X18757Y4238D01*
Y4187D01*
X18726Y4156D01*
X18710Y4116D01*
Y4073D01*
X18726Y4033D01*
X18757Y4002D01*
X18797Y3985D01*
X18841D01*
X18881Y4002D01*
X18911Y4033D01*
X18928Y4073D01*
Y4116D01*
X18911Y4156D01*
X18881Y4187D01*
Y4238D01*
X18911Y4269D01*
X18928Y4309D01*
Y4352D01*
X18911Y4392D01*
X18881Y4423D01*
X18841Y4440D01*
D02*
G37*
G36*
X18447Y4204D02*
X18404D01*
X18363Y4187D01*
X18333Y4156D01*
X18316Y4116D01*
Y4073D01*
X18333Y4033D01*
X18363Y4002D01*
X18404Y3985D01*
X18447D01*
X18487Y4002D01*
X18518Y4033D01*
X18534Y4073D01*
Y4116D01*
X18518Y4156D01*
X18487Y4187D01*
X18447Y4204D01*
D02*
G37*
G36*
X18053Y4440D02*
X18010D01*
X17970Y4423D01*
X17939Y4392D01*
X17922Y4352D01*
Y4309D01*
X17939Y4269D01*
X17970Y4238D01*
Y4187D01*
X17939Y4156D01*
X17922Y4116D01*
Y4073D01*
X17939Y4033D01*
X17970Y4002D01*
X18010Y3985D01*
X18053D01*
X18093Y4002D01*
X18124Y4033D01*
X18141Y4073D01*
Y4116D01*
X18124Y4156D01*
X18093Y4187D01*
Y4238D01*
X18124Y4269D01*
X18141Y4309D01*
Y4352D01*
X18124Y4392D01*
X18093Y4423D01*
X18053Y4440D01*
D02*
G37*
G36*
X17659D02*
X17616D01*
X17576Y4423D01*
X17545Y4392D01*
X17529Y4352D01*
Y4309D01*
X17545Y4269D01*
X17576Y4238D01*
Y4187D01*
X17545Y4156D01*
X17529Y4116D01*
Y4073D01*
X17545Y4033D01*
X17576Y4002D01*
X17616Y3985D01*
X17659D01*
X17700Y4002D01*
X17730Y4033D01*
X17747Y4073D01*
Y4116D01*
X17730Y4156D01*
X17700Y4187D01*
Y4238D01*
X17730Y4269D01*
X17747Y4309D01*
Y4352D01*
X17730Y4392D01*
X17700Y4423D01*
X17659Y4440D01*
D02*
G37*
G36*
X17266Y4912D02*
X17222D01*
X17182Y4896D01*
X17152Y4865D01*
X17135Y4825D01*
Y4781D01*
X17152Y4741D01*
X17182Y4711D01*
Y4659D01*
X17152Y4629D01*
X17135Y4589D01*
Y4545D01*
X17152Y4505D01*
X17182Y4474D01*
Y4423D01*
X17152Y4392D01*
X17135Y4352D01*
Y4309D01*
X17152Y4269D01*
X17182Y4238D01*
Y4187D01*
X17152Y4156D01*
X17135Y4116D01*
Y4073D01*
X17152Y4033D01*
X17182Y4002D01*
X17222Y3985D01*
X17266D01*
X17306Y4002D01*
X17337Y4033D01*
X17353Y4073D01*
Y4116D01*
X17337Y4156D01*
X17306Y4187D01*
Y4238D01*
X17337Y4269D01*
X17353Y4309D01*
Y4352D01*
X17337Y4392D01*
X17306Y4423D01*
Y4474D01*
X17337Y4505D01*
X17353Y4545D01*
Y4589D01*
X17337Y4629D01*
X17306Y4659D01*
Y4711D01*
X17337Y4741D01*
X17353Y4781D01*
Y4825D01*
X17337Y4865D01*
X17306Y4896D01*
X17266Y4912D01*
D02*
G37*
G36*
X19514Y4177D02*
X19471D01*
X19431Y4160D01*
X19400Y4129D01*
X19384Y4089D01*
Y4046D01*
X19400Y4006D01*
X19431Y3975D01*
X19471Y3959D01*
X19514D01*
X19554Y3975D01*
X19585Y4006D01*
X19602Y4046D01*
Y4089D01*
X19585Y4129D01*
X19554Y4160D01*
X19514Y4177D01*
D02*
G37*
G36*
X16833Y4322D02*
X16789D01*
X16749Y4305D01*
X16719Y4274D01*
X16702Y4234D01*
Y4191D01*
X16719Y4151D01*
X16723Y4147D01*
X16745Y4114D01*
X16723Y4081D01*
X16719Y4078D01*
X16702Y4037D01*
Y3994D01*
X16719Y3954D01*
X16749Y3923D01*
X16789Y3907D01*
X16833D01*
X16873Y3923D01*
X16903Y3954D01*
X16920Y3994D01*
Y4037D01*
X16903Y4078D01*
X16899Y4081D01*
X16877Y4114D01*
X16899Y4147D01*
X16903Y4151D01*
X16920Y4191D01*
Y4234D01*
X16903Y4274D01*
X16873Y4305D01*
X16833Y4322D01*
D02*
G37*
G36*
X16360Y4518D02*
X16317D01*
X16277Y4502D01*
X16246Y4471D01*
X16230Y4431D01*
Y4388D01*
X16246Y4348D01*
X16250Y4344D01*
X16273Y4311D01*
X16250Y4278D01*
X16246Y4274D01*
X16230Y4234D01*
Y4191D01*
X16246Y4151D01*
X16250Y4147D01*
X16273Y4114D01*
X16250Y4081D01*
X16246Y4078D01*
X16230Y4037D01*
Y3994D01*
X16246Y3954D01*
X16277Y3923D01*
X16317Y3907D01*
X16360D01*
X16400Y3923D01*
X16431Y3954D01*
X16448Y3994D01*
Y4037D01*
X16431Y4078D01*
X16427Y4081D01*
X16404Y4114D01*
X16427Y4147D01*
X16431Y4151D01*
X16448Y4191D01*
Y4234D01*
X16431Y4274D01*
X16427Y4278D01*
X16404Y4311D01*
X16427Y4344D01*
X16431Y4348D01*
X16448Y4388D01*
Y4431D01*
X16431Y4471D01*
X16400Y4502D01*
X16360Y4518D01*
D02*
G37*
G36*
X21179Y4521D02*
X21124D01*
X21073Y4500D01*
X21034Y4461D01*
X21013Y4410D01*
Y4355D01*
X21034Y4304D01*
X21073Y4265D01*
X21124Y4244D01*
X21179D01*
X21230Y4265D01*
X21249Y4284D01*
X21288Y4294D01*
X21313Y4282D01*
X21337Y4258D01*
X21388Y4237D01*
X21443D01*
X21494Y4258D01*
X21533Y4297D01*
X21573Y4272D01*
X21560Y4240D01*
Y4184D01*
X21581Y4133D01*
X21620Y4094D01*
X21671Y4073D01*
X21726D01*
X21726Y4073D01*
X21764Y4035D01*
X21751Y4004D01*
Y3949D01*
X21772Y3900D01*
X21772Y3898D01*
X21767Y3870D01*
X21753Y3846D01*
X21745Y3845D01*
X21739Y3851D01*
X21732Y3858D01*
X21681Y3879D01*
X21626D01*
X21575Y3858D01*
X21536Y3819D01*
X21515Y3768D01*
Y3713D01*
X21536Y3662D01*
X21543Y3655D01*
X21574Y3622D01*
X21543Y3589D01*
X21536Y3582D01*
X21515Y3532D01*
Y3476D01*
X21536Y3425D01*
X21575Y3386D01*
X21626Y3365D01*
X21681D01*
X21732Y3386D01*
X21739Y3393D01*
X21772Y3425D01*
X21804Y3393D01*
X21811Y3386D01*
X21862Y3365D01*
X21917D01*
X21968Y3386D01*
X21975Y3393D01*
X22008Y3425D01*
X22041Y3393D01*
X22047Y3386D01*
X22098Y3365D01*
X22154D01*
X22204Y3386D01*
X22211Y3393D01*
X22244Y3425D01*
X22277Y3393D01*
X22284Y3386D01*
X22335Y3365D01*
X22390D01*
X22441Y3386D01*
X22480Y3425D01*
X22501Y3476D01*
Y3532D01*
X22480Y3582D01*
X22473Y3589D01*
X22441Y3622D01*
X22473Y3655D01*
X22480Y3662D01*
X22501Y3713D01*
Y3768D01*
X22480Y3819D01*
X22441Y3858D01*
X22390Y3879D01*
X22335D01*
X22284Y3858D01*
X22277Y3851D01*
X22244Y3819D01*
X22211Y3851D01*
X22204Y3858D01*
X22154Y3879D01*
X22098D01*
X22047Y3858D01*
X22014Y3864D01*
X22014Y3864D01*
X22014Y3865D01*
X22007Y3898D01*
X22028Y3949D01*
Y4004D01*
X22007Y4055D01*
X21968Y4094D01*
X21917Y4115D01*
X21862D01*
X21862Y4115D01*
X21824Y4153D01*
X21837Y4184D01*
Y4240D01*
X21816Y4290D01*
X21777Y4329D01*
X21726Y4351D01*
X21671D01*
X21620Y4329D01*
X21581Y4290D01*
X21541Y4316D01*
X21554Y4348D01*
Y4403D01*
X21533Y4454D01*
X21494Y4493D01*
X21443Y4514D01*
X21388D01*
X21337Y4493D01*
X21318Y4474D01*
X21279Y4463D01*
X21254Y4476D01*
X21230Y4500D01*
X21179Y4521D01*
D02*
G37*
G36*
X25362Y3783D02*
X25307D01*
X25256Y3761D01*
X25241Y3746D01*
X25208Y3727D01*
X25175Y3746D01*
X25160Y3761D01*
X25109Y3783D01*
X25054D01*
X25003Y3761D01*
X24964Y3722D01*
X24943Y3671D01*
Y3616D01*
X24964Y3565D01*
X25003Y3526D01*
X25054Y3505D01*
X25109D01*
X25160Y3526D01*
X25175Y3541D01*
X25208Y3560D01*
X25241Y3541D01*
X25256Y3526D01*
X25307Y3505D01*
X25362D01*
X25413Y3526D01*
X25430Y3544D01*
X25469Y3556D01*
X25494Y3543D01*
X25517Y3520D01*
X25568Y3499D01*
X25623D01*
X25674Y3520D01*
X25713Y3559D01*
X25734Y3610D01*
Y3665D01*
X25713Y3716D01*
X25674Y3755D01*
X25623Y3776D01*
X25568D01*
X25517Y3755D01*
X25499Y3738D01*
X25460Y3725D01*
X25435Y3739D01*
X25413Y3761D01*
X25362Y3783D01*
D02*
G37*
G36*
X23765Y3941D02*
X23710D01*
X23659Y3920D01*
X23620Y3881D01*
X23599Y3830D01*
Y3775D01*
X23620Y3724D01*
X23659Y3685D01*
X23710Y3664D01*
X23765D01*
X23816Y3685D01*
X23816Y3685D01*
X23854Y3701D01*
X23893Y3662D01*
X23944Y3641D01*
X23999D01*
X24050Y3662D01*
X24089Y3701D01*
X24110Y3752D01*
Y3807D01*
X24089Y3858D01*
X24050Y3897D01*
X23999Y3918D01*
X23944D01*
X23893Y3897D01*
X23893Y3897D01*
X23855Y3881D01*
X23816Y3920D01*
X23765Y3941D01*
D02*
G37*
G36*
X3622Y3859D02*
X3578D01*
X3538Y3842D01*
X3508Y3812D01*
X3491Y3772D01*
Y3728D01*
X3508Y3688D01*
X3538Y3658D01*
X3578Y3641D01*
X3622D01*
X3662Y3658D01*
X3692Y3688D01*
X3709Y3728D01*
Y3772D01*
X3692Y3812D01*
X3662Y3842D01*
X3622Y3859D01*
D02*
G37*
G36*
X3272D02*
X3228D01*
X3188Y3842D01*
X3158Y3812D01*
X3141Y3772D01*
Y3728D01*
X3158Y3688D01*
X3188Y3658D01*
X3228Y3641D01*
X3272D01*
X3312Y3658D01*
X3342Y3688D01*
X3359Y3728D01*
Y3772D01*
X3342Y3812D01*
X3312Y3842D01*
X3272Y3859D01*
D02*
G37*
G36*
X25972Y3879D02*
X25917D01*
X25866Y3858D01*
X25827Y3819D01*
X25806Y3768D01*
Y3713D01*
X25827Y3662D01*
X25866Y3623D01*
X25917Y3602D01*
X25972D01*
X26023Y3623D01*
X26062Y3662D01*
X26083Y3713D01*
Y3768D01*
X26062Y3819D01*
X26023Y3858D01*
X25972Y3879D01*
D02*
G37*
G36*
X16163Y3770D02*
X16120D01*
X16080Y3754D01*
X16049Y3723D01*
X16033Y3683D01*
Y3640D01*
X16049Y3600D01*
X16080Y3569D01*
X16120Y3552D01*
X16163D01*
X16204Y3569D01*
X16234Y3600D01*
X16251Y3640D01*
Y3683D01*
X16234Y3723D01*
X16204Y3754D01*
X16163Y3770D01*
D02*
G37*
G36*
X15848D02*
X15805D01*
X15765Y3754D01*
X15734Y3723D01*
X15718Y3683D01*
Y3640D01*
X15734Y3600D01*
X15765Y3569D01*
X15805Y3552D01*
X15848D01*
X15889Y3569D01*
X15919Y3600D01*
X15936Y3640D01*
Y3683D01*
X15919Y3723D01*
X15889Y3754D01*
X15848Y3770D01*
D02*
G37*
G36*
X15533D02*
X15490D01*
X15450Y3754D01*
X15419Y3723D01*
X15403Y3683D01*
Y3640D01*
X15419Y3600D01*
X15450Y3569D01*
X15490Y3552D01*
X15533D01*
X15574Y3569D01*
X15604Y3600D01*
X15621Y3640D01*
Y3683D01*
X15604Y3723D01*
X15574Y3754D01*
X15533Y3770D01*
D02*
G37*
G36*
X15061Y3928D02*
X15018D01*
X14978Y3911D01*
X14947Y3881D01*
X14930Y3841D01*
Y3797D01*
X14947Y3757D01*
X14978Y3726D01*
X15018Y3710D01*
X15045D01*
X15071Y3693D01*
X15088Y3667D01*
Y3640D01*
X15104Y3600D01*
X15135Y3569D01*
X15175Y3552D01*
X15219D01*
X15259Y3569D01*
X15289Y3600D01*
X15306Y3640D01*
Y3683D01*
X15289Y3723D01*
X15259Y3754D01*
X15219Y3770D01*
X15191D01*
X15165Y3787D01*
X15148Y3814D01*
Y3841D01*
X15132Y3881D01*
X15101Y3911D01*
X15061Y3928D01*
D02*
G37*
G36*
X24467Y3978D02*
X24412D01*
X24361Y3957D01*
X24322Y3918D01*
X24301Y3867D01*
Y3812D01*
X24322Y3761D01*
X24361Y3722D01*
X24391Y3710D01*
Y3655D01*
X24371Y3647D01*
X24332Y3608D01*
X24311Y3557D01*
Y3502D01*
X24332Y3451D01*
X24371Y3412D01*
X24422Y3391D01*
X24477D01*
X24528Y3412D01*
X24549Y3433D01*
X24572Y3410D01*
X24623Y3389D01*
X24678D01*
X24729Y3410D01*
X24768Y3449D01*
X24789Y3500D01*
Y3556D01*
X24768Y3606D01*
X24729Y3645D01*
X24678Y3667D01*
X24623D01*
X24572Y3645D01*
X24551Y3624D01*
X24528Y3647D01*
X24499Y3660D01*
Y3714D01*
X24518Y3722D01*
X24557Y3761D01*
X24578Y3812D01*
Y3867D01*
X24557Y3918D01*
X24518Y3957D01*
X24467Y3978D01*
D02*
G37*
G36*
X23217Y3524D02*
X23161D01*
X23110Y3503D01*
X23071Y3464D01*
X23050Y3413D01*
Y3358D01*
X23071Y3307D01*
X23110Y3268D01*
X23161Y3247D01*
X23217D01*
X23267Y3268D01*
X23306Y3307D01*
X23328Y3358D01*
Y3413D01*
X23306Y3464D01*
X23267Y3503D01*
X23217Y3524D01*
D02*
G37*
G36*
X16172Y3459D02*
X16128D01*
X16088Y3442D01*
X16058Y3412D01*
X16041Y3372D01*
Y3328D01*
X16058Y3288D01*
X16088Y3258D01*
X16128Y3241D01*
X16172D01*
X16212Y3258D01*
X16242Y3288D01*
X16259Y3328D01*
Y3372D01*
X16242Y3412D01*
X16212Y3442D01*
X16172Y3459D01*
D02*
G37*
G36*
X15533Y3456D02*
X15490D01*
X15450Y3439D01*
X15419Y3408D01*
X15403Y3368D01*
Y3325D01*
X15419Y3285D01*
X15450Y3254D01*
X15490Y3237D01*
X15533D01*
X15574Y3254D01*
X15604Y3285D01*
X15621Y3325D01*
Y3368D01*
X15604Y3408D01*
X15574Y3439D01*
X15533Y3456D01*
D02*
G37*
G36*
X16470Y3455D02*
X16427D01*
X16387Y3438D01*
X16356Y3408D01*
X16339Y3368D01*
Y3324D01*
X16356Y3284D01*
X16387Y3253D01*
X16427Y3237D01*
X16470D01*
X16510Y3253D01*
X16541Y3284D01*
X16557Y3324D01*
Y3368D01*
X16541Y3408D01*
X16510Y3438D01*
X16470Y3455D01*
D02*
G37*
G36*
X18526Y3298D02*
X18482D01*
X18442Y3281D01*
X18411Y3251D01*
X18395Y3211D01*
Y3167D01*
X18411Y3127D01*
X18442Y3097D01*
X18482Y3080D01*
X18526D01*
X18566Y3097D01*
X18596Y3127D01*
X18613Y3167D01*
Y3211D01*
X18596Y3251D01*
X18566Y3281D01*
X18526Y3298D01*
D02*
G37*
G36*
X15848Y3456D02*
X15805D01*
X15765Y3439D01*
X15734Y3408D01*
X15718Y3368D01*
Y3325D01*
X15734Y3285D01*
X15765Y3254D01*
X15792Y3243D01*
X15798Y3196D01*
X15797Y3191D01*
X15775Y3181D01*
X15745Y3151D01*
X15728Y3111D01*
Y3070D01*
X15721Y3063D01*
X15684Y3043D01*
X15669Y3058D01*
X15629Y3075D01*
X15586D01*
X15545Y3058D01*
X15515Y3028D01*
X15512Y3020D01*
X15476Y3013D01*
X15436Y3030D01*
X15392D01*
X15352Y3013D01*
X15322Y2983D01*
X15305Y2942D01*
Y2899D01*
X15322Y2859D01*
X15352Y2828D01*
X15392Y2812D01*
X15436D01*
X15476Y2828D01*
X15506Y2859D01*
X15509Y2866D01*
X15545Y2873D01*
X15586Y2857D01*
X15629D01*
X15669Y2873D01*
X15700Y2904D01*
X15716Y2944D01*
Y2985D01*
X15724Y2991D01*
X15761Y3011D01*
X15775Y2997D01*
X15815Y2980D01*
X15859D01*
X15899Y2997D01*
X15929Y3027D01*
X15946Y3067D01*
Y3111D01*
X15929Y3151D01*
X15899Y3181D01*
X15871Y3193D01*
X15866Y3240D01*
X15866Y3245D01*
X15889Y3254D01*
X15919Y3285D01*
X15936Y3325D01*
Y3368D01*
X15919Y3408D01*
X15889Y3439D01*
X15848Y3456D01*
D02*
G37*
G36*
X17138Y3066D02*
X17095D01*
X17055Y3049D01*
X17024Y3019D01*
X17008Y2978D01*
Y2935D01*
X17024Y2895D01*
X17055Y2864D01*
X17095Y2848D01*
X17138D01*
X17179Y2864D01*
X17209Y2895D01*
X17226Y2935D01*
Y2978D01*
X17209Y3019D01*
X17179Y3049D01*
X17138Y3066D01*
D02*
G37*
G36*
X17761Y3056D02*
X17717D01*
X17677Y3039D01*
X17646Y3008D01*
X17630Y2968D01*
Y2925D01*
X17646Y2885D01*
X17677Y2854D01*
X17717Y2838D01*
X17761D01*
X17801Y2854D01*
X17831Y2885D01*
X17848Y2925D01*
Y2968D01*
X17831Y3008D01*
X17801Y3039D01*
X17761Y3056D01*
D02*
G37*
G36*
X14515Y3057D02*
X14471D01*
X14431Y3041D01*
X14401Y3010D01*
X14384Y2970D01*
Y2926D01*
X14401Y2886D01*
X14431Y2856D01*
X14471Y2839D01*
X14515D01*
X14555Y2856D01*
X14567Y2867D01*
X14581Y2853D01*
X14621Y2837D01*
X14664D01*
X14704Y2853D01*
X14734Y2883D01*
X14765Y2853D01*
X14805Y2836D01*
X14848D01*
X14888Y2853D01*
X14898Y2862D01*
X14907Y2853D01*
X14947Y2836D01*
X14991D01*
X15031Y2853D01*
X15046Y2868D01*
X15062Y2853D01*
X15102Y2836D01*
X15145D01*
X15185Y2853D01*
X15216Y2884D01*
X15232Y2924D01*
Y2967D01*
X15216Y3007D01*
X15185Y3038D01*
X15145Y3054D01*
X15102D01*
X15062Y3038D01*
X15046Y3022D01*
X15031Y3038D01*
X14991Y3054D01*
X14947D01*
X14907Y3038D01*
X14898Y3028D01*
X14888Y3038D01*
X14848Y3054D01*
X14805D01*
X14765Y3038D01*
X14735Y3008D01*
X14704Y3038D01*
X14664Y3055D01*
X14621D01*
X14581Y3038D01*
X14569Y3027D01*
X14555Y3041D01*
X14515Y3057D01*
D02*
G37*
G36*
X11439Y3024D02*
X11396D01*
X11356Y3008D01*
X11325Y2977D01*
X11308Y2937D01*
Y2894D01*
X11325Y2853D01*
X11356Y2823D01*
X11396Y2806D01*
X11439D01*
X11479Y2823D01*
X11510Y2853D01*
X11526Y2894D01*
Y2937D01*
X11510Y2977D01*
X11479Y3008D01*
X11439Y3024D01*
D02*
G37*
G36*
X11882Y2819D02*
X11838D01*
X11798Y2803D01*
X11768Y2772D01*
X11751Y2732D01*
Y2689D01*
X11768Y2649D01*
X11798Y2618D01*
X11838Y2601D01*
X11882D01*
X11922Y2618D01*
X11949Y2645D01*
X11949Y2645D01*
X11980Y2614D01*
X12020Y2598D01*
X12064D01*
X12104Y2614D01*
X12134Y2645D01*
X12151Y2685D01*
Y2729D01*
X12134Y2769D01*
X12104Y2799D01*
X12064Y2816D01*
X12020D01*
X11980Y2799D01*
X11953Y2772D01*
X11953Y2772D01*
X11922Y2803D01*
X11882Y2819D01*
D02*
G37*
G36*
X13136Y2498D02*
X13092D01*
X13052Y2482D01*
X13022Y2451D01*
X12991Y2482D01*
X12951Y2498D01*
X12908D01*
X12868Y2482D01*
X12840Y2454D01*
X12812Y2482D01*
X12772Y2498D01*
X12728D01*
X12688Y2482D01*
X12656Y2452D01*
X12624Y2482D01*
X12584Y2498D01*
X12540D01*
X12500Y2482D01*
X12470Y2452D01*
X12440Y2482D01*
X12400Y2498D01*
X12357D01*
X12317Y2482D01*
X12286Y2451D01*
X12256Y2482D01*
X12216Y2498D01*
X12172D01*
X12132Y2482D01*
X12101Y2451D01*
X12085Y2411D01*
Y2368D01*
X12101Y2327D01*
X12132Y2297D01*
X12172Y2280D01*
X12216D01*
X12256Y2297D01*
X12286Y2327D01*
X12317Y2297D01*
X12357Y2280D01*
X12400D01*
X12440Y2297D01*
X12470Y2327D01*
X12500Y2297D01*
X12540Y2280D01*
X12584D01*
X12624Y2297D01*
X12656Y2326D01*
X12688Y2297D01*
X12728Y2280D01*
X12772D01*
X12812Y2297D01*
X12840Y2325D01*
X12868Y2297D01*
X12908Y2280D01*
X12951D01*
X12991Y2297D01*
X13022Y2327D01*
X13052Y2297D01*
X13092Y2280D01*
X13136D01*
X13176Y2297D01*
X13206Y2327D01*
X13223Y2368D01*
Y2411D01*
X13206Y2451D01*
X13176Y2482D01*
X13136Y2498D01*
D02*
G37*
G36*
X25094Y2688D02*
X25039D01*
X24988Y2666D01*
X24949Y2627D01*
X24928Y2576D01*
Y2521D01*
X24949Y2470D01*
X24988Y2431D01*
X25039Y2410D01*
X25094D01*
X25145Y2431D01*
X25184Y2470D01*
X25205Y2521D01*
Y2576D01*
X25184Y2627D01*
X25145Y2666D01*
X25094Y2688D01*
D02*
G37*
G36*
X23854Y2596D02*
X23799D01*
X23748Y2575D01*
X23709Y2536D01*
X23688Y2485D01*
Y2430D01*
X23709Y2379D01*
X23748Y2340D01*
X23799Y2319D01*
X23854D01*
X23905Y2340D01*
X23944Y2379D01*
X23965Y2430D01*
Y2485D01*
X23944Y2536D01*
X23905Y2575D01*
X23854Y2596D01*
D02*
G37*
G36*
X10287Y2154D02*
X10244D01*
X10204Y2137D01*
X10175Y2108D01*
X10146Y2137D01*
X10106Y2154D01*
X10062D01*
X10022Y2137D01*
X10017Y2132D01*
X9985Y2111D01*
X9952Y2132D01*
X9947Y2137D01*
X9907Y2154D01*
X9864D01*
X9824Y2137D01*
X9795Y2108D01*
X9766Y2137D01*
X9726Y2154D01*
X9683D01*
X9643Y2137D01*
X9621Y2115D01*
X9598Y2137D01*
X9558Y2154D01*
X9515D01*
X9475Y2137D01*
X9452Y2114D01*
X9430Y2137D01*
X9390Y2154D01*
X9346D01*
X9306Y2137D01*
X9282Y2113D01*
X9258Y2137D01*
X9218Y2154D01*
X9175D01*
X9135Y2137D01*
X9112Y2115D01*
X9090Y2137D01*
X9050Y2154D01*
X9006D01*
X8966Y2137D01*
X8944Y2114D01*
X8921Y2137D01*
X8881Y2154D01*
X8837D01*
X8797Y2137D01*
X8766Y2107D01*
X8735Y2137D01*
X8694Y2154D01*
X8651D01*
X8611Y2137D01*
X8588Y2114D01*
X8565Y2137D01*
X8525Y2154D01*
X8481D01*
X8441Y2137D01*
X8410Y2106D01*
X8394Y2066D01*
Y2023D01*
X8410Y1983D01*
X8441Y1952D01*
X8481Y1935D01*
X8525D01*
X8565Y1952D01*
X8588Y1975D01*
X8611Y1952D01*
X8651Y1935D01*
X8694D01*
X8735Y1952D01*
X8766Y1982D01*
X8797Y1952D01*
X8837Y1935D01*
X8881D01*
X8921Y1952D01*
X8944Y1975D01*
X8966Y1952D01*
X9006Y1935D01*
X9050D01*
X9090Y1952D01*
X9112Y1974D01*
X9135Y1952D01*
X9175Y1935D01*
X9218D01*
X9258Y1952D01*
X9282Y1976D01*
X9306Y1952D01*
X9346Y1935D01*
X9390D01*
X9430Y1952D01*
X9452Y1975D01*
X9475Y1952D01*
X9515Y1935D01*
X9558D01*
X9598Y1952D01*
X9621Y1974D01*
X9643Y1952D01*
X9683Y1935D01*
X9726D01*
X9766Y1952D01*
X9795Y1981D01*
X9824Y1952D01*
X9864Y1935D01*
X9907D01*
X9947Y1952D01*
X9952Y1957D01*
X9985Y1978D01*
X10017Y1957D01*
X10022Y1952D01*
X10062Y1935D01*
X10106D01*
X10146Y1952D01*
X10175Y1981D01*
X10204Y1952D01*
X10244Y1935D01*
X10287D01*
X10327Y1952D01*
X10358Y1983D01*
X10375Y2023D01*
Y2066D01*
X10358Y2106D01*
X10327Y2137D01*
X10287Y2154D01*
D02*
G37*
G36*
X1831Y2548D02*
X1788D01*
X1747Y2532D01*
X1717Y2501D01*
X1700Y2461D01*
Y2417D01*
X1717Y2377D01*
X1747Y2347D01*
X1788Y2330D01*
X1815D01*
X1841Y2314D01*
X1858Y2287D01*
Y2260D01*
X1874Y2220D01*
X1905Y2189D01*
X1945Y2173D01*
X1972D01*
X1999Y2156D01*
X2015Y2130D01*
Y2103D01*
X2032Y2062D01*
X2062Y2032D01*
X2103Y2015D01*
X2146D01*
X2186Y2032D01*
X2217Y2062D01*
X2233Y2103D01*
Y2146D01*
X2217Y2186D01*
X2186Y2217D01*
X2146Y2233D01*
X2119D01*
X2092Y2250D01*
X2076Y2276D01*
Y2303D01*
X2059Y2343D01*
X2029Y2374D01*
X1988Y2391D01*
X1961D01*
X1935Y2407D01*
X1918Y2434D01*
Y2461D01*
X1902Y2501D01*
X1871Y2532D01*
X1831Y2548D01*
D02*
G37*
G36*
X26643Y1995D02*
X26587D01*
X26537Y1974D01*
X26505Y1942D01*
X26473Y1974D01*
X26422Y1995D01*
X26367D01*
X26316Y1974D01*
X26277Y1935D01*
X26256Y1884D01*
Y1829D01*
X26277Y1778D01*
X26278Y1776D01*
X26278Y1706D01*
X26274Y1702D01*
X26252Y1651D01*
Y1596D01*
X26274Y1545D01*
X26312Y1507D01*
X26274Y1468D01*
X26252Y1417D01*
Y1362D01*
X26274Y1311D01*
X26313Y1272D01*
X26363Y1251D01*
X26419D01*
X26470Y1272D01*
X26502Y1304D01*
X26533Y1272D01*
X26584Y1251D01*
X26640D01*
X26690Y1272D01*
X26729Y1311D01*
X26751Y1362D01*
Y1417D01*
X26729Y1468D01*
X26691Y1507D01*
X26729Y1545D01*
X26751Y1596D01*
Y1651D01*
X26729Y1702D01*
X26728Y1703D01*
X26728Y1773D01*
X26733Y1778D01*
X26754Y1829D01*
Y1884D01*
X26733Y1935D01*
X26694Y1974D01*
X26643Y1995D01*
D02*
G37*
G36*
X1360Y2274D02*
X1317D01*
X1277Y2258D01*
X1246Y2227D01*
X1230Y2187D01*
Y2144D01*
X1246Y2104D01*
X1277Y2073D01*
X1317Y2056D01*
X1360D01*
X1365Y2058D01*
X1371Y2054D01*
X1399Y2018D01*
X1387Y1990D01*
Y1947D01*
X1404Y1907D01*
X1434Y1876D01*
X1474Y1859D01*
X1518D01*
X1558Y1876D01*
X1589Y1907D01*
X1605Y1947D01*
Y1990D01*
X1589Y2030D01*
X1558Y2061D01*
X1518Y2078D01*
X1474D01*
X1469Y2076D01*
X1464Y2080D01*
X1436Y2116D01*
X1448Y2144D01*
Y2187D01*
X1431Y2227D01*
X1400Y2258D01*
X1360Y2274D01*
D02*
G37*
G36*
X1004Y1957D02*
X960D01*
X920Y1941D01*
X890Y1910D01*
X873Y1870D01*
Y1826D01*
X890Y1786D01*
X920Y1756D01*
X960Y1739D01*
X1004D01*
X1044Y1756D01*
X1074Y1786D01*
X1091Y1826D01*
Y1870D01*
X1074Y1910D01*
X1044Y1941D01*
X1004Y1957D01*
D02*
G37*
G36*
X16201Y1709D02*
X16157D01*
X16117Y1692D01*
X16112Y1687D01*
X16080Y1666D01*
X16047Y1687D01*
X16042Y1692D01*
X16002Y1709D01*
X15958D01*
X15918Y1692D01*
X15888Y1662D01*
X15871Y1622D01*
Y1578D01*
X15888Y1538D01*
X15918Y1508D01*
X15958Y1491D01*
X16002D01*
X16042Y1508D01*
X16047Y1513D01*
X16080Y1534D01*
X16112Y1513D01*
X16117Y1508D01*
X16157Y1491D01*
X16201D01*
X16241Y1508D01*
X16271Y1538D01*
X16288Y1578D01*
Y1622D01*
X16271Y1662D01*
X16241Y1692D01*
X16201Y1709D01*
D02*
G37*
G36*
X17395D02*
X17352D01*
X17312Y1692D01*
X17307Y1687D01*
X17274Y1666D01*
X17241Y1687D01*
X17236Y1692D01*
X17196Y1709D01*
X17153D01*
X17113Y1692D01*
X17082Y1662D01*
X17066Y1622D01*
Y1578D01*
X17082Y1538D01*
X17113Y1508D01*
X17153Y1491D01*
X17196D01*
X17236Y1508D01*
X17241Y1513D01*
X17274Y1534D01*
X17307Y1513D01*
X17312Y1508D01*
X17352Y1491D01*
X17395D01*
X17435Y1508D01*
X17466Y1538D01*
X17483Y1578D01*
Y1622D01*
X17466Y1662D01*
X17435Y1692D01*
X17395Y1709D01*
D02*
G37*
G36*
X16799D02*
X16755D01*
X16715Y1692D01*
X16710Y1687D01*
X16677Y1666D01*
X16645Y1687D01*
X16640Y1692D01*
X16600Y1709D01*
X16556D01*
X16516Y1692D01*
X16485Y1662D01*
X16469Y1622D01*
Y1578D01*
X16485Y1538D01*
X16516Y1508D01*
X16556Y1491D01*
X16600D01*
X16640Y1508D01*
X16645Y1513D01*
X16677Y1534D01*
X16710Y1513D01*
X16715Y1508D01*
X16755Y1491D01*
X16799D01*
X16839Y1508D01*
X16869Y1538D01*
X16886Y1578D01*
Y1622D01*
X16869Y1662D01*
X16839Y1692D01*
X16799Y1709D01*
D02*
G37*
G36*
X15612D02*
X15569D01*
X15529Y1692D01*
X15525Y1688D01*
X15492Y1666D01*
X15459Y1688D01*
X15455Y1692D01*
X15415Y1709D01*
X15372D01*
X15332Y1692D01*
X15301Y1662D01*
X15285Y1622D01*
Y1578D01*
X15301Y1538D01*
X15332Y1508D01*
X15372Y1491D01*
X15415D01*
X15455Y1508D01*
X15459Y1512D01*
X15492Y1534D01*
X15525Y1512D01*
X15529Y1508D01*
X15569Y1491D01*
X15612D01*
X15652Y1508D01*
X15683Y1538D01*
X15700Y1578D01*
Y1622D01*
X15683Y1662D01*
X15652Y1692D01*
X15612Y1709D01*
D02*
G37*
G36*
X8486Y1644D02*
X8443D01*
X8403Y1628D01*
X8380Y1605D01*
X8357Y1628D01*
X8316Y1644D01*
X8273D01*
X8233Y1628D01*
X8202Y1597D01*
X8186Y1557D01*
Y1514D01*
X8202Y1474D01*
X8233Y1443D01*
X8273Y1426D01*
X8316D01*
X8357Y1443D01*
X8380Y1466D01*
X8403Y1443D01*
X8443Y1426D01*
X8486D01*
X8526Y1443D01*
X8557Y1474D01*
X8574Y1514D01*
Y1557D01*
X8557Y1597D01*
X8526Y1628D01*
X8486Y1644D01*
D02*
G37*
G36*
X24143Y1760D02*
X24087D01*
X24036Y1739D01*
X23997Y1700D01*
X23976Y1649D01*
Y1594D01*
X23997Y1543D01*
X24004Y1537D01*
X24006Y1515D01*
X23968Y1468D01*
X23950Y1468D01*
X23931Y1487D01*
X23884Y1507D01*
X23833D01*
X23785Y1487D01*
X23760Y1462D01*
X23734Y1487D01*
X23687Y1507D01*
X23636D01*
X23588Y1487D01*
X23552Y1451D01*
X23533Y1404D01*
Y1352D01*
X23552Y1305D01*
X23588Y1269D01*
X23636Y1249D01*
X23687D01*
X23734Y1269D01*
X23760Y1294D01*
X23785Y1269D01*
X23833Y1249D01*
X23884D01*
X23931Y1269D01*
X23957Y1294D01*
X23981Y1303D01*
X24018Y1297D01*
X24043Y1271D01*
X24094Y1250D01*
X24149D01*
X24200Y1271D01*
X24239Y1310D01*
X24260Y1361D01*
Y1417D01*
X24239Y1467D01*
X24200Y1506D01*
X24199Y1510D01*
X24232Y1543D01*
X24254Y1594D01*
Y1649D01*
X24232Y1700D01*
X24193Y1739D01*
X24143Y1760D01*
D02*
G37*
G36*
X22035Y1635D02*
X21980D01*
X21929Y1614D01*
X21890Y1575D01*
X21869Y1524D01*
Y1468D01*
X21890Y1418D01*
X21929Y1379D01*
X21980Y1357D01*
X22035D01*
X22086Y1379D01*
X22125Y1418D01*
X22146Y1468D01*
Y1524D01*
X22125Y1575D01*
X22086Y1614D01*
X22035Y1635D01*
D02*
G37*
G36*
X23020Y1674D02*
X22965D01*
X22914Y1653D01*
X22875Y1614D01*
X22854Y1563D01*
Y1508D01*
X22875Y1457D01*
X22895Y1437D01*
X22875Y1417D01*
X22854Y1366D01*
Y1311D01*
X22875Y1260D01*
X22914Y1221D01*
X22965Y1200D01*
X23020D01*
X23071Y1221D01*
X23110Y1260D01*
X23131Y1311D01*
Y1366D01*
X23112Y1410D01*
X23119Y1424D01*
X23147Y1428D01*
X23175Y1419D01*
X23182Y1402D01*
X23221Y1363D01*
X23272Y1342D01*
X23327D01*
X23378Y1363D01*
X23417Y1402D01*
X23438Y1453D01*
Y1508D01*
X23417Y1559D01*
X23378Y1598D01*
X23327Y1619D01*
X23272D01*
X23221Y1598D01*
X23182Y1559D01*
X23181Y1555D01*
X23134Y1562D01*
X23130Y1564D01*
X23110Y1614D01*
X23071Y1653D01*
X23020Y1674D01*
D02*
G37*
G36*
X24732Y2257D02*
X24677D01*
X24626Y2236D01*
X24587Y2197D01*
X24566Y2146D01*
Y2091D01*
X24587Y2040D01*
X24601Y2026D01*
X24619Y1989D01*
X24601Y1961D01*
X24583Y1943D01*
X24562Y1893D01*
Y1837D01*
X24583Y1786D01*
X24622Y1748D01*
X24583Y1710D01*
X24562Y1659D01*
Y1604D01*
X24583Y1553D01*
X24622Y1515D01*
X24583Y1477D01*
X24562Y1426D01*
Y1371D01*
X24583Y1320D01*
X24622Y1281D01*
X24673Y1260D01*
X24728D01*
X24779Y1281D01*
X24801Y1302D01*
X24824Y1279D01*
X24875Y1258D01*
X24930D01*
X24981Y1279D01*
X25020Y1318D01*
X25041Y1369D01*
Y1424D01*
X25020Y1475D01*
X24982Y1513D01*
X25020Y1551D01*
X25041Y1602D01*
Y1657D01*
X25020Y1708D01*
X24982Y1747D01*
X25020Y1785D01*
X25041Y1836D01*
Y1891D01*
X25020Y1942D01*
X24981Y1981D01*
X24930Y2002D01*
X24875D01*
X24840Y1987D01*
X24812Y2030D01*
X24822Y2040D01*
X24843Y2091D01*
Y2146D01*
X24822Y2197D01*
X24783Y2236D01*
X24732Y2257D01*
D02*
G37*
G36*
X25281Y1999D02*
X25226D01*
X25175Y1978D01*
X25136Y1939D01*
X25115Y1888D01*
Y1833D01*
X25136Y1782D01*
X25174Y1744D01*
X25136Y1706D01*
X25115Y1655D01*
Y1600D01*
X25136Y1549D01*
X25174Y1511D01*
X25136Y1473D01*
X25115Y1422D01*
Y1367D01*
X25136Y1316D01*
X25175Y1277D01*
X25226Y1256D01*
X25281D01*
X25332Y1277D01*
X25354Y1298D01*
X25377Y1275D01*
X25428Y1254D01*
X25483D01*
X25534Y1275D01*
X25573Y1314D01*
X25594Y1365D01*
Y1420D01*
X25573Y1471D01*
X25535Y1509D01*
X25573Y1547D01*
X25594Y1598D01*
Y1653D01*
X25573Y1704D01*
X25535Y1742D01*
X25573Y1781D01*
X25594Y1832D01*
Y1887D01*
X25573Y1938D01*
X25534Y1977D01*
X25483Y1998D01*
X25428D01*
X25377Y1977D01*
X25355Y1955D01*
X25332Y1978D01*
X25281Y1999D01*
D02*
G37*
G36*
X25865Y1995D02*
X25810D01*
X25759Y1974D01*
X25720Y1935D01*
X25699Y1884D01*
Y1829D01*
X25720Y1778D01*
X25758Y1740D01*
X25720Y1702D01*
X25699Y1651D01*
Y1596D01*
X25720Y1545D01*
X25758Y1507D01*
X25720Y1468D01*
X25699Y1418D01*
Y1362D01*
X25720Y1311D01*
X25759Y1272D01*
X25810Y1251D01*
X25865D01*
X25916Y1272D01*
X25938Y1294D01*
X25961Y1271D01*
X26012Y1250D01*
X26067D01*
X26118Y1271D01*
X26157Y1310D01*
X26178Y1361D01*
Y1416D01*
X26157Y1467D01*
X26119Y1505D01*
X26157Y1543D01*
X26178Y1594D01*
Y1649D01*
X26157Y1700D01*
X26119Y1738D01*
X26157Y1776D01*
X26178Y1827D01*
Y1883D01*
X26157Y1933D01*
X26118Y1972D01*
X26067Y1994D01*
X26012D01*
X25961Y1972D01*
X25939Y1951D01*
X25916Y1974D01*
X25865Y1995D01*
D02*
G37*
G36*
X22665Y1674D02*
X22610D01*
X22559Y1653D01*
X22520Y1614D01*
X22499Y1563D01*
Y1508D01*
X22520Y1457D01*
X22539Y1438D01*
X22519Y1418D01*
X22498Y1367D01*
Y1312D01*
X22519Y1261D01*
X22558Y1222D01*
X22609Y1201D01*
X22664D01*
X22715Y1222D01*
X22754Y1261D01*
X22775Y1312D01*
Y1367D01*
X22754Y1418D01*
X22735Y1437D01*
X22755Y1457D01*
X22776Y1508D01*
Y1563D01*
X22755Y1614D01*
X22716Y1653D01*
X22665Y1674D01*
D02*
G37*
%LPD*%
D33*
X22143Y8867D02*
D03*
X21993Y2202D02*
D03*
X22205Y2205D02*
D03*
X21778Y2206D02*
D03*
X20600Y6395D02*
D03*
X26654Y4606D02*
D03*
Y4449D02*
D03*
Y4291D02*
D03*
X26811Y4449D02*
D03*
Y4606D02*
D03*
Y4291D02*
D03*
X26654Y4134D02*
D03*
X26811D02*
D03*
D56*
X26806Y9196D02*
D03*
Y9346D02*
D03*
Y9496D02*
D03*
Y9646D02*
D03*
X7848Y6957D02*
D03*
X15250Y10400D02*
D03*
X15400D02*
D03*
Y10250D02*
D03*
X15550Y10400D02*
D03*
Y10250D02*
D03*
X15700Y10400D02*
D03*
Y10250D02*
D03*
X15250D02*
D03*
X24156Y9983D02*
D03*
Y9833D02*
D03*
X24006D02*
D03*
X24156Y9683D02*
D03*
X24006D02*
D03*
X24156Y9533D02*
D03*
X24006D02*
D03*
Y9983D02*
D03*
X10881Y6999D02*
D03*
X6120Y10634D02*
D03*
X5670D02*
D03*
Y10484D02*
D03*
X5820Y10634D02*
D03*
Y10484D02*
D03*
X5970Y10634D02*
D03*
Y10484D02*
D03*
X6120D02*
D03*
X11Y1390D02*
D03*
Y1240D02*
D03*
Y1090D02*
D03*
Y1540D02*
D03*
X13417Y1318D02*
D03*
X13811Y1322D02*
D03*
X14227Y1322D02*
D03*
X20920Y2246D02*
D03*
Y2096D02*
D03*
Y1946D02*
D03*
Y2396D02*
D03*
X18654Y1529D02*
D03*
X18204D02*
D03*
Y1379D02*
D03*
X18354Y1529D02*
D03*
Y1379D02*
D03*
X18504Y1529D02*
D03*
Y1379D02*
D03*
X18654D02*
D03*
X4052Y3039D02*
D03*
X3602D02*
D03*
Y2889D02*
D03*
X3752Y3039D02*
D03*
Y2889D02*
D03*
X3902Y3039D02*
D03*
Y2889D02*
D03*
X4052D02*
D03*
X1152Y9445D02*
D03*
X1002D02*
D03*
Y9595D02*
D03*
X852Y9445D02*
D03*
Y9595D02*
D03*
X702Y9445D02*
D03*
Y9595D02*
D03*
X7023Y9347D02*
D03*
X14294Y4754D02*
D03*
X19402Y6989D02*
D03*
Y7178D02*
D03*
X14345Y10085D02*
D03*
X15984Y3189D02*
D03*
X14706Y7258D02*
D03*
X10797Y4768D02*
D03*
X11202Y6094D02*
D03*
X11645Y2842D02*
D03*
X2638Y4803D02*
D03*
X17638Y8858D02*
D03*
X4100Y4300D02*
D03*
X17639Y4561D02*
D03*
X16614Y5394D02*
D03*
X7390Y6113D02*
D03*
X9945Y7654D02*
D03*
X9433Y6118D02*
D03*
X10200Y6886D02*
D03*
X9689Y7398D02*
D03*
X10200D02*
D03*
X9945Y6618D02*
D03*
Y7130D02*
D03*
X9689Y6874D02*
D03*
X13700Y3734D02*
D03*
X9950Y4850D02*
D03*
X14528Y7344D02*
D03*
X8330Y1969D02*
D03*
X16614Y9685D02*
D03*
X15526Y5534D02*
D03*
X15150Y4000D02*
D03*
X14100Y5900D02*
D03*
X14409Y8110D02*
D03*
X16339Y4606D02*
D03*
X16763Y3346D02*
D03*
X8677Y4588D02*
D03*
X8799Y8031D02*
D03*
X1152Y9595D02*
D03*
X3858Y6544D02*
D03*
X3707Y6543D02*
D03*
X18819Y4567D02*
D03*
X18031D02*
D03*
X19213Y4331D02*
D03*
X18425D02*
D03*
X16811Y4409D02*
D03*
X15551Y8386D02*
D03*
X15866Y8622D02*
D03*
X18425D02*
D03*
X19213D02*
D03*
X18032Y8858D02*
D03*
X18819D02*
D03*
D57*
X21535Y5551D02*
D03*
Y5315D02*
D03*
D58*
X24311Y6545D02*
D03*
X22628Y4862D02*
D03*
X24311D02*
D03*
X23189Y5423D02*
D03*
Y5984D02*
D03*
X23750Y6545D02*
D03*
X23189Y4862D02*
D03*
X23750Y5423D02*
D03*
Y5984D02*
D03*
X23189Y6545D02*
D03*
X24311Y5423D02*
D03*
X22628Y6545D02*
D03*
X23750Y4862D02*
D03*
X22628Y5984D02*
D03*
Y5423D02*
D03*
X24311Y5984D02*
D03*
M02*
