G04*
G04 #@! TF.GenerationSoftware,Altium Limited,Altium Designer,22.5.1 (42)*
G04*
G04 Layer_Color=8388736*
%FSLAX24Y24*%
%MOIN*%
G70*
G04*
G04 #@! TF.SameCoordinates,15B8646E-C553-4937-87EE-17013A6B0CAB*
G04*
G04*
G04 #@! TF.FilePolarity,Negative*
G04*
G01*
G75*
%ADD29C,0.0277*%
G04:AMPARAMS|DCode=30|XSize=35.6mil|YSize=39.5mil|CornerRadius=7.4mil|HoleSize=0mil|Usage=FLASHONLY|Rotation=270.000|XOffset=0mil|YOffset=0mil|HoleType=Round|Shape=RoundedRectangle|*
%AMROUNDEDRECTD30*
21,1,0.0356,0.0246,0,0,270.0*
21,1,0.0207,0.0395,0,0,270.0*
1,1,0.0149,-0.0123,-0.0103*
1,1,0.0149,-0.0123,0.0103*
1,1,0.0149,0.0123,0.0103*
1,1,0.0149,0.0123,-0.0103*
%
%ADD30ROUNDEDRECTD30*%
%ADD31C,0.0118*%
%ADD32R,0.0374X0.1122*%
%ADD33C,0.0177*%
%ADD34C,0.0130*%
G04:AMPARAMS|DCode=35|XSize=59.2mil|YSize=51.3mil|CornerRadius=14.8mil|HoleSize=0mil|Usage=FLASHONLY|Rotation=180.000|XOffset=0mil|YOffset=0mil|HoleType=Round|Shape=RoundedRectangle|*
%AMROUNDEDRECTD35*
21,1,0.0592,0.0217,0,0,180.0*
21,1,0.0295,0.0513,0,0,180.0*
1,1,0.0297,-0.0148,0.0108*
1,1,0.0297,0.0148,0.0108*
1,1,0.0297,0.0148,-0.0108*
1,1,0.0297,-0.0148,-0.0108*
%
%ADD35ROUNDEDRECTD35*%
G04:AMPARAMS|DCode=36|XSize=16.7mil|YSize=41.9mil|CornerRadius=5.1mil|HoleSize=0mil|Usage=FLASHONLY|Rotation=180.000|XOffset=0mil|YOffset=0mil|HoleType=Round|Shape=RoundedRectangle|*
%AMROUNDEDRECTD36*
21,1,0.0167,0.0317,0,0,180.0*
21,1,0.0065,0.0419,0,0,180.0*
1,1,0.0102,-0.0032,0.0158*
1,1,0.0102,0.0032,0.0158*
1,1,0.0102,0.0032,-0.0158*
1,1,0.0102,-0.0032,-0.0158*
%
%ADD36ROUNDEDRECTD36*%
G04:AMPARAMS|DCode=37|XSize=41.9mil|YSize=16.7mil|CornerRadius=5.1mil|HoleSize=0mil|Usage=FLASHONLY|Rotation=180.000|XOffset=0mil|YOffset=0mil|HoleType=Round|Shape=RoundedRectangle|*
%AMROUNDEDRECTD37*
21,1,0.0419,0.0065,0,0,180.0*
21,1,0.0317,0.0167,0,0,180.0*
1,1,0.0102,-0.0158,0.0032*
1,1,0.0102,0.0158,0.0032*
1,1,0.0102,0.0158,-0.0032*
1,1,0.0102,-0.0158,-0.0032*
%
%ADD37ROUNDEDRECTD37*%
%ADD38R,0.2088X0.2088*%
G04:AMPARAMS|DCode=39|XSize=47.4mil|YSize=78.9mil|CornerRadius=8.9mil|HoleSize=0mil|Usage=FLASHONLY|Rotation=180.000|XOffset=0mil|YOffset=0mil|HoleType=Round|Shape=RoundedRectangle|*
%AMROUNDEDRECTD39*
21,1,0.0474,0.0610,0,0,180.0*
21,1,0.0295,0.0789,0,0,180.0*
1,1,0.0178,-0.0148,0.0305*
1,1,0.0178,0.0148,0.0305*
1,1,0.0178,0.0148,-0.0305*
1,1,0.0178,-0.0148,-0.0305*
%
%ADD39ROUNDEDRECTD39*%
G04:AMPARAMS|DCode=40|XSize=58mil|YSize=43mil|CornerRadius=8.4mil|HoleSize=0mil|Usage=FLASHONLY|Rotation=270.000|XOffset=0mil|YOffset=0mil|HoleType=Round|Shape=RoundedRectangle|*
%AMROUNDEDRECTD40*
21,1,0.0580,0.0263,0,0,270.0*
21,1,0.0413,0.0430,0,0,270.0*
1,1,0.0168,-0.0131,-0.0206*
1,1,0.0168,-0.0131,0.0206*
1,1,0.0168,0.0131,0.0206*
1,1,0.0168,0.0131,-0.0206*
%
%ADD40ROUNDEDRECTD40*%
G04:AMPARAMS|DCode=41|XSize=23.7mil|YSize=27.7mil|CornerRadius=6mil|HoleSize=0mil|Usage=FLASHONLY|Rotation=180.000|XOffset=0mil|YOffset=0mil|HoleType=Round|Shape=RoundedRectangle|*
%AMROUNDEDRECTD41*
21,1,0.0237,0.0157,0,0,180.0*
21,1,0.0118,0.0277,0,0,180.0*
1,1,0.0119,-0.0059,0.0079*
1,1,0.0119,0.0059,0.0079*
1,1,0.0119,0.0059,-0.0079*
1,1,0.0119,-0.0059,-0.0079*
%
%ADD41ROUNDEDRECTD41*%
G04:AMPARAMS|DCode=42|XSize=23.7mil|YSize=27.7mil|CornerRadius=6mil|HoleSize=0mil|Usage=FLASHONLY|Rotation=270.000|XOffset=0mil|YOffset=0mil|HoleType=Round|Shape=RoundedRectangle|*
%AMROUNDEDRECTD42*
21,1,0.0237,0.0157,0,0,270.0*
21,1,0.0118,0.0277,0,0,270.0*
1,1,0.0119,-0.0079,-0.0059*
1,1,0.0119,-0.0079,0.0059*
1,1,0.0119,0.0079,0.0059*
1,1,0.0119,0.0079,-0.0059*
%
%ADD42ROUNDEDRECTD42*%
G04:AMPARAMS|DCode=43|XSize=55.2mil|YSize=95.4mil|CornerRadius=9.9mil|HoleSize=0mil|Usage=FLASHONLY|Rotation=90.000|XOffset=0mil|YOffset=0mil|HoleType=Round|Shape=RoundedRectangle|*
%AMROUNDEDRECTD43*
21,1,0.0552,0.0756,0,0,90.0*
21,1,0.0354,0.0954,0,0,90.0*
1,1,0.0198,0.0378,0.0177*
1,1,0.0198,0.0378,-0.0177*
1,1,0.0198,-0.0378,-0.0177*
1,1,0.0198,-0.0378,0.0177*
%
%ADD43ROUNDEDRECTD43*%
G04:AMPARAMS|DCode=44|XSize=55.2mil|YSize=95.4mil|CornerRadius=9.9mil|HoleSize=0mil|Usage=FLASHONLY|Rotation=180.000|XOffset=0mil|YOffset=0mil|HoleType=Round|Shape=RoundedRectangle|*
%AMROUNDEDRECTD44*
21,1,0.0552,0.0756,0,0,180.0*
21,1,0.0354,0.0954,0,0,180.0*
1,1,0.0198,-0.0177,0.0378*
1,1,0.0198,0.0177,0.0378*
1,1,0.0198,0.0177,-0.0378*
1,1,0.0198,-0.0177,-0.0378*
%
%ADD44ROUNDEDRECTD44*%
G04:AMPARAMS|DCode=45|XSize=35.6mil|YSize=39.5mil|CornerRadius=7.4mil|HoleSize=0mil|Usage=FLASHONLY|Rotation=180.000|XOffset=0mil|YOffset=0mil|HoleType=Round|Shape=RoundedRectangle|*
%AMROUNDEDRECTD45*
21,1,0.0356,0.0246,0,0,180.0*
21,1,0.0207,0.0395,0,0,180.0*
1,1,0.0149,-0.0103,0.0123*
1,1,0.0149,0.0103,0.0123*
1,1,0.0149,0.0103,-0.0123*
1,1,0.0149,-0.0103,-0.0123*
%
%ADD45ROUNDEDRECTD45*%
%ADD46C,0.0395*%
D29*
X181Y9118D02*
D03*
X26713Y6631D02*
D03*
D30*
X4016Y11221D02*
D03*
Y10591D02*
D03*
X2165Y11220D02*
D03*
Y10591D02*
D03*
X3228Y11220D02*
D03*
Y10591D02*
D03*
X1378Y11220D02*
D03*
Y10591D02*
D03*
X26378Y10630D02*
D03*
Y11260D02*
D03*
X591Y11221D02*
D03*
Y10591D02*
D03*
X23189Y3386D02*
D03*
Y2756D02*
D03*
X24409Y8110D02*
D03*
Y8740D02*
D03*
X23443Y10356D02*
D03*
Y9726D02*
D03*
X23898Y8740D02*
D03*
Y8110D02*
D03*
X21772Y2835D02*
D03*
Y2205D02*
D03*
X22205Y2835D02*
D03*
Y2205D02*
D03*
X22638Y2835D02*
D03*
Y2205D02*
D03*
X20236Y7402D02*
D03*
Y6772D02*
D03*
X21268Y8727D02*
D03*
Y8097D02*
D03*
X21777Y8096D02*
D03*
Y8726D02*
D03*
X24646Y2756D02*
D03*
Y3386D02*
D03*
X22449Y9726D02*
D03*
Y10356D02*
D03*
X22945Y9726D02*
D03*
Y10356D02*
D03*
D31*
X5000Y4606D02*
D03*
X4803D02*
D03*
X4606D02*
D03*
X4409D02*
D03*
X4213D02*
D03*
X4016D02*
D03*
X3819D02*
D03*
X3622D02*
D03*
X3425D02*
D03*
X3228D02*
D03*
X3031D02*
D03*
X2835D02*
D03*
X2638D02*
D03*
X2441D02*
D03*
X5000Y4803D02*
D03*
X4803D02*
D03*
X4606D02*
D03*
X4409D02*
D03*
X4213D02*
D03*
X4016D02*
D03*
X3819D02*
D03*
X3622D02*
D03*
X3425D02*
D03*
X3228D02*
D03*
X3031D02*
D03*
X2638D02*
D03*
X2441D02*
D03*
X5000Y5000D02*
D03*
X4803D02*
D03*
X4606D02*
D03*
X4409D02*
D03*
X4213D02*
D03*
X4016D02*
D03*
X3819D02*
D03*
X3622D02*
D03*
X3425D02*
D03*
X3228D02*
D03*
X3031D02*
D03*
X2638D02*
D03*
X2441D02*
D03*
X5000Y5197D02*
D03*
X4803D02*
D03*
X4606D02*
D03*
X2835D02*
D03*
X2638D02*
D03*
X2441D02*
D03*
X5000Y5394D02*
D03*
X4803D02*
D03*
X4606D02*
D03*
X4213D02*
D03*
X4016D02*
D03*
X3819D02*
D03*
X3622D02*
D03*
X3425D02*
D03*
X3228D02*
D03*
X2835D02*
D03*
X2638D02*
D03*
X2441D02*
D03*
X5000Y5591D02*
D03*
X4803D02*
D03*
X4606D02*
D03*
X4213D02*
D03*
X3228D02*
D03*
X2835D02*
D03*
X2638D02*
D03*
X2441D02*
D03*
X5000Y5787D02*
D03*
X4803D02*
D03*
X4606D02*
D03*
X4213D02*
D03*
X3228D02*
D03*
X2835D02*
D03*
X2638D02*
D03*
X2441D02*
D03*
X5000Y5984D02*
D03*
X4803D02*
D03*
X4606D02*
D03*
X4213D02*
D03*
X3228D02*
D03*
X2835D02*
D03*
X2638D02*
D03*
X2441D02*
D03*
X5000Y6181D02*
D03*
X4803D02*
D03*
X4606D02*
D03*
X4213D02*
D03*
X3228D02*
D03*
X2835D02*
D03*
X2638D02*
D03*
X2441D02*
D03*
X5000Y6378D02*
D03*
X4803D02*
D03*
X4606D02*
D03*
X4213D02*
D03*
X4016D02*
D03*
X3819D02*
D03*
X3622D02*
D03*
X3425D02*
D03*
X3228D02*
D03*
X2835D02*
D03*
X2638D02*
D03*
X2441D02*
D03*
X5000Y6575D02*
D03*
X4803D02*
D03*
X3031D02*
D03*
X2835D02*
D03*
X2638D02*
D03*
X2441D02*
D03*
X5000Y6772D02*
D03*
X4606D02*
D03*
X4409D02*
D03*
X4213D02*
D03*
X4016D02*
D03*
X3819D02*
D03*
X3622D02*
D03*
X3425D02*
D03*
X3228D02*
D03*
X3031D02*
D03*
X2835D02*
D03*
X2638D02*
D03*
X2441D02*
D03*
X4803Y6969D02*
D03*
X4606D02*
D03*
X4409D02*
D03*
X4213D02*
D03*
X4016D02*
D03*
X3819D02*
D03*
X3622D02*
D03*
X3425D02*
D03*
X3228D02*
D03*
X3031D02*
D03*
X2835D02*
D03*
X2638D02*
D03*
X2441D02*
D03*
X5000Y7165D02*
D03*
X4803D02*
D03*
X4606D02*
D03*
X4409D02*
D03*
X4213D02*
D03*
X4016D02*
D03*
X3819D02*
D03*
X3622D02*
D03*
X3425D02*
D03*
X3228D02*
D03*
X3031D02*
D03*
X2835D02*
D03*
X2638D02*
D03*
X2441D02*
D03*
D32*
X26516Y560D02*
D03*
X26319D02*
D03*
X26122D02*
D03*
X25925D02*
D03*
X25728D02*
D03*
X25531D02*
D03*
X25335D02*
D03*
X22579D02*
D03*
X22382D02*
D03*
X22185D02*
D03*
X21988D02*
D03*
X21791D02*
D03*
X21594D02*
D03*
X21398D02*
D03*
X21201D02*
D03*
X21004D02*
D03*
X20807D02*
D03*
X20610D02*
D03*
X20413D02*
D03*
X20217D02*
D03*
X20020D02*
D03*
X19823D02*
D03*
X19626D02*
D03*
X19429D02*
D03*
X19232D02*
D03*
X19035D02*
D03*
X18839D02*
D03*
X18642D02*
D03*
X18445D02*
D03*
X18248D02*
D03*
X18051D02*
D03*
X17854D02*
D03*
X17657D02*
D03*
X17461D02*
D03*
X17264D02*
D03*
X17067D02*
D03*
X16870D02*
D03*
X16673D02*
D03*
X16476D02*
D03*
X16280D02*
D03*
X16083D02*
D03*
X15886D02*
D03*
X15689D02*
D03*
X15492D02*
D03*
X15295D02*
D03*
X13917D02*
D03*
X13720D02*
D03*
X13524D02*
D03*
X13327D02*
D03*
X13130D02*
D03*
X12933D02*
D03*
X12736D02*
D03*
X12539D02*
D03*
X12343D02*
D03*
X12146D02*
D03*
X11949D02*
D03*
X11752D02*
D03*
X11555D02*
D03*
X11358D02*
D03*
X11161D02*
D03*
X10965D02*
D03*
X10768D02*
D03*
X10571D02*
D03*
X10374D02*
D03*
X10177D02*
D03*
X9980D02*
D03*
X9783D02*
D03*
X9587D02*
D03*
X9390D02*
D03*
X9193D02*
D03*
X8996D02*
D03*
X8799D02*
D03*
X8602D02*
D03*
X8406D02*
D03*
X8209D02*
D03*
X8012D02*
D03*
X7618D02*
D03*
X7421D02*
D03*
X7224D02*
D03*
X7028D02*
D03*
X6831D02*
D03*
X6634D02*
D03*
X6437D02*
D03*
X3484D02*
D03*
X3287D02*
D03*
X3091D02*
D03*
X2894D02*
D03*
X2697D02*
D03*
X2500D02*
D03*
X2303D02*
D03*
X2106D02*
D03*
X1909D02*
D03*
X1713D02*
D03*
X1516D02*
D03*
X1319D02*
D03*
X1122D02*
D03*
X925D02*
D03*
X728D02*
D03*
X531D02*
D03*
X335D02*
D03*
X3681D02*
D03*
X3878D02*
D03*
X4075D02*
D03*
X4272D02*
D03*
X4469D02*
D03*
X4665D02*
D03*
X4862D02*
D03*
X5059D02*
D03*
X5256D02*
D03*
X5453D02*
D03*
X5650D02*
D03*
X5846D02*
D03*
X6043D02*
D03*
X6240D02*
D03*
X7815D02*
D03*
X14114D02*
D03*
X14311D02*
D03*
X22776D02*
D03*
X22972D02*
D03*
X23169D02*
D03*
X23366D02*
D03*
X23563D02*
D03*
X23760D02*
D03*
X23957D02*
D03*
X24154D02*
D03*
X24350D02*
D03*
X24547D02*
D03*
X24744D02*
D03*
X24941D02*
D03*
X25138D02*
D03*
D33*
X18819Y10000D02*
D03*
X18504D02*
D03*
X18189D02*
D03*
X17874D02*
D03*
X17559D02*
D03*
X17244D02*
D03*
X16929D02*
D03*
X16614D02*
D03*
X16299D02*
D03*
X15984D02*
D03*
X15669D02*
D03*
X15354D02*
D03*
X15039D02*
D03*
X14724D02*
D03*
X14409D02*
D03*
X14094D02*
D03*
X18819Y9685D02*
D03*
X18504D02*
D03*
X18189D02*
D03*
X17874D02*
D03*
X17559D02*
D03*
X17244D02*
D03*
X16929D02*
D03*
X16614D02*
D03*
X16299D02*
D03*
X15984D02*
D03*
X15669D02*
D03*
X15354D02*
D03*
X15039D02*
D03*
X14724D02*
D03*
X14409D02*
D03*
X14094D02*
D03*
X18819Y9370D02*
D03*
X18504D02*
D03*
X18189D02*
D03*
X17874D02*
D03*
X17559D02*
D03*
X17244D02*
D03*
X16929D02*
D03*
X16614D02*
D03*
X16299D02*
D03*
X15984D02*
D03*
X15669D02*
D03*
X15354D02*
D03*
X15039D02*
D03*
X14724D02*
D03*
X14409D02*
D03*
X14094D02*
D03*
X18819Y8110D02*
D03*
X18504D02*
D03*
X18189D02*
D03*
X17874D02*
D03*
X17559D02*
D03*
X17244D02*
D03*
X16929D02*
D03*
X16614D02*
D03*
X16299D02*
D03*
X15984D02*
D03*
X15669D02*
D03*
X15354D02*
D03*
X15039D02*
D03*
X14724D02*
D03*
X14409D02*
D03*
X14094D02*
D03*
X18819Y7795D02*
D03*
X18504D02*
D03*
X18189D02*
D03*
X17874D02*
D03*
X17559D02*
D03*
X17244D02*
D03*
X16929D02*
D03*
X16614D02*
D03*
X16299D02*
D03*
X15984D02*
D03*
X15669D02*
D03*
X15354D02*
D03*
X15039D02*
D03*
X14724D02*
D03*
X14409D02*
D03*
X14094D02*
D03*
X18819Y7480D02*
D03*
X18504D02*
D03*
X18189D02*
D03*
X17874D02*
D03*
X17559D02*
D03*
X17244D02*
D03*
X16929D02*
D03*
X16614D02*
D03*
X16299D02*
D03*
X15984D02*
D03*
X15669D02*
D03*
X15354D02*
D03*
X15039D02*
D03*
X14724D02*
D03*
X14409D02*
D03*
X14094D02*
D03*
X18819Y5709D02*
D03*
X18504D02*
D03*
X18189D02*
D03*
X17874D02*
D03*
X17559D02*
D03*
X17244D02*
D03*
X16929D02*
D03*
X16614D02*
D03*
X16299D02*
D03*
X15984D02*
D03*
X15669D02*
D03*
X15354D02*
D03*
X15039D02*
D03*
X14724D02*
D03*
X14409D02*
D03*
X14094D02*
D03*
X18819Y5394D02*
D03*
X18504D02*
D03*
X18189D02*
D03*
X17874D02*
D03*
X17559D02*
D03*
X17244D02*
D03*
X16929D02*
D03*
X16614D02*
D03*
X16299D02*
D03*
X15984D02*
D03*
X15669D02*
D03*
X15354D02*
D03*
X15039D02*
D03*
X14724D02*
D03*
X14409D02*
D03*
X14094D02*
D03*
X18819Y5079D02*
D03*
X18504D02*
D03*
X18189D02*
D03*
X17874D02*
D03*
X17559D02*
D03*
X17244D02*
D03*
X16929D02*
D03*
X16614D02*
D03*
X16299D02*
D03*
X15984D02*
D03*
X15669D02*
D03*
X15354D02*
D03*
X15039D02*
D03*
X14724D02*
D03*
X14409D02*
D03*
X14094D02*
D03*
X18819Y3819D02*
D03*
X18504D02*
D03*
X18189D02*
D03*
X17874D02*
D03*
X17559D02*
D03*
X17244D02*
D03*
X16929D02*
D03*
X16614D02*
D03*
X16299D02*
D03*
X15984D02*
D03*
X15669D02*
D03*
X15354D02*
D03*
X15039D02*
D03*
X14724D02*
D03*
X14409D02*
D03*
X14094D02*
D03*
X18819Y3504D02*
D03*
X18504D02*
D03*
X18189D02*
D03*
X17874D02*
D03*
X17559D02*
D03*
X17244D02*
D03*
X16929D02*
D03*
X16614D02*
D03*
X16299D02*
D03*
X15984D02*
D03*
X15669D02*
D03*
X15354D02*
D03*
X15039D02*
D03*
X14724D02*
D03*
X14409D02*
D03*
X14094D02*
D03*
X18819Y3189D02*
D03*
X18504D02*
D03*
X18189D02*
D03*
X17874D02*
D03*
X17559D02*
D03*
X17244D02*
D03*
X16929D02*
D03*
X16614D02*
D03*
X16299D02*
D03*
X15984D02*
D03*
X15669D02*
D03*
X15354D02*
D03*
X15039D02*
D03*
X14724D02*
D03*
X14409D02*
D03*
X14094D02*
D03*
D34*
X6752Y4193D02*
D03*
X7008D02*
D03*
X7264D02*
D03*
X7520D02*
D03*
X8031D02*
D03*
X8287D02*
D03*
X8799D02*
D03*
X9055D02*
D03*
X9567D02*
D03*
X9823D02*
D03*
X10335D02*
D03*
X11102D02*
D03*
X11358D02*
D03*
X11614D02*
D03*
X11870D02*
D03*
X6752Y4449D02*
D03*
X7008D02*
D03*
X7264D02*
D03*
X7520D02*
D03*
X7776D02*
D03*
X8031D02*
D03*
X8287D02*
D03*
X8543D02*
D03*
X8799D02*
D03*
X9055D02*
D03*
X9311D02*
D03*
X9567D02*
D03*
X9823D02*
D03*
X10079D02*
D03*
X10335D02*
D03*
X10591D02*
D03*
X10846D02*
D03*
X11102D02*
D03*
X11358D02*
D03*
X11614D02*
D03*
X11870D02*
D03*
X6752Y4705D02*
D03*
X7008D02*
D03*
X7264D02*
D03*
X7520D02*
D03*
X7776D02*
D03*
X8031D02*
D03*
X8543D02*
D03*
X8799D02*
D03*
X9055D02*
D03*
X9567D02*
D03*
X9823D02*
D03*
X10079D02*
D03*
X10591D02*
D03*
X10846D02*
D03*
X11102D02*
D03*
X11358D02*
D03*
X11614D02*
D03*
X11870D02*
D03*
X6752Y4961D02*
D03*
X7008D02*
D03*
X8287D02*
D03*
X8543D02*
D03*
X9055D02*
D03*
X9567D02*
D03*
X10079Y5472D02*
D03*
X10591Y4961D02*
D03*
X10846D02*
D03*
X11102D02*
D03*
X11614D02*
D03*
X6752Y5217D02*
D03*
X7008D02*
D03*
X7264D02*
D03*
X7520D02*
D03*
X8031D02*
D03*
X8287D02*
D03*
X9311D02*
D03*
X9567D02*
D03*
X10591D02*
D03*
X11102D02*
D03*
X11358D02*
D03*
X11870D02*
D03*
X7008Y5472D02*
D03*
X7264D02*
D03*
X7520D02*
D03*
X8031D02*
D03*
X8543D02*
D03*
X8799D02*
D03*
X9055D02*
D03*
X9567D02*
D03*
X10335D02*
D03*
X10591D02*
D03*
X10846D02*
D03*
X11102D02*
D03*
X11358D02*
D03*
X11870D02*
D03*
X6752Y5728D02*
D03*
X7008D02*
D03*
X7264D02*
D03*
X8031D02*
D03*
X8287D02*
D03*
X8543D02*
D03*
X8799D02*
D03*
X10079D02*
D03*
X10335D02*
D03*
X10591D02*
D03*
X11614D02*
D03*
X6752Y5984D02*
D03*
X7008D02*
D03*
X7264D02*
D03*
X7520D02*
D03*
X7776D02*
D03*
X8031D02*
D03*
X8287D02*
D03*
X8799D02*
D03*
X9055D02*
D03*
X9311D02*
D03*
X9567D02*
D03*
X9823D02*
D03*
X10079D02*
D03*
X10335D02*
D03*
X10591D02*
D03*
X11614D02*
D03*
X11870D02*
D03*
X7008Y6240D02*
D03*
X7264D02*
D03*
X8287D02*
D03*
X8799D02*
D03*
X9055D02*
D03*
X9311D02*
D03*
X9567D02*
D03*
X9823D02*
D03*
X10079D02*
D03*
X10591D02*
D03*
X10846D02*
D03*
X11614D02*
D03*
X11870D02*
D03*
X6752Y6496D02*
D03*
X7008D02*
D03*
X7264D02*
D03*
X7520D02*
D03*
X7776D02*
D03*
X8031D02*
D03*
X8287D02*
D03*
X8543D02*
D03*
X8799D02*
D03*
X9055D02*
D03*
X9311D02*
D03*
X9567D02*
D03*
X9823D02*
D03*
X10079D02*
D03*
X10335D02*
D03*
X10591D02*
D03*
X11102D02*
D03*
X11614D02*
D03*
X6752Y6752D02*
D03*
X7008D02*
D03*
X7264D02*
D03*
X7520D02*
D03*
X7776D02*
D03*
X8031D02*
D03*
X8287D02*
D03*
X8543D02*
D03*
X8799D02*
D03*
X9055D02*
D03*
X9311D02*
D03*
X9567D02*
D03*
X9823D02*
D03*
X10079D02*
D03*
X10335D02*
D03*
X10591D02*
D03*
X10846D02*
D03*
X11102D02*
D03*
X11358D02*
D03*
X11614D02*
D03*
X11870D02*
D03*
X7008Y7008D02*
D03*
X7264D02*
D03*
X8287D02*
D03*
X8543D02*
D03*
X8799D02*
D03*
X9055D02*
D03*
X9311D02*
D03*
X9567D02*
D03*
X9823D02*
D03*
X10079D02*
D03*
X10335D02*
D03*
X10591D02*
D03*
X11102D02*
D03*
X11358D02*
D03*
X11614D02*
D03*
X11870D02*
D03*
X6752Y7264D02*
D03*
X7008D02*
D03*
X7264D02*
D03*
X7520D02*
D03*
X7776D02*
D03*
X8031D02*
D03*
X8287D02*
D03*
X8543D02*
D03*
X8799D02*
D03*
X9055D02*
D03*
X9311D02*
D03*
X9567D02*
D03*
X9823D02*
D03*
X10079D02*
D03*
X10335D02*
D03*
X10591D02*
D03*
X11102D02*
D03*
X11614D02*
D03*
X6752Y7520D02*
D03*
X7008D02*
D03*
X7264D02*
D03*
X7776D02*
D03*
X8031D02*
D03*
X8287D02*
D03*
X8543D02*
D03*
X8799D02*
D03*
X9055D02*
D03*
X9311D02*
D03*
X9567D02*
D03*
X9823D02*
D03*
X10079D02*
D03*
X10335D02*
D03*
X10591D02*
D03*
X11614D02*
D03*
X11870D02*
D03*
X7008Y7776D02*
D03*
X7264D02*
D03*
X7520D02*
D03*
X7776D02*
D03*
X8287D02*
D03*
X8543D02*
D03*
X8799D02*
D03*
X9055D02*
D03*
X9311D02*
D03*
X9567D02*
D03*
X9823D02*
D03*
X10079D02*
D03*
X10591D02*
D03*
X10846D02*
D03*
X11102D02*
D03*
X11358D02*
D03*
X11614D02*
D03*
X11870D02*
D03*
X6752Y8031D02*
D03*
X7008D02*
D03*
X7264D02*
D03*
X7776D02*
D03*
X8031D02*
D03*
X8543D02*
D03*
X8799D02*
D03*
X9055D02*
D03*
X9311D02*
D03*
X9567D02*
D03*
X9823D02*
D03*
X10079D02*
D03*
X10335D02*
D03*
X10591D02*
D03*
X10846D02*
D03*
X11614D02*
D03*
X6752Y8287D02*
D03*
X7008D02*
D03*
X7264D02*
D03*
X7520D02*
D03*
X8031D02*
D03*
X8543D02*
D03*
X9055D02*
D03*
X9311D02*
D03*
X9823D02*
D03*
X10079D02*
D03*
X10335D02*
D03*
X10591D02*
D03*
X11102D02*
D03*
X11614D02*
D03*
X11870D02*
D03*
X7008Y8543D02*
D03*
X7264D02*
D03*
X7776D02*
D03*
X8031D02*
D03*
X8287D02*
D03*
X8543D02*
D03*
X9055D02*
D03*
X9311D02*
D03*
X10335D02*
D03*
X10591D02*
D03*
X10846D02*
D03*
X11358D02*
D03*
X11614D02*
D03*
X11870D02*
D03*
X6752Y8799D02*
D03*
X7008D02*
D03*
X7264D02*
D03*
X7520D02*
D03*
X7776D02*
D03*
X8031D02*
D03*
X8543D02*
D03*
X8799D02*
D03*
X9311D02*
D03*
X9567D02*
D03*
X9823D02*
D03*
X10079D02*
D03*
X10335D02*
D03*
X10846D02*
D03*
X11102D02*
D03*
X11614D02*
D03*
X11870D02*
D03*
X6752Y9055D02*
D03*
X7008D02*
D03*
X7264D02*
D03*
X7520D02*
D03*
X7776D02*
D03*
X8031D02*
D03*
X8287D02*
D03*
X8543D02*
D03*
X8799D02*
D03*
X9055D02*
D03*
X9311D02*
D03*
X9567D02*
D03*
X9823D02*
D03*
X10079D02*
D03*
X10335D02*
D03*
X10591D02*
D03*
X10846D02*
D03*
X11102D02*
D03*
X11358D02*
D03*
X11614D02*
D03*
X11870D02*
D03*
X6752Y9311D02*
D03*
X7264D02*
D03*
X7776D02*
D03*
X8031D02*
D03*
X8543D02*
D03*
X8799D02*
D03*
X9311D02*
D03*
X9567D02*
D03*
X10079D02*
D03*
X10335D02*
D03*
X10846D02*
D03*
X11102D02*
D03*
X11358D02*
D03*
X11614D02*
D03*
X11870D02*
D03*
X11358Y7264D02*
D03*
Y6240D02*
D03*
Y8287D02*
D03*
D35*
X9280Y2744D02*
D03*
X8414D02*
D03*
Y3453D02*
D03*
X9280D02*
D03*
D36*
X24734Y7248D02*
D03*
X24577D02*
D03*
X24419D02*
D03*
X24262D02*
D03*
X24104D02*
D03*
X23947D02*
D03*
X23789D02*
D03*
X23632D02*
D03*
X23474D02*
D03*
X23317D02*
D03*
X23159D02*
D03*
X23002D02*
D03*
X22844D02*
D03*
X22687D02*
D03*
X22530D02*
D03*
X22372D02*
D03*
X22215D02*
D03*
Y4150D02*
D03*
X22372D02*
D03*
X22530D02*
D03*
X22687D02*
D03*
X22844D02*
D03*
X23002D02*
D03*
X23159D02*
D03*
X23317D02*
D03*
X23474D02*
D03*
X23632D02*
D03*
X23789D02*
D03*
X23947D02*
D03*
X24104D02*
D03*
X24262D02*
D03*
X24419D02*
D03*
X24577D02*
D03*
X24734D02*
D03*
D37*
X25024Y4439D02*
D03*
Y4596D02*
D03*
Y4754D02*
D03*
Y4911D02*
D03*
Y5069D02*
D03*
Y5226D02*
D03*
Y5384D02*
D03*
Y5541D02*
D03*
Y5699D02*
D03*
Y5856D02*
D03*
Y6014D02*
D03*
Y6171D02*
D03*
Y6329D02*
D03*
Y6486D02*
D03*
Y6644D02*
D03*
Y6801D02*
D03*
Y6959D02*
D03*
X21925D02*
D03*
Y6801D02*
D03*
Y6644D02*
D03*
Y6486D02*
D03*
Y6329D02*
D03*
Y6171D02*
D03*
Y6014D02*
D03*
Y5856D02*
D03*
Y5699D02*
D03*
Y5541D02*
D03*
Y5384D02*
D03*
Y5226D02*
D03*
Y5069D02*
D03*
Y4911D02*
D03*
Y4754D02*
D03*
Y4596D02*
D03*
Y4439D02*
D03*
D38*
X23474Y5699D02*
D03*
D39*
X11804Y3344D02*
D03*
X10780D02*
D03*
D40*
X20984Y4291D02*
D03*
X20236D02*
D03*
D41*
X19350Y10400D02*
D03*
X19763D02*
D03*
X19350Y10100D02*
D03*
X19763D02*
D03*
X25728Y6378D02*
D03*
X26142D02*
D03*
X19350Y6050D02*
D03*
X19763D02*
D03*
X19350Y5750D02*
D03*
X19763D02*
D03*
X21289Y6986D02*
D03*
X20876D02*
D03*
X10731Y2768D02*
D03*
X11145D02*
D03*
X14750Y10750D02*
D03*
X15163D02*
D03*
X16713D02*
D03*
X16300D02*
D03*
X19763Y9723D02*
D03*
X19350D02*
D03*
X19763Y7800D02*
D03*
X19350D02*
D03*
X19763Y9400D02*
D03*
X19350D02*
D03*
X19763Y5350D02*
D03*
X19350D02*
D03*
X19763Y5022D02*
D03*
X19350D02*
D03*
Y7450D02*
D03*
X19763D02*
D03*
X16787Y2450D02*
D03*
X17200D02*
D03*
X18163D02*
D03*
X17750D02*
D03*
D42*
X12650Y3050D02*
D03*
Y3463D02*
D03*
X22300Y8100D02*
D03*
Y8513D02*
D03*
X7876Y2959D02*
D03*
Y3372D02*
D03*
X9817Y3390D02*
D03*
Y2977D02*
D03*
X12304Y3044D02*
D03*
Y3458D02*
D03*
X13450Y2650D02*
D03*
Y3063D02*
D03*
X13100Y2650D02*
D03*
Y3063D02*
D03*
D43*
X23858Y3307D02*
D03*
Y2433D02*
D03*
X23100Y8226D02*
D03*
Y9100D02*
D03*
X25338Y2409D02*
D03*
Y3283D02*
D03*
X25297Y8210D02*
D03*
Y9084D02*
D03*
D44*
X25846Y5281D02*
D03*
X26720D02*
D03*
X21124Y5650D02*
D03*
X20250D02*
D03*
D45*
X20391Y3748D02*
D03*
X21021D02*
D03*
X20354Y4921D02*
D03*
X20984D02*
D03*
X20630Y7402D02*
D03*
X21260D02*
D03*
X21797Y9246D02*
D03*
X22427D02*
D03*
X25330Y9650D02*
D03*
X24700D02*
D03*
X26414Y4552D02*
D03*
X25784D02*
D03*
X26427Y6014D02*
D03*
X25797D02*
D03*
X20600Y6395D02*
D03*
X21230D02*
D03*
X26414Y4114D02*
D03*
X25784D02*
D03*
X26692Y3399D02*
D03*
X26062D02*
D03*
X26698Y2949D02*
D03*
X26068D02*
D03*
X24173Y1811D02*
D03*
X23543D02*
D03*
X25330Y10550D02*
D03*
X24700D02*
D03*
X25330Y10100D02*
D03*
X24700D02*
D03*
D46*
X24311Y6545D02*
D03*
X22628Y4862D02*
D03*
X24311D02*
D03*
X23189Y5423D02*
D03*
Y5984D02*
D03*
X23750Y6545D02*
D03*
X23189Y4862D02*
D03*
X23750Y5423D02*
D03*
Y5984D02*
D03*
X23189Y6545D02*
D03*
X24311Y5423D02*
D03*
X22628Y6545D02*
D03*
X23750Y4862D02*
D03*
X22628Y5984D02*
D03*
Y5423D02*
D03*
X24311Y5984D02*
D03*
M02*
