G04*
G04 #@! TF.GenerationSoftware,Altium Limited,Altium Designer,22.5.1 (42)*
G04*
G04 Layer_Color=2752767*
%FSLAX24Y24*%
%MOIN*%
G70*
G04*
G04 #@! TF.SameCoordinates,15B8646E-C553-4937-87EE-17013A6B0CAB*
G04*
G04*
G04 #@! TF.FilePolarity,Positive*
G04*
G01*
G75*
%ADD90C,0.0027*%
%ADD91C,0.0020*%
D90*
X26886Y9196D02*
G03*
X26886Y9196I-80J0D01*
G01*
Y9346D02*
G03*
X26886Y9346I-80J0D01*
G01*
Y9496D02*
G03*
X26886Y9496I-80J0D01*
G01*
Y9646D02*
G03*
X26886Y9646I-80J0D01*
G01*
X7928Y6957D02*
G03*
X7928Y6957I-80J0D01*
G01*
X15330Y10400D02*
G03*
X15330Y10400I-80J0D01*
G01*
X15480D02*
G03*
X15480Y10400I-80J0D01*
G01*
Y10250D02*
G03*
X15480Y10250I-80J0D01*
G01*
X15630Y10400D02*
G03*
X15630Y10400I-80J0D01*
G01*
Y10250D02*
G03*
X15630Y10250I-80J0D01*
G01*
X15780Y10400D02*
G03*
X15780Y10400I-80J0D01*
G01*
Y10250D02*
G03*
X15780Y10250I-80J0D01*
G01*
X15330D02*
G03*
X15330Y10250I-80J0D01*
G01*
X24236Y9983D02*
G03*
X24236Y9983I-80J0D01*
G01*
Y9833D02*
G03*
X24236Y9833I-80J0D01*
G01*
X24086D02*
G03*
X24086Y9833I-80J0D01*
G01*
X24236Y9683D02*
G03*
X24236Y9683I-80J0D01*
G01*
X24086D02*
G03*
X24086Y9683I-80J0D01*
G01*
X24236Y9533D02*
G03*
X24236Y9533I-80J0D01*
G01*
X24086D02*
G03*
X24086Y9533I-80J0D01*
G01*
Y9983D02*
G03*
X24086Y9983I-80J0D01*
G01*
X10961Y6999D02*
G03*
X10961Y6999I-80J0D01*
G01*
X6200Y10634D02*
G03*
X6200Y10634I-80J0D01*
G01*
X5750D02*
G03*
X5750Y10634I-80J0D01*
G01*
Y10484D02*
G03*
X5750Y10484I-80J0D01*
G01*
X5900Y10634D02*
G03*
X5900Y10634I-80J0D01*
G01*
Y10484D02*
G03*
X5900Y10484I-80J0D01*
G01*
X6050Y10634D02*
G03*
X6050Y10634I-80J0D01*
G01*
Y10484D02*
G03*
X6050Y10484I-80J0D01*
G01*
X6200D02*
G03*
X6200Y10484I-80J0D01*
G01*
X91Y1390D02*
G03*
X91Y1390I-80J0D01*
G01*
Y1240D02*
G03*
X91Y1240I-80J0D01*
G01*
Y1090D02*
G03*
X91Y1090I-80J0D01*
G01*
Y1540D02*
G03*
X91Y1540I-80J0D01*
G01*
X13497Y1318D02*
G03*
X13497Y1318I-80J0D01*
G01*
X13891Y1322D02*
G03*
X13891Y1322I-80J0D01*
G01*
X14307Y1322D02*
G03*
X14307Y1322I-80J0D01*
G01*
X21000Y2246D02*
G03*
X21000Y2246I-80J0D01*
G01*
Y2096D02*
G03*
X21000Y2096I-80J0D01*
G01*
Y1946D02*
G03*
X21000Y1946I-80J0D01*
G01*
Y2396D02*
G03*
X21000Y2396I-80J0D01*
G01*
X18734Y1529D02*
G03*
X18734Y1529I-80J0D01*
G01*
X18284D02*
G03*
X18284Y1529I-80J0D01*
G01*
Y1379D02*
G03*
X18284Y1379I-80J0D01*
G01*
X18434Y1529D02*
G03*
X18434Y1529I-80J0D01*
G01*
Y1379D02*
G03*
X18434Y1379I-80J0D01*
G01*
X18584Y1529D02*
G03*
X18584Y1529I-80J0D01*
G01*
Y1379D02*
G03*
X18584Y1379I-80J0D01*
G01*
X18734D02*
G03*
X18734Y1379I-80J0D01*
G01*
X4132Y3039D02*
G03*
X4132Y3039I-80J0D01*
G01*
X3682D02*
G03*
X3682Y3039I-80J0D01*
G01*
Y2889D02*
G03*
X3682Y2889I-80J0D01*
G01*
X3832Y3039D02*
G03*
X3832Y3039I-80J0D01*
G01*
Y2889D02*
G03*
X3832Y2889I-80J0D01*
G01*
X3982Y3039D02*
G03*
X3982Y3039I-80J0D01*
G01*
Y2889D02*
G03*
X3982Y2889I-80J0D01*
G01*
X4132D02*
G03*
X4132Y2889I-80J0D01*
G01*
X1232Y9445D02*
G03*
X1232Y9445I-80J0D01*
G01*
X1082D02*
G03*
X1082Y9445I-80J0D01*
G01*
Y9595D02*
G03*
X1082Y9595I-80J0D01*
G01*
X932Y9445D02*
G03*
X932Y9445I-80J0D01*
G01*
Y9595D02*
G03*
X932Y9595I-80J0D01*
G01*
X782Y9445D02*
G03*
X782Y9445I-80J0D01*
G01*
Y9595D02*
G03*
X782Y9595I-80J0D01*
G01*
X7103Y9347D02*
G03*
X7103Y9347I-80J0D01*
G01*
X15687Y2966D02*
G03*
X15687Y2966I-80J0D01*
G01*
X15917Y3089D02*
G03*
X15917Y3089I-80J0D01*
G01*
X16060Y1600D02*
G03*
X16060Y1600I-80J0D01*
G01*
X15671D02*
G03*
X15671Y1600I-80J0D01*
G01*
X15474D02*
G03*
X15474Y1600I-80J0D01*
G01*
X25147Y2549D02*
G03*
X25147Y2549I-80J0D01*
G01*
X25414Y3644D02*
G03*
X25414Y3644I-80J0D01*
G01*
X25675Y3637D02*
G03*
X25675Y3637I-80J0D01*
G01*
X14374Y4754D02*
G03*
X14374Y4754I-80J0D01*
G01*
X19482Y6989D02*
G03*
X19482Y6989I-80J0D01*
G01*
Y7178D02*
G03*
X19482Y7178I-80J0D01*
G01*
X24745Y6693D02*
G03*
X24745Y6693I-80J0D01*
G01*
X17197Y2957D02*
G03*
X17197Y2957I-80J0D01*
G01*
X17819Y2947D02*
G03*
X17819Y2947I-80J0D01*
G01*
X19982Y8107D02*
G03*
X19982Y8107I-80J0D01*
G01*
X19869Y8037D02*
G03*
X19869Y8037I-80J0D01*
G01*
X15466Y7200D02*
G03*
X15466Y7200I-80J0D01*
G01*
X15750Y7336D02*
G03*
X15750Y7336I-80J0D01*
G01*
X19410Y9364D02*
G03*
X19410Y9364I-80J0D01*
G01*
X19406Y9711D02*
G03*
X19406Y9711I-80J0D01*
G01*
X14425Y10085D02*
G03*
X14425Y10085I-80J0D01*
G01*
X18584Y3189D02*
G03*
X18584Y3189I-80J0D01*
G01*
X15049Y2945D02*
G03*
X15049Y2945I-80J0D01*
G01*
X15203D02*
G03*
X15203Y2945I-80J0D01*
G01*
X14907D02*
G03*
X14907Y2945I-80J0D01*
G01*
X15494Y2921D02*
G03*
X15494Y2921I-80J0D01*
G01*
X14573Y2948D02*
G03*
X14573Y2948I-80J0D01*
G01*
X14723Y2946D02*
G03*
X14723Y2946I-80J0D01*
G01*
X16857Y1600D02*
G03*
X16857Y1600I-80J0D01*
G01*
X16658D02*
G03*
X16658Y1600I-80J0D01*
G01*
X16259D02*
G03*
X16259Y1600I-80J0D01*
G01*
X17255D02*
G03*
X17255Y1600I-80J0D01*
G01*
X16064Y3189D02*
G03*
X16064Y3189I-80J0D01*
G01*
X17454Y1600D02*
G03*
X17454Y1600I-80J0D01*
G01*
X16270Y6809D02*
G03*
X16270Y6809I-80J0D01*
G01*
X16053Y7259D02*
G03*
X16053Y7259I-80J0D01*
G01*
X16575Y6413D02*
G03*
X16575Y6413I-80J0D01*
G01*
X17148Y6348D02*
G03*
X17148Y6348I-80J0D01*
G01*
X22223Y8867D02*
G03*
X22223Y8867I-80J0D01*
G01*
X22073Y2202D02*
G03*
X22073Y2202I-80J0D01*
G01*
X22285Y2205D02*
G03*
X22285Y2205I-80J0D01*
G01*
X21858Y2206D02*
G03*
X21858Y2206I-80J0D01*
G01*
X15317Y5558D02*
G03*
X15317Y5558I-80J0D01*
G01*
X19573Y4068D02*
G03*
X19573Y4068I-80J0D01*
G01*
X17776Y5531D02*
G03*
X17776Y5531I-80J0D01*
G01*
X17723Y6720D02*
G03*
X17723Y6720I-80J0D01*
G01*
X17450Y6583D02*
G03*
X17450Y6583I-80J0D01*
G01*
X17315Y6331D02*
G03*
X17315Y6331I-80J0D01*
G01*
X14786Y7258D02*
G03*
X14786Y7258I-80J0D01*
G01*
X15285Y5958D02*
G03*
X15285Y5958I-80J0D01*
G01*
X3680Y3750D02*
G03*
X3680Y3750I-80J0D01*
G01*
X3330D02*
G03*
X3330Y3750I-80J0D01*
G01*
X3308Y5591D02*
G03*
X3308Y5591I-80J0D01*
G01*
X3505Y7165D02*
G03*
X3505Y7165I-80J0D01*
G01*
X10671Y6496D02*
G03*
X10671Y6496I-80J0D01*
G01*
X23196Y7636D02*
G03*
X23196Y7636I-80J0D01*
G01*
X939Y11398D02*
G03*
X939Y11398I-80J0D01*
G01*
X1777Y11396D02*
G03*
X1777Y11396I-80J0D01*
G01*
X24051Y3780D02*
G03*
X24051Y3780I-80J0D01*
G01*
X10877Y4768D02*
G03*
X10877Y4768I-80J0D01*
G01*
X10803Y4571D02*
G03*
X10803Y4571I-80J0D01*
G01*
X9903Y8799D02*
G03*
X9903Y8799I-80J0D01*
G01*
X9525Y8929D02*
G03*
X9525Y8929I-80J0D01*
G01*
X10037Y8158D02*
G03*
X10037Y8158I-80J0D01*
G01*
X10805Y7874D02*
G03*
X10805Y7874I-80J0D01*
G01*
X11697Y8545D02*
G03*
X11697Y8545I-80J0D01*
G01*
X11419Y8798D02*
G03*
X11419Y8798I-80J0D01*
G01*
X11567Y8936D02*
G03*
X11567Y8936I-80J0D01*
G01*
X11422Y7932D02*
G03*
X11422Y7932I-80J0D01*
G01*
X9135Y8543D02*
G03*
X9135Y8543I-80J0D01*
G01*
X9391D02*
G03*
X9391Y8543I-80J0D01*
G01*
Y8799D02*
G03*
X9391Y8799I-80J0D01*
G01*
X11282Y6094D02*
G03*
X11282Y6094I-80J0D01*
G01*
X18545Y7124D02*
G03*
X18545Y7124I-80J0D01*
G01*
X18411Y6602D02*
G03*
X18411Y6602I-80J0D01*
G01*
X7871Y8275D02*
G03*
X7871Y8275I-80J0D01*
G01*
X8016Y8167D02*
G03*
X8016Y8167I-80J0D01*
G01*
X9783Y4960D02*
G03*
X9783Y4960I-80J0D01*
G01*
X9391Y6496D02*
G03*
X9391Y6496I-80J0D01*
G01*
Y7008D02*
G03*
X9391Y7008I-80J0D01*
G01*
X2725Y11219D02*
G03*
X2725Y11219I-80J0D01*
G01*
X4726Y4213D02*
G03*
X4726Y4213I-80J0D01*
G01*
X8112Y7024D02*
G03*
X8112Y7024I-80J0D01*
G01*
X7984Y7133D02*
G03*
X7984Y7133I-80J0D01*
G01*
X8231Y6357D02*
G03*
X8231Y6357I-80J0D01*
G01*
X7753Y7005D02*
G03*
X7753Y7005I-80J0D01*
G01*
X7467Y6626D02*
G03*
X7467Y6626I-80J0D01*
G01*
X8530Y7937D02*
G03*
X8530Y7937I-80J0D01*
G01*
X3308Y11535D02*
G03*
X3308Y11535I-80J0D01*
G01*
X21758Y7502D02*
G03*
X21758Y7502I-80J0D01*
G01*
X21929D02*
G03*
X21929Y7502I-80J0D01*
G01*
X25890Y6637D02*
G03*
X25890Y6637I-80J0D01*
G01*
X26743Y5344D02*
G03*
X26743Y5344I-80J0D01*
G01*
X26908Y5342D02*
G03*
X26908Y5342I-80J0D01*
G01*
X26743Y5187D02*
G03*
X26743Y5187I-80J0D01*
G01*
X26901D02*
G03*
X26901Y5187I-80J0D01*
G01*
X20558Y5596D02*
G03*
X20558Y5596I-80J0D01*
G01*
Y5792D02*
G03*
X20558Y5792I-80J0D01*
G01*
Y5989D02*
G03*
X20558Y5989I-80J0D01*
G01*
X11442Y6584D02*
G03*
X11442Y6584I-80J0D01*
G01*
X11306Y5601D02*
G03*
X11306Y5601I-80J0D01*
G01*
X11497Y2915D02*
G03*
X11497Y2915I-80J0D01*
G01*
X11725Y2842D02*
G03*
X11725Y2842I-80J0D01*
G01*
X2718Y4803D02*
G03*
X2718Y4803I-80J0D01*
G01*
X4096Y5394D02*
G03*
X4096Y5394I-80J0D01*
G01*
X4293Y5591D02*
G03*
X4293Y5591I-80J0D01*
G01*
X23818Y3803D02*
G03*
X23818Y3803I-80J0D01*
G01*
X16380Y10750D02*
G03*
X16380Y10750I-80J0D01*
G01*
X14830D02*
G03*
X14830Y10750I-80J0D01*
G01*
X17718Y8386D02*
G03*
X17718Y8386I-80J0D01*
G01*
Y8622D02*
G03*
X17718Y8622I-80J0D01*
G01*
Y8858D02*
G03*
X17718Y8858I-80J0D01*
G01*
Y9094D02*
G03*
X17718Y9094I-80J0D01*
G01*
X4180Y4300D02*
G03*
X4180Y4300I-80J0D01*
G01*
X16537Y7563D02*
G03*
X16537Y7563I-80J0D01*
G01*
X15925Y6241D02*
G03*
X15925Y6241I-80J0D01*
G01*
X14265Y5265D02*
G03*
X14265Y5265I-80J0D01*
G01*
X15358Y7956D02*
G03*
X15358Y7956I-80J0D01*
G01*
X15589Y7635D02*
G03*
X15589Y7635I-80J0D01*
G01*
X11075Y6105D02*
G03*
X11075Y6105I-80J0D01*
G01*
X16312Y7408D02*
G03*
X16312Y7408I-80J0D01*
G01*
X17719Y4561D02*
G03*
X17719Y4561I-80J0D01*
G01*
X17324Y4094D02*
G03*
X17324Y4094I-80J0D01*
G01*
X16694Y5394D02*
G03*
X16694Y5394I-80J0D01*
G01*
X20680Y9887D02*
G03*
X20680Y9887I-80J0D01*
G01*
X20791Y10368D02*
G03*
X20791Y10368I-80J0D01*
G01*
X20949Y10525D02*
G03*
X20949Y10525I-80J0D01*
G01*
X20791D02*
G03*
X20791Y10525I-80J0D01*
G01*
X20949Y10368D02*
G03*
X20949Y10368I-80J0D01*
G01*
X7470Y6113D02*
G03*
X7470Y6113I-80J0D01*
G01*
X8320Y6585D02*
G03*
X8320Y6585I-80J0D01*
G01*
X10159Y5472D02*
G03*
X10159Y5472I-80J0D01*
G01*
X21353Y8038D02*
G03*
X21353Y8038I-80J0D01*
G01*
Y8196D02*
G03*
X21353Y8196I-80J0D01*
G01*
X21511D02*
G03*
X21511Y8196I-80J0D01*
G01*
Y8038D02*
G03*
X21511Y8038I-80J0D01*
G01*
X12363Y7008D02*
G03*
X12363Y7008I-80J0D01*
G01*
X10025Y7654D02*
G03*
X10025Y7654I-80J0D01*
G01*
X9513Y6118D02*
G03*
X9513Y6118I-80J0D01*
G01*
X10280Y6886D02*
G03*
X10280Y6886I-80J0D01*
G01*
X9769Y7398D02*
G03*
X9769Y7398I-80J0D01*
G01*
X10280D02*
G03*
X10280Y7398I-80J0D01*
G01*
X10025Y6618D02*
G03*
X10025Y6618I-80J0D01*
G01*
Y7130D02*
G03*
X10025Y7130I-80J0D01*
G01*
X9769Y6874D02*
G03*
X9769Y6874I-80J0D01*
G01*
X11562Y4092D02*
G03*
X11562Y4092I-80J0D01*
G01*
X11304Y4116D02*
G03*
X11304Y4116I-80J0D01*
G01*
X22929Y6910D02*
G03*
X22929Y6910I-80J0D01*
G01*
X13780Y3734D02*
G03*
X13780Y3734I-80J0D01*
G01*
X22954Y7638D02*
G03*
X22954Y7638I-80J0D01*
G01*
X11055Y5597D02*
G03*
X11055Y5597I-80J0D01*
G01*
X9351Y5472D02*
G03*
X9351Y5472I-80J0D01*
G01*
X10030Y4850D02*
G03*
X10030Y4850I-80J0D01*
G01*
X9773Y4571D02*
G03*
X9773Y4571I-80J0D01*
G01*
X10029D02*
G03*
X10029Y4571I-80J0D01*
G01*
X10969Y5848D02*
G03*
X10969Y5848I-80J0D01*
G01*
X23348Y9331D02*
G03*
X23348Y9331I-80J0D01*
G01*
X22382Y5613D02*
G03*
X22382Y5613I-80J0D01*
G01*
X25474Y10433D02*
G03*
X25474Y10433I-80J0D01*
G01*
X22101Y7502D02*
G03*
X22101Y7502I-80J0D01*
G01*
X15907Y9528D02*
G03*
X15907Y9528I-80J0D01*
G01*
X15902Y9208D02*
G03*
X15902Y9208I-80J0D01*
G01*
X10655Y8783D02*
G03*
X10655Y8783I-80J0D01*
G01*
X10789Y8937D02*
G03*
X10789Y8937I-80J0D01*
G01*
X10808Y8661D02*
G03*
X10808Y8661I-80J0D01*
G01*
X10796Y9177D02*
G03*
X10796Y9177I-80J0D01*
G01*
X10926Y9311D02*
G03*
X10926Y9311I-80J0D01*
G01*
X15907Y7953D02*
G03*
X15907Y7953I-80J0D01*
G01*
X15592D02*
G03*
X15592Y7953I-80J0D01*
G01*
X10415Y9311D02*
G03*
X10415Y9311I-80J0D01*
G01*
Y9055D02*
G03*
X10415Y9055I-80J0D01*
G01*
X14174Y9685D02*
G03*
X14174Y9685I-80J0D01*
G01*
X16546Y9528D02*
G03*
X16546Y9528I-80J0D01*
G01*
X15277Y9213D02*
G03*
X15277Y9213I-80J0D01*
G01*
X14608Y7344D02*
G03*
X14608Y7344I-80J0D01*
G01*
X11950Y5217D02*
G03*
X11950Y5217I-80J0D01*
G01*
X11574Y5079D02*
G03*
X11574Y5079I-80J0D01*
G01*
X22375Y5853D02*
G03*
X22375Y5853I-80J0D01*
G01*
X22377Y5365D02*
G03*
X22377Y5365I-80J0D01*
G01*
X22363Y5083D02*
G03*
X22363Y5083I-80J0D01*
G01*
X21615Y5551D02*
G03*
X21615Y5551I-80J0D01*
G01*
Y5315D02*
G03*
X21615Y5315I-80J0D01*
G01*
X11319Y5067D02*
G03*
X11319Y5067I-80J0D01*
G01*
X11813Y4092D02*
G03*
X11813Y4092I-80J0D01*
G01*
X8410Y1969D02*
G03*
X8410Y1969I-80J0D01*
G01*
X17161Y7302D02*
G03*
X17161Y7302I-80J0D01*
G01*
X17324Y8386D02*
G03*
X17324Y8386I-80J0D01*
G01*
X16694Y9685D02*
G03*
X16694Y9685I-80J0D01*
G01*
X16064Y9370D02*
G03*
X16064Y9370I-80J0D01*
G01*
X15917Y9850D02*
G03*
X15917Y9850I-80J0D01*
G01*
X17639Y9685D02*
G03*
X17639Y9685I-80J0D01*
G01*
X16528Y3346D02*
G03*
X16528Y3346I-80J0D01*
G01*
X15907Y5551D02*
G03*
X15907Y5551I-80J0D01*
G01*
X15606Y5534D02*
G03*
X15606Y5534I-80J0D01*
G01*
X16189Y5566D02*
G03*
X16189Y5566I-80J0D01*
G01*
X16590Y5226D02*
G03*
X16590Y5226I-80J0D01*
G01*
X16206Y5240D02*
G03*
X16206Y5240I-80J0D01*
G01*
X15230Y4000D02*
G03*
X15230Y4000I-80J0D01*
G01*
X14180Y5900D02*
G03*
X14180Y5900I-80J0D01*
G01*
X11964Y7931D02*
G03*
X11964Y7931I-80J0D01*
G01*
X15907Y3661D02*
G03*
X15907Y3661I-80J0D01*
G01*
X12097Y7828D02*
G03*
X12097Y7828I-80J0D01*
G01*
X15592Y3661D02*
G03*
X15592Y3661I-80J0D01*
G01*
X15530Y4650D02*
G03*
X15530Y4650I-80J0D01*
G01*
X16753Y6071D02*
G03*
X16753Y6071I-80J0D01*
G01*
X17022Y6043D02*
G03*
X17022Y6043I-80J0D01*
G01*
X16868Y6485D02*
G03*
X16868Y6485I-80J0D01*
G01*
X10534Y8199D02*
G03*
X10534Y8199I-80J0D01*
G01*
X11300Y8050D02*
G03*
X11300Y8050I-80J0D01*
G01*
X11044Y8644D02*
G03*
X11044Y8644I-80J0D01*
G01*
X10296Y8420D02*
G03*
X10296Y8420I-80J0D01*
G01*
X10557Y7912D02*
G03*
X10557Y7912I-80J0D01*
G01*
X9980Y8450D02*
G03*
X9980Y8450I-80J0D01*
G01*
X16222Y7638D02*
G03*
X16222Y7638I-80J0D01*
G01*
X14637Y7616D02*
G03*
X14637Y7616I-80J0D01*
G01*
X14489Y8110D02*
G03*
X14489Y8110I-80J0D01*
G01*
X19119Y6130D02*
G03*
X19119Y6130I-80J0D01*
G01*
X19003Y6296D02*
G03*
X19003Y6296I-80J0D01*
G01*
X16419Y4606D02*
G03*
X16419Y4606I-80J0D01*
G01*
X16843Y3346D02*
G03*
X16843Y3346I-80J0D01*
G01*
X16230Y3350D02*
G03*
X16230Y3350I-80J0D01*
G01*
X17993Y6564D02*
G03*
X17993Y6564I-80J0D01*
G01*
X24785Y2118D02*
G03*
X24785Y2118I-80J0D01*
G01*
X25470Y4679D02*
G03*
X25470Y4679I-80J0D01*
G01*
X25513Y4961D02*
G03*
X25513Y4961I-80J0D01*
G01*
X25115Y7273D02*
G03*
X25115Y7273I-80J0D01*
G01*
X25001Y7497D02*
G03*
X25001Y7497I-80J0D01*
G01*
X24763Y6919D02*
G03*
X24763Y6919I-80J0D01*
G01*
X15631Y4331D02*
G03*
X15631Y4331I-80J0D01*
G01*
X15631Y8622D02*
G03*
X15631Y8622I-80J0D01*
G01*
X12004Y9077D02*
G03*
X12004Y9077I-80J0D01*
G01*
X15474Y8740D02*
G03*
X15474Y8740I-80J0D01*
G01*
X12042Y8874D02*
G03*
X12042Y8874I-80J0D01*
G01*
X15474Y4449D02*
G03*
X15474Y4449I-80J0D01*
G01*
X14905Y6852D02*
G03*
X14905Y6852I-80J0D01*
G01*
X15104D02*
G03*
X15104Y6852I-80J0D01*
G01*
X6832Y5984D02*
G03*
X6832Y5984I-80J0D01*
G01*
Y5728D02*
G03*
X6832Y5728I-80J0D01*
G01*
Y5217D02*
G03*
X6832Y5217I-80J0D01*
G01*
X7088D02*
G03*
X7088Y5217I-80J0D01*
G01*
X8879Y4449D02*
G03*
X8879Y4449I-80J0D01*
G01*
Y4193D02*
G03*
X8879Y4193I-80J0D01*
G01*
X8367Y4449D02*
G03*
X8367Y4449I-80J0D01*
G01*
X8623D02*
G03*
X8623Y4449I-80J0D01*
G01*
X8112Y4193D02*
G03*
X8112Y4193I-80J0D01*
G01*
X8367D02*
G03*
X8367Y4193I-80J0D01*
G01*
X11300Y8937D02*
G03*
X11300Y8937I-80J0D01*
G01*
X11352Y9231D02*
G03*
X11352Y9231I-80J0D01*
G01*
X12285Y9055D02*
G03*
X12285Y9055I-80J0D01*
G01*
X11796Y8284D02*
G03*
X11796Y8284I-80J0D01*
G01*
X11220Y8442D02*
G03*
X11220Y8442I-80J0D01*
G01*
X11045Y9449D02*
G03*
X11045Y9449I-80J0D01*
G01*
X11812Y9213D02*
G03*
X11812Y9213I-80J0D01*
G01*
X15305Y5264D02*
G03*
X15305Y5264I-80J0D01*
G01*
X3502Y6199D02*
G03*
X3502Y6199I-80J0D01*
G01*
X3313Y6198D02*
G03*
X3313Y6198I-80J0D01*
G01*
X11561Y5846D02*
G03*
X11561Y5846I-80J0D01*
G01*
X8757Y4588D02*
G03*
X8757Y4588I-80J0D01*
G01*
X10415Y5728D02*
G03*
X10415Y5728I-80J0D01*
G01*
X8879Y8031D02*
G03*
X8879Y8031I-80J0D01*
G01*
X4490Y5609D02*
G03*
X4490Y5609I-80J0D01*
G01*
X1232Y9595D02*
G03*
X1232Y9595I-80J0D01*
G01*
X4608Y4213D02*
G03*
X4608Y4213I-80J0D01*
G01*
Y4094D02*
G03*
X4608Y4094I-80J0D01*
G01*
X4726D02*
G03*
X4726Y4094I-80J0D01*
G01*
X3938Y6544D02*
G03*
X3938Y6544I-80J0D01*
G01*
X3787Y6543D02*
G03*
X3787Y6543I-80J0D01*
G01*
X2915Y5000D02*
G03*
X2915Y5000I-80J0D01*
G01*
X3308Y4606D02*
G03*
X3308Y4606I-80J0D01*
G01*
X3111Y5000D02*
G03*
X3111Y5000I-80J0D01*
G01*
X7990Y7389D02*
G03*
X7990Y7389I-80J0D01*
G01*
X7722Y7396D02*
G03*
X7722Y7396I-80J0D01*
G01*
X11940Y2710D02*
G03*
X11940Y2710I-80J0D01*
G01*
X12122Y2707D02*
G03*
X12122Y2707I-80J0D01*
G01*
X8238Y6112D02*
G03*
X8238Y6112I-80J0D01*
G01*
X4680Y6580D02*
G03*
X4680Y6580I-80J0D01*
G01*
X2718Y6772D02*
G03*
X2718Y6772I-80J0D01*
G01*
X7986Y6621D02*
G03*
X7986Y6621I-80J0D01*
G01*
X7738Y6625D02*
G03*
X7738Y6625I-80J0D01*
G01*
X7217Y6625D02*
G03*
X7217Y6625I-80J0D01*
G01*
X7473Y7393D02*
G03*
X7473Y7393I-80J0D01*
G01*
X7726Y7654D02*
G03*
X7726Y7654I-80J0D01*
G01*
X8545Y1535D02*
G03*
X8545Y1535I-80J0D01*
G01*
X8375D02*
G03*
X8375Y1535I-80J0D01*
G01*
X2524Y11379D02*
G03*
X2524Y11379I-80J0D01*
G01*
X7798Y5221D02*
G03*
X7798Y5221I-80J0D01*
G01*
X8373Y5468D02*
G03*
X8373Y5468I-80J0D01*
G01*
X9647Y5472D02*
G03*
X9647Y5472I-80J0D01*
G01*
X7728Y8668D02*
G03*
X7728Y8668I-80J0D01*
G01*
X13194Y2389D02*
G03*
X13194Y2389I-80J0D01*
G01*
X12830D02*
G03*
X12830Y2389I-80J0D01*
G01*
X7735Y5846D02*
G03*
X7735Y5846I-80J0D01*
G01*
X13009Y2389D02*
G03*
X13009Y2389I-80J0D01*
G01*
X8502Y6875D02*
G03*
X8502Y6875I-80J0D01*
G01*
X3505Y5000D02*
G03*
X3505Y5000I-80J0D01*
G01*
X3308D02*
G03*
X3308Y5000I-80J0D01*
G01*
X7466Y6344D02*
G03*
X7466Y6344I-80J0D01*
G01*
X7221Y6103D02*
G03*
X7221Y6103I-80J0D01*
G01*
X9966Y2044D02*
G03*
X9966Y2044I-80J0D01*
G01*
X10346D02*
G03*
X10346Y2044I-80J0D01*
G01*
X9448D02*
G03*
X9448Y2044I-80J0D01*
G01*
X9785D02*
G03*
X9785Y2044I-80J0D01*
G01*
X9617D02*
G03*
X9617Y2044I-80J0D01*
G01*
X9108D02*
G03*
X9108Y2044I-80J0D01*
G01*
X9276D02*
G03*
X9276Y2044I-80J0D01*
G01*
X8583D02*
G03*
X8583Y2044I-80J0D01*
G01*
X8939D02*
G03*
X8939Y2044I-80J0D01*
G01*
X8753D02*
G03*
X8753Y2044I-80J0D01*
G01*
X12274Y2389D02*
G03*
X12274Y2389I-80J0D01*
G01*
X12458D02*
G03*
X12458Y2389I-80J0D01*
G01*
X12642D02*
G03*
X12642Y2389I-80J0D01*
G01*
X10164Y2044D02*
G03*
X10164Y2044I-80J0D01*
G01*
X4096Y11535D02*
G03*
X4096Y11535I-80J0D01*
G01*
X6829Y5469D02*
G03*
X6829Y5469I-80J0D01*
G01*
X8623Y5728D02*
G03*
X8623Y5728I-80J0D01*
G01*
X11312Y6866D02*
G03*
X11312Y6866I-80J0D01*
G01*
X7737Y6121D02*
G03*
X7737Y6121I-80J0D01*
G01*
X10547Y7137D02*
G03*
X10547Y7137I-80J0D01*
G01*
X8623Y7520D02*
G03*
X8623Y7520I-80J0D01*
G01*
X9391D02*
G03*
X9391Y7520I-80J0D01*
G01*
X7856Y4449D02*
G03*
X7856Y4449I-80J0D01*
G01*
X8112D02*
G03*
X8112Y4449I-80J0D01*
G01*
X9273Y4828D02*
G03*
X9273Y4828I-80J0D01*
G01*
X9391Y8031D02*
G03*
X9391Y8031I-80J0D01*
G01*
X9903D02*
G03*
X9903Y8031I-80J0D01*
G01*
X25474Y10276D02*
G03*
X25474Y10276I-80J0D01*
G01*
X25946D02*
G03*
X25946Y10276I-80J0D01*
G01*
Y10433D02*
G03*
X25946Y10433I-80J0D01*
G01*
X25789Y10276D02*
G03*
X25789Y10276I-80J0D01*
G01*
Y10433D02*
G03*
X25789Y10433I-80J0D01*
G01*
X25631Y10276D02*
G03*
X25631Y10276I-80J0D01*
G01*
Y10433D02*
G03*
X25631Y10433I-80J0D01*
G01*
X6953Y8922D02*
G03*
X6953Y8922I-80J0D01*
G01*
X671Y10906D02*
G03*
X671Y10906I-80J0D01*
G01*
X1458D02*
G03*
X1458Y10906I-80J0D01*
G01*
X2245D02*
G03*
X2245Y10906I-80J0D01*
G01*
X26458Y11260D02*
G03*
X26458Y11260I-80J0D01*
G01*
X11568Y4578D02*
G03*
X11568Y4578I-80J0D01*
G01*
Y4322D02*
G03*
X11568Y4322I-80J0D01*
G01*
X11824Y4575D02*
G03*
X11824Y4575I-80J0D01*
G01*
Y4319D02*
G03*
X11824Y4319I-80J0D01*
G01*
X12080D02*
G03*
X12080Y4319I-80J0D01*
G01*
Y4575D02*
G03*
X12080Y4575I-80J0D01*
G01*
X8879Y7776D02*
G03*
X8879Y7776I-80J0D01*
G01*
X19486Y6284D02*
G03*
X19486Y6284I-80J0D01*
G01*
X10926Y8799D02*
G03*
X10926Y8799I-80J0D01*
G01*
X19615Y6509D02*
G03*
X19615Y6509I-80J0D01*
G01*
X19346Y6454D02*
G03*
X19346Y6454I-80J0D01*
G01*
X10521Y8921D02*
G03*
X10521Y8921I-80J0D01*
G01*
X10294Y8930D02*
G03*
X10294Y8930I-80J0D01*
G01*
X12042Y7272D02*
G03*
X12042Y7272I-80J0D01*
G01*
X12332Y7516D02*
G03*
X12332Y7516I-80J0D01*
G01*
X12594Y8329D02*
G03*
X12594Y8329I-80J0D01*
G01*
X12391Y8506D02*
G03*
X12391Y8506I-80J0D01*
G01*
X10797Y8168D02*
G03*
X10797Y8168I-80J0D01*
G01*
X15592Y5236D02*
G03*
X15592Y5236I-80J0D01*
G01*
X10027Y9196D02*
G03*
X10027Y9196I-80J0D01*
G01*
X10026Y8916D02*
G03*
X10026Y8916I-80J0D01*
G01*
X15119Y3819D02*
G03*
X15119Y3819I-80J0D01*
G01*
X15277Y4921D02*
G03*
X15277Y4921I-80J0D01*
G01*
X11694Y7520D02*
G03*
X11694Y7520I-80J0D01*
G01*
Y7008D02*
G03*
X11694Y7008I-80J0D01*
G01*
X18269Y6693D02*
G03*
X18269Y6693I-80J0D01*
G01*
X18679Y7015D02*
G03*
X18679Y7015I-80J0D01*
G01*
X16419Y8307D02*
G03*
X16419Y8307I-80J0D01*
G01*
X18820Y6692D02*
G03*
X18820Y6692I-80J0D01*
G01*
X18085Y6929D02*
G03*
X18085Y6929I-80J0D01*
G01*
X17573Y6870D02*
G03*
X17573Y6870I-80J0D01*
G01*
X19222Y6777D02*
G03*
X19222Y6777I-80J0D01*
G01*
X17856Y6310D02*
G03*
X17856Y6310I-80J0D01*
G01*
X17324Y4567D02*
G03*
X17324Y4567I-80J0D01*
G01*
Y4803D02*
G03*
X17324Y4803I-80J0D01*
G01*
Y4331D02*
G03*
X17324Y4331I-80J0D01*
G01*
X17718D02*
G03*
X17718Y4331I-80J0D01*
G01*
Y4094D02*
G03*
X17718Y4094I-80J0D01*
G01*
X16852Y9528D02*
G03*
X16852Y9528I-80J0D01*
G01*
X16852Y5236D02*
G03*
X16852Y5236I-80J0D01*
G01*
X15907D02*
G03*
X15907Y5236I-80J0D01*
G01*
X16222Y3661D02*
G03*
X16222Y3661I-80J0D01*
G01*
X15907Y3346D02*
G03*
X15907Y3346I-80J0D01*
G01*
X15592D02*
G03*
X15592Y3346I-80J0D01*
G01*
X15277Y3661D02*
G03*
X15277Y3661I-80J0D01*
G01*
X15592Y9213D02*
G03*
X15592Y9213I-80J0D01*
G01*
X15907Y7638D02*
G03*
X15907Y7638I-80J0D01*
G01*
X18899Y4803D02*
G03*
X18899Y4803I-80J0D01*
G01*
Y4567D02*
G03*
X18899Y4567I-80J0D01*
G01*
Y4331D02*
G03*
X18899Y4331I-80J0D01*
G01*
Y4094D02*
G03*
X18899Y4094I-80J0D01*
G01*
X18111D02*
G03*
X18111Y4094I-80J0D01*
G01*
Y4331D02*
G03*
X18111Y4331I-80J0D01*
G01*
Y4567D02*
G03*
X18111Y4567I-80J0D01*
G01*
Y4803D02*
G03*
X18111Y4803I-80J0D01*
G01*
X17718D02*
G03*
X17718Y4803I-80J0D01*
G01*
X16419Y4016D02*
G03*
X16419Y4016I-80J0D01*
G01*
Y4213D02*
G03*
X16419Y4213I-80J0D01*
G01*
X19293Y4094D02*
G03*
X19293Y4094I-80J0D01*
G01*
Y4331D02*
G03*
X19293Y4331I-80J0D01*
G01*
Y4567D02*
G03*
X19293Y4567I-80J0D01*
G01*
Y4803D02*
G03*
X19293Y4803I-80J0D01*
G01*
X18505D02*
G03*
X18505Y4803I-80J0D01*
G01*
Y4567D02*
G03*
X18505Y4567I-80J0D01*
G01*
Y4331D02*
G03*
X18505Y4331I-80J0D01*
G01*
Y4094D02*
G03*
X18505Y4094I-80J0D01*
G01*
X16891Y4016D02*
G03*
X16891Y4016I-80J0D01*
G01*
Y4606D02*
G03*
X16891Y4606I-80J0D01*
G01*
X16419Y4409D02*
G03*
X16419Y4409I-80J0D01*
G01*
X16891D02*
G03*
X16891Y4409I-80J0D01*
G01*
Y4213D02*
G03*
X16891Y4213I-80J0D01*
G01*
X16891Y8504D02*
G03*
X16891Y8504I-80J0D01*
G01*
X16419Y8701D02*
G03*
X16419Y8701I-80J0D01*
G01*
X16891Y8898D02*
G03*
X16891Y8898I-80J0D01*
G01*
X15631Y8386D02*
G03*
X15631Y8386I-80J0D01*
G01*
X15946D02*
G03*
X15946Y8386I-80J0D01*
G01*
Y8622D02*
G03*
X15946Y8622I-80J0D01*
G01*
X16891Y8307D02*
G03*
X16891Y8307I-80J0D01*
G01*
X17324Y9094D02*
G03*
X17324Y9094I-80J0D01*
G01*
Y8858D02*
G03*
X17324Y8858I-80J0D01*
G01*
Y8622D02*
G03*
X17324Y8622I-80J0D01*
G01*
X18505Y8386D02*
G03*
X18505Y8386I-80J0D01*
G01*
Y8622D02*
G03*
X18505Y8622I-80J0D01*
G01*
Y8858D02*
G03*
X18505Y8858I-80J0D01*
G01*
Y9094D02*
G03*
X18505Y9094I-80J0D01*
G01*
X19293D02*
G03*
X19293Y9094I-80J0D01*
G01*
Y8858D02*
G03*
X19293Y8858I-80J0D01*
G01*
Y8622D02*
G03*
X19293Y8622I-80J0D01*
G01*
Y8386D02*
G03*
X19293Y8386I-80J0D01*
G01*
X16419Y8504D02*
G03*
X16419Y8504I-80J0D01*
G01*
X18111Y9094D02*
G03*
X18111Y9094I-80J0D01*
G01*
Y8858D02*
G03*
X18111Y8858I-80J0D01*
G01*
Y8622D02*
G03*
X18111Y8622I-80J0D01*
G01*
Y8386D02*
G03*
X18111Y8386I-80J0D01*
G01*
X18899D02*
G03*
X18899Y8386I-80J0D01*
G01*
Y8622D02*
G03*
X18899Y8622I-80J0D01*
G01*
Y8858D02*
G03*
X18899Y8858I-80J0D01*
G01*
Y9094D02*
G03*
X18899Y9094I-80J0D01*
G01*
X8367Y4705D02*
G03*
X8367Y4705I-80J0D01*
G01*
X11182Y4961D02*
G03*
X11182Y4961I-80J0D01*
G01*
X7600Y5217D02*
G03*
X7600Y5217I-80J0D01*
G01*
Y7264D02*
G03*
X7600Y7264I-80J0D01*
G01*
X9647Y4449D02*
G03*
X9647Y4449I-80J0D01*
G01*
X8879Y8287D02*
G03*
X8879Y8287I-80J0D01*
G01*
X7856Y6496D02*
G03*
X7856Y6496I-80J0D01*
G01*
X7600D02*
G03*
X7600Y6496I-80J0D01*
G01*
X7344Y5728D02*
G03*
X7344Y5728I-80J0D01*
G01*
X7600Y5728D02*
G03*
X7600Y5728I-80J0D01*
G01*
X5245Y6618D02*
G03*
X5245Y6618I-80J0D01*
G01*
X5440Y6363D02*
G03*
X5440Y6363I-80J0D01*
G01*
X5248Y6176D02*
G03*
X5248Y6176I-80J0D01*
G01*
X5250Y6380D02*
G03*
X5250Y6380I-80J0D01*
G01*
X6069Y8275D02*
G03*
X6069Y8275I-80J0D01*
G01*
X5789Y8268D02*
G03*
X5789Y8268I-80J0D01*
G01*
X3111Y7165D02*
G03*
X3111Y7165I-80J0D01*
G01*
X2915D02*
G03*
X2915Y7165I-80J0D01*
G01*
X1576Y1969D02*
G03*
X1576Y1969I-80J0D01*
G01*
X1419Y2165D02*
G03*
X1419Y2165I-80J0D01*
G01*
X1062Y1848D02*
G03*
X1062Y1848I-80J0D01*
G01*
X1889Y2439D02*
G03*
X1889Y2439I-80J0D01*
G01*
X2204Y2124D02*
G03*
X2204Y2124I-80J0D01*
G01*
X2047Y2282D02*
G03*
X2047Y2282I-80J0D01*
G01*
X7088Y8287D02*
G03*
X7088Y8287I-80J0D01*
G01*
X7344D02*
G03*
X7344Y8287I-80J0D01*
G01*
X7600D02*
G03*
X7600Y8287I-80J0D01*
G01*
X7344Y8799D02*
G03*
X7344Y8799I-80J0D01*
G01*
X7088D02*
G03*
X7088Y8799I-80J0D01*
G01*
X3308Y7165D02*
G03*
X3308Y7165I-80J0D01*
G01*
X2718Y6969D02*
G03*
X2718Y6969I-80J0D01*
G01*
X2915D02*
G03*
X2915Y6969I-80J0D01*
G01*
X3505D02*
G03*
X3505Y6969I-80J0D01*
G01*
X3308D02*
G03*
X3308Y6969I-80J0D01*
G01*
X3111D02*
G03*
X3111Y6969I-80J0D01*
G01*
X4096Y10906D02*
G03*
X4096Y10906I-80J0D01*
G01*
X3308D02*
G03*
X3308Y10906I-80J0D01*
G01*
X8112Y9311D02*
G03*
X8112Y9311I-80J0D01*
G01*
X8623Y8287D02*
G03*
X8623Y8287I-80J0D01*
G01*
X7088Y9055D02*
G03*
X7088Y9055I-80J0D01*
G01*
X9135Y8287D02*
G03*
X9135Y8287I-80J0D01*
G01*
X8623Y8543D02*
G03*
X8623Y8543I-80J0D01*
G01*
X8112Y8799D02*
G03*
X8112Y8799I-80J0D01*
G01*
X7856D02*
G03*
X7856Y8799I-80J0D01*
G01*
Y9055D02*
G03*
X7856Y9055I-80J0D01*
G01*
X7344Y9311D02*
G03*
X7344Y9311I-80J0D01*
G01*
X7088Y5728D02*
G03*
X7088Y5728I-80J0D01*
G01*
Y5472D02*
G03*
X7088Y5472I-80J0D01*
G01*
Y5984D02*
G03*
X7088Y5984I-80J0D01*
G01*
Y6240D02*
G03*
X7088Y6240I-80J0D01*
G01*
X8623Y4705D02*
G03*
X8623Y4705I-80J0D01*
G01*
X8367Y5217D02*
G03*
X8367Y5217I-80J0D01*
G01*
X10159Y4449D02*
G03*
X10159Y4449I-80J0D01*
G01*
X9903Y4705D02*
G03*
X9903Y4705I-80J0D01*
G01*
X11438Y5217D02*
G03*
X11438Y5217I-80J0D01*
G01*
X11182Y4705D02*
G03*
X11182Y4705I-80J0D01*
G01*
X10671Y5984D02*
G03*
X10671Y5984I-80J0D01*
G01*
X10159D02*
G03*
X10159Y5984I-80J0D01*
G01*
X8367Y6240D02*
G03*
X8367Y6240I-80J0D01*
G01*
X8879Y5984D02*
G03*
X8879Y5984I-80J0D01*
G01*
X9135Y6752D02*
G03*
X9135Y6752I-80J0D01*
G01*
X8879Y6496D02*
G03*
X8879Y6496I-80J0D01*
G01*
X8623Y6752D02*
G03*
X8623Y6752I-80J0D01*
G01*
X8879Y7008D02*
G03*
X8879Y7008I-80J0D01*
G01*
X25454Y5209D02*
G03*
X25454Y5209I-80J0D01*
G01*
X26901Y5502D02*
G03*
X26901Y5502I-80J0D01*
G01*
X26743D02*
G03*
X26743Y5502I-80J0D01*
G01*
X23033Y9488D02*
G03*
X23033Y9488I-80J0D01*
G01*
Y9331D02*
G03*
X23033Y9331I-80J0D01*
G01*
X23190D02*
G03*
X23190Y9331I-80J0D01*
G01*
Y9488D02*
G03*
X23190Y9488I-80J0D01*
G01*
X23348D02*
G03*
X23348Y9488I-80J0D01*
G01*
X22718Y9331D02*
G03*
X22718Y9331I-80J0D01*
G01*
Y9488D02*
G03*
X22718Y9488I-80J0D01*
G01*
X22875D02*
G03*
X22875Y9488I-80J0D01*
G01*
Y9331D02*
G03*
X22875Y9331I-80J0D01*
G01*
X21495Y4375D02*
G03*
X21495Y4375I-80J0D01*
G01*
X21232Y4382D02*
G03*
X21232Y4382I-80J0D01*
G01*
X21778Y4212D02*
G03*
X21778Y4212I-80J0D01*
G01*
X20680Y6395D02*
G03*
X20680Y6395I-80J0D01*
G01*
X23741Y1378D02*
G03*
X23741Y1378I-80J0D01*
G01*
X23938D02*
G03*
X23938Y1378I-80J0D01*
G01*
X24202Y1389D02*
G03*
X24202Y1389I-80J0D01*
G01*
X25513Y5748D02*
G03*
X25513Y5748I-80J0D01*
G01*
X25635Y6080D02*
G03*
X25635Y6080I-80J0D01*
G01*
X25592Y5906D02*
G03*
X25592Y5906I-80J0D01*
G01*
X25671Y6614D02*
G03*
X25671Y6614I-80J0D01*
G01*
X24765Y5945D02*
G03*
X24765Y5945I-80J0D01*
G01*
Y6231D02*
G03*
X24765Y6231I-80J0D01*
G01*
X25720Y6830D02*
G03*
X25720Y6830I-80J0D01*
G01*
X24497Y6920D02*
G03*
X24497Y6920I-80J0D01*
G01*
X25492Y4398D02*
G03*
X25492Y4398I-80J0D01*
G01*
X25465Y4115D02*
G03*
X25465Y4115I-80J0D01*
G01*
X26734Y4606D02*
G03*
X26734Y4606I-80J0D01*
G01*
Y4449D02*
G03*
X26734Y4449I-80J0D01*
G01*
Y4291D02*
G03*
X26734Y4291I-80J0D01*
G01*
X23072Y1339D02*
G03*
X23072Y1339I-80J0D01*
G01*
Y1535D02*
G03*
X23072Y1535I-80J0D01*
G01*
X22717Y1340D02*
G03*
X22717Y1340I-80J0D01*
G01*
X22718Y1535D02*
G03*
X22718Y1535I-80J0D01*
G01*
X24731Y3528D02*
G03*
X24731Y3528I-80J0D01*
G01*
X24530Y3530D02*
G03*
X24530Y3530I-80J0D01*
G01*
X21479Y6334D02*
G03*
X21479Y6334I-80J0D01*
G01*
X21277Y6328D02*
G03*
X21277Y6328I-80J0D01*
G01*
X21477Y6528D02*
G03*
X21477Y6528I-80J0D01*
G01*
X21270Y6526D02*
G03*
X21270Y6526I-80J0D01*
G01*
X26891Y4449D02*
G03*
X26891Y4449I-80J0D01*
G01*
Y4606D02*
G03*
X26891Y4606I-80J0D01*
G01*
Y4291D02*
G03*
X26891Y4291I-80J0D01*
G01*
X26734Y4134D02*
G03*
X26734Y4134I-80J0D01*
G01*
X26891D02*
G03*
X26891Y4134I-80J0D01*
G01*
X22088Y1496D02*
G03*
X22088Y1496I-80J0D01*
G01*
X22442Y3740D02*
G03*
X22442Y3740I-80J0D01*
G01*
X23380Y1481D02*
G03*
X23380Y1481I-80J0D01*
G01*
X22442Y3504D02*
G03*
X22442Y3504I-80J0D01*
G01*
X25162Y3644D02*
G03*
X25162Y3644I-80J0D01*
G01*
X24726Y4528D02*
G03*
X24726Y4528I-80J0D01*
G01*
X26025Y3740D02*
G03*
X26025Y3740I-80J0D01*
G01*
X21970Y3976D02*
G03*
X21970Y3976I-80J0D01*
G01*
X23907Y2457D02*
G03*
X23907Y2457I-80J0D01*
G01*
X23269Y3386D02*
G03*
X23269Y3386I-80J0D01*
G01*
X24520Y3839D02*
G03*
X24520Y3839I-80J0D01*
G01*
X21734Y3740D02*
G03*
X21734Y3740I-80J0D01*
G01*
X22206Y3504D02*
G03*
X22206Y3504I-80J0D01*
G01*
X21970D02*
G03*
X21970Y3504I-80J0D01*
G01*
X21734D02*
G03*
X21734Y3504I-80J0D01*
G01*
X21970Y3740D02*
G03*
X21970Y3740I-80J0D01*
G01*
X22206D02*
G03*
X22206Y3740I-80J0D01*
G01*
X21062Y6523D02*
G03*
X21062Y6523I-80J0D01*
G01*
X21071Y6323D02*
G03*
X21071Y6323I-80J0D01*
G01*
X24044Y7887D02*
G03*
X24044Y7887I-80J0D01*
G01*
X23971Y7696D02*
G03*
X23971Y7696I-80J0D01*
G01*
X23825Y7850D02*
G03*
X23825Y7850I-80J0D01*
G01*
X24726Y7638D02*
G03*
X24726Y7638I-80J0D01*
G01*
X25237Y4213D02*
G03*
X25237Y4213I-80J0D01*
G01*
X24195Y1621D02*
G03*
X24195Y1621I-80J0D01*
G01*
X25333Y1394D02*
G03*
X25333Y1394I-80J0D01*
G01*
X25535Y1859D02*
G03*
X25535Y1859I-80J0D01*
G01*
X25333Y1861D02*
G03*
X25333Y1861I-80J0D01*
G01*
X25535Y1626D02*
G03*
X25535Y1626I-80J0D01*
G01*
Y1392D02*
G03*
X25535Y1392I-80J0D01*
G01*
X25333Y1627D02*
G03*
X25333Y1627I-80J0D01*
G01*
X24781Y1632D02*
G03*
X24781Y1632I-80J0D01*
G01*
Y1398D02*
G03*
X24781Y1398I-80J0D01*
G01*
Y1865D02*
G03*
X24781Y1865I-80J0D01*
G01*
X24983Y1863D02*
G03*
X24983Y1863I-80J0D01*
G01*
Y1397D02*
G03*
X24983Y1397I-80J0D01*
G01*
Y1630D02*
G03*
X24983Y1630I-80J0D01*
G01*
X26695Y1857D02*
G03*
X26695Y1857I-80J0D01*
G01*
X25917Y1623D02*
G03*
X25917Y1623I-80J0D01*
G01*
Y1390D02*
G03*
X25917Y1390I-80J0D01*
G01*
Y1857D02*
G03*
X25917Y1857I-80J0D01*
G01*
X26471Y1623D02*
G03*
X26471Y1623I-80J0D01*
G01*
X26692D02*
G03*
X26692Y1623I-80J0D01*
G01*
X26119Y1855D02*
G03*
X26119Y1855I-80J0D01*
G01*
Y1388D02*
G03*
X26119Y1388I-80J0D01*
G01*
Y1622D02*
G03*
X26119Y1622I-80J0D01*
G01*
X26474Y1857D02*
G03*
X26474Y1857I-80J0D01*
G01*
X26471Y1390D02*
G03*
X26471Y1390I-80J0D01*
G01*
X26692D02*
G03*
X26692Y1390I-80J0D01*
G01*
D91*
X24231Y6465D02*
Y6625D01*
X24391D01*
Y6465D01*
X24231D01*
X22548Y4782D02*
Y4942D01*
X22708D01*
Y4782D01*
X22548D01*
X24231D02*
Y4942D01*
X24391D01*
Y4782D01*
X24231D01*
X23109Y5343D02*
Y5503D01*
X23269D01*
Y5343D01*
X23109D01*
Y5904D02*
Y6064D01*
X23269D01*
Y5904D01*
X23109D01*
X23670Y6465D02*
Y6625D01*
X23830D01*
Y6465D01*
X23670D01*
X23109Y4782D02*
Y4942D01*
X23269D01*
Y4782D01*
X23109D01*
X23670Y5343D02*
Y5503D01*
X23830D01*
Y5343D01*
X23670D01*
Y5904D02*
Y6064D01*
X23830D01*
Y5904D01*
X23670D01*
X23109Y6465D02*
Y6625D01*
X23269D01*
Y6465D01*
X23109D01*
X24231Y5343D02*
Y5503D01*
X24391D01*
Y5343D01*
X24231D01*
X22548Y6465D02*
Y6625D01*
X22708D01*
Y6465D01*
X22548D01*
X23670Y4782D02*
Y4942D01*
X23830D01*
Y4782D01*
X23670D01*
X22548Y5904D02*
Y6064D01*
X22708D01*
Y5904D01*
X22548D01*
Y5343D02*
Y5503D01*
X22708D01*
Y5343D01*
X22548D01*
X24231Y5904D02*
Y6064D01*
X24391D01*
Y5904D01*
X24231D01*
M02*
