M48
;Layer_Color=9474304
;FILE_FORMAT=2:4
INCH,LZ
;TYPE=PLATED
T1F00S00C0.0079
T2F00S00C0.0118
%
T01
X000011Y00109
Y00124
Y00139
Y00154
X000982Y001848
X001496Y001969
X001339Y002165
X001809Y002439
X001967Y002282
X002124Y002124
X003602Y002889
Y003039
X003752
Y002889
X003902
Y003039
X004052
Y002889
X0036Y00375
X00325
X003228Y004606
X003228Y005
X003031
X002835Y005
X002638Y004803
X003425Y005
X003228Y005591
X003233Y006198
X003422Y006199
X003707Y006543
X003858Y006544
X0046Y00658
X005165Y006618
X00517Y00638
X00536Y006363
X005168Y006176
X00441Y005609
X004213Y005591
X004016Y005394
X0041Y0043
X004528Y004213
Y004094
X004646
Y004213
X003425Y006969
X003228
X003031
Y007165
X003228
X003425
X002835
Y006969
X002638
Y006772
X001152Y009445
X001002
Y009595
X000852
Y009445
X000702
Y009595
X001152
X001378Y010906
X002165
X002444Y011379
X002645Y011219
X003228Y010906
Y011535
X004016
Y010906
X00567Y010634
Y010484
X005709Y008268
X001697Y011396
X000859Y011398
X000591Y010906
X00582Y010634
Y010484
X00597
Y010634
X00612
Y010484
X007023Y009347
X007264Y009311
Y008799
X007008
Y009055
X006873Y008922
X007008Y008287
X007264
X00752
X007791Y008275
X007936Y008167
X008543Y008287
X008799
Y008031
Y007776
X00845Y007937
X008543Y00752
X00791Y007389
X007904Y007133
X007848Y006957
X007673Y007005
X008031Y007024
X007906Y006621
X007658Y006625
X007776Y006496
X00752
X007387Y006626
X007136Y006625
X007008Y00624
Y005984
X007141Y006103
X00739Y006113
X007386Y006344
X007657Y006121
X007655Y005846
X00752Y005728
X007264Y005728
X007008
X006752
Y005984
X006749Y005469
X006752Y005217
X007008
Y005472
X00752Y005217
X007718Y005221
X008287Y005217
X008293Y005468
X008543Y005728
X008799Y005984
Y006496
X008543Y006752
X008422Y006875
X00824Y006585
X008151Y006357
X008158Y006112
X008287Y00624
X009433Y006118
X009311Y006496
X009055Y006752
X009311Y007008
Y00752
X009689Y007398
X0102
Y006886
X009945Y00713
Y006618
X009689Y006874
X008799Y007008
X00752Y007264
X007642Y007396
X007393Y007393
X007646Y007654
X007648Y008668
X007776Y008799
Y009055
X008031Y009311
Y008799
X008543Y008543
X009055
X009311
Y008799
X009445Y008929
X009823Y008799
X009946Y008916
X009947Y009196
X010335Y009311
Y009055
X010441Y008921
X010214Y00893
X010709Y008937
X010716Y009177
X010846Y009311
X010965Y009449
X011272Y009231
X01122Y008937
X011339Y008798
X011487Y008936
X011617Y008545
X011716Y008284
X011884Y007931
X012017Y007828
X012252Y007516
X011962Y007272
X012283Y007008
X011614Y007008
Y00752
X011342Y007932
X01122Y00805
X01114Y008442
X010964Y008644
X010728Y008661
X010846Y008799
X010575Y008783
X010454Y008199
X010717Y008168
X010725Y007874
X010477Y007912
X009957Y008158
X009823Y008031
X0099Y00845
X010216Y00842
X009945Y007654
X009311Y008031
X009055Y008287
X010467Y007137
X010881Y006999
X011232Y006866
X011362Y006584
X011202Y006094
X010995Y006105
X010889Y005848
X010975Y005597
X011226Y005601
X011481Y005846
X011358Y005217
X011239Y005067
X011102Y004961
Y004705
X010797Y004768
X010723Y004571
X010079Y004449
X009949Y004571
X009693
X009567Y004449
X009823Y004705
X00995Y00485
X009703Y00496
X009193Y004828
X009271Y005472
X009567Y005472
X010079
X010335Y005728
X010079Y005984
X010591
Y006496
X011494Y005079
X011488Y004578
Y004322
X011482Y004092
X011733Y004092
X011744Y004319
Y004575
X012
Y004319
X011224Y004116
X011417Y002915
X011645Y002842
X01186Y00271
X012042Y002707
X012194Y002389
X012378
X012562
X01275
X012929
X013114
X013417Y001318
X013811Y001322
X014227Y001322
X015394Y0016
X015591
X01598
X016179
X016578
X016777
X017175
X017374
X018204Y001529
Y001379
X018354
Y001529
X018504
X018654
Y001379
X018504
X018504Y003189
X018425Y004094
Y004331
Y004567
Y004803
X018819
Y004567
Y004331
Y004094
X019213
Y004331
Y004567
Y004803
X019493Y004068
X018031Y004094
Y004331
Y004567
Y004803
X017638
X017639Y004561
X017638Y004331
Y004094
X017244
Y004331
Y004567
Y004803
X016811Y004606
Y004409
Y004213
Y004016
X016339
Y004213
Y004409
Y004606
X01651Y005226
X016772Y005236
X016614Y005394
X016126Y00524
X015827Y005236
Y005551
X016109Y005566
X015526Y005534
X015512Y005236
X015225Y005264
X015237Y005558
X015205Y005958
X015845Y006241
X016495Y006413
X016788Y006485
X017068Y006348
X017235Y006331
X01737Y006583
X017643Y00672
X017493Y00687
X018005Y006929
X018189Y006693
X018331Y006602
X017913Y006564
X017776Y00631
X017696Y005531
X016942Y006043
X016673Y006071
X01619Y006809
X016232Y007408
X016142Y007638
X015827Y007638
Y007953
X015512
X015278Y007956
X015509Y007635
X01567Y007336
X015973Y007259
X015386Y0072
X015024Y006852
X014825
X014706Y007258
X014528Y007344
X014557Y007616
X014409Y00811
X015551Y008386
Y008622
X015394Y00874
X015866Y008622
Y008386
X016339Y008307
Y008504
Y008701
X016811Y008504
Y008307
X017244Y008386
Y008622
Y008858
Y009094
X017638
Y008858
Y008622
Y008386
X018032
Y008622
Y008858
Y009094
X018425
Y008858
Y008622
Y008386
X018819
Y008622
Y008858
Y009094
X019213
Y008858
Y008622
Y008386
X019789Y008037
X019902Y008107
X019402Y007178
Y006989
X019142Y006777
X019266Y006454
X019406Y006284
X019535Y006509
X018923Y006296
X019039Y00613
X01874Y006692
X018599Y007015
X018465Y007124
X017081Y007302
X016457Y007563
X016811Y008898
X016772Y009528
X016466
X016614Y009685
X015837Y00985
X015827Y009528
X015984Y00937
X015822Y009208
X015512Y009213
X015197
X01525Y01025
Y0104
X0154
Y01025
X01555
Y0104
X0157
Y01025
X0163Y01075
X01475
X014345Y010085
X014095Y009685
X012205Y009055
X011924Y009077
X011962Y008874
X011732Y009213
X012311Y008506
X012514Y008329
X01187Y005217
X014184Y005265
X014294Y004754
X015197Y004921
X01545Y00465
X015394Y004449
X015551Y004331
X015512Y003661
X015197
X015039Y003819
X01515Y004
X015827Y003661
X016142
X01615Y00335
X016448Y003346
X016763
X017117Y002957
X017739Y002947
X015984Y003189
X015837Y003089
X015827Y003346
X015512
X015607Y002966
X015414Y002921
X015123Y002945
X014969
X014827
X014643Y002946
X014493Y002948
X0137Y003734
X0141Y0059
X020478Y005989
Y005792
Y005596
X0206Y006395
X020991Y006323
X020982Y006523
X02119Y006526
X021197Y006328
X021399Y006334
X021397Y006528
X021273Y008038
Y008196
X0206Y009887
X020711Y010368
Y010525
X020869
Y010368
X019326Y009711
X01933Y009364
X017559Y009685
X021152Y004382
X02092Y002396
Y002246
Y002096
Y001946
X010266Y002044
X010084
X009886
X009705
X009537
X009368
X009196
X009028
X008859
X008673
X008503
X00833Y001969
X008295Y001535
X008465
X008287Y004193
X008031
Y004449
X008287
Y004705
X008543Y004705
X008677Y004588
X008799Y004449
X008543
X008799Y004193
X007776Y004449
X005989Y008275
X02143Y008196
Y008038
X021678Y007502
X021849
X02202
X022874Y007638
X023116Y007636
X023891Y007696
X023964Y007887
X023745Y00785
X024646Y007638
X024921Y007497
X025035Y007273
X024683Y006919
X024665Y006693
X024417Y00692
X024685Y006231
Y005945
X025512Y005906
X025555Y00608
X025433Y005748
X025374Y005209
X025433Y004961
X02539Y004679
X025412Y004398
X025385Y004115
X025157Y004213
X025082Y003644
X025334
X025595Y003637
X025945Y00374
X026654Y004134
Y004291
Y004449
Y004606
X026811
Y004449
Y004291
Y004134
X026821Y005187
X026663
Y005344
Y005502
X026821
X026828Y005342
X02581Y006637
X025591Y006614
X02564Y00683
X022849Y00691
X022295Y005853
X022302Y005613
X022297Y005365
X022283Y005083
X021535Y005315
Y005551
X021415Y004375
X021698Y004212
X02189Y003976
Y00374
X021654
Y003504
X02189
X022126
X022362
Y00374
X022126
X023189Y003386
X023738Y003803
X023971Y00378
X02444Y003839
X02445Y00353
X024651Y003528
X024646Y004528
X025067Y002549
X024705Y002118
X024701Y001865
X024903Y001863
Y00163
X024701Y001632
Y001398
X024903Y001397
X025253Y001394
X025455Y001392
Y001626
X025253Y001627
Y001861
X025455Y001859
X025837Y001857
X026039Y001855
Y001622
X025837Y001623
Y00139
X026039Y001388
X026391Y00139
X026612
Y001623
X026391
X026394Y001857
X026615
X024115Y001621
X024122Y001389
X023858Y001378
X023661
X0233Y001481
X022992Y001535
Y001339
X022637Y00134
X022638Y001535
X022008Y001496
X021993Y002202
X022205Y002205
X021778Y002206
X023827Y002457
X024006Y009533
Y009683
Y009833
X024156
Y009983
X024006
X024156Y009683
Y009533
X023268Y009488
Y009331
X02311
X022953
Y009488
X02311
X022795
X022638
Y009331
X022795
X022143Y008867
X025394Y010276
Y010433
X025551
X025709
X025866
Y010276
X025709
X025551
X026378Y01126
X026806Y009646
Y009496
Y009346
Y009196
T02
X022628Y004862
X023189
X02375
X024311
Y005423
X02375
X023189
Y005984
X02375
Y006545
X024311
Y005984
X023189Y006545
X022628
Y005984
Y005423
M30
