G04*
G04 #@! TF.GenerationSoftware,Altium Limited,Altium Designer,22.5.1 (42)*
G04*
G04 Layer_Color=32896*
%FSLAX24Y24*%
%MOIN*%
G70*
G04*
G04 #@! TF.SameCoordinates,15B8646E-C553-4937-87EE-17013A6B0CAB*
G04*
G04*
G04 #@! TF.FilePolarity,Positive*
G04*
G01*
G75*
%ADD10C,0.0079*%
%ADD13C,0.0050*%
G36*
X5501Y9921D02*
Y9913D01*
Y9904D01*
Y9896D01*
Y9887D01*
Y9879D01*
Y9870D01*
Y9862D01*
Y9853D01*
Y9845D01*
Y9836D01*
Y9828D01*
Y9819D01*
Y9811D01*
Y9802D01*
Y9794D01*
X5493D01*
Y9785D01*
Y9777D01*
Y9768D01*
Y9760D01*
Y9751D01*
Y9743D01*
Y9735D01*
Y9726D01*
Y9718D01*
Y9709D01*
Y9701D01*
Y9692D01*
Y9684D01*
Y9675D01*
Y9667D01*
Y9658D01*
Y9650D01*
Y9641D01*
Y9633D01*
Y9624D01*
Y9616D01*
Y9607D01*
Y9599D01*
Y9590D01*
Y9582D01*
Y9573D01*
Y9565D01*
Y9556D01*
Y9548D01*
Y9539D01*
Y9531D01*
Y9523D01*
Y9514D01*
Y9506D01*
Y9497D01*
Y9489D01*
Y9480D01*
Y9472D01*
Y9463D01*
Y9455D01*
Y9446D01*
Y9438D01*
Y9429D01*
Y9421D01*
Y9412D01*
Y9404D01*
Y9395D01*
Y9387D01*
Y9378D01*
Y9370D01*
Y9361D01*
Y9353D01*
Y9344D01*
Y9336D01*
Y9327D01*
Y9319D01*
Y9311D01*
Y9302D01*
Y9294D01*
Y9285D01*
Y9277D01*
Y9268D01*
Y9260D01*
Y9251D01*
Y9243D01*
Y9234D01*
Y9226D01*
Y9217D01*
Y9209D01*
Y9200D01*
Y9192D01*
Y9183D01*
Y9175D01*
Y9166D01*
Y9158D01*
Y9149D01*
Y9141D01*
Y9132D01*
Y9124D01*
Y9116D01*
Y9107D01*
Y9099D01*
Y9090D01*
Y9082D01*
Y9073D01*
Y9065D01*
Y9056D01*
Y9048D01*
Y9039D01*
Y9031D01*
Y9022D01*
Y9014D01*
Y9005D01*
Y8997D01*
Y8988D01*
Y8980D01*
Y8971D01*
Y8963D01*
Y8954D01*
Y8946D01*
Y8937D01*
Y8929D01*
Y8920D01*
Y8912D01*
Y8904D01*
Y8895D01*
Y8887D01*
Y8878D01*
Y8870D01*
Y8861D01*
Y8853D01*
Y8844D01*
Y8836D01*
Y8827D01*
Y8819D01*
Y8810D01*
Y8802D01*
Y8793D01*
Y8785D01*
Y8776D01*
Y8768D01*
Y8759D01*
Y8751D01*
Y8742D01*
Y8734D01*
Y8725D01*
Y8717D01*
Y8708D01*
Y8700D01*
Y8692D01*
Y8683D01*
Y8675D01*
Y8666D01*
Y8658D01*
Y8649D01*
Y8641D01*
Y8632D01*
Y8624D01*
Y8615D01*
Y8607D01*
Y8598D01*
Y8590D01*
Y8581D01*
Y8573D01*
Y8564D01*
Y8556D01*
Y8547D01*
Y8539D01*
Y8530D01*
Y8522D01*
X5501D01*
Y8513D01*
Y8505D01*
Y8496D01*
Y8488D01*
Y8480D01*
Y8471D01*
Y8463D01*
Y8454D01*
Y8446D01*
Y8437D01*
Y8429D01*
Y8420D01*
Y8412D01*
Y8403D01*
Y8395D01*
Y8386D01*
Y8378D01*
Y8369D01*
Y8361D01*
Y8352D01*
Y8344D01*
Y8335D01*
Y8327D01*
Y8318D01*
X5510D01*
Y8310D01*
Y8301D01*
Y8293D01*
Y8284D01*
Y8276D01*
Y8268D01*
Y8259D01*
Y8251D01*
Y8242D01*
Y8234D01*
Y8225D01*
Y8217D01*
Y8208D01*
Y8200D01*
Y8191D01*
Y8183D01*
X5518D01*
Y8174D01*
Y8166D01*
Y8157D01*
Y8149D01*
Y8140D01*
Y8132D01*
Y8123D01*
Y8115D01*
Y8106D01*
Y8098D01*
Y8089D01*
Y8081D01*
X5527D01*
Y8073D01*
Y8064D01*
Y8056D01*
Y8047D01*
Y8039D01*
Y8030D01*
Y8022D01*
Y8013D01*
Y8005D01*
Y7996D01*
X5535D01*
Y7988D01*
Y7979D01*
Y7971D01*
Y7962D01*
Y7954D01*
Y7945D01*
Y7937D01*
Y7928D01*
X5544D01*
Y7920D01*
Y7911D01*
Y7903D01*
Y7894D01*
Y7886D01*
Y7877D01*
Y7869D01*
Y7861D01*
X5552D01*
Y7852D01*
Y7844D01*
Y7835D01*
Y7827D01*
Y7818D01*
Y7810D01*
X5561D01*
Y7801D01*
Y7793D01*
Y7784D01*
Y7776D01*
Y7767D01*
X5569D01*
Y7759D01*
Y7750D01*
Y7742D01*
Y7733D01*
Y7725D01*
X5577D01*
Y7716D01*
Y7708D01*
Y7699D01*
X5586D01*
Y7691D01*
X5323D01*
Y7699D01*
Y7708D01*
Y7716D01*
Y7725D01*
Y7733D01*
Y7742D01*
Y7750D01*
Y7759D01*
Y7767D01*
Y7776D01*
Y7784D01*
Y7793D01*
Y7801D01*
Y7810D01*
Y7818D01*
Y7827D01*
Y7835D01*
Y7844D01*
Y7852D01*
Y7861D01*
Y7869D01*
Y7877D01*
Y7886D01*
Y7894D01*
Y7903D01*
X5315D01*
Y7911D01*
Y7920D01*
Y7928D01*
Y7937D01*
Y7945D01*
Y7954D01*
Y7962D01*
Y7971D01*
Y7979D01*
Y7988D01*
Y7996D01*
Y8005D01*
Y8013D01*
Y8022D01*
Y8030D01*
Y8039D01*
Y8047D01*
Y8056D01*
Y8064D01*
Y8073D01*
Y8081D01*
Y8089D01*
Y8098D01*
Y8106D01*
Y8115D01*
Y8123D01*
Y8132D01*
Y8140D01*
Y8149D01*
Y8157D01*
Y8166D01*
Y8174D01*
Y8183D01*
Y8191D01*
Y8200D01*
Y8208D01*
Y8217D01*
Y8225D01*
Y8234D01*
Y8242D01*
Y8251D01*
Y8259D01*
Y8268D01*
Y8276D01*
Y8284D01*
Y8293D01*
Y8301D01*
Y8310D01*
Y8318D01*
Y8327D01*
Y8335D01*
Y8344D01*
Y8352D01*
Y8361D01*
Y8369D01*
Y8378D01*
Y8386D01*
Y8395D01*
Y8403D01*
Y8412D01*
Y8420D01*
Y8429D01*
X5306D01*
Y8437D01*
Y8446D01*
Y8454D01*
Y8463D01*
Y8471D01*
Y8480D01*
X4950D01*
Y8471D01*
Y8463D01*
Y8454D01*
Y8446D01*
Y8437D01*
Y8429D01*
Y8420D01*
Y8412D01*
Y8403D01*
Y8395D01*
Y8386D01*
Y8378D01*
Y8369D01*
Y8361D01*
Y8352D01*
Y8344D01*
Y8335D01*
Y8327D01*
Y8318D01*
Y8310D01*
Y8301D01*
Y8293D01*
Y8284D01*
Y8276D01*
Y8268D01*
Y8259D01*
Y8251D01*
Y8242D01*
Y8234D01*
Y8225D01*
Y8217D01*
Y8208D01*
Y8200D01*
Y8191D01*
Y8183D01*
Y8174D01*
Y8166D01*
Y8157D01*
Y8149D01*
Y8140D01*
Y8132D01*
Y8123D01*
Y8115D01*
Y8106D01*
Y8098D01*
Y8089D01*
Y8081D01*
Y8073D01*
Y8064D01*
Y8056D01*
Y8047D01*
Y8039D01*
Y8030D01*
Y8022D01*
Y8013D01*
Y8005D01*
Y7996D01*
Y7988D01*
Y7979D01*
Y7971D01*
Y7962D01*
Y7954D01*
Y7945D01*
Y7937D01*
Y7928D01*
Y7920D01*
Y7911D01*
Y7903D01*
Y7894D01*
Y7886D01*
Y7877D01*
Y7869D01*
Y7861D01*
Y7852D01*
Y7844D01*
Y7835D01*
Y7827D01*
Y7818D01*
Y7810D01*
Y7801D01*
Y7793D01*
Y7784D01*
Y7776D01*
Y7767D01*
Y7759D01*
Y7750D01*
Y7742D01*
Y7733D01*
Y7725D01*
Y7716D01*
Y7708D01*
Y7699D01*
Y7691D01*
X4755D01*
Y7699D01*
Y7708D01*
Y7716D01*
Y7725D01*
Y7733D01*
Y7742D01*
Y7750D01*
Y7759D01*
Y7767D01*
Y7776D01*
Y7784D01*
Y7793D01*
Y7801D01*
Y7810D01*
Y7818D01*
Y7827D01*
Y7835D01*
Y7844D01*
Y7852D01*
Y7861D01*
Y7869D01*
Y7877D01*
Y7886D01*
Y7894D01*
Y7903D01*
Y7911D01*
Y7920D01*
Y7928D01*
Y7937D01*
Y7945D01*
Y7954D01*
Y7962D01*
Y7971D01*
Y7979D01*
Y7988D01*
Y7996D01*
Y8005D01*
Y8013D01*
Y8022D01*
Y8030D01*
Y8039D01*
Y8047D01*
Y8056D01*
Y8064D01*
Y8073D01*
Y8081D01*
Y8089D01*
Y8098D01*
Y8106D01*
Y8115D01*
Y8123D01*
Y8132D01*
Y8140D01*
Y8149D01*
Y8157D01*
Y8166D01*
Y8174D01*
Y8183D01*
Y8191D01*
Y8200D01*
Y8208D01*
Y8217D01*
Y8225D01*
Y8234D01*
Y8242D01*
Y8251D01*
Y8259D01*
Y8268D01*
Y8276D01*
Y8284D01*
Y8293D01*
Y8301D01*
Y8310D01*
Y8318D01*
Y8327D01*
Y8335D01*
Y8344D01*
Y8352D01*
Y8361D01*
Y8369D01*
Y8378D01*
Y8386D01*
Y8395D01*
Y8403D01*
Y8412D01*
Y8420D01*
Y8429D01*
Y8437D01*
Y8446D01*
Y8454D01*
Y8463D01*
Y8471D01*
Y8480D01*
Y8488D01*
Y8496D01*
Y8505D01*
Y8513D01*
Y8522D01*
Y8530D01*
Y8539D01*
Y8547D01*
Y8556D01*
Y8564D01*
Y8573D01*
Y8581D01*
Y8590D01*
Y8598D01*
Y8607D01*
Y8615D01*
Y8624D01*
Y8632D01*
Y8641D01*
Y8649D01*
Y8658D01*
Y8666D01*
Y8675D01*
Y8683D01*
Y8692D01*
Y8700D01*
Y8708D01*
Y8717D01*
Y8725D01*
Y8734D01*
Y8742D01*
Y8751D01*
Y8759D01*
Y8768D01*
Y8776D01*
Y8785D01*
Y8793D01*
Y8802D01*
Y8810D01*
Y8819D01*
Y8827D01*
Y8836D01*
Y8844D01*
Y8853D01*
Y8861D01*
Y8870D01*
Y8878D01*
Y8887D01*
Y8895D01*
Y8904D01*
Y8912D01*
Y8920D01*
Y8929D01*
Y8937D01*
Y8946D01*
Y8954D01*
Y8963D01*
Y8971D01*
Y8980D01*
Y8988D01*
Y8997D01*
Y9005D01*
Y9014D01*
Y9022D01*
Y9031D01*
Y9039D01*
Y9048D01*
Y9056D01*
Y9065D01*
Y9073D01*
Y9082D01*
Y9090D01*
Y9099D01*
Y9107D01*
Y9116D01*
Y9124D01*
Y9132D01*
Y9141D01*
Y9149D01*
Y9158D01*
Y9166D01*
Y9175D01*
Y9183D01*
Y9192D01*
Y9200D01*
Y9209D01*
Y9217D01*
Y9226D01*
Y9234D01*
Y9243D01*
Y9251D01*
Y9260D01*
Y9268D01*
Y9277D01*
Y9285D01*
Y9294D01*
Y9302D01*
Y9311D01*
Y9319D01*
Y9327D01*
Y9336D01*
Y9344D01*
Y9353D01*
Y9361D01*
Y9370D01*
Y9378D01*
Y9387D01*
Y9395D01*
Y9404D01*
Y9412D01*
Y9421D01*
Y9429D01*
Y9438D01*
Y9446D01*
Y9455D01*
Y9463D01*
Y9472D01*
Y9480D01*
Y9489D01*
Y9497D01*
Y9506D01*
Y9514D01*
Y9523D01*
Y9531D01*
Y9539D01*
Y9548D01*
Y9556D01*
Y9565D01*
Y9573D01*
Y9582D01*
Y9590D01*
Y9599D01*
Y9607D01*
Y9616D01*
Y9624D01*
Y9633D01*
Y9641D01*
Y9650D01*
Y9658D01*
Y9667D01*
Y9675D01*
Y9684D01*
Y9692D01*
Y9701D01*
Y9709D01*
Y9718D01*
Y9726D01*
Y9735D01*
Y9743D01*
Y9751D01*
Y9760D01*
Y9768D01*
Y9777D01*
X4746D01*
Y9785D01*
Y9794D01*
Y9802D01*
Y9811D01*
Y9819D01*
Y9828D01*
Y9836D01*
Y9845D01*
Y9853D01*
Y9862D01*
Y9870D01*
Y9879D01*
Y9887D01*
Y9896D01*
Y9904D01*
Y9913D01*
Y9921D01*
Y9930D01*
X4899D01*
Y9921D01*
X5349D01*
Y9930D01*
X5501D01*
Y9921D01*
D02*
G37*
G36*
X6171Y10074D02*
Y10065D01*
Y10057D01*
X6163D01*
Y10048D01*
Y10040D01*
Y10031D01*
Y10023D01*
Y10014D01*
Y10006D01*
Y9997D01*
Y9989D01*
Y9980D01*
Y9972D01*
Y9963D01*
Y9955D01*
Y9947D01*
Y9938D01*
Y9930D01*
Y9921D01*
Y9913D01*
Y9904D01*
Y9896D01*
Y9887D01*
Y9879D01*
Y9870D01*
Y9862D01*
Y9853D01*
Y9845D01*
Y9836D01*
Y9828D01*
Y9819D01*
Y9811D01*
Y9802D01*
Y9794D01*
Y9785D01*
Y9777D01*
Y9768D01*
Y9760D01*
Y9751D01*
Y9743D01*
Y9735D01*
Y9726D01*
Y9718D01*
Y9709D01*
Y9701D01*
Y9692D01*
Y9684D01*
Y9675D01*
Y9667D01*
Y9658D01*
Y9650D01*
Y9641D01*
Y9633D01*
Y9624D01*
Y9616D01*
Y9607D01*
Y9599D01*
Y9590D01*
Y9582D01*
Y9573D01*
Y9565D01*
Y9556D01*
Y9548D01*
Y9539D01*
Y9531D01*
Y9523D01*
Y9514D01*
Y9506D01*
Y9497D01*
Y9489D01*
Y9480D01*
Y9472D01*
Y9463D01*
Y9455D01*
X6222D01*
Y9463D01*
X6425D01*
Y9472D01*
X6485D01*
Y9463D01*
Y9455D01*
Y9446D01*
Y9438D01*
Y9429D01*
Y9421D01*
Y9412D01*
Y9404D01*
Y9395D01*
Y9387D01*
Y9378D01*
Y9370D01*
Y9361D01*
Y9353D01*
Y9344D01*
Y9336D01*
Y9327D01*
Y9319D01*
Y9311D01*
Y9302D01*
Y9294D01*
Y9285D01*
Y9277D01*
Y9268D01*
X6383D01*
Y9277D01*
X6163D01*
Y9268D01*
Y9260D01*
Y9251D01*
Y9243D01*
Y9234D01*
Y9226D01*
Y9217D01*
Y9209D01*
Y9200D01*
Y9192D01*
Y9183D01*
Y9175D01*
Y9166D01*
Y9158D01*
Y9149D01*
Y9141D01*
Y9132D01*
Y9124D01*
Y9116D01*
Y9107D01*
Y9099D01*
Y9090D01*
Y9082D01*
Y9073D01*
Y9065D01*
Y9056D01*
Y9048D01*
Y9039D01*
Y9031D01*
Y9022D01*
Y9014D01*
Y9005D01*
Y8997D01*
Y8988D01*
Y8980D01*
Y8971D01*
Y8963D01*
Y8954D01*
Y8946D01*
Y8937D01*
Y8929D01*
Y8920D01*
Y8912D01*
Y8904D01*
Y8895D01*
Y8887D01*
X6409D01*
Y8895D01*
X6451D01*
Y8887D01*
Y8878D01*
Y8870D01*
Y8861D01*
Y8853D01*
Y8844D01*
Y8836D01*
X6442D01*
Y8827D01*
Y8819D01*
Y8810D01*
Y8802D01*
Y8793D01*
Y8785D01*
Y8776D01*
Y8768D01*
Y8759D01*
Y8751D01*
Y8742D01*
Y8734D01*
Y8725D01*
Y8717D01*
Y8708D01*
X6434D01*
Y8700D01*
Y8692D01*
Y8683D01*
Y8675D01*
Y8666D01*
Y8658D01*
Y8649D01*
Y8641D01*
Y8632D01*
Y8624D01*
Y8615D01*
Y8607D01*
Y8598D01*
Y8590D01*
Y8581D01*
Y8573D01*
Y8564D01*
Y8556D01*
Y8547D01*
Y8539D01*
Y8530D01*
Y8522D01*
Y8513D01*
Y8505D01*
Y8496D01*
Y8488D01*
Y8480D01*
Y8471D01*
Y8463D01*
Y8454D01*
Y8446D01*
Y8437D01*
Y8429D01*
Y8420D01*
Y8412D01*
Y8403D01*
Y8395D01*
Y8386D01*
Y8378D01*
Y8369D01*
Y8361D01*
Y8352D01*
Y8344D01*
Y8335D01*
Y8327D01*
Y8318D01*
Y8310D01*
Y8301D01*
Y8293D01*
Y8284D01*
Y8276D01*
Y8268D01*
Y8259D01*
Y8251D01*
Y8242D01*
Y8234D01*
Y8225D01*
Y8217D01*
Y8208D01*
Y8200D01*
Y8191D01*
Y8183D01*
Y8174D01*
Y8166D01*
Y8157D01*
X6442D01*
Y8149D01*
Y8140D01*
Y8132D01*
Y8123D01*
Y8115D01*
Y8106D01*
Y8098D01*
Y8089D01*
Y8081D01*
Y8073D01*
Y8064D01*
Y8056D01*
Y8047D01*
Y8039D01*
Y8030D01*
Y8022D01*
X6451D01*
Y8013D01*
Y8005D01*
Y7996D01*
Y7988D01*
Y7979D01*
Y7971D01*
Y7962D01*
Y7954D01*
X6459D01*
Y7945D01*
Y7937D01*
Y7928D01*
Y7920D01*
Y7911D01*
Y7903D01*
X6468D01*
Y7894D01*
Y7886D01*
Y7877D01*
Y7869D01*
Y7861D01*
X6476D01*
Y7852D01*
Y7844D01*
Y7835D01*
Y7827D01*
Y7818D01*
X6485D01*
Y7810D01*
Y7801D01*
Y7793D01*
Y7784D01*
Y7776D01*
X6493D01*
Y7767D01*
Y7759D01*
Y7750D01*
Y7742D01*
Y7733D01*
Y7725D01*
X6502D01*
Y7716D01*
Y7708D01*
Y7699D01*
Y7691D01*
X6264D01*
Y7699D01*
Y7708D01*
Y7716D01*
Y7725D01*
Y7733D01*
Y7742D01*
Y7750D01*
Y7759D01*
Y7767D01*
Y7776D01*
Y7784D01*
Y7793D01*
X6247D01*
Y7801D01*
X6061D01*
Y7793D01*
X5908D01*
Y7784D01*
Y7776D01*
Y7767D01*
Y7759D01*
Y7750D01*
Y7742D01*
Y7733D01*
Y7725D01*
Y7716D01*
Y7708D01*
Y7699D01*
Y7691D01*
X5722D01*
Y7699D01*
Y7708D01*
Y7716D01*
Y7725D01*
Y7733D01*
Y7742D01*
Y7750D01*
Y7759D01*
Y7767D01*
Y7776D01*
Y7784D01*
Y7793D01*
Y7801D01*
Y7810D01*
Y7818D01*
Y7827D01*
Y7835D01*
Y7844D01*
Y7852D01*
Y7861D01*
Y7869D01*
Y7877D01*
Y7886D01*
Y7894D01*
Y7903D01*
Y7911D01*
Y7920D01*
Y7928D01*
Y7937D01*
Y7945D01*
Y7954D01*
Y7962D01*
Y7971D01*
Y7979D01*
Y7988D01*
Y7996D01*
Y8005D01*
Y8013D01*
Y8022D01*
Y8030D01*
Y8039D01*
Y8047D01*
Y8056D01*
Y8064D01*
Y8073D01*
Y8081D01*
Y8089D01*
Y8098D01*
Y8106D01*
Y8115D01*
Y8123D01*
Y8132D01*
Y8140D01*
Y8149D01*
Y8157D01*
Y8166D01*
Y8174D01*
Y8183D01*
Y8191D01*
Y8200D01*
Y8208D01*
Y8217D01*
Y8225D01*
Y8234D01*
Y8242D01*
Y8251D01*
Y8259D01*
Y8268D01*
Y8276D01*
Y8284D01*
Y8293D01*
Y8301D01*
Y8310D01*
Y8318D01*
Y8327D01*
Y8335D01*
Y8344D01*
Y8352D01*
Y8361D01*
Y8369D01*
Y8378D01*
Y8386D01*
Y8395D01*
Y8403D01*
Y8412D01*
Y8420D01*
Y8429D01*
Y8437D01*
Y8446D01*
Y8454D01*
Y8463D01*
Y8471D01*
Y8480D01*
Y8488D01*
Y8496D01*
Y8505D01*
Y8513D01*
Y8522D01*
Y8530D01*
Y8539D01*
Y8547D01*
Y8556D01*
Y8564D01*
Y8573D01*
Y8581D01*
Y8590D01*
Y8598D01*
Y8607D01*
Y8615D01*
Y8624D01*
Y8632D01*
Y8641D01*
Y8649D01*
Y8658D01*
Y8666D01*
Y8675D01*
Y8683D01*
Y8692D01*
Y8700D01*
Y8708D01*
Y8717D01*
Y8725D01*
Y8734D01*
Y8742D01*
Y8751D01*
Y8759D01*
Y8768D01*
Y8776D01*
Y8785D01*
Y8793D01*
Y8802D01*
Y8810D01*
Y8819D01*
Y8827D01*
Y8836D01*
Y8844D01*
Y8853D01*
Y8861D01*
Y8870D01*
Y8878D01*
Y8887D01*
Y8895D01*
X5781D01*
Y8887D01*
X5968D01*
Y8895D01*
Y8904D01*
Y8912D01*
Y8920D01*
Y8929D01*
Y8937D01*
Y8946D01*
Y8954D01*
Y8963D01*
Y8971D01*
Y8980D01*
Y8988D01*
Y8997D01*
Y9005D01*
Y9014D01*
Y9022D01*
Y9031D01*
Y9039D01*
Y9048D01*
Y9056D01*
Y9065D01*
Y9073D01*
Y9082D01*
Y9090D01*
Y9099D01*
Y9107D01*
Y9116D01*
Y9124D01*
Y9132D01*
Y9141D01*
Y9149D01*
Y9158D01*
Y9166D01*
Y9175D01*
Y9183D01*
Y9192D01*
Y9200D01*
Y9209D01*
Y9217D01*
Y9226D01*
Y9234D01*
Y9243D01*
Y9251D01*
Y9260D01*
Y9268D01*
Y9277D01*
X5713D01*
Y9268D01*
X5611D01*
Y9277D01*
X5603D01*
Y9285D01*
Y9294D01*
Y9302D01*
Y9311D01*
Y9319D01*
Y9327D01*
Y9336D01*
Y9344D01*
Y9353D01*
Y9361D01*
Y9370D01*
Y9378D01*
Y9387D01*
Y9395D01*
Y9404D01*
Y9412D01*
Y9421D01*
Y9429D01*
Y9438D01*
Y9446D01*
Y9455D01*
Y9463D01*
X5611D01*
Y9472D01*
X5688D01*
Y9463D01*
X5951D01*
Y9455D01*
X5968D01*
Y9463D01*
Y9472D01*
Y9480D01*
Y9489D01*
Y9497D01*
Y9506D01*
Y9514D01*
Y9523D01*
Y9531D01*
Y9539D01*
Y9548D01*
Y9556D01*
Y9565D01*
Y9573D01*
Y9582D01*
Y9590D01*
Y9599D01*
Y9607D01*
Y9616D01*
Y9624D01*
Y9633D01*
Y9641D01*
Y9650D01*
Y9658D01*
Y9667D01*
Y9675D01*
Y9684D01*
Y9692D01*
Y9701D01*
Y9709D01*
Y9718D01*
Y9726D01*
Y9735D01*
Y9743D01*
Y9751D01*
Y9760D01*
Y9768D01*
Y9777D01*
Y9785D01*
Y9794D01*
Y9802D01*
Y9811D01*
Y9819D01*
Y9828D01*
Y9836D01*
Y9845D01*
Y9853D01*
Y9862D01*
Y9870D01*
Y9879D01*
Y9887D01*
Y9896D01*
Y9904D01*
Y9913D01*
X5959D01*
Y9921D01*
Y9930D01*
Y9938D01*
Y9947D01*
Y9955D01*
X5951D01*
Y9963D01*
Y9972D01*
X5942D01*
Y9980D01*
Y9989D01*
X5934D01*
Y9997D01*
X5925D01*
Y10006D01*
X5917D01*
Y10014D01*
X5908D01*
Y10023D01*
X5900D01*
Y10031D01*
Y10040D01*
X5891D01*
Y10048D01*
X5900D01*
Y10057D01*
X5917D01*
Y10065D01*
X6078D01*
Y10074D01*
X6146D01*
Y10082D01*
X6171D01*
Y10074D01*
D02*
G37*
G36*
X7044Y10048D02*
Y10040D01*
Y10031D01*
Y10023D01*
Y10014D01*
Y10006D01*
Y9997D01*
Y9989D01*
Y9980D01*
Y9972D01*
Y9963D01*
Y9955D01*
Y9947D01*
Y9938D01*
Y9930D01*
Y9921D01*
Y9913D01*
Y9904D01*
Y9896D01*
Y9887D01*
Y9879D01*
Y9870D01*
Y9862D01*
Y9853D01*
Y9845D01*
Y9836D01*
Y9828D01*
Y9819D01*
Y9811D01*
Y9802D01*
Y9794D01*
Y9785D01*
Y9777D01*
Y9768D01*
Y9760D01*
Y9751D01*
Y9743D01*
Y9735D01*
Y9726D01*
Y9718D01*
Y9709D01*
Y9701D01*
Y9692D01*
Y9684D01*
Y9675D01*
Y9667D01*
Y9658D01*
Y9650D01*
Y9641D01*
Y9633D01*
Y9624D01*
Y9616D01*
Y9607D01*
Y9599D01*
Y9590D01*
Y9582D01*
Y9573D01*
Y9565D01*
Y9556D01*
X7036D01*
Y9548D01*
X7019D01*
Y9539D01*
X7011D01*
Y9531D01*
X6994D01*
Y9523D01*
X6977D01*
Y9514D01*
X6968D01*
Y9506D01*
X6951D01*
Y9497D01*
X6943D01*
Y9489D01*
X6926D01*
Y9480D01*
X6917D01*
Y9472D01*
X6900D01*
Y9463D01*
X6892D01*
Y9455D01*
X6875D01*
Y9446D01*
X6858D01*
Y9438D01*
X6849D01*
Y9429D01*
X6833D01*
Y9421D01*
X6824D01*
Y9412D01*
X6807D01*
Y9404D01*
X6799D01*
Y9395D01*
X6782D01*
Y9387D01*
X6773D01*
Y9378D01*
X6756D01*
Y9370D01*
X6739D01*
Y9361D01*
X6731D01*
Y9353D01*
X6714D01*
Y9344D01*
X6705D01*
Y9336D01*
X6688D01*
Y9327D01*
X6680D01*
Y9319D01*
X6663D01*
Y9311D01*
X6654D01*
Y9302D01*
X6646D01*
Y9311D01*
Y9319D01*
Y9327D01*
Y9336D01*
Y9344D01*
Y9353D01*
Y9361D01*
Y9370D01*
Y9378D01*
Y9387D01*
X6654D01*
Y9395D01*
Y9404D01*
Y9412D01*
Y9421D01*
Y9429D01*
Y9438D01*
Y9446D01*
Y9455D01*
Y9463D01*
Y9472D01*
Y9480D01*
X6663D01*
Y9489D01*
Y9497D01*
Y9506D01*
Y9514D01*
Y9523D01*
Y9531D01*
Y9539D01*
Y9548D01*
Y9556D01*
Y9565D01*
X6671D01*
Y9573D01*
Y9582D01*
Y9590D01*
Y9599D01*
Y9607D01*
Y9616D01*
Y9624D01*
Y9633D01*
Y9641D01*
Y9650D01*
X6680D01*
Y9658D01*
Y9667D01*
Y9675D01*
Y9684D01*
Y9692D01*
Y9701D01*
Y9709D01*
Y9718D01*
Y9726D01*
Y9735D01*
X6688D01*
Y9743D01*
Y9751D01*
Y9760D01*
Y9768D01*
Y9777D01*
Y9785D01*
Y9794D01*
Y9802D01*
Y9811D01*
X6697D01*
Y9819D01*
X6705D01*
Y9828D01*
X6714D01*
Y9836D01*
X6731D01*
Y9845D01*
X6739D01*
Y9853D01*
X6756D01*
Y9862D01*
X6765D01*
Y9870D01*
X6773D01*
Y9879D01*
X6790D01*
Y9887D01*
X6799D01*
Y9896D01*
X6816D01*
Y9904D01*
X6824D01*
Y9913D01*
X6841D01*
Y9921D01*
X6849D01*
Y9930D01*
X6858D01*
Y9938D01*
X6875D01*
Y9947D01*
X6883D01*
Y9955D01*
X6900D01*
Y9963D01*
X6909D01*
Y9972D01*
X6926D01*
Y9980D01*
X6934D01*
Y9989D01*
X6943D01*
Y9997D01*
X6960D01*
Y10006D01*
X6968D01*
Y10014D01*
X6985D01*
Y10023D01*
X6994D01*
Y10031D01*
X7011D01*
Y10040D01*
X7019D01*
Y10048D01*
X7028D01*
Y10057D01*
X7044D01*
Y10048D01*
D02*
G37*
G36*
X7231Y9319D02*
X7248D01*
Y9311D01*
X7265D01*
Y9302D01*
X7282D01*
Y9294D01*
X7299D01*
Y9285D01*
X7316D01*
Y9277D01*
X7333D01*
Y9268D01*
X7350D01*
Y9260D01*
X7367D01*
Y9251D01*
X7384D01*
Y9243D01*
X7401D01*
Y9234D01*
X7418D01*
Y9226D01*
X7435D01*
Y9217D01*
X7452D01*
Y9209D01*
X7468D01*
Y9200D01*
X7485D01*
Y9192D01*
X7502D01*
Y9183D01*
X7511D01*
Y9175D01*
X7528D01*
Y9166D01*
X7545D01*
Y9158D01*
X7562D01*
Y9149D01*
X7579D01*
Y9141D01*
X7596D01*
Y9132D01*
X7613D01*
Y9124D01*
X7630D01*
Y9116D01*
X7647D01*
Y9107D01*
X7664D01*
Y9099D01*
X7672D01*
Y9090D01*
X7664D01*
Y9082D01*
X7647D01*
Y9073D01*
X7621D01*
Y9065D01*
X7604D01*
Y9056D01*
X7579D01*
Y9048D01*
X7562D01*
Y9039D01*
X7545D01*
Y9031D01*
X7519D01*
Y9022D01*
X7502D01*
Y9014D01*
X7485D01*
Y9005D01*
X7460D01*
Y8997D01*
X7443D01*
Y8988D01*
X7426D01*
Y8980D01*
X7401D01*
Y8971D01*
X7384D01*
Y8963D01*
X7358D01*
Y8954D01*
X7341D01*
Y8946D01*
X7324D01*
Y8937D01*
X7299D01*
Y8929D01*
X7282D01*
Y8920D01*
X7265D01*
Y8912D01*
X7240D01*
Y8904D01*
X7223D01*
Y8895D01*
X7197D01*
Y8887D01*
X7180D01*
Y8878D01*
X7163D01*
Y8870D01*
X7146D01*
Y8878D01*
X7129D01*
Y8887D01*
X7121D01*
Y8895D01*
X7104D01*
Y8904D01*
X7087D01*
Y8912D01*
X7070D01*
Y8920D01*
X7053D01*
Y8929D01*
X7044D01*
Y8937D01*
X7028D01*
Y8946D01*
X7011D01*
Y8954D01*
X6994D01*
Y8963D01*
X6985D01*
Y8971D01*
X6968D01*
Y8980D01*
X6951D01*
Y8988D01*
X6934D01*
Y8997D01*
X6926D01*
Y9005D01*
X6909D01*
Y9014D01*
X6892D01*
Y9022D01*
X6875D01*
Y9031D01*
X6858D01*
Y9039D01*
X6841D01*
Y9048D01*
X6833D01*
Y9056D01*
X6816D01*
Y9065D01*
X6799D01*
Y9073D01*
X6782D01*
Y9082D01*
X6765D01*
Y9090D01*
X6756D01*
Y9099D01*
X6739D01*
Y9107D01*
X6722D01*
Y9116D01*
X6705D01*
Y9124D01*
X6697D01*
Y9132D01*
X6680D01*
Y9141D01*
X6663D01*
Y9149D01*
X6671D01*
Y9158D01*
X6705D01*
Y9166D01*
X6731D01*
Y9175D01*
X6756D01*
Y9183D01*
X6782D01*
Y9192D01*
X6807D01*
Y9200D01*
X6841D01*
Y9209D01*
X6866D01*
Y9217D01*
X6892D01*
Y9226D01*
X6917D01*
Y9234D01*
X6943D01*
Y9243D01*
X6977D01*
Y9251D01*
X7002D01*
Y9260D01*
X7028D01*
Y9268D01*
X7053D01*
Y9277D01*
X7078D01*
Y9285D01*
X7104D01*
Y9294D01*
X7138D01*
Y9302D01*
X7163D01*
Y9311D01*
X7189D01*
Y9319D01*
X7214D01*
Y9327D01*
X7231D01*
Y9319D01*
D02*
G37*
G36*
X6637Y8971D02*
X6646D01*
Y8963D01*
X6654D01*
Y8954D01*
X6663D01*
Y8946D01*
Y8937D01*
X6671D01*
Y8929D01*
X6680D01*
Y8920D01*
X6688D01*
Y8912D01*
X6697D01*
Y8904D01*
X6705D01*
Y8895D01*
Y8887D01*
X6714D01*
Y8878D01*
X6722D01*
Y8870D01*
X6731D01*
Y8861D01*
X6739D01*
Y8853D01*
X6748D01*
Y8844D01*
Y8836D01*
X6756D01*
Y8827D01*
X6765D01*
Y8819D01*
X6773D01*
Y8810D01*
Y8802D01*
X6782D01*
Y8793D01*
X6790D01*
Y8785D01*
X6799D01*
Y8776D01*
X6807D01*
Y8768D01*
Y8759D01*
X6816D01*
Y8751D01*
X6824D01*
Y8742D01*
X6833D01*
Y8734D01*
X6841D01*
Y8725D01*
X6849D01*
Y8717D01*
Y8708D01*
X6858D01*
Y8700D01*
X6866D01*
Y8692D01*
X6875D01*
Y8683D01*
X6883D01*
Y8675D01*
Y8666D01*
X6892D01*
Y8658D01*
X6900D01*
Y8649D01*
X6909D01*
Y8641D01*
X6917D01*
Y8632D01*
Y8624D01*
X6926D01*
Y8615D01*
X6934D01*
Y8607D01*
X6943D01*
Y8598D01*
X6951D01*
Y8590D01*
X6960D01*
Y8581D01*
Y8573D01*
X6968D01*
Y8564D01*
X6977D01*
Y8556D01*
X6985D01*
Y8547D01*
X6994D01*
Y8539D01*
Y8530D01*
X7002D01*
Y8522D01*
X7011D01*
Y8513D01*
X7019D01*
Y8505D01*
X7028D01*
Y8496D01*
Y8488D01*
X7036D01*
Y8480D01*
X7044D01*
Y8471D01*
X7053D01*
Y8463D01*
X7061D01*
Y8454D01*
Y8446D01*
Y8437D01*
Y8429D01*
Y8420D01*
Y8412D01*
X7070D01*
Y8403D01*
Y8395D01*
Y8386D01*
Y8378D01*
Y8369D01*
Y8361D01*
Y8352D01*
Y8344D01*
X7078D01*
Y8335D01*
Y8327D01*
Y8318D01*
Y8310D01*
Y8301D01*
Y8293D01*
Y8284D01*
X7087D01*
Y8276D01*
Y8268D01*
Y8259D01*
Y8251D01*
Y8242D01*
Y8234D01*
Y8225D01*
Y8217D01*
Y8208D01*
X7095D01*
Y8200D01*
Y8191D01*
Y8183D01*
Y8174D01*
Y8166D01*
Y8157D01*
Y8149D01*
Y8140D01*
X7104D01*
Y8132D01*
Y8123D01*
Y8115D01*
Y8106D01*
Y8098D01*
Y8089D01*
Y8081D01*
Y8073D01*
X7112D01*
Y8064D01*
Y8056D01*
Y8047D01*
Y8039D01*
Y8030D01*
Y8022D01*
Y8013D01*
Y8005D01*
X7121D01*
Y7996D01*
Y7988D01*
Y7979D01*
Y7971D01*
Y7962D01*
Y7954D01*
Y7945D01*
Y7937D01*
Y7928D01*
X7129D01*
Y7920D01*
Y7911D01*
Y7903D01*
Y7894D01*
Y7886D01*
Y7877D01*
Y7869D01*
X7138D01*
Y7861D01*
Y7852D01*
Y7844D01*
Y7835D01*
Y7827D01*
Y7818D01*
Y7810D01*
Y7801D01*
X7146D01*
Y7793D01*
Y7784D01*
Y7776D01*
Y7767D01*
Y7759D01*
Y7750D01*
Y7742D01*
Y7733D01*
X7155D01*
Y7725D01*
X7146D01*
Y7716D01*
X7138D01*
Y7725D01*
X7129D01*
Y7733D01*
X7121D01*
Y7742D01*
X7112D01*
Y7750D01*
X7104D01*
Y7759D01*
X7095D01*
Y7767D01*
X7087D01*
Y7776D01*
X7078D01*
Y7784D01*
X7070D01*
Y7793D01*
X7061D01*
Y7801D01*
X7053D01*
Y7810D01*
X7044D01*
Y7818D01*
X7036D01*
Y7827D01*
X7028D01*
Y7835D01*
X7019D01*
Y7844D01*
X7011D01*
Y7852D01*
X7002D01*
Y7861D01*
Y7869D01*
X6994D01*
Y7877D01*
X6985D01*
Y7886D01*
X6977D01*
Y7894D01*
X6968D01*
Y7903D01*
X6960D01*
Y7911D01*
X6951D01*
Y7920D01*
X6943D01*
Y7928D01*
X6934D01*
Y7937D01*
X6926D01*
Y7945D01*
X6917D01*
Y7954D01*
X6909D01*
Y7962D01*
X6900D01*
Y7971D01*
X6892D01*
Y7979D01*
X6883D01*
Y7988D01*
X6875D01*
Y7996D01*
X6866D01*
Y8005D01*
X6858D01*
Y8013D01*
X6849D01*
Y8022D01*
X6841D01*
Y8030D01*
X6833D01*
Y8039D01*
X6824D01*
Y8047D01*
X6816D01*
Y8056D01*
X6807D01*
Y8064D01*
X6799D01*
Y8073D01*
X6790D01*
Y8081D01*
X6782D01*
Y8089D01*
X6773D01*
Y8098D01*
X6765D01*
Y8106D01*
X6756D01*
Y8115D01*
X6748D01*
Y8123D01*
X6739D01*
Y8132D01*
X6731D01*
Y8140D01*
X6722D01*
Y8149D01*
X6714D01*
Y8157D01*
X6705D01*
Y8166D01*
Y8174D01*
Y8183D01*
Y8191D01*
Y8200D01*
Y8208D01*
Y8217D01*
Y8225D01*
Y8234D01*
Y8242D01*
X6697D01*
Y8251D01*
Y8259D01*
Y8268D01*
Y8276D01*
Y8284D01*
Y8293D01*
Y8301D01*
Y8310D01*
Y8318D01*
X6688D01*
Y8327D01*
Y8335D01*
Y8344D01*
Y8352D01*
Y8361D01*
Y8369D01*
Y8378D01*
Y8386D01*
Y8395D01*
Y8403D01*
X6680D01*
Y8412D01*
Y8420D01*
Y8429D01*
Y8437D01*
Y8446D01*
Y8454D01*
Y8463D01*
Y8471D01*
Y8480D01*
Y8488D01*
X6671D01*
Y8496D01*
Y8505D01*
Y8513D01*
Y8522D01*
Y8530D01*
Y8539D01*
Y8547D01*
Y8556D01*
Y8564D01*
X6663D01*
Y8573D01*
Y8581D01*
Y8590D01*
Y8598D01*
Y8607D01*
Y8615D01*
Y8624D01*
Y8632D01*
Y8641D01*
Y8649D01*
Y8658D01*
X6654D01*
Y8666D01*
Y8675D01*
Y8683D01*
Y8692D01*
Y8700D01*
Y8708D01*
Y8717D01*
Y8725D01*
Y8734D01*
Y8742D01*
X6646D01*
Y8751D01*
Y8759D01*
Y8768D01*
Y8776D01*
Y8785D01*
Y8793D01*
Y8802D01*
Y8810D01*
Y8819D01*
Y8827D01*
Y8836D01*
X6637D01*
Y8844D01*
Y8853D01*
Y8861D01*
Y8870D01*
Y8878D01*
Y8887D01*
Y8895D01*
Y8904D01*
Y8912D01*
Y8920D01*
Y8929D01*
X6629D01*
Y8937D01*
Y8946D01*
Y8954D01*
Y8963D01*
Y8971D01*
Y8980D01*
X6637D01*
Y8971D01*
D02*
G37*
G36*
X2583Y10138D02*
X2669D01*
Y10126D01*
X2730D01*
Y10113D01*
X2779D01*
Y10101D01*
X2827D01*
Y10089D01*
X2864D01*
Y10077D01*
X2901D01*
Y10065D01*
X2925D01*
Y10052D01*
X2949D01*
Y10040D01*
X2974D01*
Y10028D01*
X2998D01*
Y10016D01*
X3023D01*
Y10003D01*
Y9991D01*
X3035D01*
Y9979D01*
Y9967D01*
Y9955D01*
Y9942D01*
Y9930D01*
X3059D01*
Y9942D01*
X3084D01*
Y9955D01*
X3096D01*
Y9967D01*
X3108D01*
Y9979D01*
X3133D01*
Y9967D01*
X3157D01*
Y9955D01*
X3181D01*
Y9942D01*
X3194D01*
Y9930D01*
X3218D01*
Y9918D01*
X3243D01*
Y9906D01*
X3255D01*
Y9894D01*
X3267D01*
Y9881D01*
X3291D01*
Y9869D01*
X3304D01*
Y9857D01*
X3328D01*
Y9845D01*
X3340D01*
Y9833D01*
X3352D01*
Y9820D01*
X3365D01*
Y9808D01*
X3389D01*
Y9796D01*
X3401D01*
Y9784D01*
X3413D01*
Y9771D01*
X3426D01*
Y9759D01*
X3438D01*
Y9747D01*
X3450D01*
Y9735D01*
X3462D01*
Y9723D01*
X3475D01*
Y9710D01*
X3487D01*
Y9698D01*
X3499D01*
Y9686D01*
X3511D01*
Y9674D01*
X3523D01*
Y9662D01*
X3536D01*
Y9649D01*
X3548D01*
Y9637D01*
X3560D01*
Y9625D01*
X3572D01*
Y9613D01*
X3584D01*
Y9601D01*
X3597D01*
Y9588D01*
Y9576D01*
X3609D01*
Y9564D01*
X3621D01*
Y9552D01*
X3633D01*
Y9539D01*
X3645D01*
Y9527D01*
X3658D01*
Y9515D01*
Y9503D01*
X3670D01*
Y9491D01*
X3682D01*
Y9478D01*
X3694D01*
Y9466D01*
Y9454D01*
X3707D01*
Y9442D01*
Y9430D01*
X3719D01*
Y9417D01*
X3731D01*
Y9405D01*
Y9393D01*
X3743D01*
Y9381D01*
Y9369D01*
X3755D01*
Y9356D01*
X3768D01*
Y9344D01*
Y9332D01*
X3780D01*
Y9320D01*
Y9307D01*
X3792D01*
Y9295D01*
Y9283D01*
X3804D01*
Y9271D01*
Y9259D01*
X3816D01*
Y9246D01*
Y9234D01*
X3829D01*
Y9222D01*
Y9210D01*
Y9198D01*
X3841D01*
Y9185D01*
Y9173D01*
X3853D01*
Y9161D01*
Y9149D01*
Y9137D01*
X3865D01*
Y9124D01*
Y9112D01*
X3877D01*
Y9100D01*
Y9088D01*
X3890D01*
Y9075D01*
Y9063D01*
Y9051D01*
X3902D01*
Y9039D01*
Y9027D01*
Y9014D01*
Y9002D01*
X3914D01*
Y8990D01*
Y8978D01*
Y8966D01*
Y8953D01*
Y8941D01*
X3926D01*
Y8929D01*
Y8917D01*
Y8905D01*
Y8892D01*
Y8880D01*
Y8868D01*
Y8856D01*
X3938D01*
Y8843D01*
Y8831D01*
Y8819D01*
Y8807D01*
Y8795D01*
Y8782D01*
Y8770D01*
Y8758D01*
Y8746D01*
Y8734D01*
X3951D01*
Y8721D01*
Y8709D01*
Y8697D01*
Y8685D01*
Y8673D01*
Y8660D01*
Y8648D01*
Y8636D01*
Y8624D01*
Y8612D01*
Y8599D01*
Y8587D01*
Y8575D01*
Y8563D01*
Y8550D01*
Y8538D01*
Y8526D01*
Y8514D01*
Y8502D01*
Y8489D01*
Y8477D01*
X3938D01*
Y8465D01*
Y8453D01*
Y8441D01*
Y8428D01*
X3926D01*
Y8416D01*
Y8404D01*
X3914D01*
Y8392D01*
X3902D01*
Y8379D01*
Y8367D01*
Y8355D01*
Y8343D01*
Y8331D01*
Y8318D01*
Y8306D01*
Y8294D01*
X3890D01*
Y8282D01*
Y8270D01*
Y8257D01*
Y8245D01*
X3877D01*
Y8233D01*
Y8221D01*
Y8209D01*
Y8196D01*
Y8184D01*
Y8172D01*
Y8160D01*
Y8148D01*
Y8135D01*
Y8123D01*
Y8111D01*
X3865D01*
Y8099D01*
Y8086D01*
X3853D01*
Y8074D01*
Y8062D01*
X3841D01*
Y8050D01*
Y8038D01*
Y8025D01*
Y8013D01*
X3829D01*
Y8001D01*
Y7989D01*
Y7977D01*
X3816D01*
Y7964D01*
Y7952D01*
Y7940D01*
X3804D01*
Y7928D01*
Y7916D01*
X3792D01*
Y7903D01*
Y7891D01*
X3780D01*
Y7879D01*
Y7867D01*
X3768D01*
Y7854D01*
X3755D01*
Y7842D01*
Y7830D01*
X3743D01*
Y7818D01*
X3731D01*
Y7806D01*
Y7793D01*
X3719D01*
Y7781D01*
Y7769D01*
X3707D01*
Y7757D01*
Y7745D01*
X3694D01*
Y7732D01*
X3682D01*
Y7720D01*
Y7708D01*
X3670D01*
Y7696D01*
X3658D01*
Y7684D01*
X3645D01*
Y7671D01*
Y7659D01*
X3633D01*
Y7647D01*
X3621D01*
Y7635D01*
X3609D01*
Y7622D01*
X3597D01*
Y7610D01*
Y7598D01*
X3584D01*
Y7586D01*
X3572D01*
Y7574D01*
X3560D01*
Y7561D01*
Y7549D01*
X3548D01*
Y7537D01*
X3536D01*
Y7525D01*
X3523D01*
Y7513D01*
X3511D01*
Y7500D01*
X3487D01*
Y7488D01*
X3475D01*
Y7476D01*
X3462D01*
Y7464D01*
X3450D01*
Y7452D01*
X3438D01*
Y7439D01*
X3426D01*
Y7427D01*
X3413D01*
Y7415D01*
X3401D01*
Y7403D01*
X3389D01*
Y7390D01*
X3365D01*
Y7378D01*
X3352D01*
Y7366D01*
X3340D01*
Y7354D01*
X3316D01*
Y7342D01*
X3304D01*
Y7329D01*
X3291D01*
Y7317D01*
X3267D01*
Y7305D01*
X3255D01*
Y7293D01*
X3230D01*
Y7281D01*
X3218D01*
Y7268D01*
X3194D01*
Y7256D01*
X3181D01*
Y7244D01*
X3157D01*
Y7232D01*
X3133D01*
Y7220D01*
X3120D01*
Y7207D01*
X3096D01*
Y7195D01*
X3072D01*
Y7183D01*
X3035D01*
Y7171D01*
X2998D01*
Y7158D01*
X2949D01*
Y7146D01*
X2901D01*
Y7158D01*
Y7171D01*
X2876D01*
Y7183D01*
X2864D01*
Y7171D01*
X2827D01*
Y7158D01*
X2815D01*
Y7146D01*
X2803D01*
Y7134D01*
Y7122D01*
X2791D01*
Y7110D01*
X2779D01*
Y7097D01*
X2754D01*
Y7085D01*
X2705D01*
Y7073D01*
X2632D01*
Y7061D01*
X2144D01*
Y7073D01*
X2095D01*
Y7085D01*
X2070D01*
Y7097D01*
X2058D01*
Y7110D01*
Y7122D01*
Y7134D01*
X1985D01*
Y7146D01*
X1960D01*
Y7134D01*
X1887D01*
Y7146D01*
X1863D01*
Y7158D01*
X1826D01*
Y7171D01*
X1802D01*
Y7183D01*
X1777D01*
Y7195D01*
X1753D01*
Y7207D01*
X1716D01*
Y7220D01*
X1692D01*
Y7232D01*
X1680D01*
Y7244D01*
X1655D01*
Y7256D01*
X1631D01*
Y7268D01*
X1606D01*
Y7281D01*
X1582D01*
Y7293D01*
X1557D01*
Y7305D01*
X1545D01*
Y7317D01*
X1521D01*
Y7329D01*
X1496D01*
Y7342D01*
X1484D01*
Y7354D01*
X1460D01*
Y7366D01*
X1448D01*
Y7378D01*
X1423D01*
Y7390D01*
X1411D01*
Y7403D01*
X1399D01*
Y7415D01*
X1387D01*
Y7427D01*
X1374D01*
Y7439D01*
X1362D01*
Y7452D01*
X1350D01*
Y7464D01*
X1338D01*
Y7476D01*
X1325D01*
Y7488D01*
X1313D01*
Y7500D01*
X1301D01*
Y7513D01*
X1289D01*
Y7525D01*
X1277D01*
Y7537D01*
X1264D01*
Y7549D01*
X1252D01*
Y7561D01*
X1240D01*
Y7574D01*
X1228D01*
Y7586D01*
X1216D01*
Y7598D01*
X1203D01*
Y7610D01*
X1191D01*
Y7622D01*
X1179D01*
Y7635D01*
X1167D01*
Y7647D01*
Y7659D01*
X1155D01*
Y7671D01*
X1142D01*
Y7684D01*
X1130D01*
Y7696D01*
Y7708D01*
X1118D01*
Y7720D01*
Y7732D01*
X1106D01*
Y7745D01*
X1094D01*
Y7757D01*
X1081D01*
Y7769D01*
Y7781D01*
X1069D01*
Y7793D01*
Y7806D01*
X1057D01*
Y7818D01*
Y7830D01*
X1045D01*
Y7842D01*
Y7854D01*
X1032D01*
Y7867D01*
Y7879D01*
X1020D01*
Y7891D01*
X1008D01*
Y7903D01*
Y7916D01*
X996D01*
Y7928D01*
Y7940D01*
Y7952D01*
X984D01*
Y7964D01*
Y7977D01*
X971D01*
Y7989D01*
Y8001D01*
Y8013D01*
X959D01*
Y8025D01*
Y8038D01*
X947D01*
Y8050D01*
Y8062D01*
Y8074D01*
X935D01*
Y8086D01*
Y8099D01*
X923D01*
Y8111D01*
Y8123D01*
Y8135D01*
X910D01*
Y8148D01*
Y8160D01*
Y8172D01*
Y8184D01*
Y8196D01*
Y8209D01*
Y8221D01*
X923D01*
Y8233D01*
Y8245D01*
Y8257D01*
Y8270D01*
X910D01*
Y8282D01*
Y8294D01*
X898D01*
Y8306D01*
X886D01*
Y8318D01*
Y8331D01*
X898D01*
Y8343D01*
X935D01*
Y8355D01*
Y8367D01*
X923D01*
Y8379D01*
X886D01*
Y8392D01*
X874D01*
Y8404D01*
X861D01*
Y8416D01*
X849D01*
Y8428D01*
Y8441D01*
X837D01*
Y8453D01*
Y8465D01*
Y8477D01*
Y8489D01*
Y8502D01*
Y8514D01*
Y8526D01*
Y8538D01*
Y8550D01*
Y8563D01*
Y8575D01*
Y8587D01*
Y8599D01*
Y8612D01*
Y8624D01*
Y8636D01*
Y8648D01*
Y8660D01*
Y8673D01*
Y8685D01*
Y8697D01*
Y8709D01*
X849D01*
Y8721D01*
Y8734D01*
Y8746D01*
Y8758D01*
Y8770D01*
Y8782D01*
Y8795D01*
Y8807D01*
Y8819D01*
Y8831D01*
Y8843D01*
Y8856D01*
X861D01*
Y8868D01*
Y8880D01*
Y8892D01*
Y8905D01*
Y8917D01*
X874D01*
Y8929D01*
Y8941D01*
Y8953D01*
X886D01*
Y8966D01*
Y8978D01*
Y8990D01*
Y9002D01*
X898D01*
Y9014D01*
Y9027D01*
Y9039D01*
Y9051D01*
X910D01*
Y9063D01*
Y9075D01*
Y9088D01*
X923D01*
Y9100D01*
Y9112D01*
Y9124D01*
X935D01*
Y9137D01*
Y9149D01*
Y9161D01*
X947D01*
Y9173D01*
Y9185D01*
X959D01*
Y9198D01*
Y9210D01*
Y9222D01*
X971D01*
Y9234D01*
Y9246D01*
X984D01*
Y9259D01*
Y9271D01*
Y9283D01*
X996D01*
Y9295D01*
Y9307D01*
X1008D01*
Y9320D01*
X1020D01*
Y9332D01*
Y9344D01*
X1032D01*
Y9356D01*
X1045D01*
Y9369D01*
Y9381D01*
X1057D01*
Y9393D01*
Y9405D01*
X1069D01*
Y9417D01*
X1081D01*
Y9430D01*
X1094D01*
Y9442D01*
Y9454D01*
X1106D01*
Y9466D01*
Y9478D01*
X1118D01*
Y9491D01*
Y9503D01*
X1130D01*
Y9515D01*
Y9527D01*
Y9539D01*
X1142D01*
Y9552D01*
X1179D01*
Y9564D01*
X1203D01*
Y9576D01*
Y9588D01*
X1216D01*
Y9601D01*
X1228D01*
Y9613D01*
Y9625D01*
X1240D01*
Y9637D01*
X1252D01*
Y9649D01*
X1264D01*
Y9662D01*
X1289D01*
Y9674D01*
X1325D01*
Y9686D01*
X1350D01*
Y9698D01*
X1374D01*
Y9710D01*
X1387D01*
Y9723D01*
X1399D01*
Y9735D01*
X1411D01*
Y9747D01*
Y9759D01*
X1423D01*
Y9771D01*
X1435D01*
Y9784D01*
Y9796D01*
X1448D01*
Y9808D01*
X1460D01*
Y9820D01*
Y9833D01*
X1472D01*
Y9845D01*
X1484D01*
Y9857D01*
X1496D01*
Y9869D01*
X1509D01*
Y9881D01*
X1521D01*
Y9894D01*
X1545D01*
Y9906D01*
X1557D01*
Y9918D01*
X1582D01*
Y9930D01*
X1606D01*
Y9942D01*
X1619D01*
Y9955D01*
X1643D01*
Y9967D01*
X1667D01*
Y9979D01*
X1704D01*
Y9991D01*
X1728D01*
Y10003D01*
X1753D01*
Y10016D01*
X1789D01*
Y10028D01*
X1814D01*
Y10040D01*
X1838D01*
Y10052D01*
X1875D01*
Y10065D01*
X1912D01*
Y10077D01*
X1936D01*
Y10089D01*
X1985D01*
Y10101D01*
X2034D01*
Y10113D01*
X2095D01*
Y10126D01*
X2156D01*
Y10138D01*
X2217D01*
Y10150D01*
X2583D01*
Y10138D01*
D02*
G37*
G36*
X13006Y2777D02*
Y2771D01*
X13012D01*
Y2765D01*
Y2759D01*
X13018D01*
Y2753D01*
Y2747D01*
X13024D01*
Y2741D01*
X13030D01*
Y2735D01*
Y2730D01*
X13036D01*
Y2724D01*
Y2718D01*
X13042D01*
Y2712D01*
Y2706D01*
X13047D01*
Y2700D01*
X13053D01*
Y2694D01*
Y2688D01*
X13059D01*
Y2682D01*
Y2677D01*
X13065D01*
Y2671D01*
X13071D01*
Y2665D01*
Y2659D01*
X13077D01*
Y2653D01*
Y2647D01*
X13083D01*
Y2641D01*
Y2635D01*
X13089D01*
Y2629D01*
X13095D01*
Y2624D01*
Y2618D01*
X13100D01*
Y2612D01*
Y2606D01*
X13106D01*
Y2600D01*
Y2594D01*
X13112D01*
Y2588D01*
X13118D01*
Y2582D01*
Y2576D01*
X13124D01*
Y2571D01*
Y2565D01*
X13130D01*
Y2559D01*
X13136D01*
Y2553D01*
Y2547D01*
X13142D01*
Y2541D01*
Y2535D01*
X13147D01*
Y2529D01*
Y2523D01*
X13153D01*
Y2518D01*
X13159D01*
Y2512D01*
Y2506D01*
X13165D01*
Y2500D01*
Y2494D01*
X13171D01*
Y2488D01*
Y2482D01*
X13177D01*
Y2476D01*
X13183D01*
Y2470D01*
Y2465D01*
X13189D01*
Y2459D01*
Y2453D01*
X13195D01*
Y2447D01*
X13200D01*
Y2441D01*
Y2435D01*
X13206D01*
Y2429D01*
Y2423D01*
X13212D01*
Y2417D01*
Y2412D01*
X13218D01*
Y2406D01*
X13224D01*
Y2400D01*
Y2394D01*
X13230D01*
Y2388D01*
Y2382D01*
X13236D01*
Y2376D01*
Y2370D01*
X13242D01*
Y2364D01*
X13248D01*
Y2359D01*
Y2353D01*
X13253D01*
Y2347D01*
Y2341D01*
X13259D01*
Y2335D01*
X13265D01*
Y2329D01*
Y2323D01*
X13271D01*
Y2317D01*
Y2312D01*
X13277D01*
Y2306D01*
Y2300D01*
X13283D01*
Y2294D01*
X13289D01*
Y2288D01*
Y2282D01*
X13295D01*
Y2276D01*
Y2270D01*
X13301D01*
Y2264D01*
Y2259D01*
X13306D01*
Y2253D01*
X13312D01*
Y2247D01*
Y2241D01*
X13318D01*
Y2235D01*
Y2229D01*
X13324D01*
Y2223D01*
X13330D01*
Y2217D01*
Y2211D01*
X13336D01*
Y2206D01*
Y2200D01*
X13342D01*
Y2194D01*
Y2188D01*
X13348D01*
Y2182D01*
X13354D01*
Y2176D01*
Y2170D01*
X13359D01*
Y2164D01*
Y2158D01*
X13365D01*
Y2153D01*
Y2147D01*
X13371D01*
Y2141D01*
X13377D01*
Y2135D01*
Y2129D01*
X13383D01*
Y2123D01*
Y2117D01*
X13389D01*
Y2111D01*
X13395D01*
Y2105D01*
Y2100D01*
X13401D01*
Y2094D01*
Y2088D01*
X13407D01*
Y2082D01*
Y2076D01*
X13412D01*
Y2070D01*
X13418D01*
Y2064D01*
Y2058D01*
X13424D01*
Y2052D01*
Y2047D01*
X13430D01*
Y2041D01*
Y2035D01*
X13436D01*
Y2029D01*
X13442D01*
Y2023D01*
Y2017D01*
X13448D01*
Y2011D01*
Y2005D01*
X13454D01*
Y1999D01*
X13460D01*
Y1994D01*
Y1988D01*
X13465D01*
Y1982D01*
Y1976D01*
X13471D01*
Y1970D01*
Y1964D01*
X13477D01*
Y1958D01*
X13483D01*
Y1952D01*
Y1946D01*
X13489D01*
Y1941D01*
Y1935D01*
X13495D01*
Y1929D01*
Y1923D01*
X13501D01*
Y1917D01*
X13507D01*
Y1911D01*
Y1905D01*
X13513D01*
Y1899D01*
Y1893D01*
X13518D01*
Y1888D01*
X13524D01*
Y1882D01*
Y1876D01*
X13530D01*
Y1870D01*
Y1864D01*
X13536D01*
Y1858D01*
Y1852D01*
X13542D01*
Y1846D01*
X13548D01*
Y1840D01*
Y1835D01*
X13554D01*
Y1829D01*
Y1823D01*
X13560D01*
Y1817D01*
Y1811D01*
X13566D01*
Y1805D01*
X13571D01*
Y1799D01*
Y1793D01*
X13577D01*
Y1787D01*
Y1782D01*
X13583D01*
Y1776D01*
X13589D01*
Y1770D01*
Y1764D01*
X13595D01*
Y1758D01*
Y1752D01*
X13601D01*
Y1746D01*
Y1740D01*
X13607D01*
Y1734D01*
X13613D01*
Y1729D01*
Y1723D01*
X13619D01*
Y1717D01*
Y1711D01*
X13624D01*
Y1705D01*
Y1699D01*
X13630D01*
Y1693D01*
X13636D01*
Y1687D01*
Y1681D01*
X13642D01*
Y1676D01*
Y1670D01*
X13648D01*
Y1664D01*
X13654D01*
Y1658D01*
Y1652D01*
X13660D01*
Y1646D01*
Y1640D01*
X13666D01*
Y1634D01*
Y1629D01*
X13672D01*
Y1623D01*
X13677D01*
Y1617D01*
Y1611D01*
X13683D01*
Y1605D01*
Y1599D01*
X12317D01*
Y1605D01*
Y1611D01*
X12323D01*
Y1617D01*
Y1623D01*
X12329D01*
Y1629D01*
X12335D01*
Y1634D01*
Y1640D01*
X12341D01*
Y1646D01*
Y1652D01*
X12347D01*
Y1658D01*
Y1664D01*
X12353D01*
Y1670D01*
X12359D01*
Y1676D01*
Y1681D01*
X12364D01*
Y1687D01*
Y1693D01*
X12370D01*
Y1699D01*
X12376D01*
Y1705D01*
Y1711D01*
X12382D01*
Y1717D01*
Y1723D01*
X12388D01*
Y1729D01*
Y1734D01*
X12394D01*
Y1740D01*
X12400D01*
Y1746D01*
Y1752D01*
X12406D01*
Y1758D01*
Y1764D01*
X12412D01*
Y1770D01*
Y1776D01*
X12417D01*
Y1782D01*
X12423D01*
Y1787D01*
Y1793D01*
X12429D01*
Y1799D01*
Y1805D01*
X12435D01*
Y1811D01*
X12441D01*
Y1817D01*
Y1823D01*
X12447D01*
Y1829D01*
Y1835D01*
X12453D01*
Y1840D01*
Y1846D01*
X12459D01*
Y1852D01*
X12464D01*
Y1858D01*
Y1864D01*
X12470D01*
Y1870D01*
Y1876D01*
X12476D01*
Y1882D01*
Y1888D01*
X12482D01*
Y1893D01*
X12488D01*
Y1899D01*
Y1905D01*
X12494D01*
Y1911D01*
Y1917D01*
X12500D01*
Y1923D01*
X12506D01*
Y1929D01*
Y1935D01*
X12512D01*
Y1941D01*
Y1946D01*
X12517D01*
Y1952D01*
Y1958D01*
X12523D01*
Y1964D01*
X12529D01*
Y1970D01*
Y1976D01*
X12535D01*
Y1982D01*
Y1988D01*
X12541D01*
Y1994D01*
Y1999D01*
X12547D01*
Y2005D01*
X12553D01*
Y2011D01*
Y2017D01*
X12559D01*
Y2023D01*
Y2029D01*
X12565D01*
Y2035D01*
X12570D01*
Y2041D01*
Y2047D01*
X12576D01*
Y2052D01*
Y2058D01*
X12582D01*
Y2064D01*
Y2070D01*
X12588D01*
Y2076D01*
X12594D01*
Y2082D01*
Y2088D01*
X12600D01*
Y2094D01*
Y2100D01*
X12606D01*
Y2105D01*
Y2111D01*
X12612D01*
Y2117D01*
X12618D01*
Y2123D01*
Y2129D01*
X12623D01*
Y2135D01*
Y2141D01*
X12629D01*
Y2147D01*
X12635D01*
Y2153D01*
Y2158D01*
X12641D01*
Y2164D01*
Y2170D01*
X12647D01*
Y2176D01*
Y2182D01*
X12653D01*
Y2188D01*
X12659D01*
Y2194D01*
Y2200D01*
X12665D01*
Y2206D01*
Y2211D01*
X12671D01*
Y2217D01*
Y2223D01*
X12676D01*
Y2229D01*
X12682D01*
Y2235D01*
Y2241D01*
X12688D01*
Y2247D01*
Y2253D01*
X12694D01*
Y2259D01*
X12700D01*
Y2264D01*
Y2270D01*
X12706D01*
Y2276D01*
Y2282D01*
X12712D01*
Y2288D01*
Y2294D01*
X12718D01*
Y2300D01*
X12724D01*
Y2306D01*
Y2312D01*
X12729D01*
Y2317D01*
Y2323D01*
X12735D01*
Y2329D01*
Y2335D01*
X12741D01*
Y2341D01*
X12747D01*
Y2347D01*
Y2353D01*
X12753D01*
Y2359D01*
Y2364D01*
X12759D01*
Y2370D01*
X12765D01*
Y2376D01*
Y2382D01*
X12771D01*
Y2388D01*
Y2394D01*
X12777D01*
Y2400D01*
Y2406D01*
X12782D01*
Y2412D01*
X12788D01*
Y2417D01*
Y2423D01*
X12794D01*
Y2429D01*
Y2435D01*
X12800D01*
Y2441D01*
Y2447D01*
X12806D01*
Y2453D01*
X12812D01*
Y2459D01*
Y2465D01*
X12818D01*
Y2470D01*
Y2476D01*
X12824D01*
Y2482D01*
X12830D01*
Y2488D01*
Y2494D01*
X12835D01*
Y2500D01*
Y2506D01*
X12841D01*
Y2512D01*
Y2518D01*
X12847D01*
Y2523D01*
X12853D01*
Y2529D01*
Y2535D01*
X12859D01*
Y2541D01*
Y2547D01*
X12865D01*
Y2553D01*
Y2559D01*
X12871D01*
Y2565D01*
X12877D01*
Y2571D01*
Y2576D01*
X12883D01*
Y2582D01*
Y2588D01*
X12888D01*
Y2594D01*
X12894D01*
Y2600D01*
Y2606D01*
X12900D01*
Y2612D01*
Y2618D01*
X12906D01*
Y2624D01*
Y2629D01*
X12912D01*
Y2635D01*
X12918D01*
Y2641D01*
Y2647D01*
X12924D01*
Y2653D01*
Y2659D01*
X12930D01*
Y2665D01*
Y2671D01*
X12936D01*
Y2677D01*
X12941D01*
Y2682D01*
Y2688D01*
X12947D01*
Y2694D01*
Y2700D01*
X12953D01*
Y2706D01*
X12959D01*
Y2712D01*
Y2718D01*
X12965D01*
Y2724D01*
Y2730D01*
X12971D01*
Y2735D01*
Y2741D01*
X12977D01*
Y2747D01*
X12983D01*
Y2753D01*
Y2759D01*
X12989D01*
Y2765D01*
Y2771D01*
X12994D01*
Y2777D01*
Y2783D01*
X13006D01*
Y2777D01*
D02*
G37*
%LPC*%
G36*
X5298Y9743D02*
X4950D01*
Y9735D01*
Y9726D01*
Y9718D01*
Y9709D01*
Y9701D01*
Y9692D01*
Y9684D01*
Y9675D01*
Y9667D01*
Y9658D01*
Y9650D01*
Y9641D01*
Y9633D01*
Y9624D01*
Y9616D01*
Y9607D01*
Y9599D01*
Y9590D01*
Y9582D01*
Y9573D01*
Y9565D01*
Y9556D01*
Y9548D01*
Y9539D01*
Y9531D01*
Y9523D01*
Y9514D01*
Y9506D01*
Y9497D01*
Y9489D01*
Y9480D01*
Y9472D01*
Y9463D01*
Y9455D01*
Y9446D01*
Y9438D01*
Y9429D01*
Y9421D01*
Y9412D01*
Y9404D01*
Y9395D01*
Y9387D01*
Y9378D01*
Y9370D01*
Y9361D01*
Y9353D01*
Y9344D01*
Y9336D01*
Y9327D01*
Y9319D01*
Y9311D01*
Y9302D01*
Y9294D01*
Y9285D01*
Y9277D01*
Y9268D01*
X5298D01*
Y9277D01*
Y9285D01*
Y9294D01*
Y9302D01*
Y9311D01*
Y9319D01*
Y9327D01*
Y9336D01*
Y9344D01*
Y9353D01*
Y9361D01*
Y9370D01*
Y9378D01*
Y9387D01*
Y9395D01*
Y9404D01*
Y9412D01*
Y9421D01*
Y9429D01*
Y9438D01*
Y9446D01*
Y9455D01*
Y9463D01*
Y9472D01*
Y9480D01*
Y9489D01*
Y9497D01*
Y9506D01*
Y9514D01*
Y9523D01*
Y9531D01*
Y9539D01*
Y9548D01*
Y9556D01*
Y9565D01*
Y9573D01*
Y9582D01*
Y9590D01*
Y9599D01*
Y9607D01*
Y9616D01*
Y9624D01*
Y9633D01*
Y9641D01*
Y9650D01*
Y9658D01*
Y9667D01*
Y9675D01*
Y9684D01*
Y9692D01*
Y9701D01*
Y9709D01*
Y9718D01*
Y9726D01*
Y9735D01*
Y9743D01*
D02*
G37*
G36*
Y9090D02*
X4950D01*
Y9082D01*
Y9073D01*
Y9065D01*
Y9056D01*
Y9048D01*
Y9039D01*
Y9031D01*
Y9022D01*
Y9014D01*
Y9005D01*
Y8997D01*
Y8988D01*
Y8980D01*
Y8971D01*
Y8963D01*
Y8954D01*
Y8946D01*
Y8937D01*
Y8929D01*
Y8920D01*
Y8912D01*
Y8904D01*
Y8895D01*
Y8887D01*
Y8878D01*
Y8870D01*
Y8861D01*
Y8853D01*
Y8844D01*
Y8836D01*
Y8827D01*
Y8819D01*
Y8810D01*
Y8802D01*
Y8793D01*
Y8785D01*
Y8776D01*
Y8768D01*
Y8759D01*
Y8751D01*
Y8742D01*
Y8734D01*
Y8725D01*
Y8717D01*
Y8708D01*
Y8700D01*
Y8692D01*
Y8683D01*
Y8675D01*
Y8666D01*
Y8658D01*
Y8649D01*
X5298D01*
Y8658D01*
Y8666D01*
Y8675D01*
Y8683D01*
Y8692D01*
Y8700D01*
Y8708D01*
Y8717D01*
Y8725D01*
Y8734D01*
Y8742D01*
Y8751D01*
Y8759D01*
Y8768D01*
Y8776D01*
Y8785D01*
Y8793D01*
Y8802D01*
Y8810D01*
Y8819D01*
Y8827D01*
Y8836D01*
Y8844D01*
Y8853D01*
Y8861D01*
Y8870D01*
Y8878D01*
Y8887D01*
Y8895D01*
Y8904D01*
Y8912D01*
Y8920D01*
Y8929D01*
Y8937D01*
Y8946D01*
Y8954D01*
Y8963D01*
Y8971D01*
Y8980D01*
Y8988D01*
Y8997D01*
Y9005D01*
Y9014D01*
Y9022D01*
Y9031D01*
Y9039D01*
Y9048D01*
Y9056D01*
Y9065D01*
Y9073D01*
Y9082D01*
Y9090D01*
D02*
G37*
G36*
X6256Y8708D02*
X5908D01*
Y8700D01*
Y8692D01*
Y8683D01*
Y8675D01*
Y8666D01*
Y8658D01*
Y8649D01*
Y8641D01*
Y8632D01*
Y8624D01*
Y8615D01*
Y8607D01*
Y8598D01*
Y8590D01*
Y8581D01*
Y8573D01*
Y8564D01*
Y8556D01*
Y8547D01*
Y8539D01*
Y8530D01*
Y8522D01*
Y8513D01*
Y8505D01*
Y8496D01*
Y8488D01*
Y8480D01*
Y8471D01*
Y8463D01*
Y8454D01*
Y8446D01*
Y8437D01*
Y8429D01*
Y8420D01*
Y8412D01*
Y8403D01*
Y8395D01*
Y8386D01*
Y8378D01*
Y8369D01*
Y8361D01*
Y8352D01*
Y8344D01*
Y8335D01*
Y8327D01*
Y8318D01*
Y8310D01*
Y8301D01*
Y8293D01*
Y8284D01*
Y8276D01*
Y8268D01*
Y8259D01*
Y8251D01*
Y8242D01*
Y8234D01*
Y8225D01*
Y8217D01*
Y8208D01*
Y8200D01*
Y8191D01*
Y8183D01*
Y8174D01*
Y8166D01*
Y8157D01*
Y8149D01*
Y8140D01*
Y8132D01*
Y8123D01*
Y8115D01*
Y8106D01*
Y8098D01*
Y8089D01*
Y8081D01*
Y8073D01*
Y8064D01*
Y8056D01*
Y8047D01*
Y8039D01*
Y8030D01*
Y8022D01*
Y8013D01*
Y8005D01*
Y7996D01*
Y7988D01*
Y7979D01*
X5968D01*
Y7971D01*
X6256D01*
Y7979D01*
X6264D01*
Y7988D01*
Y7996D01*
Y8005D01*
Y8013D01*
Y8022D01*
Y8030D01*
Y8039D01*
Y8047D01*
Y8056D01*
Y8064D01*
Y8073D01*
Y8081D01*
Y8089D01*
Y8098D01*
Y8106D01*
Y8115D01*
Y8123D01*
X6256D01*
Y8132D01*
Y8140D01*
Y8149D01*
Y8157D01*
Y8166D01*
Y8174D01*
Y8183D01*
Y8191D01*
Y8200D01*
Y8208D01*
Y8217D01*
Y8225D01*
Y8234D01*
Y8242D01*
Y8251D01*
Y8259D01*
Y8268D01*
Y8276D01*
Y8284D01*
Y8293D01*
Y8301D01*
Y8310D01*
Y8318D01*
Y8327D01*
Y8335D01*
Y8344D01*
Y8352D01*
Y8361D01*
Y8369D01*
Y8378D01*
Y8386D01*
Y8395D01*
Y8403D01*
Y8412D01*
Y8420D01*
Y8429D01*
Y8437D01*
Y8446D01*
Y8454D01*
Y8463D01*
Y8471D01*
Y8480D01*
Y8488D01*
Y8496D01*
Y8505D01*
Y8513D01*
Y8522D01*
Y8530D01*
Y8539D01*
Y8547D01*
Y8556D01*
Y8564D01*
Y8573D01*
Y8581D01*
Y8590D01*
Y8598D01*
Y8607D01*
Y8615D01*
Y8624D01*
Y8632D01*
Y8641D01*
Y8649D01*
Y8658D01*
Y8666D01*
Y8675D01*
Y8683D01*
Y8692D01*
Y8700D01*
Y8708D01*
D02*
G37*
G36*
X2571Y10003D02*
X2131D01*
Y9991D01*
X2070D01*
Y9979D01*
X2021D01*
Y9967D01*
X1973D01*
Y9955D01*
X1948D01*
Y9942D01*
X1912D01*
Y9930D01*
X1887D01*
Y9918D01*
X1863D01*
Y9906D01*
X1838D01*
Y9894D01*
X1814D01*
Y9881D01*
X1789D01*
Y9869D01*
X1765D01*
Y9857D01*
X1741D01*
Y9845D01*
X1728D01*
Y9833D01*
X1716D01*
Y9820D01*
X1680D01*
Y9808D01*
X1655D01*
Y9796D01*
X1631D01*
Y9784D01*
X1619D01*
Y9771D01*
X1594D01*
Y9759D01*
X1570D01*
Y9747D01*
X1557D01*
Y9735D01*
X1533D01*
Y9723D01*
X1521D01*
Y9710D01*
X1509D01*
Y9698D01*
X1484D01*
Y9686D01*
X1472D01*
Y9674D01*
X1448D01*
Y9662D01*
X1472D01*
Y9649D01*
X1509D01*
Y9662D01*
X1521D01*
Y9674D01*
Y9686D01*
X1533D01*
Y9698D01*
X1545D01*
Y9710D01*
X1570D01*
Y9723D01*
X1606D01*
Y9735D01*
X1692D01*
Y9723D01*
X1716D01*
Y9710D01*
X1741D01*
Y9698D01*
X1753D01*
Y9686D01*
Y9674D01*
X1765D01*
Y9662D01*
X1777D01*
Y9649D01*
Y9637D01*
X1789D01*
Y9625D01*
Y9613D01*
X1802D01*
Y9601D01*
Y9588D01*
Y9576D01*
Y9564D01*
Y9552D01*
Y9539D01*
Y9527D01*
X1814D01*
Y9515D01*
Y9503D01*
X1802D01*
Y9491D01*
Y9478D01*
Y9466D01*
Y9454D01*
X1789D01*
Y9442D01*
Y9430D01*
Y9417D01*
X1777D01*
Y9405D01*
Y9393D01*
X1765D01*
Y9381D01*
Y9369D01*
X1753D01*
Y9356D01*
Y9344D01*
X1741D01*
Y9332D01*
Y9320D01*
X1728D01*
Y9307D01*
Y9295D01*
X1716D01*
Y9283D01*
X1704D01*
Y9271D01*
X1692D01*
Y9259D01*
X1680D01*
Y9246D01*
X1667D01*
Y9234D01*
X1643D01*
Y9246D01*
X1606D01*
Y9259D01*
X1570D01*
Y9271D01*
X1533D01*
Y9283D01*
X1509D01*
Y9295D01*
X1484D01*
Y9307D01*
X1460D01*
Y9320D01*
X1435D01*
Y9332D01*
X1411D01*
Y9344D01*
X1387D01*
Y9356D01*
X1374D01*
Y9369D01*
X1350D01*
Y9381D01*
X1338D01*
Y9393D01*
X1325D01*
Y9405D01*
X1313D01*
Y9417D01*
X1301D01*
Y9430D01*
Y9442D01*
X1289D01*
Y9454D01*
Y9466D01*
Y9478D01*
X1277D01*
Y9466D01*
X1264D01*
Y9454D01*
Y9442D01*
X1252D01*
Y9430D01*
Y9417D01*
X1240D01*
Y9405D01*
X1228D01*
Y9393D01*
X1216D01*
Y9381D01*
Y9369D01*
X1203D01*
Y9356D01*
Y9344D01*
Y9332D01*
X1191D01*
Y9320D01*
X1179D01*
Y9307D01*
Y9295D01*
X1167D01*
Y9283D01*
X1155D01*
Y9271D01*
Y9259D01*
X1142D01*
Y9246D01*
Y9234D01*
X1130D01*
Y9222D01*
Y9210D01*
X1118D01*
Y9198D01*
Y9185D01*
X1106D01*
Y9173D01*
Y9161D01*
X1094D01*
Y9149D01*
Y9137D01*
X1081D01*
Y9124D01*
Y9112D01*
Y9100D01*
X1069D01*
Y9088D01*
Y9075D01*
Y9063D01*
X1057D01*
Y9051D01*
Y9039D01*
Y9027D01*
X1045D01*
Y9014D01*
Y9002D01*
Y8990D01*
Y8978D01*
X1032D01*
Y8966D01*
Y8953D01*
Y8941D01*
Y8929D01*
X1020D01*
Y8917D01*
Y8905D01*
Y8892D01*
Y8880D01*
Y8868D01*
Y8856D01*
X1008D01*
Y8843D01*
Y8831D01*
X1020D01*
Y8819D01*
X1032D01*
Y8807D01*
Y8795D01*
Y8782D01*
Y8770D01*
Y8758D01*
X1020D01*
Y8746D01*
Y8734D01*
Y8721D01*
X1008D01*
Y8709D01*
Y8697D01*
Y8685D01*
X996D01*
Y8673D01*
Y8660D01*
Y8648D01*
Y8636D01*
Y8624D01*
Y8612D01*
Y8599D01*
Y8587D01*
Y8575D01*
Y8563D01*
Y8550D01*
Y8538D01*
Y8526D01*
Y8514D01*
Y8502D01*
Y8489D01*
Y8477D01*
Y8465D01*
Y8453D01*
Y8441D01*
Y8428D01*
Y8416D01*
Y8404D01*
Y8392D01*
Y8379D01*
Y8367D01*
Y8355D01*
Y8343D01*
X1008D01*
Y8331D01*
Y8318D01*
Y8306D01*
Y8294D01*
X1020D01*
Y8282D01*
Y8270D01*
Y8257D01*
Y8245D01*
Y8233D01*
X1032D01*
Y8221D01*
Y8209D01*
Y8196D01*
Y8184D01*
Y8172D01*
X1045D01*
Y8160D01*
Y8148D01*
Y8135D01*
X1057D01*
Y8123D01*
Y8111D01*
Y8099D01*
X1069D01*
Y8086D01*
Y8074D01*
X1081D01*
Y8062D01*
Y8050D01*
Y8038D01*
Y8025D01*
Y8013D01*
Y8001D01*
X1094D01*
Y7989D01*
Y7977D01*
Y7964D01*
Y7952D01*
X1106D01*
Y7940D01*
Y7928D01*
Y7916D01*
X1118D01*
Y7903D01*
Y7891D01*
Y7879D01*
X1167D01*
Y7867D01*
X1179D01*
Y7854D01*
X1191D01*
Y7842D01*
Y7830D01*
X1203D01*
Y7818D01*
Y7806D01*
X1216D01*
Y7793D01*
X1228D01*
Y7781D01*
X1240D01*
Y7769D01*
X1252D01*
Y7757D01*
Y7745D01*
X1264D01*
Y7732D01*
X1277D01*
Y7720D01*
X1289D01*
Y7708D01*
X1301D01*
Y7696D01*
X1313D01*
Y7684D01*
X1325D01*
Y7671D01*
X1338D01*
Y7659D01*
Y7647D01*
X1350D01*
Y7635D01*
X1362D01*
Y7622D01*
X1374D01*
Y7610D01*
X1387D01*
Y7598D01*
X1399D01*
Y7586D01*
X1411D01*
Y7598D01*
Y7610D01*
X1399D01*
Y7622D01*
X1387D01*
Y7635D01*
X1374D01*
Y7647D01*
X1362D01*
Y7659D01*
Y7671D01*
X1350D01*
Y7684D01*
X1338D01*
Y7696D01*
Y7708D01*
Y7720D01*
Y7732D01*
Y7745D01*
X1362D01*
Y7732D01*
X1374D01*
Y7720D01*
X1387D01*
Y7708D01*
Y7696D01*
X1399D01*
Y7684D01*
X1411D01*
Y7671D01*
X1423D01*
Y7659D01*
X1435D01*
Y7647D01*
X1448D01*
Y7635D01*
X1460D01*
Y7622D01*
X1472D01*
Y7610D01*
X1484D01*
Y7598D01*
X1496D01*
Y7586D01*
X1509D01*
Y7574D01*
X1533D01*
Y7561D01*
X1545D01*
Y7549D01*
X1570D01*
Y7537D01*
X1582D01*
Y7525D01*
X1606D01*
Y7513D01*
X1631D01*
Y7525D01*
X1619D01*
Y7537D01*
X1606D01*
Y7549D01*
X1594D01*
Y7561D01*
X1582D01*
Y7574D01*
X1570D01*
Y7586D01*
X1557D01*
Y7598D01*
X1545D01*
Y7610D01*
Y7622D01*
X1533D01*
Y7635D01*
X1521D01*
Y7647D01*
X1509D01*
Y7659D01*
X1496D01*
Y7671D01*
Y7684D01*
X1484D01*
Y7696D01*
X1472D01*
Y7708D01*
Y7720D01*
X1460D01*
Y7732D01*
Y7745D01*
X1448D01*
Y7757D01*
X1435D01*
Y7769D01*
Y7781D01*
X1423D01*
Y7793D01*
Y7806D01*
X1411D01*
Y7818D01*
Y7830D01*
X1399D01*
Y7842D01*
Y7854D01*
X1387D01*
Y7867D01*
Y7879D01*
Y7891D01*
X1374D01*
Y7903D01*
Y7916D01*
X1362D01*
Y7928D01*
Y7940D01*
Y7952D01*
Y7964D01*
X1350D01*
Y7977D01*
Y7989D01*
Y8001D01*
Y8013D01*
Y8025D01*
X1338D01*
Y8038D01*
Y8050D01*
Y8062D01*
X1325D01*
Y8074D01*
Y8086D01*
Y8099D01*
Y8111D01*
X1313D01*
Y8123D01*
Y8135D01*
Y8148D01*
Y8160D01*
Y8172D01*
Y8184D01*
Y8196D01*
X1301D01*
Y8209D01*
Y8221D01*
Y8233D01*
Y8245D01*
Y8257D01*
Y8270D01*
Y8282D01*
X1289D01*
Y8294D01*
Y8306D01*
Y8318D01*
Y8331D01*
Y8343D01*
X1277D01*
Y8355D01*
Y8367D01*
Y8379D01*
Y8392D01*
Y8404D01*
Y8416D01*
Y8428D01*
Y8441D01*
X1289D01*
Y8453D01*
Y8465D01*
Y8477D01*
Y8489D01*
Y8502D01*
Y8514D01*
Y8526D01*
Y8538D01*
Y8550D01*
Y8563D01*
Y8575D01*
Y8587D01*
X1301D01*
Y8599D01*
Y8612D01*
Y8624D01*
Y8636D01*
X1313D01*
Y8648D01*
X1338D01*
Y8636D01*
X1350D01*
Y8624D01*
Y8612D01*
X1338D01*
Y8599D01*
Y8587D01*
Y8575D01*
Y8563D01*
Y8550D01*
X1325D01*
Y8538D01*
Y8526D01*
Y8514D01*
Y8502D01*
X1338D01*
Y8489D01*
X1350D01*
Y8477D01*
Y8465D01*
Y8453D01*
Y8441D01*
Y8428D01*
Y8416D01*
Y8404D01*
Y8392D01*
Y8379D01*
Y8367D01*
Y8355D01*
Y8343D01*
Y8331D01*
Y8318D01*
Y8306D01*
X1362D01*
Y8294D01*
Y8282D01*
Y8270D01*
Y8257D01*
Y8245D01*
Y8233D01*
Y8221D01*
X1374D01*
Y8209D01*
Y8196D01*
Y8184D01*
Y8172D01*
Y8160D01*
X1387D01*
Y8148D01*
Y8135D01*
Y8123D01*
X1399D01*
Y8111D01*
Y8099D01*
Y8086D01*
X1411D01*
Y8074D01*
Y8062D01*
X1423D01*
Y8050D01*
Y8038D01*
X1435D01*
Y8050D01*
X1448D01*
Y8062D01*
X1460D01*
Y8074D01*
X1472D01*
Y8086D01*
X1484D01*
Y8099D01*
X1496D01*
Y8111D01*
X1509D01*
Y8123D01*
Y8135D01*
X1521D01*
Y8148D01*
X1533D01*
Y8160D01*
Y8172D01*
X1545D01*
Y8184D01*
X1557D01*
Y8196D01*
Y8209D01*
X1570D01*
Y8221D01*
X1582D01*
Y8233D01*
Y8245D01*
X1594D01*
Y8257D01*
Y8270D01*
X1606D01*
Y8282D01*
Y8294D01*
X1619D01*
Y8306D01*
Y8318D01*
X1631D01*
Y8331D01*
Y8343D01*
Y8355D01*
X1643D01*
Y8367D01*
Y8379D01*
Y8392D01*
X1619D01*
Y8379D01*
X1582D01*
Y8367D01*
X1557D01*
Y8355D01*
X1521D01*
Y8343D01*
X1496D01*
Y8331D01*
X1435D01*
Y8343D01*
Y8355D01*
Y8367D01*
X1460D01*
Y8379D01*
X1484D01*
Y8392D01*
X1509D01*
Y8404D01*
X1533D01*
Y8416D01*
X1545D01*
Y8428D01*
X1570D01*
Y8441D01*
X1594D01*
Y8453D01*
X1619D01*
Y8465D01*
X1631D01*
Y8477D01*
X1643D01*
Y8489D01*
X1655D01*
Y8502D01*
X1667D01*
Y8514D01*
X1680D01*
Y8526D01*
X1692D01*
Y8538D01*
X1716D01*
Y8550D01*
Y8563D01*
X1704D01*
Y8575D01*
Y8587D01*
X1692D01*
Y8599D01*
Y8612D01*
Y8624D01*
X1680D01*
Y8636D01*
Y8648D01*
Y8660D01*
Y8673D01*
X1667D01*
Y8685D01*
Y8697D01*
Y8709D01*
Y8721D01*
Y8734D01*
Y8746D01*
Y8758D01*
Y8770D01*
Y8782D01*
Y8795D01*
Y8807D01*
X1680D01*
Y8819D01*
X1692D01*
Y8831D01*
X1716D01*
Y8819D01*
X1728D01*
Y8807D01*
Y8795D01*
Y8782D01*
Y8770D01*
Y8758D01*
Y8746D01*
Y8734D01*
X1716D01*
Y8721D01*
Y8709D01*
Y8697D01*
X1728D01*
Y8685D01*
X1741D01*
Y8673D01*
Y8660D01*
Y8648D01*
X1753D01*
Y8636D01*
Y8624D01*
Y8612D01*
X1765D01*
Y8599D01*
Y8587D01*
Y8575D01*
X1777D01*
Y8563D01*
Y8550D01*
X1789D01*
Y8538D01*
Y8526D01*
X1802D01*
Y8514D01*
Y8502D01*
X1814D01*
Y8489D01*
X1826D01*
Y8477D01*
Y8465D01*
X1838D01*
Y8453D01*
Y8441D01*
X1851D01*
Y8428D01*
X1863D01*
Y8416D01*
Y8404D01*
X1875D01*
Y8392D01*
X1887D01*
Y8379D01*
X1899D01*
Y8367D01*
Y8355D01*
X1912D01*
Y8343D01*
X1924D01*
Y8331D01*
X1936D01*
Y8318D01*
X1948D01*
Y8306D01*
X1960D01*
Y8294D01*
X1973D01*
Y8306D01*
Y8318D01*
Y8331D01*
Y8343D01*
Y8355D01*
Y8367D01*
Y8379D01*
Y8392D01*
Y8404D01*
Y8416D01*
Y8428D01*
Y8441D01*
Y8453D01*
Y8465D01*
X1960D01*
Y8477D01*
Y8489D01*
Y8502D01*
Y8514D01*
Y8526D01*
X1948D01*
Y8538D01*
Y8550D01*
Y8563D01*
Y8575D01*
Y8587D01*
Y8599D01*
Y8612D01*
X1936D01*
Y8624D01*
Y8636D01*
X1948D01*
Y8648D01*
X1973D01*
Y8636D01*
X1985D01*
Y8624D01*
X1997D01*
Y8612D01*
Y8599D01*
Y8587D01*
X2009D01*
Y8575D01*
Y8563D01*
Y8550D01*
X2021D01*
Y8538D01*
Y8526D01*
Y8514D01*
Y8502D01*
Y8489D01*
X2034D01*
Y8477D01*
Y8465D01*
Y8453D01*
Y8441D01*
Y8428D01*
Y8416D01*
Y8404D01*
Y8392D01*
Y8379D01*
Y8367D01*
X2046D01*
Y8355D01*
Y8343D01*
Y8331D01*
Y8318D01*
Y8306D01*
Y8294D01*
Y8282D01*
Y8270D01*
Y8257D01*
Y8245D01*
Y8233D01*
Y8221D01*
Y8209D01*
Y8196D01*
Y8184D01*
Y8172D01*
Y8160D01*
X2070D01*
Y8172D01*
X2083D01*
Y8184D01*
Y8196D01*
X2095D01*
Y8209D01*
X2107D01*
Y8221D01*
X2119D01*
Y8233D01*
Y8245D01*
X2131D01*
Y8257D01*
X2144D01*
Y8270D01*
X2156D01*
Y8282D01*
Y8294D01*
X2168D01*
Y8306D01*
X2180D01*
Y8318D01*
Y8331D01*
X2192D01*
Y8343D01*
Y8355D01*
X2205D01*
Y8367D01*
X2217D01*
Y8379D01*
Y8392D01*
X2229D01*
Y8404D01*
Y8416D01*
X2241D01*
Y8428D01*
Y8441D01*
Y8453D01*
X2253D01*
Y8465D01*
Y8477D01*
Y8489D01*
X2266D01*
Y8502D01*
Y8514D01*
Y8526D01*
Y8538D01*
Y8550D01*
X2278D01*
Y8563D01*
Y8575D01*
Y8587D01*
X2290D01*
Y8599D01*
Y8612D01*
Y8624D01*
Y8636D01*
Y8648D01*
Y8660D01*
X2266D01*
Y8673D01*
X2241D01*
Y8685D01*
X2217D01*
Y8697D01*
X2192D01*
Y8709D01*
X2168D01*
Y8721D01*
X2156D01*
Y8734D01*
X2131D01*
Y8746D01*
X2107D01*
Y8758D01*
X2095D01*
Y8770D01*
X2070D01*
Y8782D01*
X2058D01*
Y8795D01*
X2046D01*
Y8807D01*
X2034D01*
Y8819D01*
X2021D01*
Y8831D01*
X2009D01*
Y8843D01*
X1997D01*
Y8856D01*
X1985D01*
Y8868D01*
X1973D01*
Y8880D01*
X1960D01*
Y8892D01*
Y8905D01*
X1948D01*
Y8917D01*
X1936D01*
Y8929D01*
Y8941D01*
X1924D01*
Y8953D01*
X1912D01*
Y8966D01*
Y8978D01*
X1899D01*
Y8990D01*
Y9002D01*
X1887D01*
Y9014D01*
Y9027D01*
X1875D01*
Y9039D01*
Y9051D01*
Y9063D01*
X1863D01*
Y9075D01*
Y9088D01*
X1851D01*
Y9100D01*
Y9112D01*
Y9124D01*
Y9137D01*
X1838D01*
Y9149D01*
Y9161D01*
Y9173D01*
Y9185D01*
X1875D01*
Y9173D01*
X1887D01*
Y9161D01*
X1899D01*
Y9149D01*
Y9137D01*
X1912D01*
Y9124D01*
X1924D01*
Y9112D01*
X1936D01*
Y9100D01*
X1948D01*
Y9088D01*
Y9075D01*
X1960D01*
Y9063D01*
X1973D01*
Y9051D01*
X1985D01*
Y9039D01*
X1997D01*
Y9027D01*
X2009D01*
Y9014D01*
X2034D01*
Y9002D01*
X2046D01*
Y8990D01*
X2058D01*
Y8978D01*
X2070D01*
Y8966D01*
X2083D01*
Y8953D01*
X2095D01*
Y8941D01*
X2119D01*
Y8929D01*
X2131D01*
Y8917D01*
X2144D01*
Y8905D01*
X2168D01*
Y8892D01*
X2180D01*
Y8880D01*
X2205D01*
Y8868D01*
X2229D01*
Y8856D01*
X2253D01*
Y8843D01*
X2278D01*
Y8831D01*
X2302D01*
Y8819D01*
X2327D01*
Y8807D01*
X2351D01*
Y8795D01*
X2363D01*
Y8782D01*
X2376D01*
Y8770D01*
X2388D01*
Y8758D01*
Y8746D01*
Y8734D01*
X2400D01*
Y8746D01*
Y8758D01*
X2412D01*
Y8770D01*
X2424D01*
Y8758D01*
X2498D01*
Y8746D01*
X2547D01*
Y8734D01*
X2608D01*
Y8721D01*
X2681D01*
Y8709D01*
X2815D01*
Y8697D01*
X2803D01*
Y8685D01*
Y8673D01*
X2779D01*
Y8660D01*
X2730D01*
Y8648D01*
X2656D01*
Y8636D01*
X2632D01*
Y8624D01*
Y8612D01*
Y8599D01*
Y8587D01*
X2644D01*
Y8575D01*
X2656D01*
Y8563D01*
Y8550D01*
X2669D01*
Y8538D01*
Y8526D01*
X2681D01*
Y8514D01*
Y8502D01*
X2693D01*
Y8489D01*
Y8477D01*
Y8465D01*
X2705D01*
Y8453D01*
Y8441D01*
Y8428D01*
Y8416D01*
Y8404D01*
Y8392D01*
Y8379D01*
X2717D01*
Y8367D01*
Y8355D01*
Y8343D01*
X2730D01*
Y8331D01*
Y8318D01*
X2742D01*
Y8306D01*
Y8294D01*
X2754D01*
Y8282D01*
Y8270D01*
X2766D01*
Y8257D01*
Y8245D01*
Y8233D01*
X2779D01*
Y8221D01*
Y8209D01*
Y8196D01*
X2791D01*
Y8184D01*
Y8172D01*
Y8160D01*
Y8148D01*
X2803D01*
Y8135D01*
Y8123D01*
Y8111D01*
Y8099D01*
X2815D01*
Y8086D01*
Y8074D01*
Y8062D01*
Y8050D01*
Y8038D01*
Y8025D01*
Y8013D01*
Y8001D01*
Y7989D01*
Y7977D01*
Y7964D01*
Y7952D01*
Y7940D01*
Y7928D01*
Y7916D01*
Y7903D01*
X2827D01*
Y7916D01*
X2840D01*
Y7928D01*
Y7940D01*
X2852D01*
Y7952D01*
Y7964D01*
X2864D01*
Y7977D01*
Y7989D01*
Y8001D01*
Y8013D01*
Y8025D01*
Y8038D01*
X2876D01*
Y8050D01*
Y8062D01*
Y8074D01*
Y8086D01*
Y8099D01*
Y8111D01*
Y8123D01*
X2864D01*
Y8135D01*
Y8148D01*
Y8160D01*
Y8172D01*
Y8184D01*
Y8196D01*
Y8209D01*
Y8221D01*
X2901D01*
Y8209D01*
X2913D01*
Y8196D01*
Y8184D01*
X2925D01*
Y8172D01*
Y8160D01*
Y8148D01*
X2937D01*
Y8135D01*
Y8123D01*
Y8111D01*
Y8099D01*
Y8086D01*
Y8074D01*
Y8062D01*
Y8050D01*
Y8038D01*
Y8025D01*
Y8013D01*
Y8001D01*
Y7989D01*
Y7977D01*
X2925D01*
Y7964D01*
Y7952D01*
Y7940D01*
X2913D01*
Y7928D01*
X2925D01*
Y7916D01*
Y7903D01*
X2937D01*
Y7891D01*
Y7879D01*
X2949D01*
Y7867D01*
Y7854D01*
X2962D01*
Y7842D01*
Y7830D01*
X2974D01*
Y7818D01*
Y7806D01*
X2986D01*
Y7793D01*
Y7781D01*
Y7769D01*
X2998D01*
Y7757D01*
Y7745D01*
X3011D01*
Y7757D01*
X3023D01*
Y7769D01*
Y7781D01*
X3035D01*
Y7793D01*
Y7806D01*
Y7818D01*
X3047D01*
Y7830D01*
Y7842D01*
Y7854D01*
Y7867D01*
X3059D01*
Y7879D01*
Y7891D01*
Y7903D01*
Y7916D01*
Y7928D01*
Y7940D01*
X3072D01*
Y7952D01*
Y7964D01*
Y7977D01*
Y7989D01*
Y8001D01*
Y8013D01*
Y8025D01*
Y8038D01*
Y8050D01*
Y8062D01*
Y8074D01*
Y8086D01*
Y8099D01*
Y8111D01*
Y8123D01*
Y8135D01*
Y8148D01*
Y8160D01*
X3059D01*
Y8172D01*
Y8184D01*
Y8196D01*
Y8209D01*
Y8221D01*
Y8233D01*
Y8245D01*
X3047D01*
Y8257D01*
Y8270D01*
Y8282D01*
Y8294D01*
X3035D01*
Y8306D01*
Y8318D01*
Y8331D01*
Y8343D01*
X3023D01*
Y8355D01*
Y8367D01*
Y8379D01*
X3011D01*
Y8392D01*
Y8404D01*
Y8416D01*
X2998D01*
Y8428D01*
Y8441D01*
X2986D01*
Y8453D01*
Y8465D01*
Y8477D01*
X2974D01*
Y8489D01*
Y8502D01*
X2962D01*
Y8514D01*
Y8526D01*
X2949D01*
Y8538D01*
Y8550D01*
X2937D01*
Y8563D01*
Y8575D01*
X2925D01*
Y8587D01*
Y8599D01*
X2913D01*
Y8612D01*
X2901D01*
Y8624D01*
Y8636D01*
X2888D01*
Y8648D01*
X2876D01*
Y8660D01*
Y8673D01*
X2864D01*
Y8685D01*
X2852D01*
Y8697D01*
Y8709D01*
X2840D01*
Y8721D01*
X2827D01*
Y8734D01*
X2815D01*
Y8746D01*
Y8758D01*
X2803D01*
Y8770D01*
X2791D01*
Y8782D01*
X2779D01*
Y8795D01*
X2766D01*
Y8807D01*
X2754D01*
Y8819D01*
X2742D01*
Y8831D01*
Y8843D01*
X2730D01*
Y8856D01*
X2705D01*
Y8868D01*
X2693D01*
Y8880D01*
X2681D01*
Y8892D01*
X2669D01*
Y8905D01*
X2656D01*
Y8917D01*
X2644D01*
Y8929D01*
X2620D01*
Y8941D01*
X2608D01*
Y8953D01*
Y8966D01*
Y8978D01*
X2656D01*
Y8966D01*
X2669D01*
Y8953D01*
X2693D01*
Y8941D01*
X2705D01*
Y8929D01*
X2717D01*
Y8917D01*
X2730D01*
Y8905D01*
X2742D01*
Y8892D01*
X2754D01*
Y8880D01*
X2779D01*
Y8868D01*
X2791D01*
Y8856D01*
X2803D01*
Y8843D01*
X2815D01*
Y8831D01*
X2827D01*
Y8819D01*
X2852D01*
Y8807D01*
X2864D01*
Y8795D01*
X2888D01*
Y8782D01*
X2901D01*
Y8770D01*
X2925D01*
Y8758D01*
X2949D01*
Y8746D01*
X2974D01*
Y8734D01*
X3011D01*
Y8721D01*
X3047D01*
Y8709D01*
X3267D01*
Y8721D01*
X3291D01*
Y8734D01*
X3328D01*
Y8746D01*
X3352D01*
Y8758D01*
X3365D01*
Y8770D01*
X3377D01*
Y8782D01*
X3389D01*
Y8795D01*
X3401D01*
Y8807D01*
X3328D01*
Y8819D01*
X3267D01*
Y8831D01*
X3218D01*
Y8843D01*
X3169D01*
Y8856D01*
X3133D01*
Y8868D01*
X3120D01*
Y8880D01*
Y8892D01*
Y8905D01*
X3133D01*
Y8917D01*
X3181D01*
Y8905D01*
X3230D01*
Y8892D01*
X3279D01*
Y8880D01*
X3340D01*
Y8868D01*
X3450D01*
Y8856D01*
X3462D01*
Y8843D01*
Y8831D01*
X3475D01*
Y8819D01*
Y8807D01*
Y8795D01*
Y8782D01*
Y8770D01*
Y8758D01*
X3462D01*
Y8746D01*
Y8734D01*
X3450D01*
Y8721D01*
X3438D01*
Y8709D01*
X3389D01*
Y8697D01*
Y8685D01*
X3401D01*
Y8673D01*
X3389D01*
Y8660D01*
Y8648D01*
X3377D01*
Y8636D01*
X3365D01*
Y8624D01*
X3377D01*
Y8612D01*
X3389D01*
Y8599D01*
X3377D01*
Y8587D01*
Y8575D01*
X3365D01*
Y8563D01*
X3352D01*
Y8550D01*
X3340D01*
Y8538D01*
X3328D01*
Y8526D01*
X3291D01*
Y8514D01*
X3279D01*
Y8526D01*
X3243D01*
Y8538D01*
X3230D01*
Y8526D01*
Y8514D01*
X3243D01*
Y8502D01*
X3230D01*
Y8489D01*
Y8477D01*
X3206D01*
Y8465D01*
X3133D01*
Y8453D01*
X3059D01*
Y8441D01*
X3084D01*
Y8428D01*
X3108D01*
Y8416D01*
X3133D01*
Y8404D01*
X3169D01*
Y8392D01*
Y8379D01*
X3181D01*
Y8367D01*
Y8355D01*
X3206D01*
Y8367D01*
X3230D01*
Y8379D01*
X3291D01*
Y8367D01*
X3304D01*
Y8355D01*
X3316D01*
Y8343D01*
Y8331D01*
X3328D01*
Y8318D01*
Y8306D01*
X3316D01*
Y8294D01*
X3328D01*
Y8282D01*
Y8270D01*
Y8257D01*
X3316D01*
Y8245D01*
Y8233D01*
X3304D01*
Y8221D01*
X3291D01*
Y8209D01*
X3279D01*
Y8196D01*
X3255D01*
Y8184D01*
X3267D01*
Y8172D01*
X3279D01*
Y8160D01*
Y8148D01*
X3291D01*
Y8135D01*
Y8123D01*
Y8111D01*
X3279D01*
Y8099D01*
X3255D01*
Y8086D01*
X3230D01*
Y8099D01*
X3206D01*
Y8111D01*
X3194D01*
Y8123D01*
X3181D01*
Y8111D01*
Y8099D01*
X3194D01*
Y8086D01*
Y8074D01*
X3206D01*
Y8062D01*
Y8050D01*
X3218D01*
Y8038D01*
Y8025D01*
X3230D01*
Y8013D01*
Y8001D01*
X3243D01*
Y7989D01*
Y7977D01*
X3255D01*
Y7964D01*
Y7952D01*
X3267D01*
Y7940D01*
Y7928D01*
X3279D01*
Y7916D01*
Y7903D01*
X3291D01*
Y7891D01*
Y7879D01*
X3304D01*
Y7867D01*
X3316D01*
Y7854D01*
Y7842D01*
X3328D01*
Y7830D01*
X3340D01*
Y7818D01*
Y7806D01*
X3352D01*
Y7793D01*
Y7781D01*
Y7769D01*
X3340D01*
Y7757D01*
X3267D01*
Y7769D01*
X3230D01*
Y7781D01*
X3194D01*
Y7769D01*
X3206D01*
Y7757D01*
Y7745D01*
X3218D01*
Y7732D01*
Y7720D01*
X3230D01*
Y7708D01*
Y7696D01*
X3243D01*
Y7684D01*
X3255D01*
Y7671D01*
Y7659D01*
X3267D01*
Y7647D01*
X3279D01*
Y7635D01*
Y7622D01*
X3291D01*
Y7610D01*
X3304D01*
Y7598D01*
Y7586D01*
X3316D01*
Y7574D01*
X3328D01*
Y7561D01*
X3352D01*
Y7574D01*
X3365D01*
Y7586D01*
X3377D01*
Y7598D01*
X3389D01*
Y7610D01*
X3401D01*
Y7622D01*
X3413D01*
Y7635D01*
X3426D01*
Y7647D01*
X3438D01*
Y7659D01*
X3450D01*
Y7671D01*
X3462D01*
Y7684D01*
X3475D01*
Y7696D01*
Y7708D01*
X3487D01*
Y7720D01*
X3499D01*
Y7732D01*
X3511D01*
Y7745D01*
Y7757D01*
X3523D01*
Y7769D01*
X3536D01*
Y7781D01*
Y7793D01*
X3548D01*
Y7806D01*
X3560D01*
Y7818D01*
Y7830D01*
X3572D01*
Y7842D01*
X3584D01*
Y7854D01*
Y7867D01*
X3597D01*
Y7879D01*
X3609D01*
Y7891D01*
Y7903D01*
X3621D01*
Y7916D01*
Y7928D01*
X3633D01*
Y7940D01*
X3645D01*
Y7952D01*
Y7964D01*
X3658D01*
Y7977D01*
Y7989D01*
X3670D01*
Y8001D01*
X3682D01*
Y8013D01*
Y8025D01*
X3694D01*
Y8038D01*
Y8050D01*
X3707D01*
Y8062D01*
Y8074D01*
X3719D01*
Y8086D01*
Y8099D01*
X3731D01*
Y8111D01*
Y8123D01*
Y8135D01*
X3743D01*
Y8148D01*
Y8160D01*
Y8172D01*
Y8184D01*
Y8196D01*
Y8209D01*
X3731D01*
Y8196D01*
X3719D01*
Y8184D01*
X3707D01*
Y8172D01*
X3682D01*
Y8160D01*
X3670D01*
Y8148D01*
X3633D01*
Y8135D01*
X3584D01*
Y8123D01*
X3511D01*
Y8111D01*
X3413D01*
Y8123D01*
X3389D01*
Y8135D01*
X3377D01*
Y8148D01*
Y8160D01*
Y8172D01*
Y8184D01*
Y8196D01*
X3365D01*
Y8209D01*
Y8221D01*
Y8233D01*
Y8245D01*
Y8257D01*
Y8270D01*
X3352D01*
Y8282D01*
Y8294D01*
Y8306D01*
Y8318D01*
Y8331D01*
Y8343D01*
Y8355D01*
Y8367D01*
Y8379D01*
X3365D01*
Y8392D01*
Y8404D01*
Y8416D01*
Y8428D01*
Y8441D01*
Y8453D01*
Y8465D01*
X3377D01*
Y8477D01*
Y8489D01*
X3389D01*
Y8502D01*
Y8514D01*
X3401D01*
Y8526D01*
X3426D01*
Y8538D01*
X3438D01*
Y8550D01*
X3462D01*
Y8563D01*
X3511D01*
Y8575D01*
X3523D01*
Y8563D01*
X3572D01*
Y8550D01*
X3597D01*
Y8538D01*
X3621D01*
Y8526D01*
X3633D01*
Y8514D01*
Y8502D01*
X3645D01*
Y8489D01*
Y8477D01*
Y8465D01*
X3682D01*
Y8453D01*
X3743D01*
Y8441D01*
X3755D01*
Y8428D01*
X3768D01*
Y8416D01*
X3780D01*
Y8404D01*
Y8392D01*
X3792D01*
Y8404D01*
Y8416D01*
Y8428D01*
Y8441D01*
Y8453D01*
Y8465D01*
Y8477D01*
Y8489D01*
Y8502D01*
Y8514D01*
Y8526D01*
Y8538D01*
Y8550D01*
Y8563D01*
Y8575D01*
Y8587D01*
Y8599D01*
Y8612D01*
Y8624D01*
Y8636D01*
Y8648D01*
Y8660D01*
Y8673D01*
Y8685D01*
Y8697D01*
Y8709D01*
Y8721D01*
Y8734D01*
Y8746D01*
Y8758D01*
Y8770D01*
Y8782D01*
Y8795D01*
Y8807D01*
X3780D01*
Y8819D01*
Y8831D01*
Y8843D01*
Y8856D01*
Y8868D01*
X3768D01*
Y8880D01*
Y8892D01*
Y8905D01*
Y8917D01*
X3755D01*
Y8929D01*
Y8941D01*
Y8953D01*
Y8966D01*
X3743D01*
Y8978D01*
Y8990D01*
Y9002D01*
Y9014D01*
X3731D01*
Y9027D01*
Y9039D01*
Y9051D01*
Y9063D01*
X3719D01*
Y9075D01*
Y9088D01*
Y9100D01*
Y9112D01*
Y9124D01*
Y9137D01*
X3707D01*
Y9149D01*
Y9161D01*
Y9173D01*
X3694D01*
Y9185D01*
Y9198D01*
X3682D01*
Y9210D01*
Y9222D01*
X3670D01*
Y9234D01*
Y9246D01*
Y9259D01*
X3658D01*
Y9271D01*
Y9283D01*
X3645D01*
Y9295D01*
Y9307D01*
X3633D01*
Y9320D01*
Y9332D01*
X3621D01*
Y9344D01*
X3609D01*
Y9356D01*
Y9369D01*
X3597D01*
Y9381D01*
X3584D01*
Y9393D01*
Y9405D01*
Y9417D01*
Y9430D01*
X3572D01*
Y9442D01*
X3536D01*
Y9454D01*
X3523D01*
Y9466D01*
X3511D01*
Y9478D01*
X3499D01*
Y9491D01*
X3487D01*
Y9503D01*
X3475D01*
Y9515D01*
Y9527D01*
X3462D01*
Y9539D01*
X3450D01*
Y9552D01*
X3438D01*
Y9564D01*
X3426D01*
Y9576D01*
X3413D01*
Y9588D01*
X3401D01*
Y9601D01*
X3389D01*
Y9613D01*
X3377D01*
Y9625D01*
X3372D01*
Y9621D01*
Y9609D01*
Y9597D01*
X3360D01*
Y9584D01*
Y9572D01*
Y9560D01*
Y9548D01*
X3348D01*
Y9536D01*
Y9524D01*
X3324D01*
Y9536D01*
Y9548D01*
Y9560D01*
Y9572D01*
X3336D01*
Y9584D01*
Y9597D01*
Y9609D01*
Y9621D01*
X3348D01*
Y9633D01*
Y9645D01*
Y9649D01*
X3328D01*
Y9662D01*
X3316D01*
Y9669D01*
X3312D01*
Y9657D01*
X3300D01*
Y9645D01*
Y9633D01*
Y9621D01*
X3288D01*
Y9609D01*
Y9597D01*
Y9584D01*
X3312D01*
Y9572D01*
Y9560D01*
Y9548D01*
X3288D01*
Y9560D01*
X3263D01*
Y9548D01*
X3251D01*
Y9536D01*
X3227D01*
Y9548D01*
Y9560D01*
X3215D01*
Y9572D01*
X3203D01*
Y9584D01*
Y9597D01*
Y9609D01*
X3191D01*
Y9597D01*
Y9584D01*
Y9572D01*
Y9560D01*
X3179D01*
Y9548D01*
X3166D01*
Y9560D01*
Y9572D01*
Y9584D01*
X3154D01*
Y9572D01*
Y9560D01*
X3142D01*
Y9548D01*
X3166D01*
Y9536D01*
X3179D01*
Y9524D01*
Y9512D01*
X3142D01*
Y9524D01*
X3130D01*
Y9536D01*
X3118D01*
Y9548D01*
X3106D01*
Y9560D01*
Y9572D01*
X3094D01*
Y9584D01*
Y9597D01*
X3082D01*
Y9609D01*
Y9621D01*
X3094D01*
Y9633D01*
X3106D01*
Y9645D01*
X3227D01*
Y9657D01*
Y9669D01*
Y9681D01*
Y9694D01*
X3251D01*
Y9681D01*
X3263D01*
Y9669D01*
Y9657D01*
Y9645D01*
X3251D01*
Y9633D01*
Y9621D01*
X3239D01*
Y9609D01*
X3263D01*
Y9621D01*
Y9633D01*
X3275D01*
Y9645D01*
Y9657D01*
Y9669D01*
X3288D01*
Y9681D01*
Y9694D01*
X3291D01*
Y9698D01*
X3279D01*
Y9710D01*
X3267D01*
Y9723D01*
X3263D01*
Y9718D01*
X3215D01*
Y9730D01*
X3203D01*
Y9718D01*
X3191D01*
Y9706D01*
X3203D01*
Y9694D01*
Y9681D01*
Y9669D01*
Y9657D01*
X3191D01*
Y9669D01*
X3179D01*
Y9681D01*
X3166D01*
Y9694D01*
Y9706D01*
Y9718D01*
Y9730D01*
Y9742D01*
X3179D01*
Y9754D01*
X3218D01*
Y9759D01*
X3206D01*
Y9771D01*
X3181D01*
Y9784D01*
X3157D01*
Y9796D01*
X3145D01*
Y9808D01*
X3120D01*
Y9820D01*
X3108D01*
Y9833D01*
X3084D01*
Y9845D01*
X3059D01*
Y9857D01*
X3035D01*
Y9869D01*
X2998D01*
Y9881D01*
X2974D01*
Y9894D01*
X2949D01*
Y9906D01*
X2913D01*
Y9918D01*
X2876D01*
Y9930D01*
X2840D01*
Y9942D01*
X2803D01*
Y9955D01*
X2766D01*
Y9967D01*
X2717D01*
Y9979D01*
X2644D01*
Y9991D01*
X2571D01*
Y10003D01*
D02*
G37*
G36*
X3142Y9621D02*
X3118D01*
Y9609D01*
Y9597D01*
Y9584D01*
X3130D01*
Y9597D01*
X3142D01*
Y9609D01*
Y9621D01*
D02*
G37*
G36*
X1667Y9649D02*
X1594D01*
Y9637D01*
X1582D01*
Y9625D01*
X1570D01*
Y9613D01*
X1557D01*
Y9601D01*
Y9588D01*
Y9576D01*
X1545D01*
Y9564D01*
Y9552D01*
X1509D01*
Y9564D01*
X1484D01*
Y9576D01*
X1460D01*
Y9588D01*
X1399D01*
Y9576D01*
X1387D01*
Y9564D01*
X1374D01*
Y9552D01*
X1362D01*
Y9539D01*
X1350D01*
Y9527D01*
Y9515D01*
Y9503D01*
X1362D01*
Y9491D01*
Y9478D01*
X1374D01*
Y9466D01*
Y9454D01*
X1387D01*
Y9442D01*
X1399D01*
Y9430D01*
X1411D01*
Y9417D01*
X1423D01*
Y9405D01*
X1435D01*
Y9393D01*
X1448D01*
Y9381D01*
X1460D01*
Y9369D01*
X1484D01*
Y9356D01*
X1521D01*
Y9344D01*
X1545D01*
Y9332D01*
X1570D01*
Y9320D01*
X1606D01*
Y9307D01*
X1655D01*
Y9320D01*
X1667D01*
Y9332D01*
Y9344D01*
X1680D01*
Y9356D01*
Y9369D01*
Y9381D01*
X1692D01*
Y9393D01*
X1704D01*
Y9405D01*
Y9417D01*
Y9430D01*
X1716D01*
Y9442D01*
Y9454D01*
Y9466D01*
X1728D01*
Y9478D01*
Y9491D01*
Y9503D01*
Y9515D01*
Y9527D01*
Y9539D01*
Y9552D01*
Y9564D01*
Y9576D01*
Y9588D01*
X1716D01*
Y9601D01*
Y9613D01*
X1704D01*
Y9625D01*
X1692D01*
Y9637D01*
X1667D01*
Y9649D01*
D02*
G37*
G36*
X2901Y8734D02*
X2888D01*
Y8721D01*
X2901D01*
Y8709D01*
X2913D01*
Y8697D01*
X2925D01*
Y8685D01*
X2937D01*
Y8673D01*
Y8660D01*
X2949D01*
Y8648D01*
X2962D01*
Y8636D01*
X2974D01*
Y8624D01*
Y8612D01*
X2986D01*
Y8599D01*
X2998D01*
Y8587D01*
Y8575D01*
X3011D01*
Y8563D01*
X3035D01*
Y8575D01*
X3072D01*
Y8587D01*
X3084D01*
Y8599D01*
X3096D01*
Y8612D01*
Y8624D01*
X3084D01*
Y8636D01*
X3072D01*
Y8648D01*
X3059D01*
Y8660D01*
X3035D01*
Y8673D01*
X3011D01*
Y8685D01*
X2986D01*
Y8697D01*
X2949D01*
Y8709D01*
X2925D01*
Y8721D01*
X2901D01*
Y8734D01*
D02*
G37*
G36*
X2424Y8636D02*
X2363D01*
Y8624D01*
Y8612D01*
X2351D01*
Y8599D01*
Y8587D01*
Y8575D01*
X2363D01*
Y8563D01*
X2400D01*
Y8550D01*
X2437D01*
Y8538D01*
X2461D01*
Y8526D01*
X2485D01*
Y8514D01*
X2510D01*
Y8526D01*
X2498D01*
Y8538D01*
X2485D01*
Y8550D01*
Y8563D01*
X2473D01*
Y8575D01*
X2461D01*
Y8587D01*
Y8599D01*
Y8612D01*
Y8624D01*
X2424D01*
Y8636D01*
D02*
G37*
G36*
X2571Y8624D02*
X2522D01*
Y8612D01*
Y8599D01*
Y8587D01*
X2534D01*
Y8575D01*
X2547D01*
Y8563D01*
X2559D01*
Y8550D01*
Y8538D01*
X2571D01*
Y8526D01*
X2583D01*
Y8514D01*
X2608D01*
Y8502D01*
X2632D01*
Y8514D01*
Y8526D01*
X2620D01*
Y8538D01*
Y8550D01*
X2608D01*
Y8563D01*
X2595D01*
Y8575D01*
Y8587D01*
X2583D01*
Y8599D01*
Y8612D01*
X2571D01*
Y8624D01*
D02*
G37*
G36*
X2644Y8465D02*
X2632D01*
Y8453D01*
Y8441D01*
Y8428D01*
X2644D01*
Y8416D01*
X2656D01*
Y8428D01*
Y8441D01*
X2644D01*
Y8453D01*
Y8465D01*
D02*
G37*
G36*
X1655Y8404D02*
X1643D01*
Y8392D01*
X1655D01*
Y8404D01*
D02*
G37*
G36*
X2363Y8502D02*
X2327D01*
Y8489D01*
Y8477D01*
X2315D01*
Y8465D01*
Y8453D01*
Y8441D01*
X2302D01*
Y8428D01*
Y8416D01*
X2290D01*
Y8404D01*
Y8392D01*
X2278D01*
Y8379D01*
Y8367D01*
X2266D01*
Y8355D01*
Y8343D01*
X2253D01*
Y8331D01*
Y8318D01*
X2241D01*
Y8306D01*
X2229D01*
Y8294D01*
Y8282D01*
X2241D01*
Y8294D01*
X2253D01*
Y8306D01*
X2266D01*
Y8318D01*
X2302D01*
Y8331D01*
X2400D01*
Y8318D01*
X2437D01*
Y8331D01*
X2510D01*
Y8318D01*
X2669D01*
Y8331D01*
X2656D01*
Y8343D01*
X2644D01*
Y8355D01*
X2632D01*
Y8367D01*
X2620D01*
Y8379D01*
X2608D01*
Y8392D01*
X2595D01*
Y8404D01*
X2583D01*
Y8416D01*
Y8428D01*
X2571D01*
Y8441D01*
X2559D01*
Y8453D01*
X2534D01*
Y8465D01*
X2461D01*
Y8477D01*
X2412D01*
Y8489D01*
X2363D01*
Y8502D01*
D02*
G37*
G36*
X3536D02*
X3475D01*
Y8489D01*
X3462D01*
Y8477D01*
X3450D01*
Y8465D01*
X3438D01*
Y8453D01*
X3426D01*
Y8441D01*
Y8428D01*
Y8416D01*
Y8404D01*
Y8392D01*
Y8379D01*
X3413D01*
Y8367D01*
Y8355D01*
Y8343D01*
Y8331D01*
Y8318D01*
Y8306D01*
Y8294D01*
Y8282D01*
Y8270D01*
Y8257D01*
Y8245D01*
X3426D01*
Y8233D01*
Y8221D01*
Y8209D01*
Y8196D01*
Y8184D01*
Y8172D01*
X3487D01*
Y8184D01*
X3560D01*
Y8196D01*
X3597D01*
Y8209D01*
X3633D01*
Y8221D01*
X3658D01*
Y8233D01*
X3670D01*
Y8245D01*
X3694D01*
Y8257D01*
X3707D01*
Y8270D01*
Y8282D01*
X3719D01*
Y8294D01*
Y8306D01*
Y8318D01*
X3731D01*
Y8331D01*
Y8343D01*
X3719D01*
Y8355D01*
Y8367D01*
X3707D01*
Y8379D01*
X3682D01*
Y8392D01*
X3658D01*
Y8404D01*
X3633D01*
Y8392D01*
X3584D01*
Y8404D01*
Y8416D01*
Y8428D01*
Y8441D01*
Y8453D01*
Y8465D01*
X3572D01*
Y8477D01*
X3560D01*
Y8489D01*
X3536D01*
Y8502D01*
D02*
G37*
G36*
X1582Y8074D02*
X1570D01*
Y8062D01*
X1582D01*
Y8074D01*
D02*
G37*
G36*
X1765Y8441D02*
X1753D01*
Y8428D01*
Y8416D01*
Y8404D01*
X1741D01*
Y8392D01*
Y8379D01*
X1728D01*
Y8367D01*
Y8355D01*
Y8343D01*
X1716D01*
Y8331D01*
Y8318D01*
X1704D01*
Y8306D01*
Y8294D01*
Y8282D01*
X1692D01*
Y8270D01*
Y8257D01*
X1680D01*
Y8245D01*
X1667D01*
Y8233D01*
Y8221D01*
X1655D01*
Y8209D01*
Y8196D01*
X1643D01*
Y8184D01*
X1631D01*
Y8172D01*
Y8160D01*
Y8148D01*
X1619D01*
Y8135D01*
X1606D01*
Y8123D01*
Y8111D01*
X1594D01*
Y8099D01*
X1582D01*
Y8086D01*
Y8074D01*
X1594D01*
Y8086D01*
X1606D01*
Y8099D01*
X1619D01*
Y8111D01*
X1631D01*
Y8123D01*
X1655D01*
Y8135D01*
X1667D01*
Y8148D01*
X1680D01*
Y8160D01*
X1704D01*
Y8172D01*
X1716D01*
Y8184D01*
X1741D01*
Y8196D01*
X1753D01*
Y8209D01*
X1777D01*
Y8221D01*
X1802D01*
Y8233D01*
X1838D01*
Y8221D01*
X1851D01*
Y8209D01*
Y8196D01*
Y8184D01*
X1838D01*
Y8172D01*
Y8160D01*
X1826D01*
Y8148D01*
X1814D01*
Y8135D01*
Y8123D01*
X1826D01*
Y8111D01*
Y8099D01*
Y8086D01*
Y8074D01*
Y8062D01*
Y8050D01*
Y8038D01*
Y8025D01*
Y8013D01*
X1814D01*
Y8001D01*
Y7989D01*
X1802D01*
Y7977D01*
X1777D01*
Y7964D01*
Y7952D01*
X1765D01*
Y7940D01*
X1753D01*
Y7928D01*
X1728D01*
Y7916D01*
X1716D01*
Y7903D01*
X1667D01*
Y7891D01*
X1606D01*
Y7903D01*
X1545D01*
Y7916D01*
X1533D01*
Y7928D01*
X1521D01*
Y7916D01*
X1509D01*
Y7903D01*
X1496D01*
Y7891D01*
X1472D01*
Y7879D01*
X1484D01*
Y7867D01*
Y7854D01*
X1496D01*
Y7842D01*
Y7830D01*
Y7818D01*
X1509D01*
Y7806D01*
Y7793D01*
X1521D01*
Y7781D01*
Y7769D01*
X1533D01*
Y7757D01*
Y7745D01*
X1545D01*
Y7732D01*
Y7720D01*
X1557D01*
Y7708D01*
Y7696D01*
X1570D01*
Y7684D01*
X1582D01*
Y7671D01*
Y7659D01*
X1594D01*
Y7647D01*
X1606D01*
Y7635D01*
Y7622D01*
X1619D01*
Y7610D01*
X1631D01*
Y7598D01*
X1643D01*
Y7586D01*
X1655D01*
Y7574D01*
X1667D01*
Y7561D01*
X1680D01*
Y7549D01*
X1692D01*
Y7537D01*
X1716D01*
Y7525D01*
X1728D01*
Y7513D01*
X1765D01*
Y7500D01*
X1789D01*
Y7488D01*
X1802D01*
Y7476D01*
X1814D01*
Y7464D01*
Y7452D01*
X1802D01*
Y7439D01*
X1643D01*
Y7452D01*
X1606D01*
Y7464D01*
X1582D01*
Y7476D01*
X1545D01*
Y7488D01*
X1533D01*
Y7500D01*
X1521D01*
Y7488D01*
X1533D01*
Y7476D01*
X1545D01*
Y7464D01*
X1557D01*
Y7452D01*
X1570D01*
Y7439D01*
X1594D01*
Y7427D01*
X1606D01*
Y7415D01*
X1631D01*
Y7403D01*
X1655D01*
Y7390D01*
X1680D01*
Y7378D01*
X1692D01*
Y7366D01*
X1716D01*
Y7354D01*
X1741D01*
Y7342D01*
X1765D01*
Y7329D01*
X1789D01*
Y7317D01*
X1814D01*
Y7305D01*
X1838D01*
Y7293D01*
X1863D01*
Y7281D01*
X1899D01*
Y7268D01*
X1936D01*
Y7256D01*
X1973D01*
Y7244D01*
X2021D01*
Y7232D01*
X2083D01*
Y7220D01*
X2144D01*
Y7207D01*
X2217D01*
Y7195D01*
X2449D01*
Y7207D01*
X2510D01*
Y7220D01*
X2534D01*
Y7232D01*
X2571D01*
Y7244D01*
X2583D01*
Y7256D01*
X2595D01*
Y7268D01*
X2608D01*
Y7281D01*
X2620D01*
Y7293D01*
X2632D01*
Y7305D01*
X2656D01*
Y7317D01*
X2669D01*
Y7329D01*
X2681D01*
Y7342D01*
X2705D01*
Y7354D01*
X2717D01*
Y7366D01*
X2730D01*
Y7378D01*
X2742D01*
Y7390D01*
X2766D01*
Y7403D01*
X2779D01*
Y7415D01*
X2791D01*
Y7427D01*
X2803D01*
Y7439D01*
X2815D01*
Y7452D01*
X2827D01*
Y7464D01*
X2840D01*
Y7476D01*
X2852D01*
Y7488D01*
X2864D01*
Y7500D01*
X2876D01*
Y7513D01*
Y7525D01*
X2888D01*
Y7537D01*
X2901D01*
Y7549D01*
Y7561D01*
X2913D01*
Y7574D01*
Y7586D01*
Y7598D01*
Y7610D01*
Y7622D01*
Y7635D01*
X2925D01*
Y7647D01*
Y7659D01*
Y7671D01*
Y7684D01*
Y7696D01*
Y7708D01*
X2913D01*
Y7720D01*
Y7732D01*
Y7745D01*
Y7757D01*
Y7769D01*
Y7781D01*
X2901D01*
Y7793D01*
Y7806D01*
Y7818D01*
X2888D01*
Y7830D01*
Y7842D01*
X2876D01*
Y7854D01*
X2864D01*
Y7842D01*
X2852D01*
Y7830D01*
X2840D01*
Y7818D01*
X2827D01*
Y7806D01*
X2815D01*
Y7793D01*
X2791D01*
Y7781D01*
X2730D01*
Y7793D01*
X2717D01*
Y7806D01*
Y7818D01*
X2730D01*
Y7830D01*
X2742D01*
Y7842D01*
Y7854D01*
Y7867D01*
X2754D01*
Y7879D01*
Y7891D01*
Y7903D01*
Y7912D01*
X2730D01*
Y7924D01*
X2718D01*
Y7936D01*
Y7948D01*
X2706D01*
Y7960D01*
Y7973D01*
X2694D01*
Y7985D01*
Y7997D01*
X2682D01*
Y8009D01*
X2694D01*
Y8021D01*
Y8033D01*
Y8045D01*
X2742D01*
Y8033D01*
Y8021D01*
X2754D01*
Y8025D01*
Y8038D01*
Y8050D01*
Y8062D01*
X2742D01*
Y8074D01*
Y8086D01*
Y8099D01*
Y8111D01*
X2730D01*
Y8123D01*
Y8135D01*
Y8148D01*
Y8160D01*
X2717D01*
Y8172D01*
Y8184D01*
Y8196D01*
Y8209D01*
X2705D01*
Y8221D01*
Y8233D01*
X2669D01*
Y8245D01*
X2632D01*
Y8233D01*
Y8221D01*
Y8209D01*
Y8196D01*
X2620D01*
Y8184D01*
X2608D01*
Y8172D01*
Y8160D01*
X2595D01*
Y8148D01*
X2547D01*
Y8160D01*
Y8172D01*
Y8184D01*
Y8196D01*
X2571D01*
Y8209D01*
X2583D01*
Y8221D01*
X2595D01*
Y8233D01*
Y8245D01*
X2339D01*
Y8233D01*
Y8221D01*
Y8209D01*
X2351D01*
Y8196D01*
X2363D01*
Y8184D01*
X2376D01*
Y8172D01*
X2400D01*
Y8160D01*
X2510D01*
Y8148D01*
X2522D01*
Y8135D01*
Y8123D01*
X2412D01*
Y8135D01*
X2376D01*
Y8148D01*
X2351D01*
Y8160D01*
X2327D01*
Y8172D01*
X2315D01*
Y8184D01*
X2302D01*
Y8196D01*
Y8209D01*
X2290D01*
Y8221D01*
Y8233D01*
X2278D01*
Y8245D01*
X2229D01*
Y8257D01*
Y8270D01*
Y8282D01*
X2217D01*
Y8270D01*
X2205D01*
Y8257D01*
Y8245D01*
X2192D01*
Y8233D01*
X2180D01*
Y8221D01*
Y8209D01*
X2168D01*
Y8196D01*
X2156D01*
Y8184D01*
X2144D01*
Y8172D01*
X2131D01*
Y8160D01*
X2119D01*
Y8148D01*
X2107D01*
Y8135D01*
X2095D01*
Y8123D01*
X2083D01*
Y8111D01*
X2070D01*
Y8099D01*
X2046D01*
Y8086D01*
X2021D01*
Y8074D01*
X2009D01*
Y8086D01*
X1985D01*
Y8099D01*
Y8111D01*
Y8123D01*
Y8135D01*
Y8148D01*
Y8160D01*
Y8172D01*
Y8184D01*
X1973D01*
Y8196D01*
X1960D01*
Y8209D01*
X1948D01*
Y8221D01*
X1936D01*
Y8233D01*
X1924D01*
Y8245D01*
X1912D01*
Y8257D01*
X1899D01*
Y8270D01*
X1887D01*
Y8282D01*
X1875D01*
Y8294D01*
X1863D01*
Y8306D01*
X1851D01*
Y8318D01*
X1838D01*
Y8331D01*
Y8343D01*
X1826D01*
Y8355D01*
X1814D01*
Y8367D01*
Y8379D01*
X1802D01*
Y8392D01*
X1789D01*
Y8404D01*
Y8416D01*
X1777D01*
Y8428D01*
X1765D01*
Y8441D01*
D02*
G37*
G36*
Y8123D02*
X1753D01*
Y8111D01*
X1728D01*
Y8099D01*
X1704D01*
Y8086D01*
X1692D01*
Y8074D01*
X1667D01*
Y8062D01*
X1655D01*
Y8050D01*
X1631D01*
Y8038D01*
X1619D01*
Y8025D01*
X1594D01*
Y8013D01*
X1582D01*
Y8001D01*
X1570D01*
Y7989D01*
X1557D01*
Y7977D01*
Y7964D01*
Y7952D01*
X1582D01*
Y7940D01*
X1680D01*
Y7952D01*
X1716D01*
Y7964D01*
X1728D01*
Y7977D01*
X1753D01*
Y7989D01*
X1765D01*
Y8001D01*
X1777D01*
Y8013D01*
Y8025D01*
X1789D01*
Y8038D01*
Y8050D01*
Y8062D01*
Y8074D01*
Y8086D01*
X1777D01*
Y8099D01*
Y8111D01*
X1765D01*
Y8123D01*
D02*
G37*
G36*
X3230Y7574D02*
X3218D01*
Y7561D01*
Y7549D01*
X3230D01*
Y7537D01*
Y7525D01*
Y7513D01*
X3243D01*
Y7500D01*
Y7488D01*
Y7476D01*
X3267D01*
Y7488D01*
X3279D01*
Y7500D01*
X3291D01*
Y7513D01*
X3267D01*
Y7525D01*
X3255D01*
Y7537D01*
Y7549D01*
X3243D01*
Y7561D01*
X3230D01*
Y7574D01*
D02*
G37*
G36*
X3096Y7757D02*
X3084D01*
Y7745D01*
X3072D01*
Y7732D01*
Y7720D01*
X3059D01*
Y7708D01*
X3047D01*
Y7696D01*
Y7684D01*
X3035D01*
Y7671D01*
X3023D01*
Y7659D01*
X3011D01*
Y7647D01*
Y7635D01*
X2998D01*
Y7622D01*
Y7610D01*
Y7598D01*
Y7586D01*
Y7574D01*
Y7561D01*
Y7549D01*
Y7537D01*
Y7525D01*
Y7513D01*
Y7500D01*
Y7488D01*
X3011D01*
Y7476D01*
Y7464D01*
Y7452D01*
Y7439D01*
Y7427D01*
Y7415D01*
X3023D01*
Y7403D01*
Y7390D01*
Y7378D01*
Y7366D01*
Y7354D01*
X3047D01*
Y7366D01*
X3072D01*
Y7378D01*
X3096D01*
Y7390D01*
X3120D01*
Y7403D01*
X3133D01*
Y7415D01*
X3157D01*
Y7427D01*
X3169D01*
Y7439D01*
Y7452D01*
X3181D01*
Y7464D01*
Y7476D01*
X3169D01*
Y7488D01*
Y7500D01*
Y7513D01*
Y7525D01*
Y7537D01*
X3157D01*
Y7549D01*
Y7561D01*
Y7574D01*
Y7586D01*
X3145D01*
Y7598D01*
Y7610D01*
Y7622D01*
Y7635D01*
X3133D01*
Y7647D01*
Y7659D01*
Y7671D01*
X3120D01*
Y7684D01*
Y7696D01*
Y7708D01*
Y7720D01*
X3108D01*
Y7732D01*
Y7745D01*
X3096D01*
Y7757D01*
D02*
G37*
G36*
X2949Y7452D02*
X2937D01*
Y7439D01*
X2925D01*
Y7427D01*
X2913D01*
Y7415D01*
Y7403D01*
Y7390D01*
Y7378D01*
Y7366D01*
Y7354D01*
Y7342D01*
Y7329D01*
Y7317D01*
Y7305D01*
X2949D01*
Y7317D01*
Y7329D01*
Y7342D01*
Y7354D01*
Y7366D01*
Y7378D01*
Y7390D01*
Y7403D01*
Y7415D01*
Y7427D01*
Y7439D01*
Y7452D01*
D02*
G37*
%LPD*%
G36*
X2948Y9875D02*
Y9863D01*
Y9851D01*
X2960D01*
Y9839D01*
Y9827D01*
X2972D01*
Y9815D01*
Y9803D01*
X2960D01*
Y9790D01*
X2936D01*
Y9803D01*
X2900D01*
Y9790D01*
Y9778D01*
Y9766D01*
Y9754D01*
Y9742D01*
X2876D01*
Y9754D01*
Y9766D01*
Y9778D01*
X2863D01*
Y9790D01*
Y9803D01*
Y9815D01*
X2876D01*
Y9827D01*
X2888D01*
Y9839D01*
X2912D01*
Y9827D01*
X2936D01*
Y9839D01*
X2924D01*
Y9851D01*
Y9863D01*
Y9875D01*
Y9887D01*
X2948D01*
Y9875D01*
D02*
G37*
G36*
X2645D02*
X2669D01*
Y9863D01*
X2682D01*
Y9851D01*
X2694D01*
Y9863D01*
X2706D01*
Y9875D01*
X2742D01*
Y9863D01*
Y9851D01*
Y9839D01*
Y9827D01*
Y9815D01*
Y9803D01*
X2730D01*
Y9790D01*
X2718D01*
Y9778D01*
Y9766D01*
X2730D01*
Y9754D01*
Y9742D01*
X2694D01*
Y9754D01*
X2682D01*
Y9766D01*
X2669D01*
Y9778D01*
Y9790D01*
X2657D01*
Y9803D01*
X2645D01*
Y9815D01*
X2633D01*
Y9827D01*
X2621D01*
Y9839D01*
Y9851D01*
X2609D01*
Y9863D01*
X2621D01*
Y9875D01*
X2633D01*
Y9887D01*
X2645D01*
Y9875D01*
D02*
G37*
G36*
X3057Y9766D02*
Y9754D01*
X3094D01*
Y9742D01*
Y9730D01*
X3082D01*
Y9718D01*
Y9706D01*
X3069D01*
Y9694D01*
Y9681D01*
Y9669D01*
Y9657D01*
X3057D01*
Y9645D01*
Y9633D01*
Y9621D01*
X3045D01*
Y9609D01*
X3021D01*
Y9621D01*
Y9633D01*
X2960D01*
Y9621D01*
X2936D01*
Y9633D01*
Y9645D01*
X2912D01*
Y9657D01*
Y9669D01*
Y9681D01*
Y9694D01*
X2900D01*
Y9681D01*
X2888D01*
Y9669D01*
Y9657D01*
Y9645D01*
Y9633D01*
X2863D01*
Y9645D01*
Y9657D01*
X2851D01*
Y9645D01*
Y9633D01*
Y9621D01*
X2876D01*
Y9609D01*
Y9597D01*
X2839D01*
Y9609D01*
X2827D01*
Y9621D01*
X2815D01*
Y9633D01*
X2803D01*
Y9645D01*
Y9657D01*
X2791D01*
Y9669D01*
Y9681D01*
Y9694D01*
Y9706D01*
X2803D01*
Y9718D01*
X2815D01*
Y9730D01*
X2888D01*
Y9718D01*
X2924D01*
Y9730D01*
X2936D01*
Y9742D01*
X2924D01*
Y9754D01*
Y9766D01*
Y9778D01*
X2948D01*
Y9766D01*
X2960D01*
Y9754D01*
Y9742D01*
Y9730D01*
Y9718D01*
Y9706D01*
X2972D01*
Y9718D01*
Y9730D01*
Y9742D01*
X2985D01*
Y9754D01*
Y9766D01*
X2997D01*
Y9778D01*
X3057D01*
Y9766D01*
D02*
G37*
G36*
X2439Y9790D02*
Y9778D01*
Y9766D01*
Y9754D01*
Y9742D01*
Y9730D01*
Y9718D01*
X2451D01*
Y9706D01*
X2476D01*
Y9694D01*
Y9681D01*
Y9669D01*
Y9657D01*
X2512D01*
Y9669D01*
Y9681D01*
Y9694D01*
Y9706D01*
Y9718D01*
X2524D01*
Y9730D01*
Y9742D01*
X2548D01*
Y9730D01*
Y9718D01*
Y9706D01*
Y9694D01*
Y9681D01*
Y9669D01*
Y9657D01*
X2536D01*
Y9645D01*
X2585D01*
Y9633D01*
X2597D01*
Y9621D01*
Y9609D01*
X2536D01*
Y9597D01*
Y9584D01*
Y9572D01*
X2548D01*
Y9560D01*
Y9548D01*
Y9536D01*
X2560D01*
Y9524D01*
Y9512D01*
Y9500D01*
Y9487D01*
X2524D01*
Y9500D01*
Y9512D01*
Y9524D01*
Y9536D01*
X2512D01*
Y9524D01*
Y9512D01*
Y9500D01*
Y9487D01*
X2500D01*
Y9475D01*
Y9463D01*
Y9451D01*
Y9439D01*
X2488D01*
Y9427D01*
Y9415D01*
X2476D01*
Y9403D01*
X2451D01*
Y9415D01*
Y9427D01*
Y9439D01*
X2463D01*
Y9451D01*
Y9463D01*
Y9475D01*
Y9487D01*
X2476D01*
Y9500D01*
Y9512D01*
Y9524D01*
Y9536D01*
Y9548D01*
X2488D01*
Y9560D01*
Y9572D01*
Y9584D01*
Y9597D01*
X2463D01*
Y9584D01*
Y9572D01*
Y9560D01*
X2451D01*
Y9548D01*
X2439D01*
Y9536D01*
Y9524D01*
Y9512D01*
Y9500D01*
Y9487D01*
Y9475D01*
Y9463D01*
Y9451D01*
X2427D01*
Y9439D01*
X2379D01*
Y9427D01*
Y9415D01*
X2367D01*
Y9403D01*
Y9391D01*
Y9378D01*
X2354D01*
Y9366D01*
Y9354D01*
X2342D01*
Y9342D01*
X2318D01*
Y9354D01*
Y9366D01*
Y9378D01*
X2330D01*
Y9391D01*
Y9403D01*
Y9415D01*
X2342D01*
Y9427D01*
Y9439D01*
Y9451D01*
X2318D01*
Y9463D01*
X2282D01*
Y9475D01*
X2257D01*
Y9487D01*
X2233D01*
Y9500D01*
Y9512D01*
Y9524D01*
X2257D01*
Y9512D01*
X2282D01*
Y9500D01*
X2318D01*
Y9487D01*
X2354D01*
Y9500D01*
Y9512D01*
Y9524D01*
Y9536D01*
X2318D01*
Y9548D01*
X2306D01*
Y9560D01*
X2282D01*
Y9548D01*
X2257D01*
Y9560D01*
X2245D01*
Y9572D01*
Y9584D01*
X2270D01*
Y9597D01*
X2306D01*
Y9609D01*
X2342D01*
Y9621D01*
Y9633D01*
X2306D01*
Y9645D01*
X2294D01*
Y9657D01*
X2306D01*
Y9669D01*
X2330D01*
Y9681D01*
Y9694D01*
X2379D01*
Y9681D01*
X2391D01*
Y9694D01*
Y9706D01*
X2379D01*
Y9718D01*
X2367D01*
Y9730D01*
X2403D01*
Y9742D01*
Y9754D01*
Y9766D01*
Y9778D01*
X2415D01*
Y9790D01*
Y9803D01*
X2439D01*
Y9790D01*
D02*
G37*
G36*
X2160Y9827D02*
X2173D01*
Y9815D01*
X2185D01*
Y9827D01*
X2233D01*
Y9815D01*
X2245D01*
Y9803D01*
Y9790D01*
Y9778D01*
Y9766D01*
Y9754D01*
X2233D01*
Y9742D01*
Y9730D01*
X2221D01*
Y9718D01*
X2209D01*
Y9706D01*
X2197D01*
Y9694D01*
X2185D01*
Y9681D01*
X2136D01*
Y9694D01*
Y9706D01*
Y9718D01*
Y9730D01*
X2124D01*
Y9742D01*
Y9754D01*
Y9766D01*
Y9778D01*
X2112D01*
Y9790D01*
Y9803D01*
Y9815D01*
X2124D01*
Y9827D01*
Y9839D01*
X2160D01*
Y9827D01*
D02*
G37*
G36*
X2791Y9560D02*
X2803D01*
Y9548D01*
Y9536D01*
X2742D01*
Y9524D01*
X2779D01*
Y9512D01*
X2839D01*
Y9500D01*
X2863D01*
Y9512D01*
Y9524D01*
X2851D01*
Y9536D01*
Y9548D01*
X2888D01*
Y9536D01*
X2900D01*
Y9524D01*
Y9512D01*
Y9500D01*
Y9487D01*
X2936D01*
Y9475D01*
X2960D01*
Y9463D01*
Y9451D01*
X2948D01*
Y9439D01*
X2936D01*
Y9451D01*
X2888D01*
Y9439D01*
Y9427D01*
X2876D01*
Y9415D01*
Y9403D01*
Y9391D01*
X2863D01*
Y9378D01*
Y9366D01*
X2888D01*
Y9354D01*
Y9342D01*
X2876D01*
Y9330D01*
X2851D01*
Y9342D01*
X2791D01*
Y9330D01*
X2754D01*
Y9342D01*
X2730D01*
Y9354D01*
X2718D01*
Y9366D01*
X2706D01*
Y9354D01*
X2694D01*
Y9366D01*
X2657D01*
Y9378D01*
X2645D01*
Y9391D01*
X2633D01*
Y9403D01*
Y9415D01*
Y9427D01*
X2645D01*
Y9439D01*
Y9451D01*
X2621D01*
Y9463D01*
X2573D01*
Y9475D01*
Y9487D01*
Y9500D01*
X2621D01*
Y9487D01*
X2682D01*
Y9500D01*
X2706D01*
Y9512D01*
X2682D01*
Y9524D01*
X2669D01*
Y9536D01*
X2657D01*
Y9548D01*
Y9560D01*
X2669D01*
Y9572D01*
X2791D01*
Y9560D01*
D02*
G37*
G36*
X3082Y9475D02*
X3094D01*
Y9463D01*
Y9451D01*
X3009D01*
Y9439D01*
Y9427D01*
Y9415D01*
Y9403D01*
X3057D01*
Y9391D01*
X3069D01*
Y9378D01*
X3057D01*
Y9366D01*
X3033D01*
Y9354D01*
X2997D01*
Y9342D01*
X2985D01*
Y9330D01*
X2972D01*
Y9318D01*
Y9306D01*
X3009D01*
Y9294D01*
X3069D01*
Y9306D01*
X3082D01*
Y9318D01*
Y9330D01*
Y9342D01*
Y9354D01*
X3094D01*
Y9366D01*
Y9378D01*
Y9391D01*
Y9403D01*
Y9415D01*
X3106D01*
Y9427D01*
Y9439D01*
Y9451D01*
X3118D01*
Y9463D01*
X3130D01*
Y9451D01*
X3142D01*
Y9439D01*
Y9427D01*
Y9415D01*
X3130D01*
Y9403D01*
Y9391D01*
Y9378D01*
Y9366D01*
X3118D01*
Y9354D01*
X3191D01*
Y9342D01*
X3203D01*
Y9354D01*
Y9366D01*
X3215D01*
Y9378D01*
Y9391D01*
Y9403D01*
Y9415D01*
X3227D01*
Y9427D01*
Y9439D01*
X3263D01*
Y9427D01*
Y9415D01*
X3251D01*
Y9403D01*
Y9391D01*
Y9378D01*
X3239D01*
Y9366D01*
Y9354D01*
Y9342D01*
Y9330D01*
Y9318D01*
X3227D01*
Y9306D01*
Y9294D01*
Y9281D01*
Y9269D01*
Y9257D01*
X3215D01*
Y9245D01*
Y9233D01*
Y9221D01*
X3179D01*
Y9233D01*
Y9245D01*
Y9257D01*
X3191D01*
Y9269D01*
Y9281D01*
Y9294D01*
Y9306D01*
Y9318D01*
X3106D01*
Y9306D01*
Y9294D01*
Y9281D01*
Y9269D01*
Y9257D01*
Y9245D01*
X3094D01*
Y9233D01*
X3069D01*
Y9245D01*
Y9257D01*
X2997D01*
Y9269D01*
X2960D01*
Y9281D01*
X2948D01*
Y9294D01*
X2936D01*
Y9306D01*
Y9318D01*
Y9330D01*
Y9342D01*
X2948D01*
Y9354D01*
X2960D01*
Y9366D01*
X2972D01*
Y9378D01*
X2985D01*
Y9391D01*
X2972D01*
Y9403D01*
Y9415D01*
Y9427D01*
Y9439D01*
Y9451D01*
X2985D01*
Y9463D01*
Y9475D01*
X3009D01*
Y9487D01*
X3082D01*
Y9475D01*
D02*
G37*
G36*
X2221Y9306D02*
X2282D01*
Y9294D01*
X2342D01*
Y9281D01*
X2391D01*
Y9269D01*
X2415D01*
Y9257D01*
X2439D01*
Y9245D01*
X2463D01*
Y9233D01*
X2500D01*
Y9221D01*
X2585D01*
Y9209D01*
X2609D01*
Y9197D01*
X2633D01*
Y9184D01*
X2657D01*
Y9172D01*
X2682D01*
Y9160D01*
X2706D01*
Y9148D01*
X2730D01*
Y9136D01*
X2754D01*
Y9124D01*
X2779D01*
Y9112D01*
X2803D01*
Y9100D01*
X2827D01*
Y9088D01*
X2851D01*
Y9075D01*
X2876D01*
Y9063D01*
X2900D01*
Y9051D01*
X2936D01*
Y9039D01*
X2972D01*
Y9027D01*
X3009D01*
Y9015D01*
X3045D01*
Y9003D01*
X3069D01*
Y8991D01*
Y8978D01*
X3094D01*
Y8991D01*
X3130D01*
Y8978D01*
X3142D01*
Y8966D01*
X3154D01*
Y8954D01*
Y8942D01*
Y8930D01*
X3082D01*
Y8942D01*
X3069D01*
Y8954D01*
X3021D01*
Y8966D01*
X2985D01*
Y8978D01*
X2948D01*
Y8991D01*
X2912D01*
Y9003D01*
X2876D01*
Y9015D01*
X2851D01*
Y9027D01*
X2815D01*
Y9039D01*
X2791D01*
Y9051D01*
X2754D01*
Y9063D01*
X2730D01*
Y9075D01*
X2706D01*
Y9088D01*
X2682D01*
Y9100D01*
X2645D01*
Y9112D01*
X2621D01*
Y9124D01*
X2597D01*
Y9136D01*
X2560D01*
Y9148D01*
X2536D01*
Y9160D01*
X2512D01*
Y9172D01*
X2476D01*
Y9184D01*
X2439D01*
Y9197D01*
X2403D01*
Y9209D01*
X2367D01*
Y9221D01*
X2318D01*
Y9233D01*
X2257D01*
Y9245D01*
X2197D01*
Y9257D01*
X1870D01*
Y9245D01*
X1809D01*
Y9257D01*
X1797D01*
Y9269D01*
Y9281D01*
X1809D01*
Y9294D01*
X1894D01*
Y9306D01*
X1979D01*
Y9318D01*
X2221D01*
Y9306D01*
D02*
G37*
G36*
X2524Y9294D02*
X2621D01*
Y9281D01*
X2682D01*
Y9269D01*
X2742D01*
Y9257D01*
X2791D01*
Y9245D01*
X2839D01*
Y9233D01*
X2888D01*
Y9221D01*
X2936D01*
Y9209D01*
X2985D01*
Y9197D01*
X3033D01*
Y9184D01*
X3082D01*
Y9172D01*
X3118D01*
Y9160D01*
X3154D01*
Y9148D01*
X3191D01*
Y9136D01*
X3239D01*
Y9124D01*
X3275D01*
Y9112D01*
X3312D01*
Y9100D01*
X3348D01*
Y9088D01*
X3385D01*
Y9075D01*
X3421D01*
Y9063D01*
X3457D01*
Y9051D01*
X3482D01*
Y9039D01*
X3518D01*
Y9027D01*
X3542D01*
Y9015D01*
X3566D01*
Y9003D01*
X3578D01*
Y8991D01*
X3603D01*
Y8978D01*
X3615D01*
Y8966D01*
Y8954D01*
Y8942D01*
X3603D01*
Y8930D01*
X3578D01*
Y8918D01*
X3530D01*
Y8930D01*
Y8942D01*
X3518D01*
Y8954D01*
Y8966D01*
Y8978D01*
X3506D01*
Y8966D01*
Y8954D01*
X3494D01*
Y8942D01*
X3445D01*
Y8954D01*
X3421D01*
Y8966D01*
X3397D01*
Y8978D01*
X3360D01*
Y8991D01*
X3324D01*
Y9003D01*
X3300D01*
Y9015D01*
X3263D01*
Y9027D01*
X3227D01*
Y9039D01*
X3191D01*
Y9051D01*
X3154D01*
Y9063D01*
X3118D01*
Y9075D01*
X3082D01*
Y9088D01*
X3045D01*
Y9100D01*
X3009D01*
Y9112D01*
X2972D01*
Y9124D01*
X2936D01*
Y9136D01*
X2900D01*
Y9148D01*
X2863D01*
Y9160D01*
X2839D01*
Y9172D01*
X2791D01*
Y9184D01*
X2754D01*
Y9197D01*
X2706D01*
Y9209D01*
X2657D01*
Y9221D01*
X2621D01*
Y9233D01*
X2573D01*
Y9245D01*
X2524D01*
Y9257D01*
X2463D01*
Y9269D01*
X2427D01*
Y9281D01*
X2415D01*
Y9294D01*
X2427D01*
Y9306D01*
X2524D01*
Y9294D01*
D02*
G37*
G36*
X1692Y9210D02*
Y9198D01*
X1680D01*
Y9185D01*
X1619D01*
Y9173D01*
X1582D01*
Y9161D01*
X1557D01*
Y9149D01*
X1545D01*
Y9137D01*
X1521D01*
Y9124D01*
X1484D01*
Y9112D01*
X1472D01*
Y9100D01*
X1448D01*
Y9088D01*
X1411D01*
Y9075D01*
X1387D01*
Y9063D01*
X1362D01*
Y9051D01*
X1350D01*
Y9039D01*
X1325D01*
Y9027D01*
X1313D01*
Y9014D01*
X1289D01*
Y9002D01*
X1277D01*
Y8990D01*
X1252D01*
Y8978D01*
X1240D01*
Y8966D01*
X1228D01*
Y8953D01*
X1203D01*
Y8941D01*
X1191D01*
Y8929D01*
X1179D01*
Y8917D01*
X1167D01*
Y8905D01*
X1155D01*
Y8892D01*
X1142D01*
Y8880D01*
X1130D01*
Y8868D01*
X1118D01*
Y8856D01*
X1106D01*
Y8843D01*
X1094D01*
Y8831D01*
X1081D01*
Y8819D01*
X1032D01*
Y8831D01*
Y8843D01*
Y8856D01*
Y8868D01*
X1045D01*
Y8880D01*
X1057D01*
Y8892D01*
X1069D01*
Y8905D01*
X1081D01*
Y8917D01*
X1094D01*
Y8929D01*
X1106D01*
Y8941D01*
X1118D01*
Y8953D01*
X1130D01*
Y8966D01*
X1142D01*
Y8978D01*
X1155D01*
Y8990D01*
X1167D01*
Y9002D01*
X1191D01*
Y9014D01*
X1203D01*
Y9027D01*
X1228D01*
Y9039D01*
X1240D01*
Y9051D01*
X1252D01*
Y9063D01*
X1277D01*
Y9075D01*
X1301D01*
Y9088D01*
X1325D01*
Y9100D01*
X1350D01*
Y9112D01*
X1362D01*
Y9124D01*
X1387D01*
Y9137D01*
X1411D01*
Y9149D01*
X1435D01*
Y9161D01*
X1460D01*
Y9173D01*
X1484D01*
Y9185D01*
X1521D01*
Y9198D01*
X1570D01*
Y9210D01*
X1619D01*
Y9222D01*
X1692D01*
Y9210D01*
D02*
G37*
%LPC*%
G36*
X2851Y9706D02*
X2839D01*
Y9694D01*
X2851D01*
Y9706D01*
D02*
G37*
G36*
X2960D02*
X2948D01*
Y9694D01*
X2936D01*
Y9681D01*
X2960D01*
Y9694D01*
Y9706D01*
D02*
G37*
G36*
X2839Y9694D02*
X2815D01*
Y9681D01*
Y9669D01*
X2839D01*
Y9681D01*
Y9694D01*
D02*
G37*
G36*
X3033Y9754D02*
X3009D01*
Y9742D01*
Y9730D01*
X2997D01*
Y9718D01*
Y9706D01*
Y9694D01*
Y9681D01*
X2985D01*
Y9669D01*
X2997D01*
Y9657D01*
X3021D01*
Y9645D01*
Y9633D01*
X3033D01*
Y9645D01*
Y9657D01*
Y9669D01*
Y9681D01*
X3045D01*
Y9694D01*
Y9706D01*
Y9718D01*
Y9730D01*
X3057D01*
Y9742D01*
X3033D01*
Y9754D01*
D02*
G37*
G36*
X2439Y9609D02*
X2427D01*
Y9597D01*
Y9584D01*
X2439D01*
Y9597D01*
Y9609D01*
D02*
G37*
G36*
X2391Y9621D02*
X2354D01*
Y9609D01*
X2367D01*
Y9597D01*
Y9584D01*
X2391D01*
Y9597D01*
Y9609D01*
Y9621D01*
D02*
G37*
G36*
X2367Y9584D02*
X2330D01*
Y9572D01*
X2367D01*
Y9584D01*
D02*
G37*
G36*
X2403Y9500D02*
X2391D01*
Y9487D01*
X2379D01*
Y9475D01*
X2403D01*
Y9487D01*
Y9500D01*
D02*
G37*
G36*
X2209Y9790D02*
X2197D01*
Y9778D01*
X2185D01*
Y9766D01*
X2173D01*
Y9754D01*
X2160D01*
Y9742D01*
X2173D01*
Y9730D01*
X2185D01*
Y9742D01*
X2197D01*
Y9754D01*
Y9766D01*
X2209D01*
Y9778D01*
Y9790D01*
D02*
G37*
G36*
X2766Y9487D02*
X2730D01*
Y9475D01*
X2718D01*
Y9463D01*
X2766D01*
Y9475D01*
Y9487D01*
D02*
G37*
G36*
X2791Y9439D02*
X2779D01*
Y9427D01*
X2742D01*
Y9439D01*
X2669D01*
Y9427D01*
Y9415D01*
Y9403D01*
X2694D01*
Y9391D01*
X2718D01*
Y9403D01*
X2742D01*
Y9391D01*
Y9378D01*
X2754D01*
Y9366D01*
X2803D01*
Y9378D01*
X2815D01*
Y9391D01*
X2803D01*
Y9403D01*
Y9415D01*
X2791D01*
Y9427D01*
Y9439D01*
D02*
G37*
G36*
X2827Y9475D02*
X2803D01*
Y9463D01*
X2815D01*
Y9451D01*
Y9439D01*
X2827D01*
Y9427D01*
Y9415D01*
X2839D01*
Y9427D01*
X2851D01*
Y9439D01*
Y9451D01*
Y9463D01*
X2827D01*
Y9475D01*
D02*
G37*
%LPD*%
G36*
X2633Y8009D02*
X2645D01*
Y7997D01*
X2657D01*
Y7985D01*
Y7973D01*
Y7960D01*
X2669D01*
Y7948D01*
Y7936D01*
X2682D01*
Y7924D01*
Y7912D01*
Y7900D01*
Y7888D01*
X2645D01*
Y7900D01*
X2633D01*
Y7912D01*
Y7924D01*
X2621D01*
Y7936D01*
X2609D01*
Y7948D01*
X2597D01*
Y7960D01*
Y7973D01*
X2585D01*
Y7985D01*
Y7997D01*
X2597D01*
Y8009D01*
X2621D01*
Y8021D01*
X2633D01*
Y8009D01*
D02*
G37*
G36*
X2548Y7985D02*
X2560D01*
Y7973D01*
X2573D01*
Y7960D01*
Y7948D01*
Y7936D01*
Y7924D01*
X2585D01*
Y7912D01*
Y7900D01*
Y7888D01*
Y7876D01*
X2573D01*
Y7863D01*
X2548D01*
Y7876D01*
X2536D01*
Y7888D01*
X2524D01*
Y7900D01*
Y7912D01*
X2512D01*
Y7924D01*
Y7936D01*
Y7948D01*
Y7960D01*
X2500D01*
Y7973D01*
Y7985D01*
X2512D01*
Y7997D01*
X2548D01*
Y7985D01*
D02*
G37*
G36*
X2488Y7851D02*
X2512D01*
Y7839D01*
X2524D01*
Y7827D01*
X2536D01*
Y7815D01*
X2548D01*
Y7803D01*
X2560D01*
Y7791D01*
Y7779D01*
X2573D01*
Y7766D01*
Y7754D01*
Y7742D01*
Y7730D01*
Y7718D01*
Y7706D01*
Y7694D01*
Y7682D01*
Y7670D01*
Y7657D01*
Y7645D01*
Y7633D01*
Y7621D01*
Y7609D01*
X2560D01*
Y7597D01*
Y7585D01*
X2548D01*
Y7573D01*
X2536D01*
Y7560D01*
Y7548D01*
X2524D01*
Y7536D01*
X2512D01*
Y7524D01*
X2488D01*
Y7512D01*
X2476D01*
Y7500D01*
X2439D01*
Y7488D01*
X2403D01*
Y7476D01*
X2367D01*
Y7463D01*
X2318D01*
Y7451D01*
X2270D01*
Y7439D01*
X2124D01*
Y7451D01*
X2076D01*
Y7463D01*
X2063D01*
Y7476D01*
X2039D01*
Y7488D01*
X2027D01*
Y7500D01*
X2015D01*
Y7512D01*
X2003D01*
Y7524D01*
X1991D01*
Y7536D01*
Y7548D01*
X1979D01*
Y7560D01*
Y7573D01*
Y7585D01*
Y7597D01*
X1967D01*
Y7609D01*
Y7621D01*
Y7633D01*
Y7645D01*
Y7657D01*
Y7670D01*
Y7682D01*
Y7694D01*
X1979D01*
Y7706D01*
Y7718D01*
X1991D01*
Y7730D01*
X2003D01*
Y7742D01*
Y7754D01*
X2027D01*
Y7766D01*
X2051D01*
Y7779D01*
X2136D01*
Y7766D01*
X2233D01*
Y7779D01*
X2270D01*
Y7791D01*
X2294D01*
Y7803D01*
X2306D01*
Y7815D01*
X2330D01*
Y7827D01*
X2342D01*
Y7839D01*
X2367D01*
Y7851D01*
X2391D01*
Y7863D01*
X2488D01*
Y7851D01*
D02*
G37*
G36*
X1918D02*
Y7839D01*
X1930D01*
Y7827D01*
Y7815D01*
X1942D01*
Y7803D01*
Y7791D01*
Y7779D01*
Y7766D01*
Y7754D01*
Y7742D01*
Y7730D01*
X1894D01*
Y7742D01*
X1882D01*
Y7754D01*
Y7766D01*
X1870D01*
Y7779D01*
Y7791D01*
Y7803D01*
Y7815D01*
X1857D01*
Y7827D01*
Y7839D01*
Y7851D01*
X1894D01*
Y7863D01*
X1918D01*
Y7851D01*
D02*
G37*
G36*
X1809Y7815D02*
X1821D01*
Y7803D01*
X1833D01*
Y7791D01*
Y7779D01*
Y7766D01*
Y7754D01*
Y7742D01*
Y7730D01*
Y7718D01*
Y7706D01*
Y7694D01*
X1821D01*
Y7682D01*
X1797D01*
Y7694D01*
X1785D01*
Y7706D01*
Y7718D01*
X1773D01*
Y7730D01*
X1761D01*
Y7742D01*
Y7754D01*
Y7766D01*
Y7779D01*
Y7791D01*
Y7803D01*
Y7815D01*
Y7827D01*
X1809D01*
Y7815D01*
D02*
G37*
G36*
X1724Y7791D02*
Y7779D01*
X1736D01*
Y7766D01*
Y7754D01*
X1748D01*
Y7742D01*
Y7730D01*
X1736D01*
Y7718D01*
Y7706D01*
X1748D01*
Y7694D01*
X1736D01*
Y7682D01*
X1712D01*
Y7694D01*
X1700D01*
Y7706D01*
Y7718D01*
X1688D01*
Y7730D01*
Y7742D01*
X1676D01*
Y7754D01*
Y7766D01*
Y7779D01*
Y7791D01*
X1688D01*
Y7803D01*
X1724D01*
Y7791D01*
D02*
G37*
%LPC*%
G36*
X2427Y7803D02*
X2403D01*
Y7791D01*
X2379D01*
Y7779D01*
X2367D01*
Y7766D01*
X2342D01*
Y7754D01*
X2318D01*
Y7742D01*
X2294D01*
Y7730D01*
X2257D01*
Y7718D01*
X2051D01*
Y7706D01*
X2039D01*
Y7694D01*
X2027D01*
Y7682D01*
X2015D01*
Y7670D01*
X2003D01*
Y7657D01*
Y7645D01*
Y7633D01*
X2015D01*
Y7621D01*
Y7609D01*
Y7597D01*
Y7585D01*
X2027D01*
Y7573D01*
Y7560D01*
Y7548D01*
X2039D01*
Y7536D01*
X2051D01*
Y7524D01*
X2063D01*
Y7512D01*
X2088D01*
Y7500D01*
X2112D01*
Y7488D01*
X2294D01*
Y7500D01*
X2342D01*
Y7512D01*
X2391D01*
Y7524D01*
X2427D01*
Y7536D01*
X2451D01*
Y7548D01*
X2476D01*
Y7560D01*
X2488D01*
Y7573D01*
X2500D01*
Y7585D01*
X2512D01*
Y7597D01*
Y7609D01*
X2524D01*
Y7621D01*
Y7633D01*
Y7645D01*
Y7657D01*
Y7670D01*
Y7682D01*
Y7694D01*
Y7706D01*
Y7718D01*
Y7730D01*
Y7742D01*
X2512D01*
Y7754D01*
X2500D01*
Y7766D01*
X2488D01*
Y7779D01*
X2476D01*
Y7791D01*
X2427D01*
Y7803D01*
D02*
G37*
G36*
X13065Y2353D02*
X12936D01*
Y2347D01*
Y2341D01*
Y2335D01*
Y2329D01*
Y2323D01*
Y2317D01*
Y2312D01*
Y2306D01*
Y2300D01*
Y2294D01*
Y2288D01*
Y2282D01*
Y2276D01*
Y2270D01*
Y2264D01*
Y2259D01*
Y2253D01*
Y2247D01*
Y2241D01*
Y2235D01*
Y2229D01*
Y2223D01*
Y2217D01*
Y2211D01*
Y2206D01*
Y2200D01*
Y2194D01*
Y2188D01*
Y2182D01*
Y2176D01*
Y2170D01*
Y2164D01*
Y2158D01*
Y2153D01*
Y2147D01*
Y2141D01*
Y2135D01*
Y2129D01*
Y2123D01*
Y2117D01*
Y2111D01*
Y2105D01*
Y2100D01*
Y2094D01*
Y2088D01*
Y2082D01*
Y2076D01*
Y2070D01*
Y2064D01*
Y2058D01*
Y2052D01*
Y2047D01*
Y2041D01*
Y2035D01*
X13065D01*
Y2041D01*
Y2047D01*
Y2052D01*
Y2058D01*
Y2064D01*
Y2070D01*
Y2076D01*
Y2082D01*
Y2088D01*
Y2094D01*
Y2100D01*
Y2105D01*
Y2111D01*
Y2117D01*
Y2123D01*
Y2129D01*
Y2135D01*
Y2141D01*
Y2147D01*
Y2153D01*
Y2158D01*
Y2164D01*
Y2170D01*
Y2176D01*
Y2182D01*
Y2188D01*
Y2194D01*
Y2200D01*
Y2206D01*
Y2211D01*
Y2217D01*
Y2223D01*
Y2229D01*
Y2235D01*
Y2241D01*
Y2247D01*
Y2253D01*
Y2259D01*
Y2264D01*
Y2270D01*
Y2276D01*
Y2282D01*
Y2288D01*
Y2294D01*
Y2300D01*
Y2306D01*
Y2312D01*
Y2317D01*
Y2323D01*
Y2329D01*
Y2335D01*
Y2341D01*
Y2347D01*
Y2353D01*
D02*
G37*
G36*
Y1917D02*
X12936D01*
Y1911D01*
Y1905D01*
Y1899D01*
Y1893D01*
Y1888D01*
Y1882D01*
Y1876D01*
Y1870D01*
Y1864D01*
Y1858D01*
Y1852D01*
Y1846D01*
Y1840D01*
Y1835D01*
Y1829D01*
Y1823D01*
Y1817D01*
Y1811D01*
Y1805D01*
Y1799D01*
Y1793D01*
Y1787D01*
X13065D01*
Y1793D01*
Y1799D01*
Y1805D01*
Y1811D01*
Y1817D01*
Y1823D01*
Y1829D01*
Y1835D01*
Y1840D01*
Y1846D01*
Y1852D01*
Y1858D01*
Y1864D01*
Y1870D01*
Y1876D01*
Y1882D01*
Y1888D01*
Y1893D01*
Y1899D01*
Y1905D01*
Y1911D01*
Y1917D01*
D02*
G37*
%LPD*%
D10*
X5709Y6079D02*
G03*
X5709Y6079I-39J0D01*
G01*
X22480Y2254D02*
G03*
X22480Y2254I-39J0D01*
G01*
X15571Y10622D02*
Y10229D01*
Y10360D01*
X15309Y10622D01*
X15506Y10426D01*
X15309Y10229D01*
X15112D02*
X14981D01*
X14915Y10294D01*
Y10426D01*
X14981Y10491D01*
X15112D01*
X15178Y10426D01*
Y10294D01*
X15112Y10229D01*
X14784D02*
Y10491D01*
X14587D01*
X14522Y10426D01*
Y10229D01*
X14325Y10491D02*
X14194D01*
X14128Y10426D01*
Y10229D01*
X14325D01*
X14391Y10294D01*
X14325Y10360D01*
X14128D01*
X13931Y10557D02*
Y10491D01*
X13997D01*
X13866D01*
X13931D01*
Y10294D01*
X13866Y10229D01*
X13603Y10491D02*
X13472D01*
X13407Y10426D01*
Y10229D01*
X13603D01*
X13669Y10294D01*
X13603Y10360D01*
X13407D01*
X12882Y10622D02*
Y10229D01*
X12685D01*
X12619Y10294D01*
Y10557D01*
X12685Y10622D01*
X12882D01*
X12291Y10229D02*
X12423D01*
X12488Y10294D01*
Y10426D01*
X12423Y10491D01*
X12291D01*
X12226Y10426D01*
Y10360D01*
X12488D01*
X12095Y10491D02*
X11963Y10229D01*
X11832Y10491D01*
X11176Y10229D02*
X11308Y10360D01*
Y10491D01*
X11176Y10622D01*
X10717Y10557D02*
X10783Y10622D01*
X10914D01*
X10980Y10557D01*
Y10294D01*
X10914Y10229D01*
X10783D01*
X10717Y10294D01*
X10586Y10229D02*
X10455Y10360D01*
Y10491D01*
X10586Y10622D01*
X9602Y10229D02*
X9864D01*
X9602Y10491D01*
Y10557D01*
X9668Y10622D01*
X9799D01*
X9864Y10557D01*
X9471D02*
X9405Y10622D01*
X9274D01*
X9208Y10557D01*
Y10294D01*
X9274Y10229D01*
X9405D01*
X9471Y10294D01*
Y10557D01*
X8815Y10229D02*
X9077D01*
X8815Y10491D01*
Y10557D01*
X8881Y10622D01*
X9012D01*
X9077Y10557D01*
X8421Y10229D02*
X8684D01*
X8421Y10491D01*
Y10557D01*
X8487Y10622D01*
X8618D01*
X8684Y10557D01*
X15571Y11354D02*
Y10960D01*
X15309D01*
X15178Y11354D02*
Y11026D01*
X15112Y10960D01*
X14981D01*
X14915Y11026D01*
Y11354D01*
X14522Y11288D02*
X14587Y11354D01*
X14719D01*
X14784Y11288D01*
Y11026D01*
X14719Y10960D01*
X14587D01*
X14522Y11026D01*
X14391Y11354D02*
Y10960D01*
Y11091D01*
X14128Y11354D01*
X14325Y11157D01*
X14128Y10960D01*
X13997Y11354D02*
Y11288D01*
X13866Y11157D01*
X13735Y11288D01*
Y11354D01*
X13866Y11157D02*
Y10960D01*
X12947Y11288D02*
X13013Y11354D01*
X13144D01*
X13210Y11288D01*
Y11222D01*
X13144Y11157D01*
X13013D01*
X12947Y11091D01*
Y11026D01*
X13013Y10960D01*
X13144D01*
X13210Y11026D01*
X12816Y11354D02*
X12554D01*
X12685D01*
Y10960D01*
X12423D02*
Y11222D01*
X12291Y11354D01*
X12160Y11222D01*
Y10960D01*
Y11157D01*
X12423D01*
X12029Y10960D02*
Y11354D01*
X11832D01*
X11767Y11288D01*
Y11157D01*
X11832Y11091D01*
X12029D01*
X11898D02*
X11767Y10960D01*
X11242Y11157D02*
X10980D01*
X10455Y11354D02*
Y10960D01*
Y11157D01*
X10192D01*
Y11354D01*
Y10960D01*
X10061Y11288D02*
X9996Y11354D01*
X9864D01*
X9799Y11288D01*
Y11222D01*
X9864Y11157D01*
X9930D01*
X9864D01*
X9799Y11091D01*
Y11026D01*
X9864Y10960D01*
X9996D01*
X10061Y11026D01*
X9274Y10960D02*
X9012Y11222D01*
X8487D02*
X8356Y10960D01*
X8225Y11222D01*
X8093Y11288D02*
X8028Y11354D01*
X7897D01*
X7831Y11288D01*
Y11026D01*
X7897Y10960D01*
X8028D01*
X8093Y11026D01*
Y11288D01*
X7700Y10960D02*
Y11026D01*
X7634D01*
Y10960D01*
X7700D01*
X7372D02*
X7241D01*
X7306D01*
Y11354D01*
X7372Y11288D01*
X6650Y10960D02*
Y11222D01*
X6519Y11354D01*
X6388Y11222D01*
Y10960D01*
Y11157D01*
X6650D01*
X6257Y10960D02*
X6125D01*
X6191D01*
Y11354D01*
X6257D01*
X5929Y10829D02*
Y11222D01*
X5732D01*
X5666Y11157D01*
Y11026D01*
X5732Y10960D01*
X5929D01*
X5535Y11354D02*
Y10960D01*
Y11157D01*
X5470Y11222D01*
X5338D01*
X5273Y11157D01*
Y10960D01*
X5076Y11222D02*
X4945D01*
X4879Y11157D01*
Y10960D01*
X5076D01*
X5142Y11026D01*
X5076Y11091D01*
X4879D01*
X11575Y1968D02*
X11312D01*
X11444D01*
Y1575D01*
X11181Y1968D02*
Y1575D01*
Y1772D01*
X10919D01*
Y1968D01*
Y1575D01*
X10788Y1968D02*
X10656D01*
X10722D01*
Y1575D01*
X10788D01*
X10656D01*
X10197Y1903D02*
X10263Y1968D01*
X10394D01*
X10460Y1903D01*
Y1837D01*
X10394Y1772D01*
X10263D01*
X10197Y1706D01*
Y1640D01*
X10263Y1575D01*
X10394D01*
X10460Y1640D01*
X9673Y1968D02*
X9541D01*
X9607D01*
Y1575D01*
X9673D01*
X9541D01*
X9082Y1903D02*
X9148Y1968D01*
X9279D01*
X9345Y1903D01*
Y1837D01*
X9279Y1772D01*
X9148D01*
X9082Y1706D01*
Y1640D01*
X9148Y1575D01*
X9279D01*
X9345Y1640D01*
X8557Y1575D02*
Y1968D01*
X8295Y1575D01*
Y1968D01*
X7967D02*
X8098D01*
X8164Y1903D01*
Y1640D01*
X8098Y1575D01*
X7967D01*
X7901Y1640D01*
Y1903D01*
X7967Y1968D01*
X7770D02*
X7508D01*
X7639D01*
Y1575D01*
X6983D02*
Y1837D01*
X6852Y1968D01*
X6721Y1837D01*
Y1575D01*
Y1772D01*
X6983D01*
X5934Y1903D02*
X5999Y1968D01*
X6130D01*
X6196Y1903D01*
Y1837D01*
X6130Y1772D01*
X5999D01*
X5934Y1706D01*
Y1640D01*
X5999Y1575D01*
X6130D01*
X6196Y1640D01*
X5606Y1968D02*
X5737D01*
X5802Y1903D01*
Y1640D01*
X5737Y1575D01*
X5606D01*
X5540Y1640D01*
Y1903D01*
X5606Y1968D01*
X5409D02*
Y1575D01*
X5212D01*
X5146Y1640D01*
Y1903D01*
X5212Y1968D01*
X5409D01*
X5015D02*
X4884D01*
X4950D01*
Y1575D01*
X5015D01*
X4884D01*
X4687D02*
Y1968D01*
X4556Y1837D01*
X4425Y1968D01*
Y1575D01*
X4294D02*
Y1968D01*
X4162Y1837D01*
X4031Y1968D01*
Y1575D01*
X3507D02*
Y1968D01*
X3375Y1837D01*
X3244Y1968D01*
Y1575D01*
X2851Y1968D02*
X3113D01*
Y1575D01*
X2851D01*
X3113Y1772D02*
X2982D01*
X2719Y1575D02*
Y1968D01*
X2588Y1837D01*
X2457Y1968D01*
Y1575D01*
X2129Y1968D02*
X2260D01*
X2326Y1903D01*
Y1640D01*
X2260Y1575D01*
X2129D01*
X2063Y1640D01*
Y1903D01*
X2129Y1968D01*
X1932Y1575D02*
Y1968D01*
X1735D01*
X1670Y1903D01*
Y1772D01*
X1735Y1706D01*
X1932D01*
X1801D02*
X1670Y1575D01*
X1539Y1968D02*
Y1903D01*
X1407Y1772D01*
X1276Y1903D01*
Y1968D01*
X1407Y1772D02*
Y1575D01*
X1145Y1706D02*
Y2034D01*
Y1640D02*
Y1575D01*
X1014Y1706D02*
Y2034D01*
Y1640D02*
Y1575D01*
X883Y1706D02*
Y2034D01*
Y1640D02*
Y1575D01*
X11575Y2441D02*
Y2703D01*
X11444Y2835D01*
X11312Y2703D01*
Y2441D01*
Y2638D01*
X11575D01*
X11181Y2835D02*
X10919D01*
X11050D01*
Y2441D01*
X10788Y2835D02*
X10525D01*
X10656D01*
Y2441D01*
X10132Y2835D02*
X10394D01*
Y2441D01*
X10132D01*
X10394Y2638D02*
X10263D01*
X10001Y2441D02*
Y2835D01*
X9738Y2441D01*
Y2835D01*
X9607D02*
X9345D01*
X9476D01*
Y2441D01*
X9213Y2835D02*
X9082D01*
X9148D01*
Y2441D01*
X9213D01*
X9082D01*
X8689Y2835D02*
X8820D01*
X8885Y2769D01*
Y2507D01*
X8820Y2441D01*
X8689D01*
X8623Y2507D01*
Y2769D01*
X8689Y2835D01*
X8492Y2441D02*
Y2835D01*
X8229Y2441D01*
Y2835D01*
X8098Y2572D02*
Y2900D01*
Y2507D02*
Y2441D01*
X7967Y2572D02*
Y2900D01*
Y2507D02*
Y2441D01*
X7836Y2572D02*
Y2900D01*
Y2507D02*
Y2441D01*
X7371Y7383D02*
Y7029D01*
X7253Y7147D01*
X7135Y7029D01*
Y7383D01*
X7017Y7265D02*
Y7088D01*
X6958Y7029D01*
X6781D01*
Y7265D01*
X6663Y7383D02*
Y7029D01*
Y7206D01*
X6604Y7265D01*
X6486D01*
X6427Y7206D01*
Y7029D01*
X6309Y7265D02*
Y7088D01*
X6250Y7029D01*
X6072D01*
Y7265D01*
X5600Y7383D02*
X5482D01*
X5541D01*
Y7029D01*
X5600D01*
X5482D01*
X5305Y7383D02*
Y7029D01*
X5128D01*
X5069Y7088D01*
Y7324D01*
X5128Y7383D01*
X5305D01*
X4715Y7324D02*
X4774Y7383D01*
X4892D01*
X4951Y7324D01*
Y7088D01*
X4892Y7029D01*
X4774D01*
X4715Y7088D01*
D13*
X3193Y5957D02*
X5311D01*
X3193Y3839D02*
X5311D01*
X22804Y1577D02*
X22961D01*
X22804D02*
Y1735D01*
Y2128D02*
Y2286D01*
X22961D01*
X24103Y1577D02*
Y1735D01*
X23946Y1577D02*
X24103D01*
X23946Y2286D02*
X24103D01*
Y2128D02*
Y2286D01*
X3031Y11398D02*
Y11516D01*
X3150D01*
X3307D02*
X3425D01*
Y11398D02*
Y11516D01*
X3425Y10728D02*
Y10846D01*
X3307Y10728D02*
X3425D01*
X3031D02*
X3150D01*
X3031D02*
Y10846D01*
X3819Y11398D02*
Y11516D01*
X3937D01*
X4094D02*
X4213D01*
Y11398D02*
Y11516D01*
X4213Y10728D02*
Y10846D01*
X4094Y10728D02*
X4213D01*
X3819D02*
X3937D01*
X3819D02*
Y10846D01*
X26181Y11142D02*
Y11260D01*
X26299D01*
X26457D02*
X26575D01*
Y11142D02*
Y11260D01*
X26575Y10472D02*
Y10591D01*
X26457Y10472D02*
X26575D01*
X26181D02*
X26299D01*
X26181D02*
Y10591D01*
X2362Y10768D02*
Y10886D01*
X2244Y10768D02*
X2362D01*
X1969D02*
X2087D01*
X1969D02*
Y10886D01*
X1969Y11437D02*
Y11555D01*
X2087D01*
X2244D02*
X2362D01*
Y11437D02*
Y11555D01*
X1575Y10768D02*
Y10886D01*
X1457Y10768D02*
X1575D01*
X1181D02*
X1299D01*
X1181D02*
Y10886D01*
X1181Y11437D02*
Y11555D01*
X1299D01*
X1457D02*
X1575D01*
Y11437D02*
Y11555D01*
X787Y10768D02*
Y10886D01*
X669Y10768D02*
X787D01*
X394D02*
X512D01*
X394D02*
Y10886D01*
X394Y11437D02*
Y11555D01*
X512D01*
X669D02*
X787D01*
Y11437D02*
Y11555D01*
X8808Y6608D02*
X8891Y6691D01*
X8975Y6608D01*
X9086Y6496D02*
X9170Y6413D01*
X9086Y6329D02*
X9170Y6413D01*
X8613Y5856D02*
X8696Y5940D01*
X8529D02*
X8613Y5856D01*
X8334Y6135D02*
X8418Y6051D01*
X8334Y6135D02*
X8418Y6218D01*
X4055Y6417D02*
X4173D01*
Y6299D02*
Y6417D01*
Y6024D02*
Y6142D01*
X4055Y6024D02*
X4173D01*
X3386Y6024D02*
X3504D01*
X3386D02*
Y6142D01*
Y6299D02*
Y6417D01*
X3504D01*
X4783Y6417D02*
X4902D01*
Y6299D02*
Y6417D01*
Y6024D02*
Y6142D01*
X4783Y6024D02*
X4902D01*
X4114Y6024D02*
X4232D01*
X4114D02*
Y6142D01*
Y6299D02*
Y6417D01*
X4232D01*
X15198Y7040D02*
X15316D01*
Y6921D02*
Y7040D01*
Y6646D02*
Y6764D01*
X15198Y6646D02*
X15316D01*
X14529Y6646D02*
X14647D01*
X14529D02*
Y6764D01*
Y6921D02*
Y7040D01*
X14647D01*
X22253Y8742D02*
Y8860D01*
X22371D01*
X22529D02*
X22647D01*
Y8742D02*
Y8860D01*
X22647Y8073D02*
Y8191D01*
X22529Y8073D02*
X22647D01*
X22253D02*
X22371D01*
X22253D02*
Y8191D01*
X9472Y4827D02*
Y4945D01*
X9354Y4827D02*
X9472D01*
X9079D02*
X9197D01*
X9079D02*
Y4945D01*
X9079Y5496D02*
Y5614D01*
X9197D01*
X9354D02*
X9472D01*
Y5496D02*
Y5614D01*
X10430Y4588D02*
Y4706D01*
X10312Y4588D02*
X10430D01*
X10036D02*
X10154D01*
X10036D02*
Y4706D01*
X10036Y5257D02*
Y5376D01*
X10154D01*
X10312D02*
X10430D01*
Y5257D02*
Y5376D01*
X12547Y4053D02*
Y4171D01*
X12429Y4053D02*
X12547D01*
X12153D02*
X12271D01*
X12153D02*
Y4171D01*
X12153Y4722D02*
Y4841D01*
X12271D01*
X12429D02*
X12547D01*
Y4722D02*
Y4841D01*
X11379Y6047D02*
X11497D01*
Y5929D02*
Y6047D01*
Y5653D02*
Y5771D01*
X11379Y5653D02*
X11497D01*
X10709Y5653D02*
X10828D01*
X10709D02*
Y5771D01*
Y5929D02*
Y6047D01*
X10828D01*
X11725Y5031D02*
X11843D01*
X11725D02*
Y5149D01*
Y5306D02*
Y5424D01*
X11843D01*
X12394Y5424D02*
X12512D01*
Y5306D02*
Y5424D01*
Y5031D02*
Y5149D01*
X12394Y5031D02*
X12512D01*
X3803Y3829D02*
Y3947D01*
X3921D01*
X4079D02*
X4197D01*
Y3829D02*
Y3947D01*
X4197Y3159D02*
Y3278D01*
X4079Y3159D02*
X4197D01*
X3803D02*
X3921D01*
X3803D02*
Y3278D01*
X20797Y9690D02*
Y9808D01*
X20679Y9690D02*
X20797D01*
X20403D02*
X20521D01*
X20403D02*
Y9808D01*
X20403Y10359D02*
Y10477D01*
X20521D01*
X20679D02*
X20797D01*
Y10359D02*
Y10477D01*
X20053Y10379D02*
Y10497D01*
X20171D01*
X20329D02*
X20447D01*
Y10379D02*
Y10497D01*
X20447Y9709D02*
Y9828D01*
X20329Y9709D02*
X20447D01*
X20053D02*
X20171D01*
X20053D02*
Y9828D01*
X10810Y6797D02*
Y6915D01*
X10928D01*
X11086D02*
X11204D01*
Y6797D02*
Y6915D01*
X11204Y6128D02*
Y6246D01*
X11086Y6128D02*
X11204D01*
X10810D02*
X10928D01*
X10810D02*
Y6246D01*
X3053Y3829D02*
Y3947D01*
X3171D01*
X3329D02*
X3447D01*
Y3829D02*
Y3947D01*
X3447Y3159D02*
Y3278D01*
X3329Y3159D02*
X3447D01*
X3053D02*
X3171D01*
X3053D02*
Y3278D01*
X3403Y3829D02*
Y3947D01*
X3521D01*
X3679D02*
X3797D01*
Y3829D02*
Y3947D01*
X3797Y3159D02*
Y3278D01*
X3679Y3159D02*
X3797D01*
X3403D02*
X3521D01*
X3403D02*
Y3278D01*
X22892Y1993D02*
Y2150D01*
X22735D02*
X22892D01*
X21790Y2150D02*
X21947D01*
X21790Y1993D02*
Y2150D01*
X22735Y1599D02*
X22892D01*
Y1757D01*
X21790Y1599D02*
Y1757D01*
Y1599D02*
X21947D01*
X23619Y2183D02*
Y2341D01*
Y2183D02*
X23777D01*
X24564Y2183D02*
X24721D01*
Y2341D01*
X23619Y2735D02*
X23777D01*
X23619Y2577D02*
Y2735D01*
X24721Y2577D02*
Y2735D01*
X24564D02*
X24721D01*
X9843Y7402D02*
Y7559D01*
X9685D02*
X9843D01*
X8740Y7559D02*
X8898D01*
X8740Y7402D02*
Y7559D01*
X9685Y7008D02*
X9843D01*
Y7165D01*
X8740Y7008D02*
Y7165D01*
Y7008D02*
X8898D01*
X25472Y5354D02*
Y5512D01*
Y5354D02*
X25630D01*
X26417Y5354D02*
X26575D01*
Y5512D01*
X25472Y5905D02*
X25630D01*
X25472Y5748D02*
Y5905D01*
X26575Y5748D02*
Y5905D01*
X26417D02*
X26575D01*
X26575Y5000D02*
Y5157D01*
X26417D02*
X26575D01*
X25472Y5157D02*
X25630D01*
X25472Y5000D02*
Y5157D01*
X26417Y4606D02*
X26575D01*
Y4764D01*
X25472Y4606D02*
Y4764D01*
Y4606D02*
X25630D01*
X25157Y7874D02*
X25315D01*
X25157Y7717D02*
Y7874D01*
X25157Y6772D02*
Y6929D01*
Y6772D02*
X25315D01*
X25709Y7717D02*
Y7874D01*
X25551D02*
X25709D01*
X25551Y6772D02*
X25709D01*
Y6929D01*
X20024Y7216D02*
X20182D01*
X20024Y7059D02*
Y7216D01*
X20024Y6114D02*
Y6271D01*
Y6114D02*
X20182D01*
X20576Y7059D02*
Y7216D01*
X20418D02*
X20576D01*
X20418Y6114D02*
X20576D01*
Y6271D01*
X21772Y8622D02*
X21929D01*
X21772Y8465D02*
Y8622D01*
X21772Y7520D02*
Y7677D01*
Y7520D02*
X21929D01*
X22323Y8465D02*
Y8622D01*
X22165D02*
X22323D01*
X22165Y7520D02*
X22323D01*
Y7677D01*
X26575Y6260D02*
Y6417D01*
X26417D02*
X26575D01*
X25472Y6417D02*
X25630D01*
X25472Y6260D02*
Y6417D01*
X26417Y5866D02*
X26575D01*
Y6024D01*
X25472Y5866D02*
Y6024D01*
Y5866D02*
X25630D01*
X25748Y3465D02*
Y3622D01*
Y3465D02*
X25906D01*
X26693Y3465D02*
X26850D01*
Y3622D01*
X25748Y4016D02*
X25906D01*
X25748Y3858D02*
Y4016D01*
X26850Y3858D02*
Y4016D01*
X26693D02*
X26850D01*
X26063Y1732D02*
X26221D01*
Y1890D01*
X26221Y2677D02*
Y2835D01*
X26063D02*
X26221D01*
X25669Y1732D02*
Y1890D01*
Y1732D02*
X25827D01*
X25669Y2835D02*
X25827D01*
X25669Y2677D02*
Y2835D01*
X26614Y1732D02*
X26772D01*
Y1890D01*
X26772Y2677D02*
Y2835D01*
X26614D02*
X26772D01*
X26221Y1732D02*
Y1890D01*
Y1732D02*
X26378D01*
X26221Y2835D02*
X26378D01*
X26221Y2677D02*
Y2835D01*
X23600Y3718D02*
X23758D01*
X23600Y3560D02*
Y3718D01*
X23600Y2615D02*
Y2773D01*
Y2615D02*
X23758D01*
X24151Y3560D02*
Y3718D01*
X23994D02*
X24151D01*
X23994Y2615D02*
X24151D01*
Y2773D01*
X10572Y5871D02*
Y6029D01*
X10414D02*
X10572D01*
X9470Y6029D02*
X9627D01*
X9470Y5871D02*
Y6029D01*
X10414Y5477D02*
X10572D01*
Y5635D01*
X9470Y5477D02*
Y5635D01*
Y5477D02*
X9627D01*
X8825Y6496D02*
Y6654D01*
Y6496D02*
X8982D01*
X9770Y6496D02*
X9927D01*
Y6654D01*
X8825Y7047D02*
X8982D01*
X8825Y6890D02*
Y7047D01*
X9927Y6890D02*
Y7047D01*
X9770D02*
X9927D01*
X19968Y6114D02*
X20126D01*
Y6271D01*
X20126Y7059D02*
Y7216D01*
X19968D02*
X20126D01*
X19574Y6114D02*
Y6271D01*
Y6114D02*
X19732D01*
X19574Y7216D02*
X19732D01*
X19574Y7059D02*
Y7216D01*
X2464Y6892D02*
X2621D01*
X2464Y6734D02*
Y6892D01*
X2464Y5790D02*
Y5947D01*
Y5790D02*
X2621D01*
X3015Y6734D02*
Y6892D01*
X2858D02*
X3015D01*
X2858Y5790D02*
X3015D01*
Y5947D01*
X16797Y3109D02*
Y3227D01*
X16679D02*
X16797D01*
X16403D02*
X16521D01*
X16403Y3109D02*
Y3227D01*
X16403Y2440D02*
Y2558D01*
Y2440D02*
X16521D01*
X16679D02*
X16797D01*
Y2558D01*
X17247Y8072D02*
Y8191D01*
X17129D02*
X17247D01*
X16853D02*
X16971D01*
X16853Y8072D02*
Y8191D01*
X16853Y7403D02*
Y7521D01*
Y7403D02*
X16971D01*
X17129D02*
X17247D01*
Y7521D01*
X8391Y7151D02*
Y7269D01*
Y7151D02*
X8509D01*
X8667D02*
X8785D01*
Y7269D01*
X8785Y7821D02*
Y7939D01*
X8667D02*
X8785D01*
X8391D02*
X8509D01*
X8391Y7821D02*
Y7939D01*
X8947Y6260D02*
X9065D01*
X8947Y6142D02*
Y6260D01*
Y5866D02*
Y5984D01*
Y5866D02*
X9065D01*
X9616Y5866D02*
X9735D01*
Y5984D01*
Y6142D02*
Y6260D01*
X9616D02*
X9735D01*
X10661Y6514D02*
X10779D01*
Y6632D01*
Y6789D02*
Y6907D01*
X10661D02*
X10779D01*
X9991Y6907D02*
X10110D01*
X9991Y6789D02*
Y6907D01*
Y6514D02*
Y6632D01*
Y6514D02*
X10110D01*
X9073Y7947D02*
X9191D01*
X9073Y7829D02*
Y7947D01*
Y7553D02*
Y7671D01*
Y7553D02*
X9191D01*
X9742Y7553D02*
X9860D01*
Y7671D01*
Y7829D02*
Y7947D01*
X9742D02*
X9860D01*
X20197Y6043D02*
Y6161D01*
X20079D02*
X20197D01*
X19803D02*
X19921D01*
X19803Y6043D02*
Y6161D01*
X19803Y5374D02*
Y5492D01*
Y5374D02*
X19921D01*
X20079D02*
X20197D01*
Y5492D01*
X9469Y6575D02*
X9587D01*
X9469Y6457D02*
Y6575D01*
Y6181D02*
Y6299D01*
Y6181D02*
X9587D01*
X10138Y6181D02*
X10256D01*
Y6299D01*
Y6457D02*
Y6575D01*
X10138D02*
X10256D01*
X8386Y6457D02*
Y6575D01*
Y6457D02*
X8504D01*
X8661D02*
X8780D01*
Y6575D01*
X8780Y7126D02*
Y7244D01*
X8661D02*
X8780D01*
X8386D02*
X8504D01*
X8386Y7126D02*
Y7244D01*
X9398Y5255D02*
X9516D01*
X9398Y5137D02*
Y5255D01*
Y4861D02*
Y4979D01*
Y4861D02*
X9516D01*
X10068Y4861D02*
X10186D01*
Y4979D01*
Y5137D02*
Y5255D01*
X10068D02*
X10186D01*
X8404Y6087D02*
X8522D01*
Y6205D01*
Y6363D02*
Y6481D01*
X8404D02*
X8522D01*
X7735Y6481D02*
X7853D01*
X7735Y6363D02*
Y6481D01*
Y6087D02*
Y6205D01*
Y6087D02*
X7853D01*
X10985Y4307D02*
X11103D01*
Y4425D01*
Y4583D02*
Y4701D01*
X10985D02*
X11103D01*
X10316Y4701D02*
X10434D01*
X10316Y4583D02*
Y4701D01*
Y4307D02*
Y4425D01*
Y4307D02*
X10434D01*
X11092Y4265D02*
Y4383D01*
Y4265D02*
X11210D01*
X11368D02*
X11486D01*
Y4383D01*
X11486Y4934D02*
Y5052D01*
X11368D02*
X11486D01*
X11092D02*
X11210D01*
X11092Y4934D02*
Y5052D01*
X12115Y4698D02*
X12233D01*
Y4816D01*
Y4974D02*
Y5092D01*
X12115D02*
X12233D01*
X11446Y5092D02*
X11564D01*
X11446Y4974D02*
Y5092D01*
Y4698D02*
Y4816D01*
Y4698D02*
X11564D01*
X11809Y5608D02*
Y5726D01*
X11690D02*
X11809D01*
X11415D02*
X11533D01*
X11415Y5608D02*
Y5726D01*
X11415Y4939D02*
Y5057D01*
Y4939D02*
X11533D01*
X11690D02*
X11809D01*
Y5057D01*
X10669Y4605D02*
Y4723D01*
Y4605D02*
X10787D01*
X10944D02*
X11062D01*
Y4723D01*
X11062Y5274D02*
Y5393D01*
X10944D02*
X11062D01*
X10668D02*
X10787D01*
X10668Y5274D02*
Y5393D01*
X8484Y5769D02*
X8586Y5710D01*
X8425Y5667D02*
X8484Y5769D01*
X8287Y5428D02*
X8346Y5530D01*
X8287Y5428D02*
X8389Y5369D01*
X8866Y5093D02*
X8969Y5034D01*
X9028Y5137D01*
X9106Y5273D02*
X9165Y5375D01*
X9063Y5434D02*
X9165Y5375D01*
X4897Y3809D02*
Y3927D01*
X4779D02*
X4897D01*
X4503D02*
X4621D01*
X4503Y3809D02*
Y3927D01*
X4503Y3140D02*
Y3258D01*
Y3140D02*
X4621D01*
X4779D02*
X4897D01*
Y3258D01*
X4547Y3809D02*
Y3927D01*
X4429D02*
X4547D01*
X4153D02*
X4271D01*
X4153Y3809D02*
Y3927D01*
X4153Y3140D02*
Y3258D01*
Y3140D02*
X4271D01*
X4429D02*
X4547D01*
Y3258D01*
X2283Y5079D02*
Y5197D01*
Y5079D02*
X2402D01*
X2559D02*
X2677D01*
Y5197D01*
X2677Y5748D02*
Y5866D01*
X2559D02*
X2677D01*
X2283D02*
X2402D01*
X2283Y5748D02*
Y5866D01*
X3101Y6021D02*
Y6139D01*
Y6021D02*
X3219D01*
X3377D02*
X3495D01*
Y6139D01*
X3495Y6690D02*
Y6808D01*
X3377D02*
X3495D01*
X3101D02*
X3219D01*
X3101Y6690D02*
Y6808D01*
X8676Y7565D02*
X8717Y7676D01*
X8676Y7565D02*
X8787Y7524D01*
X8935Y7470D02*
X9046Y7430D01*
X9087Y7541D01*
X9275Y8059D02*
X9315Y8170D01*
X9204Y8210D02*
X9315Y8170D01*
X8946Y8305D02*
X9057Y8264D01*
X8905Y8194D02*
X8946Y8305D01*
X8190Y5786D02*
X8274Y5870D01*
X8190Y5953D02*
X8274Y5870D01*
X7995Y6148D02*
X8079Y6065D01*
X7912D02*
X7995Y6148D01*
X7439Y5591D02*
X7522Y5675D01*
X7439Y5591D02*
X7522Y5508D01*
X7634Y5397D02*
X7717Y5313D01*
X7801Y5397D01*
X8659Y5919D02*
X8777D01*
X8659Y5801D02*
Y5919D01*
Y5525D02*
Y5643D01*
Y5525D02*
X8777D01*
X9328Y5525D02*
X9446D01*
Y5643D01*
Y5801D02*
Y5919D01*
X9328D02*
X9446D01*
X8483Y5625D02*
X8566Y5709D01*
X8483Y5792D02*
X8566Y5709D01*
X8288Y5987D02*
X8371Y5904D01*
X8204D02*
X8288Y5987D01*
X7731Y5430D02*
X7815Y5514D01*
X7731Y5430D02*
X7815Y5347D01*
X7926Y5235D02*
X8010Y5152D01*
X8093Y5235D01*
X21147Y10359D02*
Y10477D01*
X21029D02*
X21147D01*
X20753D02*
X20871D01*
X20753Y10359D02*
Y10477D01*
X20753Y9690D02*
Y9808D01*
Y9690D02*
X20871D01*
X21029D02*
X21147D01*
Y9808D01*
X20797Y9609D02*
Y9727D01*
X20679D02*
X20797D01*
X20403D02*
X20521D01*
X20403Y9609D02*
Y9727D01*
X20403Y8940D02*
Y9058D01*
Y8940D02*
X20521D01*
X20679D02*
X20797D01*
Y9058D01*
X10308Y7866D02*
X10426D01*
X10308Y7748D02*
Y7866D01*
Y7473D02*
Y7591D01*
Y7473D02*
X10426D01*
X10978Y7473D02*
X11096D01*
Y7591D01*
Y7748D02*
Y7866D01*
X10978D02*
X11096D01*
X17918Y5413D02*
X18002Y5496D01*
X17918Y5580D02*
X18002Y5496D01*
X17723Y5775D02*
X17807Y5691D01*
X17640D02*
X17723Y5775D01*
X17167Y5218D02*
X17250Y5301D01*
X17167Y5218D02*
X17250Y5134D01*
X17361Y5023D02*
X17445Y4940D01*
X17528Y5023D01*
X17360Y9764D02*
Y9882D01*
Y9764D02*
X17478D01*
X17635D02*
X17753D01*
Y9882D01*
X17753Y10433D02*
Y10551D01*
X17635D02*
X17753D01*
X17360D02*
X17478D01*
X17360Y10433D02*
Y10551D01*
X19156Y9565D02*
X19274D01*
X19156Y9447D02*
Y9565D01*
Y9172D02*
Y9290D01*
Y9172D02*
X19274D01*
X19825Y9172D02*
X19943D01*
Y9290D01*
Y9447D02*
Y9565D01*
X19825D02*
X19943D01*
X19152Y9913D02*
X19270D01*
X19152Y9795D02*
Y9913D01*
Y9519D02*
Y9637D01*
Y9519D02*
X19270D01*
X19822Y9519D02*
X19940D01*
Y9637D01*
Y9795D02*
Y9913D01*
X19822D02*
X19940D01*
X14422Y9857D02*
X14505Y9773D01*
X14338Y9773D02*
X14422Y9857D01*
X14143Y9578D02*
X14227Y9662D01*
X14143Y9578D02*
X14227Y9495D01*
X14616Y9105D02*
X14700Y9022D01*
X14784Y9105D01*
X14895Y9216D02*
X14978Y9300D01*
X14895Y9384D02*
X14978Y9300D01*
X15749Y9701D02*
X15832Y9784D01*
X15749Y9701D02*
X15832Y9617D01*
X15944Y9506D02*
X16027Y9422D01*
X16111Y9506D01*
X16500Y9896D02*
X16584Y9979D01*
X16500Y10063D02*
X16584Y9979D01*
X16306Y10258D02*
X16389Y10174D01*
X16222D02*
X16306Y10258D01*
X15024Y5509D02*
X15107Y5425D01*
X15191Y5509D01*
X15302Y5620D02*
X15386Y5704D01*
X15302Y5787D02*
X15386Y5704D01*
X14829Y6261D02*
X14912Y6177D01*
X14745D02*
X14829Y6261D01*
X14550Y5982D02*
X14634Y6066D01*
X14550Y5982D02*
X14634Y5899D01*
X14264Y5264D02*
X14347Y5181D01*
X14180Y5181D02*
X14264Y5264D01*
X13986Y4986D02*
X14069Y5070D01*
X13986Y4986D02*
X14069Y4903D01*
X14459Y4513D02*
X14542Y4429D01*
X14626Y4513D01*
X14737Y4624D02*
X14821Y4708D01*
X14737Y4791D02*
X14821Y4708D01*
X15947Y7122D02*
Y7241D01*
X15829D02*
X15947D01*
X15553D02*
X15671D01*
X15553Y7122D02*
Y7241D01*
X15553Y6453D02*
Y6571D01*
Y6453D02*
X15671D01*
X15829D02*
X15947D01*
Y6571D01*
X10147Y7909D02*
Y8027D01*
X10029D02*
X10147D01*
X9753D02*
X9871D01*
X9753Y7909D02*
Y8027D01*
X9753Y7240D02*
Y7358D01*
Y7240D02*
X9871D01*
X10029D02*
X10147D01*
Y7358D01*
X10446Y7229D02*
X10564D01*
X10446Y7111D02*
Y7229D01*
Y6836D02*
Y6954D01*
Y6836D02*
X10564D01*
X11115Y6836D02*
X11233D01*
Y6954D01*
Y7111D02*
Y7229D01*
X11115D02*
X11233D01*
X9833Y8642D02*
X9951D01*
X9833Y8524D02*
Y8642D01*
Y8248D02*
Y8366D01*
Y8248D02*
X9951D01*
X10502Y8248D02*
X10620D01*
Y8366D01*
Y8524D02*
Y8642D01*
X10502D02*
X10620D01*
X9353Y7859D02*
Y7978D01*
Y7859D02*
X9471D01*
X9629D02*
X9747D01*
Y7978D01*
X9747Y8529D02*
Y8647D01*
X9629D02*
X9747D01*
X9353D02*
X9471D01*
X9353Y8529D02*
Y8647D01*
X10410Y6928D02*
X10528D01*
Y7046D01*
Y7203D02*
Y7321D01*
X10410D02*
X10528D01*
X9740Y7321D02*
X9858D01*
X9740Y7203D02*
Y7321D01*
Y6928D02*
Y7046D01*
Y6928D02*
X9858D01*
X15163Y2906D02*
Y3024D01*
X15045D02*
X15163D01*
X14770D02*
X14888D01*
X14770Y2906D02*
Y3024D01*
X14770Y2236D02*
Y2354D01*
Y2236D02*
X14888D01*
X15045D02*
X15163D01*
Y2354D01*
X10440Y7554D02*
X10558D01*
X10440Y7436D02*
Y7554D01*
Y7160D02*
Y7278D01*
Y7160D02*
X10558D01*
X11109Y7160D02*
X11227D01*
Y7278D01*
Y7436D02*
Y7554D01*
X11109D02*
X11227D01*
X15423Y4847D02*
X15541D01*
X15423Y4729D02*
Y4847D01*
Y4453D02*
Y4571D01*
Y4453D02*
X15541D01*
X16092Y4453D02*
X16210D01*
Y4571D01*
Y4729D02*
Y4847D01*
X16092D02*
X16210D01*
X16151Y7387D02*
X16269D01*
X16151Y7269D02*
Y7387D01*
Y6993D02*
Y7112D01*
Y6993D02*
X16269D01*
X16820Y6993D02*
X16938D01*
Y7112D01*
Y7269D02*
Y7387D01*
X16820D02*
X16938D01*
X16447Y3109D02*
Y3227D01*
X16329D02*
X16447D01*
X16053D02*
X16171D01*
X16053Y3109D02*
Y3227D01*
X16053Y2440D02*
Y2558D01*
Y2440D02*
X16171D01*
X16329D02*
X16447D01*
Y2558D01*
X10735Y5263D02*
Y5381D01*
X10617D02*
X10735D01*
X10342D02*
X10460D01*
X10342Y5263D02*
Y5381D01*
X10342Y4593D02*
Y4712D01*
Y4593D02*
X10460D01*
X10617D02*
X10735D01*
Y4712D01*
X2667Y4595D02*
Y4713D01*
X2549D02*
X2667D01*
X2273D02*
X2391D01*
X2273Y4595D02*
Y4713D01*
X2273Y3925D02*
Y4043D01*
Y3925D02*
X2391D01*
X2549D02*
X2667D01*
Y4043D01*
M02*
