G04*
G04 #@! TF.GenerationSoftware,Altium Limited,Altium Designer,22.5.1 (42)*
G04*
G04 Layer_Physical_Order=4*
G04 Layer_Color=13762439*
%FSLAX24Y24*%
%MOIN*%
G70*
G04*
G04 #@! TF.SameCoordinates,15B8646E-C553-4937-87EE-17013A6B0CAB*
G04*
G04*
G04 #@! TF.FilePolarity,Positive*
G04*
G01*
G75*
%ADD13C,0.0050*%
%ADD33C,0.0177*%
%ADD48C,0.0043*%
%ADD49C,0.0043*%
%ADD54C,0.0051*%
%ADD55C,0.0050*%
%ADD56C,0.0118*%
%ADD57C,0.0157*%
%ADD58C,0.0315*%
%ADD61C,0.0157*%
G36*
X3309Y11581D02*
X3305Y11576D01*
X3301Y11572D01*
X3298Y11567D01*
X3295Y11563D01*
X3293Y11559D01*
X3291Y11554D01*
X3289Y11550D01*
X3288Y11545D01*
X3288Y11541D01*
X3287Y11536D01*
X3229Y11594D01*
X3234Y11595D01*
X3238Y11595D01*
X3243Y11596D01*
X3247Y11598D01*
X3252Y11600D01*
X3256Y11602D01*
X3260Y11605D01*
X3265Y11608D01*
X3269Y11612D01*
X3274Y11616D01*
X3309Y11581D01*
D02*
G37*
G36*
X4061Y11574D02*
X4065Y11571D01*
X4069Y11568D01*
X4073Y11566D01*
X4078Y11565D01*
X4082Y11563D01*
X4088Y11562D01*
X4093Y11561D01*
X4099Y11561D01*
X4105Y11560D01*
Y11510D01*
X4099Y11510D01*
X4093Y11510D01*
X4088Y11509D01*
X4082Y11508D01*
X4078Y11506D01*
X4073Y11505D01*
X4069Y11502D01*
X4065Y11500D01*
X4061Y11497D01*
X4058Y11494D01*
Y11577D01*
X4061Y11574D01*
D02*
G37*
G36*
X27094Y11545D02*
Y8732D01*
X26732D01*
Y8734D01*
X26647Y8723D01*
X26568Y8690D01*
X26500Y8638D01*
X26448Y8570D01*
X26415Y8491D01*
X26404Y8406D01*
X26405D01*
X26405Y8406D01*
Y7343D01*
X26405Y7343D01*
X26404D01*
X26415Y7258D01*
X26448Y7178D01*
X26500Y7110D01*
X26568Y7058D01*
X26647Y7025D01*
X26732Y7014D01*
Y7016D01*
X26732Y7016D01*
X27094D01*
Y266D01*
X26900Y71D01*
X15167D01*
X15110Y128D01*
Y1378D01*
X15111D01*
X15102Y1448D01*
X15075Y1512D01*
X15033Y1568D01*
X14977Y1611D01*
X14912Y1638D01*
X14843Y1647D01*
X14773Y1638D01*
X14708Y1611D01*
X14652Y1568D01*
X14610Y1512D01*
X14583Y1448D01*
X14574Y1378D01*
X14575D01*
Y128D01*
X14518Y71D01*
X29D01*
X-165Y266D01*
Y7016D01*
X197D01*
X197Y7016D01*
Y7014D01*
X282Y7025D01*
X361Y7058D01*
X429Y7110D01*
X481Y7178D01*
X514Y7258D01*
X525Y7343D01*
X524D01*
Y8406D01*
X525D01*
X514Y8491D01*
X481Y8570D01*
X429Y8638D01*
X361Y8690D01*
X282Y8723D01*
X197Y8734D01*
Y8732D01*
X-165D01*
Y11545D01*
X29Y11740D01*
X2003D01*
X2008Y11690D01*
X1985Y11685D01*
X1960Y11669D01*
X1804Y11512D01*
X1759Y11488D01*
X1719Y11505D01*
X1675D01*
X1635Y11488D01*
X1605Y11458D01*
X1588Y11417D01*
Y11374D01*
X1564Y11338D01*
X1009D01*
X981Y11367D01*
X980Y11368D01*
X976Y11372D01*
X973Y11378D01*
X970Y11381D01*
X969Y11382D01*
X969Y11383D01*
X968Y11384D01*
X968Y11384D01*
Y11419D01*
X952Y11459D01*
X921Y11490D01*
X881Y11507D01*
X837D01*
X797Y11490D01*
X767Y11459D01*
X750Y11419D01*
Y11376D01*
X767Y11336D01*
X797Y11305D01*
X825Y11294D01*
X834Y11287D01*
X836Y11287D01*
X836Y11287D01*
X836Y11286D01*
X837Y11286D01*
X841Y11284D01*
X842Y11283D01*
X848Y11278D01*
X851Y11275D01*
X857Y11272D01*
X923Y11207D01*
X948Y11190D01*
X977Y11184D01*
X1804D01*
X1833Y11190D01*
X1858Y11207D01*
X2088Y11436D01*
X2311D01*
X2335Y11400D01*
Y11357D01*
X2352Y11317D01*
X2382Y11286D01*
X2422Y11270D01*
X2466D01*
X2500Y11284D01*
X2518Y11273D01*
X2540Y11250D01*
X2536Y11240D01*
Y11197D01*
X2553Y11157D01*
X2583Y11126D01*
X2623Y11109D01*
X2667D01*
X2707Y11126D01*
X2737Y11157D01*
X2741Y11164D01*
X2800Y11176D01*
X2905Y11070D01*
X2930Y11054D01*
X2960Y11048D01*
X3156D01*
X3166Y10999D01*
X3166Y10998D01*
X3136Y10967D01*
X3119Y10927D01*
Y10884D01*
X3136Y10844D01*
X3167Y10813D01*
X3207Y10796D01*
X3250D01*
X3290Y10813D01*
X3321Y10844D01*
X3337Y10884D01*
Y10927D01*
X3321Y10967D01*
X3290Y10998D01*
X3290Y10999D01*
X3301Y11048D01*
X3943D01*
X3954Y10999D01*
X3954Y10998D01*
X3923Y10967D01*
X3907Y10927D01*
Y10884D01*
X3923Y10844D01*
X3954Y10813D01*
X3994Y10796D01*
X4037D01*
X4078Y10813D01*
X4108Y10844D01*
X4125Y10884D01*
Y10927D01*
X4108Y10967D01*
X4078Y10998D01*
X4078Y10999D01*
X4088Y11048D01*
X4203D01*
X6047Y9204D01*
Y8408D01*
X6011Y8384D01*
X5967D01*
X5927Y8367D01*
X5897Y8337D01*
X5880Y8296D01*
Y8253D01*
X5897Y8213D01*
X5927Y8182D01*
X5967Y8166D01*
X6011D01*
X6047Y8142D01*
Y5165D01*
X6053Y5136D01*
X6069Y5111D01*
X6634Y4547D01*
X6659Y4530D01*
X6688Y4524D01*
X7635D01*
X7668Y4474D01*
X7667Y4471D01*
Y4427D01*
X7683Y4387D01*
X7714Y4356D01*
X7754Y4340D01*
X7797D01*
X7837Y4356D01*
X7868Y4387D01*
X7876Y4407D01*
X7931D01*
X7939Y4387D01*
X7970Y4356D01*
X7990Y4348D01*
Y4294D01*
X7970Y4285D01*
X7939Y4255D01*
X7922Y4215D01*
Y4171D01*
X7939Y4131D01*
X7970Y4100D01*
X8010Y4084D01*
X8053D01*
X8093Y4100D01*
X8124Y4131D01*
X8132Y4151D01*
X8187D01*
X8195Y4131D01*
X8226Y4100D01*
X8266Y4084D01*
X8309D01*
X8349Y4100D01*
X8380Y4131D01*
X8396Y4171D01*
Y4215D01*
X8380Y4255D01*
X8349Y4285D01*
X8329Y4294D01*
Y4348D01*
X8349Y4356D01*
X8380Y4387D01*
X8388Y4407D01*
X8442D01*
X8451Y4387D01*
X8482Y4356D01*
X8522Y4340D01*
X8565D01*
X8605Y4356D01*
X8636Y4387D01*
X8644Y4407D01*
X8698D01*
X8707Y4387D01*
X8737Y4356D01*
X8758Y4348D01*
Y4294D01*
X8737Y4285D01*
X8707Y4255D01*
X8690Y4215D01*
Y4171D01*
X8707Y4131D01*
X8737Y4100D01*
X8778Y4084D01*
X8821D01*
X8861Y4100D01*
X8892Y4131D01*
X8908Y4171D01*
Y4215D01*
X8892Y4255D01*
X8861Y4285D01*
X8841Y4294D01*
Y4348D01*
X8861Y4356D01*
X8892Y4387D01*
X8908Y4427D01*
Y4471D01*
X8892Y4511D01*
X8861Y4541D01*
X8821Y4558D01*
X8778D01*
X8737Y4541D01*
X8707Y4511D01*
X8698Y4490D01*
X8644D01*
X8636Y4511D01*
X8605Y4541D01*
X8585Y4550D01*
Y4604D01*
X8605Y4612D01*
X8636Y4643D01*
X8652Y4683D01*
Y4726D01*
X8636Y4766D01*
X8605Y4797D01*
X8565Y4814D01*
X8544D01*
X8524Y4864D01*
X8617Y4957D01*
X9099D01*
X9118Y4907D01*
X9101Y4890D01*
X9084Y4850D01*
Y4807D01*
X9101Y4766D01*
X9131Y4736D01*
X9171Y4719D01*
X9215D01*
X9255Y4736D01*
X9286Y4766D01*
X9302Y4807D01*
Y4850D01*
X9286Y4890D01*
X9268Y4907D01*
X9287Y4957D01*
X9414D01*
X9444Y4963D01*
X9469Y4980D01*
X9533Y5044D01*
X9567Y5046D01*
X9576Y5044D01*
X9600Y4996D01*
X9594Y4982D01*
Y4938D01*
X9611Y4898D01*
X9642Y4868D01*
X9682Y4851D01*
X9725D01*
X9765Y4868D01*
X9796Y4898D01*
X9812Y4938D01*
Y4982D01*
X9801Y5008D01*
X9803Y5011D01*
X9843Y5038D01*
X10185Y4697D01*
X10176Y4678D01*
X10155Y4656D01*
X10134Y4660D01*
X10038D01*
X10032Y4662D01*
X10027Y4662D01*
X10020Y4663D01*
X10018Y4663D01*
X10016Y4664D01*
X10015Y4664D01*
X10014Y4665D01*
X10013Y4665D01*
X10013Y4665D01*
X10011Y4666D01*
X10001Y4668D01*
X9971Y4680D01*
X9955D01*
X9932Y4683D01*
Y4726D01*
X9915Y4766D01*
X9885Y4797D01*
X9845Y4814D01*
X9801D01*
X9761Y4797D01*
X9730Y4766D01*
X9714Y4726D01*
Y4683D01*
X9685Y4680D01*
X9672D01*
X9632Y4664D01*
X9601Y4633D01*
X9584Y4593D01*
Y4558D01*
X9545D01*
X9505Y4541D01*
X9474Y4511D01*
X9458Y4471D01*
Y4427D01*
X9474Y4387D01*
X9505Y4356D01*
X9545Y4340D01*
X9589D01*
X9629Y4356D01*
X9659Y4387D01*
X9670Y4413D01*
X9670Y4414D01*
X9670Y4414D01*
X9672Y4416D01*
X9709Y4429D01*
X9726Y4430D01*
X9896Y4261D01*
X9921Y4244D01*
X9950Y4238D01*
X9950Y4238D01*
X10228D01*
X10257Y4244D01*
X10282Y4260D01*
X11066D01*
X11095Y4266D01*
X11120Y4283D01*
X11348Y4511D01*
X11410Y4502D01*
X11426Y4486D01*
X11447Y4477D01*
Y4423D01*
X11426Y4415D01*
X11395Y4384D01*
X11379Y4344D01*
Y4301D01*
X11395Y4261D01*
X11419Y4237D01*
X11420Y4198D01*
X11416Y4180D01*
X11390Y4153D01*
X11383Y4137D01*
X11347Y4137D01*
X11331Y4142D01*
X11316Y4178D01*
X11286Y4208D01*
X11246Y4225D01*
X11202D01*
X11162Y4208D01*
X11131Y4178D01*
X11115Y4138D01*
Y4094D01*
X11131Y4054D01*
X11162Y4023D01*
X11202Y4007D01*
X11246D01*
X11286Y4023D01*
X11316Y4054D01*
X11323Y4070D01*
X11359Y4070D01*
X11375Y4065D01*
X11390Y4030D01*
X11420Y3999D01*
X11461Y3983D01*
X11472D01*
X11480Y3979D01*
X11480Y3979D01*
X11480Y3979D01*
X11481Y3978D01*
X11482Y3978D01*
X11483Y3978D01*
X11484Y3977D01*
X11485Y3976D01*
X11487Y3975D01*
X11490Y3972D01*
X11496Y3969D01*
X11562Y3904D01*
X11586Y3887D01*
X11616Y3882D01*
X11616Y3882D01*
X12827D01*
X14307Y2402D01*
X14332Y2385D01*
X14361Y2379D01*
X18744D01*
X18774Y2385D01*
X18798Y2402D01*
X21020Y4624D01*
X21624D01*
X21654Y4629D01*
X21678Y4646D01*
X21856Y4824D01*
X22318D01*
X22347Y4829D01*
X22372Y4846D01*
X22544Y5018D01*
X22695D01*
X22724Y5024D01*
X22749Y5041D01*
X22954Y5246D01*
X22971Y5271D01*
X22976Y5300D01*
Y6568D01*
X23057Y6649D01*
X23073Y6674D01*
X23079Y6703D01*
Y7461D01*
X23091Y7507D01*
X23142Y7507D01*
X23189Y7527D01*
X23225Y7563D01*
X23245Y7610D01*
Y7662D01*
X23225Y7709D01*
X23189Y7745D01*
X23142Y7765D01*
X23091D01*
X23043Y7745D01*
X23029Y7731D01*
X22994Y7715D01*
X22963Y7731D01*
X22947Y7747D01*
X22900Y7767D01*
X22848D01*
X22801Y7747D01*
X22765Y7711D01*
X22745Y7663D01*
Y7612D01*
X22765Y7565D01*
X22801Y7529D01*
X22848Y7509D01*
X22864D01*
X22874Y7505D01*
X22880Y7505D01*
X22884Y7504D01*
X22888Y7504D01*
X22891Y7503D01*
X22894Y7502D01*
X22896Y7501D01*
X22898Y7500D01*
X22900Y7499D01*
X22902Y7497D01*
X22906Y7494D01*
X22912Y7492D01*
X22926Y7477D01*
Y7071D01*
X22876Y7038D01*
X22875Y7038D01*
X22823D01*
X22776Y7019D01*
X22740Y6983D01*
X22720Y6935D01*
Y6884D01*
X22740Y6837D01*
X22776Y6801D01*
X22823Y6781D01*
X22875D01*
X22896Y6736D01*
X22899Y6707D01*
X22846Y6654D01*
X22829Y6629D01*
X22824Y6600D01*
Y5332D01*
X22663Y5171D01*
X22512D01*
X22483Y5165D01*
X22458Y5149D01*
X22452Y5142D01*
X22393Y5154D01*
X22392Y5156D01*
X22356Y5192D01*
X22351Y5194D01*
Y5248D01*
X22370Y5256D01*
X22406Y5292D01*
X22425Y5340D01*
Y5391D01*
X22406Y5438D01*
X22389Y5455D01*
X22378Y5493D01*
X22390Y5519D01*
X22412Y5540D01*
X22431Y5588D01*
Y5639D01*
X22412Y5686D01*
X22394Y5704D01*
X22378Y5728D01*
X22393Y5769D01*
X22404Y5780D01*
X22424Y5827D01*
Y5878D01*
X22404Y5926D01*
X22368Y5962D01*
X22320Y5981D01*
X22269D01*
X22222Y5962D01*
X22186Y5926D01*
X22170Y5887D01*
X22165Y5881D01*
X22161Y5866D01*
X22160Y5862D01*
X22158Y5857D01*
X22157Y5853D01*
X22155Y5850D01*
X22153Y5846D01*
X22151Y5844D01*
X22149Y5841D01*
X22145Y5838D01*
X22143Y5832D01*
X21989Y5677D01*
X21972Y5653D01*
X21967Y5623D01*
Y5575D01*
X21468Y5076D01*
X20864D01*
X20835Y5071D01*
X20810Y5054D01*
X18589Y2833D01*
X17850D01*
X17829Y2883D01*
X17831Y2885D01*
X17848Y2925D01*
Y2968D01*
X17831Y3008D01*
X17801Y3039D01*
X17761Y3056D01*
X17717D01*
X17677Y3039D01*
X17646Y3008D01*
X17630Y2968D01*
Y2925D01*
X17646Y2885D01*
X17649Y2883D01*
X17628Y2833D01*
X17218D01*
X17197Y2883D01*
X17209Y2895D01*
X17226Y2935D01*
Y2978D01*
X17209Y3019D01*
X17179Y3049D01*
X17138Y3066D01*
X17095D01*
X17055Y3049D01*
X17024Y3019D01*
X17008Y2978D01*
Y2935D01*
X17024Y2895D01*
X17037Y2883D01*
X17016Y2833D01*
X15694D01*
X15690Y2839D01*
X15678Y2883D01*
X15700Y2904D01*
X15716Y2944D01*
Y2985D01*
X15724Y2991D01*
X15761Y3011D01*
X15775Y2997D01*
X15815Y2980D01*
X15859D01*
X15899Y2997D01*
X15929Y3027D01*
X15946Y3067D01*
Y3111D01*
X15929Y3151D01*
X15899Y3181D01*
X15871Y3193D01*
X15866Y3240D01*
X15866Y3245D01*
X15889Y3254D01*
X15919Y3285D01*
X15936Y3325D01*
Y3368D01*
X15919Y3408D01*
X15889Y3439D01*
X15848Y3456D01*
X15805D01*
X15765Y3439D01*
X15734Y3408D01*
X15718Y3368D01*
Y3325D01*
X15734Y3285D01*
X15765Y3254D01*
X15792Y3243D01*
X15798Y3196D01*
X15797Y3191D01*
X15775Y3181D01*
X15745Y3151D01*
X15728Y3111D01*
Y3070D01*
X15721Y3063D01*
X15684Y3043D01*
X15669Y3058D01*
X15629Y3075D01*
X15586D01*
X15545Y3058D01*
X15515Y3028D01*
X15512Y3020D01*
X15476Y3013D01*
X15436Y3030D01*
X15392D01*
X15352Y3013D01*
X15322Y2983D01*
X15305Y2942D01*
Y2899D01*
X15312Y2883D01*
X15282Y2833D01*
X15236D01*
X15215Y2883D01*
X15216Y2884D01*
X15232Y2924D01*
Y2967D01*
X15216Y3007D01*
X15185Y3038D01*
X15145Y3054D01*
X15102D01*
X15062Y3038D01*
X15046Y3022D01*
X15031Y3038D01*
X14991Y3054D01*
X14947D01*
X14907Y3038D01*
X14898Y3028D01*
X14888Y3038D01*
X14848Y3054D01*
X14805D01*
X14765Y3038D01*
X14735Y3008D01*
X14704Y3038D01*
X14664Y3055D01*
X14621D01*
X14581Y3038D01*
X14569Y3027D01*
X14555Y3041D01*
X14515Y3057D01*
X14471D01*
X14431Y3041D01*
X14406Y3015D01*
X14394Y3009D01*
X14345Y3005D01*
X12383Y4967D01*
X12358Y4983D01*
X12329Y4989D01*
X11969D01*
X11897Y5061D01*
X11913Y5116D01*
X11932Y5124D01*
X11963Y5155D01*
X11979Y5195D01*
Y5238D01*
X11963Y5278D01*
X11932Y5309D01*
X11892Y5326D01*
X11848D01*
X11808Y5309D01*
X11778Y5278D01*
X11770Y5259D01*
X11715Y5243D01*
X11553Y5405D01*
X11529Y5421D01*
X11499Y5427D01*
X11284D01*
X11260Y5449D01*
X11260Y5449D01*
X11282Y5506D01*
X11288Y5508D01*
X11319Y5539D01*
X11335Y5579D01*
Y5622D01*
X11319Y5662D01*
X11288Y5693D01*
X11248Y5710D01*
X11205D01*
X11165Y5693D01*
X11134Y5662D01*
X11127Y5645D01*
X11073D01*
X11067Y5659D01*
X11036Y5690D01*
X10996Y5706D01*
X10963D01*
X10951Y5755D01*
X10951Y5756D01*
X10981Y5786D01*
X10998Y5826D01*
Y5870D01*
X10981Y5910D01*
X10950Y5940D01*
X10910Y5957D01*
X10867D01*
X10827Y5940D01*
X10796Y5910D01*
X10780Y5870D01*
Y5826D01*
X10796Y5786D01*
X10827Y5755D01*
X10867Y5739D01*
X10900D01*
X10913Y5691D01*
X10913Y5690D01*
X10882Y5659D01*
X10865Y5619D01*
Y5576D01*
X10882Y5536D01*
X10913Y5505D01*
X10953Y5488D01*
X10964D01*
X10972Y5485D01*
X10972Y5485D01*
X10972Y5485D01*
X10973Y5484D01*
X10974Y5484D01*
X10975Y5484D01*
X10976Y5483D01*
X10977Y5482D01*
X10979Y5481D01*
X10983Y5478D01*
X10989Y5475D01*
X11107Y5357D01*
X11082Y5311D01*
X11070Y5313D01*
X9636D01*
X9634Y5314D01*
X9597Y5363D01*
X9598Y5367D01*
X9629Y5380D01*
X9659Y5411D01*
X9676Y5451D01*
Y5494D01*
X9659Y5534D01*
X9629Y5565D01*
X9589Y5581D01*
X9545D01*
X9505Y5565D01*
X9474Y5534D01*
X9458Y5494D01*
Y5483D01*
X9455Y5476D01*
X9454Y5476D01*
X9454Y5475D01*
X9454Y5475D01*
X9454Y5474D01*
X9438Y5463D01*
X9428Y5461D01*
X9380Y5494D01*
X9363Y5534D01*
X9332Y5565D01*
X9292Y5581D01*
X9249D01*
X9209Y5565D01*
X9178Y5534D01*
X9162Y5494D01*
Y5451D01*
X9178Y5411D01*
X9209Y5380D01*
X9226Y5373D01*
X9249Y5322D01*
X9249Y5313D01*
X9249Y5313D01*
X8497D01*
X8468Y5307D01*
X8443Y5291D01*
X8429Y5277D01*
X8370Y5288D01*
X8349Y5309D01*
X8338Y5314D01*
Y5368D01*
X8355Y5375D01*
X8386Y5406D01*
X8402Y5446D01*
Y5489D01*
X8386Y5529D01*
X8355Y5560D01*
X8315Y5577D01*
X8272D01*
X8231Y5560D01*
X8201Y5529D01*
X8184Y5489D01*
Y5478D01*
X8180Y5470D01*
X8180Y5470D01*
X8180Y5470D01*
X8180Y5469D01*
X8180Y5468D01*
X8180Y5467D01*
X8179Y5466D01*
X8178Y5465D01*
X8176Y5463D01*
X8173Y5460D01*
X8171Y5454D01*
X7848Y5131D01*
X7810Y5160D01*
X7812Y5163D01*
X7827Y5200D01*
Y5243D01*
X7810Y5283D01*
X7779Y5314D01*
X7739Y5330D01*
X7696D01*
X7656Y5314D01*
X7649Y5307D01*
X7621Y5285D01*
X7584Y5307D01*
X7581Y5309D01*
X7541Y5326D01*
X7498D01*
X7458Y5309D01*
X7427Y5278D01*
X7411Y5238D01*
Y5195D01*
X7427Y5155D01*
X7458Y5124D01*
X7498Y5107D01*
X7541D01*
X7581Y5124D01*
X7588Y5131D01*
X7616Y5152D01*
X7654Y5131D01*
X7656Y5129D01*
X7696Y5112D01*
X7739D01*
X7776Y5127D01*
X7779Y5129D01*
X7808Y5091D01*
X7698Y4980D01*
X6845D01*
X6768Y5057D01*
X6770Y5077D01*
X6784Y5112D01*
X6814Y5124D01*
X6844Y5155D01*
X6853Y5175D01*
X6907D01*
X6915Y5155D01*
X6946Y5124D01*
X6986Y5107D01*
X7030D01*
X7070Y5124D01*
X7100Y5155D01*
X7117Y5195D01*
Y5238D01*
X7100Y5278D01*
X7070Y5309D01*
X7049Y5317D01*
Y5372D01*
X7070Y5380D01*
X7100Y5411D01*
X7117Y5451D01*
Y5494D01*
X7100Y5534D01*
X7070Y5565D01*
X7049Y5573D01*
Y5627D01*
X7070Y5636D01*
X7100Y5667D01*
X7109Y5687D01*
X7163D01*
X7171Y5667D01*
X7202Y5636D01*
X7242Y5619D01*
X7285D01*
X7326Y5636D01*
X7356Y5667D01*
X7365Y5687D01*
X7419D01*
X7427Y5667D01*
X7458Y5636D01*
X7498Y5619D01*
X7541D01*
X7581Y5636D01*
X7612Y5667D01*
X7629Y5707D01*
Y5734D01*
X7633Y5737D01*
X7677D01*
X7717Y5754D01*
X7748Y5785D01*
X7764Y5825D01*
Y5868D01*
X7748Y5908D01*
X7717Y5939D01*
X7677Y5955D01*
X7633D01*
X7593Y5939D01*
X7563Y5908D01*
X7546Y5868D01*
Y5841D01*
X7541Y5837D01*
X7498D01*
X7458Y5821D01*
X7427Y5790D01*
X7419Y5770D01*
X7365D01*
X7356Y5790D01*
X7326Y5821D01*
X7285Y5837D01*
X7242D01*
X7202Y5821D01*
X7171Y5790D01*
X7163Y5770D01*
X7109D01*
X7100Y5790D01*
X7070Y5821D01*
X7049Y5829D01*
Y5883D01*
X7070Y5892D01*
X7100Y5922D01*
X7111Y5947D01*
X7111Y5947D01*
X7117Y5963D01*
X7162Y5993D01*
X7162Y5994D01*
X7166Y5995D01*
X7202Y6010D01*
X7233Y6041D01*
X7250Y6081D01*
Y6124D01*
X7233Y6164D01*
X7202Y6195D01*
X7162Y6212D01*
X7119Y6218D01*
X7117Y6258D01*
Y6262D01*
X7100Y6302D01*
X7070Y6333D01*
X7030Y6349D01*
X6986D01*
X6946Y6333D01*
X6915Y6302D01*
X6899Y6262D01*
Y6218D01*
X6915Y6178D01*
X6946Y6148D01*
X6966Y6139D01*
Y6085D01*
X6946Y6077D01*
X6915Y6046D01*
X6907Y6026D01*
X6853D01*
X6844Y6046D01*
X6814Y6077D01*
X6774Y6093D01*
X6730D01*
X6690Y6077D01*
X6660Y6046D01*
X6653Y6029D01*
X6603Y6039D01*
Y9403D01*
X6597Y9432D01*
X6580Y9457D01*
X4347Y11690D01*
X4368Y11740D01*
X26900D01*
X27094Y11545D01*
D02*
G37*
G36*
X1743Y11434D02*
X1746Y11431D01*
X1750Y11429D01*
X1754Y11427D01*
X1759Y11425D01*
X1763Y11424D01*
X1769Y11423D01*
X1774Y11422D01*
X1780Y11421D01*
X1786Y11421D01*
Y11370D01*
X1780Y11370D01*
X1774Y11370D01*
X1769Y11369D01*
X1763Y11368D01*
X1759Y11366D01*
X1754Y11365D01*
X1750Y11363D01*
X1746Y11360D01*
X1743Y11357D01*
X1739Y11354D01*
Y11437D01*
X1743Y11434D01*
D02*
G37*
G36*
X2489Y11417D02*
X2493Y11414D01*
X2497Y11412D01*
X2501Y11410D01*
X2506Y11408D01*
X2510Y11407D01*
X2515Y11406D01*
X2521Y11405D01*
X2527Y11404D01*
X2533Y11404D01*
Y11353D01*
X2527Y11353D01*
X2521Y11352D01*
X2515Y11352D01*
X2510Y11351D01*
X2506Y11349D01*
X2501Y11347D01*
X2497Y11345D01*
X2493Y11343D01*
X2489Y11340D01*
X2486Y11337D01*
Y11420D01*
X2489Y11417D01*
D02*
G37*
G36*
X916Y11380D02*
X916Y11376D01*
X916Y11371D01*
X917Y11367D01*
X919Y11363D01*
X921Y11358D01*
X923Y11354D01*
X926Y11350D01*
X930Y11345D01*
X934Y11341D01*
X889Y11314D01*
X885Y11318D01*
X876Y11325D01*
X872Y11328D01*
X863Y11334D01*
X859Y11336D01*
X855Y11337D01*
X851Y11339D01*
X847Y11340D01*
X917Y11384D01*
X916Y11380D01*
D02*
G37*
G36*
X22953Y7629D02*
X22954Y7621D01*
X22955Y7613D01*
X22957Y7606D01*
X22959Y7599D01*
X22962Y7592D01*
X22965Y7586D01*
X22969Y7580D01*
X22973Y7575D01*
X22978Y7569D01*
X22943Y7534D01*
X22937Y7539D01*
X22932Y7543D01*
X22926Y7547D01*
X22919Y7550D01*
X22913Y7553D01*
X22906Y7555D01*
X22899Y7557D01*
X22891Y7558D01*
X22883Y7559D01*
X22875Y7559D01*
X22953Y7637D01*
X22953Y7629D01*
D02*
G37*
G36*
X22278Y5776D02*
X22271Y5777D01*
X22263Y5778D01*
X22256Y5778D01*
X22249Y5777D01*
X22242Y5775D01*
X22236Y5773D01*
X22230Y5770D01*
X22224Y5767D01*
X22218Y5763D01*
X22213Y5758D01*
X22185Y5801D01*
X22190Y5806D01*
X22194Y5811D01*
X22198Y5817D01*
X22202Y5823D01*
X22205Y5830D01*
X22208Y5836D01*
X22211Y5844D01*
X22214Y5851D01*
X22218Y5868D01*
X22278Y5776D01*
D02*
G37*
G36*
X22268Y5542D02*
X22261Y5545D01*
X22255Y5547D01*
X22249Y5548D01*
X22242Y5548D01*
X22236Y5547D01*
X22230Y5546D01*
X22225Y5543D01*
X22219Y5540D01*
X22213Y5536D01*
X22207Y5531D01*
X22190Y5584D01*
X22195Y5589D01*
X22204Y5600D01*
X22208Y5605D01*
X22216Y5617D01*
X22220Y5624D01*
X22230Y5645D01*
X22268Y5542D01*
D02*
G37*
G36*
X11034Y5592D02*
X11034Y5588D01*
X11035Y5583D01*
X11037Y5579D01*
X11039Y5574D01*
X11041Y5570D01*
X11044Y5565D01*
X11047Y5561D01*
X11051Y5557D01*
X11055Y5552D01*
X11020Y5517D01*
X11015Y5521D01*
X11011Y5525D01*
X11007Y5528D01*
X11002Y5531D01*
X10998Y5533D01*
X10993Y5535D01*
X10989Y5537D01*
X10984Y5538D01*
X10980Y5538D01*
X10975Y5538D01*
X11034Y5597D01*
X11034Y5592D01*
D02*
G37*
G36*
X9566Y5413D02*
X9562Y5413D01*
X9557Y5413D01*
X9553Y5412D01*
X9549Y5410D01*
X9544Y5408D01*
X9540Y5406D01*
X9535Y5403D01*
X9531Y5400D01*
X9527Y5396D01*
X9522Y5392D01*
X9486Y5428D01*
X9490Y5432D01*
X9494Y5437D01*
X9497Y5441D01*
X9500Y5445D01*
X9503Y5450D01*
X9505Y5454D01*
X9506Y5459D01*
X9507Y5463D01*
X9508Y5467D01*
X9508Y5472D01*
X9566Y5413D01*
D02*
G37*
G36*
X6748Y5410D02*
X6744Y5410D01*
X6739Y5409D01*
X6735Y5408D01*
X6730Y5407D01*
X6726Y5405D01*
X6721Y5402D01*
X6717Y5399D01*
X6712Y5396D01*
X6708Y5392D01*
X6704Y5388D01*
X6668Y5424D01*
X6672Y5428D01*
X6676Y5432D01*
X6679Y5437D01*
X6682Y5441D01*
X6685Y5446D01*
X6687Y5450D01*
X6688Y5455D01*
X6689Y5459D01*
X6690Y5464D01*
X6690Y5468D01*
X6748Y5410D01*
D02*
G37*
G36*
X8293Y5409D02*
X8288Y5408D01*
X8284Y5408D01*
X8279Y5407D01*
X8275Y5405D01*
X8270Y5403D01*
X8266Y5401D01*
X8261Y5398D01*
X8257Y5395D01*
X8252Y5391D01*
X8248Y5387D01*
X8213Y5422D01*
X8217Y5427D01*
X8220Y5431D01*
X8224Y5436D01*
X8227Y5440D01*
X8229Y5444D01*
X8231Y5449D01*
X8232Y5453D01*
X8233Y5458D01*
X8234Y5462D01*
X8234Y5467D01*
X8293Y5409D01*
D02*
G37*
G36*
X22241Y5310D02*
X22235Y5316D01*
X22228Y5321D01*
X22222Y5325D01*
X22216Y5329D01*
X22209Y5333D01*
X22203Y5335D01*
X22196Y5338D01*
X22189Y5339D01*
X22182Y5340D01*
X22175Y5340D01*
Y5390D01*
X22182Y5391D01*
X22189Y5391D01*
X22196Y5393D01*
X22203Y5395D01*
X22209Y5398D01*
X22216Y5401D01*
X22222Y5405D01*
X22228Y5410D01*
X22235Y5415D01*
X22241Y5420D01*
Y5310D01*
D02*
G37*
G36*
X11199Y5144D02*
X11203Y5140D01*
X11207Y5137D01*
X11212Y5134D01*
X11216Y5132D01*
X11221Y5130D01*
X11225Y5128D01*
X11230Y5127D01*
X11234Y5126D01*
X11238Y5126D01*
X11180Y5068D01*
X11180Y5072D01*
X11179Y5077D01*
X11178Y5081D01*
X11177Y5085D01*
X11175Y5090D01*
X11172Y5094D01*
X11169Y5099D01*
X11166Y5103D01*
X11162Y5107D01*
X11158Y5112D01*
X11194Y5148D01*
X11199Y5144D01*
D02*
G37*
G36*
X9986Y4618D02*
X9990Y4616D01*
X9994Y4614D01*
X9998Y4613D01*
X10003Y4611D01*
X10008Y4610D01*
X10013Y4609D01*
X10025Y4608D01*
X10031Y4608D01*
X10042Y4558D01*
X10036Y4558D01*
X10031Y4557D01*
X10025Y4556D01*
X10020Y4555D01*
X10016Y4553D01*
X10012Y4551D01*
X10008Y4549D01*
X10005Y4546D01*
X10002Y4543D01*
X9999Y4539D01*
X9982Y4620D01*
X9986Y4618D01*
D02*
G37*
G36*
X10680Y4530D02*
X10677Y4533D01*
X10674Y4536D01*
X10670Y4538D01*
X10666Y4540D01*
X10661Y4542D01*
X10656Y4543D01*
X10651Y4544D01*
X10646Y4545D01*
X10640Y4546D01*
X10634Y4546D01*
Y4597D01*
X10640Y4597D01*
X10646Y4598D01*
X10651Y4598D01*
X10656Y4599D01*
X10661Y4601D01*
X10666Y4603D01*
X10670Y4605D01*
X10674Y4607D01*
X10677Y4610D01*
X10680Y4613D01*
Y4530D01*
D02*
G37*
G36*
X11078Y5119D02*
X11079Y5108D01*
X11064Y5063D01*
X11041Y5053D01*
X11010Y5022D01*
X10993Y4982D01*
Y4939D01*
X11010Y4899D01*
X11041Y4868D01*
X11061Y4860D01*
Y4806D01*
X11041Y4797D01*
X11010Y4766D01*
X10993Y4726D01*
Y4683D01*
X11010Y4643D01*
X11032Y4621D01*
X11035Y4565D01*
X10984Y4514D01*
X10856D01*
X10832Y4550D01*
Y4593D01*
X10815Y4633D01*
X10784Y4664D01*
X10744Y4680D01*
X10701D01*
X10661Y4664D01*
X10653Y4656D01*
X10646Y4653D01*
X10645Y4653D01*
X10645Y4653D01*
X10645Y4653D01*
X10644Y4653D01*
X10644Y4652D01*
X10643Y4652D01*
X10643Y4652D01*
X10641Y4652D01*
X10640Y4651D01*
X10637Y4651D01*
X10632Y4651D01*
X10627Y4648D01*
X10451D01*
X9986Y5113D01*
X10005Y5159D01*
X11038D01*
X11078Y5119D01*
D02*
G37*
G36*
X9753Y4566D02*
X9753Y4561D01*
X9754Y4557D01*
X9756Y4552D01*
X9758Y4548D01*
X9760Y4543D01*
X9763Y4539D01*
X9766Y4535D01*
X9770Y4530D01*
X9774Y4526D01*
X9739Y4491D01*
X9734Y4495D01*
X9730Y4498D01*
X9725Y4502D01*
X9721Y4504D01*
X9717Y4507D01*
X9712Y4509D01*
X9708Y4510D01*
X9703Y4511D01*
X9699Y4512D01*
X9694Y4512D01*
X9752Y4571D01*
X9753Y4566D01*
D02*
G37*
G36*
X11541Y4086D02*
X11542Y4082D01*
X11543Y4077D01*
X11545Y4073D01*
X11547Y4068D01*
X11549Y4064D01*
X11552Y4060D01*
X11555Y4055D01*
X11559Y4051D01*
X11563Y4046D01*
X11527Y4011D01*
X11523Y4015D01*
X11519Y4019D01*
X11514Y4022D01*
X11510Y4025D01*
X11505Y4027D01*
X11501Y4029D01*
X11496Y4031D01*
X11492Y4032D01*
X11487Y4032D01*
X11483Y4033D01*
X11541Y4091D01*
X11541Y4086D01*
D02*
G37*
%LPC*%
G36*
X26404Y11389D02*
X26352D01*
X26305Y11369D01*
X26269Y11333D01*
X26249Y11285D01*
Y11234D01*
X26269Y11187D01*
X26305Y11151D01*
X26352Y11131D01*
X26404D01*
X26451Y11151D01*
X26487Y11187D01*
X26507Y11234D01*
Y11285D01*
X26487Y11333D01*
X26451Y11369D01*
X26404Y11389D01*
D02*
G37*
G36*
X2187Y11015D02*
X2144D01*
X2104Y10998D01*
X2073Y10967D01*
X2056Y10927D01*
Y10884D01*
X2073Y10844D01*
X2104Y10813D01*
X2144Y10796D01*
X2187D01*
X2227Y10813D01*
X2258Y10844D01*
X2274Y10884D01*
Y10927D01*
X2258Y10967D01*
X2227Y10998D01*
X2187Y11015D01*
D02*
G37*
G36*
X1400D02*
X1356D01*
X1316Y10998D01*
X1285Y10967D01*
X1269Y10927D01*
Y10884D01*
X1285Y10844D01*
X1316Y10813D01*
X1356Y10796D01*
X1400D01*
X1440Y10813D01*
X1470Y10844D01*
X1487Y10884D01*
Y10927D01*
X1470Y10967D01*
X1440Y10998D01*
X1400Y11015D01*
D02*
G37*
G36*
X612D02*
X569D01*
X529Y10998D01*
X498Y10967D01*
X481Y10927D01*
Y10884D01*
X498Y10844D01*
X529Y10813D01*
X569Y10796D01*
X612D01*
X652Y10813D01*
X683Y10844D01*
X700Y10884D01*
Y10927D01*
X683Y10967D01*
X652Y10998D01*
X612Y11015D01*
D02*
G37*
G36*
X20894Y10654D02*
X20843D01*
X20796Y10635D01*
X20790Y10629D01*
X20784Y10635D01*
X20737Y10654D01*
X20686D01*
X20638Y10635D01*
X20602Y10598D01*
X20582Y10551D01*
Y10500D01*
X20602Y10453D01*
X20608Y10447D01*
X20602Y10441D01*
X20582Y10394D01*
Y10342D01*
X20602Y10295D01*
X20638Y10259D01*
X20686Y10239D01*
X20737D01*
X20784Y10259D01*
X20790Y10265D01*
X20796Y10259D01*
X20843Y10239D01*
X20894D01*
X20942Y10259D01*
X20978Y10295D01*
X20997Y10342D01*
Y10394D01*
X20978Y10441D01*
X20972Y10447D01*
X20978Y10453D01*
X20997Y10500D01*
Y10551D01*
X20978Y10598D01*
X20942Y10635D01*
X20894Y10654D01*
D02*
G37*
G36*
X16326Y10879D02*
X16274D01*
X16227Y10859D01*
X16191Y10823D01*
X16171Y10776D01*
Y10724D01*
X16191Y10677D01*
X16227Y10641D01*
X16274Y10621D01*
X16326D01*
X16373Y10641D01*
X16409Y10677D01*
X16429Y10724D01*
Y10776D01*
X16409Y10823D01*
X16373Y10859D01*
X16326Y10879D01*
D02*
G37*
G36*
X14776D02*
X14724D01*
X14677Y10859D01*
X14641Y10823D01*
X14621Y10776D01*
Y10724D01*
X14641Y10677D01*
X14677Y10641D01*
X14724Y10621D01*
X14776D01*
X14823Y10641D01*
X14859Y10677D01*
X14879Y10724D01*
Y10776D01*
X14859Y10823D01*
X14823Y10859D01*
X14776Y10879D01*
D02*
G37*
G36*
X25892Y10562D02*
X25841D01*
X25793Y10542D01*
X25787Y10536D01*
X25782Y10542D01*
X25734Y10562D01*
X25683D01*
X25636Y10542D01*
X25630Y10536D01*
X25624Y10542D01*
X25577Y10562D01*
X25526D01*
X25478Y10542D01*
X25472Y10536D01*
X25467Y10542D01*
X25419Y10562D01*
X25368D01*
X25321Y10542D01*
X25285Y10506D01*
X25265Y10459D01*
Y10407D01*
X25285Y10360D01*
X25290Y10354D01*
X25285Y10349D01*
X25265Y10301D01*
Y10250D01*
X25285Y10203D01*
X25321Y10166D01*
X25368Y10147D01*
X25419D01*
X25467Y10166D01*
X25472Y10172D01*
X25478Y10166D01*
X25526Y10147D01*
X25577D01*
X25624Y10166D01*
X25630Y10172D01*
X25636Y10166D01*
X25683Y10147D01*
X25734D01*
X25782Y10166D01*
X25787Y10172D01*
X25793Y10166D01*
X25841Y10147D01*
X25892D01*
X25939Y10166D01*
X25975Y10203D01*
X25995Y10250D01*
Y10301D01*
X25975Y10349D01*
X25969Y10354D01*
X25975Y10360D01*
X25995Y10407D01*
Y10459D01*
X25975Y10506D01*
X25939Y10542D01*
X25892Y10562D01*
D02*
G37*
G36*
X20626Y10015D02*
X20574D01*
X20527Y9996D01*
X20491Y9960D01*
X20471Y9912D01*
Y9861D01*
X20491Y9814D01*
X20527Y9777D01*
X20574Y9758D01*
X20626D01*
X20673Y9777D01*
X20709Y9814D01*
X20729Y9861D01*
Y9912D01*
X20709Y9960D01*
X20673Y9996D01*
X20626Y10015D01*
D02*
G37*
G36*
X23293Y9617D02*
X23242D01*
X23195Y9597D01*
X23189Y9592D01*
X23183Y9597D01*
X23136Y9617D01*
X23085D01*
X23037Y9597D01*
X23031Y9592D01*
X23026Y9597D01*
X22978Y9617D01*
X22927D01*
X22880Y9597D01*
X22874Y9592D01*
X22868Y9597D01*
X22821Y9617D01*
X22770D01*
X22722Y9597D01*
X22717Y9592D01*
X22711Y9597D01*
X22663Y9617D01*
X22612D01*
X22565Y9597D01*
X22529Y9561D01*
X22509Y9514D01*
Y9463D01*
X22529Y9415D01*
X22534Y9409D01*
X22529Y9404D01*
X22509Y9356D01*
Y9305D01*
X22529Y9258D01*
X22565Y9222D01*
X22612Y9202D01*
X22663D01*
X22711Y9222D01*
X22717Y9227D01*
X22722Y9222D01*
X22770Y9202D01*
X22821D01*
X22868Y9222D01*
X22874Y9227D01*
X22880Y9222D01*
X22927Y9202D01*
X22978D01*
X23026Y9222D01*
X23031Y9227D01*
X23037Y9222D01*
X23085Y9202D01*
X23136D01*
X23183Y9222D01*
X23189Y9227D01*
X23195Y9222D01*
X23242Y9202D01*
X23293D01*
X23341Y9222D01*
X23377Y9258D01*
X23396Y9305D01*
Y9356D01*
X23377Y9404D01*
X23371Y9409D01*
X23377Y9415D01*
X23396Y9463D01*
Y9514D01*
X23377Y9561D01*
X23341Y9597D01*
X23293Y9617D01*
D02*
G37*
G36*
X19352Y9840D02*
X19301D01*
X19253Y9820D01*
X19217Y9784D01*
X19198Y9737D01*
Y9686D01*
X19217Y9638D01*
X19253Y9602D01*
X19301Y9583D01*
X19352D01*
X19399Y9602D01*
X19436Y9638D01*
X19455Y9686D01*
Y9737D01*
X19436Y9784D01*
X19399Y9820D01*
X19352Y9840D01*
D02*
G37*
G36*
X17581Y9794D02*
X17537D01*
X17497Y9778D01*
X17467Y9747D01*
X17450Y9707D01*
Y9663D01*
X17467Y9623D01*
X17497Y9593D01*
X17537Y9576D01*
X17581D01*
X17621Y9593D01*
X17652Y9623D01*
X17668Y9663D01*
Y9707D01*
X17652Y9747D01*
X17621Y9778D01*
X17581Y9794D01*
D02*
G37*
G36*
X19356Y9492D02*
X19304D01*
X19257Y9473D01*
X19221Y9437D01*
X19201Y9389D01*
Y9338D01*
X19221Y9291D01*
X19257Y9255D01*
X19304Y9235D01*
X19356D01*
X19403Y9255D01*
X19439Y9291D01*
X19459Y9338D01*
Y9389D01*
X19439Y9437D01*
X19403Y9473D01*
X19356Y9492D01*
D02*
G37*
G36*
X8053Y9420D02*
X8010D01*
X7970Y9403D01*
X7939Y9373D01*
X7922Y9333D01*
Y9289D01*
X7939Y9249D01*
X7970Y9219D01*
X8010Y9202D01*
X8053D01*
X8093Y9219D01*
X8124Y9249D01*
X8141Y9289D01*
Y9333D01*
X8124Y9373D01*
X8093Y9403D01*
X8053Y9420D01*
D02*
G37*
G36*
X7285D02*
X7242D01*
X7202Y9403D01*
X7171Y9373D01*
X7155Y9333D01*
Y9289D01*
X7171Y9249D01*
X7202Y9219D01*
X7242Y9202D01*
X7285D01*
X7326Y9219D01*
X7356Y9249D01*
X7373Y9289D01*
Y9333D01*
X7356Y9373D01*
X7326Y9403D01*
X7285Y9420D01*
D02*
G37*
G36*
X14057Y10119D02*
X11086D01*
X11057Y10113D01*
X11032Y10097D01*
X10579Y9643D01*
X9986D01*
X9957Y9638D01*
X9932Y9621D01*
X9543Y9232D01*
X9527Y9207D01*
X9521Y9178D01*
Y9070D01*
X9471Y9036D01*
X9467Y9038D01*
X9424D01*
X9384Y9021D01*
X9353Y8990D01*
X9336Y8950D01*
X9333Y8908D01*
X9289Y8908D01*
X9249Y8892D01*
X9219Y8861D01*
X9202Y8821D01*
Y8778D01*
X9219Y8737D01*
X9249Y8707D01*
X9270Y8698D01*
Y8644D01*
X9249Y8636D01*
X9219Y8605D01*
X9210Y8585D01*
X9156D01*
X9148Y8605D01*
X9117Y8636D01*
X9077Y8652D01*
X9033D01*
X8993Y8636D01*
X8963Y8605D01*
X8946Y8565D01*
Y8522D01*
X8963Y8482D01*
X8993Y8451D01*
X9014Y8442D01*
Y8388D01*
X8993Y8380D01*
X8963Y8349D01*
X8954Y8329D01*
X8900D01*
X8892Y8349D01*
X8861Y8380D01*
X8821Y8396D01*
X8778D01*
X8737Y8380D01*
X8707Y8349D01*
X8698Y8329D01*
X8644D01*
X8636Y8349D01*
X8605Y8380D01*
X8585Y8388D01*
Y8442D01*
X8605Y8451D01*
X8636Y8482D01*
X8652Y8522D01*
Y8565D01*
X8636Y8605D01*
X8605Y8636D01*
X8565Y8652D01*
X8522D01*
X8482Y8636D01*
X8451Y8605D01*
X8434Y8565D01*
Y8522D01*
X8451Y8482D01*
X8482Y8451D01*
X8502Y8442D01*
Y8388D01*
X8482Y8380D01*
X8451Y8349D01*
X8434Y8309D01*
Y8266D01*
X8451Y8226D01*
X8482Y8195D01*
X8522Y8178D01*
X8565D01*
X8605Y8195D01*
X8636Y8226D01*
X8644Y8246D01*
X8698D01*
X8707Y8226D01*
X8737Y8195D01*
X8778Y8178D01*
X8821D01*
X8861Y8195D01*
X8892Y8226D01*
X8900Y8246D01*
X8954D01*
X8963Y8226D01*
X8993Y8195D01*
X9033Y8178D01*
X9077D01*
X9117Y8195D01*
X9148Y8226D01*
X9164Y8266D01*
Y8309D01*
X9148Y8349D01*
X9117Y8380D01*
X9097Y8388D01*
Y8442D01*
X9117Y8451D01*
X9148Y8482D01*
X9156Y8502D01*
X9210D01*
X9219Y8482D01*
X9249Y8451D01*
X9289Y8434D01*
X9333D01*
X9373Y8451D01*
X9403Y8482D01*
X9420Y8522D01*
Y8565D01*
X9403Y8605D01*
X9373Y8636D01*
X9352Y8644D01*
Y8698D01*
X9373Y8707D01*
X9403Y8737D01*
X9420Y8778D01*
X9424Y8820D01*
X9467Y8820D01*
X9473Y8822D01*
X9527Y8806D01*
X9543Y8781D01*
X9717Y8607D01*
X9742Y8591D01*
X9771Y8585D01*
X9815D01*
X9823Y8570D01*
X9831Y8535D01*
X9808Y8512D01*
X9791Y8472D01*
Y8428D01*
X9808Y8388D01*
X9838Y8358D01*
X9878Y8341D01*
X9922D01*
X9957Y8356D01*
X9968Y8355D01*
X10011Y8336D01*
X10012Y8335D01*
X10028Y8311D01*
X10053Y8286D01*
X10019Y8250D01*
X9979Y8267D01*
X9935D01*
X9895Y8250D01*
X9865Y8219D01*
X9848Y8179D01*
Y8165D01*
X9845Y8141D01*
X9801D01*
X9761Y8124D01*
X9730Y8093D01*
X9714Y8053D01*
Y8010D01*
X9730Y7970D01*
X9761Y7939D01*
X9801Y7922D01*
X9845D01*
X9885Y7939D01*
X9915Y7970D01*
X9932Y8010D01*
Y8024D01*
X9935Y8049D01*
X9979D01*
X10019Y8065D01*
X10027Y8073D01*
X10035Y8076D01*
X10035Y8076D01*
X10035Y8076D01*
X10036Y8077D01*
X10037Y8077D01*
X10038Y8078D01*
X10039Y8078D01*
X10041Y8078D01*
X10043Y8078D01*
X10047Y8078D01*
X10053Y8081D01*
X10060D01*
X10110Y8031D01*
Y7964D01*
X10116Y7934D01*
X10132Y7910D01*
X10374Y7668D01*
X10374Y7668D01*
X10374Y7668D01*
X10571Y7471D01*
X10571Y7471D01*
X11018Y7024D01*
Y6520D01*
X11024Y6491D01*
X11040Y6466D01*
X11316Y6190D01*
X11316Y6190D01*
X11341Y6174D01*
X11370Y6168D01*
X11370Y6168D01*
X12458D01*
X13780Y4846D01*
X13805Y4829D01*
X13834Y4824D01*
X14832D01*
X14922Y4733D01*
X14947Y4717D01*
X14977Y4711D01*
X15299D01*
X15303Y4712D01*
X15341Y4672D01*
Y4628D01*
X15358Y4588D01*
X15333Y4542D01*
X15332Y4541D01*
X15301Y4511D01*
X15285Y4470D01*
Y4427D01*
X15301Y4387D01*
X15332Y4356D01*
X15372Y4340D01*
X15415D01*
X15442Y4322D01*
Y4309D01*
X15459Y4269D01*
X15489Y4238D01*
X15529Y4222D01*
X15573D01*
X15613Y4238D01*
X15644Y4269D01*
X15660Y4309D01*
Y4352D01*
X15644Y4392D01*
X15613Y4423D01*
X15573Y4440D01*
X15529D01*
X15503Y4458D01*
Y4470D01*
X15486Y4511D01*
X15510Y4557D01*
X15512Y4558D01*
X15542Y4588D01*
X15559Y4628D01*
Y4672D01*
X15542Y4712D01*
X15512Y4742D01*
X15472Y4759D01*
X15450D01*
X15429Y4809D01*
X15635Y5015D01*
X16817D01*
X16846Y5021D01*
X16871Y5038D01*
X17707Y5874D01*
X19262D01*
X19292Y5879D01*
X19317Y5896D01*
X19602Y6181D01*
X19602Y6181D01*
X19618Y6206D01*
X19624Y6235D01*
Y6422D01*
X19627Y6428D01*
X19627Y6432D01*
X19627Y6439D01*
X19628Y6441D01*
X19628Y6443D01*
X19629Y6445D01*
X19629Y6446D01*
X19629Y6447D01*
X19630Y6448D01*
X19631Y6450D01*
X19632Y6460D01*
X19644Y6488D01*
Y6531D01*
X19627Y6571D01*
X19596Y6602D01*
X19556Y6618D01*
X19513D01*
X19473Y6602D01*
X19442Y6571D01*
X19425Y6531D01*
Y6488D01*
X19430Y6476D01*
X19409Y6434D01*
X19375Y6466D01*
Y6476D01*
X19359Y6516D01*
X19328Y6546D01*
X19288Y6563D01*
X19252D01*
X19252Y6563D01*
X19251Y6564D01*
X19250Y6564D01*
X19249Y6565D01*
X19246Y6568D01*
X19240Y6570D01*
X19237Y6575D01*
X19235Y6575D01*
X19220Y6590D01*
X19195Y6607D01*
X19166Y6613D01*
X18879D01*
X18846Y6663D01*
X18849Y6670D01*
Y6714D01*
X18833Y6754D01*
X18802Y6785D01*
X18762Y6801D01*
X18718D01*
X18678Y6785D01*
X18648Y6754D01*
X18631Y6714D01*
Y6689D01*
X18630Y6684D01*
X18629Y6684D01*
X18629Y6684D01*
X18629Y6683D01*
X18629Y6682D01*
X18628Y6682D01*
X18628Y6682D01*
X18628Y6681D01*
X18627Y6679D01*
X18624Y6676D01*
X18622Y6673D01*
X18620Y6671D01*
X18619Y6670D01*
X18587Y6647D01*
X18541Y6668D01*
Y6748D01*
X18535Y6778D01*
X18519Y6802D01*
X18200Y7121D01*
X18220Y7171D01*
X18310D01*
X18343Y7138D01*
X18346Y7132D01*
X18349Y7129D01*
X18350Y7127D01*
X18351Y7126D01*
X18352Y7124D01*
X18352Y7124D01*
X18352Y7123D01*
X18353Y7122D01*
X18353Y7122D01*
X18353Y7122D01*
X18356Y7114D01*
Y7102D01*
X18373Y7062D01*
X18404Y7032D01*
X18444Y7015D01*
X18445D01*
X18490Y6994D01*
X18507Y6954D01*
X18538Y6923D01*
X18578Y6906D01*
X18621D01*
X18661Y6923D01*
X18692Y6954D01*
X18709Y6994D01*
Y7037D01*
X18692Y7077D01*
X18684Y7085D01*
X18681Y7094D01*
X18681Y7094D01*
X18681Y7094D01*
X18681Y7094D01*
X18680Y7095D01*
X18679Y7096D01*
X18679Y7097D01*
X18679Y7099D01*
X18679Y7101D01*
X18679Y7106D01*
X18676Y7112D01*
Y7180D01*
X18676Y7180D01*
X18670Y7209D01*
X18654Y7234D01*
X17660Y8227D01*
X17660Y8240D01*
X17675Y8283D01*
X17700Y8293D01*
X17730Y8324D01*
X17747Y8364D01*
Y8408D01*
X17730Y8448D01*
X17700Y8478D01*
Y8530D01*
X17730Y8560D01*
X17747Y8600D01*
Y8644D01*
X17730Y8684D01*
X17700Y8715D01*
X17659Y8731D01*
X17616D01*
X17576Y8715D01*
X17545Y8684D01*
X17529Y8644D01*
Y8600D01*
X17545Y8560D01*
X17576Y8530D01*
Y8478D01*
X17545Y8448D01*
X17537Y8428D01*
X17489Y8413D01*
X17455Y8436D01*
Y9150D01*
X17449Y9179D01*
X17432Y9204D01*
X17432Y9204D01*
X17189Y9448D01*
X17164Y9464D01*
X17135Y9470D01*
X16905D01*
X16881Y9506D01*
Y9549D01*
X16864Y9589D01*
X16833Y9620D01*
X16793Y9637D01*
X16750D01*
X16710Y9620D01*
X16679Y9589D01*
X16663Y9549D01*
Y9506D01*
X16644Y9479D01*
X16614D01*
X16575Y9521D01*
Y9549D01*
X16558Y9589D01*
X16528Y9620D01*
X16488Y9637D01*
X16444D01*
X16404Y9620D01*
X16374Y9589D01*
X16357Y9549D01*
Y9506D01*
X16336Y9475D01*
X16286Y9472D01*
X16042Y9716D01*
X16018Y9732D01*
X15988Y9738D01*
X15950D01*
X15929Y9788D01*
X15929Y9788D01*
X15946Y9828D01*
Y9872D01*
X15929Y9912D01*
X15899Y9943D01*
X15858Y9959D01*
X15815D01*
X15775Y9943D01*
X15744Y9912D01*
X15728Y9872D01*
Y9828D01*
X15744Y9788D01*
X15745Y9788D01*
X15724Y9738D01*
X15712D01*
X15682Y9732D01*
X15658Y9716D01*
X15412Y9470D01*
X14738D01*
X14112Y10097D01*
X14087Y10113D01*
X14057Y10119D01*
D02*
G37*
G36*
X18841Y9204D02*
X18797D01*
X18757Y9187D01*
X18726Y9156D01*
X18710Y9116D01*
Y9073D01*
X18726Y9033D01*
X18757Y9002D01*
X18797Y8985D01*
X18841D01*
X18881Y9002D01*
X18911Y9033D01*
X18928Y9073D01*
Y9116D01*
X18911Y9156D01*
X18881Y9187D01*
X18841Y9204D01*
D02*
G37*
G36*
X18053D02*
X18010D01*
X17970Y9187D01*
X17939Y9156D01*
X17922Y9116D01*
Y9073D01*
X17939Y9033D01*
X17970Y9002D01*
X18010Y8985D01*
X18053D01*
X18093Y9002D01*
X18124Y9033D01*
X18141Y9073D01*
Y9116D01*
X18124Y9156D01*
X18093Y9187D01*
X18053Y9204D01*
D02*
G37*
G36*
X17659D02*
X17616D01*
X17576Y9187D01*
X17545Y9156D01*
X17529Y9116D01*
Y9073D01*
X17545Y9033D01*
X17576Y9002D01*
X17616Y8985D01*
X17659D01*
X17700Y9002D01*
X17730Y9033D01*
X17747Y9073D01*
Y9116D01*
X17730Y9156D01*
X17700Y9187D01*
X17659Y9204D01*
D02*
G37*
G36*
X19234D02*
X19191D01*
X19151Y9187D01*
X19120Y9156D01*
X19104Y9116D01*
Y9073D01*
X19120Y9033D01*
X19151Y9002D01*
Y8951D01*
X19120Y8920D01*
X19104Y8880D01*
Y8837D01*
X19120Y8796D01*
X19151Y8766D01*
X19191Y8749D01*
X19234D01*
X19274Y8766D01*
X19305Y8796D01*
X19322Y8837D01*
Y8880D01*
X19305Y8920D01*
X19274Y8951D01*
Y9002D01*
X19305Y9033D01*
X19322Y9073D01*
Y9116D01*
X19305Y9156D01*
X19274Y9187D01*
X19234Y9204D01*
D02*
G37*
G36*
X18447D02*
X18404D01*
X18363Y9187D01*
X18333Y9156D01*
X18316Y9116D01*
Y9073D01*
X18333Y9033D01*
X18363Y9002D01*
Y8951D01*
X18333Y8920D01*
X18316Y8880D01*
Y8837D01*
X18333Y8796D01*
X18363Y8766D01*
X18404Y8749D01*
X18447D01*
X18487Y8766D01*
X18518Y8796D01*
X18534Y8837D01*
Y8880D01*
X18518Y8920D01*
X18487Y8951D01*
Y9002D01*
X18518Y9033D01*
X18534Y9073D01*
Y9116D01*
X18518Y9156D01*
X18487Y9187D01*
X18447Y9204D01*
D02*
G37*
G36*
X7797Y9164D02*
X7754D01*
X7714Y9148D01*
X7683Y9117D01*
X7667Y9077D01*
Y9033D01*
X7683Y8993D01*
X7714Y8963D01*
X7734Y8954D01*
Y8900D01*
X7714Y8892D01*
X7683Y8861D01*
X7667Y8821D01*
X7626Y8777D01*
X7620Y8775D01*
X7586Y8761D01*
X7556Y8730D01*
X7539Y8690D01*
Y8646D01*
X7556Y8606D01*
X7586Y8576D01*
X7626Y8559D01*
X7670D01*
X7710Y8576D01*
X7740Y8606D01*
X7755Y8641D01*
X7757Y8646D01*
X7797Y8690D01*
X7803Y8693D01*
X7803D01*
X7811Y8696D01*
X7837Y8707D01*
X7868Y8737D01*
X7876Y8758D01*
X7931D01*
X7939Y8737D01*
X7970Y8707D01*
X8010Y8690D01*
X8053D01*
X8093Y8707D01*
X8124Y8737D01*
X8141Y8778D01*
Y8821D01*
X8124Y8861D01*
X8093Y8892D01*
X8053Y8908D01*
X8010D01*
X7970Y8892D01*
X7939Y8861D01*
X7931Y8841D01*
X7876D01*
X7868Y8861D01*
X7837Y8892D01*
X7817Y8900D01*
Y8954D01*
X7837Y8963D01*
X7868Y8993D01*
X7885Y9033D01*
Y9077D01*
X7868Y9117D01*
X7837Y9148D01*
X7797Y9164D01*
D02*
G37*
G36*
X7030D02*
X6986D01*
X6946Y9148D01*
X6915Y9117D01*
X6899Y9077D01*
X6895Y9033D01*
X6853Y9031D01*
X6851D01*
X6811Y9015D01*
X6780Y8984D01*
X6764Y8944D01*
Y8901D01*
X6780Y8860D01*
X6811Y8830D01*
X6851Y8813D01*
X6894D01*
X6899Y8810D01*
Y8778D01*
X6915Y8737D01*
X6946Y8707D01*
X6986Y8690D01*
X7030D01*
X7070Y8707D01*
X7100Y8737D01*
X7109Y8758D01*
X7163D01*
X7171Y8737D01*
X7202Y8707D01*
X7242Y8690D01*
X7285D01*
X7326Y8707D01*
X7356Y8737D01*
X7373Y8778D01*
Y8821D01*
X7356Y8861D01*
X7326Y8892D01*
X7285Y8908D01*
X7242D01*
X7202Y8892D01*
X7171Y8861D01*
X7163Y8841D01*
X7109D01*
X7100Y8861D01*
X7070Y8892D01*
X7049Y8900D01*
Y8954D01*
X7070Y8963D01*
X7100Y8993D01*
X7117Y9033D01*
Y9077D01*
X7100Y9117D01*
X7070Y9148D01*
X7030Y9164D01*
D02*
G37*
G36*
X7541Y8396D02*
X7498D01*
X7458Y8380D01*
X7427Y8349D01*
X7419Y8329D01*
X7365D01*
X7356Y8349D01*
X7326Y8380D01*
X7285Y8396D01*
X7242D01*
X7202Y8380D01*
X7171Y8349D01*
X7163Y8329D01*
X7109D01*
X7100Y8349D01*
X7070Y8380D01*
X7030Y8396D01*
X6986D01*
X6946Y8380D01*
X6915Y8349D01*
X6899Y8309D01*
Y8266D01*
X6915Y8226D01*
X6946Y8195D01*
X6986Y8178D01*
X7030D01*
X7070Y8195D01*
X7100Y8226D01*
X7109Y8246D01*
X7163D01*
X7171Y8226D01*
X7202Y8195D01*
X7242Y8178D01*
X7285D01*
X7326Y8195D01*
X7356Y8226D01*
X7365Y8246D01*
X7419D01*
X7427Y8226D01*
X7458Y8195D01*
X7498Y8178D01*
X7541D01*
X7581Y8195D01*
X7612Y8226D01*
X7629Y8266D01*
Y8309D01*
X7612Y8349D01*
X7581Y8380D01*
X7541Y8396D01*
D02*
G37*
G36*
X21458Y8334D02*
X21403D01*
X21352Y8313D01*
X21352Y8313D01*
X21352Y8313D01*
X21301Y8334D01*
X21245D01*
X21195Y8313D01*
X21156Y8274D01*
X21134Y8223D01*
Y8168D01*
X21156Y8117D01*
X21156Y8117D01*
X21156Y8117D01*
X21134Y8066D01*
Y8011D01*
X21156Y7960D01*
X21195Y7921D01*
X21245Y7900D01*
X21301D01*
X21352Y7921D01*
X21352Y7921D01*
X21352Y7921D01*
X21403Y7900D01*
X21458D01*
X21509Y7921D01*
X21548Y7960D01*
X21569Y8011D01*
Y8066D01*
X21548Y8117D01*
X21548Y8117D01*
X21548Y8117D01*
X21569Y8168D01*
Y8223D01*
X21548Y8274D01*
X21509Y8313D01*
X21458Y8334D01*
D02*
G37*
G36*
X19234Y8495D02*
X19191D01*
X19151Y8478D01*
X19120Y8448D01*
X19104Y8408D01*
Y8364D01*
X19120Y8324D01*
X19151Y8293D01*
X19191Y8277D01*
X19234D01*
X19274Y8293D01*
X19305Y8324D01*
X19322Y8364D01*
Y8408D01*
X19305Y8448D01*
X19274Y8478D01*
X19234Y8495D01*
D02*
G37*
G36*
X18841Y8731D02*
X18797D01*
X18757Y8715D01*
X18726Y8684D01*
X18710Y8644D01*
Y8600D01*
X18726Y8560D01*
X18757Y8530D01*
Y8478D01*
X18726Y8448D01*
X18710Y8408D01*
Y8364D01*
X18726Y8324D01*
X18757Y8293D01*
X18797Y8277D01*
X18841D01*
X18881Y8293D01*
X18911Y8324D01*
X18928Y8364D01*
Y8408D01*
X18911Y8448D01*
X18881Y8478D01*
Y8530D01*
X18911Y8560D01*
X18928Y8600D01*
Y8644D01*
X18911Y8684D01*
X18881Y8715D01*
X18841Y8731D01*
D02*
G37*
G36*
X18447Y8495D02*
X18404D01*
X18363Y8478D01*
X18333Y8448D01*
X18316Y8408D01*
Y8364D01*
X18333Y8324D01*
X18363Y8293D01*
X18404Y8277D01*
X18447D01*
X18487Y8293D01*
X18518Y8324D01*
X18534Y8364D01*
Y8408D01*
X18518Y8448D01*
X18487Y8478D01*
X18447Y8495D01*
D02*
G37*
G36*
X18053Y8731D02*
X18010D01*
X17970Y8715D01*
X17939Y8684D01*
X17922Y8644D01*
Y8600D01*
X17939Y8560D01*
X17970Y8530D01*
Y8478D01*
X17939Y8448D01*
X17922Y8408D01*
Y8364D01*
X17939Y8324D01*
X17970Y8293D01*
X18010Y8277D01*
X18053D01*
X18093Y8293D01*
X18124Y8324D01*
X18141Y8364D01*
Y8408D01*
X18124Y8448D01*
X18093Y8478D01*
Y8530D01*
X18124Y8560D01*
X18141Y8600D01*
Y8644D01*
X18124Y8684D01*
X18093Y8715D01*
X18053Y8731D01*
D02*
G37*
G36*
X5730Y8377D02*
X5687D01*
X5647Y8360D01*
X5616Y8329D01*
X5600Y8289D01*
Y8246D01*
X5616Y8206D01*
X5647Y8175D01*
X5687Y8159D01*
X5730D01*
X5770Y8175D01*
X5801Y8206D01*
X5818Y8246D01*
Y8289D01*
X5801Y8329D01*
X5770Y8360D01*
X5730Y8377D01*
D02*
G37*
G36*
X7812Y8384D02*
X7769D01*
X7729Y8367D01*
X7698Y8337D01*
X7681Y8296D01*
Y8253D01*
X7698Y8213D01*
X7729Y8182D01*
X7769Y8166D01*
X7812D01*
X7837Y8122D01*
X7844Y8105D01*
X7875Y8075D01*
X7915Y8058D01*
X7958D01*
X7998Y8075D01*
X8029Y8105D01*
X8045Y8145D01*
Y8189D01*
X8029Y8229D01*
X7998Y8260D01*
X7958Y8276D01*
X7915D01*
X7890Y8320D01*
X7883Y8337D01*
X7852Y8367D01*
X7812Y8384D01*
D02*
G37*
G36*
X23991Y8025D02*
X23936D01*
X23885Y8004D01*
X23846Y7965D01*
X23830Y7962D01*
X23824Y7968D01*
X23773Y7989D01*
X23718D01*
X23667Y7968D01*
X23628Y7929D01*
X23607Y7878D01*
Y7823D01*
X23628Y7772D01*
X23667Y7733D01*
X23718Y7712D01*
X23752D01*
Y7669D01*
X23773Y7618D01*
X23812Y7579D01*
X23863Y7558D01*
X23919D01*
X23969Y7579D01*
X24008Y7618D01*
X24030Y7669D01*
Y7724D01*
X24015Y7758D01*
X24042Y7769D01*
X24081Y7808D01*
X24102Y7859D01*
Y7914D01*
X24081Y7965D01*
X24042Y8004D01*
X23991Y8025D01*
D02*
G37*
G36*
X19924Y8216D02*
X19880D01*
X19840Y8199D01*
X19810Y8169D01*
X19800Y8146D01*
X19767D01*
X19727Y8130D01*
X19696Y8099D01*
X19680Y8059D01*
Y8016D01*
X19696Y7976D01*
X19727Y7945D01*
X19767Y7928D01*
X19810D01*
X19850Y7945D01*
X19881Y7976D01*
X19890Y7998D01*
X19924D01*
X19964Y8015D01*
X19995Y8045D01*
X20011Y8085D01*
Y8129D01*
X19995Y8169D01*
X19964Y8199D01*
X19924Y8216D01*
D02*
G37*
G36*
X9333Y8141D02*
X9289D01*
X9249Y8124D01*
X9219Y8093D01*
X9202Y8053D01*
Y8010D01*
X9219Y7970D01*
X9249Y7939D01*
X9289Y7922D01*
X9333D01*
X9373Y7939D01*
X9403Y7970D01*
X9420Y8010D01*
Y8053D01*
X9403Y8093D01*
X9373Y8124D01*
X9333Y8141D01*
D02*
G37*
G36*
X8471Y8046D02*
X8428D01*
X8388Y8030D01*
X8357Y7999D01*
X8341Y7959D01*
Y7916D01*
X8357Y7875D01*
X8388Y7845D01*
X8428Y7828D01*
X8471D01*
X8511Y7845D01*
X8542Y7875D01*
X8559Y7916D01*
Y7959D01*
X8542Y7999D01*
X8511Y8030D01*
X8471Y8046D01*
D02*
G37*
G36*
X8821Y7885D02*
X8778D01*
X8737Y7868D01*
X8707Y7837D01*
X8690Y7797D01*
Y7754D01*
X8707Y7714D01*
X8737Y7683D01*
X8778Y7667D01*
X8821D01*
X8861Y7683D01*
X8892Y7714D01*
X8908Y7754D01*
Y7797D01*
X8892Y7837D01*
X8861Y7868D01*
X8821Y7885D01*
D02*
G37*
G36*
X22048Y7641D02*
X21993D01*
X21942Y7620D01*
X21935Y7613D01*
X21928Y7620D01*
X21877Y7641D01*
X21822D01*
X21771Y7620D01*
X21764Y7613D01*
X21757Y7620D01*
X21706Y7641D01*
X21651D01*
X21600Y7620D01*
X21561Y7581D01*
X21540Y7530D01*
Y7475D01*
X21561Y7424D01*
X21600Y7385D01*
X21651Y7364D01*
X21706D01*
X21757Y7385D01*
X21764Y7392D01*
X21771Y7385D01*
X21822Y7364D01*
X21877D01*
X21928Y7385D01*
X21935Y7392D01*
X21942Y7385D01*
X21993Y7364D01*
X22048D01*
X22099Y7385D01*
X22138Y7424D01*
X22159Y7475D01*
Y7530D01*
X22138Y7581D01*
X22099Y7620D01*
X22048Y7641D01*
D02*
G37*
G36*
X7668Y7763D02*
X7625D01*
X7585Y7746D01*
X7554Y7716D01*
X7537Y7675D01*
Y7632D01*
X7554Y7592D01*
X7585Y7561D01*
X7608Y7552D01*
X7604Y7499D01*
X7580Y7489D01*
X7549Y7458D01*
X7544Y7445D01*
X7490D01*
X7486Y7455D01*
X7455Y7486D01*
X7415Y7502D01*
X7372D01*
X7331Y7486D01*
X7301Y7455D01*
X7284Y7415D01*
Y7372D01*
X7301Y7331D01*
X7331Y7301D01*
X7372Y7284D01*
X7411D01*
Y7242D01*
X7427Y7202D01*
X7458Y7171D01*
X7498Y7155D01*
X7541D01*
X7581Y7171D01*
X7612Y7202D01*
X7627Y7238D01*
X7629Y7242D01*
X7629Y7243D01*
X7663Y7287D01*
X7675Y7292D01*
X7675Y7292D01*
X7689Y7298D01*
X7704Y7304D01*
X7734Y7335D01*
X7751Y7375D01*
Y7418D01*
X7734Y7458D01*
X7704Y7489D01*
X7680Y7498D01*
X7684Y7551D01*
X7708Y7561D01*
X7739Y7592D01*
X7755Y7632D01*
Y7675D01*
X7739Y7716D01*
X7708Y7746D01*
X7668Y7763D01*
D02*
G37*
G36*
X9333Y7629D02*
X9289D01*
X9249Y7612D01*
X9219Y7581D01*
X9202Y7541D01*
Y7498D01*
X9219Y7458D01*
X9249Y7427D01*
X9289Y7411D01*
X9333D01*
X9373Y7427D01*
X9403Y7458D01*
X9420Y7498D01*
Y7541D01*
X9403Y7581D01*
X9373Y7612D01*
X9333Y7629D01*
D02*
G37*
G36*
X8565D02*
X8522D01*
X8482Y7612D01*
X8451Y7581D01*
X8434Y7541D01*
Y7498D01*
X8451Y7458D01*
X8482Y7427D01*
X8522Y7411D01*
X8565D01*
X8605Y7427D01*
X8636Y7458D01*
X8652Y7498D01*
Y7541D01*
X8636Y7581D01*
X8605Y7612D01*
X8565Y7629D01*
D02*
G37*
G36*
X24671Y7767D02*
X24620D01*
X24573Y7747D01*
X24537Y7711D01*
X24517Y7663D01*
Y7612D01*
X24537Y7565D01*
X24573Y7529D01*
X24620Y7509D01*
X24671D01*
X24719Y7529D01*
X24739Y7549D01*
X24776Y7528D01*
X24783Y7522D01*
Y7469D01*
X24804Y7419D01*
X24843Y7380D01*
X24894Y7358D01*
X24900Y7308D01*
X24897Y7301D01*
Y7286D01*
X24896Y7285D01*
X24847Y7261D01*
X24823Y7277D01*
X24773Y7287D01*
X24535D01*
X24485Y7277D01*
X24442Y7249D01*
X24325Y7131D01*
X24296Y7089D01*
X24286Y7039D01*
Y6965D01*
X24279Y6948D01*
Y6893D01*
X24300Y6842D01*
X24339Y6803D01*
X24390Y6782D01*
X24445D01*
X24496Y6803D01*
X24541Y6801D01*
X24542Y6801D01*
X24556Y6787D01*
X24557Y6781D01*
X24547Y6771D01*
X24526Y6720D01*
Y6665D01*
X24547Y6614D01*
X24586Y6575D01*
X24637Y6554D01*
X24692D01*
X24743Y6575D01*
X24782Y6614D01*
X24803Y6665D01*
Y6720D01*
X24782Y6771D01*
X24760Y6793D01*
X24762Y6802D01*
X24801Y6841D01*
X24810Y6863D01*
X24868Y6875D01*
X25013Y6730D01*
Y6536D01*
X25023Y6486D01*
X25052Y6444D01*
X25206Y6289D01*
X25249Y6260D01*
X25299Y6250D01*
X25445D01*
X25460Y6232D01*
X25482Y6189D01*
X25446Y6153D01*
X25427Y6105D01*
Y6054D01*
X25442Y6016D01*
X25439Y6015D01*
X25403Y5978D01*
X25383Y5931D01*
Y5880D01*
X25388Y5869D01*
X25360Y5857D01*
X25324Y5821D01*
X25304Y5774D01*
Y5722D01*
X25324Y5675D01*
X25360Y5639D01*
X25407Y5619D01*
X25459D01*
X25506Y5639D01*
X25542Y5675D01*
X25562Y5722D01*
Y5774D01*
X25557Y5785D01*
X25585Y5796D01*
X25621Y5833D01*
X25641Y5880D01*
Y5931D01*
X25625Y5969D01*
X25628Y5971D01*
X25665Y6007D01*
X25665Y6008D01*
X25724Y6019D01*
X25814Y5930D01*
Y4703D01*
X25824Y4653D01*
X25852Y4610D01*
X25883Y4580D01*
X25863Y4533D01*
X25511D01*
X25491Y4583D01*
X25507Y4600D01*
X25529Y4651D01*
Y4706D01*
X25507Y4757D01*
X25486Y4778D01*
X25493Y4835D01*
X25494Y4836D01*
X25512Y4843D01*
X25551Y4882D01*
X25572Y4933D01*
Y4988D01*
X25551Y5039D01*
X25512Y5078D01*
X25510Y5079D01*
X25491Y5131D01*
X25493Y5136D01*
X25512Y5182D01*
Y5237D01*
X25491Y5288D01*
X25452Y5327D01*
X25401Y5348D01*
X25346D01*
X25295Y5327D01*
X25256Y5288D01*
X25235Y5237D01*
Y5182D01*
X25256Y5131D01*
X25295Y5092D01*
X25297Y5091D01*
X25316Y5039D01*
X25314Y5034D01*
X25294Y4988D01*
Y4933D01*
X25316Y4882D01*
X25337Y4861D01*
X25337Y4859D01*
X25317Y4810D01*
X25151D01*
X25101Y4800D01*
X25058Y4771D01*
X24834Y4547D01*
X24814Y4551D01*
X24780Y4564D01*
X24763Y4606D01*
X24724Y4645D01*
X24673Y4666D01*
X24618D01*
X24567Y4645D01*
X24528Y4606D01*
X24507Y4555D01*
Y4500D01*
X24528Y4449D01*
X24567Y4410D01*
X24609Y4393D01*
X24623Y4360D01*
X24626Y4339D01*
X24513Y4226D01*
X24388D01*
X24337Y4216D01*
X24295Y4187D01*
X24096Y3988D01*
X24067Y3946D01*
X24067Y3944D01*
X24010Y3914D01*
X23999Y3918D01*
X23944D01*
X23893Y3897D01*
X23893Y3897D01*
X23855Y3881D01*
X23816Y3920D01*
X23765Y3941D01*
X23710D01*
X23659Y3920D01*
X23620Y3881D01*
X23599Y3830D01*
Y3775D01*
X23620Y3724D01*
X23659Y3685D01*
X23710Y3664D01*
X23765D01*
X23816Y3685D01*
X23816Y3685D01*
X23854Y3701D01*
X23893Y3662D01*
X23944Y3641D01*
X23997D01*
X24002Y3636D01*
X24024Y3598D01*
X22692Y2265D01*
X22663Y2223D01*
X22653Y2173D01*
Y1737D01*
X22577Y1660D01*
X22559Y1653D01*
X22520Y1614D01*
X22499Y1563D01*
Y1508D01*
X22506Y1493D01*
Y1385D01*
X22498Y1367D01*
Y1312D01*
X22519Y1261D01*
X22558Y1222D01*
X22609Y1201D01*
X22664D01*
X22715Y1222D01*
X22754Y1261D01*
X22775Y1312D01*
Y1367D01*
X22768Y1385D01*
Y1480D01*
X22804Y1516D01*
X22824Y1512D01*
X22857Y1499D01*
X22861Y1490D01*
Y1384D01*
X22854Y1366D01*
Y1311D01*
X22875Y1260D01*
X22914Y1221D01*
X22965Y1200D01*
X23020D01*
X23071Y1221D01*
X23110Y1260D01*
X23131Y1311D01*
Y1366D01*
X23137Y1382D01*
X23148Y1387D01*
X23195Y1390D01*
X23221Y1363D01*
X23272Y1342D01*
X23327D01*
X23378Y1363D01*
X23417Y1402D01*
X23438Y1453D01*
Y1508D01*
X23417Y1559D01*
X23378Y1598D01*
X23327Y1619D01*
X23272D01*
X23221Y1598D01*
X23182Y1559D01*
X23181Y1555D01*
X23134Y1562D01*
X23130Y1564D01*
X23123Y1581D01*
Y2032D01*
X24110Y3019D01*
X24597D01*
X24616Y2973D01*
X24022Y2379D01*
X23994Y2336D01*
X23984Y2286D01*
Y1667D01*
X23976Y1649D01*
Y1594D01*
X23984Y1576D01*
Y1505D01*
X23934Y1485D01*
X23931Y1487D01*
X23884Y1507D01*
X23833D01*
X23785Y1487D01*
X23760Y1462D01*
X23734Y1487D01*
X23687Y1507D01*
X23636D01*
X23588Y1487D01*
X23552Y1451D01*
X23533Y1404D01*
Y1352D01*
X23552Y1305D01*
X23588Y1269D01*
X23636Y1249D01*
X23687D01*
X23734Y1269D01*
X23760Y1294D01*
X23785Y1269D01*
X23833Y1249D01*
X23884D01*
X23931Y1269D01*
X23957Y1294D01*
X23981Y1303D01*
X24018Y1297D01*
X24043Y1271D01*
X24094Y1250D01*
X24149D01*
X24200Y1271D01*
X24239Y1310D01*
X24260Y1361D01*
Y1417D01*
X24246Y1450D01*
Y1576D01*
X24254Y1594D01*
Y1649D01*
X24246Y1667D01*
Y2232D01*
X24826Y2811D01*
X25952D01*
X26003Y2821D01*
X26045Y2850D01*
X26521Y3325D01*
X26549Y3368D01*
X26559Y3418D01*
Y4220D01*
X26549Y4270D01*
X26521Y4313D01*
X26076Y4757D01*
Y5984D01*
X26066Y6034D01*
X26038Y6077D01*
X25671Y6443D01*
X25669Y6497D01*
X25708Y6536D01*
X25725Y6526D01*
X25731Y6520D01*
X25782Y6499D01*
X25837D01*
X25888Y6520D01*
X25927Y6559D01*
X25948Y6610D01*
Y6665D01*
X25927Y6716D01*
X25888Y6755D01*
X25837Y6776D01*
X25822D01*
X25780Y6802D01*
X25779Y6822D01*
Y6858D01*
X25758Y6909D01*
X25719Y6948D01*
X25668Y6969D01*
X25613D01*
X25562Y6948D01*
X25523Y6909D01*
X25502Y6858D01*
Y6802D01*
X25509Y6785D01*
X25512Y6732D01*
X25473Y6693D01*
X25452Y6642D01*
Y6587D01*
X25462Y6563D01*
X25431Y6513D01*
X25353D01*
X25276Y6591D01*
Y6785D01*
X25266Y6835D01*
X25237Y6877D01*
X25030Y7084D01*
X25051Y7134D01*
X25063D01*
X25114Y7155D01*
X25153Y7194D01*
X25174Y7245D01*
Y7301D01*
X25153Y7351D01*
X25114Y7390D01*
X25063Y7412D01*
X25057Y7462D01*
X25060Y7469D01*
Y7525D01*
X25039Y7576D01*
X25000Y7614D01*
X24949Y7636D01*
X24894D01*
X24843Y7614D01*
X24820Y7592D01*
X24786Y7607D01*
X24774Y7617D01*
Y7663D01*
X24755Y7711D01*
X24719Y7747D01*
X24671Y7767D01*
D02*
G37*
G36*
X3447Y7274D02*
X3403D01*
X3363Y7258D01*
X3359Y7254D01*
X3327Y7231D01*
X3294Y7254D01*
X3290Y7258D01*
X3250Y7274D01*
X3207D01*
X3167Y7258D01*
X3163Y7254D01*
X3130Y7231D01*
X3097Y7254D01*
X3093Y7258D01*
X3053Y7274D01*
X3010D01*
X2970Y7258D01*
X2966Y7254D01*
X2933Y7231D01*
X2900Y7254D01*
X2896Y7258D01*
X2856Y7274D01*
X2813D01*
X2773Y7258D01*
X2742Y7227D01*
X2726Y7187D01*
Y7144D01*
X2740Y7109D01*
X2733Y7080D01*
X2716Y7055D01*
X2709Y7053D01*
X2704Y7057D01*
X2700Y7061D01*
X2659Y7078D01*
X2616D01*
X2576Y7061D01*
X2545Y7030D01*
X2529Y6990D01*
Y6947D01*
X2545Y6907D01*
X2549Y6903D01*
X2572Y6870D01*
X2549Y6837D01*
X2545Y6833D01*
X2529Y6793D01*
Y6750D01*
X2545Y6710D01*
X2576Y6679D01*
X2616Y6663D01*
X2659D01*
X2700Y6679D01*
X2730Y6710D01*
X2747Y6750D01*
Y6793D01*
X2730Y6833D01*
X2726Y6837D01*
X2711Y6859D01*
X2723Y6871D01*
X2773Y6876D01*
X2813Y6859D01*
X2856D01*
X2896Y6876D01*
X2900Y6880D01*
X2933Y6903D01*
X2966Y6880D01*
X2970Y6876D01*
X3010Y6859D01*
X3053D01*
X3093Y6876D01*
X3097Y6880D01*
X3130Y6903D01*
X3163Y6880D01*
X3167Y6876D01*
X3207Y6859D01*
X3250D01*
X3290Y6876D01*
X3294Y6880D01*
X3327Y6903D01*
X3359Y6880D01*
X3363Y6876D01*
X3403Y6859D01*
X3447D01*
X3487Y6876D01*
X3518Y6907D01*
X3534Y6947D01*
Y6990D01*
X3518Y7030D01*
X3514Y7034D01*
X3491Y7067D01*
X3514Y7100D01*
X3518Y7104D01*
X3534Y7144D01*
Y7187D01*
X3518Y7227D01*
X3487Y7258D01*
X3447Y7274D01*
D02*
G37*
G36*
X7932Y7498D02*
X7888D01*
X7848Y7481D01*
X7817Y7450D01*
X7801Y7410D01*
Y7367D01*
X7817Y7327D01*
X7848Y7296D01*
X7867Y7288D01*
X7865Y7235D01*
X7842Y7226D01*
X7811Y7195D01*
X7795Y7155D01*
Y7111D01*
X7796Y7107D01*
X7754Y7079D01*
X7735Y7098D01*
X7695Y7114D01*
X7652D01*
X7612Y7098D01*
X7581Y7067D01*
X7564Y7027D01*
Y6984D01*
X7581Y6943D01*
X7612Y6913D01*
X7652Y6896D01*
X7695D01*
X7735Y6913D01*
X7766Y6943D01*
X7782Y6984D01*
Y7027D01*
X7781Y7031D01*
X7823Y7059D01*
X7842Y7041D01*
X7882Y7024D01*
X7922D01*
Y7002D01*
X7939Y6962D01*
X7970Y6931D01*
X8010Y6915D01*
X8053D01*
X8093Y6931D01*
X8124Y6962D01*
X8141Y7002D01*
Y7046D01*
X8124Y7086D01*
X8093Y7116D01*
X8053Y7133D01*
X8013D01*
Y7155D01*
X7996Y7195D01*
X7966Y7226D01*
X7947Y7233D01*
X7949Y7287D01*
X7972Y7296D01*
X8002Y7327D01*
X8019Y7367D01*
Y7410D01*
X8002Y7450D01*
X7972Y7481D01*
X7932Y7498D01*
D02*
G37*
G36*
X10488Y7246D02*
X10445D01*
X10405Y7229D01*
X10374Y7199D01*
X10358Y7159D01*
Y7115D01*
X10374Y7075D01*
X10405Y7044D01*
X10445Y7028D01*
X10488D01*
X10529Y7044D01*
X10559Y7075D01*
X10576Y7115D01*
Y7159D01*
X10559Y7199D01*
X10529Y7229D01*
X10488Y7246D01*
D02*
G37*
G36*
X9333Y7117D02*
X9289D01*
X9249Y7100D01*
X9219Y7070D01*
X9202Y7030D01*
Y6986D01*
X9219Y6946D01*
X9249Y6915D01*
X9289Y6899D01*
X9333D01*
X9373Y6915D01*
X9403Y6946D01*
X9420Y6986D01*
Y7030D01*
X9403Y7070D01*
X9373Y7100D01*
X9333Y7117D01*
D02*
G37*
G36*
X8821D02*
X8778D01*
X8737Y7100D01*
X8707Y7070D01*
X8690Y7030D01*
Y6986D01*
X8707Y6946D01*
X8737Y6915D01*
X8778Y6899D01*
X8821D01*
X8861Y6915D01*
X8892Y6946D01*
X8908Y6986D01*
Y7030D01*
X8892Y7070D01*
X8861Y7100D01*
X8821Y7117D01*
D02*
G37*
G36*
X7408Y6735D02*
X7365D01*
X7325Y6719D01*
X7294Y6688D01*
X7288Y6674D01*
X7234D01*
X7229Y6686D01*
X7198Y6717D01*
X7158Y6734D01*
X7115D01*
X7075Y6717D01*
X7044Y6686D01*
X7027Y6646D01*
Y6603D01*
X7044Y6563D01*
X7075Y6532D01*
X7115Y6516D01*
X7158D01*
X7198Y6532D01*
X7229Y6563D01*
X7235Y6577D01*
X7289D01*
X7294Y6564D01*
X7325Y6534D01*
X7365Y6517D01*
X7373D01*
X7376Y6512D01*
X7372Y6465D01*
X7364Y6453D01*
X7324Y6437D01*
X7294Y6406D01*
X7277Y6366D01*
Y6322D01*
X7294Y6282D01*
X7324Y6252D01*
X7364Y6235D01*
X7408D01*
X7448Y6252D01*
X7478Y6282D01*
X7495Y6322D01*
Y6341D01*
X7497Y6367D01*
X7540Y6387D01*
X7541D01*
X7581Y6404D01*
X7612Y6434D01*
X7621Y6455D01*
X7675D01*
X7683Y6434D01*
X7714Y6404D01*
X7754Y6387D01*
X7797D01*
X7837Y6404D01*
X7868Y6434D01*
X7881Y6466D01*
X7885Y6474D01*
X7928Y6512D01*
X7968Y6529D01*
X7999Y6559D01*
X8016Y6600D01*
Y6643D01*
X7999Y6683D01*
X7968Y6714D01*
X7928Y6730D01*
X7885D01*
X7845Y6714D01*
X7814Y6683D01*
X7810Y6673D01*
X7756D01*
X7751Y6687D01*
X7720Y6717D01*
X7680Y6734D01*
X7636D01*
X7596Y6717D01*
X7566Y6687D01*
X7549Y6647D01*
X7547Y6633D01*
X7496Y6636D01*
X7496Y6648D01*
X7479Y6688D01*
X7448Y6719D01*
X7408Y6735D01*
D02*
G37*
G36*
X19164Y6886D02*
X19121D01*
X19081Y6870D01*
X19050Y6839D01*
X19033Y6799D01*
Y6756D01*
X19050Y6715D01*
X19081Y6685D01*
X19121Y6668D01*
X19164D01*
X19204Y6685D01*
X19235Y6715D01*
X19251Y6756D01*
Y6799D01*
X19235Y6839D01*
X19204Y6870D01*
X19164Y6886D01*
D02*
G37*
G36*
X9077Y6861D02*
X9033D01*
X8993Y6844D01*
X8963Y6814D01*
X8946Y6774D01*
Y6730D01*
X8963Y6690D01*
X8993Y6660D01*
X9033Y6643D01*
X9077D01*
X9117Y6660D01*
X9148Y6690D01*
X9164Y6730D01*
Y6774D01*
X9148Y6814D01*
X9117Y6844D01*
X9077Y6861D01*
D02*
G37*
G36*
X8444Y6984D02*
X8400D01*
X8360Y6967D01*
X8330Y6936D01*
X8313Y6896D01*
Y6853D01*
X8330Y6813D01*
X8360Y6782D01*
X8400Y6766D01*
X8434D01*
Y6730D01*
X8451Y6690D01*
X8482Y6660D01*
X8522Y6643D01*
X8565D01*
X8605Y6660D01*
X8636Y6690D01*
X8652Y6730D01*
Y6774D01*
X8636Y6814D01*
X8605Y6844D01*
X8565Y6861D01*
X8531D01*
Y6896D01*
X8515Y6936D01*
X8484Y6967D01*
X8444Y6984D01*
D02*
G37*
G36*
X21424Y6667D02*
X21369D01*
X21318Y6645D01*
X21292Y6620D01*
X21268Y6644D01*
X21217Y6665D01*
X21162D01*
X21111Y6644D01*
X21084Y6616D01*
X21060Y6640D01*
X21009Y6661D01*
X20954D01*
X20903Y6640D01*
X20864Y6601D01*
X20843Y6550D01*
Y6495D01*
X20864Y6444D01*
X20890Y6418D01*
X20873Y6401D01*
X20852Y6350D01*
Y6295D01*
X20873Y6244D01*
X20912Y6205D01*
X20963Y6184D01*
X21018D01*
X21069Y6205D01*
X21097Y6233D01*
X21119Y6211D01*
X21170Y6190D01*
X21225D01*
X21276Y6211D01*
X21301Y6236D01*
X21320Y6216D01*
X21371Y6195D01*
X21426D01*
X21477Y6216D01*
X21516Y6255D01*
X21537Y6306D01*
Y6361D01*
X21516Y6412D01*
X21497Y6432D01*
X21514Y6449D01*
X21535Y6500D01*
Y6556D01*
X21514Y6607D01*
X21475Y6645D01*
X21424Y6667D01*
D02*
G37*
G36*
X4622Y6689D02*
X4578D01*
X4538Y6673D01*
X4508Y6642D01*
X4491Y6602D01*
Y6559D01*
X4508Y6519D01*
X4538Y6488D01*
X4578Y6471D01*
X4622D01*
X4662Y6488D01*
X4693Y6519D01*
X4709Y6559D01*
Y6602D01*
X4693Y6642D01*
X4662Y6673D01*
X4622Y6689D01*
D02*
G37*
G36*
X10612Y6605D02*
X10569D01*
X10529Y6589D01*
X10498Y6558D01*
X10481Y6518D01*
Y6474D01*
X10498Y6434D01*
X10529Y6404D01*
X10569Y6387D01*
X10612D01*
X10652Y6404D01*
X10683Y6434D01*
X10700Y6474D01*
Y6518D01*
X10683Y6558D01*
X10652Y6589D01*
X10612Y6605D01*
D02*
G37*
G36*
X9333D02*
X9289D01*
X9249Y6589D01*
X9219Y6558D01*
X9202Y6518D01*
Y6474D01*
X9219Y6434D01*
X9249Y6404D01*
X9289Y6387D01*
X9333D01*
X9373Y6404D01*
X9403Y6434D01*
X9420Y6474D01*
Y6518D01*
X9403Y6558D01*
X9373Y6589D01*
X9333Y6605D01*
D02*
G37*
G36*
X8821D02*
X8778D01*
X8737Y6589D01*
X8707Y6558D01*
X8690Y6518D01*
Y6474D01*
X8707Y6434D01*
X8737Y6404D01*
X8778Y6387D01*
X8821D01*
X8861Y6404D01*
X8892Y6434D01*
X8908Y6474D01*
Y6518D01*
X8892Y6558D01*
X8861Y6589D01*
X8821Y6605D01*
D02*
G37*
G36*
X3444Y6308D02*
X3400D01*
X3360Y6291D01*
X3360Y6291D01*
X3328Y6262D01*
X3295Y6290D01*
X3255Y6307D01*
X3211D01*
X3171Y6290D01*
X3141Y6259D01*
X3124Y6219D01*
Y6176D01*
X3141Y6136D01*
X3171Y6105D01*
X3211Y6088D01*
X3255D01*
X3295Y6105D01*
X3295Y6106D01*
X3327Y6135D01*
X3360Y6106D01*
X3400Y6090D01*
X3444D01*
X3484Y6106D01*
X3514Y6137D01*
X3531Y6177D01*
Y6220D01*
X3514Y6260D01*
X3484Y6291D01*
X3444Y6308D01*
D02*
G37*
G36*
X5187Y6727D02*
X5143D01*
X5103Y6710D01*
X5073Y6680D01*
X5056Y6640D01*
Y6596D01*
X5073Y6556D01*
X5103Y6525D01*
X5105Y6525D01*
X5109Y6472D01*
X5078Y6441D01*
X5061Y6401D01*
Y6358D01*
X5078Y6318D01*
X5084Y6312D01*
X5102Y6276D01*
X5084Y6246D01*
X5075Y6237D01*
X5059Y6197D01*
Y6154D01*
X5075Y6114D01*
X5106Y6083D01*
X5146Y6066D01*
X5189D01*
X5229Y6083D01*
X5260Y6114D01*
X5277Y6154D01*
Y6197D01*
X5270Y6213D01*
X5296Y6265D01*
X5298Y6267D01*
X5298Y6267D01*
X5302Y6268D01*
X5338Y6254D01*
X5381D01*
X5421Y6270D01*
X5452Y6301D01*
X5469Y6341D01*
Y6384D01*
X5452Y6424D01*
X5421Y6455D01*
X5381Y6472D01*
X5338D01*
X5298Y6455D01*
X5281Y6438D01*
X5263Y6441D01*
X5232Y6472D01*
X5230Y6473D01*
X5227Y6525D01*
X5258Y6556D01*
X5274Y6596D01*
Y6640D01*
X5258Y6680D01*
X5227Y6710D01*
X5187Y6727D01*
D02*
G37*
G36*
X7678Y6230D02*
X7635D01*
X7595Y6214D01*
X7564Y6183D01*
X7548Y6143D01*
Y6099D01*
X7564Y6059D01*
X7595Y6029D01*
X7635Y6012D01*
X7678D01*
X7718Y6029D01*
X7749Y6059D01*
X7766Y6099D01*
Y6143D01*
X7749Y6183D01*
X7718Y6214D01*
X7678Y6230D01*
D02*
G37*
G36*
X8262Y6694D02*
X8218D01*
X8178Y6678D01*
X8148Y6647D01*
X8131Y6607D01*
Y6563D01*
X8148Y6523D01*
X8154Y6516D01*
X8134Y6466D01*
X8129D01*
X8089Y6450D01*
X8058Y6419D01*
X8042Y6379D01*
Y6336D01*
X8058Y6296D01*
X8089Y6265D01*
X8100Y6261D01*
Y6206D01*
X8096Y6205D01*
X8065Y6174D01*
X8049Y6134D01*
Y6091D01*
X8065Y6051D01*
X8096Y6020D01*
X8136Y6003D01*
X8179D01*
X8219Y6020D01*
X8250Y6051D01*
X8267Y6091D01*
Y6131D01*
X8309D01*
X8349Y6148D01*
X8380Y6178D01*
X8396Y6218D01*
Y6262D01*
X8380Y6302D01*
X8349Y6333D01*
X8309Y6349D01*
X8266D01*
X8260Y6353D01*
Y6379D01*
X8243Y6419D01*
X8236Y6426D01*
X8257Y6476D01*
X8262D01*
X8302Y6493D01*
X8332Y6523D01*
X8349Y6563D01*
Y6607D01*
X8332Y6647D01*
X8302Y6678D01*
X8262Y6694D01*
D02*
G37*
G36*
X11017Y6214D02*
X10973D01*
X10933Y6198D01*
X10903Y6167D01*
X10886Y6127D01*
Y6084D01*
X10903Y6044D01*
X10933Y6013D01*
X10973Y5996D01*
X11017D01*
X11057Y6013D01*
X11087Y6044D01*
X11104Y6084D01*
Y6127D01*
X11087Y6167D01*
X11057Y6198D01*
X11017Y6214D01*
D02*
G37*
G36*
X10612Y6093D02*
X10569D01*
X10529Y6077D01*
X10498Y6046D01*
X10481Y6006D01*
Y5963D01*
X10498Y5922D01*
X10529Y5892D01*
X10569Y5875D01*
X10612D01*
X10652Y5892D01*
X10683Y5922D01*
X10700Y5963D01*
Y6006D01*
X10683Y6046D01*
X10652Y6077D01*
X10612Y6093D01*
D02*
G37*
G36*
X10100D02*
X10057D01*
X10017Y6077D01*
X9986Y6046D01*
X9970Y6006D01*
Y5963D01*
X9986Y5922D01*
X10017Y5892D01*
X10057Y5875D01*
X10100D01*
X10141Y5892D01*
X10171Y5922D01*
X10188Y5963D01*
Y6006D01*
X10171Y6046D01*
X10141Y6077D01*
X10100Y6093D01*
D02*
G37*
G36*
X8821D02*
X8778D01*
X8737Y6077D01*
X8707Y6046D01*
X8690Y6006D01*
Y5963D01*
X8707Y5922D01*
X8737Y5892D01*
X8778Y5875D01*
X8821D01*
X8861Y5892D01*
X8892Y5922D01*
X8908Y5963D01*
Y6006D01*
X8892Y6046D01*
X8861Y6077D01*
X8821Y6093D01*
D02*
G37*
G36*
X24713Y6370D02*
X24657D01*
X24607Y6349D01*
X24568Y6310D01*
X24546Y6259D01*
Y6204D01*
X24568Y6153D01*
X24607Y6114D01*
Y6062D01*
X24568Y6023D01*
X24546Y5972D01*
Y5917D01*
X24568Y5866D01*
X24607Y5827D01*
X24657Y5806D01*
X24713D01*
X24764Y5827D01*
X24803Y5866D01*
X24824Y5917D01*
Y5972D01*
X24803Y6023D01*
X24764Y6062D01*
Y6114D01*
X24803Y6153D01*
X24824Y6204D01*
Y6259D01*
X24803Y6310D01*
X24764Y6349D01*
X24713Y6370D01*
D02*
G37*
G36*
X11502Y5955D02*
X11459D01*
X11419Y5938D01*
X11388Y5908D01*
X11372Y5867D01*
Y5824D01*
X11388Y5784D01*
X11419Y5753D01*
X11459Y5737D01*
X11502D01*
X11543Y5753D01*
X11573Y5784D01*
X11590Y5824D01*
Y5867D01*
X11573Y5908D01*
X11543Y5938D01*
X11502Y5955D01*
D02*
G37*
G36*
X4432Y5719D02*
X4389D01*
X4349Y5702D01*
X4318Y5671D01*
X4270Y5685D01*
X4234Y5700D01*
X4191D01*
X4151Y5683D01*
X4120Y5652D01*
X4104Y5612D01*
Y5569D01*
X4120Y5529D01*
X4151Y5498D01*
X4191Y5481D01*
X4234D01*
X4274Y5498D01*
X4305Y5529D01*
X4353Y5515D01*
X4389Y5500D01*
X4432D01*
X4472Y5517D01*
X4503Y5548D01*
X4519Y5588D01*
Y5631D01*
X4503Y5671D01*
X4472Y5702D01*
X4432Y5719D01*
D02*
G37*
G36*
X10356Y5837D02*
X10313D01*
X10273Y5821D01*
X10242Y5790D01*
X10226Y5750D01*
Y5707D01*
X10242Y5667D01*
X10273Y5636D01*
X10313Y5619D01*
X10356D01*
X10396Y5636D01*
X10427Y5667D01*
X10444Y5707D01*
Y5750D01*
X10427Y5790D01*
X10396Y5821D01*
X10356Y5837D01*
D02*
G37*
G36*
X8565D02*
X8522D01*
X8482Y5821D01*
X8451Y5790D01*
X8434Y5750D01*
Y5707D01*
X8451Y5667D01*
X8482Y5636D01*
X8522Y5619D01*
X8565D01*
X8605Y5636D01*
X8636Y5667D01*
X8652Y5707D01*
Y5750D01*
X8636Y5790D01*
X8605Y5821D01*
X8565Y5837D01*
D02*
G37*
G36*
X26848Y5641D02*
X26793D01*
X26742Y5619D01*
X26742Y5619D01*
X26742Y5619D01*
X26691Y5641D01*
X26636D01*
X26585Y5619D01*
X26546Y5580D01*
X26525Y5530D01*
Y5474D01*
X26546Y5423D01*
X26546Y5423D01*
X26546Y5423D01*
X26525Y5372D01*
Y5317D01*
X26546Y5266D01*
X26546Y5266D01*
X26546Y5265D01*
X26525Y5215D01*
Y5159D01*
X26546Y5109D01*
X26585Y5070D01*
X26636Y5048D01*
X26691D01*
X26742Y5070D01*
X26742Y5070D01*
X26742Y5070D01*
X26793Y5048D01*
X26848D01*
X26899Y5070D01*
X26938Y5109D01*
X26959Y5159D01*
Y5215D01*
X26941Y5259D01*
X26945Y5263D01*
X26966Y5314D01*
Y5369D01*
X26945Y5420D01*
X26939Y5426D01*
X26959Y5474D01*
Y5530D01*
X26938Y5580D01*
X26899Y5619D01*
X26848Y5641D01*
D02*
G37*
G36*
X3250Y5700D02*
X3207D01*
X3167Y5683D01*
X3136Y5652D01*
X3119Y5612D01*
Y5569D01*
X3136Y5529D01*
X3167Y5498D01*
X3207Y5481D01*
X3250D01*
X3290Y5498D01*
X3321Y5529D01*
X3337Y5569D01*
Y5612D01*
X3321Y5652D01*
X3290Y5683D01*
X3250Y5700D01*
D02*
G37*
G36*
X20506Y6128D02*
X20451D01*
X20400Y6107D01*
X20361Y6068D01*
X20340Y6017D01*
Y5962D01*
X20361Y5911D01*
X20381Y5891D01*
X20361Y5871D01*
X20340Y5820D01*
Y5765D01*
X20361Y5714D01*
X20381Y5694D01*
X20361Y5674D01*
X20340Y5623D01*
Y5568D01*
X20361Y5517D01*
X20400Y5478D01*
X20451Y5457D01*
X20506D01*
X20557Y5478D01*
X20596Y5517D01*
X20617Y5568D01*
Y5623D01*
X20596Y5674D01*
X20576Y5694D01*
X20596Y5714D01*
X20617Y5765D01*
Y5820D01*
X20596Y5871D01*
X20576Y5891D01*
X20596Y5911D01*
X20617Y5962D01*
Y6017D01*
X20596Y6068D01*
X20557Y6107D01*
X20506Y6128D01*
D02*
G37*
G36*
X17718Y5640D02*
X17674D01*
X17634Y5624D01*
X17604Y5593D01*
X17587Y5553D01*
Y5510D01*
X17604Y5470D01*
X17634Y5439D01*
X17674Y5422D01*
X17718D01*
X17758Y5439D01*
X17789Y5470D01*
X17805Y5510D01*
Y5553D01*
X17789Y5593D01*
X17758Y5624D01*
X17718Y5640D01*
D02*
G37*
G36*
X10100Y5581D02*
X10057D01*
X10017Y5565D01*
X9986Y5534D01*
X9970Y5494D01*
Y5451D01*
X9986Y5411D01*
X10017Y5380D01*
X10057Y5363D01*
X10100D01*
X10141Y5380D01*
X10171Y5411D01*
X10188Y5451D01*
Y5494D01*
X10171Y5534D01*
X10141Y5565D01*
X10100Y5581D01*
D02*
G37*
G36*
X4037Y5503D02*
X3994D01*
X3954Y5486D01*
X3923Y5455D01*
X3907Y5415D01*
Y5372D01*
X3923Y5332D01*
X3954Y5301D01*
X3994Y5285D01*
X4037D01*
X4078Y5301D01*
X4108Y5332D01*
X4125Y5372D01*
Y5415D01*
X4108Y5455D01*
X4078Y5486D01*
X4037Y5503D01*
D02*
G37*
G36*
X2856Y5109D02*
X2813D01*
X2773Y5092D01*
X2742Y5062D01*
X2726Y5022D01*
Y4978D01*
X2742Y4938D01*
X2773Y4908D01*
X2813Y4891D01*
X2856D01*
X2896Y4908D01*
X2900Y4912D01*
X2933Y4934D01*
X2966Y4912D01*
X2970Y4908D01*
X3010Y4891D01*
X3053D01*
X3093Y4908D01*
X3097Y4912D01*
X3130Y4934D01*
X3163Y4912D01*
X3167Y4908D01*
X3207Y4891D01*
X3250D01*
X3290Y4908D01*
X3294Y4912D01*
X3327Y4934D01*
X3359Y4912D01*
X3363Y4908D01*
X3403Y4891D01*
X3447D01*
X3487Y4908D01*
X3518Y4938D01*
X3534Y4978D01*
Y5022D01*
X3518Y5062D01*
X3487Y5092D01*
X3447Y5109D01*
X3403D01*
X3363Y5092D01*
X3359Y5088D01*
X3327Y5066D01*
X3294Y5088D01*
X3290Y5092D01*
X3250Y5109D01*
X3207D01*
X3167Y5092D01*
X3163Y5088D01*
X3130Y5066D01*
X3097Y5088D01*
X3093Y5092D01*
X3053Y5109D01*
X3010D01*
X2970Y5092D01*
X2966Y5088D01*
X2933Y5066D01*
X2900Y5088D01*
X2896Y5092D01*
X2856Y5109D01*
D02*
G37*
G36*
X18841Y4912D02*
X18797D01*
X18757Y4896D01*
X18726Y4865D01*
X18710Y4825D01*
Y4781D01*
X18726Y4741D01*
X18757Y4711D01*
X18797Y4694D01*
X18841D01*
X18881Y4711D01*
X18911Y4741D01*
X18928Y4781D01*
Y4825D01*
X18911Y4865D01*
X18881Y4896D01*
X18841Y4912D01*
D02*
G37*
G36*
X18053D02*
X18010D01*
X17970Y4896D01*
X17939Y4865D01*
X17922Y4825D01*
Y4781D01*
X17939Y4741D01*
X17970Y4711D01*
X18010Y4694D01*
X18053D01*
X18093Y4711D01*
X18124Y4741D01*
X18141Y4781D01*
Y4825D01*
X18124Y4865D01*
X18093Y4896D01*
X18053Y4912D01*
D02*
G37*
G36*
X17659D02*
X17616D01*
X17576Y4896D01*
X17545Y4865D01*
X17529Y4825D01*
Y4781D01*
X17545Y4741D01*
X17576Y4711D01*
X17616Y4694D01*
X17659D01*
X17700Y4711D01*
X17730Y4741D01*
X17747Y4781D01*
Y4825D01*
X17730Y4865D01*
X17700Y4896D01*
X17659Y4912D01*
D02*
G37*
G36*
X3250Y4715D02*
X3207D01*
X3167Y4699D01*
X3136Y4668D01*
X3119Y4628D01*
Y4585D01*
X3136Y4545D01*
X3167Y4514D01*
X3207Y4497D01*
X3250D01*
X3290Y4514D01*
X3321Y4545D01*
X3337Y4585D01*
Y4628D01*
X3321Y4668D01*
X3290Y4699D01*
X3250Y4715D01*
D02*
G37*
G36*
X16833Y4715D02*
X16789D01*
X16749Y4699D01*
X16719Y4668D01*
X16702Y4628D01*
Y4585D01*
X16719Y4545D01*
X16749Y4514D01*
X16789Y4497D01*
X16833D01*
X16873Y4514D01*
X16903Y4545D01*
X16920Y4585D01*
Y4628D01*
X16903Y4668D01*
X16873Y4699D01*
X16833Y4715D01*
D02*
G37*
G36*
X19234Y4912D02*
X19191D01*
X19151Y4896D01*
X19120Y4865D01*
X19104Y4825D01*
Y4781D01*
X19120Y4741D01*
X19151Y4711D01*
Y4659D01*
X19120Y4629D01*
X19104Y4589D01*
Y4545D01*
X19120Y4505D01*
X19151Y4474D01*
X19191Y4458D01*
X19234D01*
X19274Y4474D01*
X19305Y4505D01*
X19322Y4545D01*
Y4589D01*
X19305Y4629D01*
X19274Y4659D01*
Y4711D01*
X19305Y4741D01*
X19322Y4781D01*
Y4825D01*
X19305Y4865D01*
X19274Y4896D01*
X19234Y4912D01*
D02*
G37*
G36*
X18447D02*
X18404D01*
X18363Y4896D01*
X18333Y4865D01*
X18316Y4825D01*
Y4781D01*
X18333Y4741D01*
X18363Y4711D01*
Y4659D01*
X18333Y4629D01*
X18316Y4589D01*
Y4545D01*
X18333Y4505D01*
X18363Y4474D01*
X18404Y4458D01*
X18447D01*
X18487Y4474D01*
X18518Y4505D01*
X18534Y4545D01*
Y4589D01*
X18518Y4629D01*
X18487Y4659D01*
Y4711D01*
X18518Y4741D01*
X18534Y4781D01*
Y4825D01*
X18518Y4865D01*
X18487Y4896D01*
X18447Y4912D01*
D02*
G37*
G36*
X4667Y4322D02*
X4624D01*
X4587Y4306D01*
X4549Y4322D01*
X4506D01*
X4466Y4305D01*
X4435Y4274D01*
X4419Y4234D01*
Y4191D01*
X4434Y4154D01*
X4419Y4116D01*
Y4073D01*
X4435Y4033D01*
X4466Y4002D01*
X4506Y3985D01*
X4549D01*
X4587Y4001D01*
X4624Y3985D01*
X4667D01*
X4707Y4002D01*
X4738Y4033D01*
X4755Y4073D01*
Y4116D01*
X4739Y4154D01*
X4755Y4191D01*
Y4234D01*
X4738Y4274D01*
X4707Y4305D01*
X4667Y4322D01*
D02*
G37*
G36*
X19234Y4204D02*
X19191D01*
X19151Y4187D01*
X19120Y4156D01*
X19104Y4116D01*
Y4073D01*
X19120Y4033D01*
X19151Y4002D01*
X19191Y3985D01*
X19234D01*
X19274Y4002D01*
X19305Y4033D01*
X19322Y4073D01*
Y4116D01*
X19305Y4156D01*
X19274Y4187D01*
X19234Y4204D01*
D02*
G37*
G36*
X18841Y4440D02*
X18797D01*
X18757Y4423D01*
X18726Y4392D01*
X18710Y4352D01*
Y4309D01*
X18726Y4269D01*
X18757Y4238D01*
Y4187D01*
X18726Y4156D01*
X18710Y4116D01*
Y4073D01*
X18726Y4033D01*
X18757Y4002D01*
X18797Y3985D01*
X18841D01*
X18881Y4002D01*
X18911Y4033D01*
X18928Y4073D01*
Y4116D01*
X18911Y4156D01*
X18881Y4187D01*
Y4238D01*
X18911Y4269D01*
X18928Y4309D01*
Y4352D01*
X18911Y4392D01*
X18881Y4423D01*
X18841Y4440D01*
D02*
G37*
G36*
X18447Y4204D02*
X18404D01*
X18363Y4187D01*
X18333Y4156D01*
X18316Y4116D01*
Y4073D01*
X18333Y4033D01*
X18363Y4002D01*
X18404Y3985D01*
X18447D01*
X18487Y4002D01*
X18518Y4033D01*
X18534Y4073D01*
Y4116D01*
X18518Y4156D01*
X18487Y4187D01*
X18447Y4204D01*
D02*
G37*
G36*
X18053Y4440D02*
X18010D01*
X17970Y4423D01*
X17939Y4392D01*
X17922Y4352D01*
Y4309D01*
X17939Y4269D01*
X17970Y4238D01*
Y4187D01*
X17939Y4156D01*
X17922Y4116D01*
Y4073D01*
X17939Y4033D01*
X17970Y4002D01*
X18010Y3985D01*
X18053D01*
X18093Y4002D01*
X18124Y4033D01*
X18141Y4073D01*
Y4116D01*
X18124Y4156D01*
X18093Y4187D01*
Y4238D01*
X18124Y4269D01*
X18141Y4309D01*
Y4352D01*
X18124Y4392D01*
X18093Y4423D01*
X18053Y4440D01*
D02*
G37*
G36*
X17659D02*
X17616D01*
X17576Y4423D01*
X17545Y4392D01*
X17529Y4352D01*
Y4309D01*
X17545Y4269D01*
X17576Y4238D01*
Y4187D01*
X17545Y4156D01*
X17529Y4116D01*
Y4073D01*
X17545Y4033D01*
X17576Y4002D01*
X17616Y3985D01*
X17659D01*
X17700Y4002D01*
X17730Y4033D01*
X17747Y4073D01*
Y4116D01*
X17730Y4156D01*
X17700Y4187D01*
Y4238D01*
X17730Y4269D01*
X17747Y4309D01*
Y4352D01*
X17730Y4392D01*
X17700Y4423D01*
X17659Y4440D01*
D02*
G37*
G36*
X17266Y4912D02*
X17222D01*
X17182Y4896D01*
X17152Y4865D01*
X17135Y4825D01*
Y4781D01*
X17152Y4741D01*
X17182Y4711D01*
Y4659D01*
X17152Y4629D01*
X17135Y4589D01*
Y4545D01*
X17152Y4505D01*
X17182Y4474D01*
Y4423D01*
X17152Y4392D01*
X17135Y4352D01*
Y4309D01*
X17152Y4269D01*
X17182Y4238D01*
Y4187D01*
X17152Y4156D01*
X17135Y4116D01*
Y4073D01*
X17152Y4033D01*
X17182Y4002D01*
X17222Y3985D01*
X17266D01*
X17306Y4002D01*
X17337Y4033D01*
X17353Y4073D01*
Y4116D01*
X17337Y4156D01*
X17306Y4187D01*
Y4238D01*
X17337Y4269D01*
X17353Y4309D01*
Y4352D01*
X17337Y4392D01*
X17306Y4423D01*
Y4474D01*
X17337Y4505D01*
X17353Y4545D01*
Y4589D01*
X17337Y4629D01*
X17306Y4659D01*
Y4711D01*
X17337Y4741D01*
X17353Y4781D01*
Y4825D01*
X17337Y4865D01*
X17306Y4896D01*
X17266Y4912D01*
D02*
G37*
G36*
X19514Y4177D02*
X19471D01*
X19431Y4160D01*
X19400Y4129D01*
X19384Y4089D01*
Y4046D01*
X19400Y4006D01*
X19431Y3975D01*
X19471Y3959D01*
X19514D01*
X19554Y3975D01*
X19585Y4006D01*
X19602Y4046D01*
Y4089D01*
X19585Y4129D01*
X19554Y4160D01*
X19514Y4177D01*
D02*
G37*
G36*
X16833Y4322D02*
X16789D01*
X16749Y4305D01*
X16719Y4274D01*
X16702Y4234D01*
Y4191D01*
X16719Y4151D01*
X16723Y4147D01*
X16745Y4114D01*
X16723Y4081D01*
X16719Y4078D01*
X16702Y4037D01*
Y3994D01*
X16719Y3954D01*
X16749Y3923D01*
X16789Y3907D01*
X16833D01*
X16873Y3923D01*
X16903Y3954D01*
X16920Y3994D01*
Y4037D01*
X16903Y4078D01*
X16899Y4081D01*
X16877Y4114D01*
X16899Y4147D01*
X16903Y4151D01*
X16920Y4191D01*
Y4234D01*
X16903Y4274D01*
X16873Y4305D01*
X16833Y4322D01*
D02*
G37*
G36*
X16360Y4518D02*
X16317D01*
X16277Y4502D01*
X16246Y4471D01*
X16230Y4431D01*
Y4388D01*
X16246Y4348D01*
X16250Y4344D01*
X16273Y4311D01*
X16250Y4278D01*
X16246Y4274D01*
X16230Y4234D01*
Y4191D01*
X16246Y4151D01*
X16250Y4147D01*
X16273Y4114D01*
X16250Y4081D01*
X16246Y4078D01*
X16230Y4037D01*
Y3994D01*
X16246Y3954D01*
X16277Y3923D01*
X16317Y3907D01*
X16360D01*
X16400Y3923D01*
X16431Y3954D01*
X16448Y3994D01*
Y4037D01*
X16431Y4078D01*
X16427Y4081D01*
X16404Y4114D01*
X16427Y4147D01*
X16431Y4151D01*
X16448Y4191D01*
Y4234D01*
X16431Y4274D01*
X16427Y4278D01*
X16404Y4311D01*
X16427Y4344D01*
X16431Y4348D01*
X16448Y4388D01*
Y4431D01*
X16431Y4471D01*
X16400Y4502D01*
X16360Y4518D01*
D02*
G37*
G36*
X21179Y4521D02*
X21124D01*
X21073Y4500D01*
X21034Y4461D01*
X21013Y4410D01*
Y4355D01*
X21034Y4304D01*
X21073Y4265D01*
X21124Y4244D01*
X21179D01*
X21230Y4265D01*
X21249Y4284D01*
X21288Y4294D01*
X21313Y4282D01*
X21337Y4258D01*
X21388Y4237D01*
X21443D01*
X21494Y4258D01*
X21533Y4297D01*
X21573Y4272D01*
X21560Y4240D01*
Y4184D01*
X21581Y4133D01*
X21620Y4094D01*
X21671Y4073D01*
X21726D01*
X21726Y4073D01*
X21764Y4035D01*
X21751Y4004D01*
Y3949D01*
X21772Y3900D01*
X21772Y3898D01*
X21767Y3870D01*
X21753Y3846D01*
X21745Y3845D01*
X21739Y3851D01*
X21732Y3858D01*
X21681Y3879D01*
X21626D01*
X21575Y3858D01*
X21536Y3819D01*
X21515Y3768D01*
Y3713D01*
X21536Y3662D01*
X21543Y3655D01*
X21574Y3622D01*
X21543Y3589D01*
X21536Y3582D01*
X21515Y3532D01*
Y3476D01*
X21536Y3425D01*
X21575Y3386D01*
X21626Y3365D01*
X21681D01*
X21732Y3386D01*
X21739Y3393D01*
X21772Y3425D01*
X21804Y3393D01*
X21811Y3386D01*
X21862Y3365D01*
X21917D01*
X21968Y3386D01*
X21975Y3393D01*
X22008Y3425D01*
X22041Y3393D01*
X22047Y3386D01*
X22098Y3365D01*
X22154D01*
X22204Y3386D01*
X22211Y3393D01*
X22244Y3425D01*
X22277Y3393D01*
X22284Y3386D01*
X22335Y3365D01*
X22390D01*
X22441Y3386D01*
X22480Y3425D01*
X22501Y3476D01*
Y3532D01*
X22480Y3582D01*
X22473Y3589D01*
X22441Y3622D01*
X22473Y3655D01*
X22480Y3662D01*
X22501Y3713D01*
Y3768D01*
X22480Y3819D01*
X22441Y3858D01*
X22390Y3879D01*
X22335D01*
X22284Y3858D01*
X22277Y3851D01*
X22244Y3819D01*
X22211Y3851D01*
X22204Y3858D01*
X22154Y3879D01*
X22098D01*
X22047Y3858D01*
X22041Y3851D01*
X22035Y3845D01*
X22027Y3846D01*
X22013Y3870D01*
X22007Y3898D01*
X22008Y3900D01*
X22028Y3949D01*
Y4004D01*
X22007Y4055D01*
X21968Y4094D01*
X21917Y4115D01*
X21862D01*
X21862Y4115D01*
X21824Y4153D01*
X21837Y4184D01*
Y4240D01*
X21816Y4290D01*
X21777Y4329D01*
X21726Y4351D01*
X21671D01*
X21620Y4329D01*
X21581Y4290D01*
X21541Y4316D01*
X21554Y4348D01*
Y4403D01*
X21533Y4454D01*
X21494Y4493D01*
X21443Y4514D01*
X21388D01*
X21337Y4493D01*
X21318Y4474D01*
X21279Y4463D01*
X21254Y4476D01*
X21230Y4500D01*
X21179Y4521D01*
D02*
G37*
G36*
X3622Y3859D02*
X3578D01*
X3538Y3842D01*
X3508Y3812D01*
X3491Y3772D01*
Y3728D01*
X3508Y3688D01*
X3538Y3658D01*
X3578Y3641D01*
X3622D01*
X3662Y3658D01*
X3692Y3688D01*
X3709Y3728D01*
Y3772D01*
X3692Y3812D01*
X3662Y3842D01*
X3622Y3859D01*
D02*
G37*
G36*
X3272D02*
X3228D01*
X3188Y3842D01*
X3158Y3812D01*
X3141Y3772D01*
Y3728D01*
X3158Y3688D01*
X3188Y3658D01*
X3228Y3641D01*
X3272D01*
X3312Y3658D01*
X3342Y3688D01*
X3359Y3728D01*
Y3772D01*
X3342Y3812D01*
X3312Y3842D01*
X3272Y3859D01*
D02*
G37*
G36*
X16163Y3770D02*
X16120D01*
X16080Y3754D01*
X16049Y3723D01*
X16033Y3683D01*
Y3640D01*
X16049Y3600D01*
X16080Y3569D01*
X16120Y3552D01*
X16163D01*
X16204Y3569D01*
X16234Y3600D01*
X16251Y3640D01*
Y3683D01*
X16234Y3723D01*
X16204Y3754D01*
X16163Y3770D01*
D02*
G37*
G36*
X15848D02*
X15805D01*
X15765Y3754D01*
X15734Y3723D01*
X15718Y3683D01*
Y3640D01*
X15734Y3600D01*
X15765Y3569D01*
X15805Y3552D01*
X15848D01*
X15889Y3569D01*
X15919Y3600D01*
X15936Y3640D01*
Y3683D01*
X15919Y3723D01*
X15889Y3754D01*
X15848Y3770D01*
D02*
G37*
G36*
X15533D02*
X15490D01*
X15450Y3754D01*
X15419Y3723D01*
X15403Y3683D01*
Y3640D01*
X15419Y3600D01*
X15450Y3569D01*
X15490Y3552D01*
X15533D01*
X15574Y3569D01*
X15604Y3600D01*
X15621Y3640D01*
Y3683D01*
X15604Y3723D01*
X15574Y3754D01*
X15533Y3770D01*
D02*
G37*
G36*
X15061Y3928D02*
X15018D01*
X14978Y3911D01*
X14947Y3881D01*
X14930Y3841D01*
Y3797D01*
X14947Y3757D01*
X14978Y3726D01*
X15018Y3710D01*
X15045D01*
X15071Y3693D01*
X15088Y3667D01*
Y3640D01*
X15104Y3600D01*
X15135Y3569D01*
X15175Y3552D01*
X15219D01*
X15259Y3569D01*
X15289Y3600D01*
X15306Y3640D01*
Y3683D01*
X15289Y3723D01*
X15259Y3754D01*
X15219Y3770D01*
X15191D01*
X15165Y3787D01*
X15148Y3814D01*
Y3841D01*
X15132Y3881D01*
X15101Y3911D01*
X15061Y3928D01*
D02*
G37*
G36*
X23217Y3524D02*
X23161D01*
X23110Y3503D01*
X23071Y3464D01*
X23050Y3413D01*
Y3358D01*
X23071Y3307D01*
X23110Y3268D01*
X23161Y3247D01*
X23217D01*
X23267Y3268D01*
X23306Y3307D01*
X23328Y3358D01*
Y3413D01*
X23306Y3464D01*
X23267Y3503D01*
X23217Y3524D01*
D02*
G37*
G36*
X16172Y3459D02*
X16128D01*
X16088Y3442D01*
X16058Y3412D01*
X16041Y3372D01*
Y3328D01*
X16058Y3288D01*
X16088Y3258D01*
X16128Y3241D01*
X16172D01*
X16212Y3258D01*
X16242Y3288D01*
X16259Y3328D01*
Y3372D01*
X16242Y3412D01*
X16212Y3442D01*
X16172Y3459D01*
D02*
G37*
G36*
X15533Y3456D02*
X15490D01*
X15450Y3439D01*
X15419Y3408D01*
X15403Y3368D01*
Y3325D01*
X15419Y3285D01*
X15450Y3254D01*
X15490Y3237D01*
X15533D01*
X15574Y3254D01*
X15604Y3285D01*
X15621Y3325D01*
Y3368D01*
X15604Y3408D01*
X15574Y3439D01*
X15533Y3456D01*
D02*
G37*
G36*
X16470Y3455D02*
X16427D01*
X16387Y3438D01*
X16356Y3408D01*
X16339Y3368D01*
Y3324D01*
X16356Y3284D01*
X16387Y3253D01*
X16427Y3237D01*
X16470D01*
X16510Y3253D01*
X16541Y3284D01*
X16557Y3324D01*
Y3368D01*
X16541Y3408D01*
X16510Y3438D01*
X16470Y3455D01*
D02*
G37*
G36*
X18526Y3298D02*
X18482D01*
X18442Y3281D01*
X18411Y3251D01*
X18395Y3211D01*
Y3167D01*
X18411Y3127D01*
X18442Y3097D01*
X18482Y3080D01*
X18526D01*
X18566Y3097D01*
X18596Y3127D01*
X18613Y3167D01*
Y3211D01*
X18596Y3251D01*
X18566Y3281D01*
X18526Y3298D01*
D02*
G37*
G36*
X11439Y3024D02*
X11396D01*
X11356Y3008D01*
X11325Y2977D01*
X11308Y2937D01*
Y2894D01*
X11325Y2853D01*
X11356Y2823D01*
X11396Y2806D01*
X11439D01*
X11479Y2823D01*
X11510Y2853D01*
X11526Y2894D01*
Y2937D01*
X11510Y2977D01*
X11479Y3008D01*
X11439Y3024D01*
D02*
G37*
G36*
X11882Y2819D02*
X11838D01*
X11798Y2803D01*
X11768Y2772D01*
X11751Y2732D01*
Y2689D01*
X11768Y2649D01*
X11798Y2618D01*
X11838Y2601D01*
X11882D01*
X11922Y2618D01*
X11949Y2645D01*
X11949Y2645D01*
X11980Y2614D01*
X12020Y2598D01*
X12064D01*
X12104Y2614D01*
X12134Y2645D01*
X12151Y2685D01*
Y2729D01*
X12134Y2769D01*
X12104Y2799D01*
X12064Y2816D01*
X12020D01*
X11980Y2799D01*
X11953Y2772D01*
X11953Y2772D01*
X11922Y2803D01*
X11882Y2819D01*
D02*
G37*
G36*
X13136Y2498D02*
X13092D01*
X13052Y2482D01*
X13022Y2451D01*
X12991Y2482D01*
X12951Y2498D01*
X12908D01*
X12868Y2482D01*
X12840Y2454D01*
X12812Y2482D01*
X12772Y2498D01*
X12728D01*
X12688Y2482D01*
X12656Y2452D01*
X12624Y2482D01*
X12584Y2498D01*
X12540D01*
X12500Y2482D01*
X12470Y2452D01*
X12440Y2482D01*
X12400Y2498D01*
X12357D01*
X12317Y2482D01*
X12286Y2451D01*
X12256Y2482D01*
X12216Y2498D01*
X12172D01*
X12132Y2482D01*
X12101Y2451D01*
X12085Y2411D01*
Y2368D01*
X12101Y2327D01*
X12132Y2297D01*
X12172Y2280D01*
X12216D01*
X12256Y2297D01*
X12286Y2327D01*
X12317Y2297D01*
X12357Y2280D01*
X12400D01*
X12440Y2297D01*
X12470Y2327D01*
X12500Y2297D01*
X12540Y2280D01*
X12584D01*
X12624Y2297D01*
X12656Y2326D01*
X12688Y2297D01*
X12728Y2280D01*
X12772D01*
X12812Y2297D01*
X12840Y2325D01*
X12868Y2297D01*
X12908Y2280D01*
X12951D01*
X12991Y2297D01*
X13022Y2327D01*
X13052Y2297D01*
X13092Y2280D01*
X13136D01*
X13176Y2297D01*
X13206Y2327D01*
X13223Y2368D01*
Y2411D01*
X13206Y2451D01*
X13176Y2482D01*
X13136Y2498D01*
D02*
G37*
G36*
X25094Y2688D02*
X25039D01*
X24988Y2666D01*
X24949Y2627D01*
X24928Y2576D01*
Y2521D01*
X24949Y2470D01*
X24988Y2431D01*
X25039Y2410D01*
X25094D01*
X25145Y2431D01*
X25184Y2470D01*
X25205Y2521D01*
Y2576D01*
X25184Y2627D01*
X25145Y2666D01*
X25094Y2688D01*
D02*
G37*
G36*
X23854Y2596D02*
X23799D01*
X23748Y2575D01*
X23709Y2536D01*
X23688Y2485D01*
Y2430D01*
X23709Y2379D01*
X23748Y2340D01*
X23799Y2319D01*
X23854D01*
X23905Y2340D01*
X23944Y2379D01*
X23965Y2430D01*
Y2485D01*
X23944Y2536D01*
X23905Y2575D01*
X23854Y2596D01*
D02*
G37*
G36*
X10287Y2154D02*
X10244D01*
X10204Y2137D01*
X10175Y2108D01*
X10146Y2137D01*
X10106Y2154D01*
X10062D01*
X10022Y2137D01*
X10017Y2132D01*
X9985Y2111D01*
X9952Y2132D01*
X9947Y2137D01*
X9907Y2154D01*
X9864D01*
X9824Y2137D01*
X9795Y2108D01*
X9766Y2137D01*
X9726Y2154D01*
X9683D01*
X9643Y2137D01*
X9621Y2115D01*
X9598Y2137D01*
X9558Y2154D01*
X9515D01*
X9475Y2137D01*
X9452Y2114D01*
X9430Y2137D01*
X9390Y2154D01*
X9346D01*
X9306Y2137D01*
X9282Y2113D01*
X9258Y2137D01*
X9218Y2154D01*
X9175D01*
X9135Y2137D01*
X9112Y2115D01*
X9090Y2137D01*
X9050Y2154D01*
X9006D01*
X8966Y2137D01*
X8944Y2114D01*
X8921Y2137D01*
X8881Y2154D01*
X8837D01*
X8797Y2137D01*
X8766Y2107D01*
X8735Y2137D01*
X8694Y2154D01*
X8651D01*
X8611Y2137D01*
X8588Y2114D01*
X8565Y2137D01*
X8525Y2154D01*
X8481D01*
X8441Y2137D01*
X8410Y2106D01*
X8394Y2066D01*
Y2023D01*
X8410Y1983D01*
X8441Y1952D01*
X8481Y1935D01*
X8525D01*
X8565Y1952D01*
X8588Y1975D01*
X8611Y1952D01*
X8651Y1935D01*
X8694D01*
X8735Y1952D01*
X8766Y1982D01*
X8797Y1952D01*
X8837Y1935D01*
X8881D01*
X8921Y1952D01*
X8944Y1975D01*
X8966Y1952D01*
X9006Y1935D01*
X9050D01*
X9090Y1952D01*
X9112Y1974D01*
X9135Y1952D01*
X9175Y1935D01*
X9218D01*
X9258Y1952D01*
X9282Y1976D01*
X9306Y1952D01*
X9346Y1935D01*
X9390D01*
X9430Y1952D01*
X9452Y1975D01*
X9475Y1952D01*
X9515Y1935D01*
X9558D01*
X9598Y1952D01*
X9621Y1974D01*
X9643Y1952D01*
X9683Y1935D01*
X9726D01*
X9766Y1952D01*
X9795Y1981D01*
X9824Y1952D01*
X9864Y1935D01*
X9907D01*
X9947Y1952D01*
X9952Y1957D01*
X9985Y1978D01*
X10017Y1957D01*
X10022Y1952D01*
X10062Y1935D01*
X10106D01*
X10146Y1952D01*
X10175Y1981D01*
X10204Y1952D01*
X10244Y1935D01*
X10287D01*
X10327Y1952D01*
X10358Y1983D01*
X10375Y2023D01*
Y2066D01*
X10358Y2106D01*
X10327Y2137D01*
X10287Y2154D01*
D02*
G37*
G36*
X1831Y2548D02*
X1788D01*
X1747Y2532D01*
X1717Y2501D01*
X1700Y2461D01*
Y2417D01*
X1717Y2377D01*
X1747Y2347D01*
X1788Y2330D01*
X1815D01*
X1841Y2314D01*
X1858Y2287D01*
Y2260D01*
X1874Y2220D01*
X1905Y2189D01*
X1945Y2173D01*
X1972D01*
X1999Y2156D01*
X2015Y2130D01*
Y2103D01*
X2032Y2062D01*
X2062Y2032D01*
X2103Y2015D01*
X2146D01*
X2186Y2032D01*
X2217Y2062D01*
X2233Y2103D01*
Y2146D01*
X2217Y2186D01*
X2186Y2217D01*
X2146Y2233D01*
X2119D01*
X2092Y2250D01*
X2076Y2276D01*
Y2303D01*
X2059Y2343D01*
X2029Y2374D01*
X1988Y2391D01*
X1961D01*
X1935Y2407D01*
X1918Y2434D01*
Y2461D01*
X1902Y2501D01*
X1871Y2532D01*
X1831Y2548D01*
D02*
G37*
G36*
X26643Y1995D02*
X26587D01*
X26537Y1974D01*
X26505Y1942D01*
X26473Y1974D01*
X26422Y1995D01*
X26367D01*
X26316Y1974D01*
X26277Y1935D01*
X26256Y1884D01*
Y1829D01*
X26277Y1778D01*
X26278Y1776D01*
X26278Y1706D01*
X26274Y1702D01*
X26252Y1651D01*
Y1596D01*
X26274Y1545D01*
X26312Y1507D01*
X26274Y1468D01*
X26252Y1417D01*
Y1362D01*
X26274Y1311D01*
X26313Y1272D01*
X26363Y1251D01*
X26419D01*
X26470Y1272D01*
X26502Y1304D01*
X26533Y1272D01*
X26584Y1251D01*
X26640D01*
X26690Y1272D01*
X26729Y1311D01*
X26751Y1362D01*
Y1417D01*
X26729Y1468D01*
X26691Y1507D01*
X26729Y1545D01*
X26751Y1596D01*
Y1651D01*
X26729Y1702D01*
X26728Y1703D01*
X26728Y1773D01*
X26733Y1778D01*
X26754Y1829D01*
Y1884D01*
X26733Y1935D01*
X26694Y1974D01*
X26643Y1995D01*
D02*
G37*
G36*
X1360Y2274D02*
X1317D01*
X1277Y2258D01*
X1246Y2227D01*
X1230Y2187D01*
Y2144D01*
X1246Y2104D01*
X1277Y2073D01*
X1317Y2056D01*
X1360D01*
X1365Y2058D01*
X1371Y2054D01*
X1399Y2018D01*
X1387Y1990D01*
Y1947D01*
X1404Y1907D01*
X1434Y1876D01*
X1474Y1859D01*
X1518D01*
X1558Y1876D01*
X1589Y1907D01*
X1605Y1947D01*
Y1990D01*
X1589Y2030D01*
X1558Y2061D01*
X1518Y2078D01*
X1474D01*
X1469Y2076D01*
X1464Y2080D01*
X1436Y2116D01*
X1448Y2144D01*
Y2187D01*
X1431Y2227D01*
X1400Y2258D01*
X1360Y2274D01*
D02*
G37*
G36*
X1004Y1957D02*
X960D01*
X920Y1941D01*
X890Y1910D01*
X873Y1870D01*
Y1826D01*
X890Y1786D01*
X920Y1756D01*
X960Y1739D01*
X1004D01*
X1044Y1756D01*
X1074Y1786D01*
X1091Y1826D01*
Y1870D01*
X1074Y1910D01*
X1044Y1941D01*
X1004Y1957D01*
D02*
G37*
G36*
X16799Y1709D02*
X16755D01*
X16715Y1692D01*
X16710Y1687D01*
X16677Y1666D01*
X16645Y1687D01*
X16640Y1692D01*
X16600Y1709D01*
X16556D01*
X16516Y1692D01*
X16485Y1662D01*
X16469Y1622D01*
Y1578D01*
X16485Y1538D01*
X16516Y1508D01*
X16556Y1491D01*
X16600D01*
X16640Y1508D01*
X16645Y1513D01*
X16677Y1534D01*
X16710Y1513D01*
X16715Y1508D01*
X16755Y1491D01*
X16799D01*
X16839Y1508D01*
X16869Y1538D01*
X16886Y1578D01*
Y1622D01*
X16869Y1662D01*
X16839Y1692D01*
X16799Y1709D01*
D02*
G37*
G36*
X16201D02*
X16157D01*
X16117Y1692D01*
X16112Y1687D01*
X16080Y1666D01*
X16047Y1687D01*
X16042Y1692D01*
X16002Y1709D01*
X15958D01*
X15918Y1692D01*
X15888Y1662D01*
X15871Y1622D01*
Y1578D01*
X15888Y1538D01*
X15918Y1508D01*
X15958Y1491D01*
X16002D01*
X16042Y1508D01*
X16047Y1513D01*
X16080Y1534D01*
X16112Y1513D01*
X16117Y1508D01*
X16157Y1491D01*
X16201D01*
X16241Y1508D01*
X16271Y1538D01*
X16288Y1578D01*
Y1622D01*
X16271Y1662D01*
X16241Y1692D01*
X16201Y1709D01*
D02*
G37*
G36*
X17395D02*
X17352D01*
X17312Y1692D01*
X17307Y1687D01*
X17274Y1666D01*
X17241Y1687D01*
X17236Y1692D01*
X17196Y1709D01*
X17153D01*
X17113Y1692D01*
X17082Y1662D01*
X17066Y1622D01*
Y1578D01*
X17082Y1538D01*
X17113Y1508D01*
X17153Y1491D01*
X17196D01*
X17236Y1508D01*
X17241Y1513D01*
X17274Y1534D01*
X17307Y1513D01*
X17312Y1508D01*
X17352Y1491D01*
X17395D01*
X17435Y1508D01*
X17466Y1538D01*
X17483Y1578D01*
Y1622D01*
X17466Y1662D01*
X17435Y1692D01*
X17395Y1709D01*
D02*
G37*
G36*
X15612D02*
X15569D01*
X15529Y1692D01*
X15525Y1688D01*
X15492Y1666D01*
X15459Y1688D01*
X15455Y1692D01*
X15415Y1709D01*
X15372D01*
X15332Y1692D01*
X15301Y1662D01*
X15285Y1622D01*
Y1578D01*
X15301Y1538D01*
X15332Y1508D01*
X15372Y1491D01*
X15415D01*
X15455Y1508D01*
X15459Y1512D01*
X15492Y1534D01*
X15525Y1512D01*
X15529Y1508D01*
X15569Y1491D01*
X15612D01*
X15652Y1508D01*
X15683Y1538D01*
X15700Y1578D01*
Y1622D01*
X15683Y1662D01*
X15652Y1692D01*
X15612Y1709D01*
D02*
G37*
G36*
X8486Y1644D02*
X8443D01*
X8403Y1628D01*
X8380Y1605D01*
X8357Y1628D01*
X8316Y1644D01*
X8273D01*
X8233Y1628D01*
X8202Y1597D01*
X8186Y1557D01*
Y1514D01*
X8202Y1474D01*
X8233Y1443D01*
X8273Y1426D01*
X8316D01*
X8357Y1443D01*
X8380Y1466D01*
X8403Y1443D01*
X8443Y1426D01*
X8486D01*
X8526Y1443D01*
X8557Y1474D01*
X8574Y1514D01*
Y1557D01*
X8557Y1597D01*
X8526Y1628D01*
X8486Y1644D01*
D02*
G37*
G36*
X22035Y1635D02*
X21980D01*
X21929Y1614D01*
X21890Y1575D01*
X21869Y1524D01*
Y1468D01*
X21890Y1418D01*
X21929Y1379D01*
X21980Y1357D01*
X22035D01*
X22086Y1379D01*
X22125Y1418D01*
X22146Y1468D01*
Y1524D01*
X22125Y1575D01*
X22086Y1614D01*
X22035Y1635D01*
D02*
G37*
G36*
X24732Y2257D02*
X24677D01*
X24626Y2236D01*
X24587Y2197D01*
X24566Y2146D01*
Y2091D01*
X24587Y2040D01*
X24601Y2026D01*
X24619Y1989D01*
X24601Y1961D01*
X24583Y1943D01*
X24562Y1893D01*
Y1837D01*
X24583Y1786D01*
X24622Y1748D01*
X24583Y1710D01*
X24562Y1659D01*
Y1604D01*
X24583Y1553D01*
X24622Y1515D01*
X24583Y1477D01*
X24562Y1426D01*
Y1371D01*
X24583Y1320D01*
X24622Y1281D01*
X24673Y1260D01*
X24728D01*
X24779Y1281D01*
X24801Y1302D01*
X24824Y1279D01*
X24875Y1258D01*
X24930D01*
X24981Y1279D01*
X25020Y1318D01*
X25041Y1369D01*
Y1424D01*
X25020Y1475D01*
X24982Y1513D01*
X25020Y1551D01*
X25041Y1602D01*
Y1657D01*
X25020Y1708D01*
X24982Y1747D01*
X25020Y1785D01*
X25041Y1836D01*
Y1891D01*
X25020Y1942D01*
X24981Y1981D01*
X24930Y2002D01*
X24875D01*
X24840Y1987D01*
X24812Y2030D01*
X24822Y2040D01*
X24843Y2091D01*
Y2146D01*
X24822Y2197D01*
X24783Y2236D01*
X24732Y2257D01*
D02*
G37*
G36*
X25281Y1999D02*
X25226D01*
X25175Y1978D01*
X25136Y1939D01*
X25115Y1888D01*
Y1833D01*
X25136Y1782D01*
X25174Y1744D01*
X25136Y1706D01*
X25115Y1655D01*
Y1600D01*
X25136Y1549D01*
X25174Y1511D01*
X25136Y1473D01*
X25115Y1422D01*
Y1367D01*
X25136Y1316D01*
X25175Y1277D01*
X25226Y1256D01*
X25281D01*
X25332Y1277D01*
X25354Y1298D01*
X25377Y1275D01*
X25428Y1254D01*
X25483D01*
X25534Y1275D01*
X25573Y1314D01*
X25594Y1365D01*
Y1420D01*
X25573Y1471D01*
X25535Y1509D01*
X25573Y1547D01*
X25594Y1598D01*
Y1653D01*
X25573Y1704D01*
X25535Y1742D01*
X25573Y1781D01*
X25594Y1832D01*
Y1887D01*
X25573Y1938D01*
X25534Y1977D01*
X25483Y1998D01*
X25428D01*
X25377Y1977D01*
X25355Y1955D01*
X25332Y1978D01*
X25281Y1999D01*
D02*
G37*
G36*
X25865Y1995D02*
X25810D01*
X25759Y1974D01*
X25720Y1935D01*
X25699Y1884D01*
Y1829D01*
X25720Y1778D01*
X25758Y1740D01*
X25720Y1702D01*
X25699Y1651D01*
Y1596D01*
X25720Y1545D01*
X25758Y1507D01*
X25720Y1468D01*
X25699Y1418D01*
Y1362D01*
X25720Y1311D01*
X25759Y1272D01*
X25810Y1251D01*
X25865D01*
X25916Y1272D01*
X25938Y1294D01*
X25961Y1271D01*
X26012Y1250D01*
X26067D01*
X26118Y1271D01*
X26157Y1310D01*
X26178Y1361D01*
Y1416D01*
X26157Y1467D01*
X26119Y1505D01*
X26157Y1543D01*
X26178Y1594D01*
Y1649D01*
X26157Y1700D01*
X26119Y1738D01*
X26157Y1776D01*
X26178Y1827D01*
Y1883D01*
X26157Y1933D01*
X26118Y1972D01*
X26067Y1994D01*
X26012D01*
X25961Y1972D01*
X25939Y1951D01*
X25916Y1974D01*
X25865Y1995D01*
D02*
G37*
%LPD*%
G36*
X11045Y9494D02*
X11041Y9490D01*
X11037Y9485D01*
X11034Y9481D01*
X11031Y9476D01*
X11029Y9472D01*
X11027Y9468D01*
X11025Y9463D01*
X11024Y9459D01*
X11024Y9454D01*
X11024Y9449D01*
X10965Y9508D01*
X10970Y9508D01*
X10974Y9509D01*
X10979Y9510D01*
X10983Y9511D01*
X10988Y9513D01*
X10992Y9516D01*
X10997Y9518D01*
X11001Y9522D01*
X11005Y9525D01*
X11010Y9529D01*
X11045Y9494D01*
D02*
G37*
G36*
X11317Y9269D02*
X11321Y9266D01*
X11325Y9264D01*
X11329Y9262D01*
X11334Y9260D01*
X11339Y9258D01*
X11344Y9257D01*
X11349Y9256D01*
X11355Y9256D01*
X11361Y9256D01*
Y9206D01*
X11355Y9205D01*
X11349Y9205D01*
X11344Y9204D01*
X11339Y9203D01*
X11334Y9202D01*
X11329Y9200D01*
X11325Y9198D01*
X11321Y9195D01*
X11317Y9192D01*
X11314Y9189D01*
Y9272D01*
X11317Y9269D01*
D02*
G37*
G36*
X11778Y9251D02*
X11781Y9248D01*
X11785Y9246D01*
X11790Y9243D01*
X11794Y9242D01*
X11799Y9240D01*
X11804Y9239D01*
X11809Y9238D01*
X11815Y9238D01*
X11821Y9238D01*
Y9188D01*
X11815Y9187D01*
X11809Y9187D01*
X11804Y9186D01*
X11799Y9185D01*
X11794Y9183D01*
X11790Y9182D01*
X11785Y9180D01*
X11781Y9177D01*
X11778Y9174D01*
X11774Y9171D01*
Y9254D01*
X11778Y9251D01*
D02*
G37*
G36*
X12250Y9093D02*
X12254Y9091D01*
X12258Y9088D01*
X12262Y9086D01*
X12267Y9084D01*
X12271Y9083D01*
X12277Y9082D01*
X12282Y9081D01*
X12288Y9080D01*
X12294Y9080D01*
Y9030D01*
X12288Y9030D01*
X12282Y9029D01*
X12277Y9029D01*
X12271Y9028D01*
X12267Y9026D01*
X12262Y9024D01*
X12258Y9022D01*
X12254Y9020D01*
X12250Y9017D01*
X12247Y9014D01*
Y9096D01*
X12250Y9093D01*
D02*
G37*
G36*
X11941Y9021D02*
X11936Y9019D01*
X11926Y9015D01*
X11921Y9013D01*
X11912Y9007D01*
X11908Y9004D01*
X11899Y8997D01*
X11895Y8993D01*
X11854Y9013D01*
X11858Y9017D01*
X11862Y9022D01*
X11864Y9026D01*
X11867Y9031D01*
X11868Y9035D01*
X11869Y9040D01*
X11870Y9044D01*
X11870Y9049D01*
X11869Y9054D01*
X11868Y9059D01*
X11941Y9021D01*
D02*
G37*
G36*
X11180Y9013D02*
X11184Y9010D01*
X11188Y9007D01*
X11193Y9004D01*
X11197Y9001D01*
X11202Y8999D01*
X11206Y8998D01*
X11211Y8997D01*
X11215Y8996D01*
X11220Y8996D01*
X11161Y8938D01*
X11161Y8942D01*
X11161Y8947D01*
X11160Y8951D01*
X11158Y8956D01*
X11156Y8960D01*
X11154Y8965D01*
X11151Y8969D01*
X11148Y8973D01*
X11144Y8978D01*
X11140Y8982D01*
X11175Y9018D01*
X11180Y9013D01*
D02*
G37*
G36*
X11525Y8890D02*
X11523Y8887D01*
X11520Y8883D01*
X11518Y8878D01*
X11516Y8874D01*
X11515Y8869D01*
X11514Y8864D01*
X11513Y8859D01*
X11512Y8853D01*
X11512Y8847D01*
X11462D01*
X11462Y8853D01*
X11461Y8859D01*
X11461Y8864D01*
X11460Y8869D01*
X11458Y8874D01*
X11456Y8878D01*
X11454Y8883D01*
X11452Y8887D01*
X11449Y8890D01*
X11446Y8894D01*
X11528D01*
X11525Y8890D01*
D02*
G37*
G36*
X10600Y8866D02*
X10600Y8861D01*
X10601Y8855D01*
X10602Y8850D01*
X10604Y8845D01*
X10605Y8841D01*
X10608Y8836D01*
X10610Y8832D01*
X10613Y8829D01*
X10616Y8825D01*
X10533D01*
X10536Y8829D01*
X10539Y8832D01*
X10542Y8836D01*
X10544Y8841D01*
X10546Y8845D01*
X10547Y8850D01*
X10548Y8855D01*
X10549Y8861D01*
X10549Y8866D01*
X10550Y8872D01*
X10600D01*
X10600Y8866D01*
D02*
G37*
G36*
X9814Y8878D02*
X9830Y8864D01*
X9834Y8861D01*
X9840Y8857D01*
X9844Y8855D01*
X9847Y8854D01*
X9770Y8824D01*
X9771Y8828D01*
X9772Y8831D01*
X9772Y8835D01*
X9772Y8840D01*
X9771Y8844D01*
X9769Y8848D01*
X9767Y8852D01*
X9764Y8856D01*
X9760Y8861D01*
X9756Y8865D01*
X9810Y8882D01*
X9814Y8878D01*
D02*
G37*
G36*
X12015Y8848D02*
X12015Y8843D01*
X12014Y8839D01*
X12014Y8834D01*
X12015Y8830D01*
X12017Y8825D01*
X12019Y8821D01*
X12022Y8816D01*
X12025Y8812D01*
X12029Y8808D01*
X11986Y8790D01*
X11982Y8794D01*
X11974Y8801D01*
X11970Y8804D01*
X11961Y8810D01*
X11956Y8812D01*
X11947Y8817D01*
X11942Y8819D01*
X12017Y8853D01*
X12015Y8848D01*
D02*
G37*
G36*
X11377Y8752D02*
X11374Y8748D01*
X11372Y8745D01*
X11369Y8740D01*
X11368Y8736D01*
X11366Y8731D01*
X11365Y8726D01*
X11364Y8720D01*
X11364Y8715D01*
X11364Y8709D01*
X11314D01*
X11313Y8715D01*
X11313Y8720D01*
X11312Y8726D01*
X11311Y8731D01*
X11309Y8736D01*
X11308Y8740D01*
X11306Y8745D01*
X11303Y8748D01*
X11300Y8752D01*
X11297Y8755D01*
X11380D01*
X11377Y8752D01*
D02*
G37*
G36*
X11009Y8717D02*
X11009Y8711D01*
X11011Y8695D01*
X11011Y8690D01*
X11013Y8681D01*
X11014Y8677D01*
X11016Y8673D01*
X11017Y8669D01*
X10940Y8698D01*
X10943Y8700D01*
X10947Y8703D01*
X10950Y8706D01*
X10952Y8709D01*
X10954Y8713D01*
X10956Y8717D01*
X10957Y8722D01*
X10958Y8727D01*
X10959Y8733D01*
X10959Y8739D01*
X11009Y8717D01*
D02*
G37*
G36*
X10678Y8630D02*
X10677Y8631D01*
X10676Y8632D01*
X10673Y8633D01*
X10671Y8634D01*
X10667Y8635D01*
X10663Y8635D01*
X10654Y8636D01*
X10642Y8636D01*
Y8686D01*
X10648Y8686D01*
X10663Y8687D01*
X10667Y8688D01*
X10671Y8689D01*
X10673Y8690D01*
X10676Y8691D01*
X10677Y8692D01*
X10678Y8693D01*
Y8630D01*
D02*
G37*
G36*
X16221Y8788D02*
X16240Y8748D01*
X16230Y8722D01*
Y8679D01*
X16246Y8639D01*
X16250Y8635D01*
X16273Y8602D01*
X16250Y8570D01*
X16246Y8566D01*
X16230Y8526D01*
Y8482D01*
X16246Y8442D01*
X16250Y8438D01*
X16273Y8406D01*
X16250Y8373D01*
X16246Y8369D01*
X16230Y8329D01*
Y8285D01*
X16246Y8245D01*
X16277Y8215D01*
X16317Y8198D01*
X16313Y8149D01*
X16182D01*
X16025Y8306D01*
X16001Y8322D01*
X15975Y8364D01*
Y8408D01*
X15959Y8448D01*
X15928Y8478D01*
X15888Y8495D01*
X15844D01*
X15804Y8478D01*
X15774Y8448D01*
X15757Y8408D01*
Y8364D01*
X15733Y8328D01*
X15330D01*
X14907Y8752D01*
X14926Y8798D01*
X15261D01*
X15285Y8762D01*
Y8718D01*
X15301Y8678D01*
X15332Y8648D01*
X15372Y8631D01*
X15415D01*
X15442Y8613D01*
Y8600D01*
X15459Y8560D01*
X15489Y8530D01*
X15529Y8513D01*
X15573D01*
X15613Y8530D01*
X15644Y8560D01*
X15660Y8600D01*
Y8644D01*
X15644Y8684D01*
X15613Y8715D01*
X15573Y8731D01*
X15553D01*
X15531Y8769D01*
X15547Y8798D01*
X16211D01*
X16221Y8788D01*
D02*
G37*
G36*
X11676Y8553D02*
X11677Y8549D01*
X11679Y8545D01*
X11681Y8540D01*
X11683Y8536D01*
X11686Y8532D01*
X11689Y8528D01*
X11697Y8519D01*
X11701Y8515D01*
X11674Y8470D01*
X11670Y8475D01*
X11666Y8478D01*
X11661Y8481D01*
X11657Y8484D01*
X11652Y8486D01*
X11648Y8487D01*
X11644Y8488D01*
X11639Y8488D01*
X11635Y8488D01*
X11630Y8487D01*
X11675Y8557D01*
X11676Y8553D01*
D02*
G37*
G36*
X11098Y8400D02*
X11095Y8403D01*
X11091Y8406D01*
X11087Y8409D01*
X11083Y8411D01*
X11078Y8413D01*
X11074Y8414D01*
X11068Y8415D01*
X11063Y8416D01*
X11057Y8417D01*
X11051Y8417D01*
Y8467D01*
X11057Y8467D01*
X11063Y8467D01*
X11068Y8468D01*
X11074Y8469D01*
X11078Y8471D01*
X11083Y8473D01*
X11087Y8475D01*
X11091Y8477D01*
X11095Y8480D01*
X11098Y8483D01*
Y8400D01*
D02*
G37*
G36*
X10262Y8458D02*
X10265Y8456D01*
X10269Y8453D01*
X10274Y8451D01*
X10278Y8449D01*
X10283Y8448D01*
X10288Y8447D01*
X10294Y8446D01*
X10299Y8445D01*
X10305Y8445D01*
Y8395D01*
X10299Y8395D01*
X10294Y8394D01*
X10288Y8394D01*
X10283Y8393D01*
X10278Y8391D01*
X10274Y8389D01*
X10269Y8387D01*
X10265Y8385D01*
X10262Y8382D01*
X10258Y8379D01*
Y8461D01*
X10262Y8458D01*
D02*
G37*
G36*
X10535Y8244D02*
X10531Y8240D01*
X10527Y8235D01*
X10524Y8231D01*
X10521Y8227D01*
X10519Y8222D01*
X10517Y8218D01*
X10515Y8213D01*
X10514Y8209D01*
X10514Y8204D01*
X10513Y8199D01*
X10455Y8258D01*
X10460Y8258D01*
X10464Y8259D01*
X10469Y8260D01*
X10473Y8261D01*
X10478Y8263D01*
X10482Y8266D01*
X10486Y8268D01*
X10491Y8272D01*
X10495Y8275D01*
X10500Y8279D01*
X10535Y8244D01*
D02*
G37*
G36*
X10003Y8196D02*
X10006Y8193D01*
X10010Y8191D01*
X10014Y8188D01*
X10019Y8187D01*
X10024Y8185D01*
X10029Y8184D01*
X10034Y8183D01*
X10040Y8183D01*
X10046Y8183D01*
Y8133D01*
X10040Y8132D01*
X10034Y8132D01*
X10029Y8131D01*
X10024Y8130D01*
X10019Y8128D01*
X10014Y8127D01*
X10010Y8125D01*
X10006Y8122D01*
X10003Y8119D01*
X9999Y8116D01*
Y8199D01*
X10003Y8196D01*
D02*
G37*
G36*
X10776Y8177D02*
X10777Y8172D01*
X10779Y8168D01*
X10781Y8164D01*
X10784Y8160D01*
X10787Y8155D01*
X10790Y8151D01*
X10797Y8142D01*
X10801Y8138D01*
X10775Y8094D01*
X10770Y8098D01*
X10766Y8102D01*
X10762Y8105D01*
X10757Y8107D01*
X10753Y8109D01*
X10748Y8111D01*
X10744Y8111D01*
X10740Y8112D01*
X10735Y8112D01*
X10731Y8111D01*
X10775Y8181D01*
X10776Y8177D01*
D02*
G37*
G36*
X10763Y7828D02*
X10760Y7824D01*
X10758Y7821D01*
X10755Y7816D01*
X10754Y7812D01*
X10752Y7807D01*
X10751Y7802D01*
X10750Y7796D01*
X10750Y7791D01*
X10750Y7785D01*
X10700D01*
X10699Y7791D01*
X10699Y7796D01*
X10698Y7802D01*
X10697Y7807D01*
X10696Y7812D01*
X10694Y7816D01*
X10692Y7821D01*
X10689Y7824D01*
X10686Y7828D01*
X10683Y7831D01*
X10766D01*
X10763Y7828D01*
D02*
G37*
G36*
X16431Y7643D02*
X16440Y7636D01*
X16444Y7632D01*
X16448Y7630D01*
X16452Y7627D01*
X16457Y7625D01*
X16461Y7623D01*
X16465Y7622D01*
X16469Y7621D01*
X16399Y7577D01*
X16400Y7581D01*
X16400Y7586D01*
X16400Y7590D01*
X16399Y7594D01*
X16398Y7599D01*
X16396Y7603D01*
X16393Y7607D01*
X16390Y7612D01*
X16386Y7616D01*
X16382Y7621D01*
X16427Y7647D01*
X16431Y7643D01*
D02*
G37*
G36*
X16181Y7593D02*
X16177Y7590D01*
X16174Y7587D01*
X16172Y7583D01*
X16170Y7579D01*
X16168Y7574D01*
X16166Y7570D01*
X16165Y7565D01*
X16164Y7559D01*
X16164Y7553D01*
X16163Y7547D01*
X16113Y7551D01*
X16113Y7557D01*
X16113Y7562D01*
X16112Y7568D01*
X16111Y7573D01*
X16110Y7578D01*
X16108Y7582D01*
X16106Y7587D01*
X16104Y7591D01*
X16101Y7595D01*
X16098Y7598D01*
X16181Y7593D01*
D02*
G37*
G36*
X18425Y7201D02*
X18429Y7197D01*
X18433Y7194D01*
X18438Y7191D01*
X18442Y7188D01*
X18447Y7186D01*
X18451Y7185D01*
X18456Y7184D01*
X18460Y7183D01*
X18465Y7183D01*
X18406Y7125D01*
X18406Y7129D01*
X18406Y7134D01*
X18405Y7138D01*
X18403Y7143D01*
X18401Y7147D01*
X18399Y7152D01*
X18396Y7156D01*
X18393Y7161D01*
X18389Y7165D01*
X18385Y7169D01*
X18420Y7205D01*
X18425Y7201D01*
D02*
G37*
G36*
X15227Y7465D02*
X15252Y7448D01*
X15281Y7442D01*
X15361D01*
X15380Y7430D01*
X15409Y7424D01*
X15409Y7424D01*
X15538D01*
X15568Y7374D01*
X15561Y7358D01*
Y7315D01*
X15578Y7275D01*
X15609Y7244D01*
X15649Y7227D01*
X15692D01*
X15732Y7244D01*
X15763Y7275D01*
X15779Y7315D01*
Y7358D01*
X15773Y7374D01*
X15802Y7424D01*
X15926D01*
X15955Y7430D01*
X16005Y7407D01*
X16005Y7374D01*
X15995Y7368D01*
X15952D01*
X15912Y7351D01*
X15881Y7321D01*
X15864Y7281D01*
Y7237D01*
X15881Y7197D01*
X15912Y7166D01*
X15930Y7159D01*
X15945Y7104D01*
X15901Y7059D01*
X15459D01*
X15448Y7105D01*
X15448Y7109D01*
X15478Y7139D01*
X15495Y7179D01*
Y7222D01*
X15478Y7262D01*
X15447Y7293D01*
X15407Y7310D01*
X15364D01*
X15324Y7293D01*
X15293Y7262D01*
X15251Y7254D01*
X14501Y8004D01*
X14476Y8021D01*
X14447Y8026D01*
X14295D01*
X14148Y8174D01*
X14169Y8224D01*
X14468D01*
X15227Y7465D01*
D02*
G37*
G36*
X18625Y7098D02*
X18625Y7093D01*
X18626Y7087D01*
X18627Y7082D01*
X18629Y7077D01*
X18630Y7073D01*
X18633Y7069D01*
X18635Y7065D01*
X18638Y7061D01*
X18641Y7058D01*
X18558D01*
X18561Y7061D01*
X18564Y7065D01*
X18566Y7069D01*
X18569Y7073D01*
X18570Y7077D01*
X18572Y7082D01*
X18573Y7087D01*
X18574Y7093D01*
X18574Y7098D01*
X18574Y7104D01*
X18624D01*
X18625Y7098D01*
D02*
G37*
G36*
X16336Y7595D02*
X16336Y7593D01*
X16341Y7589D01*
X16343Y7584D01*
X16346Y7581D01*
X16347Y7579D01*
X16347Y7579D01*
X16348Y7578D01*
X16348Y7577D01*
Y7541D01*
X16364Y7501D01*
X16395Y7471D01*
X16435Y7454D01*
X16478D01*
X16518Y7471D01*
X16568Y7450D01*
Y7205D01*
X16574Y7176D01*
X16591Y7151D01*
X16883Y6859D01*
X16865Y6809D01*
X16307D01*
X16307Y6809D01*
X16299Y6815D01*
Y6831D01*
X16282Y6871D01*
X16252Y6902D01*
X16212Y6918D01*
X16168D01*
X16128Y6902D01*
X16097Y6871D01*
X16081Y6831D01*
Y6820D01*
X16077Y6812D01*
X16077Y6811D01*
X16077Y6811D01*
X16077Y6811D01*
X16077Y6810D01*
X16076Y6809D01*
X16076Y6808D01*
X16075Y6806D01*
X16073Y6805D01*
X16070Y6801D01*
X16068Y6795D01*
X16067Y6795D01*
X15157D01*
X15133Y6831D01*
Y6874D01*
X15117Y6914D01*
X15086Y6945D01*
X15049Y6960D01*
Y7013D01*
X15043Y7041D01*
X15028Y7065D01*
X15028Y7065D01*
X14937Y7155D01*
X14914Y7171D01*
X14886Y7177D01*
X14540D01*
X14492Y7225D01*
X14492Y7225D01*
X14456Y7261D01*
X14456Y7261D01*
X14380Y7338D01*
X14380Y7393D01*
X14408Y7432D01*
X14408Y7432D01*
X14451Y7497D01*
X14476Y7512D01*
X14512Y7516D01*
X14535Y7506D01*
X14579D01*
X14619Y7523D01*
X14649Y7554D01*
X14654Y7564D01*
X14712Y7576D01*
X15360Y6928D01*
X15385Y6912D01*
X15414Y6906D01*
X15932D01*
X15961Y6912D01*
X15986Y6928D01*
X16162Y7103D01*
X16178Y7128D01*
X16184Y7157D01*
X16184Y7157D01*
Y7281D01*
X16211Y7299D01*
X16254D01*
X16294Y7316D01*
X16325Y7346D01*
X16342Y7387D01*
Y7430D01*
X16325Y7470D01*
X16294Y7501D01*
X16258Y7516D01*
X16248Y7522D01*
X16245Y7525D01*
X16234Y7576D01*
X16249Y7611D01*
X16272Y7622D01*
X16301Y7629D01*
X16336Y7595D01*
D02*
G37*
G36*
X17963Y6887D02*
X17959Y6890D01*
X17956Y6893D01*
X17952Y6896D01*
X17948Y6898D01*
X17943Y6900D01*
X17938Y6901D01*
X17933Y6902D01*
X17928Y6903D01*
X17922Y6903D01*
X17916Y6904D01*
Y6954D01*
X17922Y6954D01*
X17928Y6954D01*
X17933Y6955D01*
X17938Y6956D01*
X17943Y6958D01*
X17948Y6960D01*
X17952Y6962D01*
X17956Y6964D01*
X17959Y6967D01*
X17963Y6970D01*
Y6887D01*
D02*
G37*
G36*
X14889Y6900D02*
X14886Y6897D01*
X14877Y6887D01*
X14876Y6886D01*
X14876Y6885D01*
X14875Y6884D01*
X14876Y6883D01*
X14837Y6910D01*
X14837Y6911D01*
X14838Y6911D01*
X14839Y6912D01*
X14845Y6917D01*
X14858Y6930D01*
X14889Y6900D01*
D02*
G37*
G36*
X15013Y6910D02*
X14974Y6883D01*
X14974Y6884D01*
X14974Y6885D01*
X14973Y6886D01*
X14973Y6887D01*
X14971Y6889D01*
X14968Y6892D01*
X14964Y6897D01*
X14961Y6900D01*
X14991Y6930D01*
X15013Y6910D01*
D02*
G37*
G36*
X17451Y6829D02*
X17447Y6832D01*
X17444Y6835D01*
X17440Y6837D01*
X17435Y6839D01*
X17431Y6841D01*
X17426Y6842D01*
X17421Y6844D01*
X17415Y6844D01*
X17410Y6845D01*
X17404Y6845D01*
Y6895D01*
X17410Y6895D01*
X17415Y6896D01*
X17421Y6897D01*
X17426Y6898D01*
X17431Y6899D01*
X17435Y6901D01*
X17440Y6903D01*
X17444Y6906D01*
X17447Y6908D01*
X17451Y6911D01*
Y6829D01*
D02*
G37*
G36*
X11271Y6822D02*
X11267Y6818D01*
X11265Y6815D01*
X11262Y6811D01*
X11260Y6807D01*
X11258Y6803D01*
X11256Y6798D01*
X11255Y6793D01*
X11254Y6788D01*
X11254Y6782D01*
X11253Y6776D01*
X11203Y6780D01*
X11203Y6786D01*
X11203Y6791D01*
X11202Y6797D01*
X11201Y6802D01*
X11200Y6807D01*
X11198Y6811D01*
X11196Y6816D01*
X11194Y6820D01*
X11191Y6824D01*
X11188Y6827D01*
X11271Y6822D01*
D02*
G37*
G36*
X16189Y6750D02*
X16185Y6750D01*
X16180Y6750D01*
X16176Y6748D01*
X16171Y6747D01*
X16167Y6745D01*
X16162Y6743D01*
X16158Y6740D01*
X16153Y6737D01*
X16149Y6733D01*
X16145Y6729D01*
X16109Y6764D01*
X16114Y6769D01*
X16117Y6773D01*
X16120Y6777D01*
X16123Y6782D01*
X16126Y6786D01*
X16128Y6791D01*
X16129Y6795D01*
X16130Y6800D01*
X16131Y6804D01*
X16131Y6809D01*
X16189Y6750D01*
D02*
G37*
G36*
X18356Y6685D02*
X18356Y6679D01*
X18357Y6674D01*
X18358Y6669D01*
X18360Y6664D01*
X18361Y6660D01*
X18364Y6655D01*
X18366Y6651D01*
X18369Y6648D01*
X18372Y6644D01*
X18289D01*
X18292Y6648D01*
X18295Y6651D01*
X18298Y6655D01*
X18300Y6660D01*
X18301Y6664D01*
X18303Y6669D01*
X18304Y6674D01*
X18305Y6679D01*
X18305Y6685D01*
X18306Y6691D01*
X18356D01*
X18356Y6685D01*
D02*
G37*
G36*
X18748Y6633D02*
X18743Y6633D01*
X18739Y6632D01*
X18734Y6630D01*
X18730Y6628D01*
X18725Y6626D01*
X18721Y6623D01*
X18717Y6620D01*
X18712Y6617D01*
X18708Y6613D01*
X18704Y6609D01*
X18663Y6639D01*
X18667Y6643D01*
X18671Y6648D01*
X18674Y6652D01*
X18677Y6657D01*
X18679Y6661D01*
X18680Y6666D01*
X18681Y6670D01*
X18682Y6675D01*
X18682Y6679D01*
X18682Y6684D01*
X18748Y6633D01*
D02*
G37*
G36*
X18227Y6647D02*
X18224Y6644D01*
X18222Y6640D01*
X18220Y6636D01*
X18218Y6631D01*
X18217Y6626D01*
X18215Y6621D01*
X18215Y6616D01*
X18214Y6610D01*
X18214Y6604D01*
X18164D01*
X18164Y6610D01*
X18163Y6616D01*
X18163Y6621D01*
X18161Y6626D01*
X18160Y6631D01*
X18158Y6636D01*
X18156Y6640D01*
X18154Y6644D01*
X18151Y6647D01*
X18148Y6651D01*
X18230D01*
X18227Y6647D01*
D02*
G37*
G36*
X11414Y6614D02*
X11417Y6611D01*
X11421Y6608D01*
X11424Y6606D01*
X11429Y6603D01*
X11433Y6602D01*
X11438Y6600D01*
X11443Y6600D01*
X11449Y6599D01*
X11455Y6599D01*
X11445Y6549D01*
X11439Y6549D01*
X11428Y6548D01*
X11423Y6547D01*
X11418Y6546D01*
X11413Y6544D01*
X11408Y6543D01*
X11404Y6541D01*
X11400Y6539D01*
X11397Y6536D01*
X11411Y6618D01*
X11414Y6614D01*
D02*
G37*
G36*
X16749Y6562D02*
X16753Y6558D01*
X16757Y6555D01*
X16762Y6552D01*
X16766Y6550D01*
X16771Y6548D01*
X16775Y6546D01*
X16780Y6545D01*
X16784Y6544D01*
X16789Y6544D01*
X16729Y6487D01*
X16729Y6492D01*
X16728Y6496D01*
X16727Y6501D01*
X16726Y6505D01*
X16724Y6510D01*
X16722Y6514D01*
X16719Y6519D01*
X16716Y6523D01*
X16712Y6527D01*
X16708Y6532D01*
X16744Y6566D01*
X16749Y6562D01*
D02*
G37*
G36*
X19213Y6524D02*
X19218Y6521D01*
X19222Y6518D01*
X19227Y6515D01*
X19231Y6513D01*
X19235Y6512D01*
X19240Y6511D01*
X19244Y6510D01*
X19248Y6511D01*
X19253Y6511D01*
X19209Y6442D01*
X19208Y6446D01*
X19206Y6450D01*
X19204Y6454D01*
X19202Y6458D01*
X19200Y6463D01*
X19197Y6467D01*
X19194Y6471D01*
X19187Y6480D01*
X19183Y6484D01*
X19209Y6528D01*
X19213Y6524D01*
D02*
G37*
G36*
X19582Y6474D02*
X19580Y6470D01*
X19578Y6465D01*
X19577Y6461D01*
X19575Y6456D01*
X19574Y6451D01*
X19574Y6446D01*
X19573Y6435D01*
X19573Y6429D01*
X19523Y6416D01*
X19522Y6422D01*
X19522Y6428D01*
X19521Y6433D01*
X19519Y6438D01*
X19518Y6442D01*
X19516Y6446D01*
X19513Y6450D01*
X19510Y6454D01*
X19507Y6456D01*
X19504Y6459D01*
X19584Y6477D01*
X19582Y6474D01*
D02*
G37*
G36*
X17733Y6268D02*
X17730Y6271D01*
X17726Y6274D01*
X17722Y6277D01*
X17718Y6279D01*
X17714Y6281D01*
X17709Y6282D01*
X17704Y6283D01*
X17698Y6284D01*
X17693Y6285D01*
X17687Y6285D01*
Y6335D01*
X17693Y6335D01*
X17698Y6335D01*
X17704Y6336D01*
X17709Y6337D01*
X17714Y6339D01*
X17718Y6341D01*
X17722Y6343D01*
X17726Y6345D01*
X17730Y6348D01*
X17733Y6351D01*
Y6268D01*
D02*
G37*
G36*
X19364Y6242D02*
X19361Y6245D01*
X19357Y6248D01*
X19353Y6251D01*
X19349Y6253D01*
X19345Y6254D01*
X19340Y6256D01*
X19335Y6257D01*
X19329Y6258D01*
X19323Y6258D01*
X19317Y6259D01*
Y6309D01*
X19323Y6309D01*
X19329Y6309D01*
X19335Y6310D01*
X19340Y6311D01*
X19345Y6313D01*
X19349Y6314D01*
X19353Y6317D01*
X19357Y6319D01*
X19361Y6322D01*
X19364Y6325D01*
Y6242D01*
D02*
G37*
G36*
X17276Y6288D02*
X17273Y6285D01*
X17270Y6281D01*
X17268Y6277D01*
X17266Y6273D01*
X17264Y6269D01*
X17262Y6264D01*
X17261Y6259D01*
X17260Y6253D01*
X17260Y6248D01*
X17260Y6242D01*
X17210Y6242D01*
X17210Y6248D01*
X17209Y6253D01*
X17208Y6259D01*
X17207Y6264D01*
X17206Y6269D01*
X17204Y6273D01*
X17202Y6278D01*
X17199Y6281D01*
X17197Y6285D01*
X17194Y6288D01*
X17276Y6288D01*
D02*
G37*
G36*
X16638Y6024D02*
X16634Y6026D01*
X16630Y6028D01*
X16626Y6030D01*
X16622Y6032D01*
X16617Y6034D01*
X16612Y6035D01*
X16607Y6036D01*
X16601Y6036D01*
X16590Y6037D01*
X16581Y6087D01*
X16587Y6087D01*
X16593Y6088D01*
X16598Y6089D01*
X16603Y6090D01*
X16608Y6092D01*
X16612Y6094D01*
X16616Y6096D01*
X16619Y6099D01*
X16623Y6102D01*
X16625Y6105D01*
X16638Y6024D01*
D02*
G37*
G36*
X16954Y5985D02*
X16950Y5984D01*
X16946Y5982D01*
X16941Y5981D01*
X16937Y5979D01*
X16933Y5976D01*
X16929Y5973D01*
X16924Y5970D01*
X16916Y5963D01*
X16911Y5959D01*
X16867Y5985D01*
X16871Y5990D01*
X16875Y5994D01*
X16878Y5998D01*
X16880Y6003D01*
X16882Y6007D01*
X16884Y6012D01*
X16885Y6016D01*
X16885Y6020D01*
X16885Y6025D01*
X16884Y6029D01*
X16954Y5985D01*
D02*
G37*
G36*
X15183Y6067D02*
X15143Y6050D01*
X15113Y6020D01*
X15096Y5980D01*
Y5936D01*
X15104Y5917D01*
X15111Y5893D01*
X15094Y5854D01*
X14916Y5676D01*
X13928D01*
X13535Y6069D01*
X13554Y6115D01*
X15179D01*
X15183Y6067D01*
D02*
G37*
G36*
X15211Y5207D02*
X15207Y5208D01*
X15203Y5208D01*
X15198Y5207D01*
X15194Y5207D01*
X15189Y5205D01*
X15185Y5203D01*
X15181Y5201D01*
X15176Y5198D01*
X15172Y5194D01*
X15167Y5190D01*
X15141Y5234D01*
X15145Y5239D01*
X15153Y5247D01*
X15156Y5251D01*
X15158Y5256D01*
X15161Y5260D01*
X15163Y5264D01*
X15165Y5268D01*
X15166Y5273D01*
X15167Y5277D01*
X15211Y5207D01*
D02*
G37*
G36*
X15511Y5177D02*
X15507Y5177D01*
X15502Y5176D01*
X15498Y5175D01*
X15493Y5174D01*
X15489Y5172D01*
X15484Y5170D01*
X15480Y5167D01*
X15475Y5163D01*
X15471Y5160D01*
X15467Y5156D01*
X15431Y5191D01*
X15435Y5195D01*
X15439Y5200D01*
X15442Y5204D01*
X15445Y5209D01*
X15447Y5213D01*
X15449Y5218D01*
X15451Y5222D01*
X15452Y5227D01*
X15453Y5231D01*
X15453Y5236D01*
X15511Y5177D01*
D02*
G37*
D13*
X14485Y2756D02*
X18620D01*
X14402Y2556D02*
X18703D01*
X14361Y2456D02*
X18744D01*
X16099Y6718D02*
X16190Y6809D01*
X16027Y6279D02*
X16778D01*
X19548Y6235D02*
Y6496D01*
X19262Y5950D02*
X19548Y6235D01*
X17675Y5950D02*
X19262D01*
X17433Y6050D02*
X18487D01*
X16933Y5550D02*
X17433Y6050D01*
X17391Y6150D02*
X18446D01*
X16942Y5700D02*
X17391Y6150D01*
X18446D02*
X18832Y6536D01*
X18487Y6050D02*
X18874Y6436D01*
X16817Y5092D02*
X17675Y5950D01*
X17434Y6732D02*
X17638Y6528D01*
X17281Y6482D02*
X17453Y6310D01*
X16981Y6482D02*
X17281D01*
X17235Y6331D02*
X17235Y6331D01*
X17235Y6135D02*
Y6331D01*
X16307Y6732D02*
X17434D01*
X17638Y6528D02*
X17747D01*
X16188Y6614D02*
X16307Y6732D01*
X13531Y6292D02*
X15550D01*
X15735Y6107D02*
X16494D01*
X15550Y6292D02*
X15735Y6107D01*
X15693Y6007D02*
X16453D01*
X15508Y6192D02*
X15693Y6007D01*
X13446Y6192D02*
X15508D01*
X12561Y7261D02*
X13531Y6292D01*
X12476Y7161D02*
X13446Y6192D01*
X16453Y6007D02*
X16523Y5937D01*
X16854D01*
X14948Y5600D02*
X15148Y5800D01*
X16900D01*
X14989Y5500D02*
X15189Y5700D01*
X16942D01*
X16900Y5800D02*
X17235Y6135D01*
X16337Y5550D02*
X16933D01*
X16186Y5398D02*
X16337Y5550D01*
X16494Y6107D02*
X16539Y6062D01*
X16107Y7157D02*
Y7314D01*
X15932Y6982D02*
X16107Y7157D01*
X16098Y7323D02*
X16107Y7314D01*
X16098Y7323D02*
Y7464D01*
X16138Y7504D01*
X9823Y8799D02*
Y8833D01*
X9597Y8835D02*
X9771Y8661D01*
X10507D01*
X9697Y8959D02*
X9823Y8833D01*
X9957Y8158D02*
X10091D01*
X10186Y8063D01*
Y7964D02*
Y8063D01*
Y7964D02*
X10428Y7722D01*
Y7722D02*
Y7722D01*
X10725Y7708D02*
Y7874D01*
X10571Y8008D02*
X10788D01*
X10796Y8108D02*
X10924D01*
X10736Y8168D02*
X10796Y8108D01*
X11617Y8545D02*
X11635D01*
X11487Y8605D02*
Y8936D01*
X11483Y8600D02*
X11487Y8605D01*
X11483Y8320D02*
Y8600D01*
X11339Y8287D02*
Y8798D01*
X11157Y8308D02*
X11915Y7550D01*
X12028D01*
X10969Y8308D02*
X11157D01*
X10507Y8661D02*
X10519Y8649D01*
X9597Y8835D02*
Y9178D01*
X10642Y8661D02*
X10728D01*
X10630Y8649D02*
X10642Y8661D01*
X10519Y8649D02*
X10630D01*
X10364Y8554D02*
X10391Y8527D01*
X10161Y8554D02*
X10364D01*
X10082Y8476D02*
X10161Y8554D01*
X10082Y8365D02*
Y8476D01*
X10391Y8527D02*
X10891D01*
X10977Y8442D01*
X9697Y8959D02*
Y9137D01*
X18342Y7248D02*
X18465Y7124D01*
X18331Y6602D02*
Y6741D01*
X18236Y6468D02*
X18386D01*
X18465Y6547D01*
X17923Y6352D02*
X18411D01*
X18746Y6686D01*
X17747Y6528D02*
X17923Y6352D01*
X18189Y6515D02*
X18236Y6468D01*
X18465Y6547D02*
Y6748D01*
X18189Y6515D02*
Y6693D01*
X16952Y8261D02*
X18465Y6748D01*
X18245Y6827D02*
X18331Y6741D01*
X18193Y7248D02*
X18342D01*
X3228Y11535D02*
X3362Y11669D01*
X11362Y6584D02*
X11373Y6574D01*
X11228Y6529D02*
Y6862D01*
Y6529D02*
X11352Y6405D01*
X11228Y6862D02*
X11232Y6866D01*
X11352Y6405D02*
X12471D01*
X11373Y6574D02*
X12443D01*
X16457Y7563D02*
Y7582D01*
X16266Y7772D02*
X16457Y7582D01*
X16086Y7772D02*
X16266D01*
X15210Y8090D02*
X15965D01*
X14726Y8574D02*
X15210Y8090D01*
X15965D02*
X16082Y7973D01*
X15409Y7501D02*
X15926D01*
X15391Y7519D02*
X15409Y7501D01*
X15926D02*
X16008Y7582D01*
X11066Y4337D02*
X11337Y4608D01*
X10250Y4337D02*
X11066D01*
X11337Y4608D02*
Y4617D01*
X10228Y4315D02*
X10250Y4337D01*
X9950Y4315D02*
X10228D01*
X11432Y4712D02*
X12246D01*
X11337Y4617D02*
X11432Y4712D01*
X12859Y3958D02*
X14361Y2456D01*
X11616Y3958D02*
X12859D01*
X18744Y2456D02*
X20989Y4700D01*
X18703Y2556D02*
X20947Y4800D01*
X12246Y4712D02*
X14402Y2556D01*
X20947Y4800D02*
X21583D01*
X20989Y4700D02*
X21624D01*
X12329Y4913D02*
X14485Y2756D01*
X18661Y2656D02*
X20905Y4900D01*
X18620Y2756D02*
X20864Y5000D01*
X9693Y4571D02*
X9950Y4315D01*
X11482Y4092D02*
X11616Y3958D01*
X11937Y4913D02*
X12329D01*
X11499Y5351D02*
X11937Y4913D01*
X11221Y5351D02*
X11499D01*
X21624Y4700D02*
X21824Y4900D01*
X22318D01*
X22512Y5095D01*
X22695D02*
X22900Y5300D01*
X22512Y5095D02*
X22695D01*
X22900Y5300D02*
Y6600D01*
X22148Y5365D02*
X22297D01*
X21583Y4800D02*
X22148Y5365D01*
X22255Y5613D02*
X22302D01*
X21541Y4900D02*
X22255Y5613D01*
X20905Y4900D02*
X21541D01*
X21500Y5000D02*
X22043Y5543D01*
X20864Y5000D02*
X21500D01*
X22043Y5543D02*
Y5623D01*
X22874Y7638D02*
X23003Y7509D01*
Y6703D02*
Y7509D01*
X22900Y6600D02*
X23003Y6703D01*
X22043Y5623D02*
X22272Y5853D01*
X22295D01*
X10975Y5597D02*
X11221Y5351D01*
X15712Y9662D02*
X15988D01*
X15444Y9394D02*
X15712Y9662D01*
X10575Y8783D02*
Y9248D01*
X10857Y8420D02*
X10969Y8308D01*
X10216Y8420D02*
X10857D01*
X10773Y8302D02*
X10867Y8208D01*
X10558Y8302D02*
X10773D01*
X10575Y9248D02*
X11169Y9843D01*
X10652Y9467D02*
X11127Y9943D01*
X10028Y9467D02*
X10652D01*
X9986Y9567D02*
X10610D01*
X11086Y10043D01*
X10984Y8665D02*
Y9275D01*
X11097Y9060D02*
X11220Y8937D01*
X11097Y9060D02*
Y9247D01*
X11375Y9524D01*
X16913Y9032D02*
X17110Y8835D01*
X14490Y9032D02*
X16913D01*
X13579Y9943D02*
X14490Y9032D01*
X9597Y9178D02*
X9986Y9567D01*
X14057Y10043D02*
X14706Y9394D01*
X11086Y10043D02*
X14057D01*
X11127Y9943D02*
X13579D01*
X14706Y9394D02*
X15444D01*
X17378Y8401D02*
Y9150D01*
X17110Y8330D02*
X18193Y7248D01*
X17110Y8330D02*
Y8835D01*
X16630Y8874D02*
X16946Y8559D01*
X16952D01*
Y8261D02*
Y8559D01*
X16746Y7246D02*
Y7777D01*
X16550Y7973D02*
X16746Y7777D01*
X16082Y7973D02*
X16550D01*
X15298Y8252D02*
X15971D01*
X16150Y8073D01*
X16591D02*
X16846Y7819D01*
X16150Y8073D02*
X16591D01*
X16645Y7205D02*
Y7718D01*
X15983Y7873D02*
X16490D01*
X16645Y7718D01*
X16846Y7287D02*
Y7819D01*
Y7287D02*
X17029Y7104D01*
X17590D02*
X17765Y6929D01*
X18005D01*
X17029Y7104D02*
X17590D01*
X17758Y6795D02*
X18060D01*
X17548Y7004D02*
X17758Y6795D01*
X16645Y7205D02*
X16950Y6900D01*
X17350D01*
X17380Y6870D01*
X17493D01*
X16987Y7004D02*
X17548D01*
X16746Y7246D02*
X16987Y7004D01*
X15929Y7819D02*
X15983Y7873D01*
X15281Y7519D02*
X15391D01*
X14500Y8300D02*
X15281Y7519D01*
X15988Y9662D02*
X16257Y9394D01*
X17135D01*
X14129Y5399D02*
X14240D01*
X14241Y5398D02*
X16186D01*
X14240Y5399D02*
X14241Y5398D01*
X15604Y5092D02*
X16817D01*
X15299Y4787D02*
X15604Y5092D01*
X13896Y5600D02*
X14948D01*
X12622Y6874D02*
X13896Y5600D01*
X13800Y5500D02*
X14989D01*
X14128Y5398D02*
X14129Y5399D01*
X13760Y5398D02*
X14128D01*
X12526Y6774D02*
X13800Y5500D01*
X12485Y6674D02*
X13760Y5398D01*
X13834Y4900D02*
X14864D01*
X12490Y6245D02*
X13834Y4900D01*
X11370Y6245D02*
X12490D01*
X13869Y5007D02*
X15093D01*
X12471Y6405D02*
X13869Y5007D01*
X15051Y5108D02*
X15207Y5264D01*
X13909Y5108D02*
X15051D01*
X12443Y6574D02*
X13909Y5108D01*
X14864Y4900D02*
X14977Y4787D01*
X15093Y5007D02*
X15188Y5102D01*
X15378D01*
X15512Y5236D01*
X15207Y5264D02*
X15225D01*
X16778Y6279D02*
X16981Y6482D01*
X16664Y6062D02*
X16673Y6071D01*
X16539Y6062D02*
X16664D01*
X16854Y5937D02*
X16942Y6024D01*
Y6043D01*
X16788Y6485D02*
Y6487D01*
X16661Y6614D02*
X16788Y6487D01*
X10389Y8050D02*
X10528D01*
X10320Y8118D02*
X10389Y8050D01*
X10454Y8199D02*
X10558Y8302D01*
X10528Y8050D02*
X10571Y8008D01*
X11655Y7282D02*
X11759D01*
X10986Y7951D02*
X11655Y7282D01*
X12168Y6874D02*
X12622D01*
X11759Y7282D02*
X12168Y6874D01*
X18832Y6536D02*
X19166D01*
X19248Y6454D01*
X19266D01*
X19094Y6436D02*
X19247Y6284D01*
X18874Y6436D02*
X19094D01*
X12126Y6774D02*
X12526D01*
X11759Y6674D02*
X12485D01*
X10725Y7708D02*
X11759Y6674D01*
X11613Y7182D02*
X11718D01*
X10788Y8008D02*
X11613Y7182D01*
X11718D02*
X12126Y6774D01*
X11086Y7992D02*
X11280Y7798D01*
X10982Y8208D02*
X11086Y8103D01*
X10867Y8208D02*
X10982D01*
X11086Y7992D02*
Y8103D01*
X11280Y7798D02*
X11526D01*
X10924Y8108D02*
X10986Y8046D01*
X10717Y8168D02*
X10736D01*
X10986Y7951D02*
Y8046D01*
X10977Y8442D02*
X11140D01*
X11987Y7450D02*
X12276Y7161D01*
X11873Y7450D02*
X11987D01*
X12028Y7550D02*
X12317Y7261D01*
X12561D01*
X12276Y7161D02*
X12476D01*
X11526Y7798D02*
X11873Y7450D01*
X10320Y8118D02*
Y8208D01*
X10242Y8286D02*
X10320Y8208D01*
X10161Y8286D02*
X10242D01*
X10082Y8365D02*
X10161Y8286D01*
X11094Y6520D02*
Y7056D01*
X10428Y7722D02*
X10625Y7525D01*
X11094Y7056D01*
X10964Y8644D02*
Y8644D01*
X10984Y8665D01*
X14345Y6718D02*
X16099D01*
X16232Y6508D02*
X16339Y6614D01*
X16661D01*
X15900Y6405D02*
X16027Y6279D01*
X13871Y6405D02*
X15900D01*
X17453Y6310D02*
X17776D01*
X12835Y7441D02*
X13871Y6405D01*
X16138Y7504D02*
Y7634D01*
X16142Y7638D01*
X15414Y6982D02*
X15932D01*
X14517Y8433D02*
X15131Y7819D01*
X14188Y8433D02*
X14517D01*
X13097Y9524D02*
X14188Y8433D01*
X14447Y7950D02*
X15414Y6982D01*
X14263Y7950D02*
X14447D01*
X13332Y8882D02*
X14263Y7950D01*
X14128Y8300D02*
X14500D01*
X13373Y9055D02*
X14128Y8300D01*
X12953Y7913D02*
X14252Y6614D01*
X12976Y8087D02*
X14345Y6718D01*
X14397Y8874D02*
X16630D01*
X13429Y9843D02*
X14397Y8874D01*
X11169Y9843D02*
X13429D01*
X14306Y8750D02*
X14800D01*
X13332Y9724D02*
X14306Y8750D01*
X11240Y9724D02*
X13332D01*
X14253Y8574D02*
X14726D01*
X13203Y9624D02*
X14253Y8574D01*
X15131Y7819D02*
X15929D01*
X14800Y8750D02*
X15298Y8252D01*
X14252Y6614D02*
X16188D01*
X12567Y8087D02*
X12976D01*
X14977Y4787D02*
X15299D01*
X11094Y6520D02*
X11370Y6245D01*
X12205Y9055D02*
X13373D01*
X12535Y7913D02*
X12953D01*
X12177Y8271D02*
X12535Y7913D01*
X11988Y8271D02*
X12177D01*
X12282Y8371D02*
X12567Y8087D01*
X19247Y6284D02*
X19406D01*
X14044Y6508D02*
X16232D01*
X12874Y7677D02*
X14044Y6508D01*
X17378Y8401D02*
X18599Y7180D01*
X17135Y9394D02*
X17378Y9150D01*
X9697Y9137D02*
X10028Y9467D01*
X18599Y7015D02*
Y7180D01*
X10984Y9275D02*
X11333Y9624D01*
X11517Y9231D02*
X11713Y9035D01*
Y8705D02*
Y9035D01*
Y8705D02*
X12047Y8371D01*
X11975Y7650D02*
X12308D01*
X11339Y8287D02*
X11975Y7650D01*
X12308D02*
X12517Y7441D01*
X11483Y8320D02*
X11693Y8110D01*
X12047Y8371D02*
X12282D01*
X12517Y7441D02*
X12835D01*
X12087Y8110D02*
X12520Y7677D01*
X11693Y8110D02*
X12087D01*
X12520Y7677D02*
X12874D01*
X11777Y8483D02*
X11988Y8271D01*
X11272Y9231D02*
X11517D01*
X12071Y8960D02*
Y9150D01*
Y8960D02*
X12149Y8882D01*
X13332D01*
X12008Y9213D02*
X12071Y9150D01*
X11732Y9213D02*
X12008D01*
X10965Y9449D02*
X11240Y9724D01*
X11375Y9524D02*
X13097D01*
X11333Y9624D02*
X13203D01*
X3362Y11669D02*
X4259D01*
X6526Y9403D01*
Y5387D02*
Y9403D01*
X6426Y5291D02*
Y9361D01*
X4252Y11535D02*
X6426Y9361D01*
X4016Y11535D02*
X4252D01*
X6526Y5387D02*
X6559Y5354D01*
X6426Y5291D02*
X6813Y4904D01*
X7729D01*
X6559Y5354D02*
X6634D01*
X6749Y5469D01*
X7729Y4904D02*
X8293Y5468D01*
X11635Y8545D02*
X11697Y8483D01*
X11777D01*
X19535Y6509D02*
X19548Y6496D01*
X18093Y6827D02*
X18245D01*
X18060Y6795D02*
X18093Y6827D01*
X16008Y7582D02*
Y7693D01*
X16086Y7772D01*
D33*
X22143Y8867D02*
D03*
X21993Y2202D02*
D03*
X22205Y2205D02*
D03*
X21778Y2206D02*
D03*
X25390Y4679D02*
D03*
X20600Y6395D02*
D03*
X24122Y1389D02*
D03*
X24417Y6920D02*
D03*
X25412Y4398D02*
D03*
X26654Y4606D02*
D03*
Y4449D02*
D03*
Y4291D02*
D03*
X22992Y1339D02*
D03*
Y1535D02*
D03*
X22637Y1340D02*
D03*
X22638Y1535D02*
D03*
X26811Y4449D02*
D03*
Y4606D02*
D03*
Y4291D02*
D03*
X26654Y4134D02*
D03*
X26811D02*
D03*
X24115Y1621D02*
D03*
D48*
X14212Y7489D02*
G03*
X14212Y7257I116J-116D01*
G01*
X14281Y7558D02*
G03*
X14281Y7645I-43J43D01*
G01*
D02*
G03*
X14194Y7645I-43J-43D01*
G01*
X13990Y7441D02*
G03*
X13991Y7441I-36J36D01*
G01*
X13758Y7441D02*
G03*
X13990Y7441I116J116D01*
G01*
X13758Y7673D02*
G03*
X13758Y7441I116J-116D01*
G01*
X13965Y7880D02*
G03*
X13965Y7967I-44J43D01*
G01*
X13965Y7967D02*
G03*
X13964Y7967I-43J-43D01*
G01*
X13964Y7967D02*
G03*
X13878Y7967I-43J-44D01*
G01*
X13671Y7760D02*
G03*
X13671Y7761I-36J36D01*
G01*
X13439Y7760D02*
G03*
X13671Y7760I116J116D01*
G01*
X13439Y7993D02*
G03*
X13439Y7760I116J-116D01*
G01*
X13646Y8199D02*
G03*
X13646Y8286I-44J43D01*
G01*
D02*
G03*
X13559Y8286I-43J-43D01*
G01*
X13352Y8079D02*
G03*
X13352Y8080I-36J36D01*
G01*
X13120Y8079D02*
G03*
X13352Y8079I116J116D01*
G01*
X13120Y8312D02*
G03*
X13120Y8079I116J-116D01*
G01*
X13327Y8518D02*
G03*
X13326Y8605I-44J43D01*
G01*
D02*
G03*
X13240Y8605I-43J-43D01*
G01*
X12935Y8534D02*
G03*
X13168Y8533I116J116D01*
G01*
X14285Y7416D02*
G03*
X14285Y7329I43J-43D01*
G01*
X14354Y7486D02*
G03*
X14354Y7718I-116J116D01*
G01*
D02*
G03*
X14122Y7718I-116J-116D01*
G01*
X13831Y7514D02*
G03*
X13918Y7514I43J43D01*
G01*
X13831Y7601D02*
G03*
X13831Y7514I43J-43D01*
G01*
X14037Y7807D02*
G03*
X14052Y8022I-116J116D01*
G01*
X14020Y8055D02*
G03*
X13805Y8040I-99J-131D01*
G01*
X13512Y7833D02*
G03*
X13598Y7833I43J43D01*
G01*
X13512Y7920D02*
G03*
X13512Y7833I43J-43D01*
G01*
X13718Y8126D02*
G03*
X13718Y8359I-116J116D01*
G01*
D02*
G03*
X13486Y8359I-116J-116D01*
G01*
X13193Y8152D02*
G03*
X13279Y8152I43J43D01*
G01*
X13193Y8239D02*
G03*
X13193Y8152I43J-43D01*
G01*
X13399Y8445D02*
G03*
X13399Y8446I-36J37D01*
G01*
D02*
G03*
X13399Y8678I-116J116D01*
G01*
D02*
G03*
X13167Y8678I-116J-116D01*
G01*
X13008Y8606D02*
G03*
X13095Y8606I43J43D01*
G01*
X14332Y7137D02*
X14368Y7101D01*
X14332Y7137D02*
X14332D01*
X14212Y7257D02*
X14332Y7137D01*
X14212Y7489D02*
X14281Y7558D01*
X13991Y7441D02*
X14194Y7645D01*
X13758Y7673D02*
X13965Y7880D01*
X13965Y7967D02*
X13965D01*
X13964Y7967D02*
X13964Y7967D01*
X13671Y7761D02*
X13878Y7967D01*
X13439Y7993D02*
X13646Y8199D01*
X13352Y8080D02*
X13559Y8286D01*
X13120Y8312D02*
X13327Y8518D01*
X13168Y8533D02*
X13240Y8605D01*
X12920Y8548D02*
X12935Y8534D01*
X12920Y8548D02*
Y8548D01*
X12884Y8585D02*
X12920Y8548D01*
X14404Y7210D02*
X14441Y7173D01*
X14285Y7329D02*
X14404Y7210D01*
X14285Y7416D02*
X14354Y7486D01*
X13918Y7514D02*
X14122Y7718D01*
X13831Y7601D02*
X14037Y7807D01*
X14052Y8022D02*
Y8024D01*
X14022Y8055D02*
X14052Y8024D01*
X14020Y8055D02*
X14022D01*
X13598Y7833D02*
X13805Y8040D01*
X13512Y7920D02*
X13718Y8126D01*
X13279Y8152D02*
X13486Y8359D01*
X13193Y8239D02*
X13399Y8445D01*
X13095Y8606D02*
X13167Y8678D01*
X12993Y8621D02*
X13008Y8606D01*
X12957Y8658D02*
X12993Y8621D01*
X14368Y7101D02*
X14468Y7001D01*
X14441Y7173D02*
X14510Y7104D01*
X14886D01*
X14468Y7001D02*
X14843D01*
X12833Y8636D02*
X12884Y8585D01*
X12875Y8739D02*
X12957Y8658D01*
X14873Y6915D02*
Y6971D01*
X14843Y7001D02*
X14873Y6971D01*
X14825Y6867D02*
X14873Y6915D01*
X14825Y6852D02*
Y6867D01*
X11994Y8636D02*
X12833D01*
X11924Y9052D02*
Y9077D01*
X11826Y8804D02*
X11994Y8636D01*
X11826Y8954D02*
X11924Y9052D01*
X11826Y8804D02*
Y8954D01*
X15024Y6852D02*
Y6867D01*
X11972Y8835D02*
X12068Y8739D01*
X12875D01*
X14976Y6915D02*
Y7013D01*
Y6915D02*
X15024Y6867D01*
X14886Y7104D02*
X14976Y7013D01*
D49*
X13965Y7967D02*
D03*
X12935Y8534D02*
D03*
X14037Y7807D02*
D03*
X13718Y8126D02*
D03*
D54*
X1804Y11261D02*
X2056Y11513D01*
X977Y11261D02*
X1804D01*
X2056Y11513D02*
X2714D01*
X2014Y11614D02*
X2756D01*
X1796Y11396D02*
X2014Y11614D01*
X1697Y11396D02*
X1796D01*
X859Y11379D02*
X977Y11261D01*
X859Y11379D02*
Y11398D01*
X10419Y4571D02*
X10723D01*
X9855Y5135D02*
X10419Y4571D01*
X9515Y5135D02*
X9855D01*
X11070Y5236D02*
X11239Y5067D01*
X9474Y5236D02*
X11070D01*
X9373Y5135D02*
X9474Y5236D01*
X2706Y11379D02*
X2960Y11125D01*
X2444Y11379D02*
X2706D01*
X4235Y11125D02*
X6124Y9236D01*
X2960Y11125D02*
X4235D01*
X2714Y11513D02*
X2990Y11238D01*
X4265D01*
X2756Y11614D02*
X3031Y11339D01*
X4307D01*
X4265Y11238D02*
X6225Y9278D01*
X6124Y5165D02*
X6688Y4601D01*
X7855D01*
X6124Y5165D02*
Y9236D01*
X6225Y5207D02*
Y9278D01*
X4307Y11339D02*
X6326Y9320D01*
X6225Y5207D02*
X6730Y4702D01*
X6326Y5249D02*
X6772Y4803D01*
X6326Y5249D02*
Y9320D01*
X6772Y4803D02*
X7771D01*
X6730Y4702D02*
X7813D01*
X7855Y4601D02*
X8130Y4877D01*
X7813Y4702D02*
X8088Y4978D01*
X7771Y4803D02*
X8047Y5079D01*
X8130Y4877D02*
X8428D01*
X8585Y5034D01*
X9414D02*
X9515Y5135D01*
X8585Y5034D02*
X9414D01*
X8386Y4978D02*
X8543Y5135D01*
X9331Y5236D02*
X9567Y5472D01*
X8340Y5079D02*
X8497Y5236D01*
X8047Y5079D02*
X8340D01*
X8497Y5236D02*
X9331D01*
X8088Y4978D02*
X8386D01*
X8543Y5135D02*
X9373D01*
D55*
X14444Y2656D02*
X18661D01*
X11237Y4649D02*
Y4658D01*
X11158Y4570D02*
X11237Y4649D01*
X11149Y4570D02*
X11158D01*
X11015Y4437D02*
X11149Y4570D01*
X10280Y4437D02*
X11015D01*
X10134Y4583D02*
X10280Y4437D01*
X9961Y4583D02*
X10134D01*
X12287Y4813D02*
X14444Y2656D01*
X11391Y4813D02*
X12287D01*
X11237Y4658D02*
X11391Y4813D01*
X9949Y4571D02*
X9961Y4583D01*
D56*
X26806Y9196D02*
D03*
Y9346D02*
D03*
Y9496D02*
D03*
Y9646D02*
D03*
X7848Y6957D02*
D03*
X15250Y10400D02*
D03*
X15400D02*
D03*
Y10250D02*
D03*
X15550Y10400D02*
D03*
Y10250D02*
D03*
X15700Y10400D02*
D03*
Y10250D02*
D03*
X15250D02*
D03*
X24156Y9983D02*
D03*
Y9833D02*
D03*
X24006D02*
D03*
X24156Y9683D02*
D03*
X24006D02*
D03*
X24156Y9533D02*
D03*
X24006D02*
D03*
Y9983D02*
D03*
X10881Y6999D02*
D03*
X6120Y10634D02*
D03*
X5670D02*
D03*
Y10484D02*
D03*
X5820Y10634D02*
D03*
Y10484D02*
D03*
X5970Y10634D02*
D03*
Y10484D02*
D03*
X6120D02*
D03*
X11Y1390D02*
D03*
Y1240D02*
D03*
Y1090D02*
D03*
Y1540D02*
D03*
X13417Y1318D02*
D03*
X13811Y1322D02*
D03*
X14227Y1322D02*
D03*
X20920Y2246D02*
D03*
Y2096D02*
D03*
Y1946D02*
D03*
Y2396D02*
D03*
X18654Y1529D02*
D03*
X18204D02*
D03*
Y1379D02*
D03*
X18354Y1529D02*
D03*
Y1379D02*
D03*
X18504Y1529D02*
D03*
Y1379D02*
D03*
X18654D02*
D03*
X4052Y3039D02*
D03*
X3602D02*
D03*
Y2889D02*
D03*
X3752Y3039D02*
D03*
Y2889D02*
D03*
X3902Y3039D02*
D03*
Y2889D02*
D03*
X4052D02*
D03*
X1152Y9445D02*
D03*
X1002D02*
D03*
Y9595D02*
D03*
X852Y9445D02*
D03*
Y9595D02*
D03*
X702Y9445D02*
D03*
Y9595D02*
D03*
X7023Y9347D02*
D03*
X14294Y4754D02*
D03*
X19402Y6989D02*
D03*
Y7178D02*
D03*
X14345Y10085D02*
D03*
X15984Y3189D02*
D03*
X16190Y6809D02*
D03*
X17235Y6331D02*
D03*
X14706Y7258D02*
D03*
X859Y11398D02*
D03*
X1697Y11396D02*
D03*
X10797Y4768D02*
D03*
X10723Y4571D02*
D03*
X9823Y8799D02*
D03*
X9957Y8158D02*
D03*
X10725Y7874D02*
D03*
X11617Y8545D02*
D03*
X11339Y8798D02*
D03*
X11487Y8936D02*
D03*
X11202Y6094D02*
D03*
X18465Y7124D02*
D03*
X18331Y6602D02*
D03*
X3228Y11535D02*
D03*
X11362Y6584D02*
D03*
X11645Y2842D02*
D03*
X2638Y4803D02*
D03*
X17638Y8858D02*
D03*
X4100Y4300D02*
D03*
X16457Y7563D02*
D03*
X17639Y4561D02*
D03*
X7390Y6113D02*
D03*
X9945Y7654D02*
D03*
X9433Y6118D02*
D03*
X10200Y6886D02*
D03*
X9689Y7398D02*
D03*
X10200D02*
D03*
X9945Y6618D02*
D03*
Y7130D02*
D03*
X9689Y6874D02*
D03*
X11482Y4092D02*
D03*
X13700Y3734D02*
D03*
X10975Y5597D02*
D03*
X9950Y4850D02*
D03*
X9693Y4571D02*
D03*
X9949D02*
D03*
X10575Y8783D02*
D03*
X10728Y8661D02*
D03*
X14528Y7344D02*
D03*
X11239Y5067D02*
D03*
X8330Y1969D02*
D03*
X16614Y9685D02*
D03*
X15150Y4000D02*
D03*
X14100Y5900D02*
D03*
X16673Y6071D02*
D03*
X16942Y6043D02*
D03*
X16788Y6485D02*
D03*
X10454Y8199D02*
D03*
X10964Y8644D02*
D03*
X10216Y8420D02*
D03*
X16142Y7638D02*
D03*
X14409Y8110D02*
D03*
X16339Y4606D02*
D03*
X16763Y3346D02*
D03*
X11924Y9077D02*
D03*
X11962Y8874D02*
D03*
X14825Y6852D02*
D03*
X15024D02*
D03*
X11220Y8937D02*
D03*
X11272Y9231D02*
D03*
X12205Y9055D02*
D03*
X11140Y8442D02*
D03*
X10965Y9449D02*
D03*
X11732Y9213D02*
D03*
X15225Y5264D02*
D03*
X8677Y4588D02*
D03*
X8799Y8031D02*
D03*
X1152Y9595D02*
D03*
X3858Y6544D02*
D03*
X3707Y6543D02*
D03*
X2444Y11379D02*
D03*
X8293Y5468D02*
D03*
X9567Y5472D02*
D03*
X4016Y11535D02*
D03*
X6749Y5469D02*
D03*
X11232Y6866D02*
D03*
X19406Y6284D02*
D03*
X19535Y6509D02*
D03*
X19266Y6454D02*
D03*
X10717Y8168D02*
D03*
X15512Y5236D02*
D03*
X18189Y6693D02*
D03*
X18599Y7015D02*
D03*
X18740Y6692D02*
D03*
X18005Y6929D02*
D03*
X17493Y6870D02*
D03*
X17776Y6310D02*
D03*
X18819Y4567D02*
D03*
X18031D02*
D03*
X19213Y4331D02*
D03*
X18425D02*
D03*
X16811Y4409D02*
D03*
X15551Y8386D02*
D03*
X15866Y8622D02*
D03*
X18425D02*
D03*
X19213D02*
D03*
X18032Y8858D02*
D03*
X18819D02*
D03*
D57*
X22874Y7638D02*
D03*
X22302Y5613D02*
D03*
X22295Y5853D02*
D03*
X22297Y5365D02*
D03*
X21535Y5551D02*
D03*
Y5315D02*
D03*
D58*
X24311Y6545D02*
D03*
X22628Y4862D02*
D03*
X24311D02*
D03*
X23189Y5423D02*
D03*
Y5984D02*
D03*
X23750Y6545D02*
D03*
X23189Y4862D02*
D03*
X23750Y5423D02*
D03*
Y5984D02*
D03*
X23189Y6545D02*
D03*
X24311Y5423D02*
D03*
X22628Y6545D02*
D03*
X23750Y4862D02*
D03*
X22628Y5984D02*
D03*
Y5423D02*
D03*
X24311Y5984D02*
D03*
D61*
X22992Y1535D02*
Y2087D01*
Y1339D02*
Y1535D01*
X22638D02*
X22785Y1682D01*
X22637Y1534D02*
X22638Y1535D01*
X22637Y1340D02*
Y1534D01*
X24115Y1621D02*
Y2286D01*
Y1397D02*
Y1621D01*
X26428Y3418D02*
Y4220D01*
X25952Y2943D02*
X26428Y3418D01*
X24771Y2943D02*
X25952D01*
X24115Y2286D02*
X24771Y2943D01*
X25867Y3150D02*
X26220Y3504D01*
X24056Y3150D02*
X25867D01*
X22992Y2087D02*
X24056Y3150D01*
X24567Y4094D02*
X25151Y4679D01*
X25390D01*
X25299Y6382D02*
X25547D01*
X25144Y6536D02*
X25299Y6382D01*
X25144Y6536D02*
Y6785D01*
X24535Y7156D02*
X24773D01*
X25144Y6785D01*
X25547Y6382D02*
X25945Y5984D01*
Y4703D02*
Y5984D01*
X24417Y7039D02*
X24535Y7156D01*
X24417Y6920D02*
Y7039D01*
X25952Y4402D02*
X26220Y4134D01*
X25945Y4703D02*
X26428Y4220D01*
X26220Y3504D02*
Y4134D01*
X25412Y4398D02*
X25416Y4402D01*
X24189Y3576D02*
Y3895D01*
X22785Y2173D02*
X24189Y3576D01*
X24388Y4094D02*
X24567D01*
X24189Y3895D02*
X24388Y4094D01*
X25416Y4402D02*
X25952D01*
X22785Y1682D02*
Y2173D01*
M02*
